G04 #@! TF.GenerationSoftware,KiCad,Pcbnew,(6.0.4)*
G04 #@! TF.CreationDate,2022-04-15T12:40:15+02:00*
G04 #@! TF.ProjectId,hernieuwdeBuffer_beide_groundplane,6865726e-6965-4757-9764-654275666665,rev?*
G04 #@! TF.SameCoordinates,Original*
G04 #@! TF.FileFunction,Legend,Bot*
G04 #@! TF.FilePolarity,Positive*
%FSLAX46Y46*%
G04 Gerber Fmt 4.6, Leading zero omitted, Abs format (unit mm)*
G04 Created by KiCad (PCBNEW (6.0.4)) date 2022-04-15 12:40:15*
%MOMM*%
%LPD*%
G01*
G04 APERTURE LIST*
%ADD10C,0.150000*%
%ADD11C,0.120000*%
G04 APERTURE END LIST*
D10*
X173044608Y-73039100D02*
X173044608Y-73611168D01*
X174045726Y-73325134D02*
X173044608Y-73325134D01*
X173139953Y-73897201D02*
X173092281Y-73944874D01*
X173044608Y-74040218D01*
X173044608Y-74278580D01*
X173092281Y-74373924D01*
X173139953Y-74421596D01*
X173235297Y-74469269D01*
X173330642Y-74469269D01*
X173473659Y-74421596D01*
X174045726Y-73849529D01*
X174045726Y-74469269D01*
X173044608Y-75089008D02*
X173044608Y-75184353D01*
X173092281Y-75279698D01*
X173139953Y-75327370D01*
X173235297Y-75375042D01*
X173425987Y-75422714D01*
X173664348Y-75422714D01*
X173855037Y-75375042D01*
X173950382Y-75327370D01*
X173998054Y-75279698D01*
X174045726Y-75184353D01*
X174045726Y-75089008D01*
X173998054Y-74993664D01*
X173950382Y-74945992D01*
X173855037Y-74898319D01*
X173664348Y-74850647D01*
X173425987Y-74850647D01*
X173235297Y-74898319D01*
X173139953Y-74945992D01*
X173092281Y-74993664D01*
X173044608Y-75089008D01*
X135408928Y-81858663D02*
X135408928Y-82430730D01*
X136410046Y-82144697D02*
X135408928Y-82144697D01*
X135742634Y-83193487D02*
X136410046Y-83193487D01*
X135361256Y-82955126D02*
X136076340Y-82716764D01*
X136076340Y-83336504D01*
X173044608Y-69539100D02*
X173044608Y-70111168D01*
X174045726Y-69825134D02*
X173044608Y-69825134D01*
X174045726Y-70969269D02*
X174045726Y-70397201D01*
X174045726Y-70683235D02*
X173044608Y-70683235D01*
X173187625Y-70587890D01*
X173282970Y-70492546D01*
X173330642Y-70397201D01*
X174045726Y-71445992D02*
X174045726Y-71636681D01*
X173998054Y-71732025D01*
X173950382Y-71779698D01*
X173807365Y-71875042D01*
X173616676Y-71922714D01*
X173235297Y-71922714D01*
X173139953Y-71875042D01*
X173092281Y-71827370D01*
X173044608Y-71732025D01*
X173044608Y-71541336D01*
X173092281Y-71445992D01*
X173139953Y-71398319D01*
X173235297Y-71350647D01*
X173473659Y-71350647D01*
X173569003Y-71398319D01*
X173616676Y-71445992D01*
X173664348Y-71541336D01*
X173664348Y-71732025D01*
X173616676Y-71827370D01*
X173569003Y-71875042D01*
X173473659Y-71922714D01*
X173044608Y-76539100D02*
X173044608Y-77111168D01*
X174045726Y-76825134D02*
X173044608Y-76825134D01*
X173139953Y-77397201D02*
X173092281Y-77444874D01*
X173044608Y-77540218D01*
X173044608Y-77778580D01*
X173092281Y-77873924D01*
X173139953Y-77921596D01*
X173235297Y-77969269D01*
X173330642Y-77969269D01*
X173473659Y-77921596D01*
X174045726Y-77349529D01*
X174045726Y-77969269D01*
X174045726Y-78922714D02*
X174045726Y-78350647D01*
X174045726Y-78636681D02*
X173044608Y-78636681D01*
X173187625Y-78541336D01*
X173282970Y-78445992D01*
X173330642Y-78350647D01*
X135458928Y-74708663D02*
X135458928Y-75280730D01*
X136460046Y-74994697D02*
X135458928Y-74994697D01*
X135554273Y-75566764D02*
X135506601Y-75614436D01*
X135458928Y-75709781D01*
X135458928Y-75948142D01*
X135506601Y-76043487D01*
X135554273Y-76091159D01*
X135649617Y-76138832D01*
X135744962Y-76138832D01*
X135887979Y-76091159D01*
X136460046Y-75519092D01*
X136460046Y-76138832D01*
X135458928Y-78208663D02*
X135458928Y-78780730D01*
X136460046Y-78494697D02*
X135458928Y-78494697D01*
X135458928Y-79019092D02*
X135458928Y-79638832D01*
X135840307Y-79305126D01*
X135840307Y-79448142D01*
X135887979Y-79543487D01*
X135935651Y-79591159D01*
X136030996Y-79638832D01*
X136269357Y-79638832D01*
X136364702Y-79591159D01*
X136412374Y-79543487D01*
X136460046Y-79448142D01*
X136460046Y-79162109D01*
X136412374Y-79066764D01*
X136364702Y-79019092D01*
X135408928Y-85458663D02*
X135408928Y-86030730D01*
X136410046Y-85744697D02*
X135408928Y-85744697D01*
X135408928Y-86841159D02*
X135408928Y-86364436D01*
X135885651Y-86316764D01*
X135837979Y-86364436D01*
X135790307Y-86459781D01*
X135790307Y-86698142D01*
X135837979Y-86793487D01*
X135885651Y-86841159D01*
X135980996Y-86888832D01*
X136219357Y-86888832D01*
X136314702Y-86841159D01*
X136362374Y-86793487D01*
X136410046Y-86698142D01*
X136410046Y-86459781D01*
X136362374Y-86364436D01*
X136314702Y-86316764D01*
X135508928Y-88958663D02*
X135508928Y-89530730D01*
X136510046Y-89244697D02*
X135508928Y-89244697D01*
X135508928Y-90293487D02*
X135508928Y-90102798D01*
X135556601Y-90007453D01*
X135604273Y-89959781D01*
X135747290Y-89864436D01*
X135937979Y-89816764D01*
X136319357Y-89816764D01*
X136414702Y-89864436D01*
X136462374Y-89912109D01*
X136510046Y-90007453D01*
X136510046Y-90198142D01*
X136462374Y-90293487D01*
X136414702Y-90341159D01*
X136319357Y-90388832D01*
X136080996Y-90388832D01*
X135985651Y-90341159D01*
X135937979Y-90293487D01*
X135890307Y-90198142D01*
X135890307Y-90007453D01*
X135937979Y-89912109D01*
X135985651Y-89864436D01*
X136080996Y-89816764D01*
X135458928Y-92508663D02*
X135458928Y-93080730D01*
X136460046Y-92794697D02*
X135458928Y-92794697D01*
X135458928Y-93319092D02*
X135458928Y-93986504D01*
X136460046Y-93557453D01*
X148102380Y-84333333D02*
X147626190Y-84000000D01*
X148102380Y-83761904D02*
X147102380Y-83761904D01*
X147102380Y-84142857D01*
X147150000Y-84238095D01*
X147197619Y-84285714D01*
X147292857Y-84333333D01*
X147435714Y-84333333D01*
X147530952Y-84285714D01*
X147578571Y-84238095D01*
X147626190Y-84142857D01*
X147626190Y-83761904D01*
X147197619Y-84714285D02*
X147150000Y-84761904D01*
X147102380Y-84857142D01*
X147102380Y-85095238D01*
X147150000Y-85190476D01*
X147197619Y-85238095D01*
X147292857Y-85285714D01*
X147388095Y-85285714D01*
X147530952Y-85238095D01*
X148102380Y-84666666D01*
X148102380Y-85285714D01*
X172110899Y-84844608D02*
X171538832Y-84844608D01*
X171824865Y-85845726D02*
X171824865Y-84844608D01*
X171252798Y-84939953D02*
X171205126Y-84892281D01*
X171109781Y-84844608D01*
X170871420Y-84844608D01*
X170776075Y-84892281D01*
X170728403Y-84939953D01*
X170680730Y-85035297D01*
X170680730Y-85130642D01*
X170728403Y-85273659D01*
X171300470Y-85845726D01*
X170680730Y-85845726D01*
X170299352Y-84939953D02*
X170251680Y-84892281D01*
X170156335Y-84844608D01*
X169917974Y-84844608D01*
X169822629Y-84892281D01*
X169774957Y-84939953D01*
X169727285Y-85035297D01*
X169727285Y-85130642D01*
X169774957Y-85273659D01*
X170347024Y-85845726D01*
X169727285Y-85845726D01*
D11*
X148565000Y-84272936D02*
X148565000Y-84727064D01*
X150035000Y-84272936D02*
X150035000Y-84727064D01*
M02*
