M48
INCH,TZ
T1C0.0157
T2C0.0300
T3C0.0315
T4C0.0390
T5C0.0394
%
G90
G05
T1
X50748Y-36299
X50807Y-31043
X53642Y-32795
X53681Y-34213
X53740Y-35650
X53917Y-28543
X53996Y-30059
X54075Y-31476
T2
X41319Y-29173
X41319Y-35827
X46004Y-29173
X46004Y-35827
T3
X51614Y-30020
X53085Y-35370
X53130Y-33740
X53307Y-26850
X53346Y-28740
X54882Y-27008
X55650Y-29646
X55669Y-30965
X55669Y-32402
X55669Y-33819
X55669Y-35197
X55689Y-36594
X56929Y-29685
X57067Y-29055
X57106Y-30787
X57244Y-31713
X57303Y-30217
X57421Y-28091
X58031Y-32343
X59232Y-25984
X62835Y-33366
X63268Y-31004
X63543Y-31555
X63819Y-29882
X63839Y-28051
X63996Y-29331
X65177Y-36004
X66181Y-28248
X66280Y-30925
X66319Y-29606
X66437Y-26693
X66437Y-27244
X67736Y-32165
X67972Y-30394
X68130Y-29016
X68307Y-25984
X68659Y-27794
X71516Y-30335
X71752Y-26870
T4
X54055Y-25132
X54055Y-27691
X55827Y-25132
X55827Y-27691
X60728Y-34252
X60728Y-36024
X63287Y-34252
X63287Y-36024
T5
X49256Y-33291
X49256Y-34291
X49256Y-35291
X49335Y-28390
X49335Y-29390
X49335Y-30390
X50256Y-33291
X50256Y-34291
X50256Y-35291
X50335Y-28390
X50335Y-29390
X50335Y-30390
X65307Y-35295
X66307Y-35295
X67307Y-35295
X68307Y-35295
X69307Y-35295
X70768Y-29953
X70768Y-30953
X70768Y-31953
X70768Y-32953
X70768Y-33953
X70787Y-25504
X70787Y-26504
X70787Y-27504
X70787Y-28504
T5
G00X35965Y-28839
M15
G01X35965Y-29862
M16
G05
G00X38366Y-27992
M15
G01X37343Y-27992
M16
G05
G00X38386Y-30492
M15
G01X37362Y-30492
M16
G05
T0
M30
