G04 #@! TF.GenerationSoftware,KiCad,Pcbnew,(6.0.4)*
G04 #@! TF.CreationDate,2022-04-15T12:40:15+02:00*
G04 #@! TF.ProjectId,hernieuwdeBuffer_beide_groundplane,6865726e-6965-4757-9764-654275666665,rev?*
G04 #@! TF.SameCoordinates,Original*
G04 #@! TF.FileFunction,Soldermask,Top*
G04 #@! TF.FilePolarity,Negative*
%FSLAX46Y46*%
G04 Gerber Fmt 4.6, Leading zero omitted, Abs format (unit mm)*
G04 Created by KiCad (PCBNEW (6.0.4)) date 2022-04-15 12:40:15*
%MOMM*%
%LPD*%
G01*
G04 APERTURE LIST*
G04 Aperture macros list*
%AMRoundRect*
0 Rectangle with rounded corners*
0 $1 Rounding radius*
0 $2 $3 $4 $5 $6 $7 $8 $9 X,Y pos of 4 corners*
0 Add a 4 corners polygon primitive as box body*
4,1,4,$2,$3,$4,$5,$6,$7,$8,$9,$2,$3,0*
0 Add four circle primitives for the rounded corners*
1,1,$1+$1,$2,$3*
1,1,$1+$1,$4,$5*
1,1,$1+$1,$6,$7*
1,1,$1+$1,$8,$9*
0 Add four rect primitives between the rounded corners*
20,1,$1+$1,$2,$3,$4,$5,0*
20,1,$1+$1,$4,$5,$6,$7,0*
20,1,$1+$1,$6,$7,$8,$9,0*
20,1,$1+$1,$8,$9,$2,$3,0*%
G04 Aperture macros list end*
%ADD10R,1.600000X2.800000*%
%ADD11R,1.400000X1.000000*%
%ADD12R,5.200000X2.400000*%
%ADD13R,2.400000X5.200000*%
%ADD14RoundRect,0.250000X-0.450000X0.262500X-0.450000X-0.262500X0.450000X-0.262500X0.450000X0.262500X0*%
%ADD15R,1.700000X1.700000*%
%ADD16O,1.700000X1.700000*%
%ADD17R,1.498000X1.498000*%
%ADD18C,1.498000*%
%ADD19RoundRect,0.250000X-0.475000X0.250000X-0.475000X-0.250000X0.475000X-0.250000X0.475000X0.250000X0*%
%ADD20R,1.000000X1.400000*%
%ADD21RoundRect,0.250000X-0.250000X-0.475000X0.250000X-0.475000X0.250000X0.475000X-0.250000X0.475000X0*%
%ADD22R,4.000000X4.000000*%
%ADD23R,1.500000X0.900000*%
%ADD24R,0.900000X1.500000*%
%ADD25R,0.900000X0.900000*%
%ADD26RoundRect,0.250000X0.475000X-0.250000X0.475000X0.250000X-0.475000X0.250000X-0.475000X-0.250000X0*%
%ADD27RoundRect,0.093000X-0.562000X0.372000X-0.562000X-0.372000X0.562000X-0.372000X0.562000X0.372000X0*%
%ADD28RoundRect,0.131000X-0.524000X1.489000X-0.524000X-1.489000X0.524000X-1.489000X0.524000X1.489000X0*%
%ADD29RoundRect,0.250000X0.250000X0.475000X-0.250000X0.475000X-0.250000X-0.475000X0.250000X-0.475000X0*%
G04 APERTURE END LIST*
D10*
X114100000Y-68850000D03*
X114100000Y-64550000D03*
D11*
X170950000Y-70850000D03*
X170950000Y-72750000D03*
X173150000Y-71800000D03*
D12*
X96200000Y-77450000D03*
X96150000Y-71100000D03*
D13*
X91350000Y-74550000D03*
D14*
X144600000Y-64637500D03*
X144600000Y-66462500D03*
D15*
X176040000Y-89650000D03*
D16*
X173500000Y-89650000D03*
X170960000Y-89650000D03*
X168420000Y-89650000D03*
X165880000Y-89650000D03*
D15*
X179750000Y-76080000D03*
D16*
X179750000Y-78620000D03*
X179750000Y-81160000D03*
X179750000Y-83700000D03*
X179750000Y-86240000D03*
D17*
X154250000Y-87000000D03*
D18*
X160750000Y-87000000D03*
X154250000Y-91500000D03*
X160750000Y-91500000D03*
D19*
X128750000Y-65450000D03*
X128750000Y-67350000D03*
D11*
X133200000Y-79600000D03*
X133200000Y-77700000D03*
X131000000Y-78650000D03*
X171000000Y-63700000D03*
X171000000Y-65600000D03*
X173200000Y-64650000D03*
X133250000Y-71750000D03*
X133250000Y-69850000D03*
X131050000Y-70800000D03*
D20*
X143600000Y-72500000D03*
X141700000Y-72500000D03*
X142650000Y-74700000D03*
D21*
X107900000Y-70000000D03*
X109800000Y-70000000D03*
D22*
X116850000Y-91000000D03*
X104950000Y-91000000D03*
X116850000Y-74100000D03*
X104950000Y-74100000D03*
D23*
X147400000Y-63990000D03*
X147400000Y-65260000D03*
X147400000Y-66530000D03*
X147400000Y-67800000D03*
X147400000Y-69070000D03*
X147400000Y-70340000D03*
X147400000Y-71610000D03*
X147400000Y-72880000D03*
X147400000Y-74150000D03*
X147400000Y-75420000D03*
X147400000Y-76690000D03*
X147400000Y-77960000D03*
X147400000Y-79230000D03*
X147400000Y-80500000D03*
D24*
X150435000Y-81750000D03*
X151705000Y-81750000D03*
X152975000Y-81750000D03*
X154245000Y-81750000D03*
X155515000Y-81750000D03*
X156785000Y-81750000D03*
X158055000Y-81750000D03*
X159325000Y-81750000D03*
X160595000Y-81750000D03*
X161865000Y-81750000D03*
D23*
X164900000Y-80500000D03*
X164900000Y-79230000D03*
X164900000Y-77960000D03*
X164900000Y-76690000D03*
X164900000Y-75420000D03*
X164900000Y-74150000D03*
X164900000Y-72880000D03*
X164900000Y-71610000D03*
X164900000Y-70340000D03*
X164900000Y-69070000D03*
X164900000Y-67800000D03*
X164900000Y-66530000D03*
X164900000Y-65260000D03*
X164900000Y-63990000D03*
D25*
X153250000Y-70310000D03*
X154650000Y-70310000D03*
X156050000Y-70310000D03*
X153250000Y-71710000D03*
X154650000Y-71710000D03*
X156050000Y-71710000D03*
X153250000Y-73110000D03*
X154650000Y-73110000D03*
X156050000Y-73110000D03*
D11*
X151750000Y-83650000D03*
X151750000Y-85550000D03*
X153950000Y-84600000D03*
D19*
X130900000Y-65450000D03*
X130900000Y-67350000D03*
D11*
X132950000Y-92400000D03*
X132950000Y-90500000D03*
X130750000Y-91450000D03*
D26*
X144700000Y-70250000D03*
X144700000Y-68350000D03*
D19*
X133400000Y-65400000D03*
X133400000Y-67300000D03*
D15*
X179800000Y-72400000D03*
D16*
X179800000Y-69860000D03*
X179800000Y-67320000D03*
X179800000Y-64780000D03*
D11*
X170950000Y-67200000D03*
X170950000Y-69100000D03*
X173150000Y-68150000D03*
D17*
X141800000Y-63835000D03*
D18*
X141800000Y-70335000D03*
X137300000Y-63835000D03*
X137300000Y-70335000D03*
D11*
X133100000Y-83950000D03*
X133100000Y-82050000D03*
X130900000Y-83000000D03*
D27*
X119205000Y-64310000D03*
X119205000Y-66600000D03*
X119205000Y-68890000D03*
D28*
X125895000Y-66600000D03*
D11*
X171050000Y-78350000D03*
X171050000Y-80250000D03*
X173250000Y-79300000D03*
D15*
X125110000Y-84560000D03*
D16*
X127650000Y-84560000D03*
X125110000Y-87100000D03*
X127650000Y-87100000D03*
X125110000Y-89640000D03*
X127650000Y-89640000D03*
D11*
X133200000Y-75650000D03*
X133200000Y-73750000D03*
X131000000Y-74700000D03*
X133000000Y-88050000D03*
X133000000Y-86150000D03*
X130800000Y-87100000D03*
D15*
X125310000Y-72110000D03*
D16*
X127850000Y-72110000D03*
X125310000Y-74650000D03*
X127850000Y-74650000D03*
X125310000Y-77190000D03*
X127850000Y-77190000D03*
D29*
X109850000Y-67750000D03*
X107950000Y-67750000D03*
D11*
X170950000Y-74450000D03*
X170950000Y-76350000D03*
X173150000Y-75400000D03*
M02*
