G04 #@! TF.GenerationSoftware,KiCad,Pcbnew,(6.0.4)*
G04 #@! TF.CreationDate,2022-04-15T12:40:15+02:00*
G04 #@! TF.ProjectId,hernieuwdeBuffer_beide_groundplane,6865726e-6965-4757-9764-654275666665,rev?*
G04 #@! TF.SameCoordinates,Original*
G04 #@! TF.FileFunction,Copper,L2,Bot*
G04 #@! TF.FilePolarity,Positive*
%FSLAX46Y46*%
G04 Gerber Fmt 4.6, Leading zero omitted, Abs format (unit mm)*
G04 Created by KiCad (PCBNEW (6.0.4)) date 2022-04-15 12:40:15*
%MOMM*%
%LPD*%
G01*
G04 APERTURE LIST*
G04 Aperture macros list*
%AMRoundRect*
0 Rectangle with rounded corners*
0 $1 Rounding radius*
0 $2 $3 $4 $5 $6 $7 $8 $9 X,Y pos of 4 corners*
0 Add a 4 corners polygon primitive as box body*
4,1,4,$2,$3,$4,$5,$6,$7,$8,$9,$2,$3,0*
0 Add four circle primitives for the rounded corners*
1,1,$1+$1,$2,$3*
1,1,$1+$1,$4,$5*
1,1,$1+$1,$6,$7*
1,1,$1+$1,$8,$9*
0 Add four rect primitives between the rounded corners*
20,1,$1+$1,$2,$3,$4,$5,0*
20,1,$1+$1,$4,$5,$6,$7,0*
20,1,$1+$1,$6,$7,$8,$9,0*
20,1,$1+$1,$8,$9,$2,$3,0*%
G04 Aperture macros list end*
G04 #@! TA.AperFunction,ComponentPad*
%ADD10R,5.200000X2.400000*%
G04 #@! TD*
G04 #@! TA.AperFunction,ComponentPad*
%ADD11R,2.400000X5.200000*%
G04 #@! TD*
G04 #@! TA.AperFunction,ComponentPad*
%ADD12R,1.700000X1.700000*%
G04 #@! TD*
G04 #@! TA.AperFunction,ComponentPad*
%ADD13O,1.700000X1.700000*%
G04 #@! TD*
G04 #@! TA.AperFunction,ComponentPad*
%ADD14R,1.498000X1.498000*%
G04 #@! TD*
G04 #@! TA.AperFunction,ComponentPad*
%ADD15C,1.498000*%
G04 #@! TD*
G04 #@! TA.AperFunction,ComponentPad*
%ADD16R,4.000000X4.000000*%
G04 #@! TD*
G04 #@! TA.AperFunction,SMDPad,CuDef*
%ADD17R,1.400000X1.000000*%
G04 #@! TD*
G04 #@! TA.AperFunction,SMDPad,CuDef*
%ADD18RoundRect,0.250000X-0.450000X0.262500X-0.450000X-0.262500X0.450000X-0.262500X0.450000X0.262500X0*%
G04 #@! TD*
G04 #@! TA.AperFunction,SMDPad,CuDef*
%ADD19R,1.000000X1.400000*%
G04 #@! TD*
G04 #@! TA.AperFunction,ViaPad*
%ADD20C,1.200000*%
G04 #@! TD*
G04 #@! TA.AperFunction,ViaPad*
%ADD21C,0.800000*%
G04 #@! TD*
G04 #@! TA.AperFunction,Conductor*
%ADD22C,0.800000*%
G04 #@! TD*
G04 APERTURE END LIST*
D10*
X96200000Y-77450000D03*
X96150000Y-71100000D03*
D11*
X91350000Y-74550000D03*
D12*
X176040000Y-89650000D03*
D13*
X173500000Y-89650000D03*
X170960000Y-89650000D03*
X168420000Y-89650000D03*
X165880000Y-89650000D03*
D12*
X179750000Y-76080000D03*
D13*
X179750000Y-78620000D03*
X179750000Y-81160000D03*
X179750000Y-83700000D03*
X179750000Y-86240000D03*
D14*
X154250000Y-87000000D03*
D15*
X160750000Y-87000000D03*
X154250000Y-91500000D03*
X160750000Y-91500000D03*
D16*
X116850000Y-91000000D03*
X104950000Y-91000000D03*
X116850000Y-74100000D03*
X104950000Y-74100000D03*
D12*
X179800000Y-72400000D03*
D13*
X179800000Y-69860000D03*
X179800000Y-67320000D03*
X179800000Y-64780000D03*
D14*
X141800000Y-63835000D03*
D15*
X141800000Y-70335000D03*
X137300000Y-63835000D03*
X137300000Y-70335000D03*
D12*
X125110000Y-84560000D03*
D13*
X127650000Y-84560000D03*
X125110000Y-87100000D03*
X127650000Y-87100000D03*
X125110000Y-89640000D03*
X127650000Y-89640000D03*
D12*
X125310000Y-72110000D03*
D13*
X127850000Y-72110000D03*
X125310000Y-74650000D03*
X127850000Y-74650000D03*
X125310000Y-77190000D03*
X127850000Y-77190000D03*
D17*
X169950000Y-76500000D03*
X169950000Y-74600000D03*
X172150000Y-75550000D03*
X139600000Y-80400000D03*
X139600000Y-82300000D03*
X137400000Y-81350000D03*
X169950000Y-73000000D03*
X169950000Y-71100000D03*
X172150000Y-72050000D03*
X169950000Y-80000000D03*
X169950000Y-78100000D03*
X172150000Y-79050000D03*
X139650000Y-73250000D03*
X139650000Y-75150000D03*
X137450000Y-74200000D03*
X139650000Y-76750000D03*
X139650000Y-78650000D03*
X137450000Y-77700000D03*
X139600000Y-84000000D03*
X139600000Y-85900000D03*
X137400000Y-84950000D03*
X139700000Y-87500000D03*
X139700000Y-89400000D03*
X137500000Y-88450000D03*
X139650000Y-91050000D03*
X139650000Y-92950000D03*
X137450000Y-92000000D03*
D18*
X149300000Y-83587500D03*
X149300000Y-85412500D03*
D19*
X168650000Y-81750000D03*
X170550000Y-81750000D03*
X169600000Y-83950000D03*
D20*
X145850000Y-71350000D03*
X139400000Y-68600000D03*
X174393729Y-70596060D03*
X182250000Y-68250000D03*
X173050000Y-73700000D03*
X135400000Y-68200000D03*
X135500000Y-73000000D03*
X131100000Y-76250000D03*
X168100000Y-71750000D03*
X172050000Y-81700000D03*
X134950000Y-85700000D03*
X162150000Y-71250000D03*
X134835107Y-89840409D03*
X173500000Y-66000000D03*
X181650000Y-77050000D03*
X172650000Y-77200000D03*
X168450000Y-75200000D03*
X165550000Y-91450000D03*
X168350000Y-78550000D03*
D21*
X129050000Y-78850000D03*
D20*
X141400000Y-89400000D03*
X141400000Y-82300000D03*
X141450000Y-92950000D03*
X141400000Y-85900000D03*
X141400000Y-78650000D03*
X141350000Y-75300000D03*
X144950000Y-73800000D03*
D21*
X136950000Y-72500000D03*
X137150000Y-76350000D03*
D20*
X144600000Y-75400000D03*
D21*
X137350000Y-79950000D03*
D20*
X145550000Y-76750000D03*
X145050000Y-78200000D03*
D21*
X136250000Y-83300000D03*
D20*
X145400000Y-80550000D03*
D21*
X136350000Y-86900000D03*
D20*
X147400000Y-82150000D03*
D21*
X136500000Y-90550000D03*
D20*
X162550000Y-74500000D03*
X162100000Y-75900000D03*
X160700000Y-78750000D03*
X161400000Y-80150000D03*
X150450000Y-66000000D03*
X168750000Y-69200000D03*
X168750000Y-67800000D03*
D21*
X128900000Y-92200000D03*
D20*
X159600000Y-84750000D03*
D22*
X171899511Y-77950489D02*
X172650000Y-77200000D01*
X170453940Y-70596060D02*
X174393729Y-70596060D01*
X168350000Y-78550000D02*
X169350000Y-78550000D01*
X169950000Y-78100000D02*
X170099511Y-77950489D01*
X170550000Y-81750000D02*
X172000000Y-81750000D01*
X170099511Y-74450489D02*
X172299511Y-74450489D01*
X169950000Y-74600000D02*
X170099511Y-74450489D01*
X169050000Y-71000000D02*
X170000000Y-71000000D01*
X168300000Y-71750000D02*
X169050000Y-71000000D01*
X169350000Y-78550000D02*
X169900000Y-78000000D01*
X170099511Y-77950489D02*
X171899511Y-77950489D01*
X172299511Y-74450489D02*
X173050000Y-73700000D01*
X172000000Y-81750000D02*
X172050000Y-81700000D01*
X169950000Y-71100000D02*
X170453940Y-70596060D01*
X125600000Y-70450000D02*
X125200000Y-70850000D01*
X125200000Y-70850000D02*
X125200000Y-72200000D01*
X133700000Y-74200000D02*
X129950000Y-70450000D01*
X137450000Y-74200000D02*
X133700000Y-74200000D01*
X129950000Y-70450000D02*
X125600000Y-70450000D01*
X135700000Y-77700000D02*
X134550000Y-78850000D01*
X137450000Y-77700000D02*
X135700000Y-77700000D01*
X134550000Y-78850000D02*
X129050000Y-78850000D01*
X125310000Y-78210000D02*
X126400000Y-79300000D01*
X125310000Y-77190000D02*
X125310000Y-78210000D01*
X128050000Y-79300000D02*
X130100000Y-81350000D01*
X130100000Y-81350000D02*
X137400000Y-81350000D01*
X126400000Y-79300000D02*
X128050000Y-79300000D01*
X176000000Y-89650000D02*
X176050000Y-89700000D01*
X176040000Y-88890000D02*
X176000000Y-88850000D01*
X176040000Y-89650000D02*
X176040000Y-88890000D01*
X176000000Y-73450000D02*
X176000000Y-88850000D01*
X172150000Y-72050000D02*
X174600000Y-72050000D01*
X176000000Y-88850000D02*
X176000000Y-89650000D01*
X174600000Y-72050000D02*
X176000000Y-73450000D01*
X173440000Y-88790000D02*
X173440000Y-89560000D01*
X173350000Y-75550000D02*
X172150000Y-75550000D01*
X173500000Y-89650000D02*
X173500000Y-88850000D01*
X174400000Y-83250000D02*
X174400000Y-76600000D01*
X173440000Y-84210000D02*
X173440000Y-88790000D01*
X174400000Y-76600000D02*
X173350000Y-75550000D01*
X173440000Y-84210000D02*
X174400000Y-83250000D01*
X173500000Y-88850000D02*
X173440000Y-88790000D01*
X173440000Y-89560000D02*
X173400000Y-89600000D01*
X172100000Y-80050000D02*
X173300000Y-81250000D01*
X170990000Y-84710000D02*
X170990000Y-88860000D01*
X170990000Y-89560000D02*
X170850000Y-89700000D01*
X170990000Y-88860000D02*
X170990000Y-89560000D01*
X170960000Y-89650000D02*
X170960000Y-88890000D01*
X172100000Y-79100000D02*
X172100000Y-80050000D01*
X173300000Y-82400000D02*
X170990000Y-84710000D01*
X170960000Y-88890000D02*
X170990000Y-88860000D01*
X173300000Y-81250000D02*
X173300000Y-82400000D01*
X169600000Y-83950000D02*
X168350000Y-85200000D01*
X168350000Y-89450000D02*
X168550000Y-89650000D01*
X168350000Y-85200000D02*
X168350000Y-89450000D01*
X139600000Y-82300000D02*
X141400000Y-82300000D01*
X141200000Y-75150000D02*
X141350000Y-75300000D01*
X139650000Y-92950000D02*
X141450000Y-92950000D01*
X139650000Y-75150000D02*
X141200000Y-75150000D01*
X139700000Y-89400000D02*
X141400000Y-89400000D01*
X139600000Y-85900000D02*
X141400000Y-85900000D01*
X139650000Y-78650000D02*
X141400000Y-78650000D01*
X136950000Y-72500000D02*
X139000000Y-72500000D01*
X144400000Y-73250000D02*
X144950000Y-73800000D01*
X139650000Y-73250000D02*
X144400000Y-73250000D01*
X139000000Y-72500000D02*
X139650000Y-73150000D01*
X142150000Y-76750000D02*
X143500000Y-75400000D01*
X138850000Y-76850000D02*
X139600000Y-76850000D01*
X139650000Y-76750000D02*
X142150000Y-76750000D01*
X138350000Y-76350000D02*
X138850000Y-76850000D01*
X143500000Y-75400000D02*
X144600000Y-75400000D01*
X137150000Y-76350000D02*
X138350000Y-76350000D01*
X144050000Y-76750000D02*
X145550000Y-76750000D01*
X144050000Y-76750000D02*
X142599511Y-78200489D01*
X139150000Y-79950000D02*
X137350000Y-79950000D01*
X142599511Y-79900489D02*
X142100000Y-80400000D01*
X139600000Y-80400000D02*
X139150000Y-79950000D01*
X139600000Y-80400000D02*
X142100000Y-80400000D01*
X142599511Y-78200489D02*
X142599511Y-79900489D01*
X137800000Y-83300000D02*
X136250000Y-83300000D01*
X139600000Y-84000000D02*
X141950000Y-84000000D01*
X138500000Y-84000000D02*
X137800000Y-83300000D01*
X139600000Y-84000000D02*
X138500000Y-84000000D01*
X143900000Y-79050000D02*
X144750000Y-78200000D01*
X141950000Y-84000000D02*
X143900000Y-82050000D01*
X143900000Y-82050000D02*
X143900000Y-79050000D01*
X144750000Y-78200000D02*
X145050000Y-78200000D01*
X138700000Y-87500000D02*
X138100000Y-86900000D01*
X145400000Y-84050000D02*
X145400000Y-80550000D01*
X141950000Y-87500000D02*
X145400000Y-84050000D01*
X139700000Y-87500000D02*
X138700000Y-87500000D01*
X138100000Y-86900000D02*
X136350000Y-86900000D01*
X139700000Y-87500000D02*
X141950000Y-87500000D01*
X139500489Y-90900489D02*
X138750489Y-90900489D01*
X138400000Y-90550000D02*
X136500000Y-90550000D01*
X139650000Y-91050000D02*
X141446366Y-91050000D01*
X139650000Y-91050000D02*
X139500489Y-90900489D01*
X147400000Y-85096366D02*
X147400000Y-82150000D01*
X138750489Y-90900489D02*
X138400000Y-90550000D01*
X141446366Y-91050000D02*
X147400000Y-85096366D01*
X168300000Y-72950000D02*
X170000000Y-72950000D01*
X166750000Y-74500000D02*
X168300000Y-72950000D01*
X162550000Y-74500000D02*
X162550000Y-74653634D01*
X162550000Y-74500000D02*
X166750000Y-74500000D01*
X162100000Y-75900000D02*
X162700000Y-76500000D01*
X162700000Y-76500000D02*
X169950000Y-76500000D01*
X165600000Y-78700000D02*
X161400000Y-78700000D01*
X166900000Y-80000000D02*
X165600000Y-78700000D01*
X169950000Y-80000000D02*
X166900000Y-80000000D01*
X164900000Y-80150000D02*
X161400000Y-80150000D01*
X168450000Y-81400000D02*
X168500000Y-81450000D01*
X168500000Y-81450000D02*
X168600000Y-81550000D01*
X168650000Y-81750000D02*
X166500000Y-81750000D01*
X166500000Y-81750000D02*
X164900000Y-80150000D01*
X150450000Y-66000000D02*
X152800000Y-63650000D01*
X179650000Y-64900000D02*
X179700000Y-64850000D01*
X152800000Y-63650000D02*
X176850000Y-63650000D01*
X149300000Y-83587500D02*
X149300000Y-67150000D01*
X178100000Y-64900000D02*
X179650000Y-64900000D01*
X149300000Y-67150000D02*
X150450000Y-66000000D01*
X179700000Y-64850000D02*
X179850000Y-64700000D01*
X176850000Y-63650000D02*
X178100000Y-64900000D01*
X179500000Y-69350000D02*
X179850000Y-69700000D01*
X168750000Y-69350000D02*
X179500000Y-69350000D01*
X168750000Y-67800000D02*
X179250000Y-67800000D01*
X179250000Y-67800000D02*
X179700000Y-67350000D01*
X137400000Y-84950000D02*
X136950489Y-84500489D01*
X126550000Y-82450000D02*
X125200000Y-83800000D01*
X130900489Y-84500489D02*
X128850000Y-82450000D01*
X128850000Y-82450000D02*
X126550000Y-82450000D01*
X136950489Y-84500489D02*
X130900489Y-84500489D01*
X134529150Y-88450000D02*
X130779150Y-92200000D01*
X137500000Y-88450000D02*
X134529150Y-88450000D01*
X130779150Y-92200000D02*
X128900000Y-92200000D01*
X131200000Y-93250000D02*
X125900000Y-93250000D01*
X137450000Y-92000000D02*
X132450000Y-92000000D01*
X125000000Y-92350000D02*
X125000000Y-89550000D01*
X125000000Y-89550000D02*
X125050000Y-89550000D01*
X125900000Y-93250000D02*
X125000000Y-92350000D01*
X132450000Y-92000000D02*
X131200000Y-93250000D01*
X165880000Y-89650000D02*
X165880000Y-88720000D01*
X164400000Y-84750000D02*
X165900000Y-86250000D01*
X159600000Y-84750000D02*
X164400000Y-84750000D01*
X165900000Y-89550000D02*
X165700000Y-89750000D01*
X165900000Y-86250000D02*
X165900000Y-88700000D01*
X165900000Y-88700000D02*
X165900000Y-89550000D01*
X165880000Y-88720000D02*
X165900000Y-88700000D01*
X141800000Y-63835000D02*
X141800000Y-69900000D01*
X141800000Y-69900000D02*
X141800000Y-69950000D01*
X150650000Y-86950000D02*
X154250000Y-86950000D01*
X149300000Y-85600000D02*
X150650000Y-86950000D01*
X149300000Y-85412500D02*
X149300000Y-85600000D01*
G04 #@! TA.AperFunction,Conductor*
G36*
X135999129Y-63508502D02*
G01*
X136045622Y-63562158D01*
X136056529Y-63625482D01*
X136038677Y-63829525D01*
X136038677Y-63840475D01*
X136056889Y-64048630D01*
X136058792Y-64059425D01*
X136112871Y-64261250D01*
X136116618Y-64271546D01*
X136121598Y-64282225D01*
X136130914Y-64292807D01*
X136136893Y-64291000D01*
X136902488Y-63525405D01*
X136964800Y-63491379D01*
X136991583Y-63488500D01*
X137608417Y-63488500D01*
X137676538Y-63508502D01*
X137697512Y-63525405D01*
X138457936Y-64285829D01*
X138470316Y-64292589D01*
X138475315Y-64288847D01*
X138483382Y-64271546D01*
X138487129Y-64261250D01*
X138541208Y-64059425D01*
X138543111Y-64048630D01*
X138561323Y-63840475D01*
X138561323Y-63829525D01*
X138543471Y-63625482D01*
X138557460Y-63555877D01*
X138606859Y-63504885D01*
X138668992Y-63488500D01*
X140416500Y-63488500D01*
X140484621Y-63508502D01*
X140531114Y-63562158D01*
X140542500Y-63614500D01*
X140542500Y-64632134D01*
X140549255Y-64694316D01*
X140600385Y-64830705D01*
X140687739Y-64947261D01*
X140804295Y-65034615D01*
X140812704Y-65037767D01*
X140820575Y-65042077D01*
X140819519Y-65044005D01*
X140866500Y-65079303D01*
X140891195Y-65145866D01*
X140891500Y-65154635D01*
X140891500Y-69412937D01*
X140871498Y-69481058D01*
X140854595Y-69502032D01*
X140833020Y-69523607D01*
X140706814Y-69703849D01*
X140704493Y-69708827D01*
X140704491Y-69708830D01*
X140625880Y-69877411D01*
X140613823Y-69903267D01*
X140612401Y-69908575D01*
X140612400Y-69908577D01*
X140594687Y-69974683D01*
X140556874Y-70115803D01*
X140537697Y-70335000D01*
X140556874Y-70554197D01*
X140613823Y-70766733D01*
X140616145Y-70771713D01*
X140616146Y-70771715D01*
X140676182Y-70900460D01*
X140706814Y-70966151D01*
X140833020Y-71146393D01*
X140988607Y-71301980D01*
X140993115Y-71305137D01*
X140993118Y-71305139D01*
X141128971Y-71400264D01*
X141168848Y-71428186D01*
X141173830Y-71430509D01*
X141173835Y-71430512D01*
X141334285Y-71505331D01*
X141368267Y-71521177D01*
X141373575Y-71522599D01*
X141373577Y-71522600D01*
X141418896Y-71534743D01*
X141580803Y-71578126D01*
X141800000Y-71597303D01*
X142019197Y-71578126D01*
X142181104Y-71534743D01*
X142226423Y-71522600D01*
X142226425Y-71522599D01*
X142231733Y-71521177D01*
X142265715Y-71505331D01*
X142426165Y-71430512D01*
X142426170Y-71430509D01*
X142431152Y-71428186D01*
X142471029Y-71400264D01*
X142606882Y-71305139D01*
X142606885Y-71305137D01*
X142611393Y-71301980D01*
X142766980Y-71146393D01*
X142893186Y-70966151D01*
X142923819Y-70900460D01*
X142983854Y-70771715D01*
X142983855Y-70771713D01*
X142986177Y-70766733D01*
X143043126Y-70554197D01*
X143062303Y-70335000D01*
X143043126Y-70115803D01*
X143005313Y-69974683D01*
X142987600Y-69908577D01*
X142987599Y-69908575D01*
X142986177Y-69903267D01*
X142974120Y-69877411D01*
X142895509Y-69708830D01*
X142895507Y-69708827D01*
X142893186Y-69703849D01*
X142766980Y-69523607D01*
X142745405Y-69502032D01*
X142711379Y-69439720D01*
X142708500Y-69412937D01*
X142708500Y-65154635D01*
X142728502Y-65086514D01*
X142779541Y-65042289D01*
X142779425Y-65042077D01*
X142780404Y-65041541D01*
X142782158Y-65040021D01*
X142786387Y-65038265D01*
X142787295Y-65037768D01*
X142795705Y-65034615D01*
X142912261Y-64947261D01*
X142999615Y-64830705D01*
X143050745Y-64694316D01*
X143057500Y-64632134D01*
X143057500Y-63614500D01*
X143077502Y-63546379D01*
X143131158Y-63499886D01*
X143183500Y-63488500D01*
X151372497Y-63488500D01*
X151440618Y-63508502D01*
X151487111Y-63562158D01*
X151497215Y-63632432D01*
X151467721Y-63697012D01*
X151461592Y-63703595D01*
X150285124Y-64880063D01*
X150217367Y-64915148D01*
X150161870Y-64924684D01*
X149970734Y-64995198D01*
X149965773Y-64998150D01*
X149965772Y-64998150D01*
X149895394Y-65040021D01*
X149795649Y-65099363D01*
X149642478Y-65233690D01*
X149638911Y-65238215D01*
X149638906Y-65238220D01*
X149552331Y-65348040D01*
X149516351Y-65393681D01*
X149421492Y-65573978D01*
X149401290Y-65639040D01*
X149365427Y-65754538D01*
X149361078Y-65768543D01*
X149360400Y-65774269D01*
X149359922Y-65776519D01*
X149325771Y-65839416D01*
X148715168Y-66450019D01*
X148700135Y-66462860D01*
X148695248Y-66466411D01*
X148688747Y-66471134D01*
X148684327Y-66476043D01*
X148642984Y-66521959D01*
X148638443Y-66526744D01*
X148623928Y-66541259D01*
X148621852Y-66543823D01*
X148611006Y-66557216D01*
X148606722Y-66562231D01*
X148565381Y-66608145D01*
X148565377Y-66608150D01*
X148560960Y-66613056D01*
X148557660Y-66618772D01*
X148557657Y-66618776D01*
X148553927Y-66625237D01*
X148542727Y-66641533D01*
X148533871Y-66652470D01*
X148513336Y-66692773D01*
X148502815Y-66713421D01*
X148499669Y-66719215D01*
X148465473Y-66778444D01*
X148463432Y-66784726D01*
X148463431Y-66784728D01*
X148461125Y-66791826D01*
X148453560Y-66810092D01*
X148447171Y-66822630D01*
X148433965Y-66871917D01*
X148429469Y-66888695D01*
X148427600Y-66895003D01*
X148406458Y-66960072D01*
X148405768Y-66966637D01*
X148405766Y-66966646D01*
X148404985Y-66974075D01*
X148401383Y-66993509D01*
X148399453Y-67000714D01*
X148397743Y-67007097D01*
X148397398Y-67013688D01*
X148397397Y-67013692D01*
X148394164Y-67075384D01*
X148393647Y-67081958D01*
X148391844Y-67099116D01*
X148391500Y-67102390D01*
X148391500Y-67122926D01*
X148391327Y-67129520D01*
X148387748Y-67197810D01*
X148388780Y-67204325D01*
X148389949Y-67211705D01*
X148391500Y-67231417D01*
X148391500Y-81268811D01*
X148371498Y-81336932D01*
X148317842Y-81383425D01*
X148247568Y-81393529D01*
X148179971Y-81361335D01*
X148081949Y-81270724D01*
X148081943Y-81270719D01*
X148077703Y-81266800D01*
X148020383Y-81230634D01*
X147910288Y-81161169D01*
X147910283Y-81161167D01*
X147905404Y-81158088D01*
X147716180Y-81082595D01*
X147516366Y-81042849D01*
X147510592Y-81042773D01*
X147510588Y-81042773D01*
X147407452Y-81041424D01*
X147312655Y-81040183D01*
X147306958Y-81041162D01*
X147306957Y-81041162D01*
X147188265Y-81061557D01*
X147111870Y-81074684D01*
X146920734Y-81145198D01*
X146915773Y-81148150D01*
X146915772Y-81148150D01*
X146763278Y-81238875D01*
X146745649Y-81249363D01*
X146592478Y-81383690D01*
X146535348Y-81456160D01*
X146533450Y-81458567D01*
X146475569Y-81499680D01*
X146404649Y-81502974D01*
X146343206Y-81467403D01*
X146310749Y-81404260D01*
X146308500Y-81380561D01*
X146308500Y-81229425D01*
X146324564Y-81167862D01*
X146417004Y-81002799D01*
X146418860Y-80997332D01*
X146418862Y-80997327D01*
X146480634Y-80815352D01*
X146480635Y-80815347D01*
X146482490Y-80809883D01*
X146511723Y-80608263D01*
X146513249Y-80550000D01*
X146494608Y-80347126D01*
X146488128Y-80324151D01*
X146440875Y-80156606D01*
X146440874Y-80156604D01*
X146439307Y-80151047D01*
X146434816Y-80141939D01*
X146351756Y-79973510D01*
X146349201Y-79968329D01*
X146342401Y-79959222D01*
X146230758Y-79809715D01*
X146230758Y-79809714D01*
X146227305Y-79805091D01*
X146113438Y-79699833D01*
X146081943Y-79670719D01*
X146081940Y-79670717D01*
X146077703Y-79666800D01*
X146031675Y-79637759D01*
X145910288Y-79561169D01*
X145910283Y-79561167D01*
X145905404Y-79558088D01*
X145777695Y-79507137D01*
X145721549Y-79484737D01*
X145716180Y-79482595D01*
X145543749Y-79448296D01*
X145480840Y-79415388D01*
X145445708Y-79353693D01*
X145449508Y-79282798D01*
X145491034Y-79225212D01*
X145506765Y-79214783D01*
X145607924Y-79158131D01*
X145680551Y-79117458D01*
X145837186Y-78987186D01*
X145967458Y-78830551D01*
X146041615Y-78698134D01*
X146064180Y-78657842D01*
X146064181Y-78657840D01*
X146067004Y-78652799D01*
X146068860Y-78647332D01*
X146068862Y-78647327D01*
X146130634Y-78465352D01*
X146130635Y-78465347D01*
X146132490Y-78459883D01*
X146161723Y-78258263D01*
X146163249Y-78200000D01*
X146148619Y-78040778D01*
X146145137Y-78002880D01*
X146145136Y-78002877D01*
X146144608Y-77997126D01*
X146139746Y-77979885D01*
X146106251Y-77861125D01*
X146096178Y-77825409D01*
X146096938Y-77754418D01*
X146135959Y-77695106D01*
X146155879Y-77681275D01*
X146167648Y-77674684D01*
X146175513Y-77670280D01*
X146175517Y-77670277D01*
X146180551Y-77667458D01*
X146184988Y-77663768D01*
X146184992Y-77663765D01*
X146332748Y-77540877D01*
X146337186Y-77537186D01*
X146467458Y-77380551D01*
X146567004Y-77202799D01*
X146568860Y-77197332D01*
X146568862Y-77197327D01*
X146630634Y-77015352D01*
X146630635Y-77015347D01*
X146632490Y-77009883D01*
X146661723Y-76808263D01*
X146663249Y-76750000D01*
X146650201Y-76607999D01*
X146645137Y-76552880D01*
X146645136Y-76552877D01*
X146644608Y-76547126D01*
X146631490Y-76500615D01*
X146590875Y-76356606D01*
X146590874Y-76356604D01*
X146589307Y-76351047D01*
X146585554Y-76343435D01*
X146501756Y-76173510D01*
X146499201Y-76168329D01*
X146481536Y-76144672D01*
X146380758Y-76009715D01*
X146380758Y-76009714D01*
X146377305Y-76005091D01*
X146241363Y-75879427D01*
X146231943Y-75870719D01*
X146231940Y-75870717D01*
X146227703Y-75866800D01*
X146151800Y-75818909D01*
X146060288Y-75761169D01*
X146060283Y-75761167D01*
X146055404Y-75758088D01*
X145866180Y-75682595D01*
X145801710Y-75669771D01*
X145738801Y-75636863D01*
X145703669Y-75575168D01*
X145701596Y-75528113D01*
X145711190Y-75461940D01*
X145711190Y-75461938D01*
X145711723Y-75458263D01*
X145713249Y-75400000D01*
X145700567Y-75261975D01*
X145695137Y-75202880D01*
X145695136Y-75202877D01*
X145694608Y-75197126D01*
X145692900Y-75191069D01*
X145640875Y-75006606D01*
X145640874Y-75006604D01*
X145639307Y-75001047D01*
X145634700Y-74991703D01*
X145566976Y-74854373D01*
X145554786Y-74784431D01*
X145582346Y-74719001D01*
X145599413Y-74701771D01*
X145732748Y-74590877D01*
X145737186Y-74587186D01*
X145867458Y-74430551D01*
X145967004Y-74252799D01*
X145968860Y-74247332D01*
X145968862Y-74247327D01*
X146030634Y-74065352D01*
X146030635Y-74065347D01*
X146032490Y-74059883D01*
X146061723Y-73858263D01*
X146063249Y-73800000D01*
X146053021Y-73688689D01*
X146045137Y-73602879D01*
X146045136Y-73602875D01*
X146044608Y-73597126D01*
X146037539Y-73572062D01*
X145990875Y-73406606D01*
X145990874Y-73406604D01*
X145989307Y-73401047D01*
X145985265Y-73392849D01*
X145901756Y-73223510D01*
X145899201Y-73218329D01*
X145890747Y-73207007D01*
X145780758Y-73059715D01*
X145780758Y-73059714D01*
X145777305Y-73055091D01*
X145670923Y-72956752D01*
X145631943Y-72920719D01*
X145631940Y-72920717D01*
X145627703Y-72916800D01*
X145512041Y-72843823D01*
X145460288Y-72811169D01*
X145460283Y-72811167D01*
X145455404Y-72808088D01*
X145266180Y-72732595D01*
X145216847Y-72722782D01*
X145180367Y-72715525D01*
X145115854Y-72681041D01*
X145099981Y-72665168D01*
X145087140Y-72650135D01*
X145082746Y-72644087D01*
X145082745Y-72644086D01*
X145078866Y-72638747D01*
X145028041Y-72592984D01*
X145023256Y-72588443D01*
X145008741Y-72573928D01*
X145001282Y-72567888D01*
X144992784Y-72561006D01*
X144987769Y-72556722D01*
X144941855Y-72515381D01*
X144941850Y-72515377D01*
X144936944Y-72510960D01*
X144931228Y-72507660D01*
X144931224Y-72507657D01*
X144924763Y-72503927D01*
X144908466Y-72492727D01*
X144902660Y-72488025D01*
X144902658Y-72488024D01*
X144897530Y-72483871D01*
X144836577Y-72452814D01*
X144830782Y-72449667D01*
X144824057Y-72445784D01*
X144771556Y-72415473D01*
X144765274Y-72413432D01*
X144765272Y-72413431D01*
X144758174Y-72411125D01*
X144739907Y-72403559D01*
X144737536Y-72402351D01*
X144727370Y-72397171D01*
X144661299Y-72379467D01*
X144654997Y-72377600D01*
X144589928Y-72356458D01*
X144583363Y-72355768D01*
X144583354Y-72355766D01*
X144575925Y-72354985D01*
X144556491Y-72351383D01*
X144549286Y-72349453D01*
X144549284Y-72349453D01*
X144542903Y-72347743D01*
X144536312Y-72347398D01*
X144536308Y-72347397D01*
X144474616Y-72344164D01*
X144468042Y-72343647D01*
X144450884Y-72341844D01*
X144450882Y-72341844D01*
X144447610Y-72341500D01*
X144427074Y-72341500D01*
X144420480Y-72341327D01*
X144358782Y-72338093D01*
X144358777Y-72338093D01*
X144352190Y-72337748D01*
X144338292Y-72339949D01*
X144318583Y-72341500D01*
X140694874Y-72341500D01*
X140626753Y-72321498D01*
X140619327Y-72316339D01*
X140596705Y-72299385D01*
X140460316Y-72248255D01*
X140398134Y-72241500D01*
X140078503Y-72241500D01*
X140010382Y-72221498D01*
X139989408Y-72204595D01*
X139699981Y-71915168D01*
X139687140Y-71900135D01*
X139682746Y-71894087D01*
X139682745Y-71894086D01*
X139678866Y-71888747D01*
X139628041Y-71842984D01*
X139623256Y-71838443D01*
X139608741Y-71823928D01*
X139600503Y-71817257D01*
X139592784Y-71811006D01*
X139587769Y-71806722D01*
X139541855Y-71765381D01*
X139541850Y-71765377D01*
X139536944Y-71760960D01*
X139531228Y-71757660D01*
X139531224Y-71757657D01*
X139524763Y-71753927D01*
X139508466Y-71742727D01*
X139502660Y-71738025D01*
X139502658Y-71738024D01*
X139497530Y-71733871D01*
X139436577Y-71702814D01*
X139430782Y-71699667D01*
X139377279Y-71668777D01*
X139377278Y-71668776D01*
X139371556Y-71665473D01*
X139365274Y-71663432D01*
X139365272Y-71663431D01*
X139358174Y-71661125D01*
X139339907Y-71653559D01*
X139327370Y-71647171D01*
X139318033Y-71644669D01*
X139267788Y-71631206D01*
X139261299Y-71629467D01*
X139254997Y-71627600D01*
X139189928Y-71606458D01*
X139183363Y-71605768D01*
X139183354Y-71605766D01*
X139175925Y-71604985D01*
X139156491Y-71601383D01*
X139149286Y-71599453D01*
X139149284Y-71599453D01*
X139142903Y-71597743D01*
X139136312Y-71597398D01*
X139136308Y-71597397D01*
X139074616Y-71594164D01*
X139068042Y-71593647D01*
X139050884Y-71591844D01*
X139050882Y-71591844D01*
X139047610Y-71591500D01*
X139027074Y-71591500D01*
X139020480Y-71591327D01*
X138958782Y-71588093D01*
X138958777Y-71588093D01*
X138952190Y-71587748D01*
X138938292Y-71589949D01*
X138918583Y-71591500D01*
X137877774Y-71591500D01*
X137809653Y-71571498D01*
X137763160Y-71517842D01*
X137757163Y-71501956D01*
X137755999Y-71498106D01*
X137312812Y-71054919D01*
X137298868Y-71047305D01*
X137297035Y-71047436D01*
X137290420Y-71051687D01*
X136849171Y-71492936D01*
X136828628Y-71530556D01*
X136824542Y-71549342D01*
X136774341Y-71599545D01*
X136752892Y-71608791D01*
X136724195Y-71618115D01*
X136720816Y-71619213D01*
X136708080Y-71622625D01*
X136674169Y-71629833D01*
X136674165Y-71629834D01*
X136667712Y-71631206D01*
X136629994Y-71647999D01*
X136617698Y-71652718D01*
X136578444Y-71665473D01*
X136572723Y-71668776D01*
X136542710Y-71686104D01*
X136530959Y-71692092D01*
X136506875Y-71702815D01*
X136493248Y-71708882D01*
X136487909Y-71712761D01*
X136487904Y-71712764D01*
X136459851Y-71733146D01*
X136448798Y-71740325D01*
X136413056Y-71760960D01*
X136408147Y-71765380D01*
X136408143Y-71765383D01*
X136382386Y-71788575D01*
X136372143Y-71796871D01*
X136338747Y-71821134D01*
X136334333Y-71826036D01*
X136334331Y-71826038D01*
X136311129Y-71851806D01*
X136301806Y-71861129D01*
X136276038Y-71884331D01*
X136271134Y-71888747D01*
X136246871Y-71922143D01*
X136238575Y-71932386D01*
X136215383Y-71958143D01*
X136215380Y-71958147D01*
X136210960Y-71963056D01*
X136190325Y-71998798D01*
X136183146Y-72009851D01*
X136162764Y-72037904D01*
X136162761Y-72037909D01*
X136158882Y-72043248D01*
X136156199Y-72049275D01*
X136156198Y-72049276D01*
X136142092Y-72080959D01*
X136136105Y-72092708D01*
X136115473Y-72128444D01*
X136113432Y-72134727D01*
X136113431Y-72134728D01*
X136102719Y-72167696D01*
X136097999Y-72179994D01*
X136081206Y-72217712D01*
X136079834Y-72224165D01*
X136079833Y-72224169D01*
X136072625Y-72258080D01*
X136069212Y-72270817D01*
X136058498Y-72303791D01*
X136058497Y-72303798D01*
X136056458Y-72310072D01*
X136052248Y-72350135D01*
X136052144Y-72351122D01*
X136050082Y-72364136D01*
X136041500Y-72404513D01*
X136041500Y-72445784D01*
X136040810Y-72458955D01*
X136036496Y-72500000D01*
X136037186Y-72506565D01*
X136040810Y-72541045D01*
X136041500Y-72554216D01*
X136041500Y-72595487D01*
X136050082Y-72635864D01*
X136052143Y-72648872D01*
X136056458Y-72689928D01*
X136058497Y-72696202D01*
X136058498Y-72696209D01*
X136069212Y-72729183D01*
X136072625Y-72741920D01*
X136074347Y-72750019D01*
X136081206Y-72782288D01*
X136097999Y-72820006D01*
X136102719Y-72832304D01*
X136110814Y-72857216D01*
X136115473Y-72871556D01*
X136133556Y-72902876D01*
X136136104Y-72907290D01*
X136142091Y-72919039D01*
X136158882Y-72956752D01*
X136162761Y-72962091D01*
X136162764Y-72962096D01*
X136183146Y-72990149D01*
X136190325Y-73001202D01*
X136210960Y-73036944D01*
X136215380Y-73041853D01*
X136215383Y-73041857D01*
X136238575Y-73067614D01*
X136246879Y-73077868D01*
X136256741Y-73091443D01*
X136280597Y-73158312D01*
X136264514Y-73227463D01*
X136213598Y-73276941D01*
X136154802Y-73291500D01*
X134128503Y-73291500D01*
X134060382Y-73271498D01*
X134039408Y-73254595D01*
X131125288Y-70340475D01*
X136038677Y-70340475D01*
X136056889Y-70548630D01*
X136058792Y-70559425D01*
X136112871Y-70761250D01*
X136116618Y-70771546D01*
X136121598Y-70782225D01*
X136130914Y-70792807D01*
X136136893Y-70791000D01*
X136580081Y-70347812D01*
X136586459Y-70336132D01*
X138012305Y-70336132D01*
X138012436Y-70337965D01*
X138016687Y-70344580D01*
X138457936Y-70785829D01*
X138470316Y-70792589D01*
X138475315Y-70788847D01*
X138483382Y-70771546D01*
X138487129Y-70761250D01*
X138541208Y-70559425D01*
X138543111Y-70548630D01*
X138561323Y-70340475D01*
X138561323Y-70329525D01*
X138543111Y-70121370D01*
X138541208Y-70110575D01*
X138487129Y-69908750D01*
X138483382Y-69898454D01*
X138478402Y-69887775D01*
X138469086Y-69877193D01*
X138463107Y-69879000D01*
X138019919Y-70322188D01*
X138012305Y-70336132D01*
X136586459Y-70336132D01*
X136587695Y-70333868D01*
X136587564Y-70332035D01*
X136583313Y-70325420D01*
X136142064Y-69884171D01*
X136129684Y-69877411D01*
X136124685Y-69881153D01*
X136116618Y-69898454D01*
X136112871Y-69908750D01*
X136058792Y-70110575D01*
X136056889Y-70121370D01*
X136038677Y-70329525D01*
X136038677Y-70340475D01*
X131125288Y-70340475D01*
X130649981Y-69865168D01*
X130637140Y-69850135D01*
X130632746Y-69844087D01*
X130632745Y-69844086D01*
X130628866Y-69838747D01*
X130578041Y-69792984D01*
X130573256Y-69788443D01*
X130558741Y-69773928D01*
X130542795Y-69761015D01*
X130542784Y-69761006D01*
X130537769Y-69756722D01*
X130491855Y-69715381D01*
X130491850Y-69715377D01*
X130486944Y-69710960D01*
X130481228Y-69707660D01*
X130481224Y-69707657D01*
X130474763Y-69703927D01*
X130458466Y-69692727D01*
X130452660Y-69688025D01*
X130452658Y-69688024D01*
X130447530Y-69683871D01*
X130386573Y-69652812D01*
X130380782Y-69649667D01*
X130327279Y-69618777D01*
X130327278Y-69618776D01*
X130321556Y-69615473D01*
X130315274Y-69613432D01*
X130315272Y-69613431D01*
X130308174Y-69611125D01*
X130289907Y-69603559D01*
X130277370Y-69597171D01*
X130270989Y-69595461D01*
X130252852Y-69590601D01*
X130211299Y-69579467D01*
X130204997Y-69577600D01*
X130139928Y-69556458D01*
X130133363Y-69555768D01*
X130133354Y-69555766D01*
X130125925Y-69554985D01*
X130106491Y-69551383D01*
X130099286Y-69549453D01*
X130099284Y-69549453D01*
X130092903Y-69547743D01*
X130086312Y-69547398D01*
X130086308Y-69547397D01*
X130024616Y-69544164D01*
X130018042Y-69543647D01*
X130000884Y-69541844D01*
X130000882Y-69541844D01*
X129997610Y-69541500D01*
X129977074Y-69541500D01*
X129970480Y-69541327D01*
X129908782Y-69538093D01*
X129908777Y-69538093D01*
X129902190Y-69537748D01*
X129888292Y-69539949D01*
X129868583Y-69541500D01*
X125681416Y-69541500D01*
X125661707Y-69539949D01*
X125647809Y-69537748D01*
X125641222Y-69538093D01*
X125641217Y-69538093D01*
X125579519Y-69541327D01*
X125572925Y-69541500D01*
X125552390Y-69541500D01*
X125546222Y-69542148D01*
X125531960Y-69543647D01*
X125525385Y-69544164D01*
X125463696Y-69547397D01*
X125463695Y-69547397D01*
X125457096Y-69547743D01*
X125443508Y-69551384D01*
X125424061Y-69554988D01*
X125416644Y-69555767D01*
X125416640Y-69555768D01*
X125410072Y-69556458D01*
X125353276Y-69574912D01*
X125345009Y-69577598D01*
X125338685Y-69579471D01*
X125279010Y-69595461D01*
X125279006Y-69595462D01*
X125272630Y-69597171D01*
X125266748Y-69600168D01*
X125260093Y-69603559D01*
X125241826Y-69611125D01*
X125234728Y-69613431D01*
X125234726Y-69613432D01*
X125228444Y-69615473D01*
X125222722Y-69618777D01*
X125222721Y-69618777D01*
X125169223Y-69649664D01*
X125163426Y-69652812D01*
X125108352Y-69680873D01*
X125108349Y-69680875D01*
X125102469Y-69683871D01*
X125091526Y-69692733D01*
X125075237Y-69703927D01*
X125063056Y-69710960D01*
X125058150Y-69715377D01*
X125058145Y-69715381D01*
X125012221Y-69756731D01*
X125007220Y-69761003D01*
X124991259Y-69773928D01*
X124976744Y-69788443D01*
X124971959Y-69792984D01*
X124921134Y-69838747D01*
X124917255Y-69844086D01*
X124917254Y-69844087D01*
X124912860Y-69850135D01*
X124900019Y-69865168D01*
X124615168Y-70150019D01*
X124600135Y-70162860D01*
X124588747Y-70171134D01*
X124584327Y-70176043D01*
X124542984Y-70221959D01*
X124538443Y-70226744D01*
X124523928Y-70241259D01*
X124521852Y-70243823D01*
X124511006Y-70257216D01*
X124506722Y-70262231D01*
X124465381Y-70308145D01*
X124465377Y-70308150D01*
X124460960Y-70313056D01*
X124457660Y-70318772D01*
X124457657Y-70318776D01*
X124453927Y-70325237D01*
X124442727Y-70341533D01*
X124433871Y-70352470D01*
X124418185Y-70383256D01*
X124402815Y-70413421D01*
X124399669Y-70419215D01*
X124365473Y-70478444D01*
X124363432Y-70484726D01*
X124363431Y-70484728D01*
X124361125Y-70491826D01*
X124353560Y-70510092D01*
X124347171Y-70522630D01*
X124338409Y-70555332D01*
X124329469Y-70588695D01*
X124327600Y-70595003D01*
X124306458Y-70660072D01*
X124305768Y-70666637D01*
X124305766Y-70666646D01*
X124304985Y-70674075D01*
X124301383Y-70693509D01*
X124299453Y-70700714D01*
X124297743Y-70707097D01*
X124297566Y-70710480D01*
X124267667Y-70773554D01*
X124228668Y-70800269D01*
X124229574Y-70801923D01*
X124221698Y-70806235D01*
X124213295Y-70809385D01*
X124206116Y-70814765D01*
X124206113Y-70814767D01*
X124123349Y-70876796D01*
X124096739Y-70896739D01*
X124009385Y-71013295D01*
X123958255Y-71149684D01*
X123951500Y-71211866D01*
X123951500Y-73008134D01*
X123958255Y-73070316D01*
X124009385Y-73206705D01*
X124096739Y-73323261D01*
X124213295Y-73410615D01*
X124221704Y-73413767D01*
X124221705Y-73413768D01*
X124330451Y-73454535D01*
X124387216Y-73497176D01*
X124411916Y-73563738D01*
X124396709Y-73633087D01*
X124377316Y-73659568D01*
X124283607Y-73757629D01*
X124250629Y-73792138D01*
X124124743Y-73976680D01*
X124110248Y-74007908D01*
X124036380Y-74167043D01*
X124030688Y-74179305D01*
X123970989Y-74394570D01*
X123947251Y-74616695D01*
X123947548Y-74621848D01*
X123947548Y-74621851D01*
X123958161Y-74805913D01*
X123960110Y-74839715D01*
X123961247Y-74844761D01*
X123961248Y-74844767D01*
X123973932Y-74901047D01*
X124009222Y-75057639D01*
X124062559Y-75188994D01*
X124085737Y-75246073D01*
X124093266Y-75264616D01*
X124134083Y-75331223D01*
X124207291Y-75450688D01*
X124209987Y-75455088D01*
X124356250Y-75623938D01*
X124528126Y-75766632D01*
X124555086Y-75782386D01*
X124601445Y-75809476D01*
X124650169Y-75861114D01*
X124663240Y-75930897D01*
X124636509Y-75996669D01*
X124596055Y-76030027D01*
X124583607Y-76036507D01*
X124579474Y-76039610D01*
X124579471Y-76039612D01*
X124409100Y-76167530D01*
X124404965Y-76170635D01*
X124250629Y-76332138D01*
X124247720Y-76336403D01*
X124247714Y-76336411D01*
X124242923Y-76343435D01*
X124124743Y-76516680D01*
X124030688Y-76719305D01*
X123970989Y-76934570D01*
X123947251Y-77156695D01*
X123947548Y-77161848D01*
X123947548Y-77161851D01*
X123957622Y-77336569D01*
X123960110Y-77379715D01*
X123961247Y-77384761D01*
X123961248Y-77384767D01*
X123973104Y-77437375D01*
X124009222Y-77597639D01*
X124047461Y-77691811D01*
X124091170Y-77799453D01*
X124093266Y-77804616D01*
X124127895Y-77861125D01*
X124207291Y-77990688D01*
X124209987Y-77995088D01*
X124213367Y-77998990D01*
X124352865Y-78160031D01*
X124352869Y-78160035D01*
X124356250Y-78163938D01*
X124360226Y-78167239D01*
X124363823Y-78170761D01*
X124398499Y-78232713D01*
X124401493Y-78254189D01*
X124401500Y-78254323D01*
X124401500Y-78257610D01*
X124401844Y-78260880D01*
X124401844Y-78260886D01*
X124403647Y-78278042D01*
X124404164Y-78284616D01*
X124405466Y-78309447D01*
X124407743Y-78352903D01*
X124409453Y-78359284D01*
X124409453Y-78359286D01*
X124411383Y-78366491D01*
X124414985Y-78385925D01*
X124415766Y-78393354D01*
X124415768Y-78393363D01*
X124416458Y-78399928D01*
X124437600Y-78464997D01*
X124439469Y-78471305D01*
X124453664Y-78524280D01*
X124457171Y-78537370D01*
X124463559Y-78549907D01*
X124471125Y-78568173D01*
X124475473Y-78581556D01*
X124478776Y-78587278D01*
X124478777Y-78587279D01*
X124509667Y-78640782D01*
X124512814Y-78646577D01*
X124543871Y-78707530D01*
X124548024Y-78712658D01*
X124548025Y-78712660D01*
X124552727Y-78718466D01*
X124563927Y-78734763D01*
X124567657Y-78741224D01*
X124567660Y-78741228D01*
X124570960Y-78746944D01*
X124575377Y-78751850D01*
X124575381Y-78751855D01*
X124616722Y-78797769D01*
X124621006Y-78802784D01*
X124633928Y-78818741D01*
X124648443Y-78833256D01*
X124652984Y-78838041D01*
X124698747Y-78888866D01*
X124704086Y-78892745D01*
X124704087Y-78892746D01*
X124710135Y-78897140D01*
X124725168Y-78909981D01*
X125700019Y-79884832D01*
X125712860Y-79899865D01*
X125714695Y-79902390D01*
X125721134Y-79911253D01*
X125726043Y-79915673D01*
X125771959Y-79957016D01*
X125776744Y-79961557D01*
X125791259Y-79976072D01*
X125793823Y-79978148D01*
X125807216Y-79988994D01*
X125812231Y-79993278D01*
X125858145Y-80034619D01*
X125858150Y-80034623D01*
X125863056Y-80039040D01*
X125868772Y-80042340D01*
X125868776Y-80042343D01*
X125875237Y-80046073D01*
X125891533Y-80057273D01*
X125902470Y-80066129D01*
X125908348Y-80069124D01*
X125908351Y-80069126D01*
X125963426Y-80097188D01*
X125969223Y-80100336D01*
X126014757Y-80126625D01*
X126028444Y-80134527D01*
X126041826Y-80138875D01*
X126060085Y-80146438D01*
X126072630Y-80152830D01*
X126079000Y-80154537D01*
X126079003Y-80154538D01*
X126098821Y-80159848D01*
X126138712Y-80170537D01*
X126145025Y-80172407D01*
X126210072Y-80193542D01*
X126224075Y-80195014D01*
X126243504Y-80198615D01*
X126257097Y-80202257D01*
X126263694Y-80202603D01*
X126263696Y-80202603D01*
X126325384Y-80205836D01*
X126331958Y-80206353D01*
X126349116Y-80208156D01*
X126349118Y-80208156D01*
X126352390Y-80208500D01*
X126372926Y-80208500D01*
X126379520Y-80208673D01*
X126441218Y-80211907D01*
X126441223Y-80211907D01*
X126447810Y-80212252D01*
X126461708Y-80210051D01*
X126481417Y-80208500D01*
X127621497Y-80208500D01*
X127689618Y-80228502D01*
X127710592Y-80245405D01*
X128791592Y-81326405D01*
X128825618Y-81388717D01*
X128820553Y-81459532D01*
X128778006Y-81516368D01*
X128711486Y-81541179D01*
X128702497Y-81541500D01*
X126631416Y-81541500D01*
X126611707Y-81539949D01*
X126597809Y-81537748D01*
X126591222Y-81538093D01*
X126591217Y-81538093D01*
X126529519Y-81541327D01*
X126522925Y-81541500D01*
X126502390Y-81541500D01*
X126496222Y-81542148D01*
X126481960Y-81543647D01*
X126475385Y-81544164D01*
X126413696Y-81547397D01*
X126413695Y-81547397D01*
X126407096Y-81547743D01*
X126393508Y-81551384D01*
X126374061Y-81554988D01*
X126366644Y-81555767D01*
X126366640Y-81555768D01*
X126360072Y-81556458D01*
X126310930Y-81572425D01*
X126295009Y-81577598D01*
X126288685Y-81579471D01*
X126229010Y-81595461D01*
X126229006Y-81595462D01*
X126222630Y-81597171D01*
X126216748Y-81600168D01*
X126210093Y-81603559D01*
X126191826Y-81611125D01*
X126184728Y-81613431D01*
X126184726Y-81613432D01*
X126178444Y-81615473D01*
X126172722Y-81618776D01*
X126172721Y-81618777D01*
X126119218Y-81649667D01*
X126113423Y-81652814D01*
X126052470Y-81683871D01*
X126047342Y-81688024D01*
X126047340Y-81688025D01*
X126041534Y-81692727D01*
X126025237Y-81703927D01*
X126018776Y-81707657D01*
X126018772Y-81707660D01*
X126013056Y-81710960D01*
X126008150Y-81715377D01*
X126008145Y-81715381D01*
X125962231Y-81756722D01*
X125957216Y-81761006D01*
X125948718Y-81767888D01*
X125941259Y-81773928D01*
X125926744Y-81788443D01*
X125921959Y-81792984D01*
X125871134Y-81838747D01*
X125867255Y-81844086D01*
X125867254Y-81844087D01*
X125862860Y-81850135D01*
X125850019Y-81865168D01*
X124550592Y-83164595D01*
X124488280Y-83198621D01*
X124461497Y-83201500D01*
X124211866Y-83201500D01*
X124149684Y-83208255D01*
X124013295Y-83259385D01*
X123896739Y-83346739D01*
X123809385Y-83463295D01*
X123758255Y-83599684D01*
X123751500Y-83661866D01*
X123751500Y-85458134D01*
X123758255Y-85520316D01*
X123809385Y-85656705D01*
X123896739Y-85773261D01*
X124013295Y-85860615D01*
X124021704Y-85863767D01*
X124021705Y-85863768D01*
X124130451Y-85904535D01*
X124187216Y-85947176D01*
X124211916Y-86013738D01*
X124196709Y-86083087D01*
X124177316Y-86109568D01*
X124065843Y-86226218D01*
X124050629Y-86242138D01*
X124047720Y-86246403D01*
X124047714Y-86246411D01*
X124015194Y-86294084D01*
X123924743Y-86426680D01*
X123830688Y-86629305D01*
X123770989Y-86844570D01*
X123747251Y-87066695D01*
X123747548Y-87071848D01*
X123747548Y-87071851D01*
X123755728Y-87213717D01*
X123760110Y-87289715D01*
X123761247Y-87294761D01*
X123761248Y-87294767D01*
X123775274Y-87357004D01*
X123809222Y-87507639D01*
X123852180Y-87613432D01*
X123888926Y-87703927D01*
X123893266Y-87714616D01*
X123931044Y-87776264D01*
X124007291Y-87900688D01*
X124009987Y-87905088D01*
X124156250Y-88073938D01*
X124279271Y-88176072D01*
X124315920Y-88206498D01*
X124328126Y-88216632D01*
X124386504Y-88250745D01*
X124401445Y-88259476D01*
X124450169Y-88311114D01*
X124463240Y-88380897D01*
X124436509Y-88446669D01*
X124396055Y-88480027D01*
X124383607Y-88486507D01*
X124379474Y-88489610D01*
X124379471Y-88489612D01*
X124243256Y-88591885D01*
X124204965Y-88620635D01*
X124170338Y-88656870D01*
X124092653Y-88738163D01*
X124050629Y-88782138D01*
X124047720Y-88786403D01*
X124047714Y-88786411D01*
X124035404Y-88804457D01*
X123924743Y-88966680D01*
X123906566Y-89005840D01*
X123834355Y-89161406D01*
X123830688Y-89169305D01*
X123770989Y-89384570D01*
X123747251Y-89606695D01*
X123747548Y-89611848D01*
X123747548Y-89611851D01*
X123757839Y-89790331D01*
X123760110Y-89829715D01*
X123761247Y-89834761D01*
X123761248Y-89834767D01*
X123777462Y-89906712D01*
X123809222Y-90047639D01*
X123893266Y-90254616D01*
X124009987Y-90445088D01*
X124060738Y-90503677D01*
X124090220Y-90568260D01*
X124091500Y-90586172D01*
X124091500Y-92268583D01*
X124089949Y-92288292D01*
X124087748Y-92302190D01*
X124088093Y-92308777D01*
X124088093Y-92308782D01*
X124091327Y-92370480D01*
X124091500Y-92377074D01*
X124091500Y-92397610D01*
X124091844Y-92400882D01*
X124091844Y-92400884D01*
X124093647Y-92418042D01*
X124094164Y-92424616D01*
X124097743Y-92492903D01*
X124099453Y-92499284D01*
X124099453Y-92499286D01*
X124101383Y-92506491D01*
X124104985Y-92525925D01*
X124105766Y-92533354D01*
X124105768Y-92533363D01*
X124106458Y-92539928D01*
X124127600Y-92604997D01*
X124129467Y-92611299D01*
X124147171Y-92677370D01*
X124153559Y-92689907D01*
X124161125Y-92708173D01*
X124165473Y-92721556D01*
X124168776Y-92727278D01*
X124168777Y-92727279D01*
X124199667Y-92780782D01*
X124202814Y-92786577D01*
X124233871Y-92847530D01*
X124238024Y-92852658D01*
X124238025Y-92852660D01*
X124242727Y-92858466D01*
X124253927Y-92874763D01*
X124257657Y-92881224D01*
X124257660Y-92881228D01*
X124260960Y-92886944D01*
X124265377Y-92891850D01*
X124265381Y-92891855D01*
X124306722Y-92937769D01*
X124311006Y-92942784D01*
X124316850Y-92950000D01*
X124323928Y-92958741D01*
X124338443Y-92973256D01*
X124342984Y-92978041D01*
X124388747Y-93028866D01*
X124394086Y-93032745D01*
X124394087Y-93032746D01*
X124400135Y-93037140D01*
X124415168Y-93049981D01*
X125200019Y-93834832D01*
X125212860Y-93849865D01*
X125221134Y-93861253D01*
X125226043Y-93865673D01*
X125271959Y-93907016D01*
X125276744Y-93911557D01*
X125291259Y-93926072D01*
X125296878Y-93930622D01*
X125307216Y-93938994D01*
X125312231Y-93943278D01*
X125358145Y-93984619D01*
X125358150Y-93984623D01*
X125363056Y-93989040D01*
X125368772Y-93992340D01*
X125368776Y-93992343D01*
X125375237Y-93996073D01*
X125391533Y-94007273D01*
X125402470Y-94016129D01*
X125463421Y-94047185D01*
X125469215Y-94050331D01*
X125528444Y-94084527D01*
X125534726Y-94086568D01*
X125534728Y-94086569D01*
X125541826Y-94088875D01*
X125560092Y-94096440D01*
X125572630Y-94102829D01*
X125579006Y-94104538D01*
X125579010Y-94104539D01*
X125638685Y-94120529D01*
X125645010Y-94122402D01*
X125710072Y-94143542D01*
X125716640Y-94144232D01*
X125716644Y-94144233D01*
X125724061Y-94145012D01*
X125743508Y-94148616D01*
X125757096Y-94152257D01*
X125763695Y-94152603D01*
X125763696Y-94152603D01*
X125825385Y-94155836D01*
X125831960Y-94156353D01*
X125846222Y-94157852D01*
X125852390Y-94158500D01*
X125872925Y-94158500D01*
X125879519Y-94158673D01*
X125941217Y-94161907D01*
X125941222Y-94161907D01*
X125947809Y-94162252D01*
X125961707Y-94160051D01*
X125981416Y-94158500D01*
X131118583Y-94158500D01*
X131138292Y-94160051D01*
X131152190Y-94162252D01*
X131158777Y-94161907D01*
X131158782Y-94161907D01*
X131220480Y-94158673D01*
X131227074Y-94158500D01*
X131247610Y-94158500D01*
X131250882Y-94158156D01*
X131250884Y-94158156D01*
X131268042Y-94156353D01*
X131274616Y-94155836D01*
X131336308Y-94152603D01*
X131336312Y-94152602D01*
X131342903Y-94152257D01*
X131349284Y-94150547D01*
X131349286Y-94150547D01*
X131356491Y-94148617D01*
X131375925Y-94145015D01*
X131383354Y-94144234D01*
X131383363Y-94144232D01*
X131389928Y-94143542D01*
X131454997Y-94122400D01*
X131461299Y-94120533D01*
X131502852Y-94109399D01*
X131520996Y-94104537D01*
X131520997Y-94104537D01*
X131527370Y-94102829D01*
X131539908Y-94096440D01*
X131558174Y-94088875D01*
X131565272Y-94086569D01*
X131565274Y-94086568D01*
X131571556Y-94084527D01*
X131630785Y-94050331D01*
X131636579Y-94047185D01*
X131697530Y-94016129D01*
X131708467Y-94007273D01*
X131724763Y-93996073D01*
X131731224Y-93992343D01*
X131731228Y-93992340D01*
X131736944Y-93989040D01*
X131741850Y-93984623D01*
X131741855Y-93984619D01*
X131787769Y-93943278D01*
X131792784Y-93938994D01*
X131803122Y-93930622D01*
X131808741Y-93926072D01*
X131823256Y-93911557D01*
X131828041Y-93907016D01*
X131873957Y-93865673D01*
X131878866Y-93861253D01*
X131887140Y-93849865D01*
X131899981Y-93834832D01*
X132789408Y-92945405D01*
X132851720Y-92911379D01*
X132878503Y-92908500D01*
X136405126Y-92908500D01*
X136473247Y-92928502D01*
X136480673Y-92933661D01*
X136503295Y-92950615D01*
X136639684Y-93001745D01*
X136701866Y-93008500D01*
X138198134Y-93008500D01*
X138260316Y-93001745D01*
X138267716Y-92998971D01*
X138271275Y-92997637D01*
X138274238Y-92997420D01*
X138275400Y-92997144D01*
X138275445Y-92997332D01*
X138342082Y-92992457D01*
X138404450Y-93026380D01*
X138438577Y-93088637D01*
X138441500Y-93115621D01*
X138441500Y-93498134D01*
X138448255Y-93560316D01*
X138499385Y-93696705D01*
X138586739Y-93813261D01*
X138703295Y-93900615D01*
X138839684Y-93951745D01*
X138901866Y-93958500D01*
X140398134Y-93958500D01*
X140460316Y-93951745D01*
X140596705Y-93900615D01*
X140619311Y-93883673D01*
X140685815Y-93858826D01*
X140694874Y-93858500D01*
X140776055Y-93858500D01*
X140846057Y-93879735D01*
X140882024Y-93903767D01*
X140918803Y-93928342D01*
X140924106Y-93930620D01*
X140924109Y-93930622D01*
X141100680Y-94006483D01*
X141105987Y-94008763D01*
X141151781Y-94019125D01*
X141299055Y-94052450D01*
X141299060Y-94052451D01*
X141304692Y-94053725D01*
X141310463Y-94053952D01*
X141310465Y-94053952D01*
X141373470Y-94056427D01*
X141508263Y-94061723D01*
X141709883Y-94032490D01*
X141715347Y-94030635D01*
X141715352Y-94030634D01*
X141897327Y-93968862D01*
X141897332Y-93968860D01*
X141902799Y-93967004D01*
X142080551Y-93867458D01*
X142237186Y-93737186D01*
X142367458Y-93580551D01*
X142467004Y-93402799D01*
X142468860Y-93397332D01*
X142468862Y-93397327D01*
X142530634Y-93215352D01*
X142530635Y-93215347D01*
X142532490Y-93209883D01*
X142561723Y-93008263D01*
X142563249Y-92950000D01*
X142547964Y-92783647D01*
X142545137Y-92752880D01*
X142545136Y-92752877D01*
X142544608Y-92747126D01*
X142542939Y-92741208D01*
X142522945Y-92670316D01*
X153792411Y-92670316D01*
X153796153Y-92675315D01*
X153813454Y-92683382D01*
X153823750Y-92687129D01*
X154025575Y-92741208D01*
X154036370Y-92743111D01*
X154244525Y-92761323D01*
X154255475Y-92761323D01*
X154463630Y-92743111D01*
X154474425Y-92741208D01*
X154676250Y-92687129D01*
X154686546Y-92683382D01*
X154697225Y-92678402D01*
X154706410Y-92670316D01*
X160292411Y-92670316D01*
X160296153Y-92675315D01*
X160313454Y-92683382D01*
X160323750Y-92687129D01*
X160525575Y-92741208D01*
X160536370Y-92743111D01*
X160744525Y-92761323D01*
X160755475Y-92761323D01*
X160963630Y-92743111D01*
X160974425Y-92741208D01*
X161176250Y-92687129D01*
X161186546Y-92683382D01*
X161197225Y-92678402D01*
X161207807Y-92669086D01*
X161206000Y-92663107D01*
X160762812Y-92219919D01*
X160748868Y-92212305D01*
X160747035Y-92212436D01*
X160740420Y-92216687D01*
X160299171Y-92657936D01*
X160292411Y-92670316D01*
X154706410Y-92670316D01*
X154707807Y-92669086D01*
X154706000Y-92663107D01*
X154262812Y-92219919D01*
X154248868Y-92212305D01*
X154247035Y-92212436D01*
X154240420Y-92216687D01*
X153799171Y-92657936D01*
X153792411Y-92670316D01*
X142522945Y-92670316D01*
X142490875Y-92556606D01*
X142490874Y-92556604D01*
X142489307Y-92551047D01*
X142476919Y-92525925D01*
X142401756Y-92373510D01*
X142399201Y-92368329D01*
X142351609Y-92304595D01*
X142280758Y-92209715D01*
X142280758Y-92209714D01*
X142277305Y-92205091D01*
X142187646Y-92122211D01*
X142131943Y-92070719D01*
X142131940Y-92070717D01*
X142127703Y-92066800D01*
X142002194Y-91987610D01*
X141955255Y-91934343D01*
X141944566Y-91864156D01*
X141973520Y-91799332D01*
X141985119Y-91787412D01*
X142034135Y-91743278D01*
X142039150Y-91738994D01*
X142052543Y-91728148D01*
X142055107Y-91726072D01*
X142069622Y-91711557D01*
X142074407Y-91707016D01*
X142120323Y-91665673D01*
X142125232Y-91661253D01*
X142133506Y-91649865D01*
X142146347Y-91634832D01*
X142275704Y-91505475D01*
X152988677Y-91505475D01*
X153006889Y-91713630D01*
X153008792Y-91724425D01*
X153062871Y-91926250D01*
X153066618Y-91936546D01*
X153071598Y-91947225D01*
X153080914Y-91957807D01*
X153086893Y-91956000D01*
X153530081Y-91512812D01*
X153536459Y-91501132D01*
X154962305Y-91501132D01*
X154962436Y-91502965D01*
X154966687Y-91509580D01*
X155407936Y-91950829D01*
X155420316Y-91957589D01*
X155425315Y-91953847D01*
X155433382Y-91936546D01*
X155437129Y-91926250D01*
X155491208Y-91724425D01*
X155493111Y-91713630D01*
X155511323Y-91505475D01*
X159488677Y-91505475D01*
X159506889Y-91713630D01*
X159508792Y-91724425D01*
X159562871Y-91926250D01*
X159566618Y-91936546D01*
X159571598Y-91947225D01*
X159580914Y-91957807D01*
X159586893Y-91956000D01*
X160030081Y-91512812D01*
X160036459Y-91501132D01*
X161462305Y-91501132D01*
X161462436Y-91502965D01*
X161466687Y-91509580D01*
X161907936Y-91950829D01*
X161920316Y-91957589D01*
X161925315Y-91953847D01*
X161933382Y-91936546D01*
X161937129Y-91926250D01*
X161991208Y-91724425D01*
X161993111Y-91713630D01*
X162011323Y-91505475D01*
X162011323Y-91494525D01*
X161993111Y-91286370D01*
X161991208Y-91275575D01*
X161937129Y-91073750D01*
X161933382Y-91063454D01*
X161928402Y-91052775D01*
X161919086Y-91042193D01*
X161913107Y-91044000D01*
X161469919Y-91487188D01*
X161462305Y-91501132D01*
X160036459Y-91501132D01*
X160037695Y-91498868D01*
X160037564Y-91497035D01*
X160033313Y-91490420D01*
X159592064Y-91049171D01*
X159579684Y-91042411D01*
X159574685Y-91046153D01*
X159566618Y-91063454D01*
X159562871Y-91073750D01*
X159508792Y-91275575D01*
X159506889Y-91286370D01*
X159488677Y-91494525D01*
X159488677Y-91505475D01*
X155511323Y-91505475D01*
X155511323Y-91494525D01*
X155493111Y-91286370D01*
X155491208Y-91275575D01*
X155437129Y-91073750D01*
X155433382Y-91063454D01*
X155428402Y-91052775D01*
X155419086Y-91042193D01*
X155413107Y-91044000D01*
X154969919Y-91487188D01*
X154962305Y-91501132D01*
X153536459Y-91501132D01*
X153537695Y-91498868D01*
X153537564Y-91497035D01*
X153533313Y-91490420D01*
X153092064Y-91049171D01*
X153079684Y-91042411D01*
X153074685Y-91046153D01*
X153066618Y-91063454D01*
X153062871Y-91073750D01*
X153008792Y-91275575D01*
X153006889Y-91286370D01*
X152988677Y-91494525D01*
X152988677Y-91505475D01*
X142275704Y-91505475D01*
X143450265Y-90330914D01*
X153792193Y-90330914D01*
X153794000Y-90336893D01*
X154237188Y-90780081D01*
X154251132Y-90787695D01*
X154252965Y-90787564D01*
X154259580Y-90783313D01*
X154700829Y-90342064D01*
X154706917Y-90330914D01*
X160292193Y-90330914D01*
X160294000Y-90336893D01*
X160737188Y-90780081D01*
X160751132Y-90787695D01*
X160752965Y-90787564D01*
X160759580Y-90783313D01*
X161200829Y-90342064D01*
X161207589Y-90329684D01*
X161203847Y-90324685D01*
X161186546Y-90316618D01*
X161176250Y-90312871D01*
X160974425Y-90258792D01*
X160963630Y-90256889D01*
X160755475Y-90238677D01*
X160744525Y-90238677D01*
X160536370Y-90256889D01*
X160525575Y-90258792D01*
X160323750Y-90312871D01*
X160313454Y-90316618D01*
X160302775Y-90321598D01*
X160292193Y-90330914D01*
X154706917Y-90330914D01*
X154707589Y-90329684D01*
X154703847Y-90324685D01*
X154686546Y-90316618D01*
X154676250Y-90312871D01*
X154474425Y-90258792D01*
X154463630Y-90256889D01*
X154255475Y-90238677D01*
X154244525Y-90238677D01*
X154036370Y-90256889D01*
X154025575Y-90258792D01*
X153823750Y-90312871D01*
X153813454Y-90316618D01*
X153802775Y-90321598D01*
X153792193Y-90330914D01*
X143450265Y-90330914D01*
X147920217Y-85860962D01*
X147982529Y-85826936D01*
X148053344Y-85832001D01*
X148110180Y-85874548D01*
X148128835Y-85910179D01*
X148158450Y-85998946D01*
X148251522Y-86149348D01*
X148256704Y-86154521D01*
X148263154Y-86160960D01*
X148376697Y-86274305D01*
X148382927Y-86278145D01*
X148382928Y-86278146D01*
X148512707Y-86358143D01*
X148527262Y-86367115D01*
X148607005Y-86393564D01*
X148688611Y-86420632D01*
X148688613Y-86420632D01*
X148695139Y-86422797D01*
X148701975Y-86423497D01*
X148701978Y-86423498D01*
X148745031Y-86427909D01*
X148799600Y-86433500D01*
X148802767Y-86433500D01*
X148869769Y-86456948D01*
X148885425Y-86470238D01*
X149950019Y-87534832D01*
X149962860Y-87549865D01*
X149971134Y-87561253D01*
X150000484Y-87587680D01*
X150021959Y-87607016D01*
X150026744Y-87611557D01*
X150041259Y-87626072D01*
X150043823Y-87628148D01*
X150057216Y-87638994D01*
X150062231Y-87643278D01*
X150108145Y-87684619D01*
X150108150Y-87684623D01*
X150113056Y-87689040D01*
X150118772Y-87692340D01*
X150118776Y-87692343D01*
X150125237Y-87696073D01*
X150141533Y-87707273D01*
X150152470Y-87716129D01*
X150213421Y-87747185D01*
X150219215Y-87750331D01*
X150278444Y-87784527D01*
X150284726Y-87786568D01*
X150284728Y-87786569D01*
X150291826Y-87788875D01*
X150310092Y-87796440D01*
X150322630Y-87802829D01*
X150329006Y-87804538D01*
X150329010Y-87804539D01*
X150388685Y-87820529D01*
X150395010Y-87822402D01*
X150460072Y-87843542D01*
X150466640Y-87844232D01*
X150466644Y-87844233D01*
X150474061Y-87845012D01*
X150493508Y-87848616D01*
X150507096Y-87852257D01*
X150513695Y-87852603D01*
X150513696Y-87852603D01*
X150575385Y-87855836D01*
X150581960Y-87856353D01*
X150596222Y-87857852D01*
X150602390Y-87858500D01*
X150622925Y-87858500D01*
X150629519Y-87858673D01*
X150691217Y-87861907D01*
X150691222Y-87861907D01*
X150697809Y-87862252D01*
X150711707Y-87860051D01*
X150731416Y-87858500D01*
X152911621Y-87858500D01*
X152979742Y-87878502D01*
X153026235Y-87932158D01*
X153029603Y-87940270D01*
X153039616Y-87966980D01*
X153050385Y-87995705D01*
X153137739Y-88112261D01*
X153254295Y-88199615D01*
X153390684Y-88250745D01*
X153452866Y-88257500D01*
X155047134Y-88257500D01*
X155109316Y-88250745D01*
X155245705Y-88199615D01*
X155362261Y-88112261D01*
X155449615Y-87995705D01*
X155500745Y-87859316D01*
X155507500Y-87797134D01*
X155507500Y-86202866D01*
X155500745Y-86140684D01*
X155449615Y-86004295D01*
X155362261Y-85887739D01*
X155245705Y-85800385D01*
X155109316Y-85749255D01*
X155047134Y-85742500D01*
X153452866Y-85742500D01*
X153390684Y-85749255D01*
X153254295Y-85800385D01*
X153137739Y-85887739D01*
X153132358Y-85894919D01*
X153132357Y-85894920D01*
X153060300Y-85991065D01*
X153003441Y-86033580D01*
X152959474Y-86041500D01*
X151078503Y-86041500D01*
X151010382Y-86021498D01*
X150989408Y-86004595D01*
X150545405Y-85560592D01*
X150511379Y-85498280D01*
X150508500Y-85471497D01*
X150508500Y-85099600D01*
X150507139Y-85086484D01*
X150498238Y-85000692D01*
X150498237Y-85000688D01*
X150497526Y-84993834D01*
X150476009Y-84929338D01*
X150443868Y-84833002D01*
X150441550Y-84826054D01*
X150348478Y-84675652D01*
X150261891Y-84589216D01*
X150227812Y-84526934D01*
X150232815Y-84456114D01*
X150261736Y-84411025D01*
X150344134Y-84328483D01*
X150349305Y-84323303D01*
X150358667Y-84308115D01*
X150438275Y-84178968D01*
X150438276Y-84178966D01*
X150442115Y-84172738D01*
X150497797Y-84004861D01*
X150499518Y-83988069D01*
X150506918Y-83915840D01*
X150508500Y-83900400D01*
X150508500Y-83274600D01*
X150507058Y-83260702D01*
X150498238Y-83175692D01*
X150498237Y-83175688D01*
X150497526Y-83168834D01*
X150491205Y-83149886D01*
X150443868Y-83008002D01*
X150441550Y-83001054D01*
X150348478Y-82850652D01*
X150291518Y-82793791D01*
X150245482Y-82747835D01*
X150211403Y-82685552D01*
X150208500Y-82658662D01*
X150208500Y-67578503D01*
X150228502Y-67510382D01*
X150245405Y-67489408D01*
X150612966Y-67121847D01*
X150675278Y-67087821D01*
X150683979Y-67086246D01*
X150692076Y-67085072D01*
X150709883Y-67082490D01*
X150715347Y-67080635D01*
X150715352Y-67080634D01*
X150897327Y-67018862D01*
X150897332Y-67018860D01*
X150902799Y-67017004D01*
X150920490Y-67007097D01*
X150979454Y-66974075D01*
X151080551Y-66917458D01*
X151237186Y-66787186D01*
X151367458Y-66630551D01*
X151467004Y-66452799D01*
X151468860Y-66447332D01*
X151468862Y-66447327D01*
X151530634Y-66265352D01*
X151530635Y-66265347D01*
X151532490Y-66259883D01*
X151536246Y-66233979D01*
X151565817Y-66169434D01*
X151571847Y-66162966D01*
X153139408Y-64595405D01*
X153201720Y-64561379D01*
X153228503Y-64558500D01*
X176421497Y-64558500D01*
X176489618Y-64578502D01*
X176510592Y-64595405D01*
X177400019Y-65484832D01*
X177412860Y-65499865D01*
X177421134Y-65511253D01*
X177426043Y-65515673D01*
X177471959Y-65557016D01*
X177476744Y-65561557D01*
X177491259Y-65576072D01*
X177498718Y-65582112D01*
X177507216Y-65588994D01*
X177512231Y-65593278D01*
X177558145Y-65634619D01*
X177558150Y-65634623D01*
X177563056Y-65639040D01*
X177568772Y-65642340D01*
X177568776Y-65642343D01*
X177575237Y-65646073D01*
X177591533Y-65657273D01*
X177602470Y-65666129D01*
X177608348Y-65669124D01*
X177608351Y-65669126D01*
X177663426Y-65697188D01*
X177669223Y-65700336D01*
X177722723Y-65731224D01*
X177728444Y-65734527D01*
X177741826Y-65738875D01*
X177760085Y-65746438D01*
X177772630Y-65752830D01*
X177779000Y-65754537D01*
X177779003Y-65754538D01*
X177810715Y-65763035D01*
X177838712Y-65770537D01*
X177845025Y-65772407D01*
X177910072Y-65793542D01*
X177924075Y-65795014D01*
X177943504Y-65798615D01*
X177957097Y-65802257D01*
X177963694Y-65802603D01*
X177963696Y-65802603D01*
X178025384Y-65805836D01*
X178031958Y-65806353D01*
X178049116Y-65808156D01*
X178049118Y-65808156D01*
X178052390Y-65808500D01*
X178072926Y-65808500D01*
X178079520Y-65808673D01*
X178141218Y-65811907D01*
X178141223Y-65811907D01*
X178147810Y-65812252D01*
X178161708Y-65810051D01*
X178181417Y-65808500D01*
X178866482Y-65808500D01*
X178934603Y-65828502D01*
X178946966Y-65837555D01*
X179014149Y-65893331D01*
X179014155Y-65893335D01*
X179018126Y-65896632D01*
X179022586Y-65899238D01*
X179091445Y-65939476D01*
X179140169Y-65991114D01*
X179153240Y-66060897D01*
X179126509Y-66126669D01*
X179086055Y-66160027D01*
X179073607Y-66166507D01*
X179069474Y-66169610D01*
X179069471Y-66169612D01*
X178899100Y-66297530D01*
X178894965Y-66300635D01*
X178891393Y-66304373D01*
X178745505Y-66457036D01*
X178740629Y-66462138D01*
X178614743Y-66646680D01*
X178551583Y-66782748D01*
X178534964Y-66818550D01*
X178488140Y-66871917D01*
X178420676Y-66891500D01*
X169424032Y-66891500D01*
X169356797Y-66872062D01*
X169356568Y-66871917D01*
X169326197Y-66852755D01*
X169260288Y-66811169D01*
X169260283Y-66811167D01*
X169255404Y-66808088D01*
X169066180Y-66732595D01*
X168866366Y-66692849D01*
X168860592Y-66692773D01*
X168860588Y-66692773D01*
X168757452Y-66691424D01*
X168662655Y-66690183D01*
X168656958Y-66691162D01*
X168656957Y-66691162D01*
X168493680Y-66719218D01*
X168461870Y-66724684D01*
X168270734Y-66795198D01*
X168265773Y-66798150D01*
X168265772Y-66798150D01*
X168141538Y-66872062D01*
X168095649Y-66899363D01*
X167942478Y-67033690D01*
X167938911Y-67038215D01*
X167938906Y-67038220D01*
X167852331Y-67148040D01*
X167816351Y-67193681D01*
X167721492Y-67373978D01*
X167661078Y-67568543D01*
X167637132Y-67770859D01*
X167650457Y-67974151D01*
X167700605Y-68171610D01*
X167743252Y-68264117D01*
X167783479Y-68351378D01*
X167783482Y-68351383D01*
X167785898Y-68356624D01*
X167789229Y-68361337D01*
X167789234Y-68361346D01*
X167834330Y-68425154D01*
X167857312Y-68492328D01*
X167840328Y-68561263D01*
X167830383Y-68575882D01*
X167816351Y-68593681D01*
X167813662Y-68598792D01*
X167813660Y-68598795D01*
X167786002Y-68651364D01*
X167721492Y-68773978D01*
X167661078Y-68968543D01*
X167637132Y-69170859D01*
X167650457Y-69374151D01*
X167700605Y-69571610D01*
X167785898Y-69756624D01*
X167903479Y-69922997D01*
X168049410Y-70065157D01*
X168054206Y-70068362D01*
X168054209Y-70068364D01*
X168186916Y-70157036D01*
X168218803Y-70178342D01*
X168224106Y-70180620D01*
X168224109Y-70180622D01*
X168371213Y-70243823D01*
X168405987Y-70258763D01*
X168445214Y-70267639D01*
X168599055Y-70302450D01*
X168599060Y-70302451D01*
X168604692Y-70303725D01*
X168610463Y-70303952D01*
X168610465Y-70303952D01*
X168622224Y-70304414D01*
X168641149Y-70305157D01*
X168708431Y-70327817D01*
X168752783Y-70383256D01*
X168760121Y-70453873D01*
X168754185Y-70475290D01*
X168751522Y-70482394D01*
X168747895Y-70497649D01*
X168742369Y-70548514D01*
X168742000Y-70555328D01*
X168742000Y-70581885D01*
X168746475Y-70597124D01*
X168747865Y-70598329D01*
X168755548Y-70600000D01*
X170324000Y-70600000D01*
X170392121Y-70620002D01*
X170438614Y-70673658D01*
X170450000Y-70726000D01*
X170450000Y-71474000D01*
X170429998Y-71542121D01*
X170376342Y-71588614D01*
X170324000Y-71600000D01*
X168760116Y-71600000D01*
X168744877Y-71604475D01*
X168743672Y-71605865D01*
X168742001Y-71613548D01*
X168742001Y-71644669D01*
X168742371Y-71651490D01*
X168747895Y-71702352D01*
X168751521Y-71717604D01*
X168796679Y-71838061D01*
X168805948Y-71854992D01*
X168821117Y-71924349D01*
X168796380Y-71990897D01*
X168739592Y-72033507D01*
X168695428Y-72041500D01*
X168381417Y-72041500D01*
X168361708Y-72039949D01*
X168347810Y-72037748D01*
X168341223Y-72038093D01*
X168341218Y-72038093D01*
X168279520Y-72041327D01*
X168272926Y-72041500D01*
X168252390Y-72041500D01*
X168249118Y-72041844D01*
X168249116Y-72041844D01*
X168231958Y-72043647D01*
X168225384Y-72044164D01*
X168163692Y-72047397D01*
X168163688Y-72047398D01*
X168157097Y-72047743D01*
X168150716Y-72049453D01*
X168150714Y-72049453D01*
X168143509Y-72051383D01*
X168124075Y-72054985D01*
X168116646Y-72055766D01*
X168116637Y-72055768D01*
X168110072Y-72056458D01*
X168045003Y-72077600D01*
X168038701Y-72079467D01*
X168033134Y-72080959D01*
X167989279Y-72092710D01*
X167972630Y-72097171D01*
X167960093Y-72103559D01*
X167941826Y-72111125D01*
X167934728Y-72113431D01*
X167934726Y-72113432D01*
X167928444Y-72115473D01*
X167922722Y-72118776D01*
X167922721Y-72118777D01*
X167869218Y-72149667D01*
X167863423Y-72152814D01*
X167802470Y-72183871D01*
X167797342Y-72188024D01*
X167797340Y-72188025D01*
X167791534Y-72192727D01*
X167775237Y-72203927D01*
X167768776Y-72207657D01*
X167768772Y-72207660D01*
X167763056Y-72210960D01*
X167758150Y-72215377D01*
X167758145Y-72215381D01*
X167712231Y-72256722D01*
X167707216Y-72261006D01*
X167702852Y-72264540D01*
X167691259Y-72273928D01*
X167676744Y-72288443D01*
X167671959Y-72292984D01*
X167621134Y-72338747D01*
X167617255Y-72344086D01*
X167617254Y-72344087D01*
X167612860Y-72350135D01*
X167600019Y-72365168D01*
X166410592Y-73554595D01*
X166348280Y-73588621D01*
X166321497Y-73591500D01*
X163224032Y-73591500D01*
X163156797Y-73572062D01*
X163143605Y-73563738D01*
X163126197Y-73552755D01*
X163060288Y-73511169D01*
X163060283Y-73511167D01*
X163055404Y-73508088D01*
X162866180Y-73432595D01*
X162666366Y-73392849D01*
X162660592Y-73392773D01*
X162660588Y-73392773D01*
X162557452Y-73391424D01*
X162462655Y-73390183D01*
X162456958Y-73391162D01*
X162456957Y-73391162D01*
X162272101Y-73422926D01*
X162261870Y-73424684D01*
X162070734Y-73495198D01*
X162065773Y-73498150D01*
X162065772Y-73498150D01*
X161908755Y-73591566D01*
X161895649Y-73599363D01*
X161742478Y-73733690D01*
X161738911Y-73738215D01*
X161738906Y-73738220D01*
X161690203Y-73800000D01*
X161616351Y-73893681D01*
X161613662Y-73898792D01*
X161613660Y-73898795D01*
X161575388Y-73971538D01*
X161521492Y-74073978D01*
X161461078Y-74268543D01*
X161437132Y-74470859D01*
X161450457Y-74674151D01*
X161498002Y-74861358D01*
X161498557Y-74863544D01*
X161495939Y-74934492D01*
X161450517Y-74996467D01*
X161445649Y-74999363D01*
X161441309Y-75003169D01*
X161441305Y-75003172D01*
X161363521Y-75071387D01*
X161292478Y-75133690D01*
X161288911Y-75138215D01*
X161288906Y-75138220D01*
X161238349Y-75202352D01*
X161166351Y-75293681D01*
X161163662Y-75298792D01*
X161163660Y-75298795D01*
X161133040Y-75356994D01*
X161071492Y-75473978D01*
X161011078Y-75668543D01*
X160987132Y-75870859D01*
X161000457Y-76074151D01*
X161050605Y-76271610D01*
X161135898Y-76456624D01*
X161253479Y-76622997D01*
X161263227Y-76632493D01*
X161384572Y-76750702D01*
X161399410Y-76765157D01*
X161404206Y-76768362D01*
X161404209Y-76768364D01*
X161519595Y-76845462D01*
X161568803Y-76878342D01*
X161574106Y-76880620D01*
X161574109Y-76880622D01*
X161744731Y-76953927D01*
X161755987Y-76958763D01*
X161850286Y-76980100D01*
X161872920Y-76985222D01*
X161934207Y-77019020D01*
X162000019Y-77084832D01*
X162012860Y-77099865D01*
X162021134Y-77111253D01*
X162026043Y-77115673D01*
X162071959Y-77157016D01*
X162076744Y-77161557D01*
X162091259Y-77176072D01*
X162093823Y-77178148D01*
X162107216Y-77188994D01*
X162112231Y-77193278D01*
X162158145Y-77234619D01*
X162158150Y-77234623D01*
X162163056Y-77239040D01*
X162168772Y-77242340D01*
X162168776Y-77242343D01*
X162175237Y-77246073D01*
X162191533Y-77257273D01*
X162202470Y-77266129D01*
X162252611Y-77291677D01*
X162263421Y-77297185D01*
X162269215Y-77300331D01*
X162328444Y-77334527D01*
X162334726Y-77336568D01*
X162334728Y-77336569D01*
X162341826Y-77338875D01*
X162360092Y-77346440D01*
X162372630Y-77352829D01*
X162379006Y-77354538D01*
X162379010Y-77354539D01*
X162438685Y-77370529D01*
X162445010Y-77372402D01*
X162510072Y-77393542D01*
X162516640Y-77394232D01*
X162516644Y-77394233D01*
X162524061Y-77395012D01*
X162543508Y-77398616D01*
X162557096Y-77402257D01*
X162563695Y-77402603D01*
X162563696Y-77402603D01*
X162625385Y-77405836D01*
X162631960Y-77406353D01*
X162646222Y-77407852D01*
X162652390Y-77408500D01*
X162672925Y-77408500D01*
X162679519Y-77408673D01*
X162741218Y-77411907D01*
X162741223Y-77411907D01*
X162747810Y-77412252D01*
X162761708Y-77410051D01*
X162781417Y-77408500D01*
X168617150Y-77408500D01*
X168685271Y-77428502D01*
X168731764Y-77482158D01*
X168741926Y-77545083D01*
X168742553Y-77545117D01*
X168742397Y-77547998D01*
X168742414Y-77548103D01*
X168742369Y-77548520D01*
X168742000Y-77555328D01*
X168742000Y-77581885D01*
X168746475Y-77597124D01*
X168747865Y-77598329D01*
X168755548Y-77600000D01*
X170324000Y-77600000D01*
X170392121Y-77620002D01*
X170438614Y-77673658D01*
X170450000Y-77726000D01*
X170450000Y-78474000D01*
X170429998Y-78542121D01*
X170376342Y-78588614D01*
X170324000Y-78600000D01*
X168760116Y-78600000D01*
X168744877Y-78604475D01*
X168743672Y-78605865D01*
X168742001Y-78613548D01*
X168742001Y-78644669D01*
X168742371Y-78651490D01*
X168747895Y-78702352D01*
X168751521Y-78717604D01*
X168796676Y-78838054D01*
X168805214Y-78853649D01*
X168832409Y-78889935D01*
X168857257Y-78956442D01*
X168842204Y-79025824D01*
X168792030Y-79076054D01*
X168731583Y-79091500D01*
X167328503Y-79091500D01*
X167260382Y-79071498D01*
X167239408Y-79054595D01*
X166299981Y-78115168D01*
X166287140Y-78100135D01*
X166282746Y-78094087D01*
X166282745Y-78094086D01*
X166278866Y-78088747D01*
X166228041Y-78042984D01*
X166223256Y-78038443D01*
X166208741Y-78023928D01*
X166201282Y-78017888D01*
X166192784Y-78011006D01*
X166187769Y-78006722D01*
X166141855Y-77965381D01*
X166141850Y-77965377D01*
X166136944Y-77960960D01*
X166131228Y-77957660D01*
X166131224Y-77957657D01*
X166124763Y-77953927D01*
X166108466Y-77942727D01*
X166108064Y-77942401D01*
X166097530Y-77933871D01*
X166036577Y-77902814D01*
X166030782Y-77899667D01*
X165977279Y-77868777D01*
X165977278Y-77868776D01*
X165971556Y-77865473D01*
X165965274Y-77863432D01*
X165965272Y-77863431D01*
X165958174Y-77861125D01*
X165939907Y-77853559D01*
X165927370Y-77847171D01*
X165861299Y-77829467D01*
X165854997Y-77827600D01*
X165789928Y-77806458D01*
X165783363Y-77805768D01*
X165783354Y-77805766D01*
X165775925Y-77804985D01*
X165756491Y-77801383D01*
X165749286Y-77799453D01*
X165749284Y-77799453D01*
X165742903Y-77797743D01*
X165736312Y-77797398D01*
X165736308Y-77797397D01*
X165674616Y-77794164D01*
X165668042Y-77793647D01*
X165650884Y-77791844D01*
X165650882Y-77791844D01*
X165647610Y-77791500D01*
X165627074Y-77791500D01*
X165620480Y-77791327D01*
X165558782Y-77788093D01*
X165558777Y-77788093D01*
X165552190Y-77787748D01*
X165538292Y-77789949D01*
X165518583Y-77791500D01*
X161352390Y-77791500D01*
X161349130Y-77791843D01*
X161349123Y-77791843D01*
X161332568Y-77793583D01*
X161315240Y-77795405D01*
X161245402Y-77782633D01*
X161234832Y-77776656D01*
X161210286Y-77761168D01*
X161210283Y-77761167D01*
X161205404Y-77758088D01*
X161200044Y-77755950D01*
X161200041Y-77755948D01*
X161021549Y-77684737D01*
X161016180Y-77682595D01*
X160816366Y-77642849D01*
X160810592Y-77642773D01*
X160810588Y-77642773D01*
X160707452Y-77641424D01*
X160612655Y-77640183D01*
X160606958Y-77641162D01*
X160606957Y-77641162D01*
X160417841Y-77673658D01*
X160411870Y-77674684D01*
X160220734Y-77745198D01*
X160215773Y-77748150D01*
X160215772Y-77748150D01*
X160065374Y-77837628D01*
X160045649Y-77849363D01*
X159892478Y-77983690D01*
X159888911Y-77988215D01*
X159888906Y-77988220D01*
X159805448Y-78094087D01*
X159766351Y-78143681D01*
X159763662Y-78148792D01*
X159763660Y-78148795D01*
X159734771Y-78203704D01*
X159671492Y-78323978D01*
X159611078Y-78518543D01*
X159587132Y-78720859D01*
X159600457Y-78924151D01*
X159650605Y-79121610D01*
X159735898Y-79306624D01*
X159853479Y-79472997D01*
X159999410Y-79615157D01*
X160004206Y-79618362D01*
X160004209Y-79618364D01*
X160114324Y-79691940D01*
X160168803Y-79728342D01*
X160174103Y-79730619D01*
X160174114Y-79730625D01*
X160242202Y-79759878D01*
X160296894Y-79805146D01*
X160318431Y-79872797D01*
X160313598Y-79907292D01*
X160313992Y-79907376D01*
X160312802Y-79912977D01*
X160312798Y-79913002D01*
X160312792Y-79913021D01*
X160312791Y-79913027D01*
X160311078Y-79918543D01*
X160287132Y-80120859D01*
X160300457Y-80324151D01*
X160350605Y-80521610D01*
X160435898Y-80706624D01*
X160553479Y-80872997D01*
X160557613Y-80877024D01*
X160664099Y-80980758D01*
X160699410Y-81015157D01*
X160704206Y-81018362D01*
X160704209Y-81018364D01*
X160806565Y-81086756D01*
X160868803Y-81128342D01*
X160874106Y-81130620D01*
X160874109Y-81130622D01*
X161032516Y-81198679D01*
X161055987Y-81208763D01*
X161119967Y-81223240D01*
X161249055Y-81252450D01*
X161249060Y-81252451D01*
X161254692Y-81253725D01*
X161260463Y-81253952D01*
X161260465Y-81253952D01*
X161323470Y-81256427D01*
X161458263Y-81261723D01*
X161659883Y-81232490D01*
X161665347Y-81230635D01*
X161665352Y-81230634D01*
X161847327Y-81168862D01*
X161847332Y-81168860D01*
X161852799Y-81167004D01*
X162017862Y-81074564D01*
X162079425Y-81058500D01*
X164471497Y-81058500D01*
X164539618Y-81078502D01*
X164560592Y-81095405D01*
X165800019Y-82334832D01*
X165812860Y-82349865D01*
X165821134Y-82361253D01*
X165826043Y-82365673D01*
X165871959Y-82407016D01*
X165876744Y-82411557D01*
X165891259Y-82426072D01*
X165893823Y-82428148D01*
X165907216Y-82438994D01*
X165912231Y-82443278D01*
X165958145Y-82484619D01*
X165958150Y-82484623D01*
X165963056Y-82489040D01*
X165968772Y-82492340D01*
X165968776Y-82492343D01*
X165975237Y-82496073D01*
X165991533Y-82507273D01*
X166002470Y-82516129D01*
X166008348Y-82519124D01*
X166008351Y-82519126D01*
X166063426Y-82547188D01*
X166069223Y-82550336D01*
X166122723Y-82581224D01*
X166128444Y-82584527D01*
X166141826Y-82588875D01*
X166160085Y-82596438D01*
X166172630Y-82602830D01*
X166179000Y-82604537D01*
X166179003Y-82604538D01*
X166218074Y-82615007D01*
X166238712Y-82620537D01*
X166245025Y-82622407D01*
X166310072Y-82643542D01*
X166324075Y-82645014D01*
X166343504Y-82648615D01*
X166357097Y-82652257D01*
X166363694Y-82652603D01*
X166363696Y-82652603D01*
X166425384Y-82655836D01*
X166431958Y-82656353D01*
X166449116Y-82658156D01*
X166449118Y-82658156D01*
X166452390Y-82658500D01*
X166472926Y-82658500D01*
X166479520Y-82658673D01*
X166541218Y-82661907D01*
X166541223Y-82661907D01*
X166547810Y-82662252D01*
X166554326Y-82661220D01*
X166554327Y-82661220D01*
X166561707Y-82660051D01*
X166581417Y-82658500D01*
X167607725Y-82658500D01*
X167675846Y-82678502D01*
X167708551Y-82708935D01*
X167786739Y-82813261D01*
X167903295Y-82900615D01*
X168039684Y-82951745D01*
X168101866Y-82958500D01*
X168484379Y-82958500D01*
X168552500Y-82978502D01*
X168598993Y-83032158D01*
X168609097Y-83102432D01*
X168602363Y-83128725D01*
X168598255Y-83139684D01*
X168591500Y-83201866D01*
X168591500Y-83621497D01*
X168571498Y-83689618D01*
X168554595Y-83710592D01*
X167765168Y-84500019D01*
X167750135Y-84512860D01*
X167738747Y-84521134D01*
X167734327Y-84526043D01*
X167692984Y-84571959D01*
X167688443Y-84576744D01*
X167673928Y-84591259D01*
X167671852Y-84593823D01*
X167661006Y-84607216D01*
X167656722Y-84612231D01*
X167615381Y-84658145D01*
X167615377Y-84658150D01*
X167610960Y-84663056D01*
X167607660Y-84668772D01*
X167607657Y-84668776D01*
X167603927Y-84675237D01*
X167592727Y-84691533D01*
X167583871Y-84702470D01*
X167555830Y-84757503D01*
X167552815Y-84763421D01*
X167549667Y-84769218D01*
X167522293Y-84816632D01*
X167515473Y-84828444D01*
X167513432Y-84834726D01*
X167513431Y-84834728D01*
X167511125Y-84841826D01*
X167503560Y-84860092D01*
X167497171Y-84872630D01*
X167484912Y-84918383D01*
X167479469Y-84938695D01*
X167477600Y-84945003D01*
X167456458Y-85010072D01*
X167455768Y-85016637D01*
X167455766Y-85016646D01*
X167454985Y-85024075D01*
X167451383Y-85043509D01*
X167450537Y-85046669D01*
X167447743Y-85057097D01*
X167447398Y-85063688D01*
X167447397Y-85063692D01*
X167444164Y-85125384D01*
X167443647Y-85131958D01*
X167441844Y-85149116D01*
X167441500Y-85152390D01*
X167441500Y-85172926D01*
X167441327Y-85179520D01*
X167438414Y-85235108D01*
X167437748Y-85247810D01*
X167438780Y-85254325D01*
X167439949Y-85261705D01*
X167441500Y-85281417D01*
X167441500Y-88656987D01*
X167421498Y-88725108D01*
X167406593Y-88744039D01*
X167364206Y-88788394D01*
X167364201Y-88788400D01*
X167360629Y-88792138D01*
X167253201Y-88949621D01*
X167198293Y-88994621D01*
X167127768Y-89002792D01*
X167064021Y-88971538D01*
X167043324Y-88947054D01*
X166962825Y-88822621D01*
X166962820Y-88822615D01*
X166960014Y-88818277D01*
X166940111Y-88796403D01*
X166841306Y-88687818D01*
X166810254Y-88623972D01*
X166808500Y-88603019D01*
X166808500Y-86331416D01*
X166810051Y-86311704D01*
X166810336Y-86309908D01*
X166812252Y-86297809D01*
X166811778Y-86288747D01*
X166808673Y-86229519D01*
X166808500Y-86222925D01*
X166808500Y-86202390D01*
X166806353Y-86181960D01*
X166805836Y-86175385D01*
X166802603Y-86113696D01*
X166802603Y-86113695D01*
X166802257Y-86107096D01*
X166798616Y-86093508D01*
X166795012Y-86074061D01*
X166794233Y-86066644D01*
X166794232Y-86066640D01*
X166793542Y-86060072D01*
X166772402Y-85995009D01*
X166770529Y-85988685D01*
X166754539Y-85929010D01*
X166754538Y-85929006D01*
X166752829Y-85922630D01*
X166746440Y-85910092D01*
X166738875Y-85891826D01*
X166736569Y-85884728D01*
X166736568Y-85884726D01*
X166734527Y-85878444D01*
X166724234Y-85860615D01*
X166707713Y-85832001D01*
X166700331Y-85819215D01*
X166697185Y-85813421D01*
X166666129Y-85752470D01*
X166657273Y-85741533D01*
X166646073Y-85725237D01*
X166642343Y-85718776D01*
X166642340Y-85718772D01*
X166639040Y-85713056D01*
X166634623Y-85708150D01*
X166634619Y-85708145D01*
X166593278Y-85662231D01*
X166588994Y-85657216D01*
X166578148Y-85643823D01*
X166576072Y-85641259D01*
X166561557Y-85626744D01*
X166557016Y-85621959D01*
X166515673Y-85576043D01*
X166511253Y-85571134D01*
X166499865Y-85562860D01*
X166484832Y-85550019D01*
X165099981Y-84165168D01*
X165087140Y-84150135D01*
X165082746Y-84144087D01*
X165082745Y-84144086D01*
X165078866Y-84138747D01*
X165028041Y-84092984D01*
X165023256Y-84088443D01*
X165008741Y-84073928D01*
X165001282Y-84067888D01*
X164992784Y-84061006D01*
X164987769Y-84056722D01*
X164941855Y-84015381D01*
X164941850Y-84015377D01*
X164936944Y-84010960D01*
X164931228Y-84007660D01*
X164931224Y-84007657D01*
X164924763Y-84003927D01*
X164908466Y-83992727D01*
X164902660Y-83988025D01*
X164902658Y-83988024D01*
X164897530Y-83983871D01*
X164836577Y-83952814D01*
X164830782Y-83949667D01*
X164777279Y-83918777D01*
X164777278Y-83918776D01*
X164771556Y-83915473D01*
X164765274Y-83913432D01*
X164765272Y-83913431D01*
X164758174Y-83911125D01*
X164739907Y-83903559D01*
X164727370Y-83897171D01*
X164661299Y-83879467D01*
X164654997Y-83877600D01*
X164589928Y-83856458D01*
X164583363Y-83855768D01*
X164583354Y-83855766D01*
X164575925Y-83854985D01*
X164556491Y-83851383D01*
X164549286Y-83849453D01*
X164549284Y-83849453D01*
X164542903Y-83847743D01*
X164536312Y-83847398D01*
X164536308Y-83847397D01*
X164474616Y-83844164D01*
X164468042Y-83843647D01*
X164450884Y-83841844D01*
X164450882Y-83841844D01*
X164447610Y-83841500D01*
X164427074Y-83841500D01*
X164420480Y-83841327D01*
X164358782Y-83838093D01*
X164358777Y-83838093D01*
X164352190Y-83837748D01*
X164338292Y-83839949D01*
X164318583Y-83841500D01*
X160274032Y-83841500D01*
X160206797Y-83822062D01*
X160197686Y-83816313D01*
X160124138Y-83769908D01*
X160110288Y-83761169D01*
X160110283Y-83761167D01*
X160105404Y-83758088D01*
X159916180Y-83682595D01*
X159716366Y-83642849D01*
X159710592Y-83642773D01*
X159710588Y-83642773D01*
X159607452Y-83641424D01*
X159512655Y-83640183D01*
X159506958Y-83641162D01*
X159506957Y-83641162D01*
X159358363Y-83666695D01*
X159311870Y-83674684D01*
X159120734Y-83745198D01*
X159115773Y-83748150D01*
X159115772Y-83748150D01*
X158954388Y-83844164D01*
X158945649Y-83849363D01*
X158792478Y-83983690D01*
X158788911Y-83988215D01*
X158788906Y-83988220D01*
X158721456Y-84073781D01*
X158666351Y-84143681D01*
X158663662Y-84148792D01*
X158663660Y-84148795D01*
X158640454Y-84192903D01*
X158571492Y-84323978D01*
X158511078Y-84518543D01*
X158487132Y-84720859D01*
X158500457Y-84924151D01*
X158550605Y-85121610D01*
X158635898Y-85306624D01*
X158753479Y-85472997D01*
X158812027Y-85530032D01*
X158888133Y-85604171D01*
X158899410Y-85615157D01*
X158904206Y-85618362D01*
X158904209Y-85618364D01*
X159019509Y-85695405D01*
X159068803Y-85728342D01*
X159074106Y-85730620D01*
X159074109Y-85730622D01*
X159248904Y-85805720D01*
X159255987Y-85808763D01*
X159328817Y-85825243D01*
X159449055Y-85852450D01*
X159449060Y-85852451D01*
X159454692Y-85853725D01*
X159460463Y-85853952D01*
X159460465Y-85853952D01*
X159523470Y-85856427D01*
X159658263Y-85861723D01*
X159811099Y-85839563D01*
X159881384Y-85849583D01*
X159935095Y-85896012D01*
X159955178Y-85964109D01*
X159935257Y-86032254D01*
X159918273Y-86053354D01*
X159783020Y-86188607D01*
X159656814Y-86368849D01*
X159654493Y-86373827D01*
X159654491Y-86373830D01*
X159566146Y-86563285D01*
X159563823Y-86568267D01*
X159506874Y-86780803D01*
X159487697Y-87000000D01*
X159506874Y-87219197D01*
X159563823Y-87431733D01*
X159566145Y-87436713D01*
X159566146Y-87436715D01*
X159654446Y-87626072D01*
X159656814Y-87631151D01*
X159783020Y-87811393D01*
X159938607Y-87966980D01*
X159943115Y-87970137D01*
X159943118Y-87970139D01*
X160106917Y-88084832D01*
X160118848Y-88093186D01*
X160123830Y-88095509D01*
X160123835Y-88095512D01*
X160313285Y-88183854D01*
X160318267Y-88186177D01*
X160323575Y-88187599D01*
X160323577Y-88187600D01*
X160389683Y-88205313D01*
X160530803Y-88243126D01*
X160750000Y-88262303D01*
X160969197Y-88243126D01*
X161110317Y-88205313D01*
X161176423Y-88187600D01*
X161176425Y-88187599D01*
X161181733Y-88186177D01*
X161186715Y-88183854D01*
X161376165Y-88095512D01*
X161376170Y-88095509D01*
X161381152Y-88093186D01*
X161393083Y-88084832D01*
X161556882Y-87970139D01*
X161556885Y-87970137D01*
X161561393Y-87966980D01*
X161716980Y-87811393D01*
X161843186Y-87631151D01*
X161845555Y-87626072D01*
X161933854Y-87436715D01*
X161933855Y-87436713D01*
X161936177Y-87431733D01*
X161993126Y-87219197D01*
X162012303Y-87000000D01*
X161993126Y-86780803D01*
X161936177Y-86568267D01*
X161933854Y-86563285D01*
X161845509Y-86373830D01*
X161845507Y-86373827D01*
X161843186Y-86368849D01*
X161716980Y-86188607D01*
X161561393Y-86033020D01*
X161556885Y-86029863D01*
X161556882Y-86029861D01*
X161385661Y-85909971D01*
X161385659Y-85909970D01*
X161381152Y-85906814D01*
X161376171Y-85904491D01*
X161376160Y-85904485D01*
X161363740Y-85898694D01*
X161310456Y-85851777D01*
X161290995Y-85783500D01*
X161311537Y-85715540D01*
X161365560Y-85669474D01*
X161416991Y-85658500D01*
X163971497Y-85658500D01*
X164039618Y-85678502D01*
X164060592Y-85695405D01*
X164954595Y-86589408D01*
X164988621Y-86651720D01*
X164991500Y-86678503D01*
X164991500Y-88496429D01*
X164988746Y-88522630D01*
X164988500Y-88523787D01*
X164986458Y-88530072D01*
X164985767Y-88536641D01*
X164985766Y-88536648D01*
X164984985Y-88544075D01*
X164981383Y-88563509D01*
X164979453Y-88570714D01*
X164977743Y-88577097D01*
X164977382Y-88583990D01*
X164977324Y-88584154D01*
X164976365Y-88590212D01*
X164975257Y-88590037D01*
X164953848Y-88650969D01*
X164942653Y-88664448D01*
X164872209Y-88738163D01*
X164826110Y-88786403D01*
X164820629Y-88792138D01*
X164817720Y-88796403D01*
X164817714Y-88796411D01*
X164759059Y-88882396D01*
X164694743Y-88976680D01*
X164647715Y-89077993D01*
X164603013Y-89174297D01*
X164600688Y-89179305D01*
X164540989Y-89394570D01*
X164517251Y-89616695D01*
X164517548Y-89621848D01*
X164517548Y-89621851D01*
X164525449Y-89758882D01*
X164530110Y-89839715D01*
X164531247Y-89844761D01*
X164531248Y-89844767D01*
X164550022Y-89928069D01*
X164579222Y-90057639D01*
X164630827Y-90184728D01*
X164657262Y-90249829D01*
X164663266Y-90264616D01*
X164700685Y-90325678D01*
X164777291Y-90450688D01*
X164779987Y-90455088D01*
X164926250Y-90623938D01*
X165098126Y-90766632D01*
X165291000Y-90879338D01*
X165499692Y-90959030D01*
X165504760Y-90960061D01*
X165504763Y-90960062D01*
X165570165Y-90973368D01*
X165718597Y-91003567D01*
X165723772Y-91003757D01*
X165723774Y-91003757D01*
X165936673Y-91011564D01*
X165936677Y-91011564D01*
X165941837Y-91011753D01*
X165946957Y-91011097D01*
X165946959Y-91011097D01*
X166158288Y-90984025D01*
X166158289Y-90984025D01*
X166163416Y-90983368D01*
X166194558Y-90974025D01*
X166372429Y-90920661D01*
X166372434Y-90920659D01*
X166377384Y-90919174D01*
X166577994Y-90820896D01*
X166759860Y-90691173D01*
X166918096Y-90533489D01*
X166922661Y-90527137D01*
X167048453Y-90352077D01*
X167049776Y-90353028D01*
X167096645Y-90309857D01*
X167166580Y-90297625D01*
X167232026Y-90325144D01*
X167259875Y-90356994D01*
X167319987Y-90455088D01*
X167466250Y-90623938D01*
X167638126Y-90766632D01*
X167831000Y-90879338D01*
X168039692Y-90959030D01*
X168044760Y-90960061D01*
X168044763Y-90960062D01*
X168110165Y-90973368D01*
X168258597Y-91003567D01*
X168263772Y-91003757D01*
X168263774Y-91003757D01*
X168476673Y-91011564D01*
X168476677Y-91011564D01*
X168481837Y-91011753D01*
X168486957Y-91011097D01*
X168486959Y-91011097D01*
X168698288Y-90984025D01*
X168698289Y-90984025D01*
X168703416Y-90983368D01*
X168734558Y-90974025D01*
X168912429Y-90920661D01*
X168912434Y-90920659D01*
X168917384Y-90919174D01*
X169117994Y-90820896D01*
X169299860Y-90691173D01*
X169458096Y-90533489D01*
X169462661Y-90527137D01*
X169588453Y-90352077D01*
X169589776Y-90353028D01*
X169636645Y-90309857D01*
X169706580Y-90297625D01*
X169772026Y-90325144D01*
X169799875Y-90356994D01*
X169859987Y-90455088D01*
X170006250Y-90623938D01*
X170178126Y-90766632D01*
X170371000Y-90879338D01*
X170579692Y-90959030D01*
X170584760Y-90960061D01*
X170584763Y-90960062D01*
X170650165Y-90973368D01*
X170798597Y-91003567D01*
X170803772Y-91003757D01*
X170803774Y-91003757D01*
X171016673Y-91011564D01*
X171016677Y-91011564D01*
X171021837Y-91011753D01*
X171026957Y-91011097D01*
X171026959Y-91011097D01*
X171238288Y-90984025D01*
X171238289Y-90984025D01*
X171243416Y-90983368D01*
X171274558Y-90974025D01*
X171452429Y-90920661D01*
X171452434Y-90920659D01*
X171457384Y-90919174D01*
X171657994Y-90820896D01*
X171839860Y-90691173D01*
X171998096Y-90533489D01*
X172002661Y-90527137D01*
X172128453Y-90352077D01*
X172129776Y-90353028D01*
X172176645Y-90309857D01*
X172246580Y-90297625D01*
X172312026Y-90325144D01*
X172339875Y-90356994D01*
X172399987Y-90455088D01*
X172546250Y-90623938D01*
X172718126Y-90766632D01*
X172911000Y-90879338D01*
X173119692Y-90959030D01*
X173124760Y-90960061D01*
X173124763Y-90960062D01*
X173190165Y-90973368D01*
X173338597Y-91003567D01*
X173343772Y-91003757D01*
X173343774Y-91003757D01*
X173556673Y-91011564D01*
X173556677Y-91011564D01*
X173561837Y-91011753D01*
X173566957Y-91011097D01*
X173566959Y-91011097D01*
X173778288Y-90984025D01*
X173778289Y-90984025D01*
X173783416Y-90983368D01*
X173814558Y-90974025D01*
X173992429Y-90920661D01*
X173992434Y-90920659D01*
X173997384Y-90919174D01*
X174197994Y-90820896D01*
X174379860Y-90691173D01*
X174488091Y-90583319D01*
X174550462Y-90549404D01*
X174621268Y-90554592D01*
X174678030Y-90597238D01*
X174695012Y-90628341D01*
X174713452Y-90677529D01*
X174739385Y-90746705D01*
X174826739Y-90863261D01*
X174943295Y-90950615D01*
X175079684Y-91001745D01*
X175141866Y-91008500D01*
X176938134Y-91008500D01*
X177000316Y-91001745D01*
X177136705Y-90950615D01*
X177253261Y-90863261D01*
X177340615Y-90746705D01*
X177391745Y-90610316D01*
X177398500Y-90548134D01*
X177398500Y-88751866D01*
X177391745Y-88689684D01*
X177340615Y-88553295D01*
X177253261Y-88436739D01*
X177136705Y-88349385D01*
X177108670Y-88338875D01*
X177007714Y-88301028D01*
X177007711Y-88301027D01*
X177003700Y-88299524D01*
X177003699Y-88299523D01*
X177000316Y-88298255D01*
X177000521Y-88297708D01*
X176943704Y-88265246D01*
X176910886Y-88202290D01*
X176908500Y-88177884D01*
X176908500Y-86206695D01*
X178387251Y-86206695D01*
X178387548Y-86211848D01*
X178387548Y-86211851D01*
X178396633Y-86369419D01*
X178400110Y-86429715D01*
X178401247Y-86434761D01*
X178401248Y-86434767D01*
X178421119Y-86522939D01*
X178449222Y-86647639D01*
X178487461Y-86741811D01*
X178531273Y-86849707D01*
X178533266Y-86854616D01*
X178547204Y-86877361D01*
X178644325Y-87035848D01*
X178649987Y-87045088D01*
X178796250Y-87213938D01*
X178968126Y-87356632D01*
X179161000Y-87469338D01*
X179165825Y-87471180D01*
X179165826Y-87471181D01*
X179211397Y-87488583D01*
X179369692Y-87549030D01*
X179374760Y-87550061D01*
X179374763Y-87550062D01*
X179451494Y-87565673D01*
X179588597Y-87593567D01*
X179593772Y-87593757D01*
X179593774Y-87593757D01*
X179806673Y-87601564D01*
X179806677Y-87601564D01*
X179811837Y-87601753D01*
X179816957Y-87601097D01*
X179816959Y-87601097D01*
X180028288Y-87574025D01*
X180028289Y-87574025D01*
X180033416Y-87573368D01*
X180059065Y-87565673D01*
X180242429Y-87510661D01*
X180242434Y-87510659D01*
X180247384Y-87509174D01*
X180447994Y-87410896D01*
X180629860Y-87281173D01*
X180788096Y-87123489D01*
X180802557Y-87103365D01*
X180915435Y-86946277D01*
X180918453Y-86942077D01*
X180950438Y-86877361D01*
X181015136Y-86746453D01*
X181015137Y-86746451D01*
X181017430Y-86741811D01*
X181053039Y-86624610D01*
X181080865Y-86533023D01*
X181080865Y-86533021D01*
X181082370Y-86528069D01*
X181111529Y-86306590D01*
X181112465Y-86268277D01*
X181113074Y-86243365D01*
X181113074Y-86243361D01*
X181113156Y-86240000D01*
X181094852Y-86017361D01*
X181040431Y-85800702D01*
X180951354Y-85595840D01*
X180902495Y-85520316D01*
X180832822Y-85412617D01*
X180832820Y-85412614D01*
X180830014Y-85408277D01*
X180679670Y-85243051D01*
X180675619Y-85239852D01*
X180675615Y-85239848D01*
X180508414Y-85107800D01*
X180508410Y-85107798D01*
X180504359Y-85104598D01*
X180463053Y-85081796D01*
X180413084Y-85031364D01*
X180398312Y-84961921D01*
X180423428Y-84895516D01*
X180450780Y-84868909D01*
X180507510Y-84828444D01*
X180629860Y-84741173D01*
X180668699Y-84702470D01*
X180737025Y-84634382D01*
X180788096Y-84583489D01*
X180802557Y-84563365D01*
X180915435Y-84406277D01*
X180918453Y-84402077D01*
X180930667Y-84377365D01*
X181015136Y-84206453D01*
X181015137Y-84206451D01*
X181017430Y-84201811D01*
X181082370Y-83988069D01*
X181111529Y-83766590D01*
X181111611Y-83763240D01*
X181113074Y-83703365D01*
X181113074Y-83703361D01*
X181113156Y-83700000D01*
X181094852Y-83477361D01*
X181040431Y-83260702D01*
X180951354Y-83055840D01*
X180901322Y-82978502D01*
X180832822Y-82872617D01*
X180832820Y-82872614D01*
X180830014Y-82868277D01*
X180679670Y-82703051D01*
X180675619Y-82699852D01*
X180675615Y-82699848D01*
X180508414Y-82567800D01*
X180508410Y-82567798D01*
X180504359Y-82564598D01*
X180463053Y-82541796D01*
X180413084Y-82491364D01*
X180398312Y-82421921D01*
X180423428Y-82355516D01*
X180450780Y-82328909D01*
X180514256Y-82283632D01*
X180629860Y-82201173D01*
X180788096Y-82043489D01*
X180847594Y-81960689D01*
X180915435Y-81866277D01*
X180918453Y-81862077D01*
X180929984Y-81838747D01*
X181015136Y-81666453D01*
X181015137Y-81666451D01*
X181017430Y-81661811D01*
X181078887Y-81459532D01*
X181080865Y-81453023D01*
X181080865Y-81453021D01*
X181082370Y-81448069D01*
X181111529Y-81226590D01*
X181111611Y-81223240D01*
X181113074Y-81163365D01*
X181113074Y-81163361D01*
X181113156Y-81160000D01*
X181094852Y-80937361D01*
X181040431Y-80720702D01*
X180951354Y-80515840D01*
X180875599Y-80398741D01*
X180832822Y-80332617D01*
X180832820Y-80332614D01*
X180830014Y-80328277D01*
X180679670Y-80163051D01*
X180675619Y-80159852D01*
X180675615Y-80159848D01*
X180508414Y-80027800D01*
X180508410Y-80027798D01*
X180504359Y-80024598D01*
X180463053Y-80001796D01*
X180413084Y-79951364D01*
X180398312Y-79881921D01*
X180423428Y-79815516D01*
X180450780Y-79788909D01*
X180502164Y-79752257D01*
X180629860Y-79661173D01*
X180788096Y-79503489D01*
X180808795Y-79474684D01*
X180915435Y-79326277D01*
X180918453Y-79322077D01*
X180923571Y-79311723D01*
X181015136Y-79126453D01*
X181015137Y-79126451D01*
X181017430Y-79121811D01*
X181058332Y-78987186D01*
X181080865Y-78913023D01*
X181080865Y-78913021D01*
X181082370Y-78908069D01*
X181111529Y-78686590D01*
X181111611Y-78683240D01*
X181113074Y-78623365D01*
X181113074Y-78623361D01*
X181113156Y-78620000D01*
X181094852Y-78397361D01*
X181040431Y-78180702D01*
X180951354Y-77975840D01*
X180904112Y-77902815D01*
X180832822Y-77792617D01*
X180832820Y-77792614D01*
X180830014Y-77788277D01*
X180826532Y-77784450D01*
X180682798Y-77626488D01*
X180651746Y-77562642D01*
X180660141Y-77492143D01*
X180705317Y-77437375D01*
X180731761Y-77423706D01*
X180838297Y-77383767D01*
X180846705Y-77380615D01*
X180963261Y-77293261D01*
X181050615Y-77176705D01*
X181101745Y-77040316D01*
X181108500Y-76978134D01*
X181108500Y-75181866D01*
X181101745Y-75119684D01*
X181050615Y-74983295D01*
X180963261Y-74866739D01*
X180846705Y-74779385D01*
X180710316Y-74728255D01*
X180648134Y-74721500D01*
X178851866Y-74721500D01*
X178789684Y-74728255D01*
X178653295Y-74779385D01*
X178536739Y-74866739D01*
X178449385Y-74983295D01*
X178398255Y-75119684D01*
X178391500Y-75181866D01*
X178391500Y-76978134D01*
X178398255Y-77040316D01*
X178449385Y-77176705D01*
X178536739Y-77293261D01*
X178653295Y-77380615D01*
X178661704Y-77383767D01*
X178661705Y-77383768D01*
X178770451Y-77424535D01*
X178827216Y-77467176D01*
X178851916Y-77533738D01*
X178836709Y-77603087D01*
X178817316Y-77629568D01*
X178708727Y-77743200D01*
X178690629Y-77762138D01*
X178687715Y-77766410D01*
X178687714Y-77766411D01*
X178633143Y-77846409D01*
X178564743Y-77946680D01*
X178522148Y-78038443D01*
X178473299Y-78143681D01*
X178470688Y-78149305D01*
X178410989Y-78364570D01*
X178410440Y-78369707D01*
X178392015Y-78542121D01*
X178387251Y-78586695D01*
X178387548Y-78591848D01*
X178387548Y-78591851D01*
X178393934Y-78702598D01*
X178400110Y-78809715D01*
X178401247Y-78814761D01*
X178401248Y-78814767D01*
X178418822Y-78892746D01*
X178449222Y-79027639D01*
X178499616Y-79151745D01*
X178526115Y-79217004D01*
X178533266Y-79234616D01*
X178649987Y-79425088D01*
X178796250Y-79593938D01*
X178905365Y-79684527D01*
X178960891Y-79730625D01*
X178968126Y-79736632D01*
X179011379Y-79761907D01*
X179041445Y-79779476D01*
X179090169Y-79831114D01*
X179103240Y-79900897D01*
X179076509Y-79966669D01*
X179036055Y-80000027D01*
X179023607Y-80006507D01*
X179019474Y-80009610D01*
X179019471Y-80009612D01*
X178849100Y-80137530D01*
X178844965Y-80140635D01*
X178690629Y-80302138D01*
X178687715Y-80306410D01*
X178687714Y-80306411D01*
X178624731Y-80398741D01*
X178564743Y-80486680D01*
X178536217Y-80548134D01*
X178477054Y-80675591D01*
X178470688Y-80689305D01*
X178410989Y-80904570D01*
X178387251Y-81126695D01*
X178387548Y-81131848D01*
X178387548Y-81131851D01*
X178396871Y-81293542D01*
X178400110Y-81349715D01*
X178401247Y-81354761D01*
X178401248Y-81354767D01*
X178415228Y-81416800D01*
X178449222Y-81567639D01*
X178487461Y-81661811D01*
X178527740Y-81761006D01*
X178533266Y-81774616D01*
X178535965Y-81779020D01*
X178639220Y-81947517D01*
X178649987Y-81965088D01*
X178796250Y-82133938D01*
X178968126Y-82276632D01*
X179009168Y-82300615D01*
X179041445Y-82319476D01*
X179090169Y-82371114D01*
X179103240Y-82440897D01*
X179076509Y-82506669D01*
X179036055Y-82540027D01*
X179023607Y-82546507D01*
X179019474Y-82549610D01*
X179019471Y-82549612D01*
X178849922Y-82676913D01*
X178844965Y-82680635D01*
X178841393Y-82684373D01*
X178718225Y-82813261D01*
X178690629Y-82842138D01*
X178687715Y-82846410D01*
X178687714Y-82846411D01*
X178635658Y-82922723D01*
X178564743Y-83026680D01*
X178538833Y-83082498D01*
X178481839Y-83205283D01*
X178470688Y-83229305D01*
X178410989Y-83444570D01*
X178387251Y-83666695D01*
X178387548Y-83671848D01*
X178387548Y-83671851D01*
X178398192Y-83856458D01*
X178400110Y-83889715D01*
X178401247Y-83894761D01*
X178401248Y-83894767D01*
X178414330Y-83952815D01*
X178449222Y-84107639D01*
X178533266Y-84314616D01*
X178547204Y-84337361D01*
X178646881Y-84500019D01*
X178649987Y-84505088D01*
X178796250Y-84673938D01*
X178968126Y-84816632D01*
X179011241Y-84841826D01*
X179041445Y-84859476D01*
X179090169Y-84911114D01*
X179103240Y-84980897D01*
X179076509Y-85046669D01*
X179036055Y-85080027D01*
X179023607Y-85086507D01*
X179019474Y-85089610D01*
X179019471Y-85089612D01*
X178878568Y-85195405D01*
X178844965Y-85220635D01*
X178826605Y-85239848D01*
X178699466Y-85372891D01*
X178690629Y-85382138D01*
X178564743Y-85566680D01*
X178537946Y-85624409D01*
X178475773Y-85758351D01*
X178470688Y-85769305D01*
X178410989Y-85984570D01*
X178387251Y-86206695D01*
X176908500Y-86206695D01*
X176908500Y-73531417D01*
X176910051Y-73511705D01*
X176911220Y-73504325D01*
X176912252Y-73497810D01*
X176911845Y-73490027D01*
X176908673Y-73429520D01*
X176908500Y-73422926D01*
X176908500Y-73402390D01*
X176908156Y-73399116D01*
X176906353Y-73381958D01*
X176905836Y-73375384D01*
X176902603Y-73313692D01*
X176902602Y-73313688D01*
X176902257Y-73307097D01*
X176900547Y-73300714D01*
X176898928Y-73294669D01*
X178442001Y-73294669D01*
X178442371Y-73301490D01*
X178447895Y-73352352D01*
X178451521Y-73367604D01*
X178496676Y-73488054D01*
X178505214Y-73503649D01*
X178581715Y-73605724D01*
X178594276Y-73618285D01*
X178696351Y-73694786D01*
X178711946Y-73703324D01*
X178832394Y-73748478D01*
X178847649Y-73752105D01*
X178898514Y-73757631D01*
X178905328Y-73758000D01*
X179281885Y-73758000D01*
X179297124Y-73753525D01*
X179298329Y-73752135D01*
X179300000Y-73744452D01*
X179300000Y-73739884D01*
X180300000Y-73739884D01*
X180304475Y-73755123D01*
X180305865Y-73756328D01*
X180313548Y-73757999D01*
X180694669Y-73757999D01*
X180701490Y-73757629D01*
X180752352Y-73752105D01*
X180767604Y-73748479D01*
X180888054Y-73703324D01*
X180903649Y-73694786D01*
X181005724Y-73618285D01*
X181018285Y-73605724D01*
X181094786Y-73503649D01*
X181103324Y-73488054D01*
X181148478Y-73367606D01*
X181152105Y-73352351D01*
X181157631Y-73301486D01*
X181158000Y-73294672D01*
X181158000Y-72918115D01*
X181153525Y-72902876D01*
X181152135Y-72901671D01*
X181144452Y-72900000D01*
X180318115Y-72900000D01*
X180302876Y-72904475D01*
X180301671Y-72905865D01*
X180300000Y-72913548D01*
X180300000Y-73739884D01*
X179300000Y-73739884D01*
X179300000Y-72918115D01*
X179295525Y-72902876D01*
X179294135Y-72901671D01*
X179286452Y-72900000D01*
X178460116Y-72900000D01*
X178444877Y-72904475D01*
X178443672Y-72905865D01*
X178442001Y-72913548D01*
X178442001Y-73294669D01*
X176898928Y-73294669D01*
X176898617Y-73293509D01*
X176895015Y-73274075D01*
X176894234Y-73266646D01*
X176894232Y-73266637D01*
X176893542Y-73260072D01*
X176872400Y-73195003D01*
X176870531Y-73188695D01*
X176854537Y-73129004D01*
X176854537Y-73129003D01*
X176852829Y-73122630D01*
X176846440Y-73110092D01*
X176838875Y-73091826D01*
X176836569Y-73084728D01*
X176836568Y-73084726D01*
X176834527Y-73078444D01*
X176800331Y-73019215D01*
X176797185Y-73013421D01*
X176785327Y-72990149D01*
X176766129Y-72952470D01*
X176757273Y-72941533D01*
X176746073Y-72925237D01*
X176742343Y-72918776D01*
X176742340Y-72918772D01*
X176739040Y-72913056D01*
X176734623Y-72908150D01*
X176734619Y-72908145D01*
X176693278Y-72862231D01*
X176688994Y-72857216D01*
X176678148Y-72843823D01*
X176676072Y-72841259D01*
X176661557Y-72826744D01*
X176657016Y-72821959D01*
X176647301Y-72811169D01*
X176611253Y-72771134D01*
X176599865Y-72762860D01*
X176584832Y-72750019D01*
X175299981Y-71465168D01*
X175287140Y-71450135D01*
X175282746Y-71444087D01*
X175282745Y-71444086D01*
X175278866Y-71438747D01*
X175228041Y-71392984D01*
X175223256Y-71388443D01*
X175208741Y-71373928D01*
X175201282Y-71367888D01*
X175192784Y-71361006D01*
X175187769Y-71356722D01*
X175141855Y-71315381D01*
X175141850Y-71315377D01*
X175136944Y-71310960D01*
X175131228Y-71307660D01*
X175131224Y-71307657D01*
X175124763Y-71303927D01*
X175108466Y-71292727D01*
X175102660Y-71288025D01*
X175102658Y-71288024D01*
X175097530Y-71283871D01*
X175036577Y-71252814D01*
X175030782Y-71249667D01*
X174977279Y-71218777D01*
X174977278Y-71218776D01*
X174971556Y-71215473D01*
X174965274Y-71213432D01*
X174965272Y-71213431D01*
X174958174Y-71211125D01*
X174939907Y-71203559D01*
X174927370Y-71197171D01*
X174861299Y-71179467D01*
X174854997Y-71177600D01*
X174789928Y-71156458D01*
X174783363Y-71155768D01*
X174783354Y-71155766D01*
X174775925Y-71154985D01*
X174756491Y-71151383D01*
X174749286Y-71149453D01*
X174749284Y-71149453D01*
X174742903Y-71147743D01*
X174736312Y-71147398D01*
X174736308Y-71147397D01*
X174674616Y-71144164D01*
X174668042Y-71143647D01*
X174650884Y-71141844D01*
X174650882Y-71141844D01*
X174647610Y-71141500D01*
X174627074Y-71141500D01*
X174620480Y-71141327D01*
X174558782Y-71138093D01*
X174558777Y-71138093D01*
X174552190Y-71137748D01*
X174538292Y-71139949D01*
X174518583Y-71141500D01*
X173194874Y-71141500D01*
X173126753Y-71121498D01*
X173119327Y-71116339D01*
X173096705Y-71099385D01*
X172960316Y-71048255D01*
X172898134Y-71041500D01*
X171401866Y-71041500D01*
X171339684Y-71048255D01*
X171328230Y-71052549D01*
X171324851Y-71052796D01*
X171324600Y-71052856D01*
X171324590Y-71052815D01*
X171257423Y-71057732D01*
X171195054Y-71023812D01*
X171160925Y-70961557D01*
X171158000Y-70934567D01*
X171157999Y-70555332D01*
X171157629Y-70548510D01*
X171152105Y-70497648D01*
X171148479Y-70482397D01*
X171128360Y-70428730D01*
X171123177Y-70357923D01*
X171157097Y-70295554D01*
X171219352Y-70261425D01*
X171246342Y-70258500D01*
X178410682Y-70258500D01*
X178478803Y-70278502D01*
X178527425Y-70337096D01*
X178533668Y-70352470D01*
X178583266Y-70474616D01*
X178588034Y-70482397D01*
X178693067Y-70653795D01*
X178699987Y-70665088D01*
X178846250Y-70833938D01*
X178850225Y-70837238D01*
X178850231Y-70837244D01*
X178855425Y-70841556D01*
X178895059Y-70900460D01*
X178896555Y-70971441D01*
X178859439Y-71031962D01*
X178819168Y-71056480D01*
X178711946Y-71096676D01*
X178696351Y-71105214D01*
X178594276Y-71181715D01*
X178581715Y-71194276D01*
X178505214Y-71296351D01*
X178496676Y-71311946D01*
X178451522Y-71432394D01*
X178447895Y-71447649D01*
X178442369Y-71498514D01*
X178442000Y-71505328D01*
X178442000Y-71881885D01*
X178446475Y-71897124D01*
X178447865Y-71898329D01*
X178455548Y-71900000D01*
X181139884Y-71900000D01*
X181155123Y-71895525D01*
X181156328Y-71894135D01*
X181157999Y-71886452D01*
X181157999Y-71505331D01*
X181157629Y-71498510D01*
X181152105Y-71447648D01*
X181148479Y-71432396D01*
X181103324Y-71311946D01*
X181094786Y-71296351D01*
X181018285Y-71194276D01*
X181005724Y-71181715D01*
X180903649Y-71105214D01*
X180888054Y-71096676D01*
X180777813Y-71055348D01*
X180721049Y-71012706D01*
X180696349Y-70946145D01*
X180711557Y-70876796D01*
X180733104Y-70848115D01*
X180834430Y-70747144D01*
X180834440Y-70747132D01*
X180838096Y-70743489D01*
X180897594Y-70660689D01*
X180965435Y-70566277D01*
X180968453Y-70562077D01*
X180990855Y-70516751D01*
X181065136Y-70366453D01*
X181065137Y-70366451D01*
X181067430Y-70361811D01*
X181132370Y-70148069D01*
X181161529Y-69926590D01*
X181162099Y-69903267D01*
X181163074Y-69863365D01*
X181163074Y-69863361D01*
X181163156Y-69860000D01*
X181144852Y-69637361D01*
X181090431Y-69420702D01*
X181001354Y-69215840D01*
X180922398Y-69093792D01*
X180882822Y-69032617D01*
X180882820Y-69032614D01*
X180880014Y-69028277D01*
X180729670Y-68863051D01*
X180725619Y-68859852D01*
X180725615Y-68859848D01*
X180558414Y-68727800D01*
X180558410Y-68727798D01*
X180554359Y-68724598D01*
X180513053Y-68701796D01*
X180463084Y-68651364D01*
X180448312Y-68581921D01*
X180473428Y-68515516D01*
X180500780Y-68488909D01*
X180590161Y-68425154D01*
X180679860Y-68361173D01*
X180689690Y-68351378D01*
X180834435Y-68207137D01*
X180838096Y-68203489D01*
X180968453Y-68022077D01*
X180992140Y-67974151D01*
X181065136Y-67826453D01*
X181065137Y-67826451D01*
X181067430Y-67821811D01*
X181132370Y-67608069D01*
X181161529Y-67386590D01*
X181163156Y-67320000D01*
X181144852Y-67097361D01*
X181090431Y-66880702D01*
X181001354Y-66675840D01*
X180924613Y-66557216D01*
X180882822Y-66492617D01*
X180882820Y-66492614D01*
X180880014Y-66488277D01*
X180729670Y-66323051D01*
X180725619Y-66319852D01*
X180725615Y-66319848D01*
X180558414Y-66187800D01*
X180558410Y-66187798D01*
X180554359Y-66184598D01*
X180513053Y-66161796D01*
X180463084Y-66111364D01*
X180448312Y-66041921D01*
X180473428Y-65975516D01*
X180500780Y-65948909D01*
X180574070Y-65896632D01*
X180679860Y-65821173D01*
X180689159Y-65811907D01*
X180834435Y-65667137D01*
X180838096Y-65663489D01*
X180888548Y-65593278D01*
X180965435Y-65486277D01*
X180968453Y-65482077D01*
X181009614Y-65398795D01*
X181065136Y-65286453D01*
X181065137Y-65286451D01*
X181067430Y-65281811D01*
X181132370Y-65068069D01*
X181161529Y-64846590D01*
X181163156Y-64780000D01*
X181144852Y-64557361D01*
X181090431Y-64340702D01*
X181001354Y-64135840D01*
X180901512Y-63981508D01*
X180882822Y-63952617D01*
X180882820Y-63952614D01*
X180880014Y-63948277D01*
X180729670Y-63783051D01*
X180725619Y-63779852D01*
X180725615Y-63779848D01*
X180641454Y-63713382D01*
X180600391Y-63655465D01*
X180597159Y-63584542D01*
X180632784Y-63523130D01*
X180695956Y-63490728D01*
X180719546Y-63488500D01*
X183235500Y-63488500D01*
X183303621Y-63508502D01*
X183350114Y-63562158D01*
X183361500Y-63614500D01*
X183361500Y-95115500D01*
X183341498Y-95183621D01*
X183287842Y-95230114D01*
X183235500Y-95241500D01*
X88934500Y-95241500D01*
X88866379Y-95221498D01*
X88819886Y-95167842D01*
X88808500Y-95115500D01*
X88808500Y-93044669D01*
X102442001Y-93044669D01*
X102442371Y-93051490D01*
X102447895Y-93102352D01*
X102451521Y-93117604D01*
X102496676Y-93238054D01*
X102505214Y-93253649D01*
X102581715Y-93355724D01*
X102594276Y-93368285D01*
X102696351Y-93444786D01*
X102711946Y-93453324D01*
X102832394Y-93498478D01*
X102847649Y-93502105D01*
X102898514Y-93507631D01*
X102905328Y-93508000D01*
X104431885Y-93508000D01*
X104447124Y-93503525D01*
X104448329Y-93502135D01*
X104450000Y-93494452D01*
X104450000Y-93489884D01*
X105450000Y-93489884D01*
X105454475Y-93505123D01*
X105455865Y-93506328D01*
X105463548Y-93507999D01*
X106994669Y-93507999D01*
X107001490Y-93507629D01*
X107052352Y-93502105D01*
X107067604Y-93498479D01*
X107188054Y-93453324D01*
X107203649Y-93444786D01*
X107305724Y-93368285D01*
X107318285Y-93355724D01*
X107394786Y-93253649D01*
X107403324Y-93238054D01*
X107448478Y-93117606D01*
X107452105Y-93102351D01*
X107457631Y-93051486D01*
X107457813Y-93048134D01*
X114341500Y-93048134D01*
X114348255Y-93110316D01*
X114399385Y-93246705D01*
X114486739Y-93363261D01*
X114603295Y-93450615D01*
X114739684Y-93501745D01*
X114801866Y-93508500D01*
X118898134Y-93508500D01*
X118960316Y-93501745D01*
X119096705Y-93450615D01*
X119213261Y-93363261D01*
X119300615Y-93246705D01*
X119351745Y-93110316D01*
X119358500Y-93048134D01*
X119358500Y-88951866D01*
X119351745Y-88889684D01*
X119300615Y-88753295D01*
X119213261Y-88636739D01*
X119096705Y-88549385D01*
X118960316Y-88498255D01*
X118898134Y-88491500D01*
X114801866Y-88491500D01*
X114739684Y-88498255D01*
X114603295Y-88549385D01*
X114486739Y-88636739D01*
X114399385Y-88753295D01*
X114348255Y-88889684D01*
X114341500Y-88951866D01*
X114341500Y-93048134D01*
X107457813Y-93048134D01*
X107458000Y-93044672D01*
X107458000Y-91518115D01*
X107453525Y-91502876D01*
X107452135Y-91501671D01*
X107444452Y-91500000D01*
X105468115Y-91500000D01*
X105452876Y-91504475D01*
X105451671Y-91505865D01*
X105450000Y-91513548D01*
X105450000Y-93489884D01*
X104450000Y-93489884D01*
X104450000Y-91518115D01*
X104445525Y-91502876D01*
X104444135Y-91501671D01*
X104436452Y-91500000D01*
X102460116Y-91500000D01*
X102444877Y-91504475D01*
X102443672Y-91505865D01*
X102442001Y-91513548D01*
X102442001Y-93044669D01*
X88808500Y-93044669D01*
X88808500Y-90481885D01*
X102442000Y-90481885D01*
X102446475Y-90497124D01*
X102447865Y-90498329D01*
X102455548Y-90500000D01*
X104431885Y-90500000D01*
X104447124Y-90495525D01*
X104448329Y-90494135D01*
X104450000Y-90486452D01*
X104450000Y-90481885D01*
X105450000Y-90481885D01*
X105454475Y-90497124D01*
X105455865Y-90498329D01*
X105463548Y-90500000D01*
X107439884Y-90500000D01*
X107455123Y-90495525D01*
X107456328Y-90494135D01*
X107457999Y-90486452D01*
X107457999Y-88955331D01*
X107457629Y-88948510D01*
X107452105Y-88897648D01*
X107448479Y-88882396D01*
X107403324Y-88761946D01*
X107394786Y-88746351D01*
X107318285Y-88644276D01*
X107305724Y-88631715D01*
X107203649Y-88555214D01*
X107188054Y-88546676D01*
X107067606Y-88501522D01*
X107052351Y-88497895D01*
X107001486Y-88492369D01*
X106994672Y-88492000D01*
X105468115Y-88492000D01*
X105452876Y-88496475D01*
X105451671Y-88497865D01*
X105450000Y-88505548D01*
X105450000Y-90481885D01*
X104450000Y-90481885D01*
X104450000Y-88510116D01*
X104445525Y-88494877D01*
X104444135Y-88493672D01*
X104436452Y-88492001D01*
X102905331Y-88492001D01*
X102898510Y-88492371D01*
X102847648Y-88497895D01*
X102832396Y-88501521D01*
X102711946Y-88546676D01*
X102696351Y-88555214D01*
X102594276Y-88631715D01*
X102581715Y-88644276D01*
X102505214Y-88746351D01*
X102496676Y-88761946D01*
X102451522Y-88882394D01*
X102447895Y-88897649D01*
X102442369Y-88948514D01*
X102442000Y-88955328D01*
X102442000Y-90481885D01*
X88808500Y-90481885D01*
X88808500Y-77194669D01*
X89642001Y-77194669D01*
X89642371Y-77201490D01*
X89647895Y-77252352D01*
X89651521Y-77267604D01*
X89696676Y-77388054D01*
X89705214Y-77403649D01*
X89781715Y-77505724D01*
X89794276Y-77518285D01*
X89896351Y-77594786D01*
X89911946Y-77603324D01*
X90032394Y-77648478D01*
X90047649Y-77652105D01*
X90098514Y-77657631D01*
X90105328Y-77658000D01*
X90831885Y-77658000D01*
X90847124Y-77653525D01*
X90848329Y-77652135D01*
X90850000Y-77644452D01*
X90850000Y-77639884D01*
X91850000Y-77639884D01*
X91854475Y-77655123D01*
X91855865Y-77656328D01*
X91863548Y-77657999D01*
X92594669Y-77657999D01*
X92601490Y-77657629D01*
X92652352Y-77652105D01*
X92667604Y-77648479D01*
X92788054Y-77603324D01*
X92803649Y-77594786D01*
X92889935Y-77530118D01*
X92956442Y-77505270D01*
X93025824Y-77520323D01*
X93076054Y-77570497D01*
X93091500Y-77630944D01*
X93091500Y-78698134D01*
X93098255Y-78760316D01*
X93149385Y-78896705D01*
X93236739Y-79013261D01*
X93353295Y-79100615D01*
X93489684Y-79151745D01*
X93551866Y-79158500D01*
X98848134Y-79158500D01*
X98910316Y-79151745D01*
X99046705Y-79100615D01*
X99163261Y-79013261D01*
X99250615Y-78896705D01*
X99301745Y-78760316D01*
X99308500Y-78698134D01*
X99308500Y-76201866D01*
X99302287Y-76144669D01*
X102442001Y-76144669D01*
X102442371Y-76151490D01*
X102447895Y-76202352D01*
X102451521Y-76217604D01*
X102496676Y-76338054D01*
X102505214Y-76353649D01*
X102581715Y-76455724D01*
X102594276Y-76468285D01*
X102696351Y-76544786D01*
X102711946Y-76553324D01*
X102832394Y-76598478D01*
X102847649Y-76602105D01*
X102898514Y-76607631D01*
X102905328Y-76608000D01*
X104431885Y-76608000D01*
X104447124Y-76603525D01*
X104448329Y-76602135D01*
X104450000Y-76594452D01*
X104450000Y-76589884D01*
X105450000Y-76589884D01*
X105454475Y-76605123D01*
X105455865Y-76606328D01*
X105463548Y-76607999D01*
X106994669Y-76607999D01*
X107001490Y-76607629D01*
X107052352Y-76602105D01*
X107067604Y-76598479D01*
X107188054Y-76553324D01*
X107203649Y-76544786D01*
X107305724Y-76468285D01*
X107318285Y-76455724D01*
X107394786Y-76353649D01*
X107403324Y-76338054D01*
X107448478Y-76217606D01*
X107452105Y-76202351D01*
X107457631Y-76151486D01*
X107457813Y-76148134D01*
X114341500Y-76148134D01*
X114348255Y-76210316D01*
X114399385Y-76346705D01*
X114486739Y-76463261D01*
X114603295Y-76550615D01*
X114739684Y-76601745D01*
X114801866Y-76608500D01*
X118898134Y-76608500D01*
X118960316Y-76601745D01*
X119096705Y-76550615D01*
X119213261Y-76463261D01*
X119300615Y-76346705D01*
X119351745Y-76210316D01*
X119358500Y-76148134D01*
X119358500Y-72051866D01*
X119351745Y-71989684D01*
X119300615Y-71853295D01*
X119213261Y-71736739D01*
X119096705Y-71649385D01*
X118960316Y-71598255D01*
X118898134Y-71591500D01*
X114801866Y-71591500D01*
X114739684Y-71598255D01*
X114603295Y-71649385D01*
X114486739Y-71736739D01*
X114399385Y-71853295D01*
X114348255Y-71989684D01*
X114341500Y-72051866D01*
X114341500Y-76148134D01*
X107457813Y-76148134D01*
X107458000Y-76144672D01*
X107458000Y-74618115D01*
X107453525Y-74602876D01*
X107452135Y-74601671D01*
X107444452Y-74600000D01*
X105468115Y-74600000D01*
X105452876Y-74604475D01*
X105451671Y-74605865D01*
X105450000Y-74613548D01*
X105450000Y-76589884D01*
X104450000Y-76589884D01*
X104450000Y-74618115D01*
X104445525Y-74602876D01*
X104444135Y-74601671D01*
X104436452Y-74600000D01*
X102460116Y-74600000D01*
X102444877Y-74604475D01*
X102443672Y-74605865D01*
X102442001Y-74613548D01*
X102442001Y-76144669D01*
X99302287Y-76144669D01*
X99301745Y-76139684D01*
X99250615Y-76003295D01*
X99163261Y-75886739D01*
X99046705Y-75799385D01*
X98910316Y-75748255D01*
X98848134Y-75741500D01*
X93551866Y-75741500D01*
X93489684Y-75748255D01*
X93353295Y-75799385D01*
X93267456Y-75863718D01*
X93259565Y-75869632D01*
X93193059Y-75894480D01*
X93123676Y-75879427D01*
X93073446Y-75829253D01*
X93058000Y-75768806D01*
X93058000Y-75068115D01*
X93053525Y-75052876D01*
X93052135Y-75051671D01*
X93044452Y-75050000D01*
X91868115Y-75050000D01*
X91852876Y-75054475D01*
X91851671Y-75055865D01*
X91850000Y-75063548D01*
X91850000Y-77639884D01*
X90850000Y-77639884D01*
X90850000Y-75068115D01*
X90845525Y-75052876D01*
X90844135Y-75051671D01*
X90836452Y-75050000D01*
X89660116Y-75050000D01*
X89644877Y-75054475D01*
X89643672Y-75055865D01*
X89642001Y-75063548D01*
X89642001Y-77194669D01*
X88808500Y-77194669D01*
X88808500Y-74031885D01*
X89642000Y-74031885D01*
X89646475Y-74047124D01*
X89647865Y-74048329D01*
X89655548Y-74050000D01*
X90831885Y-74050000D01*
X90847124Y-74045525D01*
X90848329Y-74044135D01*
X90850000Y-74036452D01*
X90850000Y-74031885D01*
X91850000Y-74031885D01*
X91854475Y-74047124D01*
X91855865Y-74048329D01*
X91863548Y-74050000D01*
X93039884Y-74050000D01*
X93055123Y-74045525D01*
X93056328Y-74044135D01*
X93057999Y-74036452D01*
X93057999Y-73581885D01*
X102442000Y-73581885D01*
X102446475Y-73597124D01*
X102447865Y-73598329D01*
X102455548Y-73600000D01*
X104431885Y-73600000D01*
X104447124Y-73595525D01*
X104448329Y-73594135D01*
X104450000Y-73586452D01*
X104450000Y-73581885D01*
X105450000Y-73581885D01*
X105454475Y-73597124D01*
X105455865Y-73598329D01*
X105463548Y-73600000D01*
X107439884Y-73600000D01*
X107455123Y-73595525D01*
X107456328Y-73594135D01*
X107457999Y-73586452D01*
X107457999Y-72055331D01*
X107457629Y-72048510D01*
X107452105Y-71997648D01*
X107448479Y-71982396D01*
X107403324Y-71861946D01*
X107394786Y-71846351D01*
X107318285Y-71744276D01*
X107305724Y-71731715D01*
X107203649Y-71655214D01*
X107188054Y-71646676D01*
X107067606Y-71601522D01*
X107052351Y-71597895D01*
X107001486Y-71592369D01*
X106994672Y-71592000D01*
X105468115Y-71592000D01*
X105452876Y-71596475D01*
X105451671Y-71597865D01*
X105450000Y-71605548D01*
X105450000Y-73581885D01*
X104450000Y-73581885D01*
X104450000Y-71610116D01*
X104445525Y-71594877D01*
X104444135Y-71593672D01*
X104436452Y-71592001D01*
X102905331Y-71592001D01*
X102898510Y-71592371D01*
X102847648Y-71597895D01*
X102832396Y-71601521D01*
X102711946Y-71646676D01*
X102696351Y-71655214D01*
X102594276Y-71731715D01*
X102581715Y-71744276D01*
X102505214Y-71846351D01*
X102496676Y-71861946D01*
X102451522Y-71982394D01*
X102447895Y-71997649D01*
X102442369Y-72048514D01*
X102442000Y-72055328D01*
X102442000Y-73581885D01*
X93057999Y-73581885D01*
X93057999Y-72818041D01*
X93078001Y-72749920D01*
X93131657Y-72703427D01*
X93201931Y-72693323D01*
X93259565Y-72717215D01*
X93296356Y-72744788D01*
X93311946Y-72753324D01*
X93432394Y-72798478D01*
X93447649Y-72802105D01*
X93498514Y-72807631D01*
X93505328Y-72808000D01*
X95631885Y-72808000D01*
X95647124Y-72803525D01*
X95648329Y-72802135D01*
X95650000Y-72794452D01*
X95650000Y-72789884D01*
X96650000Y-72789884D01*
X96654475Y-72805123D01*
X96655865Y-72806328D01*
X96663548Y-72807999D01*
X98794669Y-72807999D01*
X98801490Y-72807629D01*
X98852352Y-72802105D01*
X98867604Y-72798479D01*
X98988054Y-72753324D01*
X99003649Y-72744786D01*
X99105724Y-72668285D01*
X99118285Y-72655724D01*
X99194786Y-72553649D01*
X99203324Y-72538054D01*
X99248478Y-72417606D01*
X99252105Y-72402351D01*
X99257631Y-72351486D01*
X99258000Y-72344672D01*
X99258000Y-71618115D01*
X99253525Y-71602876D01*
X99252135Y-71601671D01*
X99244452Y-71600000D01*
X96668115Y-71600000D01*
X96652876Y-71604475D01*
X96651671Y-71605865D01*
X96650000Y-71613548D01*
X96650000Y-72789884D01*
X95650000Y-72789884D01*
X95650000Y-71618115D01*
X95645525Y-71602876D01*
X95644135Y-71601671D01*
X95636452Y-71600000D01*
X93060118Y-71600000D01*
X93026634Y-71609832D01*
X92955638Y-71609832D01*
X92914263Y-71585283D01*
X92912904Y-71587096D01*
X92803649Y-71505214D01*
X92788054Y-71496676D01*
X92667606Y-71451522D01*
X92652351Y-71447895D01*
X92601486Y-71442369D01*
X92594672Y-71442000D01*
X91868115Y-71442000D01*
X91852876Y-71446475D01*
X91851671Y-71447865D01*
X91850000Y-71455548D01*
X91850000Y-74031885D01*
X90850000Y-74031885D01*
X90850000Y-71460116D01*
X90845525Y-71444877D01*
X90844135Y-71443672D01*
X90836452Y-71442001D01*
X90105331Y-71442001D01*
X90098510Y-71442371D01*
X90047648Y-71447895D01*
X90032396Y-71451521D01*
X89911946Y-71496676D01*
X89896351Y-71505214D01*
X89794276Y-71581715D01*
X89781715Y-71594276D01*
X89705214Y-71696351D01*
X89696676Y-71711946D01*
X89651522Y-71832394D01*
X89647895Y-71847649D01*
X89642369Y-71898514D01*
X89642000Y-71905328D01*
X89642000Y-74031885D01*
X88808500Y-74031885D01*
X88808500Y-70581885D01*
X93042000Y-70581885D01*
X93046475Y-70597124D01*
X93047865Y-70598329D01*
X93055548Y-70600000D01*
X95631885Y-70600000D01*
X95647124Y-70595525D01*
X95648329Y-70594135D01*
X95650000Y-70586452D01*
X95650000Y-70581885D01*
X96650000Y-70581885D01*
X96654475Y-70597124D01*
X96655865Y-70598329D01*
X96663548Y-70600000D01*
X99239884Y-70600000D01*
X99255123Y-70595525D01*
X99256328Y-70594135D01*
X99257999Y-70586452D01*
X99257999Y-69855331D01*
X99257629Y-69848510D01*
X99252105Y-69797648D01*
X99248479Y-69782396D01*
X99203324Y-69661946D01*
X99194786Y-69646351D01*
X99118285Y-69544276D01*
X99105724Y-69531715D01*
X99003649Y-69455214D01*
X98988054Y-69446676D01*
X98867606Y-69401522D01*
X98852351Y-69397895D01*
X98801486Y-69392369D01*
X98794672Y-69392000D01*
X96668115Y-69392000D01*
X96652876Y-69396475D01*
X96651671Y-69397865D01*
X96650000Y-69405548D01*
X96650000Y-70581885D01*
X95650000Y-70581885D01*
X95650000Y-69410116D01*
X95645525Y-69394877D01*
X95644135Y-69393672D01*
X95636452Y-69392001D01*
X93505331Y-69392001D01*
X93498510Y-69392371D01*
X93447648Y-69397895D01*
X93432396Y-69401521D01*
X93311946Y-69446676D01*
X93296351Y-69455214D01*
X93194276Y-69531715D01*
X93181715Y-69544276D01*
X93105214Y-69646351D01*
X93096676Y-69661946D01*
X93051522Y-69782394D01*
X93047895Y-69797649D01*
X93042369Y-69848514D01*
X93042000Y-69855328D01*
X93042000Y-70581885D01*
X88808500Y-70581885D01*
X88808500Y-69165914D01*
X136842193Y-69165914D01*
X136844000Y-69171893D01*
X137287188Y-69615081D01*
X137301132Y-69622695D01*
X137302965Y-69622564D01*
X137309580Y-69618313D01*
X137750829Y-69177064D01*
X137757589Y-69164684D01*
X137753847Y-69159685D01*
X137736546Y-69151618D01*
X137726250Y-69147871D01*
X137524425Y-69093792D01*
X137513630Y-69091889D01*
X137305475Y-69073677D01*
X137294525Y-69073677D01*
X137086370Y-69091889D01*
X137075575Y-69093792D01*
X136873750Y-69147871D01*
X136863454Y-69151618D01*
X136852775Y-69156598D01*
X136842193Y-69165914D01*
X88808500Y-69165914D01*
X88808500Y-65005316D01*
X136842411Y-65005316D01*
X136846153Y-65010315D01*
X136863454Y-65018382D01*
X136873750Y-65022129D01*
X137075575Y-65076208D01*
X137086370Y-65078111D01*
X137294525Y-65096323D01*
X137305475Y-65096323D01*
X137513630Y-65078111D01*
X137524425Y-65076208D01*
X137726250Y-65022129D01*
X137736546Y-65018382D01*
X137747225Y-65013402D01*
X137757807Y-65004086D01*
X137756000Y-64998107D01*
X137312812Y-64554919D01*
X137298868Y-64547305D01*
X137297035Y-64547436D01*
X137290420Y-64551687D01*
X136849171Y-64992936D01*
X136842411Y-65005316D01*
X88808500Y-65005316D01*
X88808500Y-63614500D01*
X88828502Y-63546379D01*
X88882158Y-63499886D01*
X88934500Y-63488500D01*
X135931008Y-63488500D01*
X135999129Y-63508502D01*
G37*
G04 #@! TD.AperFunction*
G04 #@! TA.AperFunction,Conductor*
G36*
X129131415Y-84025133D02*
G01*
X129163682Y-84048495D01*
X130200508Y-85085321D01*
X130213349Y-85100354D01*
X130216433Y-85104598D01*
X130221623Y-85111742D01*
X130226532Y-85116162D01*
X130272448Y-85157505D01*
X130277233Y-85162046D01*
X130291748Y-85176561D01*
X130294312Y-85178637D01*
X130307705Y-85189483D01*
X130312720Y-85193767D01*
X130358634Y-85235108D01*
X130358639Y-85235112D01*
X130363545Y-85239529D01*
X130369261Y-85242829D01*
X130369265Y-85242832D01*
X130375726Y-85246562D01*
X130392022Y-85257762D01*
X130402959Y-85266618D01*
X130463910Y-85297674D01*
X130469704Y-85300820D01*
X130528933Y-85335016D01*
X130535215Y-85337057D01*
X130535217Y-85337058D01*
X130542315Y-85339364D01*
X130560581Y-85346929D01*
X130573119Y-85353318D01*
X130579495Y-85355027D01*
X130579499Y-85355028D01*
X130639174Y-85371018D01*
X130645499Y-85372891D01*
X130710561Y-85394031D01*
X130717129Y-85394721D01*
X130717133Y-85394722D01*
X130724550Y-85395501D01*
X130743997Y-85399105D01*
X130757585Y-85402746D01*
X130764184Y-85403092D01*
X130764185Y-85403092D01*
X130825874Y-85406325D01*
X130832449Y-85406842D01*
X130846105Y-85408277D01*
X130852879Y-85408989D01*
X130873414Y-85408989D01*
X130880008Y-85409162D01*
X130941706Y-85412396D01*
X130941711Y-85412396D01*
X130948298Y-85412741D01*
X130962196Y-85410540D01*
X130981905Y-85408989D01*
X136068762Y-85408989D01*
X136136883Y-85428991D01*
X136183376Y-85482647D01*
X136194025Y-85521380D01*
X136198255Y-85560316D01*
X136249385Y-85696705D01*
X136318804Y-85789330D01*
X136322396Y-85794123D01*
X136347244Y-85860629D01*
X136332191Y-85930012D01*
X136282017Y-85980242D01*
X136247772Y-85992933D01*
X136214136Y-86000082D01*
X136201128Y-86002143D01*
X136180690Y-86004291D01*
X136166635Y-86005768D01*
X136166633Y-86005768D01*
X136160072Y-86006458D01*
X136153798Y-86008497D01*
X136153791Y-86008498D01*
X136120817Y-86019212D01*
X136108080Y-86022625D01*
X136074169Y-86029833D01*
X136074165Y-86029834D01*
X136067712Y-86031206D01*
X136029994Y-86047999D01*
X136017698Y-86052718D01*
X135978444Y-86065473D01*
X135947936Y-86083087D01*
X135942710Y-86086104D01*
X135930959Y-86092092D01*
X135906345Y-86103051D01*
X135893248Y-86108882D01*
X135887909Y-86112761D01*
X135887904Y-86112764D01*
X135859851Y-86133146D01*
X135848798Y-86140325D01*
X135813056Y-86160960D01*
X135808147Y-86165380D01*
X135808143Y-86165383D01*
X135782386Y-86188575D01*
X135772143Y-86196871D01*
X135738747Y-86221134D01*
X135734333Y-86226036D01*
X135734331Y-86226038D01*
X135711129Y-86251806D01*
X135701806Y-86261129D01*
X135687173Y-86274305D01*
X135671134Y-86288747D01*
X135646871Y-86322143D01*
X135638575Y-86332386D01*
X135615383Y-86358143D01*
X135615380Y-86358147D01*
X135610960Y-86363056D01*
X135590325Y-86398798D01*
X135583146Y-86409851D01*
X135562764Y-86437904D01*
X135562761Y-86437909D01*
X135558882Y-86443248D01*
X135556199Y-86449275D01*
X135556198Y-86449276D01*
X135542092Y-86480959D01*
X135536105Y-86492708D01*
X135515473Y-86528444D01*
X135513432Y-86534727D01*
X135513431Y-86534728D01*
X135502719Y-86567696D01*
X135497999Y-86579994D01*
X135481206Y-86617712D01*
X135479834Y-86624165D01*
X135479833Y-86624169D01*
X135472625Y-86658080D01*
X135469212Y-86670817D01*
X135458498Y-86703791D01*
X135458497Y-86703798D01*
X135456458Y-86710072D01*
X135452635Y-86746453D01*
X135452144Y-86751122D01*
X135450082Y-86764136D01*
X135441500Y-86804513D01*
X135441500Y-86845784D01*
X135440810Y-86858955D01*
X135436496Y-86900000D01*
X135437186Y-86906565D01*
X135440810Y-86941045D01*
X135441500Y-86954216D01*
X135441500Y-86995487D01*
X135450082Y-87035864D01*
X135452143Y-87048872D01*
X135456458Y-87089928D01*
X135458497Y-87096202D01*
X135458498Y-87096209D01*
X135469212Y-87129183D01*
X135472625Y-87141920D01*
X135481206Y-87182288D01*
X135497999Y-87220006D01*
X135502718Y-87232302D01*
X135515473Y-87271556D01*
X135518776Y-87277277D01*
X135536104Y-87307290D01*
X135542091Y-87319039D01*
X135557502Y-87353652D01*
X135558882Y-87356752D01*
X135558315Y-87357004D01*
X135573963Y-87421490D01*
X135550745Y-87488583D01*
X135494940Y-87532472D01*
X135448105Y-87541500D01*
X134610567Y-87541500D01*
X134590858Y-87539949D01*
X134576960Y-87537748D01*
X134570373Y-87538093D01*
X134570368Y-87538093D01*
X134508670Y-87541327D01*
X134502076Y-87541500D01*
X134481540Y-87541500D01*
X134478268Y-87541844D01*
X134478266Y-87541844D01*
X134461108Y-87543647D01*
X134454534Y-87544164D01*
X134392846Y-87547397D01*
X134392844Y-87547397D01*
X134386247Y-87547743D01*
X134372654Y-87551385D01*
X134353225Y-87554986D01*
X134339222Y-87556458D01*
X134274175Y-87577593D01*
X134267862Y-87579463D01*
X134247224Y-87584993D01*
X134208153Y-87595462D01*
X134208150Y-87595463D01*
X134201780Y-87597170D01*
X134189235Y-87603562D01*
X134170976Y-87611125D01*
X134157594Y-87615473D01*
X134151873Y-87618776D01*
X134098373Y-87649664D01*
X134092576Y-87652812D01*
X134037501Y-87680874D01*
X134037498Y-87680876D01*
X134031620Y-87683871D01*
X134026492Y-87688024D01*
X134026490Y-87688025D01*
X134020684Y-87692727D01*
X134004387Y-87703927D01*
X133997926Y-87707657D01*
X133997922Y-87707660D01*
X133992206Y-87710960D01*
X133987300Y-87715377D01*
X133987295Y-87715381D01*
X133941381Y-87756722D01*
X133936366Y-87761006D01*
X133927868Y-87767888D01*
X133920409Y-87773928D01*
X133905894Y-87788443D01*
X133901109Y-87792984D01*
X133850284Y-87838747D01*
X133846405Y-87844086D01*
X133846404Y-87844087D01*
X133842010Y-87850135D01*
X133829169Y-87865168D01*
X130439742Y-91254595D01*
X130377430Y-91288621D01*
X130350647Y-91291500D01*
X128804513Y-91291500D01*
X128764136Y-91300082D01*
X128751128Y-91302143D01*
X128730690Y-91304291D01*
X128716635Y-91305768D01*
X128716633Y-91305768D01*
X128710072Y-91306458D01*
X128703798Y-91308497D01*
X128703791Y-91308498D01*
X128670817Y-91319212D01*
X128658080Y-91322625D01*
X128624169Y-91329833D01*
X128624165Y-91329834D01*
X128617712Y-91331206D01*
X128579994Y-91347999D01*
X128567698Y-91352718D01*
X128528444Y-91365473D01*
X128522723Y-91368776D01*
X128492710Y-91386104D01*
X128480961Y-91392091D01*
X128443248Y-91408882D01*
X128437909Y-91412761D01*
X128437904Y-91412764D01*
X128409851Y-91433146D01*
X128398798Y-91440325D01*
X128363056Y-91460960D01*
X128358147Y-91465380D01*
X128358143Y-91465383D01*
X128332386Y-91488575D01*
X128322143Y-91496871D01*
X128288747Y-91521134D01*
X128284333Y-91526036D01*
X128284331Y-91526038D01*
X128261129Y-91551806D01*
X128251806Y-91561129D01*
X128221134Y-91588747D01*
X128196871Y-91622143D01*
X128188575Y-91632386D01*
X128165383Y-91658143D01*
X128165380Y-91658147D01*
X128160960Y-91663056D01*
X128140325Y-91698798D01*
X128133146Y-91709851D01*
X128112764Y-91737904D01*
X128112761Y-91737909D01*
X128108882Y-91743248D01*
X128106199Y-91749275D01*
X128106198Y-91749276D01*
X128092092Y-91780959D01*
X128086105Y-91792708D01*
X128065473Y-91828444D01*
X128063432Y-91834727D01*
X128063431Y-91834728D01*
X128052719Y-91867696D01*
X128047999Y-91879994D01*
X128031206Y-91917712D01*
X128029834Y-91924165D01*
X128029833Y-91924169D01*
X128022625Y-91958080D01*
X128019212Y-91970817D01*
X128008498Y-92003791D01*
X128008497Y-92003798D01*
X128006458Y-92010072D01*
X128005768Y-92016633D01*
X128005768Y-92016635D01*
X128002144Y-92051122D01*
X128000082Y-92064136D01*
X127991500Y-92104513D01*
X127991500Y-92145784D01*
X127990810Y-92158955D01*
X127986496Y-92200000D01*
X127987186Y-92206565D01*
X127987186Y-92213171D01*
X127984756Y-92213171D01*
X127973974Y-92272158D01*
X127925477Y-92324009D01*
X127861431Y-92341500D01*
X126328503Y-92341500D01*
X126260382Y-92321498D01*
X126239408Y-92304595D01*
X125945405Y-92010592D01*
X125911379Y-91948280D01*
X125908500Y-91921497D01*
X125908500Y-90804101D01*
X125928502Y-90735980D01*
X125961331Y-90701523D01*
X125985654Y-90684174D01*
X125985661Y-90684168D01*
X125989860Y-90681173D01*
X126148096Y-90523489D01*
X126162335Y-90503674D01*
X126278453Y-90342077D01*
X126279776Y-90343028D01*
X126326645Y-90299857D01*
X126396580Y-90287625D01*
X126462026Y-90315144D01*
X126489875Y-90346994D01*
X126549987Y-90445088D01*
X126696250Y-90613938D01*
X126868126Y-90756632D01*
X127061000Y-90869338D01*
X127065825Y-90871180D01*
X127065826Y-90871181D01*
X127094954Y-90882304D01*
X127269692Y-90949030D01*
X127274760Y-90950061D01*
X127274763Y-90950062D01*
X127338420Y-90963013D01*
X127488597Y-90993567D01*
X127493772Y-90993757D01*
X127493774Y-90993757D01*
X127706673Y-91001564D01*
X127706677Y-91001564D01*
X127711837Y-91001753D01*
X127716957Y-91001097D01*
X127716959Y-91001097D01*
X127928288Y-90974025D01*
X127928289Y-90974025D01*
X127933416Y-90973368D01*
X127981207Y-90959030D01*
X128142429Y-90910661D01*
X128142434Y-90910659D01*
X128147384Y-90909174D01*
X128347994Y-90810896D01*
X128529860Y-90681173D01*
X128688096Y-90523489D01*
X128702335Y-90503674D01*
X128815435Y-90346277D01*
X128818453Y-90342077D01*
X128828575Y-90321598D01*
X128915136Y-90146453D01*
X128915137Y-90146451D01*
X128917430Y-90141811D01*
X128979126Y-89938747D01*
X128980865Y-89933023D01*
X128980865Y-89933021D01*
X128982370Y-89928069D01*
X129011529Y-89706590D01*
X129011624Y-89702719D01*
X129013074Y-89643365D01*
X129013074Y-89643361D01*
X129013156Y-89640000D01*
X128994852Y-89417361D01*
X128940431Y-89200702D01*
X128851354Y-88995840D01*
X128777964Y-88882396D01*
X128732822Y-88812617D01*
X128732820Y-88812614D01*
X128730014Y-88808277D01*
X128579670Y-88643051D01*
X128575619Y-88639852D01*
X128575615Y-88639848D01*
X128408414Y-88507800D01*
X128408410Y-88507798D01*
X128404359Y-88504598D01*
X128363053Y-88481796D01*
X128313084Y-88431364D01*
X128298312Y-88361921D01*
X128323428Y-88295516D01*
X128350780Y-88268909D01*
X128398853Y-88234619D01*
X128529860Y-88141173D01*
X128553474Y-88117642D01*
X128675837Y-87995705D01*
X128688096Y-87983489D01*
X128747594Y-87900689D01*
X128815435Y-87806277D01*
X128818453Y-87802077D01*
X128821239Y-87796441D01*
X128915136Y-87606453D01*
X128915137Y-87606451D01*
X128917430Y-87601811D01*
X128982370Y-87388069D01*
X129011529Y-87166590D01*
X129013156Y-87100000D01*
X128994852Y-86877361D01*
X128940431Y-86660702D01*
X128851354Y-86455840D01*
X128771488Y-86332386D01*
X128732822Y-86272617D01*
X128732820Y-86272614D01*
X128730014Y-86268277D01*
X128579670Y-86103051D01*
X128575619Y-86099852D01*
X128575615Y-86099848D01*
X128408414Y-85967800D01*
X128408410Y-85967798D01*
X128404359Y-85964598D01*
X128363053Y-85941796D01*
X128313084Y-85891364D01*
X128298312Y-85821921D01*
X128323428Y-85755516D01*
X128350780Y-85728909D01*
X128410783Y-85686109D01*
X128529860Y-85601173D01*
X128688096Y-85443489D01*
X128710439Y-85412396D01*
X128815435Y-85266277D01*
X128818453Y-85262077D01*
X128822285Y-85254325D01*
X128915136Y-85066453D01*
X128915137Y-85066451D01*
X128917430Y-85061811D01*
X128967792Y-84896050D01*
X128980865Y-84853023D01*
X128980865Y-84853021D01*
X128982370Y-84848069D01*
X129011529Y-84626590D01*
X129011940Y-84609779D01*
X129013074Y-84563365D01*
X129013074Y-84563361D01*
X129013156Y-84560000D01*
X128994852Y-84337361D01*
X128952383Y-84168285D01*
X128955187Y-84097344D01*
X128995900Y-84039181D01*
X129061595Y-84012262D01*
X129131415Y-84025133D01*
G37*
G04 #@! TD.AperFunction*
G04 #@! TA.AperFunction,Conductor*
G36*
X136523247Y-89378502D02*
G01*
X136530673Y-89383661D01*
X136553295Y-89400615D01*
X136561696Y-89403764D01*
X136563918Y-89404981D01*
X136614064Y-89455240D01*
X136629077Y-89524631D01*
X136604191Y-89591123D01*
X136547307Y-89633605D01*
X136503408Y-89641500D01*
X136404513Y-89641500D01*
X136364136Y-89650082D01*
X136351128Y-89652143D01*
X136330690Y-89654291D01*
X136316635Y-89655768D01*
X136316633Y-89655768D01*
X136310072Y-89656458D01*
X136303798Y-89658497D01*
X136303791Y-89658498D01*
X136270817Y-89669212D01*
X136258080Y-89672625D01*
X136224169Y-89679833D01*
X136224165Y-89679834D01*
X136217712Y-89681206D01*
X136179994Y-89697999D01*
X136167698Y-89702718D01*
X136128444Y-89715473D01*
X136122723Y-89718776D01*
X136092710Y-89736104D01*
X136080961Y-89742091D01*
X136043248Y-89758882D01*
X136037909Y-89762761D01*
X136037904Y-89762764D01*
X136009851Y-89783146D01*
X135998798Y-89790325D01*
X135963056Y-89810960D01*
X135958147Y-89815380D01*
X135958143Y-89815383D01*
X135932386Y-89838575D01*
X135922143Y-89846871D01*
X135888747Y-89871134D01*
X135884333Y-89876036D01*
X135884331Y-89876038D01*
X135861129Y-89901806D01*
X135851806Y-89911129D01*
X135821134Y-89938747D01*
X135796871Y-89972143D01*
X135788575Y-89982386D01*
X135765383Y-90008143D01*
X135765380Y-90008147D01*
X135760960Y-90013056D01*
X135740325Y-90048798D01*
X135733146Y-90059851D01*
X135712764Y-90087904D01*
X135712761Y-90087909D01*
X135708882Y-90093248D01*
X135706199Y-90099275D01*
X135706198Y-90099276D01*
X135692092Y-90130959D01*
X135686105Y-90142708D01*
X135665473Y-90178444D01*
X135663432Y-90184727D01*
X135663431Y-90184728D01*
X135652719Y-90217696D01*
X135647999Y-90229994D01*
X135631206Y-90267712D01*
X135629834Y-90274165D01*
X135629833Y-90274169D01*
X135622625Y-90308080D01*
X135619212Y-90320817D01*
X135608498Y-90353791D01*
X135608497Y-90353798D01*
X135606458Y-90360072D01*
X135605768Y-90366633D01*
X135605768Y-90366635D01*
X135602144Y-90401122D01*
X135600082Y-90414136D01*
X135591500Y-90454513D01*
X135591500Y-90495784D01*
X135590810Y-90508955D01*
X135586496Y-90550000D01*
X135587186Y-90556565D01*
X135590810Y-90591045D01*
X135591500Y-90604216D01*
X135591500Y-90645487D01*
X135600082Y-90685864D01*
X135602143Y-90698872D01*
X135606458Y-90739928D01*
X135608497Y-90746202D01*
X135608498Y-90746209D01*
X135619212Y-90779183D01*
X135622625Y-90791920D01*
X135627143Y-90813173D01*
X135631206Y-90832288D01*
X135647999Y-90870006D01*
X135652719Y-90882304D01*
X135665473Y-90921557D01*
X135664020Y-90922029D01*
X135672409Y-90984624D01*
X135642300Y-91048919D01*
X135582210Y-91086730D01*
X135547869Y-91091500D01*
X133476653Y-91091500D01*
X133408532Y-91071498D01*
X133362039Y-91017842D01*
X133351935Y-90947568D01*
X133381429Y-90882988D01*
X133387558Y-90876405D01*
X134868558Y-89395405D01*
X134930870Y-89361379D01*
X134957653Y-89358500D01*
X136455126Y-89358500D01*
X136523247Y-89378502D01*
G37*
G04 #@! TD.AperFunction*
G04 #@! TA.AperFunction,Conductor*
G36*
X171766511Y-81001778D02*
G01*
X171773094Y-81007907D01*
X172354595Y-81589408D01*
X172388621Y-81651720D01*
X172391500Y-81678503D01*
X172391500Y-81971497D01*
X172371498Y-82039618D01*
X172354595Y-82060592D01*
X171767235Y-82647952D01*
X171704923Y-82681978D01*
X171634108Y-82676913D01*
X171577272Y-82634366D01*
X171552461Y-82567846D01*
X171552877Y-82545250D01*
X171557631Y-82501488D01*
X171558000Y-82494672D01*
X171558000Y-82268115D01*
X171553525Y-82252876D01*
X171552135Y-82251671D01*
X171544452Y-82250000D01*
X170176000Y-82250000D01*
X170107879Y-82229998D01*
X170061386Y-82176342D01*
X170050000Y-82124000D01*
X170050000Y-81376000D01*
X170070002Y-81307879D01*
X170123658Y-81261386D01*
X170176000Y-81250000D01*
X171539884Y-81250000D01*
X171555123Y-81245525D01*
X171556328Y-81244135D01*
X171557999Y-81236452D01*
X171557999Y-81097002D01*
X171578001Y-81028881D01*
X171631657Y-80982388D01*
X171701931Y-80972284D01*
X171766511Y-81001778D01*
G37*
G04 #@! TD.AperFunction*
G04 #@! TA.AperFunction,Conductor*
G36*
X171328725Y-76547637D02*
G01*
X171332284Y-76548971D01*
X171339684Y-76551745D01*
X171401866Y-76558500D01*
X172898134Y-76558500D01*
X172960316Y-76551745D01*
X172967715Y-76548971D01*
X172975400Y-76547144D01*
X172976106Y-76550114D01*
X173032695Y-76545965D01*
X173095225Y-76580038D01*
X173454595Y-76939408D01*
X173488621Y-77001720D01*
X173491500Y-77028503D01*
X173491500Y-78179774D01*
X173471498Y-78247895D01*
X173417842Y-78294388D01*
X173347568Y-78304492D01*
X173282988Y-78274998D01*
X173264674Y-78255339D01*
X173218643Y-78193920D01*
X173218642Y-78193919D01*
X173213261Y-78186739D01*
X173096705Y-78099385D01*
X172960316Y-78048255D01*
X172898134Y-78041500D01*
X171401866Y-78041500D01*
X171339684Y-78048255D01*
X171328230Y-78052549D01*
X171324851Y-78052796D01*
X171324600Y-78052856D01*
X171324590Y-78052815D01*
X171257423Y-78057732D01*
X171195054Y-78023812D01*
X171160925Y-77961557D01*
X171158000Y-77934567D01*
X171157999Y-77555332D01*
X171157629Y-77548510D01*
X171152105Y-77497648D01*
X171148479Y-77482396D01*
X171103321Y-77361939D01*
X171102826Y-77361034D01*
X171102607Y-77360034D01*
X171100172Y-77353538D01*
X171101110Y-77353186D01*
X171087657Y-77291677D01*
X171100838Y-77246788D01*
X171100615Y-77246705D01*
X171101756Y-77243663D01*
X171101758Y-77243656D01*
X171117566Y-77201490D01*
X171148971Y-77117715D01*
X171151745Y-77110316D01*
X171158500Y-77048134D01*
X171158500Y-76665621D01*
X171178502Y-76597500D01*
X171232158Y-76551007D01*
X171302432Y-76540903D01*
X171328725Y-76547637D01*
G37*
G04 #@! TD.AperFunction*
G04 #@! TA.AperFunction,Conductor*
G36*
X129589618Y-71378502D02*
G01*
X129610592Y-71395405D01*
X133000019Y-74784832D01*
X133012860Y-74799865D01*
X133021134Y-74811253D01*
X133026043Y-74815673D01*
X133071959Y-74857016D01*
X133076744Y-74861557D01*
X133091259Y-74876072D01*
X133093823Y-74878148D01*
X133107216Y-74888994D01*
X133112231Y-74893278D01*
X133158145Y-74934619D01*
X133158150Y-74934623D01*
X133163056Y-74939040D01*
X133168772Y-74942340D01*
X133168776Y-74942343D01*
X133175237Y-74946073D01*
X133191533Y-74957273D01*
X133202470Y-74966129D01*
X133208348Y-74969124D01*
X133208351Y-74969126D01*
X133263426Y-74997188D01*
X133269223Y-75000336D01*
X133322723Y-75031224D01*
X133328444Y-75034527D01*
X133341826Y-75038875D01*
X133360085Y-75046438D01*
X133372630Y-75052830D01*
X133379000Y-75054537D01*
X133379003Y-75054538D01*
X133412630Y-75063548D01*
X133438712Y-75070537D01*
X133445025Y-75072407D01*
X133510072Y-75093542D01*
X133524075Y-75095014D01*
X133543504Y-75098615D01*
X133557097Y-75102257D01*
X133563694Y-75102603D01*
X133563696Y-75102603D01*
X133625384Y-75105836D01*
X133631958Y-75106353D01*
X133649116Y-75108156D01*
X133649118Y-75108156D01*
X133652390Y-75108500D01*
X133672926Y-75108500D01*
X133679520Y-75108673D01*
X133741218Y-75111907D01*
X133741223Y-75111907D01*
X133747810Y-75112252D01*
X133761708Y-75110051D01*
X133781417Y-75108500D01*
X136405126Y-75108500D01*
X136473247Y-75128502D01*
X136480673Y-75133661D01*
X136503295Y-75150615D01*
X136639684Y-75201745D01*
X136701866Y-75208500D01*
X136931133Y-75208500D01*
X136999254Y-75228502D01*
X137045747Y-75282158D01*
X137055851Y-75352432D01*
X137026357Y-75417012D01*
X136966631Y-75455396D01*
X136964106Y-75456034D01*
X136960072Y-75456458D01*
X136944112Y-75461644D01*
X136920817Y-75469212D01*
X136908080Y-75472625D01*
X136874169Y-75479833D01*
X136874165Y-75479834D01*
X136867712Y-75481206D01*
X136829994Y-75497999D01*
X136817698Y-75502718D01*
X136778444Y-75515473D01*
X136772723Y-75518776D01*
X136742710Y-75536104D01*
X136730961Y-75542091D01*
X136693248Y-75558882D01*
X136687909Y-75562761D01*
X136687904Y-75562764D01*
X136659851Y-75583146D01*
X136648798Y-75590325D01*
X136613056Y-75610960D01*
X136608147Y-75615380D01*
X136608143Y-75615383D01*
X136582386Y-75638575D01*
X136572143Y-75646871D01*
X136538747Y-75671134D01*
X136534333Y-75676036D01*
X136534331Y-75676038D01*
X136511129Y-75701806D01*
X136501806Y-75711129D01*
X136471134Y-75738747D01*
X136446871Y-75772143D01*
X136438575Y-75782386D01*
X136415383Y-75808143D01*
X136415380Y-75808147D01*
X136410960Y-75813056D01*
X136390325Y-75848798D01*
X136383146Y-75859851D01*
X136362764Y-75887904D01*
X136362761Y-75887909D01*
X136358882Y-75893248D01*
X136342120Y-75930897D01*
X136342092Y-75930959D01*
X136336105Y-75942708D01*
X136315473Y-75978444D01*
X136313432Y-75984727D01*
X136313431Y-75984728D01*
X136302719Y-76017696D01*
X136297999Y-76029994D01*
X136281206Y-76067712D01*
X136279834Y-76074165D01*
X136279833Y-76074169D01*
X136272625Y-76108080D01*
X136269212Y-76120817D01*
X136258498Y-76153791D01*
X136258497Y-76153798D01*
X136256458Y-76160072D01*
X136252423Y-76198469D01*
X136252144Y-76201122D01*
X136250082Y-76214136D01*
X136241500Y-76254513D01*
X136241500Y-76295784D01*
X136240810Y-76308955D01*
X136236496Y-76350000D01*
X136237186Y-76356565D01*
X136240810Y-76391045D01*
X136241500Y-76404216D01*
X136241500Y-76445487D01*
X136250082Y-76485864D01*
X136252143Y-76498872D01*
X136256458Y-76539928D01*
X136258497Y-76546202D01*
X136258498Y-76546209D01*
X136269212Y-76579183D01*
X136272625Y-76591920D01*
X136276229Y-76608874D01*
X136280085Y-76627014D01*
X136281206Y-76632288D01*
X136280241Y-76632493D01*
X136282100Y-76697531D01*
X136245437Y-76758329D01*
X136181725Y-76789655D01*
X136160239Y-76791500D01*
X135781417Y-76791500D01*
X135761707Y-76789949D01*
X135754327Y-76788780D01*
X135754326Y-76788780D01*
X135747810Y-76787748D01*
X135741223Y-76788093D01*
X135741218Y-76788093D01*
X135679520Y-76791327D01*
X135672926Y-76791500D01*
X135652390Y-76791500D01*
X135649118Y-76791844D01*
X135649116Y-76791844D01*
X135631958Y-76793647D01*
X135625384Y-76794164D01*
X135563696Y-76797397D01*
X135563694Y-76797397D01*
X135557097Y-76797743D01*
X135543504Y-76801385D01*
X135524075Y-76804986D01*
X135510072Y-76806458D01*
X135445025Y-76827593D01*
X135438712Y-76829463D01*
X135418074Y-76834993D01*
X135379003Y-76845462D01*
X135379000Y-76845463D01*
X135372630Y-76847170D01*
X135360085Y-76853562D01*
X135341826Y-76861125D01*
X135328444Y-76865473D01*
X135322723Y-76868776D01*
X135269223Y-76899664D01*
X135263426Y-76902812D01*
X135208351Y-76930874D01*
X135208348Y-76930876D01*
X135202470Y-76933871D01*
X135197342Y-76938024D01*
X135197340Y-76938025D01*
X135191534Y-76942727D01*
X135175237Y-76953927D01*
X135168776Y-76957657D01*
X135168772Y-76957660D01*
X135163056Y-76960960D01*
X135158150Y-76965377D01*
X135158145Y-76965381D01*
X135112231Y-77006722D01*
X135107216Y-77011006D01*
X135098718Y-77017888D01*
X135091259Y-77023928D01*
X135076744Y-77038443D01*
X135071959Y-77042984D01*
X135021134Y-77088747D01*
X135017255Y-77094086D01*
X135017254Y-77094087D01*
X135012860Y-77100135D01*
X135000019Y-77115168D01*
X134210592Y-77904595D01*
X134148280Y-77938621D01*
X134121497Y-77941500D01*
X129196848Y-77941500D01*
X129128727Y-77921498D01*
X129082234Y-77867842D01*
X129072130Y-77797568D01*
X129083890Y-77759674D01*
X129084674Y-77758088D01*
X129117430Y-77691811D01*
X129175177Y-77501745D01*
X129180865Y-77483023D01*
X129180865Y-77483021D01*
X129182370Y-77478069D01*
X129211529Y-77256590D01*
X129211665Y-77251032D01*
X129213074Y-77193365D01*
X129213074Y-77193361D01*
X129213156Y-77190000D01*
X129194852Y-76967361D01*
X129140431Y-76750702D01*
X129051354Y-76545840D01*
X128997931Y-76463261D01*
X128932822Y-76362617D01*
X128932820Y-76362614D01*
X128930014Y-76358277D01*
X128779670Y-76193051D01*
X128775619Y-76189852D01*
X128775615Y-76189848D01*
X128608414Y-76057800D01*
X128608410Y-76057798D01*
X128604359Y-76054598D01*
X128563053Y-76031796D01*
X128513084Y-75981364D01*
X128498312Y-75911921D01*
X128523428Y-75845516D01*
X128550780Y-75818909D01*
X128616355Y-75772135D01*
X128729860Y-75691173D01*
X128888096Y-75533489D01*
X128899340Y-75517842D01*
X129015435Y-75356277D01*
X129018453Y-75352077D01*
X129021239Y-75346441D01*
X129115136Y-75156453D01*
X129115137Y-75156451D01*
X129117430Y-75151811D01*
X129178704Y-74950135D01*
X129180865Y-74943023D01*
X129180865Y-74943021D01*
X129182370Y-74938069D01*
X129211529Y-74716590D01*
X129211663Y-74711125D01*
X129213074Y-74653365D01*
X129213074Y-74653361D01*
X129213156Y-74650000D01*
X129194852Y-74427361D01*
X129140431Y-74210702D01*
X129051354Y-74005840D01*
X129011906Y-73944862D01*
X128932822Y-73822617D01*
X128932820Y-73822614D01*
X128930014Y-73818277D01*
X128779670Y-73653051D01*
X128775619Y-73649852D01*
X128775615Y-73649848D01*
X128608414Y-73517800D01*
X128608410Y-73517798D01*
X128604359Y-73514598D01*
X128563053Y-73491796D01*
X128513084Y-73441364D01*
X128498312Y-73371921D01*
X128523428Y-73305516D01*
X128550780Y-73278909D01*
X128606674Y-73239040D01*
X128729860Y-73151173D01*
X128888096Y-72993489D01*
X128941783Y-72918776D01*
X129015435Y-72816277D01*
X129018453Y-72812077D01*
X129021295Y-72806328D01*
X129115136Y-72616453D01*
X129115137Y-72616451D01*
X129117430Y-72611811D01*
X129151714Y-72498968D01*
X129180865Y-72403023D01*
X129180865Y-72403021D01*
X129182370Y-72398069D01*
X129211529Y-72176590D01*
X129212110Y-72152815D01*
X129213074Y-72113365D01*
X129213074Y-72113361D01*
X129213156Y-72110000D01*
X129194852Y-71887361D01*
X129140431Y-71670702D01*
X129081314Y-71534743D01*
X129072493Y-71464296D01*
X129103160Y-71400264D01*
X129163576Y-71362976D01*
X129196863Y-71358500D01*
X129521497Y-71358500D01*
X129589618Y-71378502D01*
G37*
G04 #@! TD.AperFunction*
G04 #@! TA.AperFunction,Conductor*
G36*
X174239618Y-72978502D02*
G01*
X174260592Y-72995405D01*
X175054595Y-73789408D01*
X175088621Y-73851720D01*
X175091500Y-73878503D01*
X175091500Y-75702497D01*
X175071498Y-75770618D01*
X175017842Y-75817111D01*
X174947568Y-75827215D01*
X174882988Y-75797721D01*
X174876405Y-75791592D01*
X174049981Y-74965168D01*
X174037140Y-74950135D01*
X174032746Y-74944087D01*
X174032745Y-74944086D01*
X174028866Y-74938747D01*
X173978041Y-74892984D01*
X173973256Y-74888443D01*
X173958741Y-74873928D01*
X173943464Y-74861557D01*
X173942784Y-74861006D01*
X173937769Y-74856722D01*
X173891855Y-74815381D01*
X173891850Y-74815377D01*
X173886944Y-74810960D01*
X173881228Y-74807660D01*
X173881224Y-74807657D01*
X173874763Y-74803927D01*
X173858466Y-74792727D01*
X173852660Y-74788025D01*
X173852658Y-74788024D01*
X173847530Y-74783871D01*
X173786577Y-74752814D01*
X173780782Y-74749667D01*
X173727279Y-74718777D01*
X173727278Y-74718776D01*
X173721556Y-74715473D01*
X173715274Y-74713432D01*
X173715272Y-74713431D01*
X173708174Y-74711125D01*
X173689907Y-74703559D01*
X173677370Y-74697171D01*
X173611299Y-74679467D01*
X173604997Y-74677600D01*
X173539928Y-74656458D01*
X173533363Y-74655768D01*
X173533354Y-74655766D01*
X173525925Y-74654985D01*
X173506491Y-74651383D01*
X173499286Y-74649453D01*
X173499284Y-74649453D01*
X173492903Y-74647743D01*
X173486312Y-74647398D01*
X173486308Y-74647397D01*
X173424616Y-74644164D01*
X173418042Y-74643647D01*
X173400884Y-74641844D01*
X173400882Y-74641844D01*
X173397610Y-74641500D01*
X173377074Y-74641500D01*
X173370480Y-74641327D01*
X173308782Y-74638093D01*
X173308777Y-74638093D01*
X173302190Y-74637748D01*
X173288292Y-74639949D01*
X173268583Y-74641500D01*
X173194874Y-74641500D01*
X173126753Y-74621498D01*
X173119327Y-74616339D01*
X173096705Y-74599385D01*
X172960316Y-74548255D01*
X172898134Y-74541500D01*
X171401866Y-74541500D01*
X171339684Y-74548255D01*
X171328230Y-74552549D01*
X171324851Y-74552796D01*
X171324600Y-74552856D01*
X171324590Y-74552815D01*
X171257423Y-74557732D01*
X171195054Y-74523812D01*
X171160925Y-74461557D01*
X171158000Y-74434567D01*
X171157999Y-74055332D01*
X171157629Y-74048510D01*
X171152105Y-73997648D01*
X171148479Y-73982396D01*
X171103321Y-73861939D01*
X171102826Y-73861034D01*
X171102607Y-73860034D01*
X171100172Y-73853538D01*
X171101110Y-73853186D01*
X171087657Y-73791677D01*
X171100838Y-73746788D01*
X171100615Y-73746705D01*
X171101756Y-73743663D01*
X171101758Y-73743656D01*
X171105495Y-73733690D01*
X171142726Y-73634373D01*
X171151745Y-73610316D01*
X171158500Y-73548134D01*
X171158500Y-73165621D01*
X171178502Y-73097500D01*
X171232158Y-73051007D01*
X171302432Y-73040903D01*
X171328725Y-73047637D01*
X171332284Y-73048971D01*
X171339684Y-73051745D01*
X171401866Y-73058500D01*
X172898134Y-73058500D01*
X172960316Y-73051745D01*
X173096705Y-73000615D01*
X173119311Y-72983673D01*
X173185815Y-72958826D01*
X173194874Y-72958500D01*
X174171497Y-72958500D01*
X174239618Y-72978502D01*
G37*
G04 #@! TD.AperFunction*
G04 #@! TA.AperFunction,Conductor*
G36*
X168660032Y-73978947D02*
G01*
X168716868Y-74021494D01*
X168733303Y-74065557D01*
X168736896Y-74064502D01*
X168746475Y-74097124D01*
X168747865Y-74098329D01*
X168755548Y-74100000D01*
X170324000Y-74100000D01*
X170392121Y-74120002D01*
X170438614Y-74173658D01*
X170450000Y-74226000D01*
X170450000Y-74974000D01*
X170429998Y-75042121D01*
X170376342Y-75088614D01*
X170324000Y-75100000D01*
X168760116Y-75100000D01*
X168744877Y-75104475D01*
X168743672Y-75105865D01*
X168742001Y-75113548D01*
X168742001Y-75144669D01*
X168742371Y-75151490D01*
X168747895Y-75202352D01*
X168751521Y-75217604D01*
X168796676Y-75338054D01*
X168805214Y-75353649D01*
X168832409Y-75389935D01*
X168857257Y-75456442D01*
X168842204Y-75525824D01*
X168792030Y-75576054D01*
X168731583Y-75591500D01*
X167133521Y-75591500D01*
X167065400Y-75571498D01*
X167018907Y-75517842D01*
X167008803Y-75447568D01*
X167038297Y-75382988D01*
X167078402Y-75354854D01*
X167077370Y-75352829D01*
X167089907Y-75346441D01*
X167108174Y-75338875D01*
X167115272Y-75336569D01*
X167115274Y-75336568D01*
X167121556Y-75334527D01*
X167180785Y-75300331D01*
X167186579Y-75297185D01*
X167216071Y-75282158D01*
X167247530Y-75266129D01*
X167258467Y-75257273D01*
X167274763Y-75246073D01*
X167281224Y-75242343D01*
X167281228Y-75242340D01*
X167286944Y-75239040D01*
X167291850Y-75234623D01*
X167291855Y-75234619D01*
X167337769Y-75193278D01*
X167342784Y-75188994D01*
X167356177Y-75178148D01*
X167358741Y-75176072D01*
X167373256Y-75161557D01*
X167378041Y-75157016D01*
X167419502Y-75119684D01*
X167428866Y-75111253D01*
X167437140Y-75099865D01*
X167449981Y-75084832D01*
X168526905Y-74007908D01*
X168589217Y-73973882D01*
X168660032Y-73978947D01*
G37*
G04 #@! TD.AperFunction*
M02*
