G04 #@! TF.GenerationSoftware,KiCad,Pcbnew,(6.0.4)*
G04 #@! TF.CreationDate,2022-04-15T12:40:15+02:00*
G04 #@! TF.ProjectId,hernieuwdeBuffer_beide_groundplane,6865726e-6965-4757-9764-654275666665,rev?*
G04 #@! TF.SameCoordinates,Original*
G04 #@! TF.FileFunction,Legend,Top*
G04 #@! TF.FilePolarity,Positive*
%FSLAX46Y46*%
G04 Gerber Fmt 4.6, Leading zero omitted, Abs format (unit mm)*
G04 Created by KiCad (PCBNEW (6.0.4)) date 2022-04-15 12:40:15*
%MOMM*%
%LPD*%
G01*
G04 APERTURE LIST*
%ADD10C,0.300000*%
%ADD11C,0.150000*%
%ADD12C,0.127000*%
%ADD13C,0.200000*%
%ADD14C,0.120000*%
G04 APERTURE END LIST*
D10*
X95171428Y-82078571D02*
X94314285Y-82078571D01*
X94742857Y-82078571D02*
X94742857Y-80578571D01*
X94600000Y-80792857D01*
X94457142Y-80935714D01*
X94314285Y-81007142D01*
X95742857Y-80721428D02*
X95814285Y-80650000D01*
X95957142Y-80578571D01*
X96314285Y-80578571D01*
X96457142Y-80650000D01*
X96528571Y-80721428D01*
X96600000Y-80864285D01*
X96600000Y-81007142D01*
X96528571Y-81221428D01*
X95671428Y-82078571D01*
X96600000Y-82078571D01*
X97028571Y-80578571D02*
X97528571Y-82078571D01*
X98028571Y-80578571D01*
D11*
X120835714Y-76334000D02*
X120778571Y-76305428D01*
X120692857Y-76305428D01*
X120607142Y-76334000D01*
X120550000Y-76391142D01*
X120521428Y-76448285D01*
X120492857Y-76562571D01*
X120492857Y-76648285D01*
X120521428Y-76762571D01*
X120550000Y-76819714D01*
X120607142Y-76876857D01*
X120692857Y-76905428D01*
X120750000Y-76905428D01*
X120835714Y-76876857D01*
X120864285Y-76848285D01*
X120864285Y-76648285D01*
X120750000Y-76648285D01*
X121435714Y-76905428D02*
X121092857Y-76905428D01*
X121264285Y-76905428D02*
X121264285Y-76305428D01*
X121207142Y-76391142D01*
X121150000Y-76448285D01*
X121092857Y-76476857D01*
X122035714Y-76905428D02*
X121835714Y-76619714D01*
X121692857Y-76905428D02*
X121692857Y-76305428D01*
X121921428Y-76305428D01*
X121978571Y-76334000D01*
X122007142Y-76362571D01*
X122035714Y-76419714D01*
X122035714Y-76505428D01*
X122007142Y-76562571D01*
X121978571Y-76591142D01*
X121921428Y-76619714D01*
X121692857Y-76619714D01*
X122607142Y-76905428D02*
X122264285Y-76905428D01*
X122435714Y-76905428D02*
X122435714Y-76305428D01*
X122378571Y-76391142D01*
X122321428Y-76448285D01*
X122264285Y-76476857D01*
X120835714Y-77300000D02*
X120778571Y-77271428D01*
X120692857Y-77271428D01*
X120607142Y-77300000D01*
X120550000Y-77357142D01*
X120521428Y-77414285D01*
X120492857Y-77528571D01*
X120492857Y-77614285D01*
X120521428Y-77728571D01*
X120550000Y-77785714D01*
X120607142Y-77842857D01*
X120692857Y-77871428D01*
X120750000Y-77871428D01*
X120835714Y-77842857D01*
X120864285Y-77814285D01*
X120864285Y-77614285D01*
X120750000Y-77614285D01*
X121092857Y-77328571D02*
X121121428Y-77300000D01*
X121178571Y-77271428D01*
X121321428Y-77271428D01*
X121378571Y-77300000D01*
X121407142Y-77328571D01*
X121435714Y-77385714D01*
X121435714Y-77442857D01*
X121407142Y-77528571D01*
X121064285Y-77871428D01*
X121435714Y-77871428D01*
X122035714Y-77871428D02*
X121835714Y-77585714D01*
X121692857Y-77871428D02*
X121692857Y-77271428D01*
X121921428Y-77271428D01*
X121978571Y-77300000D01*
X122007142Y-77328571D01*
X122035714Y-77385714D01*
X122035714Y-77471428D01*
X122007142Y-77528571D01*
X121978571Y-77557142D01*
X121921428Y-77585714D01*
X121692857Y-77585714D01*
X122264285Y-77328571D02*
X122292857Y-77300000D01*
X122350000Y-77271428D01*
X122492857Y-77271428D01*
X122550000Y-77300000D01*
X122578571Y-77328571D01*
X122607142Y-77385714D01*
X122607142Y-77442857D01*
X122578571Y-77528571D01*
X122235714Y-77871428D01*
X122607142Y-77871428D01*
X120835714Y-78266000D02*
X120778571Y-78237428D01*
X120692857Y-78237428D01*
X120607142Y-78266000D01*
X120550000Y-78323142D01*
X120521428Y-78380285D01*
X120492857Y-78494571D01*
X120492857Y-78580285D01*
X120521428Y-78694571D01*
X120550000Y-78751714D01*
X120607142Y-78808857D01*
X120692857Y-78837428D01*
X120750000Y-78837428D01*
X120835714Y-78808857D01*
X120864285Y-78780285D01*
X120864285Y-78580285D01*
X120750000Y-78580285D01*
X121064285Y-78237428D02*
X121435714Y-78237428D01*
X121235714Y-78466000D01*
X121321428Y-78466000D01*
X121378571Y-78494571D01*
X121407142Y-78523142D01*
X121435714Y-78580285D01*
X121435714Y-78723142D01*
X121407142Y-78780285D01*
X121378571Y-78808857D01*
X121321428Y-78837428D01*
X121150000Y-78837428D01*
X121092857Y-78808857D01*
X121064285Y-78780285D01*
X122035714Y-78837428D02*
X121835714Y-78551714D01*
X121692857Y-78837428D02*
X121692857Y-78237428D01*
X121921428Y-78237428D01*
X121978571Y-78266000D01*
X122007142Y-78294571D01*
X122035714Y-78351714D01*
X122035714Y-78437428D01*
X122007142Y-78494571D01*
X121978571Y-78523142D01*
X121921428Y-78551714D01*
X121692857Y-78551714D01*
X122235714Y-78237428D02*
X122607142Y-78237428D01*
X122407142Y-78466000D01*
X122492857Y-78466000D01*
X122550000Y-78494571D01*
X122578571Y-78523142D01*
X122607142Y-78580285D01*
X122607142Y-78723142D01*
X122578571Y-78780285D01*
X122550000Y-78808857D01*
X122492857Y-78837428D01*
X122321428Y-78837428D01*
X122264285Y-78808857D01*
X122235714Y-78780285D01*
X182521428Y-84557142D02*
X182235714Y-84757142D01*
X182521428Y-84900000D02*
X181921428Y-84900000D01*
X181921428Y-84671428D01*
X181950000Y-84614285D01*
X181978571Y-84585714D01*
X182035714Y-84557142D01*
X182121428Y-84557142D01*
X182178571Y-84585714D01*
X182207142Y-84614285D01*
X182235714Y-84671428D01*
X182235714Y-84900000D01*
X181921428Y-84014285D02*
X181921428Y-84300000D01*
X182207142Y-84328571D01*
X182178571Y-84300000D01*
X182150000Y-84242857D01*
X182150000Y-84100000D01*
X182178571Y-84042857D01*
X182207142Y-84014285D01*
X182264285Y-83985714D01*
X182407142Y-83985714D01*
X182464285Y-84014285D01*
X182492857Y-84042857D01*
X182521428Y-84100000D01*
X182521428Y-84242857D01*
X182492857Y-84300000D01*
X182464285Y-84328571D01*
X182521428Y-82928571D02*
X182235714Y-83128571D01*
X182521428Y-83271428D02*
X181921428Y-83271428D01*
X181921428Y-83042857D01*
X181950000Y-82985714D01*
X181978571Y-82957142D01*
X182035714Y-82928571D01*
X182121428Y-82928571D01*
X182178571Y-82957142D01*
X182207142Y-82985714D01*
X182235714Y-83042857D01*
X182235714Y-83271428D01*
X182121428Y-82414285D02*
X182521428Y-82414285D01*
X181892857Y-82557142D02*
X182321428Y-82700000D01*
X182321428Y-82328571D01*
X182521428Y-81300000D02*
X182235714Y-81500000D01*
X182521428Y-81642857D02*
X181921428Y-81642857D01*
X181921428Y-81414285D01*
X181950000Y-81357142D01*
X181978571Y-81328571D01*
X182035714Y-81300000D01*
X182121428Y-81300000D01*
X182178571Y-81328571D01*
X182207142Y-81357142D01*
X182235714Y-81414285D01*
X182235714Y-81642857D01*
X181921428Y-81100000D02*
X181921428Y-80728571D01*
X182150000Y-80928571D01*
X182150000Y-80842857D01*
X182178571Y-80785714D01*
X182207142Y-80757142D01*
X182264285Y-80728571D01*
X182407142Y-80728571D01*
X182464285Y-80757142D01*
X182492857Y-80785714D01*
X182521428Y-80842857D01*
X182521428Y-81014285D01*
X182492857Y-81071428D01*
X182464285Y-81100000D01*
X182521428Y-79671428D02*
X182235714Y-79871428D01*
X182521428Y-80014285D02*
X181921428Y-80014285D01*
X181921428Y-79785714D01*
X181950000Y-79728571D01*
X181978571Y-79700000D01*
X182035714Y-79671428D01*
X182121428Y-79671428D01*
X182178571Y-79700000D01*
X182207142Y-79728571D01*
X182235714Y-79785714D01*
X182235714Y-80014285D01*
X181978571Y-79442857D02*
X181950000Y-79414285D01*
X181921428Y-79357142D01*
X181921428Y-79214285D01*
X181950000Y-79157142D01*
X181978571Y-79128571D01*
X182035714Y-79100000D01*
X182092857Y-79100000D01*
X182178571Y-79128571D01*
X182521428Y-79471428D01*
X182521428Y-79100000D01*
X182521428Y-78042857D02*
X182235714Y-78242857D01*
X182521428Y-78385714D02*
X181921428Y-78385714D01*
X181921428Y-78157142D01*
X181950000Y-78100000D01*
X181978571Y-78071428D01*
X182035714Y-78042857D01*
X182121428Y-78042857D01*
X182178571Y-78071428D01*
X182207142Y-78100000D01*
X182235714Y-78157142D01*
X182235714Y-78385714D01*
X182521428Y-77471428D02*
X182521428Y-77814285D01*
X182521428Y-77642857D02*
X181921428Y-77642857D01*
X182007142Y-77700000D01*
X182064285Y-77757142D01*
X182092857Y-77814285D01*
D10*
X109914285Y-91778571D02*
X109914285Y-90278571D01*
X110628571Y-91778571D02*
X110628571Y-90278571D01*
X111485714Y-91778571D01*
X111485714Y-90278571D01*
D11*
X120835714Y-88134000D02*
X120778571Y-88105428D01*
X120692857Y-88105428D01*
X120607142Y-88134000D01*
X120550000Y-88191142D01*
X120521428Y-88248285D01*
X120492857Y-88362571D01*
X120492857Y-88448285D01*
X120521428Y-88562571D01*
X120550000Y-88619714D01*
X120607142Y-88676857D01*
X120692857Y-88705428D01*
X120750000Y-88705428D01*
X120835714Y-88676857D01*
X120864285Y-88648285D01*
X120864285Y-88448285D01*
X120750000Y-88448285D01*
X121378571Y-88305428D02*
X121378571Y-88705428D01*
X121235714Y-88076857D02*
X121092857Y-88505428D01*
X121464285Y-88505428D01*
X122035714Y-88705428D02*
X121835714Y-88419714D01*
X121692857Y-88705428D02*
X121692857Y-88105428D01*
X121921428Y-88105428D01*
X121978571Y-88134000D01*
X122007142Y-88162571D01*
X122035714Y-88219714D01*
X122035714Y-88305428D01*
X122007142Y-88362571D01*
X121978571Y-88391142D01*
X121921428Y-88419714D01*
X121692857Y-88419714D01*
X122550000Y-88305428D02*
X122550000Y-88705428D01*
X122407142Y-88076857D02*
X122264285Y-88505428D01*
X122635714Y-88505428D01*
X120835714Y-89100000D02*
X120778571Y-89071428D01*
X120692857Y-89071428D01*
X120607142Y-89100000D01*
X120550000Y-89157142D01*
X120521428Y-89214285D01*
X120492857Y-89328571D01*
X120492857Y-89414285D01*
X120521428Y-89528571D01*
X120550000Y-89585714D01*
X120607142Y-89642857D01*
X120692857Y-89671428D01*
X120750000Y-89671428D01*
X120835714Y-89642857D01*
X120864285Y-89614285D01*
X120864285Y-89414285D01*
X120750000Y-89414285D01*
X121407142Y-89071428D02*
X121121428Y-89071428D01*
X121092857Y-89357142D01*
X121121428Y-89328571D01*
X121178571Y-89300000D01*
X121321428Y-89300000D01*
X121378571Y-89328571D01*
X121407142Y-89357142D01*
X121435714Y-89414285D01*
X121435714Y-89557142D01*
X121407142Y-89614285D01*
X121378571Y-89642857D01*
X121321428Y-89671428D01*
X121178571Y-89671428D01*
X121121428Y-89642857D01*
X121092857Y-89614285D01*
X122035714Y-89671428D02*
X121835714Y-89385714D01*
X121692857Y-89671428D02*
X121692857Y-89071428D01*
X121921428Y-89071428D01*
X121978571Y-89100000D01*
X122007142Y-89128571D01*
X122035714Y-89185714D01*
X122035714Y-89271428D01*
X122007142Y-89328571D01*
X121978571Y-89357142D01*
X121921428Y-89385714D01*
X121692857Y-89385714D01*
X122578571Y-89071428D02*
X122292857Y-89071428D01*
X122264285Y-89357142D01*
X122292857Y-89328571D01*
X122350000Y-89300000D01*
X122492857Y-89300000D01*
X122550000Y-89328571D01*
X122578571Y-89357142D01*
X122607142Y-89414285D01*
X122607142Y-89557142D01*
X122578571Y-89614285D01*
X122550000Y-89642857D01*
X122492857Y-89671428D01*
X122350000Y-89671428D01*
X122292857Y-89642857D01*
X122264285Y-89614285D01*
X120835714Y-90066000D02*
X120778571Y-90037428D01*
X120692857Y-90037428D01*
X120607142Y-90066000D01*
X120550000Y-90123142D01*
X120521428Y-90180285D01*
X120492857Y-90294571D01*
X120492857Y-90380285D01*
X120521428Y-90494571D01*
X120550000Y-90551714D01*
X120607142Y-90608857D01*
X120692857Y-90637428D01*
X120750000Y-90637428D01*
X120835714Y-90608857D01*
X120864285Y-90580285D01*
X120864285Y-90380285D01*
X120750000Y-90380285D01*
X121378571Y-90037428D02*
X121264285Y-90037428D01*
X121207142Y-90066000D01*
X121178571Y-90094571D01*
X121121428Y-90180285D01*
X121092857Y-90294571D01*
X121092857Y-90523142D01*
X121121428Y-90580285D01*
X121150000Y-90608857D01*
X121207142Y-90637428D01*
X121321428Y-90637428D01*
X121378571Y-90608857D01*
X121407142Y-90580285D01*
X121435714Y-90523142D01*
X121435714Y-90380285D01*
X121407142Y-90323142D01*
X121378571Y-90294571D01*
X121321428Y-90266000D01*
X121207142Y-90266000D01*
X121150000Y-90294571D01*
X121121428Y-90323142D01*
X121092857Y-90380285D01*
X122035714Y-90637428D02*
X121835714Y-90351714D01*
X121692857Y-90637428D02*
X121692857Y-90037428D01*
X121921428Y-90037428D01*
X121978571Y-90066000D01*
X122007142Y-90094571D01*
X122035714Y-90151714D01*
X122035714Y-90237428D01*
X122007142Y-90294571D01*
X121978571Y-90323142D01*
X121921428Y-90351714D01*
X121692857Y-90351714D01*
X122550000Y-90037428D02*
X122435714Y-90037428D01*
X122378571Y-90066000D01*
X122350000Y-90094571D01*
X122292857Y-90180285D01*
X122264285Y-90294571D01*
X122264285Y-90523142D01*
X122292857Y-90580285D01*
X122321428Y-90608857D01*
X122378571Y-90637428D01*
X122492857Y-90637428D01*
X122550000Y-90608857D01*
X122578571Y-90580285D01*
X122607142Y-90523142D01*
X122607142Y-90380285D01*
X122578571Y-90323142D01*
X122550000Y-90294571D01*
X122492857Y-90266000D01*
X122378571Y-90266000D01*
X122321428Y-90294571D01*
X122292857Y-90323142D01*
X122264285Y-90380285D01*
X181700000Y-71557142D02*
X181671428Y-71614285D01*
X181671428Y-71700000D01*
X181700000Y-71785714D01*
X181757142Y-71842857D01*
X181814285Y-71871428D01*
X181928571Y-71900000D01*
X182014285Y-71900000D01*
X182128571Y-71871428D01*
X182185714Y-71842857D01*
X182242857Y-71785714D01*
X182271428Y-71700000D01*
X182271428Y-71642857D01*
X182242857Y-71557142D01*
X182214285Y-71528571D01*
X182014285Y-71528571D01*
X182014285Y-71642857D01*
X182271428Y-71271428D02*
X181671428Y-71271428D01*
X182271428Y-70928571D01*
X181671428Y-70928571D01*
X182271428Y-70642857D02*
X181671428Y-70642857D01*
X181671428Y-70500000D01*
X181700000Y-70414285D01*
X181757142Y-70357142D01*
X181814285Y-70328571D01*
X181928571Y-70300000D01*
X182014285Y-70300000D01*
X182128571Y-70328571D01*
X182185714Y-70357142D01*
X182242857Y-70414285D01*
X182271428Y-70500000D01*
X182271428Y-70642857D01*
X182271428Y-68785714D02*
X181985714Y-68985714D01*
X182271428Y-69128571D02*
X181671428Y-69128571D01*
X181671428Y-68900000D01*
X181700000Y-68842857D01*
X181728571Y-68814285D01*
X181785714Y-68785714D01*
X181871428Y-68785714D01*
X181928571Y-68814285D01*
X181957142Y-68842857D01*
X181985714Y-68900000D01*
X181985714Y-69128571D01*
X181671428Y-68585714D02*
X182271428Y-68185714D01*
X181671428Y-68185714D02*
X182271428Y-68585714D01*
X181671428Y-67128571D02*
X181671428Y-66785714D01*
X182271428Y-66957142D02*
X181671428Y-66957142D01*
X181671428Y-66642857D02*
X182271428Y-66242857D01*
X181671428Y-66242857D02*
X182271428Y-66642857D01*
X181671428Y-65157142D02*
X181671428Y-64785714D01*
X181900000Y-64985714D01*
X181900000Y-64900000D01*
X181928571Y-64842857D01*
X181957142Y-64814285D01*
X182014285Y-64785714D01*
X182157142Y-64785714D01*
X182214285Y-64814285D01*
X182242857Y-64842857D01*
X182271428Y-64900000D01*
X182271428Y-65071428D01*
X182242857Y-65128571D01*
X182214285Y-65157142D01*
X181671428Y-64614285D02*
X182271428Y-64414285D01*
X181671428Y-64214285D01*
X181671428Y-64071428D02*
X181671428Y-63700000D01*
X181900000Y-63900000D01*
X181900000Y-63814285D01*
X181928571Y-63757142D01*
X181957142Y-63728571D01*
X182014285Y-63700000D01*
X182157142Y-63700000D01*
X182214285Y-63728571D01*
X182242857Y-63757142D01*
X182271428Y-63814285D01*
X182271428Y-63985714D01*
X182242857Y-64042857D01*
X182214285Y-64071428D01*
X168164285Y-91400000D02*
X168107142Y-91371428D01*
X168021428Y-91371428D01*
X167935714Y-91400000D01*
X167878571Y-91457142D01*
X167850000Y-91514285D01*
X167821428Y-91628571D01*
X167821428Y-91714285D01*
X167850000Y-91828571D01*
X167878571Y-91885714D01*
X167935714Y-91942857D01*
X168021428Y-91971428D01*
X168078571Y-91971428D01*
X168164285Y-91942857D01*
X168192857Y-91914285D01*
X168192857Y-91714285D01*
X168078571Y-91714285D01*
X168735714Y-91371428D02*
X168450000Y-91371428D01*
X168421428Y-91657142D01*
X168450000Y-91628571D01*
X168507142Y-91600000D01*
X168650000Y-91600000D01*
X168707142Y-91628571D01*
X168735714Y-91657142D01*
X168764285Y-91714285D01*
X168764285Y-91857142D01*
X168735714Y-91914285D01*
X168707142Y-91942857D01*
X168650000Y-91971428D01*
X168507142Y-91971428D01*
X168450000Y-91942857D01*
X168421428Y-91914285D01*
X169792857Y-91400000D02*
X169735714Y-91371428D01*
X169650000Y-91371428D01*
X169564285Y-91400000D01*
X169507142Y-91457142D01*
X169478571Y-91514285D01*
X169450000Y-91628571D01*
X169450000Y-91714285D01*
X169478571Y-91828571D01*
X169507142Y-91885714D01*
X169564285Y-91942857D01*
X169650000Y-91971428D01*
X169707142Y-91971428D01*
X169792857Y-91942857D01*
X169821428Y-91914285D01*
X169821428Y-91714285D01*
X169707142Y-91714285D01*
X170335714Y-91571428D02*
X170335714Y-91971428D01*
X170192857Y-91342857D02*
X170050000Y-91771428D01*
X170421428Y-91771428D01*
X171421428Y-91400000D02*
X171364285Y-91371428D01*
X171278571Y-91371428D01*
X171192857Y-91400000D01*
X171135714Y-91457142D01*
X171107142Y-91514285D01*
X171078571Y-91628571D01*
X171078571Y-91714285D01*
X171107142Y-91828571D01*
X171135714Y-91885714D01*
X171192857Y-91942857D01*
X171278571Y-91971428D01*
X171335714Y-91971428D01*
X171421428Y-91942857D01*
X171450000Y-91914285D01*
X171450000Y-91714285D01*
X171335714Y-91714285D01*
X171650000Y-91371428D02*
X172021428Y-91371428D01*
X171821428Y-91600000D01*
X171907142Y-91600000D01*
X171964285Y-91628571D01*
X171992857Y-91657142D01*
X172021428Y-91714285D01*
X172021428Y-91857142D01*
X171992857Y-91914285D01*
X171964285Y-91942857D01*
X171907142Y-91971428D01*
X171735714Y-91971428D01*
X171678571Y-91942857D01*
X171650000Y-91914285D01*
X173050000Y-91400000D02*
X172992857Y-91371428D01*
X172907142Y-91371428D01*
X172821428Y-91400000D01*
X172764285Y-91457142D01*
X172735714Y-91514285D01*
X172707142Y-91628571D01*
X172707142Y-91714285D01*
X172735714Y-91828571D01*
X172764285Y-91885714D01*
X172821428Y-91942857D01*
X172907142Y-91971428D01*
X172964285Y-91971428D01*
X173050000Y-91942857D01*
X173078571Y-91914285D01*
X173078571Y-91714285D01*
X172964285Y-91714285D01*
X173307142Y-91428571D02*
X173335714Y-91400000D01*
X173392857Y-91371428D01*
X173535714Y-91371428D01*
X173592857Y-91400000D01*
X173621428Y-91428571D01*
X173650000Y-91485714D01*
X173650000Y-91542857D01*
X173621428Y-91628571D01*
X173278571Y-91971428D01*
X173650000Y-91971428D01*
X174678571Y-91400000D02*
X174621428Y-91371428D01*
X174535714Y-91371428D01*
X174450000Y-91400000D01*
X174392857Y-91457142D01*
X174364285Y-91514285D01*
X174335714Y-91628571D01*
X174335714Y-91714285D01*
X174364285Y-91828571D01*
X174392857Y-91885714D01*
X174450000Y-91942857D01*
X174535714Y-91971428D01*
X174592857Y-91971428D01*
X174678571Y-91942857D01*
X174707142Y-91914285D01*
X174707142Y-91714285D01*
X174592857Y-91714285D01*
X175278571Y-91971428D02*
X174935714Y-91971428D01*
X175107142Y-91971428D02*
X175107142Y-91371428D01*
X175050000Y-91457142D01*
X174992857Y-91514285D01*
X174935714Y-91542857D01*
D10*
X109400000Y-73628571D02*
X109685714Y-73628571D01*
X109828571Y-73700000D01*
X109971428Y-73842857D01*
X110042857Y-74128571D01*
X110042857Y-74628571D01*
X109971428Y-74914285D01*
X109828571Y-75057142D01*
X109685714Y-75128571D01*
X109400000Y-75128571D01*
X109257142Y-75057142D01*
X109114285Y-74914285D01*
X109042857Y-74628571D01*
X109042857Y-74128571D01*
X109114285Y-73842857D01*
X109257142Y-73700000D01*
X109400000Y-73628571D01*
X110685714Y-73628571D02*
X110685714Y-74842857D01*
X110757142Y-74985714D01*
X110828571Y-75057142D01*
X110971428Y-75128571D01*
X111257142Y-75128571D01*
X111400000Y-75057142D01*
X111471428Y-74985714D01*
X111542857Y-74842857D01*
X111542857Y-73628571D01*
X112042857Y-73628571D02*
X112900000Y-73628571D01*
X112471428Y-75128571D02*
X112471428Y-73628571D01*
X92657142Y-89535357D02*
X92871428Y-89606785D01*
X92942857Y-89678214D01*
X93014285Y-89821071D01*
X93014285Y-90035357D01*
X92942857Y-90178214D01*
X92871428Y-90249642D01*
X92728571Y-90321071D01*
X92157142Y-90321071D01*
X92157142Y-88821071D01*
X92657142Y-88821071D01*
X92800000Y-88892500D01*
X92871428Y-88963928D01*
X92942857Y-89106785D01*
X92942857Y-89249642D01*
X92871428Y-89392500D01*
X92800000Y-89463928D01*
X92657142Y-89535357D01*
X92157142Y-89535357D01*
X93657142Y-88821071D02*
X93657142Y-90035357D01*
X93728571Y-90178214D01*
X93800000Y-90249642D01*
X93942857Y-90321071D01*
X94228571Y-90321071D01*
X94371428Y-90249642D01*
X94442857Y-90178214D01*
X94514285Y-90035357D01*
X94514285Y-88821071D01*
X95728571Y-89535357D02*
X95228571Y-89535357D01*
X95228571Y-90321071D02*
X95228571Y-88821071D01*
X95942857Y-88821071D01*
X97014285Y-89535357D02*
X96514285Y-89535357D01*
X96514285Y-90321071D02*
X96514285Y-88821071D01*
X97228571Y-88821071D01*
X97800000Y-89535357D02*
X98300000Y-89535357D01*
X98514285Y-90321071D02*
X97800000Y-90321071D01*
X97800000Y-88821071D01*
X98514285Y-88821071D01*
X100014285Y-90321071D02*
X99514285Y-89606785D01*
X99157142Y-90321071D02*
X99157142Y-88821071D01*
X99728571Y-88821071D01*
X99871428Y-88892500D01*
X99942857Y-88963928D01*
X100014285Y-89106785D01*
X100014285Y-89321071D01*
X99942857Y-89463928D01*
X99871428Y-89535357D01*
X99728571Y-89606785D01*
X99157142Y-89606785D01*
X94871428Y-92736071D02*
X94157142Y-92736071D01*
X94157142Y-91236071D01*
X96585714Y-92736071D02*
X96514285Y-92736071D01*
X96371428Y-92664642D01*
X96157142Y-92450357D01*
X95800000Y-92021785D01*
X95657142Y-91807500D01*
X95585714Y-91593214D01*
X95585714Y-91450357D01*
X95657142Y-91307500D01*
X95800000Y-91236071D01*
X95871428Y-91236071D01*
X96014285Y-91307500D01*
X96085714Y-91450357D01*
X96085714Y-91521785D01*
X96014285Y-91664642D01*
X95942857Y-91736071D01*
X95514285Y-92021785D01*
X95442857Y-92093214D01*
X95371428Y-92236071D01*
X95371428Y-92450357D01*
X95442857Y-92593214D01*
X95514285Y-92664642D01*
X95657142Y-92736071D01*
X95871428Y-92736071D01*
X96014285Y-92664642D01*
X96085714Y-92593214D01*
X96300000Y-92307500D01*
X96371428Y-92093214D01*
X96371428Y-91950357D01*
X97157142Y-92664642D02*
X97371428Y-92736071D01*
X97728571Y-92736071D01*
X97871428Y-92664642D01*
X97942857Y-92593214D01*
X98014285Y-92450357D01*
X98014285Y-92307500D01*
X97942857Y-92164642D01*
X97871428Y-92093214D01*
X97728571Y-92021785D01*
X97442857Y-91950357D01*
X97300000Y-91878928D01*
X97228571Y-91807500D01*
X97157142Y-91664642D01*
X97157142Y-91521785D01*
X97228571Y-91378928D01*
X97300000Y-91307500D01*
X97442857Y-91236071D01*
X97800000Y-91236071D01*
X98014285Y-91307500D01*
D11*
X110357142Y-65266666D02*
X110404761Y-65314285D01*
X110452380Y-65457142D01*
X110452380Y-65552380D01*
X110404761Y-65695238D01*
X110309523Y-65790476D01*
X110214285Y-65838095D01*
X110023809Y-65885714D01*
X109880952Y-65885714D01*
X109690476Y-65838095D01*
X109595238Y-65790476D01*
X109500000Y-65695238D01*
X109452380Y-65552380D01*
X109452380Y-65457142D01*
X109500000Y-65314285D01*
X109547619Y-65266666D01*
X109547619Y-64885714D02*
X109500000Y-64838095D01*
X109452380Y-64742857D01*
X109452380Y-64504761D01*
X109500000Y-64409523D01*
X109547619Y-64361904D01*
X109642857Y-64314285D01*
X109738095Y-64314285D01*
X109880952Y-64361904D01*
X110452380Y-64933333D01*
X110452380Y-64314285D01*
X174044608Y-74310899D02*
X174044608Y-73738832D01*
X175045726Y-74024865D02*
X174044608Y-74024865D01*
X175045726Y-72880730D02*
X175045726Y-73452798D01*
X175045726Y-73166764D02*
X174044608Y-73166764D01*
X174187625Y-73262109D01*
X174282970Y-73357453D01*
X174330642Y-73452798D01*
X174044608Y-72022629D02*
X174044608Y-72213318D01*
X174092281Y-72308663D01*
X174139953Y-72356335D01*
X174282970Y-72451680D01*
X174473659Y-72499352D01*
X174855037Y-72499352D01*
X174950382Y-72451680D01*
X174998054Y-72404008D01*
X175045726Y-72308663D01*
X175045726Y-72117974D01*
X174998054Y-72022629D01*
X174950382Y-71974957D01*
X174855037Y-71927285D01*
X174616676Y-71927285D01*
X174521331Y-71974957D01*
X174473659Y-72022629D01*
X174425987Y-72117974D01*
X174425987Y-72308663D01*
X174473659Y-72404008D01*
X174521331Y-72451680D01*
X174616676Y-72499352D01*
X143702380Y-66216666D02*
X143226190Y-66550000D01*
X143702380Y-66788095D02*
X142702380Y-66788095D01*
X142702380Y-66407142D01*
X142750000Y-66311904D01*
X142797619Y-66264285D01*
X142892857Y-66216666D01*
X143035714Y-66216666D01*
X143130952Y-66264285D01*
X143178571Y-66311904D01*
X143226190Y-66407142D01*
X143226190Y-66788095D01*
X143702380Y-65264285D02*
X143702380Y-65835714D01*
X143702380Y-65550000D02*
X142702380Y-65550000D01*
X142845238Y-65645238D01*
X142940476Y-65740476D01*
X142988095Y-65835714D01*
X169135714Y-92850000D02*
X169040476Y-92802380D01*
X168897619Y-92802380D01*
X168754761Y-92850000D01*
X168659523Y-92945238D01*
X168611904Y-93040476D01*
X168564285Y-93230952D01*
X168564285Y-93373809D01*
X168611904Y-93564285D01*
X168659523Y-93659523D01*
X168754761Y-93754761D01*
X168897619Y-93802380D01*
X168992857Y-93802380D01*
X169135714Y-93754761D01*
X169183333Y-93707142D01*
X169183333Y-93373809D01*
X168992857Y-93373809D01*
X170183333Y-93802380D02*
X169850000Y-93326190D01*
X169611904Y-93802380D02*
X169611904Y-92802380D01*
X169992857Y-92802380D01*
X170088095Y-92850000D01*
X170135714Y-92897619D01*
X170183333Y-92992857D01*
X170183333Y-93135714D01*
X170135714Y-93230952D01*
X170088095Y-93278571D01*
X169992857Y-93326190D01*
X169611904Y-93326190D01*
X170802380Y-92802380D02*
X170992857Y-92802380D01*
X171088095Y-92850000D01*
X171183333Y-92945238D01*
X171230952Y-93135714D01*
X171230952Y-93469047D01*
X171183333Y-93659523D01*
X171088095Y-93754761D01*
X170992857Y-93802380D01*
X170802380Y-93802380D01*
X170707142Y-93754761D01*
X170611904Y-93659523D01*
X170564285Y-93469047D01*
X170564285Y-93135714D01*
X170611904Y-92945238D01*
X170707142Y-92850000D01*
X170802380Y-92802380D01*
X171659523Y-93278571D02*
X171992857Y-93278571D01*
X172135714Y-93802380D02*
X171659523Y-93802380D01*
X171659523Y-92802380D01*
X172135714Y-92802380D01*
X172564285Y-93802380D02*
X172564285Y-92802380D01*
X173135714Y-93802380D01*
X173135714Y-92802380D01*
X174135714Y-93802380D02*
X173564285Y-93802380D01*
X173850000Y-93802380D02*
X173850000Y-92802380D01*
X173754761Y-92945238D01*
X173659523Y-93040476D01*
X173564285Y-93088095D01*
X183002380Y-90319285D02*
X182526190Y-90652619D01*
X183002380Y-90890714D02*
X182002380Y-90890714D01*
X182002380Y-90509761D01*
X182050000Y-90414523D01*
X182097619Y-90366904D01*
X182192857Y-90319285D01*
X182335714Y-90319285D01*
X182430952Y-90366904D01*
X182478571Y-90414523D01*
X182526190Y-90509761D01*
X182526190Y-90890714D01*
X182002380Y-89700238D02*
X182002380Y-89509761D01*
X182050000Y-89414523D01*
X182145238Y-89319285D01*
X182335714Y-89271666D01*
X182669047Y-89271666D01*
X182859523Y-89319285D01*
X182954761Y-89414523D01*
X183002380Y-89509761D01*
X183002380Y-89700238D01*
X182954761Y-89795476D01*
X182859523Y-89890714D01*
X182669047Y-89938333D01*
X182335714Y-89938333D01*
X182145238Y-89890714D01*
X182050000Y-89795476D01*
X182002380Y-89700238D01*
X182002380Y-88652619D02*
X182002380Y-88462142D01*
X182050000Y-88366904D01*
X182145238Y-88271666D01*
X182335714Y-88224047D01*
X182669047Y-88224047D01*
X182859523Y-88271666D01*
X182954761Y-88366904D01*
X183002380Y-88462142D01*
X183002380Y-88652619D01*
X182954761Y-88747857D01*
X182859523Y-88843095D01*
X182669047Y-88890714D01*
X182335714Y-88890714D01*
X182145238Y-88843095D01*
X182050000Y-88747857D01*
X182002380Y-88652619D01*
X183002380Y-87795476D02*
X182002380Y-87795476D01*
X182002380Y-87557380D01*
X182050000Y-87414523D01*
X182145238Y-87319285D01*
X182240476Y-87271666D01*
X182430952Y-87224047D01*
X182573809Y-87224047D01*
X182764285Y-87271666D01*
X182859523Y-87319285D01*
X182954761Y-87414523D01*
X183002380Y-87557380D01*
X183002380Y-87795476D01*
X183002380Y-86271666D02*
X183002380Y-86843095D01*
X183002380Y-86557380D02*
X182002380Y-86557380D01*
X182145238Y-86652619D01*
X182240476Y-86747857D01*
X182288095Y-86843095D01*
X154143821Y-93454954D02*
X154233913Y-93484984D01*
X154263943Y-93515015D01*
X154293974Y-93575076D01*
X154293974Y-93665168D01*
X154263943Y-93725229D01*
X154233913Y-93755260D01*
X154173851Y-93785290D01*
X153933606Y-93785290D01*
X153933606Y-93154647D01*
X154143821Y-93154647D01*
X154203882Y-93184678D01*
X154233913Y-93214709D01*
X154263943Y-93274770D01*
X154263943Y-93334831D01*
X154233913Y-93394892D01*
X154203882Y-93424923D01*
X154143821Y-93454954D01*
X153933606Y-93454954D01*
X154684372Y-93154647D02*
X154804494Y-93154647D01*
X154864556Y-93184678D01*
X154924617Y-93244739D01*
X154954647Y-93364862D01*
X154954647Y-93575076D01*
X154924617Y-93695199D01*
X154864556Y-93755260D01*
X154804494Y-93785290D01*
X154684372Y-93785290D01*
X154624311Y-93755260D01*
X154564249Y-93695199D01*
X154534219Y-93575076D01*
X154534219Y-93364862D01*
X154564249Y-93244739D01*
X154624311Y-93184678D01*
X154684372Y-93154647D01*
X155345045Y-93154647D02*
X155465168Y-93154647D01*
X155525229Y-93184678D01*
X155585290Y-93244739D01*
X155615321Y-93364862D01*
X155615321Y-93575076D01*
X155585290Y-93695199D01*
X155525229Y-93755260D01*
X155465168Y-93785290D01*
X155345045Y-93785290D01*
X155284984Y-93755260D01*
X155224923Y-93695199D01*
X155194892Y-93575076D01*
X155194892Y-93364862D01*
X155224923Y-93244739D01*
X155284984Y-93184678D01*
X155345045Y-93154647D01*
X155795505Y-93154647D02*
X156155872Y-93154647D01*
X155975688Y-93785290D02*
X155975688Y-93154647D01*
X156696423Y-93785290D02*
X156336056Y-93785290D01*
X156516240Y-93785290D02*
X156516240Y-93154647D01*
X156456178Y-93244739D01*
X156396117Y-93304800D01*
X156336056Y-93334831D01*
X128533333Y-64207142D02*
X128485714Y-64254761D01*
X128342857Y-64302380D01*
X128247619Y-64302380D01*
X128104761Y-64254761D01*
X128009523Y-64159523D01*
X127961904Y-64064285D01*
X127914285Y-63873809D01*
X127914285Y-63730952D01*
X127961904Y-63540476D01*
X128009523Y-63445238D01*
X128104761Y-63350000D01*
X128247619Y-63302380D01*
X128342857Y-63302380D01*
X128485714Y-63350000D01*
X128533333Y-63397619D01*
X129390476Y-63302380D02*
X129200000Y-63302380D01*
X129104761Y-63350000D01*
X129057142Y-63397619D01*
X128961904Y-63540476D01*
X128914285Y-63730952D01*
X128914285Y-64111904D01*
X128961904Y-64207142D01*
X129009523Y-64254761D01*
X129104761Y-64302380D01*
X129295238Y-64302380D01*
X129390476Y-64254761D01*
X129438095Y-64207142D01*
X129485714Y-64111904D01*
X129485714Y-63873809D01*
X129438095Y-63778571D01*
X129390476Y-63730952D01*
X129295238Y-63683333D01*
X129104761Y-63683333D01*
X129009523Y-63730952D01*
X128961904Y-63778571D01*
X128914285Y-63873809D01*
X134901768Y-79889479D02*
X134901768Y-79317412D01*
X135902886Y-79603445D02*
X134901768Y-79603445D01*
X135902886Y-78459310D02*
X135902886Y-79031378D01*
X135902886Y-78745344D02*
X134901768Y-78745344D01*
X135044785Y-78840689D01*
X135140130Y-78936033D01*
X135187802Y-79031378D01*
X134901768Y-77839571D02*
X134901768Y-77744226D01*
X134949441Y-77648882D01*
X134997113Y-77601209D01*
X135092457Y-77553537D01*
X135283147Y-77505865D01*
X135521508Y-77505865D01*
X135712197Y-77553537D01*
X135807542Y-77601209D01*
X135855214Y-77648882D01*
X135902886Y-77744226D01*
X135902886Y-77839571D01*
X135855214Y-77934915D01*
X135807542Y-77982588D01*
X135712197Y-78030260D01*
X135521508Y-78077932D01*
X135283147Y-78077932D01*
X135092457Y-78030260D01*
X134997113Y-77982588D01*
X134949441Y-77934915D01*
X134901768Y-77839571D01*
X174094608Y-67160899D02*
X174094608Y-66588832D01*
X175095726Y-66874865D02*
X174094608Y-66874865D01*
X175095726Y-65730730D02*
X175095726Y-66302798D01*
X175095726Y-66016764D02*
X174094608Y-66016764D01*
X174237625Y-66112109D01*
X174332970Y-66207453D01*
X174380642Y-66302798D01*
X174428314Y-64872629D02*
X175095726Y-64872629D01*
X174046936Y-65110991D02*
X174762020Y-65349352D01*
X174762020Y-64729612D01*
X134801768Y-71662756D02*
X134801768Y-71090689D01*
X135802886Y-71376722D02*
X134801768Y-71376722D01*
X135230819Y-70613966D02*
X135183147Y-70709310D01*
X135135474Y-70756983D01*
X135040130Y-70804655D01*
X134992457Y-70804655D01*
X134897113Y-70756983D01*
X134849441Y-70709310D01*
X134801768Y-70613966D01*
X134801768Y-70423277D01*
X134849441Y-70327932D01*
X134897113Y-70280260D01*
X134992457Y-70232588D01*
X135040130Y-70232588D01*
X135135474Y-70280260D01*
X135183147Y-70327932D01*
X135230819Y-70423277D01*
X135230819Y-70613966D01*
X135278491Y-70709310D01*
X135326163Y-70756983D01*
X135421508Y-70804655D01*
X135612197Y-70804655D01*
X135707542Y-70756983D01*
X135755214Y-70709310D01*
X135802886Y-70613966D01*
X135802886Y-70423277D01*
X135755214Y-70327932D01*
X135707542Y-70280260D01*
X135612197Y-70232588D01*
X135421508Y-70232588D01*
X135326163Y-70280260D01*
X135278491Y-70327932D01*
X135230819Y-70423277D01*
X139337243Y-74301768D02*
X139909310Y-74301768D01*
X139623277Y-75302886D02*
X139623277Y-74301768D01*
X140767412Y-75302886D02*
X140195344Y-75302886D01*
X140481378Y-75302886D02*
X140481378Y-74301768D01*
X140386033Y-74444785D01*
X140290689Y-74540130D01*
X140195344Y-74587802D01*
X105333333Y-68207142D02*
X105285714Y-68254761D01*
X105142857Y-68302380D01*
X105047619Y-68302380D01*
X104904761Y-68254761D01*
X104809523Y-68159523D01*
X104761904Y-68064285D01*
X104714285Y-67873809D01*
X104714285Y-67730952D01*
X104761904Y-67540476D01*
X104809523Y-67445238D01*
X104904761Y-67350000D01*
X105047619Y-67302380D01*
X105142857Y-67302380D01*
X105285714Y-67350000D01*
X105333333Y-67397619D01*
X105666666Y-67302380D02*
X106333333Y-67302380D01*
X105904761Y-68302380D01*
X148813095Y-54817380D02*
X148813095Y-55626904D01*
X148860714Y-55722142D01*
X148908333Y-55769761D01*
X149003571Y-55817380D01*
X149194047Y-55817380D01*
X149289285Y-55769761D01*
X149336904Y-55722142D01*
X149384523Y-55626904D01*
X149384523Y-54817380D01*
X150384523Y-55817380D02*
X149813095Y-55817380D01*
X150098809Y-55817380D02*
X150098809Y-54817380D01*
X150003571Y-54960238D01*
X149908333Y-55055476D01*
X149813095Y-55103095D01*
X155551768Y-85689479D02*
X155551768Y-85117412D01*
X156552886Y-85403445D02*
X155551768Y-85403445D01*
X155647113Y-84831378D02*
X155599441Y-84783706D01*
X155551768Y-84688361D01*
X155551768Y-84450000D01*
X155599441Y-84354655D01*
X155647113Y-84306983D01*
X155742457Y-84259310D01*
X155837802Y-84259310D01*
X155980819Y-84306983D01*
X156552886Y-84879050D01*
X156552886Y-84259310D01*
X155551768Y-83925604D02*
X155551768Y-83305865D01*
X155933147Y-83639571D01*
X155933147Y-83496554D01*
X155980819Y-83401209D01*
X156028491Y-83353537D01*
X156123836Y-83305865D01*
X156362197Y-83305865D01*
X156457542Y-83353537D01*
X156505214Y-83401209D01*
X156552886Y-83496554D01*
X156552886Y-83782588D01*
X156505214Y-83877932D01*
X156457542Y-83925604D01*
X130833333Y-64157142D02*
X130785714Y-64204761D01*
X130642857Y-64252380D01*
X130547619Y-64252380D01*
X130404761Y-64204761D01*
X130309523Y-64109523D01*
X130261904Y-64014285D01*
X130214285Y-63823809D01*
X130214285Y-63680952D01*
X130261904Y-63490476D01*
X130309523Y-63395238D01*
X130404761Y-63300000D01*
X130547619Y-63252380D01*
X130642857Y-63252380D01*
X130785714Y-63300000D01*
X130833333Y-63347619D01*
X131166666Y-63252380D02*
X131785714Y-63252380D01*
X131452380Y-63633333D01*
X131595238Y-63633333D01*
X131690476Y-63680952D01*
X131738095Y-63728571D01*
X131785714Y-63823809D01*
X131785714Y-64061904D01*
X131738095Y-64157142D01*
X131690476Y-64204761D01*
X131595238Y-64252380D01*
X131309523Y-64252380D01*
X131214285Y-64204761D01*
X131166666Y-64157142D01*
X134751768Y-92439479D02*
X134751768Y-91867412D01*
X135752886Y-92153445D02*
X134751768Y-92153445D01*
X135752886Y-91009310D02*
X135752886Y-91581378D01*
X135752886Y-91295344D02*
X134751768Y-91295344D01*
X134894785Y-91390689D01*
X134990130Y-91486033D01*
X135037802Y-91581378D01*
X134751768Y-90675604D02*
X134751768Y-90055865D01*
X135133147Y-90389571D01*
X135133147Y-90246554D01*
X135180819Y-90151209D01*
X135228491Y-90103537D01*
X135323836Y-90055865D01*
X135562197Y-90055865D01*
X135657542Y-90103537D01*
X135705214Y-90151209D01*
X135752886Y-90246554D01*
X135752886Y-90532588D01*
X135705214Y-90627932D01*
X135657542Y-90675604D01*
X143657142Y-69116666D02*
X143704761Y-69164285D01*
X143752380Y-69307142D01*
X143752380Y-69402380D01*
X143704761Y-69545238D01*
X143609523Y-69640476D01*
X143514285Y-69688095D01*
X143323809Y-69735714D01*
X143180952Y-69735714D01*
X142990476Y-69688095D01*
X142895238Y-69640476D01*
X142800000Y-69545238D01*
X142752380Y-69402380D01*
X142752380Y-69307142D01*
X142800000Y-69164285D01*
X142847619Y-69116666D01*
X143752380Y-68164285D02*
X143752380Y-68735714D01*
X143752380Y-68450000D02*
X142752380Y-68450000D01*
X142895238Y-68545238D01*
X142990476Y-68640476D01*
X143038095Y-68735714D01*
X133183333Y-64107142D02*
X133135714Y-64154761D01*
X132992857Y-64202380D01*
X132897619Y-64202380D01*
X132754761Y-64154761D01*
X132659523Y-64059523D01*
X132611904Y-63964285D01*
X132564285Y-63773809D01*
X132564285Y-63630952D01*
X132611904Y-63440476D01*
X132659523Y-63345238D01*
X132754761Y-63250000D01*
X132897619Y-63202380D01*
X132992857Y-63202380D01*
X133135714Y-63250000D01*
X133183333Y-63297619D01*
X134040476Y-63535714D02*
X134040476Y-64202380D01*
X133802380Y-63154761D02*
X133564285Y-63869047D01*
X134183333Y-63869047D01*
X174044608Y-70660899D02*
X174044608Y-70088832D01*
X175045726Y-70374865D02*
X174044608Y-70374865D01*
X175045726Y-69230730D02*
X175045726Y-69802798D01*
X175045726Y-69516764D02*
X174044608Y-69516764D01*
X174187625Y-69612109D01*
X174282970Y-69707453D01*
X174330642Y-69802798D01*
X174044608Y-68324957D02*
X174044608Y-68801680D01*
X174521331Y-68849352D01*
X174473659Y-68801680D01*
X174425987Y-68706335D01*
X174425987Y-68467974D01*
X174473659Y-68372629D01*
X174521331Y-68324957D01*
X174616676Y-68277285D01*
X174855037Y-68277285D01*
X174950382Y-68324957D01*
X174998054Y-68372629D01*
X175045726Y-68467974D01*
X175045726Y-68706335D01*
X174998054Y-68801680D01*
X174950382Y-68849352D01*
X138784219Y-70904954D02*
X138994433Y-70904954D01*
X139084525Y-71235290D02*
X138784219Y-71235290D01*
X138784219Y-70604647D01*
X139084525Y-70604647D01*
X139354800Y-71235290D02*
X139354800Y-70604647D01*
X139715168Y-71235290D01*
X139715168Y-70604647D01*
X140345811Y-71235290D02*
X139985443Y-71235290D01*
X140165627Y-71235290D02*
X140165627Y-70604647D01*
X140105566Y-70694739D01*
X140045505Y-70754800D01*
X139985443Y-70784831D01*
X134701768Y-84289479D02*
X134701768Y-83717412D01*
X135702886Y-84003445D02*
X134701768Y-84003445D01*
X135702886Y-82859310D02*
X135702886Y-83431378D01*
X135702886Y-83145344D02*
X134701768Y-83145344D01*
X134844785Y-83240689D01*
X134940130Y-83336033D01*
X134987802Y-83431378D01*
X135702886Y-81905865D02*
X135702886Y-82477932D01*
X135702886Y-82191898D02*
X134701768Y-82191898D01*
X134844785Y-82287243D01*
X134940130Y-82382588D01*
X134987802Y-82477932D01*
X174144608Y-81810899D02*
X174144608Y-81238832D01*
X175145726Y-81524865D02*
X174144608Y-81524865D01*
X175145726Y-80380730D02*
X175145726Y-80952798D01*
X175145726Y-80666764D02*
X174144608Y-80666764D01*
X174287625Y-80762109D01*
X174382970Y-80857453D01*
X174430642Y-80952798D01*
X174573659Y-79808663D02*
X174525987Y-79904008D01*
X174478314Y-79951680D01*
X174382970Y-79999352D01*
X174335297Y-79999352D01*
X174239953Y-79951680D01*
X174192281Y-79904008D01*
X174144608Y-79808663D01*
X174144608Y-79617974D01*
X174192281Y-79522629D01*
X174239953Y-79474957D01*
X174335297Y-79427285D01*
X174382970Y-79427285D01*
X174478314Y-79474957D01*
X174525987Y-79522629D01*
X174573659Y-79617974D01*
X174573659Y-79808663D01*
X174621331Y-79904008D01*
X174669003Y-79951680D01*
X174764348Y-79999352D01*
X174955037Y-79999352D01*
X175050382Y-79951680D01*
X175098054Y-79904008D01*
X175145726Y-79808663D01*
X175145726Y-79617974D01*
X175098054Y-79522629D01*
X175050382Y-79474957D01*
X174955037Y-79427285D01*
X174764348Y-79427285D01*
X174669003Y-79474957D01*
X174621331Y-79522629D01*
X174573659Y-79617974D01*
X123492857Y-81552380D02*
X123683333Y-81552380D01*
X123778571Y-81600000D01*
X123873809Y-81695238D01*
X123921428Y-81885714D01*
X123921428Y-82219047D01*
X123873809Y-82409523D01*
X123778571Y-82504761D01*
X123683333Y-82552380D01*
X123492857Y-82552380D01*
X123397619Y-82504761D01*
X123302380Y-82409523D01*
X123254761Y-82219047D01*
X123254761Y-81885714D01*
X123302380Y-81695238D01*
X123397619Y-81600000D01*
X123492857Y-81552380D01*
X124921428Y-82552380D02*
X124588095Y-82076190D01*
X124350000Y-82552380D02*
X124350000Y-81552380D01*
X124730952Y-81552380D01*
X124826190Y-81600000D01*
X124873809Y-81647619D01*
X124921428Y-81742857D01*
X124921428Y-81885714D01*
X124873809Y-81980952D01*
X124826190Y-82028571D01*
X124730952Y-82076190D01*
X124350000Y-82076190D01*
X125302380Y-82266666D02*
X125778571Y-82266666D01*
X125207142Y-82552380D02*
X125540476Y-81552380D01*
X125873809Y-82552380D01*
X126207142Y-82552380D02*
X126207142Y-81552380D01*
X126778571Y-82552380D01*
X126778571Y-81552380D01*
X127540476Y-81552380D02*
X127540476Y-82266666D01*
X127492857Y-82409523D01*
X127397619Y-82504761D01*
X127254761Y-82552380D01*
X127159523Y-82552380D01*
X128016666Y-82028571D02*
X128350000Y-82028571D01*
X128492857Y-82552380D02*
X128016666Y-82552380D01*
X128016666Y-81552380D01*
X128492857Y-81552380D01*
X128873809Y-81647619D02*
X128921428Y-81600000D01*
X129016666Y-81552380D01*
X129254761Y-81552380D01*
X129350000Y-81600000D01*
X129397619Y-81647619D01*
X129445238Y-81742857D01*
X129445238Y-81838095D01*
X129397619Y-81980952D01*
X128826190Y-82552380D01*
X129445238Y-82552380D01*
X134901768Y-75462756D02*
X134901768Y-74890689D01*
X135902886Y-75176722D02*
X134901768Y-75176722D01*
X135902886Y-74509310D02*
X135902886Y-74318621D01*
X135855214Y-74223277D01*
X135807542Y-74175604D01*
X135664525Y-74080260D01*
X135473836Y-74032588D01*
X135092457Y-74032588D01*
X134997113Y-74080260D01*
X134949441Y-74127932D01*
X134901768Y-74223277D01*
X134901768Y-74413966D01*
X134949441Y-74509310D01*
X134997113Y-74556983D01*
X135092457Y-74604655D01*
X135330819Y-74604655D01*
X135426163Y-74556983D01*
X135473836Y-74509310D01*
X135521508Y-74413966D01*
X135521508Y-74223277D01*
X135473836Y-74127932D01*
X135426163Y-74080260D01*
X135330819Y-74032588D01*
X134851768Y-88339479D02*
X134851768Y-87767412D01*
X135852886Y-88053445D02*
X134851768Y-88053445D01*
X135852886Y-86909310D02*
X135852886Y-87481378D01*
X135852886Y-87195344D02*
X134851768Y-87195344D01*
X134994785Y-87290689D01*
X135090130Y-87386033D01*
X135137802Y-87481378D01*
X134947113Y-86527932D02*
X134899441Y-86480260D01*
X134851768Y-86384915D01*
X134851768Y-86146554D01*
X134899441Y-86051209D01*
X134947113Y-86003537D01*
X135042457Y-85955865D01*
X135137802Y-85955865D01*
X135280819Y-86003537D01*
X135852886Y-86575604D01*
X135852886Y-85955865D01*
X123542857Y-79702380D02*
X123733333Y-79702380D01*
X123828571Y-79750000D01*
X123923809Y-79845238D01*
X123971428Y-80035714D01*
X123971428Y-80369047D01*
X123923809Y-80559523D01*
X123828571Y-80654761D01*
X123733333Y-80702380D01*
X123542857Y-80702380D01*
X123447619Y-80654761D01*
X123352380Y-80559523D01*
X123304761Y-80369047D01*
X123304761Y-80035714D01*
X123352380Y-79845238D01*
X123447619Y-79750000D01*
X123542857Y-79702380D01*
X124971428Y-80702380D02*
X124638095Y-80226190D01*
X124400000Y-80702380D02*
X124400000Y-79702380D01*
X124780952Y-79702380D01*
X124876190Y-79750000D01*
X124923809Y-79797619D01*
X124971428Y-79892857D01*
X124971428Y-80035714D01*
X124923809Y-80130952D01*
X124876190Y-80178571D01*
X124780952Y-80226190D01*
X124400000Y-80226190D01*
X125352380Y-80416666D02*
X125828571Y-80416666D01*
X125257142Y-80702380D02*
X125590476Y-79702380D01*
X125923809Y-80702380D01*
X126257142Y-80702380D02*
X126257142Y-79702380D01*
X126828571Y-80702380D01*
X126828571Y-79702380D01*
X127590476Y-79702380D02*
X127590476Y-80416666D01*
X127542857Y-80559523D01*
X127447619Y-80654761D01*
X127304761Y-80702380D01*
X127209523Y-80702380D01*
X128066666Y-80178571D02*
X128400000Y-80178571D01*
X128542857Y-80702380D02*
X128066666Y-80702380D01*
X128066666Y-79702380D01*
X128542857Y-79702380D01*
X129495238Y-80702380D02*
X128923809Y-80702380D01*
X129209523Y-80702380D02*
X129209523Y-79702380D01*
X129114285Y-79845238D01*
X129019047Y-79940476D01*
X128923809Y-79988095D01*
X105433333Y-70357142D02*
X105385714Y-70404761D01*
X105242857Y-70452380D01*
X105147619Y-70452380D01*
X105004761Y-70404761D01*
X104909523Y-70309523D01*
X104861904Y-70214285D01*
X104814285Y-70023809D01*
X104814285Y-69880952D01*
X104861904Y-69690476D01*
X104909523Y-69595238D01*
X105004761Y-69500000D01*
X105147619Y-69452380D01*
X105242857Y-69452380D01*
X105385714Y-69500000D01*
X105433333Y-69547619D01*
X106004761Y-69880952D02*
X105909523Y-69833333D01*
X105861904Y-69785714D01*
X105814285Y-69690476D01*
X105814285Y-69642857D01*
X105861904Y-69547619D01*
X105909523Y-69500000D01*
X106004761Y-69452380D01*
X106195238Y-69452380D01*
X106290476Y-69500000D01*
X106338095Y-69547619D01*
X106385714Y-69642857D01*
X106385714Y-69690476D01*
X106338095Y-69785714D01*
X106290476Y-69833333D01*
X106195238Y-69880952D01*
X106004761Y-69880952D01*
X105909523Y-69928571D01*
X105861904Y-69976190D01*
X105814285Y-70071428D01*
X105814285Y-70261904D01*
X105861904Y-70357142D01*
X105909523Y-70404761D01*
X106004761Y-70452380D01*
X106195238Y-70452380D01*
X106290476Y-70404761D01*
X106338095Y-70357142D01*
X106385714Y-70261904D01*
X106385714Y-70071428D01*
X106338095Y-69976190D01*
X106290476Y-69928571D01*
X106195238Y-69880952D01*
X174044608Y-77910899D02*
X174044608Y-77338832D01*
X175045726Y-77624865D02*
X174044608Y-77624865D01*
X175045726Y-76480730D02*
X175045726Y-77052798D01*
X175045726Y-76766764D02*
X174044608Y-76766764D01*
X174187625Y-76862109D01*
X174282970Y-76957453D01*
X174330642Y-77052798D01*
X174044608Y-76147024D02*
X174044608Y-75479612D01*
X175045726Y-75908663D01*
D12*
X116750000Y-64050000D02*
X115220000Y-64050000D01*
X111450000Y-68250000D02*
X112550000Y-69350000D01*
X116750000Y-68250000D02*
X116750000Y-64050000D01*
X112550000Y-69350000D02*
X112980000Y-69350000D01*
X115650000Y-69350000D02*
X116750000Y-68250000D01*
X111450000Y-64050000D02*
X111450000Y-68250000D01*
X112980000Y-64050000D02*
X111450000Y-64050000D01*
X115220000Y-69350000D02*
X115650000Y-69350000D01*
D13*
X112850000Y-70850000D02*
G75*
G03*
X112850000Y-70850000I-100000J0D01*
G01*
X93700000Y-78050000D02*
X91650000Y-78050000D01*
X91650000Y-78050000D02*
X91650000Y-76800000D01*
X100650000Y-63750000D02*
X91650000Y-63750000D01*
X91650000Y-63750000D02*
X91650000Y-72300000D01*
X98600000Y-78050000D02*
X100650000Y-78050000D01*
X100650000Y-78050000D02*
X100650000Y-63750000D01*
D14*
X145335000Y-65322936D02*
X145335000Y-65777064D01*
X143865000Y-65322936D02*
X143865000Y-65777064D01*
X164550000Y-88320000D02*
X164550000Y-90980000D01*
X174770000Y-88320000D02*
X164550000Y-88320000D01*
X174770000Y-90980000D02*
X164550000Y-90980000D01*
X174770000Y-88320000D02*
X174770000Y-90980000D01*
X177370000Y-88320000D02*
X177370000Y-89650000D01*
X176040000Y-88320000D02*
X177370000Y-88320000D01*
X178420000Y-87570000D02*
X181080000Y-87570000D01*
X178420000Y-77350000D02*
X181080000Y-77350000D01*
X178420000Y-74750000D02*
X179750000Y-74750000D01*
X178420000Y-76080000D02*
X178420000Y-74750000D01*
X181080000Y-77350000D02*
X181080000Y-87570000D01*
X178420000Y-77350000D02*
X178420000Y-87570000D01*
D12*
X160500000Y-88100000D02*
X160500000Y-90400000D01*
X154505000Y-88100000D02*
X154505000Y-90400000D01*
X159800000Y-92245000D02*
X155200000Y-92245000D01*
X155300000Y-86255000D02*
X159800000Y-86255000D01*
D13*
X153155000Y-87000000D02*
G75*
G03*
X153155000Y-87000000I-100000J0D01*
G01*
D12*
X159255000Y-89250000D02*
G75*
G03*
X159255000Y-89250000I-1755000J0D01*
G01*
D14*
X129485000Y-66138748D02*
X129485000Y-66661252D01*
X128015000Y-66138748D02*
X128015000Y-66661252D01*
X108588748Y-70735000D02*
X109111252Y-70735000D01*
X108588748Y-69265000D02*
X109111252Y-69265000D01*
X118824000Y-72059000D02*
X102949000Y-72059000D01*
X102949000Y-72059000D02*
X102949000Y-93014000D01*
X102949000Y-93014000D02*
X118824000Y-93014000D01*
X118824000Y-93014000D02*
X118824000Y-72059000D01*
D12*
X165150000Y-56500000D02*
X165150000Y-63000000D01*
X147150000Y-63000000D02*
X147150000Y-56500000D01*
X165150000Y-82000000D02*
X165150000Y-81350000D01*
X147150000Y-82000000D02*
X149600000Y-82000000D01*
X147150000Y-81350000D02*
X147150000Y-82000000D01*
X162700000Y-82000000D02*
X165150000Y-82000000D01*
X147150000Y-56500000D02*
X165150000Y-56500000D01*
D14*
X131635000Y-66138748D02*
X131635000Y-66661252D01*
X130165000Y-66138748D02*
X130165000Y-66661252D01*
X143965000Y-69561252D02*
X143965000Y-69038748D01*
X145435000Y-69561252D02*
X145435000Y-69038748D01*
X132665000Y-66088748D02*
X132665000Y-66611252D01*
X134135000Y-66088748D02*
X134135000Y-66611252D01*
X181130000Y-71130000D02*
X178470000Y-71130000D01*
X178470000Y-71130000D02*
X178470000Y-63450000D01*
X181130000Y-71130000D02*
X181130000Y-63450000D01*
X181130000Y-72400000D02*
X181130000Y-73730000D01*
X181130000Y-63450000D02*
X178470000Y-63450000D01*
X181130000Y-73730000D02*
X179800000Y-73730000D01*
D12*
X142545000Y-64885000D02*
X142545000Y-69385000D01*
X140700000Y-64090000D02*
X138400000Y-64090000D01*
X140700000Y-70085000D02*
X138400000Y-70085000D01*
X136555000Y-69385000D02*
X136555000Y-64785000D01*
X141305000Y-67085000D02*
G75*
G03*
X141305000Y-67085000I-1755000J0D01*
G01*
D13*
X141900000Y-62640000D02*
G75*
G03*
X141900000Y-62640000I-100000J0D01*
G01*
D12*
X120690000Y-69960000D02*
X124410000Y-69960000D01*
X120690000Y-63240000D02*
X124410000Y-63240000D01*
X124410000Y-64840000D02*
X124410000Y-63240000D01*
X120690000Y-69710000D02*
X120690000Y-69960000D01*
X124410000Y-69960000D02*
X124410000Y-68470000D01*
X120690000Y-63240000D02*
X120690000Y-63500000D01*
D13*
X117947000Y-64310000D02*
G75*
G03*
X117947000Y-64310000I-100000J0D01*
G01*
D14*
X126380000Y-85830000D02*
X126380000Y-83230000D01*
X126380000Y-83230000D02*
X128980000Y-83230000D01*
X123780000Y-84560000D02*
X123780000Y-83230000D01*
X123780000Y-85830000D02*
X126380000Y-85830000D01*
X123780000Y-85830000D02*
X123780000Y-90970000D01*
X128980000Y-83230000D02*
X128980000Y-90970000D01*
X123780000Y-83230000D02*
X125110000Y-83230000D01*
X123780000Y-90970000D02*
X128980000Y-90970000D01*
X123980000Y-70780000D02*
X125310000Y-70780000D01*
X123980000Y-73380000D02*
X126580000Y-73380000D01*
X126580000Y-73380000D02*
X126580000Y-70780000D01*
X123980000Y-73380000D02*
X123980000Y-78520000D01*
X123980000Y-78520000D02*
X129180000Y-78520000D01*
X129180000Y-70780000D02*
X129180000Y-78520000D01*
X123980000Y-72110000D02*
X123980000Y-70780000D01*
X126580000Y-70780000D02*
X129180000Y-70780000D01*
X109161252Y-67015000D02*
X108638748Y-67015000D01*
X109161252Y-68485000D02*
X108638748Y-68485000D01*
M02*
