<?xml version="1.0" encoding="UTF-8" standalone="no"?>
<!-- Created with Inkscape (http://www.inkscape.org/) -->

<svg
   width="137.23831mm"
   height="132.23848mm"
   viewBox="0 0 137.23831 132.23848"
   version="1.1"
   id="svg12317"
   sodipodi:docname="fiets_juiste_bovenzijde.svg"
   inkscape:version="1.1.2 (b8e25be833, 2022-02-05)"
   xmlns:inkscape="http://www.inkscape.org/namespaces/inkscape"
   xmlns:sodipodi="http://sodipodi.sourceforge.net/DTD/sodipodi-0.dtd"
   xmlns="http://www.w3.org/2000/svg"
   xmlns:svg="http://www.w3.org/2000/svg">
  <sodipodi:namedview
     id="namedview12319"
     pagecolor="#ffffff"
     bordercolor="#666666"
     borderopacity="1.0"
     inkscape:pageshadow="2"
     inkscape:pageopacity="0.0"
     inkscape:pagecheckerboard="0"
     inkscape:document-units="mm"
     showgrid="false"
     inkscape:zoom="0.7198092"
     inkscape:cx="435.53208"
     inkscape:cy="281.32455"
     inkscape:window-width="1920"
     inkscape:window-height="1001"
     inkscape:window-x="-9"
     inkscape:window-y="-9"
     inkscape:window-maximized="1"
     inkscape:current-layer="g12841" />
  <defs
     id="defs12314">
    <marker
       id="DistanceX"
       orient="auto"
       refX="0"
       refY="0"
       style="overflow:visible">
      <path
         d="M 3,-3 -3,3 M 0,-5 V 5"
         style="stroke:#000000;stroke-width:0.5"
         id="path12380" />
    </marker>
    <pattern
       id="Hatch"
       patternUnits="userSpaceOnUse"
       width="8"
       height="8"
       x="0"
       y="0">
      <path
         d="M8 4 l-4,4"
         stroke="#000000"
         stroke-width="0.25"
         linecap="square"
         id="path12383" />
      <path
         d="M6 2 l-4,4"
         stroke="#000000"
         stroke-width="0.25"
         linecap="square"
         id="path12385" />
      <path
         d="M4 0 l-4,4"
         stroke="#000000"
         stroke-width="0.25"
         linecap="square"
         id="path12387" />
    </pattern>
    <symbol
       id="*Model_Space" />
    <symbol
       id="*Paper_Space" />
    <symbol
       id="*Paper_Space0" />
  </defs>
  <g
     inkscape:label="Layer 1"
     inkscape:groupmode="layer"
     id="layer1"
     transform="translate(10.17485,14.0967)">
    <g
       inkscape:label="0"
       id="g12841"
       transform="matrix(0.26458333,0,0,0.26458333,58.444307,-244.97767)">
      <path
         style="fill:none;stroke:#000000;stroke-width:0.9;stroke-linecap:round"
         d="M 64.0748,984.223 H 62.8877"
         id="path12395" />
      <path
         style="fill:none;stroke:#000000;stroke-width:0.9;stroke-linecap:round"
         d="m 62.8877,984.223 v -9.667"
         id="path12397" />
      <path
         style="fill:none;stroke:#000000;stroke-width:0.9;stroke-linecap:round"
         d="m 62.8877,974.556 h 1.1871"
         id="path12399" />
      <path
         style="fill:none;stroke:#000000;stroke-width:0.9;stroke-linecap:round"
         d="m 64.0748,974.556 v 1.423"
         id="path12401" />
      <path
         d="m 64.074812,975.97935 c 0.08764,-0.13249 0.175285,-0.26498 0.27029,-0.39218 0.08669,-0.11607 0.179515,-0.22773 0.278241,-0.33389 0.0894,-0.0961 0.183637,-0.18777 0.28354,-0.27294 0.09229,-0.0787 0.189413,-0.15185 0.29149,-0.21729 0.0959,-0.0615 0.196163,-0.11614 0.29944,-0.1643 0.0997,-0.0465 0.202195,-0.0869 0.307389,-0.11924 0.101332,-0.0311 0.205165,-0.0547 0.31004,-0.0689 0.105296,-0.0143 0.211643,-0.019 0.317989,-0.0239"
         style="fill:none;stroke:#000000;stroke-width:0.9;stroke-linecap:round"
         id="path12403" />
      <path
         d="m 66.433231,974.38676 c 0.08249,0.005 0.164986,0.009 0.246441,0.0212 0.08614,0.0129 0.171127,0.0344 0.254392,0.061 0.08975,0.0286 0.1775,0.063 0.262341,0.10334 0.0924,0.0439 0.181344,0.0948 0.27029,0.14575"
         style="fill:none;stroke:#000000;stroke-width:0.9;stroke-linecap:round"
         id="path12405" />
      <path
         style="fill:none;stroke:#000000;stroke-width:0.9;stroke-linecap:round"
         d="m 67.4667,974.718 -0.6519,1.028"
         id="path12407" />
      <path
         d="m 66.814818,975.74616 c -0.05711,-0.0255 -0.11421,-0.051 -0.172244,-0.0742 -0.05213,-0.0209 -0.105002,-0.04 -0.158995,-0.0556 -0.04781,-0.0139 -0.09651,-0.0251 -0.145745,-0.0318 -0.043,-0.006 -0.08642,-0.008 -0.129846,-0.0106"
         style="fill:none;stroke:#000000;stroke-width:0.9;stroke-linecap:round"
         id="path12409" />
      <path
         d="m 66.207988,975.57392 c -0.09526,0.006 -0.190531,0.0127 -0.28354,0.0318 -0.0967,0.0199 -0.190964,0.0535 -0.28089,0.0954 -0.09575,0.0446 -0.186591,0.0986 -0.272941,0.159 -0.09572,0.067 -0.185924,0.14181 -0.270291,0.22259 -0.04516,0.0432 -0.08864,0.0882 -0.129845,0.13515 -0.04313,0.0492 -0.08376,0.10055 -0.121896,0.15369 -0.03943,0.0549 -0.07619,0.11178 -0.111296,0.16959 -0.03737,0.0616 -0.07288,0.12423 -0.105996,0.18815 -0.03508,0.0677 -0.06749,0.1368 -0.09805,0.20669 -0.03208,0.0734 -0.06212,0.14759 -0.0901,0.22259 -0.02968,0.0796 -0.05703,0.16003 -0.08215,0.24115 -0.02638,0.0852 -0.05029,0.17111 -0.0742,0.25704"
         style="fill:none;stroke:#000000;stroke-width:0.9;stroke-linecap:round"
         id="path12411" />
      <path
         d="m 64.286804,977.65675 c -0.01789,0.0766 -0.03577,0.15327 -0.05035,0.23054 -0.01771,0.0939 -0.03053,0.18867 -0.0424,0.28354 -0.01402,0.11204 -0.0267,0.22417 -0.0371,0.33654 -0.012,0.12963 -0.02096,0.25957 -0.02915,0.38953 -0.0092,0.14657 -0.01751,0.29319 -0.02385,0.43989 -0.0071,0.16422 -0.01177,0.32855 -0.0159,0.49288 -0.0046,0.18195 -0.0085,0.3639 -0.0106,0.54588 -0.0023,0.19961 -0.0025,0.39925 -0.0026,0.59888"
         style="fill:none;stroke:#000000;stroke-width:0.9;stroke-linecap:round"
         id="path12413" />
      <path
         style="fill:none;stroke:#000000;stroke-width:0.9;stroke-linecap:round"
         d="m 64.0748,980.974 v 3.249"
         id="path12415" />
      <path
         style="fill:none;stroke:#000000;stroke-width:0.9;stroke-linecap:round"
         d="m 77.3032,976.345 v -1.789"
         id="path12417" />
      <path
         style="fill:none;stroke:#000000;stroke-width:0.9;stroke-linecap:round"
         d="m 77.3032,974.556 h 1.1871"
         id="path12419" />
      <path
         style="fill:none;stroke:#000000;stroke-width:0.9;stroke-linecap:round"
         d="m 78.4903,974.556 v 9.667"
         id="path12421" />
      <path
         style="fill:none;stroke:#000000;stroke-width:0.9;stroke-linecap:round"
         d="M 78.4903,984.223 H 77.3032"
         id="path12423" />
      <path
         style="fill:none;stroke:#000000;stroke-width:0.9;stroke-linecap:round"
         d="m 77.3032,984.223 v -1.672"
         id="path12425" />
      <path
         d="m 77.303158,982.55113 c -0.133866,0.15133 -0.267733,0.30266 -0.410736,0.44518 -0.136069,0.13562 -0.280411,0.26325 -0.431935,0.38159 -0.147253,0.115 -0.301289,0.22121 -0.461084,0.31799 -0.155562,0.0942 -0.316581,0.17947 -0.482284,0.25439 -0.164662,0.0744 -0.333948,0.13868 -0.506132,0.19344 -0.173201,0.0551 -0.349335,0.1006 -0.527332,0.1378 -0.182977,0.0382 -0.367925,0.0677 -0.553831,0.0848 -0.191002,0.0176 -0.383016,0.022 -0.575031,0.0265"
         style="fill:none;stroke:#000000;stroke-width:0.9;stroke-linecap:round"
         id="path12427" />
      <path
         d="m 73.354793,984.39282 c -0.170713,-0.005 -0.341427,-0.009 -0.511432,-0.0239 -0.165253,-0.0142 -0.329837,-0.0377 -0.492883,-0.0689 -0.159821,-0.0305 -0.318164,-0.0684 -0.474334,-0.11395 -0.154534,-0.0451 -0.30694,-0.0977 -0.455784,-0.15899 -0.148386,-0.0611 -0.293233,-0.13066 -0.434585,-0.2067 -0.143499,-0.0772 -0.283396,-0.161 -0.418686,-0.25174 -0.137373,-0.0921 -0.269996,-0.19139 -0.397486,-0.29679 -0.131617,-0.1088 -0.257763,-0.22415 -0.378937,-0.34449 -0.121136,-0.12029 -0.237303,-0.24558 -0.347138,-0.37628 -0.106315,-0.12651 -0.206697,-0.25809 -0.29944,-0.39484 -0.09101,-0.13418 -0.174662,-0.27334 -0.251742,-0.41603 -0.07684,-0.14226 -0.147149,-0.28803 -0.209342,-0.43724 -0.06204,-0.14885 -0.116012,-0.30112 -0.161645,-0.45578 -0.04603,-0.15602 -0.08358,-0.31447 -0.113946,-0.47434 -0.03114,-0.16395 -0.05472,-0.32941 -0.0689,-0.49553 -0.01458,-0.17088 -0.01922,-0.34248 -0.02385,-0.51408"
         style="fill:none;stroke:#000000;stroke-width:0.9;stroke-linecap:round"
         id="path12429" />
      <path
         d="m 68.314666,979.36329 c 0.0047,-0.16805 0.0095,-0.33611 0.02385,-0.50348 0.01405,-0.16353 0.0373,-0.3264 0.0689,-0.48759 0.03085,-0.15736 0.06966,-0.3131 0.116596,-0.46638 0.04681,-0.15289 0.101701,-0.30333 0.164294,-0.45049 0.06235,-0.14657 0.132335,-0.28987 0.209343,-0.42928 0.0779,-0.14102 0.16298,-0.27805 0.254392,-0.41074 0.09406,-0.13653 0.194829,-0.26847 0.302089,-0.39483 0.110425,-0.1301 0.227732,-0.2543 0.349788,-0.37364 0.122174,-0.11946 0.249107,-0.23405 0.381587,-0.34184 0.129379,-0.10526 0.264049,-0.20403 0.402786,-0.29679 0.135471,-0.0906 0.27482,-0.17541 0.418686,-0.25174 0.142795,-0.0758 0.290039,-0.14313 0.439885,-0.20404 0.150214,-0.0611 0.303043,-0.11564 0.458434,-0.16165 0.156768,-0.0464 0.316143,-0.0841 0.476984,-0.11395 0.163969,-0.0304 0.329462,-0.0526 0.495533,-0.0662 0.170952,-0.014 0.342517,-0.0189 0.514082,-0.0239"
         style="fill:none;stroke:#000000;stroke-width:0.9;stroke-linecap:round"
         id="path12431" />
      <path
         d="m 73.391892,974.38676 c 0.197291,0.005 0.394582,0.0109 0.59093,0.0292 0.188681,0.0176 0.376492,0.047 0.561781,0.0874 0.180195,0.0393 0.358005,0.0891 0.532631,0.1484 0.171576,0.0583 0.340078,0.12573 0.503483,0.20404 0.163818,0.0785 0.322513,0.16791 0.474334,0.26764 0.156602,0.10287 0.30589,0.21673 0.447834,0.33919 0.146299,0.12622 0.284797,0.26157 0.413386,0.40544 0.136394,0.1526 0.26164,0.31479 0.386887,0.47698"
         style="fill:none;stroke:#000000;stroke-width:0.9;stroke-linecap:round"
         id="path12433" />
      <path
         style="fill:none;stroke:#000000;stroke-width:0.9;stroke-linecap:round"
         d="M 94.941,987.785 H 93.7538"
         id="path12435" />
      <path
         style="fill:none;stroke:#000000;stroke-width:0.9;stroke-linecap:round"
         d="M 93.7538,987.785 V 974.556"
         id="path12437" />
      <path
         style="fill:none;stroke:#000000;stroke-width:0.9;stroke-linecap:round"
         d="M 93.7538,974.556 H 94.941"
         id="path12439" />
      <path
         style="fill:none;stroke:#000000;stroke-width:0.9;stroke-linecap:round"
         d="m 94.941,974.556 v 1.789"
         id="path12441" />
      <path
         d="m 94.940953,976.34504 c 0.126076,-0.16228 0.252151,-0.32457 0.389537,-0.47698 0.129596,-0.14378 0.269255,-0.27877 0.416036,-0.40544 0.141413,-0.12204 0.289436,-0.23636 0.445184,-0.33919 0.151562,-0.10006 0.310438,-0.18925 0.474334,-0.26764 0.163482,-0.0782 0.331958,-0.14565 0.503483,-0.20404 0.173769,-0.0592 0.350668,-0.10902 0.529982,-0.1484 0.184384,-0.0405 0.371323,-0.0699 0.559131,-0.0874 0.195465,-0.0183 0.391872,-0.0237 0.588279,-0.0292"
         style="fill:none;stroke:#000000;stroke-width:0.9;stroke-linecap:round"
         id="path12443" />
      <path
         d="m 98.846919,974.38676 c 0.171559,0.005 0.343118,0.01 0.514083,0.0239 0.166956,0.0136 0.333345,0.0357 0.498183,0.0662 0.160845,0.0298 0.320215,0.0675 0.476985,0.11395 0.15539,0.046 0.30822,0.10059 0.45843,0.16165 0.14985,0.0609 0.29709,0.12828 0.43989,0.20404 0.14386,0.0763 0.28321,0.16117 0.41868,0.25174 0.13874,0.0928 0.27342,0.19152 0.40279,0.29679 0.13247,0.10779 0.25938,0.2224 0.38159,0.34184 0.12209,0.11932 0.23948,0.24346 0.34978,0.37364 0.10715,0.12644 0.2076,0.25856 0.30209,0.39483 0.0921,0.13281 0.17853,0.26955 0.25704,0.41074 0.0774,0.13916 0.14711,0.28265 0.20935,0.42928 0.0625,0.14722 0.11745,0.29762 0.16429,0.45049 0.047,0.15326 0.0858,0.30902 0.1166,0.46638 0.0316,0.16119 0.0549,0.32407 0.0689,0.48759 0.0144,0.16737 0.0191,0.33543 0.0238,0.50348"
         style="fill:none;stroke:#000000;stroke-width:0.9;stroke-linecap:round"
         id="path12445" />
      <path
         d="m 103.92945,979.36329 c -0.005,0.1716 -0.009,0.3432 -0.0238,0.51408 -0.0142,0.16612 -0.0378,0.33157 -0.0689,0.49553 -0.0304,0.15988 -0.0679,0.31834 -0.11395,0.47434 -0.0457,0.15464 -0.0997,0.30687 -0.16164,0.45578 -0.0621,0.14928 -0.13211,0.29523 -0.20934,0.43724 -0.0777,0.14285 -0.16271,0.28172 -0.2544,0.41603 -0.0932,0.13648 -0.19324,0.26826 -0.29944,0.39484 -0.10971,0.13077 -0.22597,0.25601 -0.34713,0.37628 -0.12121,0.12032 -0.24733,0.23568 -0.37894,0.34449 -0.12748,0.1054 -0.26011,0.20466 -0.39749,0.29679 -0.13529,0.0907 -0.27518,0.17456 -0.41868,0.25174 -0.14136,0.076 -0.2862,0.14564 -0.43459,0.2067 -0.14884,0.0612 -0.30125,0.11389 -0.45578,0.15899 -0.15617,0.0456 -0.31451,0.0835 -0.474336,0.11395 -0.163915,0.0313 -0.329396,0.0548 -0.495533,0.0689 -0.17002,0.0145 -0.340726,0.0192 -0.511433,0.0239"
         style="fill:none;stroke:#000000;stroke-width:0.9;stroke-linecap:round"
         id="path12447" />
      <path
         d="m 98.884018,984.39282 c -0.192104,-0.005 -0.384208,-0.01 -0.57503,-0.0292 -0.186107,-0.0189 -0.370995,-0.0515 -0.553831,-0.0927 -0.178366,-0.0402 -0.35478,-0.0886 -0.527332,-0.1484 -0.172843,-0.0599 -0.34181,-0.1313 -0.506133,-0.21199 -0.164865,-0.081 -0.325055,-0.17126 -0.479633,-0.27029 -0.158799,-0.10173 -0.311676,-0.21267 -0.458435,-0.33124 -0.150926,-0.12193 -0.295382,-0.25194 -0.431935,-0.38953 -0.142663,-0.14376 -0.276699,-0.2958 -0.410736,-0.44784"
         style="fill:none;stroke:#000000;stroke-width:0.9;stroke-linecap:round"
         id="path12449" />
      <path
         style="fill:none;stroke:#000000;stroke-width:0.9;stroke-linecap:round"
         d="m 94.941,982.472 v 5.313"
         id="path12451" />
      <path
         style="fill:none;stroke:#000000;stroke-width:0.9;stroke-linecap:round"
         d="m 119.363,984.223 h -1.188"
         id="path12453" />
      <path
         style="fill:none;stroke:#000000;stroke-width:0.9;stroke-linecap:round"
         d="m 118.175,984.223 v -9.667"
         id="path12455" />
      <path
         style="fill:none;stroke:#000000;stroke-width:0.9;stroke-linecap:round"
         d="m 118.175,974.556 h 1.188"
         id="path12457" />
      <path
         style="fill:none;stroke:#000000;stroke-width:0.9;stroke-linecap:round"
         d="M 119.363,974.556 V 976.3"
         id="path12459" />
      <path
         d="m 119.36252,976.29999 c 0.12675,-0.15814 0.25351,-0.31629 0.38953,-0.46638 0.12794,-0.14117 0.26407,-0.27521 0.40809,-0.40014 0.13622,-0.11817 0.27951,-0.22817 0.42928,-0.32859 0.14443,-0.0968 0.29491,-0.18473 0.45049,-0.26234 0.15203,-0.0758 0.30894,-0.14184 0.46903,-0.19874 0.1605,-0.057 0.32419,-0.10492 0.49024,-0.1431 0.16855,-0.0388 0.33952,-0.0675 0.51143,-0.0848 0.17601,-0.0177 0.35299,-0.0234 0.52998,-0.0292"
         style="fill:none;stroke:#000000;stroke-width:0.9;stroke-linecap:round"
         id="path12461" />
      <path
         d="m 123.04059,974.38676 c 0.17889,0.007 0.35777,0.0132 0.53528,0.0344 0.16992,0.0203 0.33857,0.0541 0.50348,0.10069 0.16129,0.0456 0.319,0.10332 0.47169,0.17225 0.15215,0.0687 0.29932,0.14846 0.43988,0.23849 0.13935,0.0892 0.2722,0.18859 0.39749,0.29679 0.12304,0.10626 0.23879,0.22107 0.34449,0.34449 0.10534,0.12299 0.2007,0.25454 0.28619,0.39218 0.0874,0.1408 0.16454,0.28797 0.23054,0.43989 0.0351,0.0808 0.0671,0.16302 0.0954,0.24644 0.0314,0.0924 0.0582,0.18629 0.0821,0.28089 0.026,0.10266 0.0485,0.20613 0.0689,0.31004 0.0224,0.11431 0.0421,0.22915 0.0583,0.34449 0.0175,0.125 0.0308,0.25058 0.0424,0.37629 0.0125,0.13588 0.023,0.27192 0.0318,0.40808 0.01,0.14738 0.0171,0.29492 0.0212,0.44254 0.004,0.15717 0.005,0.31442 0.005,0.47168"
         style="fill:none;stroke:#000000;stroke-width:0.9;stroke-linecap:round"
         id="path12463" />
      <path
         style="fill:none;stroke:#000000;stroke-width:0.9;stroke-linecap:round"
         d="m 126.655,979.286 v 4.937"
         id="path12465" />
      <path
         style="fill:none;stroke:#000000;stroke-width:0.9;stroke-linecap:round"
         d="m 126.655,984.223 h -1.187"
         id="path12467" />
      <path
         style="fill:none;stroke:#000000;stroke-width:0.9;stroke-linecap:round"
         d="m 125.468,984.223 v -4.547"
         id="path12469" />
      <path
         d="m 125.46791,979.67598 c -7.3e-4,-0.13162 -0.001,-0.26323 -0.003,-0.39484 -0.001,-0.12014 -0.003,-0.24028 -0.005,-0.36039 -0.002,-0.10867 -0.006,-0.21732 -0.0106,-0.32594 -0.004,-0.0981 -0.009,-0.19618 -0.0159,-0.29414 -0.006,-0.0858 -0.0132,-0.17144 -0.0212,-0.25704 -0.007,-0.0743 -0.0145,-0.14854 -0.0239,-0.22259 -0.008,-0.0638 -0.0174,-0.12755 -0.0291,-0.19079 -0.01,-0.0514 -0.0207,-0.10257 -0.0318,-0.1537"
         style="fill:none;stroke:#000000;stroke-width:0.9;stroke-linecap:round"
         id="path12471" />
      <path
         d="m 125.32746,977.47655 c -0.0402,-0.15009 -0.0803,-0.30018 -0.13514,-0.44518 -0.0507,-0.13409 -0.11394,-0.26383 -0.18815,-0.38689 -0.0697,-0.11553 -0.14899,-0.22518 -0.23849,-0.32594 -0.0873,-0.0982 -0.18417,-0.18804 -0.28884,-0.26764 -0.10595,-0.0806 -0.21984,-0.15069 -0.33919,-0.20934 -0.12407,-0.061 -0.25406,-0.10954 -0.38688,-0.1484 -0.14228,-0.0416 -0.28781,-0.0721 -0.43459,-0.0901 -0.15978,-0.0196 -0.32103,-0.0244 -0.48228,-0.0291"
         style="fill:none;stroke:#000000;stroke-width:0.9;stroke-linecap:round"
         id="path12473" />
      <path
         d="m 122.8339,975.57392 c -0.0955,0.002 -0.191,0.004 -0.28619,0.0106 -0.0932,0.007 -0.18608,0.0187 -0.27824,0.0344 -0.0918,0.0157 -0.18276,0.0352 -0.27294,0.0583 -0.0886,0.0226 -0.17635,0.0487 -0.26235,0.0795 -0.0872,0.0313 -0.17262,0.0675 -0.25704,0.106 -0.0845,0.0385 -0.1681,0.0792 -0.24909,0.12454 -0.0827,0.0463 -0.16282,0.0974 -0.24114,0.15105 -0.0798,0.0546 -0.15778,0.11182 -0.23319,0.17224 -0.0757,0.0607 -0.1489,0.12461 -0.21994,0.1908 -0.0686,0.0639 -0.1352,0.1299 -0.19875,0.19874 -0.0629,0.0682 -0.12282,0.13907 -0.18019,0.21199 -0.0567,0.0721 -0.11097,0.14616 -0.16165,0.22259 -0.0501,0.0756 -0.0968,0.15361 -0.14044,0.2332 -0.0437,0.0797 -0.0844,0.16099 -0.1219,0.24379 -0.0381,0.0841 -0.073,0.16984 -0.10334,0.25704 -0.0304,0.0873 -0.0563,0.17615 -0.0821,0.26499"
         style="fill:none;stroke:#000000;stroke-width:0.9;stroke-linecap:round"
         id="path12475" />
      <path
         d="m 119.54536,978.13373 c -0.0149,0.0652 -0.0298,0.13043 -0.0424,0.19609 -0.0148,0.0773 -0.0266,0.15518 -0.0371,0.23319 -0.012,0.0891 -0.0226,0.17828 -0.0318,0.26765 -0.0106,0.10229 -0.0195,0.20478 -0.0265,0.30739 -0.008,0.11384 -0.0132,0.22784 -0.0185,0.34183 -0.006,0.12629 -0.0119,0.25259 -0.0159,0.37894 -0.004,0.13863 -0.007,0.27733 -0.008,0.41604 -0.002,0.15104 -0.002,0.30209 -0.003,0.45313"
         style="fill:none;stroke:#000000;stroke-width:0.9;stroke-linecap:round"
         id="path12477" />
      <path
         style="fill:none;stroke:#000000;stroke-width:0.9;stroke-linecap:round"
         d="m 119.363,980.728 v 3.495"
         id="path12479" />
      <path
         style="fill:none;stroke:#000000;stroke-width:0.9;stroke-linecap:round"
         d="M 97.6545,1010.05 H 96.4673"
         id="path12481" />
      <path
         style="fill:none;stroke:#000000;stroke-width:0.9;stroke-linecap:round"
         d="m 96.4673,1010.05 v -9.67"
         id="path12483" />
      <path
         style="fill:none;stroke:#000000;stroke-width:0.9;stroke-linecap:round"
         d="m 96.4673,1000.38 h 1.1872"
         id="path12485" />
      <path
         style="fill:none;stroke:#000000;stroke-width:0.9;stroke-linecap:round"
         d="m 97.6545,1000.38 v 1.68"
         id="path12487" />
      <path
         d="m 97.65446,1002.0632 c 0.1069,-0.147 0.2138,-0.294 0.328589,-0.4346 0.105158,-0.1289 0.216936,-0.2524 0.333889,-0.371 0.106802,-0.1084 0.217919,-0.2127 0.336538,-0.3074 0.109671,-0.088 0.225755,-0.167 0.341838,-0.2464"
         style="fill:none;stroke:#000000;stroke-width:0.9;stroke-linecap:round"
         id="path12489" />
      <path
         d="m 98.995314,1000.7038 c 0.158229,-0.076 0.316458,-0.1513 0.479634,-0.2147 0.160325,-0.062 0.325427,-0.1128 0.492883,-0.1537 0.165899,-0.04 0.334099,-0.071 0.503479,-0.09 0.17145,-0.019 0.34409,-0.025 0.51674,-0.032"
         style="fill:none;stroke:#000000;stroke-width:0.9;stroke-linecap:round"
         id="path12491" />
      <path
         d="m 100.98805,1000.2135 c 0.11676,0 0.23352,0.01 0.34978,0.019 0.11382,0.01 0.22717,0.027 0.33919,0.05 0.11192,0.023 0.22253,0.052 0.33124,0.087 0.10885,0.035 0.2158,0.076 0.32064,0.1219 0.10395,0.045 0.20583,0.096 0.30474,0.151 0.0939,0.053 0.18504,0.1101 0.27294,0.1723 0.0858,0.061 0.16844,0.1257 0.24644,0.1961 0.0761,0.069 0.1478,0.1422 0.21464,0.2199 0.0695,0.081 0.13379,0.1661 0.19345,0.2544 0.0663,0.098 0.12698,0.2002 0.18284,0.3047 0.0613,0.1147 0.11684,0.2325 0.16695,0.3525 0.0557,0.1333 0.1047,0.2694 0.15369,0.4054"
         style="fill:none;stroke:#000000;stroke-width:0.9;stroke-linecap:round"
         id="path12493" />
      <path
         d="m 104.06459,1002.5481 c 0.0518,-0.093 0.10364,-0.1869 0.159,-0.2782 0.0536,-0.088 0.11044,-0.1749 0.16959,-0.2597 0.0578,-0.083 0.11779,-0.1643 0.18019,-0.2438 0.0604,-0.077 0.12311,-0.1522 0.18815,-0.2253 0.064,-0.072 0.13021,-0.1418 0.19874,-0.2093 0.0668,-0.066 0.13574,-0.1295 0.20669,-0.1908 0.0704,-0.061 0.14267,-0.1194 0.2173,-0.1749 0.0739,-0.055 0.15013,-0.1068 0.22789,-0.1563 0.15149,-0.096 0.30887,-0.184 0.47168,-0.2597 0.15953,-0.074 0.32427,-0.1372 0.49288,-0.1882 0.16564,-0.05 0.33501,-0.088 0.50614,-0.1113 0.17456,-0.023 0.35095,-0.03 0.52733,-0.037"
         style="fill:none;stroke:#000000;stroke-width:0.9;stroke-linecap:round"
         id="path12495" />
      <path
         d="m 107.61017,1000.2135 c 0.16207,0.01 0.32414,0.012 0.48493,0.032 0.15389,0.019 0.30661,0.05 0.45579,0.093 0.14602,0.042 0.28865,0.095 0.42663,0.159 0.13768,0.063 0.27072,0.1368 0.39749,0.2199 0.12601,0.083 0.24581,0.1747 0.35774,0.2756 0.11149,0.1005 0.21517,0.2096 0.31004,0.3259 0.096,0.1177 0.1829,0.2428 0.25969,0.3737 0.0802,0.1367 0.14932,0.2799 0.20934,0.4266 0.0321,0.078 0.0615,0.1579 0.0875,0.2385 0.0283,0.088 0.0523,0.1777 0.0742,0.2676 0.0237,0.098 0.0448,0.1956 0.0636,0.2942 0.0204,0.1073 0.0381,0.2151 0.053,0.3233 0.016,0.1162 0.0288,0.2329 0.0397,0.3498 0.0118,0.1261 0.0213,0.2524 0.0292,0.3789 0.008,0.1359 0.0149,0.272 0.0186,0.4081 0.004,0.1448 0.005,0.2897 0.005,0.4346"
         style="fill:none;stroke:#000000;stroke-width:0.9;stroke-linecap:round"
         id="path12497" />
      <path
         style="fill:none;stroke:#000000;stroke-width:0.9;stroke-linecap:round"
         d="m 110.883,1004.81 v 5.24"
         id="path12499" />
      <path
         style="fill:none;stroke:#000000;stroke-width:0.9;stroke-linecap:round"
         d="m 110.883,1010.05 h -1.187"
         id="path12501" />
      <path
         style="fill:none;stroke:#000000;stroke-width:0.9;stroke-linecap:round"
         d="m 109.696,1010.05 v -5.24"
         id="path12503" />
      <path
         d="m 109.69565,1004.8085 c -3e-4,-0.1237 -5.9e-4,-0.2474 -0.003,-0.371 -0.002,-0.114 -0.005,-0.228 -0.0106,-0.3419 -0.005,-0.1034 -0.0112,-0.2067 -0.0186,-0.31 -0.007,-0.094 -0.0142,-0.1874 -0.0238,-0.2809 -0.009,-0.083 -0.019,-0.1664 -0.0318,-0.2491 -0.0114,-0.074 -0.0248,-0.1469 -0.0397,-0.2199 -0.0131,-0.064 -0.0273,-0.1279 -0.0451,-0.1908 -0.0152,-0.054 -0.0329,-0.1068 -0.053,-0.159 -0.0367,-0.095 -0.0813,-0.1873 -0.1325,-0.2756 -0.0507,-0.087 -0.10797,-0.1712 -0.17224,-0.2491 -0.0644,-0.078 -0.13593,-0.1503 -0.212,-0.2173 -0.0791,-0.07 -0.16325,-0.1335 -0.25174,-0.1908 -0.0903,-0.058 -0.18525,-0.1099 -0.28354,-0.1537 -0.10114,-0.045 -0.20587,-0.082 -0.31269,-0.1113 -0.11039,-0.03 -0.22302,-0.053 -0.33654,-0.066 -0.12122,-0.014 -0.24345,-0.018 -0.36568,-0.021"
         style="fill:none;stroke:#000000;stroke-width:0.9;stroke-linecap:round"
         id="path12505" />
      <path
         d="m 107.40348,1001.4007 c -0.14994,0.01 -0.29987,0.011 -0.44784,0.032 -0.14447,0.021 -0.28707,0.056 -0.42663,0.1007 -0.14085,0.045 -0.2786,0.099 -0.41074,0.1643 -0.13561,0.067 -0.26529,0.1463 -0.38954,0.2332 -0.1248,0.087 -0.24412,0.1821 -0.35508,0.2862 -0.10908,0.1022 -0.21009,0.2133 -0.30209,0.3312 -0.0929,0.1191 -0.17666,0.2452 -0.25174,0.3763 -0.0771,0.1345 -0.14501,0.2744 -0.2014,0.4187 -0.0306,0.078 -0.0578,0.1579 -0.0821,0.2385 -0.0274,0.091 -0.0512,0.1828 -0.0715,0.2756 -0.0227,0.1035 -0.0412,0.208 -0.0583,0.3126 -0.019,0.1163 -0.0364,0.2329 -0.0503,0.3498 -0.0154,0.1287 -0.0267,0.2578 -0.0371,0.3869 -0.0114,0.1412 -0.0217,0.2825 -0.0292,0.424 -0.008,0.1536 -0.0129,0.3073 -0.0159,0.4611 -0.003,0.166 -0.004,0.3321 -0.005,0.4982"
         style="fill:none;stroke:#000000;stroke-width:0.9;stroke-linecap:round"
         id="path12507" />
      <path
         style="fill:none;stroke:#000000;stroke-width:0.9;stroke-linecap:round"
         d="m 104.269,1006.29 v 3.76"
         id="path12509" />
      <path
         style="fill:none;stroke:#000000;stroke-width:0.9;stroke-linecap:round"
         d="m 104.269,1010.05 h -1.188"
         id="path12511" />
      <path
         style="fill:none;stroke:#000000;stroke-width:0.9;stroke-linecap:round"
         d="m 103.081,1010.05 v -4.92"
         id="path12513" />
      <path
         d="m 103.08147,1005.1344 c -3e-4,-0.1387 -6e-4,-0.2774 -0.003,-0.416 -0.002,-0.1281 -0.005,-0.2562 -0.0106,-0.3843 -0.005,-0.1157 -0.0112,-0.2314 -0.0185,-0.3471 -0.007,-0.1043 -0.014,-0.2086 -0.0238,-0.3127 -0.009,-0.093 -0.0195,-0.1857 -0.0318,-0.2782 -0.0108,-0.081 -0.0228,-0.1611 -0.0371,-0.2412 -0.0126,-0.07 -0.027,-0.1403 -0.0451,-0.2093 -0.0152,-0.058 -0.033,-0.1156 -0.053,-0.1723 -0.0359,-0.1019 -0.0788,-0.2015 -0.12984,-0.2967 -0.0498,-0.093 -0.10749,-0.1818 -0.17225,-0.265 -0.0649,-0.083 -0.13701,-0.1614 -0.21464,-0.2332 -0.0795,-0.073 -0.16478,-0.1406 -0.25439,-0.2014 -0.0911,-0.062 -0.18674,-0.1171 -0.28619,-0.1643 -0.1016,-0.048 -0.20721,-0.088 -0.31534,-0.1193 -0.11101,-0.032 -0.22467,-0.055 -0.33919,-0.069 -0.12125,-0.015 -0.24347,-0.019 -0.36569,-0.024"
         style="fill:none;stroke:#000000;stroke-width:0.9;stroke-linecap:round"
         id="path12515" />
      <path
         d="m 100.78135,1001.4007 c -0.14368,0.01 -0.28736,0.012 -0.42928,0.032 -0.14092,0.02 -0.2801,0.054 -0.416038,0.098 -0.138027,0.044 -0.272709,0.098 -0.402786,0.1617 -0.134173,0.065 -0.263447,0.1411 -0.386887,0.2252 -0.12484,0.085 -0.243713,0.1789 -0.355088,0.2809 -0.110211,0.101 -0.213079,0.21 -0.307389,0.326 -0.09455,0.1162 -0.180496,0.2394 -0.257041,0.3683 -0.07917,0.1333 -0.148279,0.2725 -0.206693,0.416 -0.0312,0.077 -0.05935,0.1545 -0.0848,0.2332 -0.0277,0.086 -0.05219,0.1724 -0.0742,0.2597 -0.02431,0.096 -0.04557,0.1937 -0.0636,0.2915 -0.01961,0.1064 -0.0354,0.2135 -0.05035,0.3206 -0.01611,0.1155 -0.03126,0.2312 -0.0424,0.3472 -0.0121,0.126 -0.01947,0.2525 -0.0265,0.3789 -0.0075,0.1351 -0.01462,0.2702 -0.01855,0.4054 -0.0042,0.1457 -0.0048,0.2915 -0.0053,0.4373"
         style="fill:none;stroke:#000000;stroke-width:0.9;stroke-linecap:round"
         id="path12517" />
      <path
         style="fill:none;stroke:#000000;stroke-width:0.9;stroke-linecap:round"
         d="m 97.6545,1005.98 v 4.07"
         id="path12519" />
      <path
         style="fill:none;stroke:#000000;stroke-width:0.9;stroke-linecap:round"
         d="m 122.246,1002.17 v -1.79"
         id="path12521" />
      <path
         style="fill:none;stroke:#000000;stroke-width:0.9;stroke-linecap:round"
         d="m 122.246,1000.38 h 1.187"
         id="path12523" />
      <path
         style="fill:none;stroke:#000000;stroke-width:0.9;stroke-linecap:round"
         d="m 123.433,1000.38 v 9.67"
         id="path12525" />
      <path
         style="fill:none;stroke:#000000;stroke-width:0.9;stroke-linecap:round"
         d="m 123.433,1010.05 h -1.187"
         id="path12527" />
      <path
         style="fill:none;stroke:#000000;stroke-width:0.9;stroke-linecap:round"
         d="m 122.246,1010.05 v -1.67"
         id="path12529" />
      <path
         d="m 122.24562,1008.3779 c -0.13387,0.1513 -0.26773,0.3027 -0.41074,0.4452 -0.13607,0.1356 -0.28041,0.2632 -0.43193,0.3816 -0.14726,0.115 -0.30129,0.2212 -0.46109,0.318 -0.15556,0.094 -0.31658,0.1794 -0.48228,0.2544 -0.16466,0.074 -0.33395,0.1386 -0.50613,0.1934 -0.17321,0.055 -0.34934,0.1006 -0.52734,0.1378 -0.18297,0.038 -0.36792,0.068 -0.55383,0.085 -0.191,0.018 -0.38301,0.022 -0.57503,0.027"
         style="fill:none;stroke:#000000;stroke-width:0.9;stroke-linecap:round"
         id="path12531" />
      <path
         d="m 118.29725,1010.2196 c -0.17071,0 -0.34142,-0.01 -0.51143,-0.024 -0.16525,-0.014 -0.32984,-0.038 -0.49288,-0.069 -0.15982,-0.03 -0.31817,-0.068 -0.47434,-0.1139 -0.15453,-0.045 -0.30694,-0.098 -0.45578,-0.159 -0.14839,-0.061 -0.29323,-0.1307 -0.43459,-0.2067 -0.1435,-0.077 -0.28339,-0.161 -0.41868,-0.2517 -0.13737,-0.092 -0.27,-0.1914 -0.39749,-0.2968 -0.13161,-0.1088 -0.25776,-0.2242 -0.37893,-0.3445 -0.12114,-0.1203 -0.23731,-0.2456 -0.34714,-0.3763 -0.10632,-0.1265 -0.2067,-0.2581 -0.29944,-0.3948 -0.091,-0.1342 -0.17467,-0.2734 -0.25174,-0.4161 -0.0769,-0.1422 -0.14715,-0.288 -0.20935,-0.4372 -0.062,-0.1489 -0.11601,-0.3011 -0.16164,-0.4558 -0.046,-0.156 -0.0836,-0.3145 -0.11395,-0.4743 -0.0311,-0.164 -0.0547,-0.3294 -0.0689,-0.4956 -0.0146,-0.1708 -0.0192,-0.3424 -0.0238,-0.514"
         style="fill:none;stroke:#000000;stroke-width:0.9;stroke-linecap:round"
         id="path12533" />
      <path
         d="m 113.25713,1005.1901 c 0.005,-0.1681 0.009,-0.3361 0.0238,-0.5035 0.014,-0.1635 0.0373,-0.3264 0.0689,-0.4876 0.0309,-0.1574 0.0697,-0.3131 0.1166,-0.4664 0.0468,-0.1529 0.1017,-0.3033 0.16429,-0.4505 0.0624,-0.1465 0.13234,-0.2899 0.20934,-0.4293 0.0779,-0.141 0.16299,-0.278 0.2544,-0.4107 0.0941,-0.1365 0.19483,-0.2685 0.30209,-0.3948 0.11042,-0.1301 0.22773,-0.2543 0.34978,-0.3737 0.12218,-0.1194 0.24911,-0.234 0.38159,-0.3418 0.12938,-0.1053 0.26405,-0.204 0.40279,-0.2968 0.13547,-0.091 0.27482,-0.1754 0.41868,-0.2517 0.1428,-0.076 0.29004,-0.1432 0.43989,-0.2041 0.15021,-0.061 0.30304,-0.1156 0.45843,-0.1616 0.15677,-0.046 0.31614,-0.084 0.47699,-0.114 0.16396,-0.03 0.32946,-0.053 0.49553,-0.066 0.17095,-0.014 0.34252,-0.019 0.51408,-0.024"
         style="fill:none;stroke:#000000;stroke-width:0.9;stroke-linecap:round"
         id="path12535" />
      <path
         d="m 118.33435,1000.2135 c 0.19729,0.01 0.39458,0.011 0.59093,0.029 0.18868,0.018 0.37649,0.047 0.56178,0.087 0.1802,0.039 0.35801,0.089 0.53263,0.1484 0.17158,0.058 0.34008,0.1258 0.50349,0.2041 0.16381,0.079 0.32251,0.1679 0.47433,0.2676 0.1566,0.1029 0.30589,0.2167 0.44784,0.3392 0.14629,0.1262 0.28479,0.2616 0.41338,0.4054 0.13639,0.1526 0.26164,0.3148 0.38689,0.477"
         style="fill:none;stroke:#000000;stroke-width:0.9;stroke-linecap:round"
         id="path12537" />
      <path
         d="m 132.28346,1296.378 a 9.448819,9.448819 0 1 0 -18.89763,0 9.448819,9.448819 0 1 0 18.89763,0 z"
         style="fill:none;stroke:#000000;stroke-width:0.9;stroke-linecap:round"
         id="path12539" />
      <path
         d="m 132.28346,1239.685 a 9.448819,9.448819 0 1 0 -18.89763,0 9.448819,9.448819 0 1 0 18.89763,0 z"
         style="fill:none;stroke:#000000;stroke-width:0.9;stroke-linecap:round"
         id="path12541" />
      <path
         d="m 132.28346,1182.9921 a 9.448819,9.448819 0 1 0 -18.89763,0 9.448819,9.448819 0 1 0 18.89763,0 z"
         style="fill:none;stroke:#000000;stroke-width:0.9;stroke-linecap:round"
         id="path12543" />
      <path
         d="m 132.28346,1126.2992 a 9.448819,9.448819 0 1 0 -18.89763,0 9.448819,9.448819 0 1 0 18.89763,0 z"
         style="fill:none;stroke:#000000;stroke-width:0.9;stroke-linecap:round"
         id="path12545" />
      <path
         style="fill:none;stroke:#0000ff;stroke-width:0.9;stroke-linecap:round"
         d="M 9.44882,1305.83 V 939.213"
         id="path12547" />
      <path
         style="fill:none;stroke:#0000ff;stroke-width:0.9;stroke-linecap:round"
         d="M -141.732,1305.83 H 9.44882"
         id="path12549" />
      <path
         style="fill:none;stroke:#0000ff;stroke-width:0.9;stroke-linecap:round"
         d="M -141.732,1305.83 V 939.213"
         id="path12551" />
      <path
         style="fill:none;stroke:#0000ff;stroke-width:0.9;stroke-linecap:round"
         d="M -141.732,939.213 H 9.44882"
         id="path12553" />
      <path
         style="fill:none;stroke:#000000;stroke-width:0.9;stroke-linecap:round"
         d="m -236.22,1349.29 h 32.126"
         id="path12555" />
      <path
         style="fill:none;stroke:#000000;stroke-width:0.9;stroke-linecap:round"
         d="m -204.094,1371.97 v -22.68"
         id="path12557" />
      <path
         style="fill:none;stroke:#000000;stroke-width:0.9;stroke-linecap:round"
         d="m -204.094,1371.97 h 45.354"
         id="path12559" />
      <path
         style="fill:none;stroke:#000000;stroke-width:0.9;stroke-linecap:round"
         d="m -158.74,1371.97 v -22.68"
         id="path12561" />
      <path
         style="fill:none;stroke:#000000;stroke-width:0.9;stroke-linecap:round"
         d="m -158.74,1349.29 h 45.354"
         id="path12563" />
      <path
         style="fill:none;stroke:#000000;stroke-width:0.9;stroke-linecap:round"
         d="m -113.386,1371.97 v -22.68"
         id="path12565" />
      <path
         style="fill:none;stroke:#000000;stroke-width:0.9;stroke-linecap:round"
         d="m -113.386,1371.97 h 45.3545"
         id="path12567" />
      <path
         style="fill:none;stroke:#000000;stroke-width:0.9;stroke-linecap:round"
         d="m -68.0315,1371.97 v -22.68"
         id="path12569" />
      <path
         style="fill:none;stroke:#000000;stroke-width:0.9;stroke-linecap:round"
         d="m -68.0315,1349.29 h 45.3543"
         id="path12571" />
      <path
         style="fill:none;stroke:#000000;stroke-width:0.9;stroke-linecap:round"
         d="m -22.6772,1371.97 v -22.68"
         id="path12573" />
      <path
         style="fill:none;stroke:#000000;stroke-width:0.9;stroke-linecap:round"
         d="M -22.6772,1371.97 H 22.6772"
         id="path12575" />
      <path
         style="fill:none;stroke:#000000;stroke-width:0.9;stroke-linecap:round"
         d="m 22.6772,1371.97 v -22.68"
         id="path12577" />
      <path
         style="fill:none;stroke:#000000;stroke-width:0.9;stroke-linecap:round"
         d="M 22.6772,1349.29 H 68.0315"
         id="path12579" />
      <path
         style="fill:none;stroke:#000000;stroke-width:0.9;stroke-linecap:round"
         d="m 68.0315,1371.97 v -22.68"
         id="path12581" />
      <path
         style="fill:none;stroke:#000000;stroke-width:0.9;stroke-linecap:round"
         d="M 68.0315,1371.97 H 113.386"
         id="path12583" />
      <path
         style="fill:none;stroke:#000000;stroke-width:0.9;stroke-linecap:round"
         d="m 113.386,1371.97 v -22.68"
         id="path12585" />
      <path
         style="fill:none;stroke:#000000;stroke-width:0.9;stroke-linecap:round"
         d="M 113.386,1349.29 H 158.74"
         id="path12587" />
      <path
         style="fill:none;stroke:#000000;stroke-width:0.9;stroke-linecap:round"
         d="m 158.74,1371.97 v -22.68"
         id="path12589" />
      <path
         style="fill:none;stroke:#000000;stroke-width:0.9;stroke-linecap:round"
         d="m 158.74,1371.97 h 45.354"
         id="path12591" />
      <path
         style="fill:none;stroke:#000000;stroke-width:0.9;stroke-linecap:round"
         d="m 204.094,1371.97 v -22.68"
         id="path12593" />
      <path
         style="fill:none;stroke:#000000;stroke-width:0.9;stroke-linecap:round"
         d="M 204.094,1349.29 H 236.22"
         id="path12595" />
      <path
         style="fill:none;stroke:#000000;stroke-width:0.9;stroke-linecap:round"
         d="m 236.22,1349.29 v -22.68"
         id="path12597" />
      <path
         style="fill:none;stroke:#000000;stroke-width:0.9;stroke-linecap:round"
         d="M 258.898,1326.61 H 236.22"
         id="path12599" />
      <path
         style="fill:none;stroke:#000000;stroke-width:0.9;stroke-linecap:round"
         d="m 258.898,1281.26 v 45.35"
         id="path12601" />
      <path
         style="fill:none;stroke:#000000;stroke-width:0.9;stroke-linecap:round"
         d="m 236.22,1281.26 h 22.678"
         id="path12603" />
      <path
         style="fill:none;stroke:#000000;stroke-width:0.9;stroke-linecap:round"
         d="m 236.22,1281.26 v -45.35"
         id="path12605" />
      <path
         style="fill:none;stroke:#000000;stroke-width:0.9;stroke-linecap:round"
         d="M 258.898,1235.91 H 236.22"
         id="path12607" />
      <path
         style="fill:none;stroke:#000000;stroke-width:0.9;stroke-linecap:round"
         d="m 258.898,1190.55 v 45.36"
         id="path12609" />
      <path
         style="fill:none;stroke:#000000;stroke-width:0.9;stroke-linecap:round"
         d="m 236.22,1190.55 h 22.678"
         id="path12611" />
      <path
         style="fill:none;stroke:#000000;stroke-width:0.9;stroke-linecap:round"
         d="M 236.22,1190.55 V 1145.2"
         id="path12613" />
      <path
         style="fill:none;stroke:#000000;stroke-width:0.9;stroke-linecap:round"
         d="M 258.898,1145.2 H 236.22"
         id="path12615" />
      <path
         style="fill:none;stroke:#000000;stroke-width:0.9;stroke-linecap:round"
         d="m 258.898,1099.84 v 45.36"
         id="path12617" />
      <path
         style="fill:none;stroke:#000000;stroke-width:0.9;stroke-linecap:round"
         d="m 236.22,1099.84 h 22.678"
         id="path12619" />
      <path
         style="fill:none;stroke:#000000;stroke-width:0.9;stroke-linecap:round"
         d="m 236.22,1099.84 v -45.35"
         id="path12621" />
      <path
         style="fill:none;stroke:#000000;stroke-width:0.9;stroke-linecap:round"
         d="M 258.898,1054.49 H 236.22"
         id="path12623" />
      <path
         style="fill:none;stroke:#000000;stroke-width:0.9;stroke-linecap:round"
         d="m 258.898,1009.13 v 45.36"
         id="path12625" />
      <path
         style="fill:none;stroke:#000000;stroke-width:0.9;stroke-linecap:round"
         d="m 236.22,1009.13 h 22.678"
         id="path12627" />
      <path
         style="fill:none;stroke:#000000;stroke-width:0.9;stroke-linecap:round"
         d="M 236.22,1009.13 V 963.78"
         id="path12629" />
      <path
         style="fill:none;stroke:#000000;stroke-width:0.9;stroke-linecap:round"
         d="M 258.898,963.78 H 236.22"
         id="path12631" />
      <path
         style="fill:none;stroke:#000000;stroke-width:0.9;stroke-linecap:round"
         d="M 258.898,918.425 V 963.78"
         id="path12633" />
      <path
         style="fill:none;stroke:#000000;stroke-width:0.9;stroke-linecap:round"
         d="m 236.22,918.425 h 22.678"
         id="path12635" />
      <path
         style="fill:none;stroke:#000000;stroke-width:0.9;stroke-linecap:round"
         d="M 236.22,918.425 V 895.748"
         id="path12637" />
      <path
         style="fill:none;stroke:#000000;stroke-width:0.9;stroke-linecap:round"
         d="M 204.094,895.748 H 236.22"
         id="path12639" />
      <path
         style="fill:none;stroke:#000000;stroke-width:0.9;stroke-linecap:round"
         d="m 204.094,873.071 v 22.677"
         id="path12641" />
      <path
         style="fill:none;stroke:#000000;stroke-width:0.9;stroke-linecap:round"
         d="m 158.74,873.071 h 45.354"
         id="path12643" />
      <path
         style="fill:none;stroke:#000000;stroke-width:0.9;stroke-linecap:round"
         d="m 158.74,873.071 v 22.677"
         id="path12645" />
      <path
         style="fill:none;stroke:#000000;stroke-width:0.9;stroke-linecap:round"
         d="M 113.386,895.748 H 158.74"
         id="path12647" />
      <path
         style="fill:none;stroke:#000000;stroke-width:0.9;stroke-linecap:round"
         d="m 113.386,873.071 v 22.677"
         id="path12649" />
      <path
         style="fill:none;stroke:#000000;stroke-width:0.9;stroke-linecap:round"
         d="M 68.0315,873.071 H 113.386"
         id="path12651" />
      <path
         style="fill:none;stroke:#000000;stroke-width:0.9;stroke-linecap:round"
         d="m 68.0315,873.071 v 22.677"
         id="path12653" />
      <path
         style="fill:none;stroke:#000000;stroke-width:0.9;stroke-linecap:round"
         d="M 22.6772,895.748 H 68.0315"
         id="path12655" />
      <path
         style="fill:none;stroke:#000000;stroke-width:0.9;stroke-linecap:round"
         d="m 22.6772,873.071 v 22.677"
         id="path12657" />
      <path
         style="fill:none;stroke:#000000;stroke-width:0.9;stroke-linecap:round"
         d="M -22.6772,873.071 H 22.6772"
         id="path12659" />
      <path
         style="fill:none;stroke:#000000;stroke-width:0.9;stroke-linecap:round"
         d="m -22.6772,873.071 v 22.677"
         id="path12661" />
      <path
         style="fill:none;stroke:#000000;stroke-width:0.9;stroke-linecap:round"
         d="m -68.0315,895.748 h 45.3543"
         id="path12663" />
      <path
         style="fill:none;stroke:#000000;stroke-width:0.9;stroke-linecap:round"
         d="m -68.0315,873.071 v 22.677"
         id="path12665" />
      <path
         style="fill:none;stroke:#000000;stroke-width:0.9;stroke-linecap:round"
         d="m -113.386,873.071 h 45.3545"
         id="path12667" />
      <path
         style="fill:none;stroke:#000000;stroke-width:0.9;stroke-linecap:round"
         d="m -113.386,873.071 v 22.677"
         id="path12669" />
      <path
         style="fill:none;stroke:#000000;stroke-width:0.9;stroke-linecap:round"
         d="m -158.74,895.748 h 45.354"
         id="path12671" />
      <path
         style="fill:none;stroke:#000000;stroke-width:0.9;stroke-linecap:round"
         d="m -158.74,873.071 v 22.677"
         id="path12673" />
      <path
         style="fill:none;stroke:#000000;stroke-width:0.9;stroke-linecap:round"
         d="m -204.094,873.071 h 45.354"
         id="path12675" />
      <path
         style="fill:none;stroke:#000000;stroke-width:0.9;stroke-linecap:round"
         d="m -204.094,873.071 v 22.677"
         id="path12677" />
      <path
         style="fill:none;stroke:#000000;stroke-width:0.9;stroke-linecap:round"
         d="m -236.22,895.748 h 32.126"
         id="path12679" />
      <path
         style="fill:none;stroke:#000000;stroke-width:0.9;stroke-linecap:round"
         d="M -236.22,918.425 V 895.748"
         id="path12681" />
      <path
         style="fill:none;stroke:#000000;stroke-width:0.9;stroke-linecap:round"
         d="m -236.22,918.425 h -22.678"
         id="path12683" />
      <path
         style="fill:none;stroke:#000000;stroke-width:0.9;stroke-linecap:round"
         d="M -258.898,918.425 V 963.78"
         id="path12685" />
      <path
         style="fill:none;stroke:#000000;stroke-width:0.9;stroke-linecap:round"
         d="m -258.898,963.78 h 22.678"
         id="path12687" />
      <path
         style="fill:none;stroke:#000000;stroke-width:0.9;stroke-linecap:round"
         d="M -236.22,1009.13 V 963.78"
         id="path12689" />
      <path
         style="fill:none;stroke:#000000;stroke-width:0.9;stroke-linecap:round"
         d="m -236.22,1009.13 h -22.678"
         id="path12691" />
      <path
         style="fill:none;stroke:#000000;stroke-width:0.9;stroke-linecap:round"
         d="m -258.898,1009.13 v 45.36"
         id="path12693" />
      <path
         style="fill:none;stroke:#000000;stroke-width:0.9;stroke-linecap:round"
         d="m -258.898,1054.49 h 22.678"
         id="path12695" />
      <path
         style="fill:none;stroke:#000000;stroke-width:0.9;stroke-linecap:round"
         d="m -236.22,1099.84 v -45.35"
         id="path12697" />
      <path
         style="fill:none;stroke:#000000;stroke-width:0.9;stroke-linecap:round"
         d="m -236.22,1099.84 h -22.678"
         id="path12699" />
      <path
         style="fill:none;stroke:#000000;stroke-width:0.9;stroke-linecap:round"
         d="m -258.898,1099.84 v 45.36"
         id="path12701" />
      <path
         style="fill:none;stroke:#000000;stroke-width:0.9;stroke-linecap:round"
         d="m -258.898,1145.2 h 22.678"
         id="path12703" />
      <path
         style="fill:none;stroke:#000000;stroke-width:0.9;stroke-linecap:round"
         d="M -236.22,1190.55 V 1145.2"
         id="path12705" />
      <path
         style="fill:none;stroke:#000000;stroke-width:0.9;stroke-linecap:round"
         d="m -236.22,1190.55 h -22.678"
         id="path12707" />
      <path
         style="fill:none;stroke:#000000;stroke-width:0.9;stroke-linecap:round"
         d="m -258.898,1190.55 v 45.36"
         id="path12709" />
      <path
         style="fill:none;stroke:#000000;stroke-width:0.9;stroke-linecap:round"
         d="m -258.898,1235.91 h 22.678"
         id="path12711" />
      <path
         style="fill:none;stroke:#000000;stroke-width:0.9;stroke-linecap:round"
         d="m -236.22,1281.26 v -45.35"
         id="path12713" />
      <path
         style="fill:none;stroke:#000000;stroke-width:0.9;stroke-linecap:round"
         d="m -236.22,1281.26 h -22.678"
         id="path12715" />
      <path
         style="fill:none;stroke:#000000;stroke-width:0.9;stroke-linecap:round"
         d="m -258.898,1281.26 v 45.35"
         id="path12717" />
      <path
         style="fill:none;stroke:#000000;stroke-width:0.9;stroke-linecap:round"
         d="m -258.898,1326.61 h 22.678"
         id="path12719" />
      <path
         style="fill:none;stroke:#000000;stroke-width:0.9;stroke-linecap:round"
         d="m -236.22,1349.29 v -22.68"
         id="path12721" />
      <path
         d="m 107.15174,979.64418 c 0.006,0.12737 0.0116,0.25474 0.0238,0.38158 0.0118,0.12259 0.0296,0.24469 0.053,0.36569 0.0227,0.11702 0.0506,0.23302 0.0848,0.34714 0.0334,0.11135 0.0727,0.2209 0.1166,0.32859 0.043,0.10547 0.0903,0.20914 0.14309,0.31004 0.0529,0.10111 0.11124,0.19944 0.17489,0.29414 0.0641,0.0953 0.13353,0.18699 0.2067,0.27559 0.0745,0.0902 0.15287,0.17728 0.23584,0.25969 0.0825,0.082 0.16964,0.1594 0.25969,0.23319 0.0879,0.072 0.17865,0.14065 0.27294,0.20404 0.0931,0.0626 0.18957,0.12006 0.28884,0.17225 0.099,0.0521 0.20084,0.0989 0.30474,0.14044 0.10405,0.0417 0.21021,0.0781 0.31799,0.10865 0.10989,0.0311 0.22148,0.0561 0.33389,0.0769 0.11496,0.0212 0.2308,0.0379 0.34714,0.0477 0.12065,0.0102 0.24184,0.0131 0.36303,0.0159"
         style="fill:none;stroke:#000000;stroke-width:0.9;stroke-linecap:round"
         id="path12723" />
      <path
         d="m 110.67876,983.20566 c 0.1185,-0.002 0.23699,-0.005 0.35509,-0.0132 0.11624,-0.009 0.2321,-0.0232 0.34714,-0.0424 0.11574,-0.0193 0.23066,-0.0432 0.34449,-0.0716 0.11423,-0.0284 0.22736,-0.0612 0.33919,-0.098 0.11022,-0.0363 0.21917,-0.0765 0.32593,-0.12189 0.10182,-0.0433 0.20165,-0.0913 0.29944,-0.1431 0.0931,-0.0493 0.18432,-0.10208 0.27295,-0.15899 0.0858,-0.0551 0.16919,-0.11412 0.24909,-0.17755 0.0843,-0.0669 0.16478,-0.13879 0.24114,-0.21464 0.0883,-0.0877 0.1711,-0.18073 0.25174,-0.27559 0.0908,-0.10685 0.17893,-0.21601 0.26234,-0.32859 0.0941,-0.12694 0.18218,-0.25824 0.27029,-0.38953"
         style="fill:none;stroke:#000000;stroke-width:0.9;stroke-linecap:round"
         id="path12725" />
      <path
         style="fill:none;stroke:#000000;stroke-width:0.9;stroke-linecap:round"
         d="m 114.238,981.171 1.054,0.553"
         id="path12727" />
      <path
         d="m 115.29226,981.72436 c -0.0841,0.14907 -0.16809,0.29815 -0.2597,0.44253 -0.0866,0.13653 -0.18,0.26886 -0.27824,0.39749 -0.0937,0.12269 -0.19182,0.24202 -0.29679,0.35509 -0.10031,0.10805 -0.20686,0.21038 -0.31799,0.30738 -0.10803,0.0943 -0.22038,0.18359 -0.33653,0.26765 -0.11476,0.083 -0.23322,0.161 -0.35509,0.23319 -0.12311,0.0729 -0.24968,0.13996 -0.37894,0.20139 -0.12985,0.0617 -0.26241,0.11776 -0.39749,0.16695 -0.13813,0.0503 -0.2789,0.0934 -0.42133,0.12984 -0.14775,0.0378 -0.29728,0.0683 -0.44784,0.0928 -0.15722,0.0255 -0.31555,0.0444 -0.47433,0.0557 -0.16662,0.0118 -0.33372,0.0152 -0.50083,0.0186"
         style="fill:none;stroke:#000000;stroke-width:0.9;stroke-linecap:round"
         id="path12729" />
      <path
         d="m 110.82716,984.39282 c -0.18574,-0.004 -0.37147,-0.009 -0.55648,-0.0239 -0.1759,-0.0144 -0.35114,-0.0387 -0.52468,-0.0716 -0.1662,-0.0315 -0.33082,-0.0709 -0.49289,-0.11925 -0.15751,-0.047 -0.3126,-0.10229 -0.46373,-0.16694 -0.14717,-0.063 -0.29059,-0.13474 -0.42929,-0.21464 -0.13826,-0.0797 -0.27183,-0.16741 -0.40013,-0.26234 -0.12965,-0.0959 -0.25392,-0.19922 -0.37099,-0.31005 -0.11893,-0.11257 -0.23043,-0.23293 -0.33654,-0.35773 -0.10604,-0.12473 -0.2067,-0.25389 -0.30209,-0.38689 -0.093,-0.12964 -0.18094,-0.26293 -0.26234,-0.40014 -0.0797,-0.13428 -0.15305,-0.27231 -0.21994,-0.41338 -0.0662,-0.13953 -0.12599,-0.28202 -0.1802,-0.42664 -0.0538,-0.14365 -0.10216,-0.28941 -0.14309,-0.43723 -0.0408,-0.14749 -0.0743,-0.29703 -0.1007,-0.44784 -0.0268,-0.15355 -0.0463,-0.30841 -0.0583,-0.46373 -0.0122,-0.15779 -0.0167,-0.31606 -0.0212,-0.47433"
         style="fill:none;stroke:#000000;stroke-width:0.9;stroke-linecap:round"
         id="path12731" />
      <path
         d="m 105.96457,979.41629 c 0.004,-0.14852 0.008,-0.29704 0.0186,-0.44519 0.0104,-0.14546 0.027,-0.29058 0.0503,-0.43458 0.023,-0.14164 0.0524,-0.2822 0.0875,-0.42134 0.0349,-0.13853 0.0754,-0.27565 0.1219,-0.41074 0.0463,-0.13467 0.0985,-0.26733 0.15634,-0.39748 0.0581,-0.13073 0.12177,-0.25893 0.19079,-0.38424 0.0704,-0.12784 0.14638,-0.25267 0.2279,-0.37364 0.0827,-0.12278 0.17121,-0.24158 0.25969,-0.36038"
         style="fill:none;stroke:#000000;stroke-width:0.9;stroke-linecap:round"
         id="path12733" />
      <path
         d="m 107.07754,976.1887 c 0.11984,-0.14313 0.23968,-0.28626 0.36834,-0.42134 0.12458,-0.1308 0.25743,-0.25406 0.39748,-0.36834 0.1359,-0.11088 0.27859,-0.2133 0.42664,-0.30739 0.14761,-0.0938 0.30055,-0.17933 0.45843,-0.25439 0.15826,-0.0752 0.32149,-0.13995 0.48758,-0.19609 0.16946,-0.0573 0.34189,-0.10564 0.51674,-0.14309 0.18001,-0.0386 0.36259,-0.0656 0.54588,-0.0821 0.19204,-0.0174 0.38486,-0.0233 0.57768,-0.0292"
         style="fill:none;stroke:#000000;stroke-width:0.9;stroke-linecap:round"
         id="path12735" />
      <path
         d="m 110.85631,974.38676 c 0.19823,0.005 0.39645,0.0102 0.59358,0.0292 0.18959,0.0182 0.37816,0.0491 0.56443,0.0901 0.18019,0.0396 0.35823,0.0886 0.53263,0.1484 0.1709,0.0586 0.33831,0.12759 0.50083,0.20669 0.16268,0.0792 0.32046,0.16849 0.47169,0.26764 0.1531,0.10039 0.29948,0.21087 0.43988,0.32859 0.14429,0.12098 0.28226,0.24962 0.41074,0.38689 0.13311,0.14222 0.25602,0.2937 0.37893,0.44518"
         style="fill:none;stroke:#000000;stroke-width:0.9;stroke-linecap:round"
         id="path12737" />
      <path
         d="m 114.74902,976.28939 c 0.0836,0.11416 0.16726,0.22831 0.2438,0.34714 0.076,0.11804 0.14504,0.24068 0.20934,0.36569 0.0655,0.12732 0.12608,0.2571 0.18019,0.38953 0.0546,0.13372 0.10265,0.27016 0.14575,0.40809 0.0442,0.1416 0.0833,0.28477 0.11659,0.42929 0.0343,0.14892 0.0626,0.29926 0.0848,0.45048 0.023,0.15649 0.0396,0.31393 0.0503,0.47168 0.0112,0.16407 0.0162,0.32848 0.0212,0.49289"
         style="fill:none;stroke:#000000;stroke-width:0.9;stroke-linecap:round"
         id="path12739" />
      <path
         style="fill:none;stroke:#000000;stroke-width:0.9;stroke-linecap:round"
         d="m 115.801,979.644 h -8.649"
         id="path12741" />
      <path
         style="fill:none;stroke:#000000;stroke-width:0.9;stroke-linecap:round"
         d="M 82.391,987.785 H 81.2038"
         id="path12743" />
      <path
         style="fill:none;stroke:#000000;stroke-width:0.9;stroke-linecap:round"
         d="M 81.2038,987.785 V 974.556"
         id="path12745" />
      <path
         style="fill:none;stroke:#000000;stroke-width:0.9;stroke-linecap:round"
         d="M 81.2038,974.556 H 82.391"
         id="path12747" />
      <path
         style="fill:none;stroke:#000000;stroke-width:0.9;stroke-linecap:round"
         d="m 82.391,974.556 v 1.789"
         id="path12749" />
      <path
         d="m 82.390984,976.34504 c 0.126075,-0.16228 0.252151,-0.32457 0.389536,-0.47698 0.129596,-0.14378 0.269256,-0.27877 0.416036,-0.40544 0.141414,-0.12204 0.289437,-0.23636 0.445185,-0.33919 0.151561,-0.10006 0.310438,-0.18925 0.474333,-0.26764 0.163482,-0.0782 0.331958,-0.14565 0.503483,-0.20404 0.173769,-0.0592 0.350668,-0.10902 0.529982,-0.1484 0.184384,-0.0405 0.371323,-0.0699 0.559131,-0.0874 0.195465,-0.0183 0.391872,-0.0237 0.58828,-0.0292"
         style="fill:none;stroke:#000000;stroke-width:0.9;stroke-linecap:round"
         id="path12751" />
      <path
         d="m 86.29695,974.38676 c 0.171558,0.005 0.343117,0.01 0.514082,0.0239 0.166956,0.0136 0.333346,0.0357 0.498183,0.0662 0.160848,0.0298 0.320218,0.0675 0.476984,0.11395 0.155388,0.046 0.308219,0.10059 0.458434,0.16165 0.149846,0.0609 0.297091,0.12828 0.439885,0.20404 0.143865,0.0763 0.283213,0.16117 0.418685,0.25174 0.13874,0.0928 0.273416,0.19152 0.402787,0.29679 0.132471,0.10779 0.25938,0.2224 0.381587,0.34184 0.122088,0.11932 0.239482,0.24346 0.349788,0.37364 0.107143,0.12644 0.207598,0.25856 0.302089,0.39483 0.0921,0.13281 0.178524,0.26955 0.257041,0.41074 0.0774,0.13916 0.147101,0.28265 0.209343,0.42928 0.06249,0.14722 0.117455,0.29762 0.164295,0.45049 0.04696,0.15326 0.08575,0.30902 0.116596,0.46638 0.03159,0.16119 0.05485,0.32407 0.0689,0.48759 0.01438,0.16737 0.01911,0.33543 0.02385,0.50348"
         style="fill:none;stroke:#000000;stroke-width:0.9;stroke-linecap:round"
         id="path12753" />
      <path
         d="m 91.379475,979.36329 c -0.0046,0.1716 -0.0093,0.3432 -0.02385,0.51408 -0.01418,0.16612 -0.03777,0.33157 -0.0689,0.49553 -0.03036,0.15988 -0.06789,0.31834 -0.113946,0.47434 -0.04566,0.15464 -0.09971,0.30687 -0.161645,0.45578 -0.06209,0.14928 -0.132104,0.29523 -0.209343,0.43724 -0.0777,0.14285 -0.162704,0.28172 -0.254391,0.41603 -0.09317,0.13648 -0.193242,0.26826 -0.29944,0.39484 -0.109715,0.13077 -0.22597,0.25601 -0.347138,0.37628 -0.121207,0.12032 -0.247329,0.23568 -0.378937,0.34449 -0.127482,0.1054 -0.260111,0.20466 -0.397486,0.29679 -0.135292,0.0907 -0.275188,0.17456 -0.418686,0.25174 -0.141352,0.076 -0.286198,0.14564 -0.434585,0.2067 -0.148845,0.0612 -0.301252,0.11389 -0.455784,0.15899 -0.156168,0.0456 -0.314506,0.0835 -0.474334,0.11395 -0.163914,0.0313 -0.329395,0.0548 -0.495533,0.0689 -0.170019,0.0145 -0.340726,0.0192 -0.511433,0.0239"
         style="fill:none;stroke:#000000;stroke-width:0.9;stroke-linecap:round"
         id="path12755" />
      <path
         d="m 86.334048,984.39282 c -0.192104,-0.005 -0.384208,-0.01 -0.57503,-0.0292 -0.186107,-0.0189 -0.370995,-0.0515 -0.553831,-0.0927 -0.178366,-0.0402 -0.35478,-0.0886 -0.527332,-0.1484 -0.172842,-0.0599 -0.34181,-0.1313 -0.506132,-0.21199 -0.164866,-0.081 -0.325056,-0.17126 -0.479634,-0.27029 -0.158798,-0.10173 -0.311675,-0.21267 -0.458434,-0.33124 -0.150927,-0.12193 -0.295383,-0.25194 -0.431935,-0.38953 -0.142663,-0.14376 -0.2767,-0.2958 -0.410736,-0.44784"
         style="fill:none;stroke:#000000;stroke-width:0.9;stroke-linecap:round"
         id="path12757" />
      <path
         style="fill:none;stroke:#000000;stroke-width:0.9;stroke-linecap:round"
         d="m 82.391,982.472 v 5.313"
         id="path12759" />
      <path
         style="fill:none;stroke:#000000;stroke-width:0.9;stroke-linecap:round"
         d="m 134.796,1002.17 v -1.79"
         id="path12761" />
      <path
         style="fill:none;stroke:#000000;stroke-width:0.9;stroke-linecap:round"
         d="m 134.796,1000.38 h 1.187"
         id="path12763" />
      <path
         style="fill:none;stroke:#000000;stroke-width:0.9;stroke-linecap:round"
         d="m 135.983,1000.38 v 9.67"
         id="path12765" />
      <path
         style="fill:none;stroke:#000000;stroke-width:0.9;stroke-linecap:round"
         d="m 135.983,1010.05 h -1.187"
         id="path12767" />
      <path
         style="fill:none;stroke:#000000;stroke-width:0.9;stroke-linecap:round"
         d="m 134.796,1010.05 v -1.67"
         id="path12769" />
      <path
         d="m 134.79559,1008.3779 c -0.13387,0.1513 -0.26774,0.3027 -0.41074,0.4452 -0.13607,0.1356 -0.28041,0.2632 -0.43193,0.3816 -0.14726,0.115 -0.30129,0.2212 -0.46109,0.318 -0.15556,0.094 -0.31658,0.1794 -0.48228,0.2544 -0.16466,0.074 -0.33395,0.1386 -0.50614,0.1934 -0.1732,0.055 -0.34933,0.1006 -0.52733,0.1378 -0.18297,0.038 -0.36792,0.068 -0.55383,0.085 -0.191,0.018 -0.38301,0.022 -0.57503,0.027"
         style="fill:none;stroke:#000000;stroke-width:0.9;stroke-linecap:round"
         id="path12771" />
      <path
         d="m 130.84722,1010.2196 c -0.17071,0 -0.34143,-0.01 -0.51143,-0.024 -0.16525,-0.014 -0.32984,-0.038 -0.49288,-0.069 -0.15982,-0.03 -0.31817,-0.068 -0.47434,-0.1139 -0.15453,-0.045 -0.30694,-0.098 -0.45578,-0.159 -0.14839,-0.061 -0.29323,-0.1307 -0.43459,-0.2067 -0.14349,-0.077 -0.28339,-0.161 -0.41868,-0.2517 -0.13738,-0.092 -0.27,-0.1914 -0.39749,-0.2968 -0.13161,-0.1088 -0.25776,-0.2242 -0.37894,-0.3445 -0.12113,-0.1203 -0.2373,-0.2456 -0.34713,-0.3763 -0.10632,-0.1265 -0.2067,-0.2581 -0.29944,-0.3948 -0.091,-0.1342 -0.17466,-0.2734 -0.25174,-0.4161 -0.0769,-0.1422 -0.14715,-0.288 -0.20935,-0.4372 -0.062,-0.1489 -0.11601,-0.3011 -0.16164,-0.4558 -0.046,-0.156 -0.0836,-0.3145 -0.11395,-0.4743 -0.0311,-0.164 -0.0547,-0.3294 -0.0689,-0.4956 -0.0146,-0.1708 -0.0192,-0.3424 -0.0238,-0.514"
         style="fill:none;stroke:#000000;stroke-width:0.9;stroke-linecap:round"
         id="path12773" />
      <path
         d="m 125.8071,1005.1901 c 0.005,-0.1681 0.009,-0.3361 0.0238,-0.5035 0.014,-0.1635 0.0373,-0.3264 0.0689,-0.4876 0.0309,-0.1574 0.0697,-0.3131 0.1166,-0.4664 0.0468,-0.1529 0.1017,-0.3033 0.16429,-0.4505 0.0624,-0.1465 0.13234,-0.2899 0.20934,-0.4293 0.0779,-0.141 0.16298,-0.278 0.2544,-0.4107 0.0941,-0.1365 0.19483,-0.2685 0.30209,-0.3948 0.11042,-0.1301 0.22773,-0.2543 0.34978,-0.3737 0.12218,-0.1194 0.24911,-0.234 0.38159,-0.3418 0.12938,-0.1053 0.26405,-0.204 0.40279,-0.2968 0.13547,-0.091 0.27482,-0.1754 0.41868,-0.2517 0.1428,-0.076 0.29004,-0.1432 0.43989,-0.2041 0.15021,-0.061 0.30304,-0.1156 0.45843,-0.1616 0.15677,-0.046 0.31614,-0.084 0.47699,-0.114 0.16396,-0.03 0.32946,-0.053 0.49553,-0.066 0.17095,-0.014 0.34252,-0.019 0.51408,-0.024"
         style="fill:none;stroke:#000000;stroke-width:0.9;stroke-linecap:round"
         id="path12775" />
      <path
         d="m 130.88432,1000.2135 c 0.19729,0.01 0.39458,0.011 0.59093,0.029 0.18868,0.018 0.37649,0.047 0.56178,0.087 0.1802,0.039 0.35801,0.089 0.53263,0.1484 0.17158,0.058 0.34008,0.1258 0.50349,0.2041 0.16381,0.079 0.32251,0.1679 0.47433,0.2676 0.1566,0.1029 0.30589,0.2167 0.44783,0.3392 0.1463,0.1262 0.2848,0.2616 0.41339,0.4054 0.13639,0.1526 0.26164,0.3148 0.38689,0.477"
         style="fill:none;stroke:#000000;stroke-width:0.9;stroke-linecap:round"
         id="path12777" />
      <path
         style="fill:none;stroke:#000000;stroke-width:0.9;stroke-linecap:round"
         d="m 139.544,1010.05 h -1.187"
         id="path12779" />
      <path
         style="fill:none;stroke:#000000;stroke-width:0.9;stroke-linecap:round"
         d="m 138.357,1010.05 v -9.67"
         id="path12781" />
      <path
         style="fill:none;stroke:#000000;stroke-width:0.9;stroke-linecap:round"
         d="m 138.357,1000.38 h 1.187"
         id="path12783" />
      <path
         style="fill:none;stroke:#000000;stroke-width:0.9;stroke-linecap:round"
         d="m 139.544,1000.38 v 1.43"
         id="path12785" />
      <path
         d="m 139.54422,1001.8061 c 0.0876,-0.1325 0.17529,-0.265 0.27029,-0.3922 0.0867,-0.116 0.17952,-0.2277 0.27824,-0.3338 0.0894,-0.096 0.18364,-0.1878 0.28355,-0.273 0.0923,-0.079 0.18941,-0.1518 0.29149,-0.2173 0.0959,-0.062 0.19616,-0.1161 0.29944,-0.1643 0.0997,-0.047 0.20219,-0.087 0.30738,-0.1192 0.10134,-0.031 0.20517,-0.055 0.31004,-0.069 0.1053,-0.014 0.21165,-0.019 0.31799,-0.024"
         style="fill:none;stroke:#000000;stroke-width:0.9;stroke-linecap:round"
         id="path12787" />
      <path
         d="m 141.90264,1000.2135 c 0.0825,0 0.16499,0.01 0.24645,0.021 0.0861,0.013 0.17112,0.034 0.25439,0.061 0.0897,0.029 0.1775,0.063 0.26234,0.1033 0.0924,0.044 0.18134,0.095 0.27029,0.1458"
         style="fill:none;stroke:#000000;stroke-width:0.9;stroke-linecap:round"
         id="path12789" />
      <path
         style="fill:none;stroke:#000000;stroke-width:0.9;stroke-linecap:round"
         d="m 142.936,1000.54 -0.652,1.03"
         id="path12791" />
      <path
         d="m 142.28423,1001.5729 c -0.0571,-0.025 -0.11421,-0.051 -0.17224,-0.074 -0.0521,-0.021 -0.10501,-0.04 -0.159,-0.056 -0.0478,-0.014 -0.0965,-0.025 -0.14574,-0.032 -0.043,-0.01 -0.0864,-0.01 -0.12985,-0.011"
         style="fill:none;stroke:#000000;stroke-width:0.9;stroke-linecap:round"
         id="path12793" />
      <path
         d="m 141.6774,1001.4007 c -0.0953,0.01 -0.19053,0.013 -0.28354,0.032 -0.0967,0.02 -0.19096,0.053 -0.28089,0.095 -0.0957,0.045 -0.18659,0.099 -0.27294,0.159 -0.0957,0.067 -0.18593,0.1418 -0.27029,0.2226 -0.0452,0.043 -0.0886,0.088 -0.12985,0.1351 -0.0431,0.049 -0.0838,0.1006 -0.12189,0.1537 -0.0394,0.055 -0.0762,0.1118 -0.1113,0.1696 -0.0374,0.062 -0.0729,0.1242 -0.106,0.1882 -0.0351,0.068 -0.0675,0.1368 -0.098,0.2066 -0.0321,0.073 -0.0621,0.1476 -0.0901,0.2226 -0.0297,0.08 -0.057,0.1601 -0.0822,0.2412 -0.0264,0.085 -0.0503,0.1711 -0.0742,0.257"
         style="fill:none;stroke:#000000;stroke-width:0.9;stroke-linecap:round"
         id="path12795" />
      <path
         d="m 139.75622,1003.4835 c -0.0179,0.077 -0.0358,0.1533 -0.0504,0.2306 -0.0177,0.094 -0.0305,0.1886 -0.0424,0.2835 -0.014,0.112 -0.0267,0.2242 -0.0371,0.3365 -0.012,0.1297 -0.0209,0.2596 -0.0292,0.3896 -0.009,0.1465 -0.0175,0.2932 -0.0238,0.4399 -0.007,0.1642 -0.0118,0.3285 -0.0159,0.4928 -0.005,0.182 -0.008,0.3639 -0.0106,0.5459 -0.002,0.1996 -0.002,0.3993 -0.003,0.5989"
         style="fill:none;stroke:#000000;stroke-width:0.9;stroke-linecap:round"
         id="path12797" />
      <path
         style="fill:none;stroke:#000000;stroke-width:0.9;stroke-linecap:round"
         d="m 139.544,1006.8 v 3.25"
         id="path12799" />
      <path
         style="fill:none;stroke:#000000;stroke-width:0.9;stroke-linecap:round"
         d="M 144.802,1006.66 V 996.482"
         id="path12801" />
      <path
         style="fill:none;stroke:#000000;stroke-width:0.9;stroke-linecap:round"
         d="m 144.802,996.482 h 1.187"
         id="path12803" />
      <path
         style="fill:none;stroke:#000000;stroke-width:0.9;stroke-linecap:round"
         d="m 145.989,996.482 v 10.178"
         id="path12805" />
      <path
         style="fill:none;stroke:#000000;stroke-width:0.9;stroke-linecap:round"
         d="m 145.989,1006.66 h -1.187"
         id="path12807" />
      <path
         d="m 145.39522,1010.2196 c -0.0624,0 -0.12474,-0.01 -0.18549,-0.021 -0.0595,-0.013 -0.11737,-0.034 -0.17224,-0.061 -0.0565,-0.028 -0.10984,-0.062 -0.159,-0.1007 -0.0524,-0.042 -0.10005,-0.089 -0.14309,-0.1404 -0.045,-0.054 -0.0849,-0.1114 -0.11925,-0.1722 -0.0335,-0.059 -0.0617,-0.1214 -0.0848,-0.1855 -0.0239,-0.066 -0.0424,-0.1347 -0.053,-0.2041 -0.0109,-0.072 -0.0134,-0.1445 -0.0159,-0.2173"
         style="fill:none;stroke:#000000;stroke-width:0.9;stroke-linecap:round"
         id="path12809" />
      <path
         d="m 144.46245,1009.1172 c 0.002,-0.075 0.005,-0.1491 0.0159,-0.2226 0.0106,-0.069 0.0292,-0.1377 0.053,-0.204 0.0231,-0.064 0.0511,-0.1264 0.0848,-0.1855 0.0343,-0.06 0.0745,-0.1167 0.11925,-0.1696 0.0433,-0.051 0.0908,-0.099 0.14309,-0.1404 0.0491,-0.039 0.10227,-0.074 0.159,-0.1007 0.0548,-0.026 0.11289,-0.046 0.17224,-0.058 0.0609,-0.013 0.12322,-0.017 0.18549,-0.021"
         style="fill:none;stroke:#000000;stroke-width:0.9;stroke-linecap:round"
         id="path12811" />
      <path
         d="m 145.39522,1008.0149 c 0.0623,0 0.12456,0.01 0.1855,0.021 0.0593,0.012 0.11743,0.032 0.17224,0.058 0.0567,0.027 0.10994,0.061 0.159,0.1007 0.0523,0.042 0.0998,0.089 0.14309,0.1404 0.0448,0.053 0.085,0.1096 0.11925,0.1696 0.0337,0.059 0.0617,0.1213 0.0848,0.1855 0.0238,0.066 0.0424,0.1347 0.053,0.204 0.0112,0.074 0.0136,0.148 0.0159,0.2226"
         style="fill:none;stroke:#000000;stroke-width:0.9;stroke-linecap:round"
         id="path12813" />
      <path
         d="m 146.32799,1009.1172 c -0.002,0.073 -0.005,0.1456 -0.0159,0.2173 -0.0106,0.069 -0.0291,0.1378 -0.053,0.2041 -0.0231,0.064 -0.0513,0.1262 -0.0848,0.1855 -0.0344,0.061 -0.0743,0.1186 -0.11925,0.1722 -0.043,0.051 -0.0907,0.099 -0.14309,0.1404 -0.0492,0.039 -0.10247,0.073 -0.159,0.1007 -0.0549,0.027 -0.11279,0.048 -0.17224,0.061 -0.0608,0.013 -0.12313,0.017 -0.1855,0.021"
         style="fill:none;stroke:#000000;stroke-width:0.9;stroke-linecap:round"
         id="path12815" />
      <path
         style="fill:none;stroke:#000000;stroke-width:0.9;stroke-linecap:round"
         d="M 57.4606,984.223 V 972.352"
         id="path12817" />
      <path
         style="fill:none;stroke:#000000;stroke-width:0.9;stroke-linecap:round"
         d="M 57.4606,972.352 H 54.5775"
         id="path12819" />
      <path
         style="fill:none;stroke:#000000;stroke-width:0.9;stroke-linecap:round"
         d="m 54.5775,972.352 v -1.357"
         id="path12821" />
      <path
         style="fill:none;stroke:#000000;stroke-width:0.9;stroke-linecap:round"
         d="m 54.5775,970.995 h 6.9534"
         id="path12823" />
      <path
         style="fill:none;stroke:#000000;stroke-width:0.9;stroke-linecap:round"
         d="m 61.5309,970.995 v 1.357"
         id="path12825" />
      <path
         style="fill:none;stroke:#000000;stroke-width:0.9;stroke-linecap:round"
         d="M 61.5309,972.352 H 58.6478"
         id="path12827" />
      <path
         style="fill:none;stroke:#000000;stroke-width:0.9;stroke-linecap:round"
         d="m 58.6478,972.352 v 11.871"
         id="path12829" />
      <path
         style="fill:none;stroke:#000000;stroke-width:0.9;stroke-linecap:round"
         d="M 58.6478,984.223 H 57.4606"
         id="path12831" />
    </g>
  </g>
</svg>
