M48
INCH,TZ
T1C0.0236
T2C0.0300
T3C0.0315
T4C0.0390
T5C0.0394
T6C0.0433
%
G90
G05
T1
X56319Y-35079
T2
X43184Y-37840
X43184Y-42525
X49837Y-37840
X49837Y-42525
X52237Y-45787
X53237Y-45787
X54237Y-45787
X55237Y-45787
T3
X42165Y-34862
X43858Y-45512
X51260Y-33622
X54764Y-38031
X55512Y-40079
X55551Y-36142
X57087Y-40591
X57559Y-36890
X58071Y-43976
X59465Y-33921
X66220Y-46654
X68740Y-38681
T4
X49823Y-34173
X49823Y-35945
X52382Y-34173
X52382Y-35945
X63681Y-42677
X63681Y-45236
X65453Y-42677
X65453Y-45236
T5
X67047Y-34480
X67047Y-35480
X67047Y-36480
X67047Y-37480
T6
X56237Y-45787
X57237Y-45787
X58237Y-45787
X59237Y-45787
T5
G00X45374Y-45000
M15
G01X45374Y-46024
M16
G05
G00X46220Y-47402
M15
G01X47244Y-47402
M16
G05
G00X47874Y-44980
M15
G01X47874Y-46004
M16
G05
T0
M30
