G04 #@! TF.GenerationSoftware,KiCad,Pcbnew,(6.0.4)*
G04 #@! TF.CreationDate,2022-04-15T12:43:22+02:00*
G04 #@! TF.ProjectId,7segments_beide_groundplane,37736567-6d65-46e7-9473-5f6265696465,rev?*
G04 #@! TF.SameCoordinates,Original*
G04 #@! TF.FileFunction,Legend,Top*
G04 #@! TF.FilePolarity,Positive*
%FSLAX46Y46*%
G04 Gerber Fmt 4.6, Leading zero omitted, Abs format (unit mm)*
G04 Created by KiCad (PCBNEW (6.0.4)) date 2022-04-15 12:43:22*
%MOMM*%
%LPD*%
G01*
G04 APERTURE LIST*
%ADD10C,0.200000*%
%ADD11C,0.125000*%
%ADD12C,0.375000*%
%ADD13C,0.300000*%
%ADD14C,0.150000*%
%ADD15C,0.120000*%
%ADD16C,0.127000*%
G04 APERTURE END LIST*
D10*
X123850000Y-101028571D02*
X124135714Y-101028571D01*
X124278571Y-101100000D01*
X124421428Y-101242857D01*
X124492857Y-101528571D01*
X124492857Y-102028571D01*
X124421428Y-102314285D01*
X124278571Y-102457142D01*
X124135714Y-102528571D01*
X123850000Y-102528571D01*
X123707142Y-102457142D01*
X123564285Y-102314285D01*
X123492857Y-102028571D01*
X123492857Y-101528571D01*
X123564285Y-101242857D01*
X123707142Y-101100000D01*
X123850000Y-101028571D01*
X125135714Y-101028571D02*
X125135714Y-102242857D01*
X125207142Y-102385714D01*
X125278571Y-102457142D01*
X125421428Y-102528571D01*
X125707142Y-102528571D01*
X125850000Y-102457142D01*
X125921428Y-102385714D01*
X125992857Y-102242857D01*
X125992857Y-101028571D01*
X126492857Y-101028571D02*
X127350000Y-101028571D01*
X126921428Y-102528571D02*
X126921428Y-101028571D01*
D11*
X137519047Y-120773809D02*
X137542857Y-120750000D01*
X137590476Y-120726190D01*
X137709523Y-120726190D01*
X137757142Y-120750000D01*
X137780952Y-120773809D01*
X137804761Y-120821428D01*
X137804761Y-120869047D01*
X137780952Y-120940476D01*
X137495238Y-121226190D01*
X137804761Y-121226190D01*
X138257142Y-120726190D02*
X138019047Y-120726190D01*
X137995238Y-120964285D01*
X138019047Y-120940476D01*
X138066666Y-120916666D01*
X138185714Y-120916666D01*
X138233333Y-120940476D01*
X138257142Y-120964285D01*
X138280952Y-121011904D01*
X138280952Y-121130952D01*
X138257142Y-121178571D01*
X138233333Y-121202380D01*
X138185714Y-121226190D01*
X138066666Y-121226190D01*
X138019047Y-121202380D01*
X137995238Y-121178571D01*
X150504761Y-121226190D02*
X150219047Y-121226190D01*
X150361904Y-121226190D02*
X150361904Y-120726190D01*
X150314285Y-120797619D01*
X150266666Y-120845238D01*
X150219047Y-120869047D01*
X150671428Y-120726190D02*
X150980952Y-120726190D01*
X150814285Y-120916666D01*
X150885714Y-120916666D01*
X150933333Y-120940476D01*
X150957142Y-120964285D01*
X150980952Y-121011904D01*
X150980952Y-121130952D01*
X150957142Y-121178571D01*
X150933333Y-121202380D01*
X150885714Y-121226190D01*
X150742857Y-121226190D01*
X150695238Y-121202380D01*
X150671428Y-121178571D01*
X145404761Y-121226190D02*
X145119047Y-121226190D01*
X145261904Y-121226190D02*
X145261904Y-120726190D01*
X145214285Y-120797619D01*
X145166666Y-120845238D01*
X145119047Y-120869047D01*
X145833333Y-120892857D02*
X145833333Y-121226190D01*
X145714285Y-120702380D02*
X145595238Y-121059523D01*
X145904761Y-121059523D01*
X134795238Y-120726190D02*
X135104761Y-120726190D01*
X134938095Y-120916666D01*
X135009523Y-120916666D01*
X135057142Y-120940476D01*
X135080952Y-120964285D01*
X135104761Y-121011904D01*
X135104761Y-121130952D01*
X135080952Y-121178571D01*
X135057142Y-121202380D01*
X135009523Y-121226190D01*
X134866666Y-121226190D01*
X134819047Y-121202380D01*
X134795238Y-121178571D01*
X135271428Y-120726190D02*
X135580952Y-120726190D01*
X135414285Y-120916666D01*
X135485714Y-120916666D01*
X135533333Y-120940476D01*
X135557142Y-120964285D01*
X135580952Y-121011904D01*
X135580952Y-121130952D01*
X135557142Y-121178571D01*
X135533333Y-121202380D01*
X135485714Y-121226190D01*
X135342857Y-121226190D01*
X135295238Y-121202380D01*
X135271428Y-121178571D01*
D12*
X154692857Y-118428571D02*
X155692857Y-118428571D01*
X155050000Y-119928571D01*
X157335714Y-119857142D02*
X157550000Y-119928571D01*
X157907142Y-119928571D01*
X158050000Y-119857142D01*
X158121428Y-119785714D01*
X158192857Y-119642857D01*
X158192857Y-119500000D01*
X158121428Y-119357142D01*
X158050000Y-119285714D01*
X157907142Y-119214285D01*
X157621428Y-119142857D01*
X157478571Y-119071428D01*
X157407142Y-119000000D01*
X157335714Y-118857142D01*
X157335714Y-118714285D01*
X157407142Y-118571428D01*
X157478571Y-118500000D01*
X157621428Y-118428571D01*
X157978571Y-118428571D01*
X158192857Y-118500000D01*
X159407142Y-119857142D02*
X159264285Y-119928571D01*
X158978571Y-119928571D01*
X158835714Y-119857142D01*
X158764285Y-119714285D01*
X158764285Y-119142857D01*
X158835714Y-119000000D01*
X158978571Y-118928571D01*
X159264285Y-118928571D01*
X159407142Y-119000000D01*
X159478571Y-119142857D01*
X159478571Y-119285714D01*
X158764285Y-119428571D01*
X160764285Y-118928571D02*
X160764285Y-120142857D01*
X160692857Y-120285714D01*
X160621428Y-120357142D01*
X160478571Y-120428571D01*
X160264285Y-120428571D01*
X160121428Y-120357142D01*
X160764285Y-119857142D02*
X160621428Y-119928571D01*
X160335714Y-119928571D01*
X160192857Y-119857142D01*
X160121428Y-119785714D01*
X160050000Y-119642857D01*
X160050000Y-119214285D01*
X160121428Y-119071428D01*
X160192857Y-119000000D01*
X160335714Y-118928571D01*
X160621428Y-118928571D01*
X160764285Y-119000000D01*
X161478571Y-119928571D02*
X161478571Y-118928571D01*
X161478571Y-119071428D02*
X161550000Y-119000000D01*
X161692857Y-118928571D01*
X161907142Y-118928571D01*
X162050000Y-119000000D01*
X162121428Y-119142857D01*
X162121428Y-119928571D01*
X162121428Y-119142857D02*
X162192857Y-119000000D01*
X162335714Y-118928571D01*
X162550000Y-118928571D01*
X162692857Y-119000000D01*
X162764285Y-119142857D01*
X162764285Y-119928571D01*
X164050000Y-119857142D02*
X163907142Y-119928571D01*
X163621428Y-119928571D01*
X163478571Y-119857142D01*
X163407142Y-119714285D01*
X163407142Y-119142857D01*
X163478571Y-119000000D01*
X163621428Y-118928571D01*
X163907142Y-118928571D01*
X164050000Y-119000000D01*
X164121428Y-119142857D01*
X164121428Y-119285714D01*
X163407142Y-119428571D01*
X164764285Y-118928571D02*
X164764285Y-119928571D01*
X164764285Y-119071428D02*
X164835714Y-119000000D01*
X164978571Y-118928571D01*
X165192857Y-118928571D01*
X165335714Y-119000000D01*
X165407142Y-119142857D01*
X165407142Y-119928571D01*
X165907142Y-118928571D02*
X166478571Y-118928571D01*
X166121428Y-118428571D02*
X166121428Y-119714285D01*
X166192857Y-119857142D01*
X166335714Y-119928571D01*
X166478571Y-119928571D01*
D13*
X171221428Y-120128571D02*
X170507142Y-120128571D01*
X170507142Y-118628571D01*
X172935714Y-120128571D02*
X172864285Y-120128571D01*
X172721428Y-120057142D01*
X172507142Y-119842857D01*
X172150000Y-119414285D01*
X172007142Y-119200000D01*
X171935714Y-118985714D01*
X171935714Y-118842857D01*
X172007142Y-118700000D01*
X172150000Y-118628571D01*
X172221428Y-118628571D01*
X172364285Y-118700000D01*
X172435714Y-118842857D01*
X172435714Y-118914285D01*
X172364285Y-119057142D01*
X172292857Y-119128571D01*
X171864285Y-119414285D01*
X171792857Y-119485714D01*
X171721428Y-119628571D01*
X171721428Y-119842857D01*
X171792857Y-119985714D01*
X171864285Y-120057142D01*
X172007142Y-120128571D01*
X172221428Y-120128571D01*
X172364285Y-120057142D01*
X172435714Y-119985714D01*
X172650000Y-119700000D01*
X172721428Y-119485714D01*
X172721428Y-119342857D01*
X173507142Y-120057142D02*
X173721428Y-120128571D01*
X174078571Y-120128571D01*
X174221428Y-120057142D01*
X174292857Y-119985714D01*
X174364285Y-119842857D01*
X174364285Y-119700000D01*
X174292857Y-119557142D01*
X174221428Y-119485714D01*
X174078571Y-119414285D01*
X173792857Y-119342857D01*
X173650000Y-119271428D01*
X173578571Y-119200000D01*
X173507142Y-119057142D01*
X173507142Y-118914285D01*
X173578571Y-118771428D01*
X173650000Y-118700000D01*
X173792857Y-118628571D01*
X174150000Y-118628571D01*
X174364285Y-118700000D01*
D11*
X142519047Y-120773809D02*
X142542857Y-120750000D01*
X142590476Y-120726190D01*
X142709523Y-120726190D01*
X142757142Y-120750000D01*
X142780952Y-120773809D01*
X142804761Y-120821428D01*
X142804761Y-120869047D01*
X142780952Y-120940476D01*
X142495238Y-121226190D01*
X142804761Y-121226190D01*
X142971428Y-120726190D02*
X143304761Y-120726190D01*
X143090476Y-121226190D01*
D14*
X173800000Y-95445238D02*
X173761904Y-95521428D01*
X173761904Y-95635714D01*
X173800000Y-95750000D01*
X173876190Y-95826190D01*
X173952380Y-95864285D01*
X174104761Y-95902380D01*
X174219047Y-95902380D01*
X174371428Y-95864285D01*
X174447619Y-95826190D01*
X174523809Y-95750000D01*
X174561904Y-95635714D01*
X174561904Y-95559523D01*
X174523809Y-95445238D01*
X174485714Y-95407142D01*
X174219047Y-95407142D01*
X174219047Y-95559523D01*
X174561904Y-95064285D02*
X173761904Y-95064285D01*
X174561904Y-94607142D01*
X173761904Y-94607142D01*
X174561904Y-94226190D02*
X173761904Y-94226190D01*
X173761904Y-94035714D01*
X173800000Y-93921428D01*
X173876190Y-93845238D01*
X173952380Y-93807142D01*
X174104761Y-93769047D01*
X174219047Y-93769047D01*
X174371428Y-93807142D01*
X174447619Y-93845238D01*
X174523809Y-93921428D01*
X174561904Y-94035714D01*
X174561904Y-94226190D01*
X173761904Y-92930952D02*
X173761904Y-92473809D01*
X174561904Y-92702380D02*
X173761904Y-92702380D01*
X173761904Y-92283333D02*
X174561904Y-91750000D01*
X173761904Y-91750000D02*
X174561904Y-92283333D01*
X174561904Y-90378571D02*
X174180952Y-90645238D01*
X174561904Y-90835714D02*
X173761904Y-90835714D01*
X173761904Y-90530952D01*
X173800000Y-90454761D01*
X173838095Y-90416666D01*
X173914285Y-90378571D01*
X174028571Y-90378571D01*
X174104761Y-90416666D01*
X174142857Y-90454761D01*
X174180952Y-90530952D01*
X174180952Y-90835714D01*
X173761904Y-90111904D02*
X174561904Y-89578571D01*
X173761904Y-89578571D02*
X174561904Y-90111904D01*
X173761904Y-88740476D02*
X173761904Y-88245238D01*
X174066666Y-88511904D01*
X174066666Y-88397619D01*
X174104761Y-88321428D01*
X174142857Y-88283333D01*
X174219047Y-88245238D01*
X174409523Y-88245238D01*
X174485714Y-88283333D01*
X174523809Y-88321428D01*
X174561904Y-88397619D01*
X174561904Y-88626190D01*
X174523809Y-88702380D01*
X174485714Y-88740476D01*
X173761904Y-88016666D02*
X174561904Y-87750000D01*
X173761904Y-87483333D01*
X173761904Y-87292857D02*
X173761904Y-86797619D01*
X174066666Y-87064285D01*
X174066666Y-86950000D01*
X174104761Y-86873809D01*
X174142857Y-86835714D01*
X174219047Y-86797619D01*
X174409523Y-86797619D01*
X174485714Y-86835714D01*
X174523809Y-86873809D01*
X174561904Y-86950000D01*
X174561904Y-87178571D01*
X174523809Y-87254761D01*
X174485714Y-87292857D01*
D11*
X140119047Y-120773809D02*
X140142857Y-120750000D01*
X140190476Y-120726190D01*
X140309523Y-120726190D01*
X140357142Y-120750000D01*
X140380952Y-120773809D01*
X140404761Y-120821428D01*
X140404761Y-120869047D01*
X140380952Y-120940476D01*
X140095238Y-121226190D01*
X140404761Y-121226190D01*
X140833333Y-120726190D02*
X140738095Y-120726190D01*
X140690476Y-120750000D01*
X140666666Y-120773809D01*
X140619047Y-120845238D01*
X140595238Y-120940476D01*
X140595238Y-121130952D01*
X140619047Y-121178571D01*
X140642857Y-121202380D01*
X140690476Y-121226190D01*
X140785714Y-121226190D01*
X140833333Y-121202380D01*
X140857142Y-121178571D01*
X140880952Y-121130952D01*
X140880952Y-121011904D01*
X140857142Y-120964285D01*
X140833333Y-120940476D01*
X140785714Y-120916666D01*
X140690476Y-120916666D01*
X140642857Y-120940476D01*
X140619047Y-120964285D01*
X140595238Y-121011904D01*
D10*
X108964285Y-102428571D02*
X108964285Y-100928571D01*
X109678571Y-102428571D02*
X109678571Y-100928571D01*
X110535714Y-102428571D01*
X110535714Y-100928571D01*
D11*
X147904761Y-121226190D02*
X147619047Y-121226190D01*
X147761904Y-121226190D02*
X147761904Y-120726190D01*
X147714285Y-120797619D01*
X147666666Y-120845238D01*
X147619047Y-120869047D01*
X148095238Y-120773809D02*
X148119047Y-120750000D01*
X148166666Y-120726190D01*
X148285714Y-120726190D01*
X148333333Y-120750000D01*
X148357142Y-120773809D01*
X148380952Y-120821428D01*
X148380952Y-120869047D01*
X148357142Y-120940476D01*
X148071428Y-121226190D01*
X148380952Y-121226190D01*
D10*
X125021428Y-119278571D02*
X124164285Y-119278571D01*
X124592857Y-119278571D02*
X124592857Y-117778571D01*
X124450000Y-117992857D01*
X124307142Y-118135714D01*
X124164285Y-118207142D01*
X125592857Y-117921428D02*
X125664285Y-117850000D01*
X125807142Y-117778571D01*
X126164285Y-117778571D01*
X126307142Y-117850000D01*
X126378571Y-117921428D01*
X126450000Y-118064285D01*
X126450000Y-118207142D01*
X126378571Y-118421428D01*
X125521428Y-119278571D01*
X126450000Y-119278571D01*
X126878571Y-117778571D02*
X127378571Y-119278571D01*
X127878571Y-117778571D01*
D11*
X132190476Y-121226190D02*
X131904761Y-121226190D01*
X132047619Y-121226190D02*
X132047619Y-120726190D01*
X132000000Y-120797619D01*
X131952380Y-120845238D01*
X131904761Y-120869047D01*
X132380952Y-120773809D02*
X132404761Y-120750000D01*
X132452380Y-120726190D01*
X132571428Y-120726190D01*
X132619047Y-120750000D01*
X132642857Y-120773809D01*
X132666666Y-120821428D01*
X132666666Y-120869047D01*
X132642857Y-120940476D01*
X132357142Y-121226190D01*
X132666666Y-121226190D01*
X132809523Y-120726190D02*
X132976190Y-121226190D01*
X133142857Y-120726190D01*
D14*
X152501768Y-111062756D02*
X152501768Y-110490689D01*
X153502886Y-110776722D02*
X152501768Y-110776722D01*
X152501768Y-109680260D02*
X152501768Y-110156983D01*
X152978491Y-110204655D01*
X152930819Y-110156983D01*
X152883147Y-110061638D01*
X152883147Y-109823277D01*
X152930819Y-109727932D01*
X152978491Y-109680260D01*
X153073836Y-109632588D01*
X153312197Y-109632588D01*
X153407542Y-109680260D01*
X153455214Y-109727932D01*
X153502886Y-109823277D01*
X153502886Y-110061638D01*
X153455214Y-110156983D01*
X153407542Y-110204655D01*
X140883333Y-89357142D02*
X140835714Y-89404761D01*
X140692857Y-89452380D01*
X140597619Y-89452380D01*
X140454761Y-89404761D01*
X140359523Y-89309523D01*
X140311904Y-89214285D01*
X140264285Y-89023809D01*
X140264285Y-88880952D01*
X140311904Y-88690476D01*
X140359523Y-88595238D01*
X140454761Y-88500000D01*
X140597619Y-88452380D01*
X140692857Y-88452380D01*
X140835714Y-88500000D01*
X140883333Y-88547619D01*
X141740476Y-88452380D02*
X141550000Y-88452380D01*
X141454761Y-88500000D01*
X141407142Y-88547619D01*
X141311904Y-88690476D01*
X141264285Y-88880952D01*
X141264285Y-89261904D01*
X141311904Y-89357142D01*
X141359523Y-89404761D01*
X141454761Y-89452380D01*
X141645238Y-89452380D01*
X141740476Y-89404761D01*
X141788095Y-89357142D01*
X141835714Y-89261904D01*
X141835714Y-89023809D01*
X141788095Y-88928571D01*
X141740476Y-88880952D01*
X141645238Y-88833333D01*
X141454761Y-88833333D01*
X141359523Y-88880952D01*
X141311904Y-88928571D01*
X141264285Y-89023809D01*
X135983333Y-89157142D02*
X135935714Y-89204761D01*
X135792857Y-89252380D01*
X135697619Y-89252380D01*
X135554761Y-89204761D01*
X135459523Y-89109523D01*
X135411904Y-89014285D01*
X135364285Y-88823809D01*
X135364285Y-88680952D01*
X135411904Y-88490476D01*
X135459523Y-88395238D01*
X135554761Y-88300000D01*
X135697619Y-88252380D01*
X135792857Y-88252380D01*
X135935714Y-88300000D01*
X135983333Y-88347619D01*
X136364285Y-88347619D02*
X136411904Y-88300000D01*
X136507142Y-88252380D01*
X136745238Y-88252380D01*
X136840476Y-88300000D01*
X136888095Y-88347619D01*
X136935714Y-88442857D01*
X136935714Y-88538095D01*
X136888095Y-88680952D01*
X136316666Y-89252380D01*
X136935714Y-89252380D01*
X132907142Y-104466666D02*
X132954761Y-104514285D01*
X133002380Y-104657142D01*
X133002380Y-104752380D01*
X132954761Y-104895238D01*
X132859523Y-104990476D01*
X132764285Y-105038095D01*
X132573809Y-105085714D01*
X132430952Y-105085714D01*
X132240476Y-105038095D01*
X132145238Y-104990476D01*
X132050000Y-104895238D01*
X132002380Y-104752380D01*
X132002380Y-104657142D01*
X132050000Y-104514285D01*
X132097619Y-104466666D01*
X132430952Y-103895238D02*
X132383333Y-103990476D01*
X132335714Y-104038095D01*
X132240476Y-104085714D01*
X132192857Y-104085714D01*
X132097619Y-104038095D01*
X132050000Y-103990476D01*
X132002380Y-103895238D01*
X132002380Y-103704761D01*
X132050000Y-103609523D01*
X132097619Y-103561904D01*
X132192857Y-103514285D01*
X132240476Y-103514285D01*
X132335714Y-103561904D01*
X132383333Y-103609523D01*
X132430952Y-103704761D01*
X132430952Y-103895238D01*
X132478571Y-103990476D01*
X132526190Y-104038095D01*
X132621428Y-104085714D01*
X132811904Y-104085714D01*
X132907142Y-104038095D01*
X132954761Y-103990476D01*
X133002380Y-103895238D01*
X133002380Y-103704761D01*
X132954761Y-103609523D01*
X132907142Y-103561904D01*
X132811904Y-103514285D01*
X132621428Y-103514285D01*
X132526190Y-103561904D01*
X132478571Y-103609523D01*
X132430952Y-103704761D01*
X139687243Y-107301768D02*
X140259310Y-107301768D01*
X139973277Y-108302886D02*
X139973277Y-107301768D01*
X141022067Y-107635474D02*
X141022067Y-108302886D01*
X140783706Y-107254096D02*
X140545344Y-107969180D01*
X141165084Y-107969180D01*
X133669243Y-91512168D02*
X134241310Y-91512168D01*
X133955277Y-92513286D02*
X133955277Y-91512168D01*
X134527344Y-91607513D02*
X134575016Y-91559841D01*
X134670361Y-91512168D01*
X134908722Y-91512168D01*
X135004067Y-91559841D01*
X135051739Y-91607513D01*
X135099412Y-91702857D01*
X135099412Y-91798202D01*
X135051739Y-91941219D01*
X134479672Y-92513286D01*
X135099412Y-92513286D01*
X159101768Y-110662756D02*
X159101768Y-110090689D01*
X160102886Y-110376722D02*
X159101768Y-110376722D01*
X159101768Y-109852327D02*
X159101768Y-109232588D01*
X159483147Y-109566294D01*
X159483147Y-109423277D01*
X159530819Y-109327932D01*
X159578491Y-109280260D01*
X159673836Y-109232588D01*
X159912197Y-109232588D01*
X160007542Y-109280260D01*
X160055214Y-109327932D01*
X160102886Y-109423277D01*
X160102886Y-109709310D01*
X160055214Y-109804655D01*
X160007542Y-109852327D01*
X116442142Y-90091666D02*
X116489761Y-90139285D01*
X116537380Y-90282142D01*
X116537380Y-90377380D01*
X116489761Y-90520238D01*
X116394523Y-90615476D01*
X116299285Y-90663095D01*
X116108809Y-90710714D01*
X115965952Y-90710714D01*
X115775476Y-90663095D01*
X115680238Y-90615476D01*
X115585000Y-90520238D01*
X115537380Y-90377380D01*
X115537380Y-90282142D01*
X115585000Y-90139285D01*
X115632619Y-90091666D01*
X116537380Y-89139285D02*
X116537380Y-89710714D01*
X116537380Y-89425000D02*
X115537380Y-89425000D01*
X115680238Y-89520238D01*
X115775476Y-89615476D01*
X115823095Y-89710714D01*
X145833333Y-85502380D02*
X145500000Y-85026190D01*
X145261904Y-85502380D02*
X145261904Y-84502380D01*
X145642857Y-84502380D01*
X145738095Y-84550000D01*
X145785714Y-84597619D01*
X145833333Y-84692857D01*
X145833333Y-84835714D01*
X145785714Y-84930952D01*
X145738095Y-84978571D01*
X145642857Y-85026190D01*
X145261904Y-85026190D01*
X146785714Y-85502380D02*
X146214285Y-85502380D01*
X146500000Y-85502380D02*
X146500000Y-84502380D01*
X146404761Y-84645238D01*
X146309523Y-84740476D01*
X146214285Y-84788095D01*
X143487243Y-108401768D02*
X144059310Y-108401768D01*
X143773277Y-109402886D02*
X143773277Y-108401768D01*
X144917412Y-109402886D02*
X144345344Y-109402886D01*
X144631378Y-109402886D02*
X144631378Y-108401768D01*
X144536033Y-108544785D01*
X144440689Y-108640130D01*
X144345344Y-108687802D01*
X132987142Y-99416666D02*
X133034761Y-99464285D01*
X133082380Y-99607142D01*
X133082380Y-99702380D01*
X133034761Y-99845238D01*
X132939523Y-99940476D01*
X132844285Y-99988095D01*
X132653809Y-100035714D01*
X132510952Y-100035714D01*
X132320476Y-99988095D01*
X132225238Y-99940476D01*
X132130000Y-99845238D01*
X132082380Y-99702380D01*
X132082380Y-99607142D01*
X132130000Y-99464285D01*
X132177619Y-99416666D01*
X132082380Y-99083333D02*
X132082380Y-98416666D01*
X133082380Y-98845238D01*
X138008928Y-93791336D02*
X138008928Y-93219269D01*
X139010046Y-93505302D02*
X138008928Y-93505302D01*
X138008928Y-92980907D02*
X138008928Y-92313495D01*
X139010046Y-92742546D01*
X173902380Y-101979166D02*
X173426190Y-102312500D01*
X173902380Y-102550595D02*
X172902380Y-102550595D01*
X172902380Y-102169642D01*
X172950000Y-102074404D01*
X172997619Y-102026785D01*
X173092857Y-101979166D01*
X173235714Y-101979166D01*
X173330952Y-102026785D01*
X173378571Y-102074404D01*
X173426190Y-102169642D01*
X173426190Y-102550595D01*
X172997619Y-101598214D02*
X172950000Y-101550595D01*
X172902380Y-101455357D01*
X172902380Y-101217261D01*
X172950000Y-101122023D01*
X172997619Y-101074404D01*
X173092857Y-101026785D01*
X173188095Y-101026785D01*
X173330952Y-101074404D01*
X173902380Y-101645833D01*
X173902380Y-101026785D01*
X144677142Y-91416666D02*
X144724761Y-91464285D01*
X144772380Y-91607142D01*
X144772380Y-91702380D01*
X144724761Y-91845238D01*
X144629523Y-91940476D01*
X144534285Y-91988095D01*
X144343809Y-92035714D01*
X144200952Y-92035714D01*
X144010476Y-91988095D01*
X143915238Y-91940476D01*
X143820000Y-91845238D01*
X143772380Y-91702380D01*
X143772380Y-91607142D01*
X143820000Y-91464285D01*
X143867619Y-91416666D01*
X144105714Y-90559523D02*
X144772380Y-90559523D01*
X143724761Y-90797619D02*
X144439047Y-91035714D01*
X144439047Y-90416666D01*
X138433333Y-89207142D02*
X138385714Y-89254761D01*
X138242857Y-89302380D01*
X138147619Y-89302380D01*
X138004761Y-89254761D01*
X137909523Y-89159523D01*
X137861904Y-89064285D01*
X137814285Y-88873809D01*
X137814285Y-88730952D01*
X137861904Y-88540476D01*
X137909523Y-88445238D01*
X138004761Y-88350000D01*
X138147619Y-88302380D01*
X138242857Y-88302380D01*
X138385714Y-88350000D01*
X138433333Y-88397619D01*
X138766666Y-88302380D02*
X139385714Y-88302380D01*
X139052380Y-88683333D01*
X139195238Y-88683333D01*
X139290476Y-88730952D01*
X139338095Y-88778571D01*
X139385714Y-88873809D01*
X139385714Y-89111904D01*
X139338095Y-89207142D01*
X139290476Y-89254761D01*
X139195238Y-89302380D01*
X138909523Y-89302380D01*
X138814285Y-89254761D01*
X138766666Y-89207142D01*
X167854954Y-112255872D02*
X167884984Y-112165780D01*
X167915015Y-112135750D01*
X167975076Y-112105719D01*
X168065168Y-112105719D01*
X168125229Y-112135750D01*
X168155260Y-112165780D01*
X168185290Y-112225842D01*
X168185290Y-112466086D01*
X167554647Y-112466086D01*
X167554647Y-112255872D01*
X167584678Y-112195811D01*
X167614709Y-112165780D01*
X167674770Y-112135750D01*
X167734831Y-112135750D01*
X167794892Y-112165780D01*
X167824923Y-112195811D01*
X167854954Y-112255872D01*
X167854954Y-112466086D01*
X167554647Y-111715321D02*
X167554647Y-111595199D01*
X167584678Y-111535137D01*
X167644739Y-111475076D01*
X167764862Y-111445045D01*
X167975076Y-111445045D01*
X168095199Y-111475076D01*
X168155260Y-111535137D01*
X168185290Y-111595199D01*
X168185290Y-111715321D01*
X168155260Y-111775382D01*
X168095199Y-111835443D01*
X167975076Y-111865474D01*
X167764862Y-111865474D01*
X167644739Y-111835443D01*
X167584678Y-111775382D01*
X167554647Y-111715321D01*
X167554647Y-111054647D02*
X167554647Y-110934525D01*
X167584678Y-110874464D01*
X167644739Y-110814402D01*
X167764862Y-110784372D01*
X167975076Y-110784372D01*
X168095199Y-110814402D01*
X168155260Y-110874464D01*
X168185290Y-110934525D01*
X168185290Y-111054647D01*
X168155260Y-111114709D01*
X168095199Y-111174770D01*
X167975076Y-111204800D01*
X167764862Y-111204800D01*
X167644739Y-111174770D01*
X167584678Y-111114709D01*
X167554647Y-111054647D01*
X167554647Y-110604188D02*
X167554647Y-110243821D01*
X168185290Y-110424004D02*
X167554647Y-110424004D01*
X137701768Y-98562756D02*
X137701768Y-97990689D01*
X138702886Y-98276722D02*
X137701768Y-98276722D01*
X137701768Y-97227932D02*
X137701768Y-97418621D01*
X137749441Y-97513966D01*
X137797113Y-97561638D01*
X137940130Y-97656983D01*
X138130819Y-97704655D01*
X138512197Y-97704655D01*
X138607542Y-97656983D01*
X138655214Y-97609310D01*
X138702886Y-97513966D01*
X138702886Y-97323277D01*
X138655214Y-97227932D01*
X138607542Y-97180260D01*
X138512197Y-97132588D01*
X138273836Y-97132588D01*
X138178491Y-97180260D01*
X138130819Y-97227932D01*
X138083147Y-97323277D01*
X138083147Y-97513966D01*
X138130819Y-97609310D01*
X138178491Y-97656983D01*
X138273836Y-97704655D01*
X143333333Y-89457142D02*
X143285714Y-89504761D01*
X143142857Y-89552380D01*
X143047619Y-89552380D01*
X142904761Y-89504761D01*
X142809523Y-89409523D01*
X142761904Y-89314285D01*
X142714285Y-89123809D01*
X142714285Y-88980952D01*
X142761904Y-88790476D01*
X142809523Y-88695238D01*
X142904761Y-88600000D01*
X143047619Y-88552380D01*
X143142857Y-88552380D01*
X143285714Y-88600000D01*
X143333333Y-88647619D01*
X144238095Y-88552380D02*
X143761904Y-88552380D01*
X143714285Y-89028571D01*
X143761904Y-88980952D01*
X143857142Y-88933333D01*
X144095238Y-88933333D01*
X144190476Y-88980952D01*
X144238095Y-89028571D01*
X144285714Y-89123809D01*
X144285714Y-89361904D01*
X144238095Y-89457142D01*
X144190476Y-89504761D01*
X144095238Y-89552380D01*
X143857142Y-89552380D01*
X143761904Y-89504761D01*
X143714285Y-89457142D01*
X129634525Y-93054954D02*
X129844739Y-93054954D01*
X129934831Y-93385290D02*
X129634525Y-93385290D01*
X129634525Y-92754647D01*
X129934831Y-92754647D01*
X130205107Y-93385290D02*
X130205107Y-92754647D01*
X130565474Y-93385290D01*
X130565474Y-92754647D01*
X150025595Y-75717380D02*
X150025595Y-76526904D01*
X150073214Y-76622142D01*
X150120833Y-76669761D01*
X150216071Y-76717380D01*
X150406547Y-76717380D01*
X150501785Y-76669761D01*
X150549404Y-76622142D01*
X150597023Y-76526904D01*
X150597023Y-75717380D01*
X151597023Y-76717380D02*
X151025595Y-76717380D01*
X151311309Y-76717380D02*
X151311309Y-75717380D01*
X151216071Y-75860238D01*
X151120833Y-75955476D01*
X151025595Y-76003095D01*
D15*
X140465000Y-86311252D02*
X140465000Y-85788748D01*
X141935000Y-86311252D02*
X141935000Y-85788748D01*
D16*
X151962000Y-119550000D02*
X131182000Y-119550000D01*
X151962000Y-113050000D02*
X151962000Y-119550000D01*
X131182000Y-119550000D02*
X131182000Y-113050000D01*
X131182000Y-113050000D02*
X151962000Y-113050000D01*
D15*
X135515000Y-86311252D02*
X135515000Y-85788748D01*
X136985000Y-86311252D02*
X136985000Y-85788748D01*
X131635000Y-103088748D02*
X131635000Y-103611252D01*
X130165000Y-103088748D02*
X130165000Y-103611252D01*
X171630000Y-86250000D02*
X168970000Y-86250000D01*
X171630000Y-93930000D02*
X171630000Y-86250000D01*
X171630000Y-93930000D02*
X168970000Y-93930000D01*
X168970000Y-93930000D02*
X168970000Y-86250000D01*
X171630000Y-95200000D02*
X171630000Y-96530000D01*
X171630000Y-96530000D02*
X170300000Y-96530000D01*
X128627500Y-109987500D02*
X107672500Y-109987500D01*
X107672500Y-109987500D02*
X107672500Y-94112500D01*
X107672500Y-94112500D02*
X128627500Y-94112500D01*
X128627500Y-94112500D02*
X128627500Y-109987500D01*
D16*
X110500000Y-86150000D02*
X109400000Y-87250000D01*
X109400000Y-87250000D02*
X109400000Y-91450000D01*
X109400000Y-91450000D02*
X110930000Y-91450000D01*
X114700000Y-91450000D02*
X114700000Y-87250000D01*
X110930000Y-86150000D02*
X110500000Y-86150000D01*
X114700000Y-87250000D02*
X113600000Y-86150000D01*
X113600000Y-86150000D02*
X113170000Y-86150000D01*
X113170000Y-91450000D02*
X114700000Y-91450000D01*
D10*
X113500000Y-84650000D02*
G75*
G03*
X113500000Y-84650000I-100000J0D01*
G01*
D15*
X146735000Y-87322936D02*
X146735000Y-87777064D01*
X145265000Y-87322936D02*
X145265000Y-87777064D01*
X131685000Y-98988748D02*
X131685000Y-99511252D01*
X130215000Y-98988748D02*
X130215000Y-99511252D01*
D16*
X116790000Y-90546000D02*
X117050000Y-90546000D01*
X123510000Y-90546000D02*
X123510000Y-86826000D01*
X118390000Y-86826000D02*
X116790000Y-86826000D01*
X116790000Y-90546000D02*
X116790000Y-86826000D01*
X123260000Y-90546000D02*
X123510000Y-90546000D01*
X123510000Y-86826000D02*
X122020000Y-86826000D01*
D10*
X117960000Y-93389000D02*
G75*
G03*
X117960000Y-93389000I-100000J0D01*
G01*
D15*
X172535000Y-101585436D02*
X172535000Y-102039564D01*
X171065000Y-101585436D02*
X171065000Y-102039564D01*
X145265000Y-91511252D02*
X145265000Y-90988748D01*
X146735000Y-91511252D02*
X146735000Y-90988748D01*
D10*
X107900000Y-111100000D02*
X107900000Y-120100000D01*
X122200000Y-111100000D02*
X107900000Y-111100000D01*
X122200000Y-120100000D02*
X120950000Y-120100000D01*
X107900000Y-120100000D02*
X116450000Y-120100000D01*
X122200000Y-118050000D02*
X122200000Y-120100000D01*
X122200000Y-113150000D02*
X122200000Y-111100000D01*
D15*
X139485000Y-86311252D02*
X139485000Y-85788748D01*
X138015000Y-86311252D02*
X138015000Y-85788748D01*
D16*
X161005000Y-113950000D02*
X161005000Y-109350000D01*
X165150000Y-114650000D02*
X162850000Y-114650000D01*
X165150000Y-108655000D02*
X162850000Y-108655000D01*
X166995000Y-109450000D02*
X166995000Y-113950000D01*
X165755000Y-111650000D02*
G75*
G03*
X165755000Y-111650000I-1755000J0D01*
G01*
D10*
X166350000Y-107205000D02*
G75*
G03*
X166350000Y-107205000I-100000J0D01*
G01*
D15*
X144335000Y-86311252D02*
X144335000Y-85788748D01*
X142865000Y-86311252D02*
X142865000Y-85788748D01*
D16*
X126805000Y-87900000D02*
X126805000Y-90200000D01*
X127600000Y-86055000D02*
X132100000Y-86055000D01*
X132100000Y-92045000D02*
X127500000Y-92045000D01*
X132800000Y-87900000D02*
X132800000Y-90200000D01*
X131555000Y-89050000D02*
G75*
G03*
X131555000Y-89050000I-1755000J0D01*
G01*
D10*
X125455000Y-86800000D02*
G75*
G03*
X125455000Y-86800000I-100000J0D01*
G01*
D16*
X148362500Y-83900000D02*
X148362500Y-77400000D01*
X163912500Y-102900000D02*
X166362500Y-102900000D01*
X148362500Y-77400000D02*
X166362500Y-77400000D01*
X148362500Y-102250000D02*
X148362500Y-102900000D01*
X166362500Y-77400000D02*
X166362500Y-83900000D01*
X166362500Y-102900000D02*
X166362500Y-102250000D01*
X148362500Y-102900000D02*
X150812500Y-102900000D01*
D10*
X147262500Y-84890000D02*
G75*
G03*
X147262500Y-84890000I-100000J0D01*
G01*
M02*
