G04 #@! TF.GenerationSoftware,KiCad,Pcbnew,(6.0.4)*
G04 #@! TF.CreationDate,2022-04-15T12:43:22+02:00*
G04 #@! TF.ProjectId,7segments_beide_groundplane,37736567-6d65-46e7-9473-5f6265696465,rev?*
G04 #@! TF.SameCoordinates,Original*
G04 #@! TF.FileFunction,Copper,L1,Top*
G04 #@! TF.FilePolarity,Positive*
%FSLAX46Y46*%
G04 Gerber Fmt 4.6, Leading zero omitted, Abs format (unit mm)*
G04 Created by KiCad (PCBNEW (6.0.4)) date 2022-04-15 12:43:22*
%MOMM*%
%LPD*%
G01*
G04 APERTURE LIST*
G04 Aperture macros list*
%AMRoundRect*
0 Rectangle with rounded corners*
0 $1 Rounding radius*
0 $2 $3 $4 $5 $6 $7 $8 $9 X,Y pos of 4 corners*
0 Add a 4 corners polygon primitive as box body*
4,1,4,$2,$3,$4,$5,$6,$7,$8,$9,$2,$3,0*
0 Add four circle primitives for the rounded corners*
1,1,$1+$1,$2,$3*
1,1,$1+$1,$4,$5*
1,1,$1+$1,$6,$7*
1,1,$1+$1,$8,$9*
0 Add four rect primitives between the rounded corners*
20,1,$1+$1,$2,$3,$4,$5,0*
20,1,$1+$1,$4,$5,$6,$7,0*
20,1,$1+$1,$6,$7,$8,$9,0*
20,1,$1+$1,$8,$9,$2,$3,0*%
G04 Aperture macros list end*
G04 #@! TA.AperFunction,SMDPad,CuDef*
%ADD10R,1.400000X1.000000*%
G04 #@! TD*
G04 #@! TA.AperFunction,SMDPad,CuDef*
%ADD11RoundRect,0.250000X0.475000X-0.250000X0.475000X0.250000X-0.475000X0.250000X-0.475000X-0.250000X0*%
G04 #@! TD*
G04 #@! TA.AperFunction,ComponentPad*
%ADD12R,1.650000X1.650000*%
G04 #@! TD*
G04 #@! TA.AperFunction,ComponentPad*
%ADD13C,1.650000*%
G04 #@! TD*
G04 #@! TA.AperFunction,SMDPad,CuDef*
%ADD14RoundRect,0.250000X-0.475000X0.250000X-0.475000X-0.250000X0.475000X-0.250000X0.475000X0.250000X0*%
G04 #@! TD*
G04 #@! TA.AperFunction,ComponentPad*
%ADD15R,1.700000X1.700000*%
G04 #@! TD*
G04 #@! TA.AperFunction,ComponentPad*
%ADD16O,1.700000X1.700000*%
G04 #@! TD*
G04 #@! TA.AperFunction,SMDPad,CuDef*
%ADD17R,1.000000X1.400000*%
G04 #@! TD*
G04 #@! TA.AperFunction,ComponentPad*
%ADD18R,4.000000X4.000000*%
G04 #@! TD*
G04 #@! TA.AperFunction,SMDPad,CuDef*
%ADD19R,1.600000X2.800000*%
G04 #@! TD*
G04 #@! TA.AperFunction,SMDPad,CuDef*
%ADD20RoundRect,0.250000X-0.450000X0.262500X-0.450000X-0.262500X0.450000X-0.262500X0.450000X0.262500X0*%
G04 #@! TD*
G04 #@! TA.AperFunction,SMDPad,CuDef*
%ADD21RoundRect,0.093000X-0.372000X-0.562000X0.372000X-0.562000X0.372000X0.562000X-0.372000X0.562000X0*%
G04 #@! TD*
G04 #@! TA.AperFunction,SMDPad,CuDef*
%ADD22RoundRect,0.131000X-1.489000X-0.524000X1.489000X-0.524000X1.489000X0.524000X-1.489000X0.524000X0*%
G04 #@! TD*
G04 #@! TA.AperFunction,ComponentPad*
%ADD23R,2.400000X5.200000*%
G04 #@! TD*
G04 #@! TA.AperFunction,ComponentPad*
%ADD24R,5.200000X2.400000*%
G04 #@! TD*
G04 #@! TA.AperFunction,ComponentPad*
%ADD25R,1.498000X1.498000*%
G04 #@! TD*
G04 #@! TA.AperFunction,ComponentPad*
%ADD26C,1.498000*%
G04 #@! TD*
G04 #@! TA.AperFunction,SMDPad,CuDef*
%ADD27R,1.500000X0.900000*%
G04 #@! TD*
G04 #@! TA.AperFunction,SMDPad,CuDef*
%ADD28R,0.900000X1.500000*%
G04 #@! TD*
G04 #@! TA.AperFunction,SMDPad,CuDef*
%ADD29R,0.900000X0.900000*%
G04 #@! TD*
G04 #@! TA.AperFunction,ViaPad*
%ADD30C,1.000000*%
G04 #@! TD*
G04 #@! TA.AperFunction,ViaPad*
%ADD31C,1.500000*%
G04 #@! TD*
G04 #@! TA.AperFunction,ViaPad*
%ADD32C,0.800000*%
G04 #@! TD*
G04 #@! TA.AperFunction,Conductor*
%ADD33C,0.800000*%
G04 #@! TD*
G04 APERTURE END LIST*
D10*
X149300000Y-107850000D03*
X149300000Y-109750000D03*
X151500000Y-108800000D03*
D11*
X141200000Y-87000000D03*
X141200000Y-85100000D03*
D12*
X150462000Y-116300000D03*
D13*
X147922000Y-116300000D03*
X145382000Y-116300000D03*
X142842000Y-116300000D03*
X140302000Y-116300000D03*
X137762000Y-116300000D03*
X135222000Y-116300000D03*
X132682000Y-116300000D03*
D11*
X136250000Y-87000000D03*
X136250000Y-85100000D03*
D14*
X130900000Y-102400000D03*
X130900000Y-104300000D03*
D15*
X170300000Y-95200000D03*
D16*
X170300000Y-92660000D03*
X170300000Y-90120000D03*
X170300000Y-87580000D03*
D17*
X142850000Y-104300000D03*
X140950000Y-104300000D03*
X141900000Y-106500000D03*
X138100000Y-90850000D03*
X136200000Y-90850000D03*
X137150000Y-93050000D03*
D18*
X109686500Y-108013500D03*
X109686500Y-96113500D03*
X126586500Y-108013500D03*
X126586500Y-96113500D03*
D10*
X155800000Y-107050000D03*
X155800000Y-108950000D03*
X158000000Y-108000000D03*
D19*
X112050000Y-86650000D03*
X112050000Y-90950000D03*
D20*
X146000000Y-86637500D03*
X146000000Y-88462500D03*
D17*
X146750000Y-105400000D03*
X144850000Y-105400000D03*
X145800000Y-107600000D03*
D14*
X130950000Y-98300000D03*
X130950000Y-100200000D03*
D21*
X117860000Y-92031000D03*
X120150000Y-92031000D03*
X122440000Y-92031000D03*
D22*
X120150000Y-85341000D03*
D10*
X142200000Y-95250000D03*
X142200000Y-93350000D03*
X140000000Y-94300000D03*
D20*
X171800000Y-100900000D03*
X171800000Y-102725000D03*
D11*
X146000000Y-92200000D03*
X146000000Y-90300000D03*
D23*
X121600000Y-115550000D03*
X115250000Y-115600000D03*
D24*
X118700000Y-120400000D03*
D11*
X138750000Y-87000000D03*
X138750000Y-85100000D03*
D25*
X166250000Y-108400000D03*
D26*
X166250000Y-114900000D03*
X161750000Y-108400000D03*
X161750000Y-114900000D03*
D10*
X142100000Y-99650000D03*
X142100000Y-97750000D03*
X139900000Y-98700000D03*
D11*
X143600000Y-87000000D03*
X143600000Y-85100000D03*
D25*
X126550000Y-86800000D03*
D26*
X133050000Y-86800000D03*
X126550000Y-91300000D03*
X133050000Y-91300000D03*
D27*
X148612500Y-84890000D03*
X148612500Y-86160000D03*
X148612500Y-87430000D03*
X148612500Y-88700000D03*
X148612500Y-89970000D03*
X148612500Y-91240000D03*
X148612500Y-92510000D03*
X148612500Y-93780000D03*
X148612500Y-95050000D03*
X148612500Y-96320000D03*
X148612500Y-97590000D03*
X148612500Y-98860000D03*
X148612500Y-100130000D03*
X148612500Y-101400000D03*
D28*
X151647500Y-102650000D03*
X152917500Y-102650000D03*
X154187500Y-102650000D03*
X155457500Y-102650000D03*
X156727500Y-102650000D03*
X157997500Y-102650000D03*
X159267500Y-102650000D03*
X160537500Y-102650000D03*
X161807500Y-102650000D03*
X163077500Y-102650000D03*
D27*
X166112500Y-101400000D03*
X166112500Y-100130000D03*
X166112500Y-98860000D03*
X166112500Y-97590000D03*
X166112500Y-96320000D03*
X166112500Y-95050000D03*
X166112500Y-93780000D03*
X166112500Y-92510000D03*
X166112500Y-91240000D03*
X166112500Y-89970000D03*
X166112500Y-88700000D03*
X166112500Y-87430000D03*
X166112500Y-86160000D03*
X166112500Y-84890000D03*
D29*
X154462500Y-91210000D03*
X155862500Y-91210000D03*
X157262500Y-91210000D03*
X154462500Y-92610000D03*
X155862500Y-92610000D03*
X157262500Y-92610000D03*
X154462500Y-94010000D03*
X155862500Y-94010000D03*
X157262500Y-94010000D03*
D30*
X151040000Y-86160000D03*
D31*
X111400000Y-115600000D03*
X130200000Y-85400000D03*
X141100000Y-91800000D03*
X145000000Y-103100000D03*
D30*
X146200000Y-93700000D03*
D31*
X139100000Y-96600000D03*
X147500000Y-111700000D03*
X141000000Y-101800000D03*
X174600000Y-98250000D03*
X107100000Y-88550000D03*
X168200000Y-118500000D03*
D32*
X143050000Y-89100000D03*
D33*
X120150000Y-92031000D02*
X120150000Y-85400000D01*
X148612500Y-86160000D02*
X146640000Y-86160000D01*
X134750000Y-88800000D02*
X136300000Y-87250000D01*
X172600000Y-87580000D02*
X171800000Y-87580000D01*
X118950000Y-86650000D02*
X120150000Y-85450000D01*
X120150000Y-85400000D02*
X120250000Y-85300000D01*
X172600000Y-87600000D02*
X172580000Y-87580000D01*
X121091000Y-85341000D02*
X124550000Y-88800000D01*
X148612500Y-86160000D02*
X151040000Y-86160000D01*
X141200000Y-87000000D02*
X143450000Y-87000000D01*
X146640000Y-86160000D02*
X146150000Y-86650000D01*
X124550000Y-88800000D02*
X134750000Y-88800000D01*
X171800000Y-87580000D02*
X170300000Y-87580000D01*
X172580000Y-87580000D02*
X171800000Y-87580000D01*
X136250000Y-87000000D02*
X141250000Y-87000000D01*
X172600000Y-100100000D02*
X172600000Y-87600000D01*
X112050000Y-86650000D02*
X118950000Y-86650000D01*
X171800000Y-100900000D02*
X172600000Y-100100000D01*
X143600000Y-87000000D02*
X145650000Y-87000000D01*
X120150000Y-85341000D02*
X121091000Y-85341000D01*
X145650000Y-87000000D02*
X145950000Y-86700000D01*
X152100000Y-116300000D02*
X150462000Y-116300000D01*
X158000000Y-110400000D02*
X152100000Y-116300000D01*
X158000000Y-108000000D02*
X158000000Y-110400000D01*
X151500000Y-111400000D02*
X147922000Y-114978000D01*
X151500000Y-108800000D02*
X151500000Y-111400000D01*
X147922000Y-114978000D02*
X147922000Y-116300000D01*
X142842000Y-111742000D02*
X142842000Y-116300000D01*
X141900000Y-110800000D02*
X142842000Y-111742000D01*
X141900000Y-106500000D02*
X141900000Y-110800000D01*
X139900000Y-98700000D02*
X139000000Y-99600000D01*
X139000000Y-111700000D02*
X140302000Y-113002000D01*
X139000000Y-99600000D02*
X139000000Y-111700000D01*
X140302000Y-113002000D02*
X140302000Y-116300000D01*
X136400000Y-112500000D02*
X137762000Y-113862000D01*
X137762000Y-113862000D02*
X137762000Y-116300000D01*
X138700000Y-94300000D02*
X136400000Y-96600000D01*
X136400000Y-96600000D02*
X136400000Y-112500000D01*
X140000000Y-94300000D02*
X138700000Y-94300000D01*
X137150000Y-93050000D02*
X135222000Y-94978000D01*
X135222000Y-94978000D02*
X135222000Y-116300000D01*
X122440000Y-99767000D02*
X126586500Y-103913500D01*
X122440000Y-92031000D02*
X122440000Y-99767000D01*
X130950000Y-100200000D02*
X130950000Y-102400000D01*
X130950000Y-102400000D02*
X130750000Y-102600000D01*
X128200000Y-102300000D02*
X130950000Y-102300000D01*
X126586500Y-103913500D02*
X128200000Y-102300000D01*
X126586500Y-108013500D02*
X126586500Y-103913500D01*
X168500000Y-91228478D02*
X167241522Y-89970000D01*
X167241522Y-89970000D02*
X166112500Y-89970000D01*
X168500000Y-92050000D02*
X168500000Y-91228478D01*
X170300000Y-92660000D02*
X169110000Y-92660000D01*
X169110000Y-92660000D02*
X168500000Y-92050000D01*
X166112500Y-88700000D02*
X167750000Y-88700000D01*
X169200000Y-90150000D02*
X170400000Y-90150000D01*
X170300000Y-90120000D02*
X170170000Y-89990000D01*
X167750000Y-88700000D02*
X169200000Y-90150000D01*
X145400000Y-116282000D02*
X145382000Y-116300000D01*
X145400000Y-108000000D02*
X145400000Y-116282000D01*
X145800000Y-107600000D02*
X145400000Y-108000000D01*
X148612500Y-100130000D02*
X147170000Y-100130000D01*
X146750000Y-100550000D02*
X147170000Y-100130000D01*
X146750000Y-105400000D02*
X146750000Y-100550000D01*
X148612500Y-95050000D02*
X145300000Y-95050000D01*
X140200000Y-90450000D02*
X143000000Y-90450000D01*
X139800000Y-90850000D02*
X140200000Y-90450000D01*
X145300000Y-95050000D02*
X144350000Y-94100000D01*
X139800000Y-90850000D02*
X138100000Y-90850000D01*
X144350000Y-94100000D02*
X144350000Y-91800000D01*
X143000000Y-90450000D02*
X144350000Y-91800000D01*
X152917500Y-103779022D02*
X153035000Y-103896522D01*
X153035000Y-105490000D02*
X154595000Y-107050000D01*
X153035000Y-103896522D02*
X153035000Y-105490000D01*
X154595000Y-107050000D02*
X155800000Y-107050000D01*
X152917500Y-102650000D02*
X152917500Y-103779022D01*
X148612500Y-98860000D02*
X145840000Y-98860000D01*
X142850000Y-101850000D02*
X142850000Y-104300000D01*
X145840000Y-98860000D02*
X142850000Y-101850000D01*
X148612500Y-105112500D02*
X148612500Y-101400000D01*
X149300000Y-105800000D02*
X148612500Y-105112500D01*
X149300000Y-107850000D02*
X149300000Y-105800000D01*
X145400000Y-97800000D02*
X145650000Y-97550000D01*
X142100000Y-99650000D02*
X143550000Y-99650000D01*
X143550000Y-99650000D02*
X145400000Y-97800000D01*
X145650000Y-97550000D02*
X148550000Y-97550000D01*
X148612500Y-96320000D02*
X144970000Y-96320000D01*
X142200000Y-95250000D02*
X143900000Y-95250000D01*
X144970000Y-96320000D02*
X143900000Y-95250000D01*
X146450978Y-88462500D02*
X147563478Y-87350000D01*
X146000000Y-90150000D02*
X146050000Y-90200000D01*
X146000000Y-88462500D02*
X146000000Y-90150000D01*
X133100000Y-86800000D02*
X133150000Y-86750000D01*
X146000000Y-88462500D02*
X146450978Y-88462500D01*
X126550000Y-86800000D02*
X133100000Y-86800000D01*
X143687500Y-88462500D02*
X143050000Y-89100000D01*
X147563478Y-87350000D02*
X148500000Y-87350000D01*
X146000000Y-88462500D02*
X143687500Y-88462500D01*
X121600000Y-115550000D02*
X132100000Y-115550000D01*
X132100000Y-115550000D02*
X132750000Y-116200000D01*
X121550000Y-111150000D02*
X121550000Y-116000000D01*
X118413500Y-108013500D02*
X121550000Y-111150000D01*
X109686500Y-108013500D02*
X118413500Y-108013500D01*
X166230000Y-102690000D02*
X166230000Y-108380000D01*
X166230000Y-108380000D02*
X166250000Y-108400000D01*
X166230000Y-102690000D02*
X171765000Y-102690000D01*
X166112500Y-101400000D02*
X166112500Y-102572500D01*
X171765000Y-102690000D02*
X171800000Y-102725000D01*
X166250000Y-108400000D02*
X166250000Y-114900000D01*
X166112500Y-102572500D02*
X166230000Y-102690000D01*
G04 #@! TA.AperFunction,Conductor*
G36*
X117990800Y-84508502D02*
G01*
X118037293Y-84562158D01*
X118047397Y-84632432D01*
X118043676Y-84649652D01*
X118026150Y-84709979D01*
X118024353Y-84716165D01*
X118023849Y-84722570D01*
X118023848Y-84722575D01*
X118021693Y-84749959D01*
X118021500Y-84752415D01*
X118021501Y-85243686D01*
X118021501Y-85615500D01*
X118001499Y-85683621D01*
X117947843Y-85730114D01*
X117895501Y-85741500D01*
X113484500Y-85741500D01*
X113416379Y-85721498D01*
X113369886Y-85667842D01*
X113358500Y-85615500D01*
X113358500Y-85201866D01*
X113351745Y-85139684D01*
X113300615Y-85003295D01*
X113213261Y-84886739D01*
X113096705Y-84799385D01*
X112960316Y-84748255D01*
X112898134Y-84741500D01*
X111201866Y-84741500D01*
X111139684Y-84748255D01*
X111003295Y-84799385D01*
X110886739Y-84886739D01*
X110799385Y-85003295D01*
X110748255Y-85139684D01*
X110741500Y-85201866D01*
X110741500Y-88098134D01*
X110748255Y-88160316D01*
X110799385Y-88296705D01*
X110886739Y-88413261D01*
X111003295Y-88500615D01*
X111139684Y-88551745D01*
X111201866Y-88558500D01*
X112898134Y-88558500D01*
X112960316Y-88551745D01*
X113096705Y-88500615D01*
X113213261Y-88413261D01*
X113300615Y-88296705D01*
X113351745Y-88160316D01*
X113358500Y-88098134D01*
X113358500Y-87684500D01*
X113378502Y-87616379D01*
X113432158Y-87569886D01*
X113484500Y-87558500D01*
X118868583Y-87558500D01*
X118888292Y-87560051D01*
X118902190Y-87562252D01*
X118908777Y-87561907D01*
X118908782Y-87561907D01*
X118970480Y-87558673D01*
X118977074Y-87558500D01*
X118997610Y-87558500D01*
X119000882Y-87558156D01*
X119000884Y-87558156D01*
X119018042Y-87556353D01*
X119024616Y-87555836D01*
X119048242Y-87554598D01*
X119092903Y-87552257D01*
X119096754Y-87551225D01*
X119166205Y-87560203D01*
X119220517Y-87605927D01*
X119241500Y-87675550D01*
X119241500Y-91167368D01*
X119231910Y-91215584D01*
X119191982Y-91311977D01*
X119176500Y-91429577D01*
X119176501Y-92632422D01*
X119177039Y-92636506D01*
X119177039Y-92636512D01*
X119190286Y-92737140D01*
X119191982Y-92750023D01*
X119252591Y-92896345D01*
X119349005Y-93021995D01*
X119474655Y-93118409D01*
X119620977Y-93179018D01*
X119629165Y-93180096D01*
X119734490Y-93193962D01*
X119738577Y-93194500D01*
X120149950Y-93194500D01*
X120561422Y-93194499D01*
X120565506Y-93193961D01*
X120565512Y-93193961D01*
X120670836Y-93180096D01*
X120670838Y-93180095D01*
X120679023Y-93179018D01*
X120825345Y-93118409D01*
X120950995Y-93021995D01*
X121047409Y-92896345D01*
X121108018Y-92750023D01*
X121119870Y-92660000D01*
X121122962Y-92636510D01*
X121122962Y-92636509D01*
X121123500Y-92632423D01*
X121123499Y-91429578D01*
X121123499Y-91429577D01*
X121466500Y-91429577D01*
X121466501Y-92632422D01*
X121467039Y-92636506D01*
X121467039Y-92636512D01*
X121480286Y-92737140D01*
X121481982Y-92750023D01*
X121521910Y-92846416D01*
X121531500Y-92894632D01*
X121531500Y-99685583D01*
X121529949Y-99705292D01*
X121527748Y-99719190D01*
X121528093Y-99725777D01*
X121528093Y-99725782D01*
X121531327Y-99787480D01*
X121531500Y-99794074D01*
X121531500Y-99814610D01*
X121531844Y-99817882D01*
X121531844Y-99817884D01*
X121533647Y-99835042D01*
X121534164Y-99841616D01*
X121537372Y-99902817D01*
X121537743Y-99909903D01*
X121539453Y-99916284D01*
X121539453Y-99916286D01*
X121541383Y-99923491D01*
X121544985Y-99942925D01*
X121545766Y-99950354D01*
X121545768Y-99950363D01*
X121546458Y-99956928D01*
X121567600Y-100021997D01*
X121569467Y-100028299D01*
X121587171Y-100094370D01*
X121593559Y-100106907D01*
X121601125Y-100125173D01*
X121605473Y-100138556D01*
X121608776Y-100144278D01*
X121608777Y-100144279D01*
X121639667Y-100197782D01*
X121642814Y-100203577D01*
X121673871Y-100264530D01*
X121678024Y-100269658D01*
X121678025Y-100269660D01*
X121682727Y-100275466D01*
X121693927Y-100291763D01*
X121697657Y-100298224D01*
X121697660Y-100298228D01*
X121700960Y-100303944D01*
X121705377Y-100308850D01*
X121705381Y-100308855D01*
X121746722Y-100354769D01*
X121751006Y-100359784D01*
X121752229Y-100361294D01*
X121763928Y-100375741D01*
X121778443Y-100390256D01*
X121782984Y-100395041D01*
X121828747Y-100445866D01*
X121834086Y-100449745D01*
X121834087Y-100449746D01*
X121840135Y-100454140D01*
X121855168Y-100466981D01*
X125641095Y-104252908D01*
X125675121Y-104315220D01*
X125678000Y-104342003D01*
X125678000Y-105379000D01*
X125657998Y-105447121D01*
X125604342Y-105493614D01*
X125552000Y-105505000D01*
X124538366Y-105505000D01*
X124476184Y-105511755D01*
X124339795Y-105562885D01*
X124223239Y-105650239D01*
X124135885Y-105766795D01*
X124084755Y-105903184D01*
X124078000Y-105965366D01*
X124078000Y-110061634D01*
X124084755Y-110123816D01*
X124135885Y-110260205D01*
X124223239Y-110376761D01*
X124339795Y-110464115D01*
X124476184Y-110515245D01*
X124538366Y-110522000D01*
X128634634Y-110522000D01*
X128696816Y-110515245D01*
X128833205Y-110464115D01*
X128949761Y-110376761D01*
X129037115Y-110260205D01*
X129088245Y-110123816D01*
X129095000Y-110061634D01*
X129095000Y-105965366D01*
X129088245Y-105903184D01*
X129037115Y-105766795D01*
X128949761Y-105650239D01*
X128833205Y-105562885D01*
X128696816Y-105511755D01*
X128634634Y-105505000D01*
X127621000Y-105505000D01*
X127552879Y-105484998D01*
X127506386Y-105431342D01*
X127495000Y-105379000D01*
X127495000Y-104810799D01*
X129712910Y-104810799D01*
X129731588Y-104866784D01*
X129737761Y-104879962D01*
X129823063Y-105017807D01*
X129832099Y-105029208D01*
X129946829Y-105143739D01*
X129958240Y-105152751D01*
X130096243Y-105237816D01*
X130109424Y-105243963D01*
X130263710Y-105295138D01*
X130277086Y-105298005D01*
X130371438Y-105307672D01*
X130377854Y-105308000D01*
X130381885Y-105308000D01*
X130397124Y-105303525D01*
X130398329Y-105302135D01*
X130400000Y-105294452D01*
X130400000Y-105289884D01*
X131400000Y-105289884D01*
X131404475Y-105305123D01*
X131405865Y-105306328D01*
X131413548Y-105307999D01*
X131422095Y-105307999D01*
X131428614Y-105307662D01*
X131524206Y-105297743D01*
X131537600Y-105294851D01*
X131691784Y-105243412D01*
X131704962Y-105237239D01*
X131842807Y-105151937D01*
X131854208Y-105142901D01*
X131968739Y-105028171D01*
X131977751Y-105016760D01*
X132062816Y-104878757D01*
X132068963Y-104865576D01*
X132085011Y-104817194D01*
X132085500Y-104803101D01*
X132079289Y-104800000D01*
X131418115Y-104800000D01*
X131402876Y-104804475D01*
X131401671Y-104805865D01*
X131400000Y-104813548D01*
X131400000Y-105289884D01*
X130400000Y-105289884D01*
X130400000Y-104818115D01*
X130395525Y-104802876D01*
X130394135Y-104801671D01*
X130386452Y-104800000D01*
X129727422Y-104800000D01*
X129713891Y-104803973D01*
X129712910Y-104810799D01*
X127495000Y-104810799D01*
X127495000Y-104342003D01*
X127515002Y-104273882D01*
X127531905Y-104252908D01*
X128539408Y-103245405D01*
X128601720Y-103211379D01*
X128628503Y-103208500D01*
X129858694Y-103208500D01*
X129926815Y-103228502D01*
X129940704Y-103239684D01*
X129940773Y-103239597D01*
X129946515Y-103244132D01*
X129951697Y-103249305D01*
X129956235Y-103252102D01*
X129996824Y-103309353D01*
X130000054Y-103380276D01*
X129964428Y-103441687D01*
X129955932Y-103449062D01*
X129945793Y-103457098D01*
X129831261Y-103571829D01*
X129822249Y-103583240D01*
X129737184Y-103721243D01*
X129731037Y-103734424D01*
X129714989Y-103782806D01*
X129714500Y-103796899D01*
X129720711Y-103800000D01*
X132072578Y-103800000D01*
X132086109Y-103796027D01*
X132087090Y-103789201D01*
X132068412Y-103733216D01*
X132062239Y-103720038D01*
X131976937Y-103582193D01*
X131967901Y-103570792D01*
X131853172Y-103456262D01*
X131844238Y-103449206D01*
X131803177Y-103391288D01*
X131799947Y-103320365D01*
X131835574Y-103258954D01*
X131843407Y-103252154D01*
X131849348Y-103248478D01*
X131974305Y-103123303D01*
X131985054Y-103105865D01*
X132063275Y-102978968D01*
X132063276Y-102978966D01*
X132067115Y-102972738D01*
X132122797Y-102804861D01*
X132133500Y-102700400D01*
X132133500Y-102099600D01*
X132122526Y-101993834D01*
X132118905Y-101982979D01*
X132068868Y-101833002D01*
X132066550Y-101826054D01*
X131973478Y-101675652D01*
X131895482Y-101597791D01*
X131861403Y-101535510D01*
X131858500Y-101508619D01*
X131858500Y-101140683D01*
X131878502Y-101072562D01*
X131899855Y-101048984D01*
X131899348Y-101048478D01*
X132019134Y-100928483D01*
X132024305Y-100923303D01*
X132054946Y-100873595D01*
X132113275Y-100778968D01*
X132113276Y-100778966D01*
X132117115Y-100772738D01*
X132155128Y-100658131D01*
X132170632Y-100611389D01*
X132170632Y-100611387D01*
X132172797Y-100604861D01*
X132173520Y-100597810D01*
X132180094Y-100533641D01*
X132183500Y-100500400D01*
X132183500Y-99899600D01*
X132182501Y-99889974D01*
X132173238Y-99800692D01*
X132173237Y-99800688D01*
X132172526Y-99793834D01*
X132150022Y-99726380D01*
X132118868Y-99633002D01*
X132116550Y-99626054D01*
X132023478Y-99475652D01*
X131998497Y-99450714D01*
X131903486Y-99355869D01*
X131898303Y-99350695D01*
X131893765Y-99347898D01*
X131853176Y-99290647D01*
X131849946Y-99219724D01*
X131885572Y-99158313D01*
X131894068Y-99150938D01*
X131904207Y-99142902D01*
X132018739Y-99028171D01*
X132027751Y-99016760D01*
X132112816Y-98878757D01*
X132118963Y-98865576D01*
X132135011Y-98817194D01*
X132135500Y-98803101D01*
X132129289Y-98800000D01*
X129777422Y-98800000D01*
X129763891Y-98803973D01*
X129762910Y-98810799D01*
X129781588Y-98866784D01*
X129787761Y-98879962D01*
X129873063Y-99017807D01*
X129882099Y-99029208D01*
X129996828Y-99143738D01*
X130005762Y-99150794D01*
X130046823Y-99208712D01*
X130050053Y-99279635D01*
X130014426Y-99341046D01*
X130006593Y-99347846D01*
X130000652Y-99351522D01*
X129995479Y-99356704D01*
X129990660Y-99361531D01*
X129875695Y-99476697D01*
X129782885Y-99627262D01*
X129727203Y-99795139D01*
X129726503Y-99801975D01*
X129726502Y-99801978D01*
X129723115Y-99835042D01*
X129716500Y-99899600D01*
X129716500Y-100500400D01*
X129716837Y-100503646D01*
X129716837Y-100503650D01*
X129725968Y-100591649D01*
X129727474Y-100606166D01*
X129729655Y-100612702D01*
X129729655Y-100612704D01*
X129733663Y-100624717D01*
X129783450Y-100773946D01*
X129876522Y-100924348D01*
X129881704Y-100929521D01*
X130001697Y-101049305D01*
X130000059Y-101050945D01*
X130034656Y-101099744D01*
X130041500Y-101140706D01*
X130041500Y-101265500D01*
X130021498Y-101333621D01*
X129967842Y-101380114D01*
X129915500Y-101391500D01*
X128281417Y-101391500D01*
X128261707Y-101389949D01*
X128254327Y-101388780D01*
X128254326Y-101388780D01*
X128247810Y-101387748D01*
X128241223Y-101388093D01*
X128241218Y-101388093D01*
X128179520Y-101391327D01*
X128172926Y-101391500D01*
X128152390Y-101391500D01*
X128149118Y-101391844D01*
X128149116Y-101391844D01*
X128131958Y-101393647D01*
X128125384Y-101394164D01*
X128063696Y-101397397D01*
X128063694Y-101397397D01*
X128057097Y-101397743D01*
X128043504Y-101401385D01*
X128024075Y-101404986D01*
X128010072Y-101406458D01*
X128003791Y-101408499D01*
X128003790Y-101408499D01*
X127988642Y-101413421D01*
X127945025Y-101427593D01*
X127938712Y-101429463D01*
X127918074Y-101434993D01*
X127879003Y-101445462D01*
X127879000Y-101445463D01*
X127872630Y-101447170D01*
X127860085Y-101453562D01*
X127841826Y-101461125D01*
X127828444Y-101465473D01*
X127822723Y-101468776D01*
X127769223Y-101499664D01*
X127763426Y-101502812D01*
X127708351Y-101530874D01*
X127708348Y-101530876D01*
X127702470Y-101533871D01*
X127697342Y-101538024D01*
X127697340Y-101538025D01*
X127691534Y-101542727D01*
X127675237Y-101553927D01*
X127668776Y-101557657D01*
X127668772Y-101557660D01*
X127663056Y-101560960D01*
X127658150Y-101565377D01*
X127658145Y-101565381D01*
X127612231Y-101606722D01*
X127607216Y-101611006D01*
X127598718Y-101617888D01*
X127591259Y-101623928D01*
X127576744Y-101638443D01*
X127571959Y-101642984D01*
X127521134Y-101688747D01*
X127517255Y-101694086D01*
X127517254Y-101694087D01*
X127512860Y-101700135D01*
X127500019Y-101715168D01*
X126675595Y-102539592D01*
X126613283Y-102573618D01*
X126542468Y-102568553D01*
X126497405Y-102539592D01*
X123385405Y-99427592D01*
X123351379Y-99365280D01*
X123348500Y-99338497D01*
X123348500Y-98158169D01*
X124078501Y-98158169D01*
X124078871Y-98164990D01*
X124084395Y-98215852D01*
X124088021Y-98231104D01*
X124133176Y-98351554D01*
X124141714Y-98367149D01*
X124218215Y-98469224D01*
X124230776Y-98481785D01*
X124332851Y-98558286D01*
X124348446Y-98566824D01*
X124468894Y-98611978D01*
X124484149Y-98615605D01*
X124535014Y-98621131D01*
X124541828Y-98621500D01*
X126068385Y-98621500D01*
X126083624Y-98617025D01*
X126084829Y-98615635D01*
X126086500Y-98607952D01*
X126086500Y-98603384D01*
X127086500Y-98603384D01*
X127090975Y-98618623D01*
X127092365Y-98619828D01*
X127100048Y-98621499D01*
X128631169Y-98621499D01*
X128637990Y-98621129D01*
X128688852Y-98615605D01*
X128704104Y-98611979D01*
X128824554Y-98566824D01*
X128840149Y-98558286D01*
X128942224Y-98481785D01*
X128954785Y-98469224D01*
X129031286Y-98367149D01*
X129039824Y-98351554D01*
X129084978Y-98231106D01*
X129088605Y-98215851D01*
X129094131Y-98164986D01*
X129094500Y-98158172D01*
X129094500Y-97796899D01*
X129764500Y-97796899D01*
X129770711Y-97800000D01*
X130431885Y-97800000D01*
X130447124Y-97795525D01*
X130448329Y-97794135D01*
X130450000Y-97786452D01*
X130450000Y-97781885D01*
X131450000Y-97781885D01*
X131454475Y-97797124D01*
X131455865Y-97798329D01*
X131463548Y-97800000D01*
X132122578Y-97800000D01*
X132136109Y-97796027D01*
X132137090Y-97789201D01*
X132118412Y-97733216D01*
X132112239Y-97720038D01*
X132026937Y-97582193D01*
X132017901Y-97570792D01*
X131903171Y-97456261D01*
X131891760Y-97447249D01*
X131753757Y-97362184D01*
X131740576Y-97356037D01*
X131586290Y-97304862D01*
X131572914Y-97301995D01*
X131478562Y-97292328D01*
X131472145Y-97292000D01*
X131468115Y-97292000D01*
X131452876Y-97296475D01*
X131451671Y-97297865D01*
X131450000Y-97305548D01*
X131450000Y-97781885D01*
X130450000Y-97781885D01*
X130450000Y-97310116D01*
X130445525Y-97294877D01*
X130444135Y-97293672D01*
X130436452Y-97292001D01*
X130427905Y-97292001D01*
X130421386Y-97292338D01*
X130325794Y-97302257D01*
X130312400Y-97305149D01*
X130158216Y-97356588D01*
X130145038Y-97362761D01*
X130007193Y-97448063D01*
X129995792Y-97457099D01*
X129881261Y-97571829D01*
X129872249Y-97583240D01*
X129787184Y-97721243D01*
X129781037Y-97734424D01*
X129764989Y-97782806D01*
X129764500Y-97796899D01*
X129094500Y-97796899D01*
X129094500Y-96631615D01*
X129090025Y-96616376D01*
X129088635Y-96615171D01*
X129080952Y-96613500D01*
X127104615Y-96613500D01*
X127089376Y-96617975D01*
X127088171Y-96619365D01*
X127086500Y-96627048D01*
X127086500Y-98603384D01*
X126086500Y-98603384D01*
X126086500Y-96631615D01*
X126082025Y-96616376D01*
X126080635Y-96615171D01*
X126072952Y-96613500D01*
X124096616Y-96613500D01*
X124081377Y-96617975D01*
X124080172Y-96619365D01*
X124078501Y-96627048D01*
X124078501Y-98158169D01*
X123348500Y-98158169D01*
X123348500Y-95595385D01*
X124078500Y-95595385D01*
X124082975Y-95610624D01*
X124084365Y-95611829D01*
X124092048Y-95613500D01*
X126068385Y-95613500D01*
X126083624Y-95609025D01*
X126084829Y-95607635D01*
X126086500Y-95599952D01*
X126086500Y-95595385D01*
X127086500Y-95595385D01*
X127090975Y-95610624D01*
X127092365Y-95611829D01*
X127100048Y-95613500D01*
X129076384Y-95613500D01*
X129091623Y-95609025D01*
X129092828Y-95607635D01*
X129094499Y-95599952D01*
X129094499Y-94068831D01*
X129094129Y-94062010D01*
X129088605Y-94011148D01*
X129084979Y-93995896D01*
X129039824Y-93875446D01*
X129031286Y-93859851D01*
X128954785Y-93757776D01*
X128942224Y-93745215D01*
X128840149Y-93668714D01*
X128824554Y-93660176D01*
X128704106Y-93615022D01*
X128688851Y-93611395D01*
X128637986Y-93605869D01*
X128631172Y-93605500D01*
X127104615Y-93605500D01*
X127089376Y-93609975D01*
X127088171Y-93611365D01*
X127086500Y-93619048D01*
X127086500Y-95595385D01*
X126086500Y-95595385D01*
X126086500Y-93623616D01*
X126082025Y-93608377D01*
X126080635Y-93607172D01*
X126072952Y-93605501D01*
X124541831Y-93605501D01*
X124535010Y-93605871D01*
X124484148Y-93611395D01*
X124468896Y-93615021D01*
X124348446Y-93660176D01*
X124332851Y-93668714D01*
X124230776Y-93745215D01*
X124218215Y-93757776D01*
X124141714Y-93859851D01*
X124133176Y-93875446D01*
X124088022Y-93995894D01*
X124084395Y-94011149D01*
X124078869Y-94062014D01*
X124078500Y-94068828D01*
X124078500Y-95595385D01*
X123348500Y-95595385D01*
X123348500Y-92894632D01*
X123358090Y-92846416D01*
X123398018Y-92750023D01*
X123409870Y-92660000D01*
X123412962Y-92636510D01*
X123412962Y-92636509D01*
X123413500Y-92632423D01*
X123413500Y-92470316D01*
X126092411Y-92470316D01*
X126096153Y-92475315D01*
X126113454Y-92483382D01*
X126123750Y-92487129D01*
X126325575Y-92541208D01*
X126336370Y-92543111D01*
X126544525Y-92561323D01*
X126555475Y-92561323D01*
X126763630Y-92543111D01*
X126774425Y-92541208D01*
X126976250Y-92487129D01*
X126986546Y-92483382D01*
X126997225Y-92478402D01*
X127006410Y-92470316D01*
X132592411Y-92470316D01*
X132596153Y-92475315D01*
X132613454Y-92483382D01*
X132623750Y-92487129D01*
X132825575Y-92541208D01*
X132836370Y-92543111D01*
X133044525Y-92561323D01*
X133055475Y-92561323D01*
X133263630Y-92543111D01*
X133274425Y-92541208D01*
X133476250Y-92487129D01*
X133486546Y-92483382D01*
X133497225Y-92478402D01*
X133507807Y-92469086D01*
X133506000Y-92463107D01*
X133062812Y-92019919D01*
X133048868Y-92012305D01*
X133047035Y-92012436D01*
X133040420Y-92016687D01*
X132599171Y-92457936D01*
X132592411Y-92470316D01*
X127006410Y-92470316D01*
X127007807Y-92469086D01*
X127006000Y-92463107D01*
X126562812Y-92019919D01*
X126548868Y-92012305D01*
X126547035Y-92012436D01*
X126540420Y-92016687D01*
X126099171Y-92457936D01*
X126092411Y-92470316D01*
X123413500Y-92470316D01*
X123413499Y-91429578D01*
X123410048Y-91403357D01*
X123399096Y-91320164D01*
X123399095Y-91320162D01*
X123398018Y-91311977D01*
X123395325Y-91305475D01*
X125288677Y-91305475D01*
X125306889Y-91513630D01*
X125308792Y-91524425D01*
X125362871Y-91726250D01*
X125366618Y-91736546D01*
X125371598Y-91747225D01*
X125380914Y-91757807D01*
X125386893Y-91756000D01*
X125830081Y-91312812D01*
X125836459Y-91301132D01*
X127262305Y-91301132D01*
X127262436Y-91302965D01*
X127266687Y-91309580D01*
X127707936Y-91750829D01*
X127720316Y-91757589D01*
X127725315Y-91753847D01*
X127733382Y-91736546D01*
X127737129Y-91726250D01*
X127791208Y-91524425D01*
X127793111Y-91513630D01*
X127811323Y-91305475D01*
X131788677Y-91305475D01*
X131806889Y-91513630D01*
X131808792Y-91524425D01*
X131862871Y-91726250D01*
X131866618Y-91736546D01*
X131871598Y-91747225D01*
X131880914Y-91757807D01*
X131886893Y-91756000D01*
X132330081Y-91312812D01*
X132336459Y-91301132D01*
X133762305Y-91301132D01*
X133762436Y-91302965D01*
X133766687Y-91309580D01*
X134207936Y-91750829D01*
X134220316Y-91757589D01*
X134225315Y-91753847D01*
X134233382Y-91736546D01*
X134237129Y-91726250D01*
X134291208Y-91524425D01*
X134293111Y-91513630D01*
X134311323Y-91305475D01*
X134311323Y-91294525D01*
X134293111Y-91086370D01*
X134291208Y-91075575D01*
X134237129Y-90873750D01*
X134233382Y-90863454D01*
X134228402Y-90852775D01*
X134219086Y-90842193D01*
X134213107Y-90844000D01*
X133769919Y-91287188D01*
X133762305Y-91301132D01*
X132336459Y-91301132D01*
X132337695Y-91298868D01*
X132337564Y-91297035D01*
X132333313Y-91290420D01*
X131892064Y-90849171D01*
X131879684Y-90842411D01*
X131874685Y-90846153D01*
X131866618Y-90863454D01*
X131862871Y-90873750D01*
X131808792Y-91075575D01*
X131806889Y-91086370D01*
X131788677Y-91294525D01*
X131788677Y-91305475D01*
X127811323Y-91305475D01*
X127811323Y-91294525D01*
X127793111Y-91086370D01*
X127791208Y-91075575D01*
X127737129Y-90873750D01*
X127733382Y-90863454D01*
X127728402Y-90852775D01*
X127719086Y-90842193D01*
X127713107Y-90844000D01*
X127269919Y-91287188D01*
X127262305Y-91301132D01*
X125836459Y-91301132D01*
X125837695Y-91298868D01*
X125837564Y-91297035D01*
X125833313Y-91290420D01*
X125392064Y-90849171D01*
X125379684Y-90842411D01*
X125374685Y-90846153D01*
X125366618Y-90863454D01*
X125362871Y-90873750D01*
X125308792Y-91075575D01*
X125306889Y-91086370D01*
X125288677Y-91294525D01*
X125288677Y-91305475D01*
X123395325Y-91305475D01*
X123337409Y-91165655D01*
X123240995Y-91040005D01*
X123115345Y-90943591D01*
X122969023Y-90882982D01*
X122926798Y-90877423D01*
X122855510Y-90868038D01*
X122855509Y-90868038D01*
X122851423Y-90867500D01*
X122440050Y-90867500D01*
X122028578Y-90867501D01*
X122024494Y-90868039D01*
X122024488Y-90868039D01*
X121919164Y-90881904D01*
X121919162Y-90881905D01*
X121910977Y-90882982D01*
X121764655Y-90943591D01*
X121639005Y-91040005D01*
X121542591Y-91165655D01*
X121481982Y-91311977D01*
X121466500Y-91429577D01*
X121123499Y-91429577D01*
X121120048Y-91403357D01*
X121109096Y-91320164D01*
X121109095Y-91320162D01*
X121108018Y-91311977D01*
X121068090Y-91215584D01*
X121058500Y-91167368D01*
X121058500Y-90130914D01*
X126092193Y-90130914D01*
X126094000Y-90136893D01*
X126537188Y-90580081D01*
X126551132Y-90587695D01*
X126552965Y-90587564D01*
X126559580Y-90583313D01*
X127000829Y-90142064D01*
X127006917Y-90130914D01*
X132592193Y-90130914D01*
X132594000Y-90136893D01*
X133037188Y-90580081D01*
X133051132Y-90587695D01*
X133052965Y-90587564D01*
X133059580Y-90583313D01*
X133500829Y-90142064D01*
X133507589Y-90129684D01*
X133503847Y-90124685D01*
X133486546Y-90116618D01*
X133476250Y-90112871D01*
X133274425Y-90058792D01*
X133263630Y-90056889D01*
X133055475Y-90038677D01*
X133044525Y-90038677D01*
X132836370Y-90056889D01*
X132825575Y-90058792D01*
X132623750Y-90112871D01*
X132613454Y-90116618D01*
X132602775Y-90121598D01*
X132592193Y-90130914D01*
X127006917Y-90130914D01*
X127007589Y-90129684D01*
X127003847Y-90124685D01*
X126986546Y-90116618D01*
X126976250Y-90112871D01*
X126774425Y-90058792D01*
X126763630Y-90056889D01*
X126555475Y-90038677D01*
X126544525Y-90038677D01*
X126336370Y-90056889D01*
X126325575Y-90058792D01*
X126123750Y-90112871D01*
X126113454Y-90116618D01*
X126102775Y-90121598D01*
X126092193Y-90130914D01*
X121058500Y-90130914D01*
X121058500Y-86897503D01*
X121078502Y-86829382D01*
X121132158Y-86782889D01*
X121202432Y-86772785D01*
X121267012Y-86802279D01*
X121273595Y-86808408D01*
X123850019Y-89384832D01*
X123862860Y-89399865D01*
X123871134Y-89411253D01*
X123894616Y-89432396D01*
X123921959Y-89457016D01*
X123926744Y-89461557D01*
X123941259Y-89476072D01*
X123943823Y-89478148D01*
X123957216Y-89488994D01*
X123962231Y-89493278D01*
X124008145Y-89534619D01*
X124008150Y-89534623D01*
X124013056Y-89539040D01*
X124018772Y-89542340D01*
X124018776Y-89542343D01*
X124025237Y-89546073D01*
X124041533Y-89557273D01*
X124052470Y-89566129D01*
X124058348Y-89569124D01*
X124058351Y-89569126D01*
X124113426Y-89597188D01*
X124119223Y-89600336D01*
X124151164Y-89618777D01*
X124178444Y-89634527D01*
X124191826Y-89638875D01*
X124210085Y-89646438D01*
X124222630Y-89652830D01*
X124229000Y-89654537D01*
X124229003Y-89654538D01*
X124249821Y-89660116D01*
X124288712Y-89670537D01*
X124295025Y-89672407D01*
X124360072Y-89693542D01*
X124374075Y-89695014D01*
X124393504Y-89698615D01*
X124407097Y-89702257D01*
X124413694Y-89702603D01*
X124413696Y-89702603D01*
X124475384Y-89705836D01*
X124481958Y-89706353D01*
X124499116Y-89708156D01*
X124499118Y-89708156D01*
X124502390Y-89708500D01*
X124522926Y-89708500D01*
X124529520Y-89708673D01*
X124591218Y-89711907D01*
X124591223Y-89711907D01*
X124597810Y-89712252D01*
X124604326Y-89711220D01*
X124604327Y-89711220D01*
X124611707Y-89710051D01*
X124631417Y-89708500D01*
X134668583Y-89708500D01*
X134688292Y-89710051D01*
X134702190Y-89712252D01*
X134708777Y-89711907D01*
X134708782Y-89711907D01*
X134770480Y-89708673D01*
X134777074Y-89708500D01*
X134797610Y-89708500D01*
X134800882Y-89708156D01*
X134800884Y-89708156D01*
X134818042Y-89706353D01*
X134824616Y-89705836D01*
X134886308Y-89702603D01*
X134886312Y-89702602D01*
X134892903Y-89702257D01*
X134899284Y-89700547D01*
X134899286Y-89700547D01*
X134906491Y-89698617D01*
X134925925Y-89695015D01*
X134933354Y-89694234D01*
X134933363Y-89694232D01*
X134939928Y-89693542D01*
X135004997Y-89672400D01*
X135011299Y-89670533D01*
X135077370Y-89652829D01*
X135089908Y-89646440D01*
X135108174Y-89638875D01*
X135115272Y-89636569D01*
X135115274Y-89636568D01*
X135121556Y-89634527D01*
X135170288Y-89606392D01*
X135239282Y-89589654D01*
X135306374Y-89612874D01*
X135350261Y-89668681D01*
X135357010Y-89739356D01*
X135334113Y-89791076D01*
X135255214Y-89896351D01*
X135246676Y-89911946D01*
X135201522Y-90032394D01*
X135197895Y-90047649D01*
X135192369Y-90098514D01*
X135192000Y-90105328D01*
X135192000Y-90331885D01*
X135196475Y-90347124D01*
X135197865Y-90348329D01*
X135205548Y-90350000D01*
X135681885Y-90350000D01*
X135697124Y-90345525D01*
X135698329Y-90344135D01*
X135700000Y-90336452D01*
X135700000Y-89660116D01*
X135695525Y-89644877D01*
X135694135Y-89643672D01*
X135686452Y-89642001D01*
X135655331Y-89642001D01*
X135648510Y-89642371D01*
X135597648Y-89647895D01*
X135582397Y-89651521D01*
X135487813Y-89686979D01*
X135417006Y-89692162D01*
X135354637Y-89658241D01*
X135320507Y-89595986D01*
X135325454Y-89525162D01*
X135358768Y-89476099D01*
X135358741Y-89476072D01*
X135373256Y-89461557D01*
X135378041Y-89457016D01*
X135405384Y-89432396D01*
X135428866Y-89411253D01*
X135437140Y-89399865D01*
X135449981Y-89384832D01*
X136800590Y-88034223D01*
X136862902Y-88000197D01*
X136871914Y-87998755D01*
X136874312Y-87998237D01*
X136881166Y-87997526D01*
X136887702Y-87995345D01*
X136887704Y-87995345D01*
X137026712Y-87948968D01*
X137048946Y-87941550D01*
X137065137Y-87931531D01*
X137071883Y-87927356D01*
X137138186Y-87908500D01*
X137862015Y-87908500D01*
X137928132Y-87927241D01*
X137946030Y-87938274D01*
X137946033Y-87938276D01*
X137952262Y-87942115D01*
X137999120Y-87957657D01*
X138113611Y-87995632D01*
X138113613Y-87995632D01*
X138120139Y-87997797D01*
X138126975Y-87998497D01*
X138126978Y-87998498D01*
X138167075Y-88002606D01*
X138224600Y-88008500D01*
X139275400Y-88008500D01*
X139278646Y-88008163D01*
X139278650Y-88008163D01*
X139374308Y-87998238D01*
X139374312Y-87998237D01*
X139381166Y-87997526D01*
X139387702Y-87995345D01*
X139387704Y-87995345D01*
X139526712Y-87948968D01*
X139548946Y-87941550D01*
X139565137Y-87931531D01*
X139571883Y-87927356D01*
X139638186Y-87908500D01*
X140312015Y-87908500D01*
X140378132Y-87927241D01*
X140396030Y-87938274D01*
X140396033Y-87938276D01*
X140402262Y-87942115D01*
X140449120Y-87957657D01*
X140563611Y-87995632D01*
X140563613Y-87995632D01*
X140570139Y-87997797D01*
X140576975Y-87998497D01*
X140576978Y-87998498D01*
X140617075Y-88002606D01*
X140674600Y-88008500D01*
X141725400Y-88008500D01*
X141728646Y-88008163D01*
X141728650Y-88008163D01*
X141824308Y-87998238D01*
X141824312Y-87998237D01*
X141831166Y-87997526D01*
X141837702Y-87995345D01*
X141837704Y-87995345D01*
X141976712Y-87948968D01*
X141998946Y-87941550D01*
X142015137Y-87931531D01*
X142021883Y-87927356D01*
X142088186Y-87908500D01*
X142652497Y-87908500D01*
X142720618Y-87928502D01*
X142767111Y-87982158D01*
X142777215Y-88052432D01*
X142747721Y-88117012D01*
X142741592Y-88123595D01*
X142465168Y-88400019D01*
X142450135Y-88412860D01*
X142438747Y-88421134D01*
X142434327Y-88426043D01*
X142392984Y-88471959D01*
X142388443Y-88476744D01*
X142373928Y-88491259D01*
X142371852Y-88493823D01*
X142361006Y-88507216D01*
X142356722Y-88512231D01*
X142315381Y-88558145D01*
X142315377Y-88558150D01*
X142310960Y-88563056D01*
X142307660Y-88568772D01*
X142307657Y-88568776D01*
X142303927Y-88575237D01*
X142292727Y-88591533D01*
X142283871Y-88602470D01*
X142272814Y-88624171D01*
X142252815Y-88663421D01*
X142249669Y-88669215D01*
X142215473Y-88728444D01*
X142213432Y-88734726D01*
X142213431Y-88734728D01*
X142211125Y-88741826D01*
X142203560Y-88760092D01*
X142197171Y-88772630D01*
X142195463Y-88779003D01*
X142195463Y-88779004D01*
X142179469Y-88838695D01*
X142177600Y-88845003D01*
X142156458Y-88910072D01*
X142155768Y-88916637D01*
X142155766Y-88916646D01*
X142154985Y-88924075D01*
X142151383Y-88943509D01*
X142149453Y-88950714D01*
X142147743Y-88957097D01*
X142147398Y-88963688D01*
X142147397Y-88963692D01*
X142144164Y-89025384D01*
X142143647Y-89031959D01*
X142139097Y-89075255D01*
X142136496Y-89100000D01*
X142137186Y-89106566D01*
X142137186Y-89106568D01*
X142137967Y-89114001D01*
X142138484Y-89133759D01*
X142137748Y-89147810D01*
X142148450Y-89215383D01*
X142149308Y-89221900D01*
X142153346Y-89260316D01*
X142156458Y-89289928D01*
X142158498Y-89296205D01*
X142158498Y-89296207D01*
X142160806Y-89303311D01*
X142165421Y-89322534D01*
X142165571Y-89323478D01*
X142167623Y-89336432D01*
X142180642Y-89370347D01*
X142186380Y-89441111D01*
X142152949Y-89503744D01*
X142090963Y-89538360D01*
X142063010Y-89541500D01*
X140281416Y-89541500D01*
X140261707Y-89539949D01*
X140247809Y-89537748D01*
X140241222Y-89538093D01*
X140241217Y-89538093D01*
X140179519Y-89541327D01*
X140172925Y-89541500D01*
X140152390Y-89541500D01*
X140146222Y-89542148D01*
X140131960Y-89543647D01*
X140125385Y-89544164D01*
X140063696Y-89547397D01*
X140063695Y-89547397D01*
X140057096Y-89547743D01*
X140043508Y-89551384D01*
X140024061Y-89554988D01*
X140016644Y-89555767D01*
X140016640Y-89555768D01*
X140010072Y-89556458D01*
X139953276Y-89574912D01*
X139945009Y-89577598D01*
X139938685Y-89579471D01*
X139879010Y-89595461D01*
X139879006Y-89595462D01*
X139872630Y-89597171D01*
X139866748Y-89600168D01*
X139860093Y-89603559D01*
X139841826Y-89611125D01*
X139834728Y-89613431D01*
X139834726Y-89613432D01*
X139828444Y-89615473D01*
X139774747Y-89646475D01*
X139769223Y-89649664D01*
X139763428Y-89652811D01*
X139760040Y-89654537D01*
X139708352Y-89680873D01*
X139708349Y-89680875D01*
X139702469Y-89683871D01*
X139691526Y-89692733D01*
X139675237Y-89703927D01*
X139663056Y-89710960D01*
X139658150Y-89715377D01*
X139658145Y-89715381D01*
X139612221Y-89756731D01*
X139607220Y-89761003D01*
X139591259Y-89773928D01*
X139576744Y-89788443D01*
X139571959Y-89792984D01*
X139521134Y-89838747D01*
X139517255Y-89844086D01*
X139517254Y-89844087D01*
X139512860Y-89850135D01*
X139500019Y-89865168D01*
X139460592Y-89904595D01*
X139398280Y-89938621D01*
X139371497Y-89941500D01*
X139142275Y-89941500D01*
X139074154Y-89921498D01*
X139041449Y-89891065D01*
X138968642Y-89793919D01*
X138963261Y-89786739D01*
X138846705Y-89699385D01*
X138710316Y-89648255D01*
X138652737Y-89642000D01*
X138651531Y-89641869D01*
X138648134Y-89641500D01*
X137551866Y-89641500D01*
X137548469Y-89641869D01*
X137547263Y-89642000D01*
X137489684Y-89648255D01*
X137353295Y-89699385D01*
X137236739Y-89786739D01*
X137235608Y-89788248D01*
X137176426Y-89820565D01*
X137105611Y-89815500D01*
X137060548Y-89786539D01*
X137055724Y-89781715D01*
X136953649Y-89705214D01*
X136938054Y-89696676D01*
X136817606Y-89651522D01*
X136802351Y-89647895D01*
X136751486Y-89642369D01*
X136744672Y-89642000D01*
X136718115Y-89642000D01*
X136702876Y-89646475D01*
X136701671Y-89647865D01*
X136700000Y-89655548D01*
X136700000Y-91224000D01*
X136679998Y-91292121D01*
X136626342Y-91338614D01*
X136574000Y-91350000D01*
X135210116Y-91350000D01*
X135194877Y-91354475D01*
X135193672Y-91355865D01*
X135192001Y-91363548D01*
X135192001Y-91594669D01*
X135192371Y-91601490D01*
X135197895Y-91652352D01*
X135201521Y-91667604D01*
X135246676Y-91788054D01*
X135255214Y-91803649D01*
X135331715Y-91905724D01*
X135344276Y-91918285D01*
X135446351Y-91994786D01*
X135461946Y-92003324D01*
X135582394Y-92048478D01*
X135597649Y-92052105D01*
X135648514Y-92057631D01*
X135655327Y-92058000D01*
X136034567Y-92057999D01*
X136102687Y-92078001D01*
X136149180Y-92131656D01*
X136159285Y-92201930D01*
X136152550Y-92228226D01*
X136151029Y-92232283D01*
X136151029Y-92232284D01*
X136148255Y-92239684D01*
X136141500Y-92301866D01*
X136141500Y-92721497D01*
X136121498Y-92789618D01*
X136104595Y-92810592D01*
X134637168Y-94278019D01*
X134622135Y-94290860D01*
X134610747Y-94299134D01*
X134606327Y-94304043D01*
X134564984Y-94349959D01*
X134560443Y-94354744D01*
X134545928Y-94369259D01*
X134543852Y-94371823D01*
X134533006Y-94385216D01*
X134528722Y-94390231D01*
X134487381Y-94436145D01*
X134487377Y-94436150D01*
X134482960Y-94441056D01*
X134479660Y-94446772D01*
X134479657Y-94446776D01*
X134475927Y-94453237D01*
X134464727Y-94469533D01*
X134455871Y-94480470D01*
X134440068Y-94511486D01*
X134424815Y-94541421D01*
X134421667Y-94547218D01*
X134404123Y-94577606D01*
X134387473Y-94606444D01*
X134385432Y-94612726D01*
X134385431Y-94612728D01*
X134383125Y-94619826D01*
X134375560Y-94638092D01*
X134369171Y-94650630D01*
X134367463Y-94657003D01*
X134367463Y-94657004D01*
X134351469Y-94716695D01*
X134349600Y-94723003D01*
X134328458Y-94788072D01*
X134327768Y-94794637D01*
X134327766Y-94794646D01*
X134326985Y-94802075D01*
X134323383Y-94821509D01*
X134322180Y-94826000D01*
X134319743Y-94835097D01*
X134319398Y-94841688D01*
X134319397Y-94841692D01*
X134316164Y-94903384D01*
X134315647Y-94909958D01*
X134313844Y-94927116D01*
X134313500Y-94930390D01*
X134313500Y-94950926D01*
X134313327Y-94957520D01*
X134312929Y-94965123D01*
X134309748Y-95025810D01*
X134310780Y-95032325D01*
X134311949Y-95039705D01*
X134313500Y-95059417D01*
X134313500Y-115270456D01*
X134293498Y-115338577D01*
X134276595Y-115359551D01*
X134196578Y-115439568D01*
X134193421Y-115444076D01*
X134193419Y-115444079D01*
X134119793Y-115549228D01*
X134062744Y-115630703D01*
X134060877Y-115634707D01*
X134009736Y-115683469D01*
X133940023Y-115696905D01*
X133874112Y-115670518D01*
X133843172Y-115634812D01*
X133841256Y-115630703D01*
X133784207Y-115549228D01*
X133710581Y-115444079D01*
X133710579Y-115444076D01*
X133707422Y-115439568D01*
X133542432Y-115274578D01*
X133537924Y-115271421D01*
X133537921Y-115271419D01*
X133355806Y-115143901D01*
X133355804Y-115143900D01*
X133351297Y-115140744D01*
X133346315Y-115138421D01*
X133346310Y-115138418D01*
X133144808Y-115044456D01*
X133144806Y-115044455D01*
X133139826Y-115042133D01*
X133134518Y-115040711D01*
X133134516Y-115040710D01*
X133054306Y-115019218D01*
X132914444Y-114981742D01*
X132908962Y-114981262D01*
X132908954Y-114981261D01*
X132857731Y-114976779D01*
X132791613Y-114950916D01*
X132779626Y-114939793D01*
X132778866Y-114938747D01*
X132728041Y-114892984D01*
X132723256Y-114888443D01*
X132708741Y-114873928D01*
X132701282Y-114867888D01*
X132692784Y-114861006D01*
X132687769Y-114856722D01*
X132641855Y-114815381D01*
X132641850Y-114815377D01*
X132636944Y-114810960D01*
X132631228Y-114807660D01*
X132631224Y-114807657D01*
X132624763Y-114803927D01*
X132608466Y-114792727D01*
X132602660Y-114788025D01*
X132602658Y-114788024D01*
X132597530Y-114783871D01*
X132536577Y-114752814D01*
X132530782Y-114749667D01*
X132477279Y-114718777D01*
X132477278Y-114718776D01*
X132471556Y-114715473D01*
X132465274Y-114713432D01*
X132465272Y-114713431D01*
X132458174Y-114711125D01*
X132439907Y-114703559D01*
X132427370Y-114697171D01*
X132361299Y-114679467D01*
X132354997Y-114677600D01*
X132289928Y-114656458D01*
X132283363Y-114655768D01*
X132283354Y-114655766D01*
X132275925Y-114654985D01*
X132256491Y-114651383D01*
X132249286Y-114649453D01*
X132249284Y-114649453D01*
X132242903Y-114647743D01*
X132236312Y-114647398D01*
X132236308Y-114647397D01*
X132174616Y-114644164D01*
X132168042Y-114643647D01*
X132150884Y-114641844D01*
X132150882Y-114641844D01*
X132147610Y-114641500D01*
X132127074Y-114641500D01*
X132120480Y-114641327D01*
X132058782Y-114638093D01*
X132058777Y-114638093D01*
X132052190Y-114637748D01*
X132038292Y-114639949D01*
X132018583Y-114641500D01*
X123434500Y-114641500D01*
X123366379Y-114621498D01*
X123319886Y-114567842D01*
X123308500Y-114515500D01*
X123308500Y-112901866D01*
X123301745Y-112839684D01*
X123250615Y-112703295D01*
X123163261Y-112586739D01*
X123046705Y-112499385D01*
X122910316Y-112448255D01*
X122848134Y-112441500D01*
X122584500Y-112441500D01*
X122516379Y-112421498D01*
X122469886Y-112367842D01*
X122458500Y-112315500D01*
X122458500Y-111231417D01*
X122460051Y-111211705D01*
X122461220Y-111204325D01*
X122462252Y-111197810D01*
X122458673Y-111129520D01*
X122458500Y-111122926D01*
X122458500Y-111102390D01*
X122458156Y-111099116D01*
X122456353Y-111081958D01*
X122455836Y-111075384D01*
X122452603Y-111013696D01*
X122452603Y-111013694D01*
X122452257Y-111007097D01*
X122448615Y-110993504D01*
X122445014Y-110974075D01*
X122444232Y-110966639D01*
X122443542Y-110960072D01*
X122440038Y-110949286D01*
X122432070Y-110924763D01*
X122422407Y-110895025D01*
X122420535Y-110888706D01*
X122404538Y-110829003D01*
X122404537Y-110829000D01*
X122402830Y-110822630D01*
X122396438Y-110810085D01*
X122388874Y-110791823D01*
X122386568Y-110784726D01*
X122384527Y-110778444D01*
X122372511Y-110757631D01*
X122350336Y-110719223D01*
X122347188Y-110713426D01*
X122319126Y-110658351D01*
X122319124Y-110658348D01*
X122316129Y-110652470D01*
X122307273Y-110641533D01*
X122296073Y-110625237D01*
X122292343Y-110618776D01*
X122292340Y-110618772D01*
X122289040Y-110613056D01*
X122284623Y-110608150D01*
X122284619Y-110608145D01*
X122243278Y-110562231D01*
X122238994Y-110557216D01*
X122228148Y-110543823D01*
X122226072Y-110541259D01*
X122211557Y-110526744D01*
X122207016Y-110521959D01*
X122165673Y-110476043D01*
X122161253Y-110471134D01*
X122149865Y-110462860D01*
X122134832Y-110450019D01*
X119113481Y-107428668D01*
X119100640Y-107413635D01*
X119096246Y-107407587D01*
X119096245Y-107407586D01*
X119092366Y-107402247D01*
X119041541Y-107356484D01*
X119036756Y-107351943D01*
X119022241Y-107337428D01*
X119014782Y-107331388D01*
X119006284Y-107324506D01*
X119001269Y-107320222D01*
X118955355Y-107278881D01*
X118955350Y-107278877D01*
X118950444Y-107274460D01*
X118944728Y-107271160D01*
X118944724Y-107271157D01*
X118938263Y-107267427D01*
X118921966Y-107256227D01*
X118916160Y-107251525D01*
X118916158Y-107251524D01*
X118911030Y-107247371D01*
X118850077Y-107216314D01*
X118844282Y-107213167D01*
X118790779Y-107182277D01*
X118790778Y-107182276D01*
X118785056Y-107178973D01*
X118778774Y-107176932D01*
X118778772Y-107176931D01*
X118771674Y-107174625D01*
X118753407Y-107167059D01*
X118740870Y-107160671D01*
X118726756Y-107156889D01*
X118716352Y-107154101D01*
X118674799Y-107142967D01*
X118668497Y-107141100D01*
X118603428Y-107119958D01*
X118596863Y-107119268D01*
X118596854Y-107119266D01*
X118589425Y-107118485D01*
X118569991Y-107114883D01*
X118562786Y-107112953D01*
X118562784Y-107112953D01*
X118556403Y-107111243D01*
X118549812Y-107110898D01*
X118549808Y-107110897D01*
X118488116Y-107107664D01*
X118481542Y-107107147D01*
X118464384Y-107105344D01*
X118464382Y-107105344D01*
X118461110Y-107105000D01*
X118440574Y-107105000D01*
X118433980Y-107104827D01*
X118372282Y-107101593D01*
X118372277Y-107101593D01*
X118365690Y-107101248D01*
X118351792Y-107103449D01*
X118332083Y-107105000D01*
X112321000Y-107105000D01*
X112252879Y-107084998D01*
X112206386Y-107031342D01*
X112195000Y-106979000D01*
X112195000Y-105965366D01*
X112188245Y-105903184D01*
X112137115Y-105766795D01*
X112049761Y-105650239D01*
X111933205Y-105562885D01*
X111796816Y-105511755D01*
X111734634Y-105505000D01*
X107638366Y-105505000D01*
X107576184Y-105511755D01*
X107439795Y-105562885D01*
X107323239Y-105650239D01*
X107235885Y-105766795D01*
X107184755Y-105903184D01*
X107178000Y-105965366D01*
X107178000Y-110061634D01*
X107184755Y-110123816D01*
X107235885Y-110260205D01*
X107323239Y-110376761D01*
X107439795Y-110464115D01*
X107576184Y-110515245D01*
X107638366Y-110522000D01*
X111734634Y-110522000D01*
X111796816Y-110515245D01*
X111933205Y-110464115D01*
X112049761Y-110376761D01*
X112137115Y-110260205D01*
X112188245Y-110123816D01*
X112195000Y-110061634D01*
X112195000Y-109048000D01*
X112215002Y-108979879D01*
X112268658Y-108933386D01*
X112321000Y-108922000D01*
X117984997Y-108922000D01*
X118053118Y-108942002D01*
X118074092Y-108958905D01*
X120604595Y-111489408D01*
X120638621Y-111551720D01*
X120641500Y-111578503D01*
X120641500Y-112315500D01*
X120621498Y-112383621D01*
X120567842Y-112430114D01*
X120515500Y-112441500D01*
X120351866Y-112441500D01*
X120289684Y-112448255D01*
X120153295Y-112499385D01*
X120036739Y-112586739D01*
X119949385Y-112703295D01*
X119898255Y-112839684D01*
X119891500Y-112901866D01*
X119891500Y-118198134D01*
X119898255Y-118260316D01*
X119949385Y-118396705D01*
X119992062Y-118453649D01*
X120019632Y-118490435D01*
X120044480Y-118556941D01*
X120029427Y-118626324D01*
X119979253Y-118676554D01*
X119918806Y-118692000D01*
X119218115Y-118692000D01*
X119202876Y-118696475D01*
X119201671Y-118697865D01*
X119200000Y-118705548D01*
X119200000Y-119881885D01*
X119204475Y-119897124D01*
X119205865Y-119898329D01*
X119213548Y-119900000D01*
X121789884Y-119900000D01*
X121805123Y-119895525D01*
X121806328Y-119894135D01*
X121807999Y-119886452D01*
X121807999Y-119155331D01*
X121807629Y-119148510D01*
X121802105Y-119097648D01*
X121798479Y-119082396D01*
X121753324Y-118961946D01*
X121744786Y-118946351D01*
X121680118Y-118860065D01*
X121655270Y-118793558D01*
X121670323Y-118724176D01*
X121720497Y-118673946D01*
X121780944Y-118658500D01*
X122848134Y-118658500D01*
X122910316Y-118651745D01*
X123046705Y-118600615D01*
X123163261Y-118513261D01*
X123250615Y-118396705D01*
X123301745Y-118260316D01*
X123308500Y-118198134D01*
X123308500Y-116584500D01*
X123328502Y-116516379D01*
X123382158Y-116469886D01*
X123434500Y-116458500D01*
X131247245Y-116458500D01*
X131315366Y-116478502D01*
X131361859Y-116532158D01*
X131368952Y-116551889D01*
X131424133Y-116757826D01*
X131426455Y-116762806D01*
X131426456Y-116762808D01*
X131520418Y-116964310D01*
X131520421Y-116964315D01*
X131522744Y-116969297D01*
X131525898Y-116973801D01*
X131525901Y-116973806D01*
X131651224Y-117152785D01*
X131656578Y-117160432D01*
X131821568Y-117325422D01*
X131826076Y-117328579D01*
X131826079Y-117328581D01*
X132008194Y-117456099D01*
X132012703Y-117459256D01*
X132017685Y-117461579D01*
X132017690Y-117461582D01*
X132219192Y-117555544D01*
X132224174Y-117557867D01*
X132229482Y-117559289D01*
X132229484Y-117559290D01*
X132444241Y-117616834D01*
X132444243Y-117616834D01*
X132449556Y-117618258D01*
X132682000Y-117638594D01*
X132914444Y-117618258D01*
X132919757Y-117616834D01*
X132919759Y-117616834D01*
X133134516Y-117559290D01*
X133134518Y-117559289D01*
X133139826Y-117557867D01*
X133144808Y-117555544D01*
X133346310Y-117461582D01*
X133346315Y-117461579D01*
X133351297Y-117459256D01*
X133355806Y-117456099D01*
X133537921Y-117328581D01*
X133537924Y-117328579D01*
X133542432Y-117325422D01*
X133707422Y-117160432D01*
X133712777Y-117152785D01*
X133836512Y-116976072D01*
X133841256Y-116969297D01*
X133843123Y-116965293D01*
X133894264Y-116916531D01*
X133963977Y-116903095D01*
X134029888Y-116929482D01*
X134060828Y-116965188D01*
X134062744Y-116969297D01*
X134067488Y-116976072D01*
X134191224Y-117152785D01*
X134196578Y-117160432D01*
X134361568Y-117325422D01*
X134366076Y-117328579D01*
X134366079Y-117328581D01*
X134548194Y-117456099D01*
X134552703Y-117459256D01*
X134557685Y-117461579D01*
X134557690Y-117461582D01*
X134759192Y-117555544D01*
X134764174Y-117557867D01*
X134769482Y-117559289D01*
X134769484Y-117559290D01*
X134984241Y-117616834D01*
X134984243Y-117616834D01*
X134989556Y-117618258D01*
X135222000Y-117638594D01*
X135454444Y-117618258D01*
X135459757Y-117616834D01*
X135459759Y-117616834D01*
X135674516Y-117559290D01*
X135674518Y-117559289D01*
X135679826Y-117557867D01*
X135684808Y-117555544D01*
X135886310Y-117461582D01*
X135886315Y-117461579D01*
X135891297Y-117459256D01*
X135895806Y-117456099D01*
X136077921Y-117328581D01*
X136077924Y-117328579D01*
X136082432Y-117325422D01*
X136247422Y-117160432D01*
X136252777Y-117152785D01*
X136376512Y-116976072D01*
X136381256Y-116969297D01*
X136383123Y-116965293D01*
X136434264Y-116916531D01*
X136503977Y-116903095D01*
X136569888Y-116929482D01*
X136600828Y-116965188D01*
X136602744Y-116969297D01*
X136607488Y-116976072D01*
X136731224Y-117152785D01*
X136736578Y-117160432D01*
X136901568Y-117325422D01*
X136906076Y-117328579D01*
X136906079Y-117328581D01*
X137088194Y-117456099D01*
X137092703Y-117459256D01*
X137097685Y-117461579D01*
X137097690Y-117461582D01*
X137299192Y-117555544D01*
X137304174Y-117557867D01*
X137309482Y-117559289D01*
X137309484Y-117559290D01*
X137524241Y-117616834D01*
X137524243Y-117616834D01*
X137529556Y-117618258D01*
X137762000Y-117638594D01*
X137994444Y-117618258D01*
X137999757Y-117616834D01*
X137999759Y-117616834D01*
X138214516Y-117559290D01*
X138214518Y-117559289D01*
X138219826Y-117557867D01*
X138224808Y-117555544D01*
X138426310Y-117461582D01*
X138426315Y-117461579D01*
X138431297Y-117459256D01*
X138435806Y-117456099D01*
X138617921Y-117328581D01*
X138617924Y-117328579D01*
X138622432Y-117325422D01*
X138787422Y-117160432D01*
X138792777Y-117152785D01*
X138916512Y-116976072D01*
X138921256Y-116969297D01*
X138923123Y-116965293D01*
X138974264Y-116916531D01*
X139043977Y-116903095D01*
X139109888Y-116929482D01*
X139140828Y-116965188D01*
X139142744Y-116969297D01*
X139147488Y-116976072D01*
X139271224Y-117152785D01*
X139276578Y-117160432D01*
X139441568Y-117325422D01*
X139446076Y-117328579D01*
X139446079Y-117328581D01*
X139628194Y-117456099D01*
X139632703Y-117459256D01*
X139637685Y-117461579D01*
X139637690Y-117461582D01*
X139839192Y-117555544D01*
X139844174Y-117557867D01*
X139849482Y-117559289D01*
X139849484Y-117559290D01*
X140064241Y-117616834D01*
X140064243Y-117616834D01*
X140069556Y-117618258D01*
X140302000Y-117638594D01*
X140534444Y-117618258D01*
X140539757Y-117616834D01*
X140539759Y-117616834D01*
X140754516Y-117559290D01*
X140754518Y-117559289D01*
X140759826Y-117557867D01*
X140764808Y-117555544D01*
X140966310Y-117461582D01*
X140966315Y-117461579D01*
X140971297Y-117459256D01*
X140975806Y-117456099D01*
X141157921Y-117328581D01*
X141157924Y-117328579D01*
X141162432Y-117325422D01*
X141327422Y-117160432D01*
X141332777Y-117152785D01*
X141456512Y-116976072D01*
X141461256Y-116969297D01*
X141463123Y-116965293D01*
X141514264Y-116916531D01*
X141583977Y-116903095D01*
X141649888Y-116929482D01*
X141680828Y-116965188D01*
X141682744Y-116969297D01*
X141687488Y-116976072D01*
X141811224Y-117152785D01*
X141816578Y-117160432D01*
X141981568Y-117325422D01*
X141986076Y-117328579D01*
X141986079Y-117328581D01*
X142168194Y-117456099D01*
X142172703Y-117459256D01*
X142177685Y-117461579D01*
X142177690Y-117461582D01*
X142379192Y-117555544D01*
X142384174Y-117557867D01*
X142389482Y-117559289D01*
X142389484Y-117559290D01*
X142604241Y-117616834D01*
X142604243Y-117616834D01*
X142609556Y-117618258D01*
X142842000Y-117638594D01*
X143074444Y-117618258D01*
X143079757Y-117616834D01*
X143079759Y-117616834D01*
X143294516Y-117559290D01*
X143294518Y-117559289D01*
X143299826Y-117557867D01*
X143304808Y-117555544D01*
X143506310Y-117461582D01*
X143506315Y-117461579D01*
X143511297Y-117459256D01*
X143515806Y-117456099D01*
X143697921Y-117328581D01*
X143697924Y-117328579D01*
X143702432Y-117325422D01*
X143867422Y-117160432D01*
X143872777Y-117152785D01*
X143996512Y-116976072D01*
X144001256Y-116969297D01*
X144003123Y-116965293D01*
X144054264Y-116916531D01*
X144123977Y-116903095D01*
X144189888Y-116929482D01*
X144220828Y-116965188D01*
X144222744Y-116969297D01*
X144227488Y-116976072D01*
X144351224Y-117152785D01*
X144356578Y-117160432D01*
X144521568Y-117325422D01*
X144526076Y-117328579D01*
X144526079Y-117328581D01*
X144708194Y-117456099D01*
X144712703Y-117459256D01*
X144717685Y-117461579D01*
X144717690Y-117461582D01*
X144919192Y-117555544D01*
X144924174Y-117557867D01*
X144929482Y-117559289D01*
X144929484Y-117559290D01*
X145144241Y-117616834D01*
X145144243Y-117616834D01*
X145149556Y-117618258D01*
X145382000Y-117638594D01*
X145614444Y-117618258D01*
X145619757Y-117616834D01*
X145619759Y-117616834D01*
X145834516Y-117559290D01*
X145834518Y-117559289D01*
X145839826Y-117557867D01*
X145844808Y-117555544D01*
X146046310Y-117461582D01*
X146046315Y-117461579D01*
X146051297Y-117459256D01*
X146055806Y-117456099D01*
X146237921Y-117328581D01*
X146237924Y-117328579D01*
X146242432Y-117325422D01*
X146407422Y-117160432D01*
X146412777Y-117152785D01*
X146536512Y-116976072D01*
X146541256Y-116969297D01*
X146543123Y-116965293D01*
X146594264Y-116916531D01*
X146663977Y-116903095D01*
X146729888Y-116929482D01*
X146760828Y-116965188D01*
X146762744Y-116969297D01*
X146767488Y-116976072D01*
X146891224Y-117152785D01*
X146896578Y-117160432D01*
X147061568Y-117325422D01*
X147066076Y-117328579D01*
X147066079Y-117328581D01*
X147248194Y-117456099D01*
X147252703Y-117459256D01*
X147257685Y-117461579D01*
X147257690Y-117461582D01*
X147459192Y-117555544D01*
X147464174Y-117557867D01*
X147469482Y-117559289D01*
X147469484Y-117559290D01*
X147684241Y-117616834D01*
X147684243Y-117616834D01*
X147689556Y-117618258D01*
X147922000Y-117638594D01*
X148154444Y-117618258D01*
X148159757Y-117616834D01*
X148159759Y-117616834D01*
X148374516Y-117559290D01*
X148374518Y-117559289D01*
X148379826Y-117557867D01*
X148384808Y-117555544D01*
X148586310Y-117461582D01*
X148586315Y-117461579D01*
X148591297Y-117459256D01*
X148595806Y-117456099D01*
X148777921Y-117328581D01*
X148777924Y-117328579D01*
X148782432Y-117325422D01*
X148926108Y-117181746D01*
X148988420Y-117147720D01*
X149059235Y-117152785D01*
X149116071Y-117195332D01*
X149134867Y-117235462D01*
X149135255Y-117235316D01*
X149138027Y-117242709D01*
X149138027Y-117242711D01*
X149179854Y-117354283D01*
X149186385Y-117371705D01*
X149273739Y-117488261D01*
X149390295Y-117575615D01*
X149526684Y-117626745D01*
X149588866Y-117633500D01*
X151335134Y-117633500D01*
X151397316Y-117626745D01*
X151533705Y-117575615D01*
X151650261Y-117488261D01*
X151737615Y-117371705D01*
X151742326Y-117359139D01*
X151768144Y-117290270D01*
X151810786Y-117233506D01*
X151877348Y-117208806D01*
X151886126Y-117208500D01*
X152018583Y-117208500D01*
X152038292Y-117210051D01*
X152052190Y-117212252D01*
X152058777Y-117211907D01*
X152058782Y-117211907D01*
X152120480Y-117208673D01*
X152127074Y-117208500D01*
X152147610Y-117208500D01*
X152150882Y-117208156D01*
X152150884Y-117208156D01*
X152168042Y-117206353D01*
X152174616Y-117205836D01*
X152236308Y-117202603D01*
X152236312Y-117202602D01*
X152242903Y-117202257D01*
X152249284Y-117200547D01*
X152249286Y-117200547D01*
X152256491Y-117198617D01*
X152275925Y-117195015D01*
X152283354Y-117194234D01*
X152283363Y-117194232D01*
X152289928Y-117193542D01*
X152354997Y-117172400D01*
X152361299Y-117170533D01*
X152427370Y-117152829D01*
X152439908Y-117146440D01*
X152458174Y-117138875D01*
X152465272Y-117136569D01*
X152465274Y-117136568D01*
X152471556Y-117134527D01*
X152530785Y-117100331D01*
X152536579Y-117097185D01*
X152597530Y-117066129D01*
X152608467Y-117057273D01*
X152624763Y-117046073D01*
X152631224Y-117042343D01*
X152631228Y-117042340D01*
X152636944Y-117039040D01*
X152641850Y-117034623D01*
X152641855Y-117034619D01*
X152687769Y-116993278D01*
X152692784Y-116988994D01*
X152706177Y-116978148D01*
X152708741Y-116976072D01*
X152723256Y-116961557D01*
X152728041Y-116957016D01*
X152773957Y-116915673D01*
X152778866Y-116911253D01*
X152787140Y-116899865D01*
X152799981Y-116884832D01*
X153614497Y-116070316D01*
X161292411Y-116070316D01*
X161296153Y-116075315D01*
X161313454Y-116083382D01*
X161323750Y-116087129D01*
X161525575Y-116141208D01*
X161536370Y-116143111D01*
X161744525Y-116161323D01*
X161755475Y-116161323D01*
X161963630Y-116143111D01*
X161974425Y-116141208D01*
X162176250Y-116087129D01*
X162186546Y-116083382D01*
X162197225Y-116078402D01*
X162207807Y-116069086D01*
X162206000Y-116063107D01*
X161762812Y-115619919D01*
X161748868Y-115612305D01*
X161747035Y-115612436D01*
X161740420Y-115616687D01*
X161299171Y-116057936D01*
X161292411Y-116070316D01*
X153614497Y-116070316D01*
X154779338Y-114905475D01*
X160488677Y-114905475D01*
X160506889Y-115113630D01*
X160508792Y-115124425D01*
X160562871Y-115326250D01*
X160566618Y-115336546D01*
X160571598Y-115347225D01*
X160580914Y-115357807D01*
X160586893Y-115356000D01*
X161030081Y-114912812D01*
X161036459Y-114901132D01*
X162462305Y-114901132D01*
X162462436Y-114902965D01*
X162466687Y-114909580D01*
X162907936Y-115350829D01*
X162920316Y-115357589D01*
X162925315Y-115353847D01*
X162933382Y-115336546D01*
X162937129Y-115326250D01*
X162991208Y-115124425D01*
X162993111Y-115113630D01*
X163011323Y-114905475D01*
X163011323Y-114894525D01*
X162993111Y-114686370D01*
X162991208Y-114675575D01*
X162937129Y-114473750D01*
X162933382Y-114463454D01*
X162928402Y-114452775D01*
X162919086Y-114442193D01*
X162913107Y-114444000D01*
X162469919Y-114887188D01*
X162462305Y-114901132D01*
X161036459Y-114901132D01*
X161037695Y-114898868D01*
X161037564Y-114897035D01*
X161033313Y-114890420D01*
X160592064Y-114449171D01*
X160579684Y-114442411D01*
X160574685Y-114446153D01*
X160566618Y-114463454D01*
X160562871Y-114473750D01*
X160508792Y-114675575D01*
X160506889Y-114686370D01*
X160488677Y-114894525D01*
X160488677Y-114905475D01*
X154779338Y-114905475D01*
X155953899Y-113730914D01*
X161292193Y-113730914D01*
X161294000Y-113736893D01*
X161737188Y-114180081D01*
X161751132Y-114187695D01*
X161752965Y-114187564D01*
X161759580Y-114183313D01*
X162200829Y-113742064D01*
X162207589Y-113729684D01*
X162203847Y-113724685D01*
X162186546Y-113716618D01*
X162176250Y-113712871D01*
X161974425Y-113658792D01*
X161963630Y-113656889D01*
X161755475Y-113638677D01*
X161744525Y-113638677D01*
X161536370Y-113656889D01*
X161525575Y-113658792D01*
X161323750Y-113712871D01*
X161313454Y-113716618D01*
X161302775Y-113721598D01*
X161292193Y-113730914D01*
X155953899Y-113730914D01*
X158584832Y-111099981D01*
X158599865Y-111087140D01*
X158605913Y-111082746D01*
X158605914Y-111082745D01*
X158611253Y-111078866D01*
X158657016Y-111028041D01*
X158661557Y-111023256D01*
X158676072Y-111008741D01*
X158682567Y-111000720D01*
X158688994Y-110992784D01*
X158693278Y-110987769D01*
X158734619Y-110941855D01*
X158734623Y-110941850D01*
X158739040Y-110936944D01*
X158742340Y-110931228D01*
X158742343Y-110931224D01*
X158746073Y-110924763D01*
X158757273Y-110908466D01*
X158761975Y-110902660D01*
X158761976Y-110902658D01*
X158766129Y-110897530D01*
X158797186Y-110836577D01*
X158800333Y-110830782D01*
X158831223Y-110777279D01*
X158831224Y-110777278D01*
X158834527Y-110771556D01*
X158838875Y-110758173D01*
X158846441Y-110739907D01*
X158847262Y-110738295D01*
X158852829Y-110727370D01*
X158855184Y-110718583D01*
X158870531Y-110661305D01*
X158872400Y-110654997D01*
X158893542Y-110589928D01*
X158894232Y-110583363D01*
X158894234Y-110583354D01*
X158895015Y-110575925D01*
X158898617Y-110556491D01*
X158900547Y-110549286D01*
X158900547Y-110549284D01*
X158902257Y-110542903D01*
X158903227Y-110524409D01*
X158905836Y-110474616D01*
X158906353Y-110468042D01*
X158908156Y-110450884D01*
X158908156Y-110450882D01*
X158908500Y-110447610D01*
X158908500Y-110427074D01*
X158908673Y-110420480D01*
X158911907Y-110358782D01*
X158911907Y-110358777D01*
X158912252Y-110352190D01*
X158910051Y-110338292D01*
X158908500Y-110318583D01*
X158908500Y-109570316D01*
X161292411Y-109570316D01*
X161296153Y-109575315D01*
X161313454Y-109583382D01*
X161323750Y-109587129D01*
X161525575Y-109641208D01*
X161536370Y-109643111D01*
X161744525Y-109661323D01*
X161755475Y-109661323D01*
X161963630Y-109643111D01*
X161974425Y-109641208D01*
X162176250Y-109587129D01*
X162186546Y-109583382D01*
X162197225Y-109578402D01*
X162207807Y-109569086D01*
X162206000Y-109563107D01*
X161762812Y-109119919D01*
X161748868Y-109112305D01*
X161747035Y-109112436D01*
X161740420Y-109116687D01*
X161299171Y-109557936D01*
X161292411Y-109570316D01*
X158908500Y-109570316D01*
X158908500Y-109042275D01*
X158928502Y-108974154D01*
X158958935Y-108941449D01*
X159063261Y-108863261D01*
X159150615Y-108746705D01*
X159201745Y-108610316D01*
X159208500Y-108548134D01*
X159208500Y-108405475D01*
X160488677Y-108405475D01*
X160506889Y-108613630D01*
X160508792Y-108624425D01*
X160562871Y-108826250D01*
X160566618Y-108836546D01*
X160571598Y-108847225D01*
X160580914Y-108857807D01*
X160586893Y-108856000D01*
X161030081Y-108412812D01*
X161036459Y-108401132D01*
X162462305Y-108401132D01*
X162462436Y-108402965D01*
X162466687Y-108409580D01*
X162907936Y-108850829D01*
X162920316Y-108857589D01*
X162925315Y-108853847D01*
X162933382Y-108836546D01*
X162937129Y-108826250D01*
X162991208Y-108624425D01*
X162993111Y-108613630D01*
X163011323Y-108405475D01*
X163011323Y-108394525D01*
X162993111Y-108186370D01*
X162991208Y-108175575D01*
X162937129Y-107973750D01*
X162933382Y-107963454D01*
X162928402Y-107952775D01*
X162919086Y-107942193D01*
X162913107Y-107944000D01*
X162469919Y-108387188D01*
X162462305Y-108401132D01*
X161036459Y-108401132D01*
X161037695Y-108398868D01*
X161037564Y-108397035D01*
X161033313Y-108390420D01*
X160592064Y-107949171D01*
X160579684Y-107942411D01*
X160574685Y-107946153D01*
X160566618Y-107963454D01*
X160562871Y-107973750D01*
X160508792Y-108175575D01*
X160506889Y-108186370D01*
X160488677Y-108394525D01*
X160488677Y-108405475D01*
X159208500Y-108405475D01*
X159208500Y-107451866D01*
X159201745Y-107389684D01*
X159150615Y-107253295D01*
X159133841Y-107230914D01*
X161292193Y-107230914D01*
X161294000Y-107236893D01*
X161737188Y-107680081D01*
X161751132Y-107687695D01*
X161752965Y-107687564D01*
X161759580Y-107683313D01*
X162200829Y-107242064D01*
X162207589Y-107229684D01*
X162203847Y-107224685D01*
X162186546Y-107216618D01*
X162176250Y-107212871D01*
X161974425Y-107158792D01*
X161963630Y-107156889D01*
X161755475Y-107138677D01*
X161744525Y-107138677D01*
X161536370Y-107156889D01*
X161525575Y-107158792D01*
X161323750Y-107212871D01*
X161313454Y-107216618D01*
X161302775Y-107221598D01*
X161292193Y-107230914D01*
X159133841Y-107230914D01*
X159063261Y-107136739D01*
X158946705Y-107049385D01*
X158810316Y-106998255D01*
X158748134Y-106991500D01*
X157251866Y-106991500D01*
X157189684Y-106998255D01*
X157182285Y-107001029D01*
X157182284Y-107001029D01*
X157178725Y-107002363D01*
X157175762Y-107002580D01*
X157174600Y-107002856D01*
X157174555Y-107002668D01*
X157107918Y-107007543D01*
X157045550Y-106973620D01*
X157011423Y-106911363D01*
X157008500Y-106884379D01*
X157008500Y-106501866D01*
X157001745Y-106439684D01*
X156950615Y-106303295D01*
X156863261Y-106186739D01*
X156746705Y-106099385D01*
X156610316Y-106048255D01*
X156548134Y-106041500D01*
X155051866Y-106041500D01*
X154989684Y-106048255D01*
X154982284Y-106051029D01*
X154974600Y-106052856D01*
X154974151Y-106050968D01*
X154913650Y-106055394D01*
X154851138Y-106021325D01*
X153980405Y-105150592D01*
X153946379Y-105088280D01*
X153943500Y-105061497D01*
X153943500Y-104034500D01*
X153963502Y-103966379D01*
X154017158Y-103919886D01*
X154069500Y-103908500D01*
X154685634Y-103908500D01*
X154747816Y-103901745D01*
X154778271Y-103890328D01*
X154849077Y-103885145D01*
X154866724Y-103890326D01*
X154897184Y-103901745D01*
X154959366Y-103908500D01*
X155955634Y-103908500D01*
X156017816Y-103901745D01*
X156048271Y-103890328D01*
X156119077Y-103885145D01*
X156136724Y-103890326D01*
X156167184Y-103901745D01*
X156229366Y-103908500D01*
X157225634Y-103908500D01*
X157287816Y-103901745D01*
X157318271Y-103890328D01*
X157389077Y-103885145D01*
X157406724Y-103890326D01*
X157437184Y-103901745D01*
X157499366Y-103908500D01*
X158495634Y-103908500D01*
X158557816Y-103901745D01*
X158588271Y-103890328D01*
X158659077Y-103885145D01*
X158676724Y-103890326D01*
X158707184Y-103901745D01*
X158769366Y-103908500D01*
X159765634Y-103908500D01*
X159827816Y-103901745D01*
X159858271Y-103890328D01*
X159929077Y-103885145D01*
X159946724Y-103890326D01*
X159977184Y-103901745D01*
X160039366Y-103908500D01*
X161035634Y-103908500D01*
X161097816Y-103901745D01*
X161128271Y-103890328D01*
X161199077Y-103885145D01*
X161216724Y-103890326D01*
X161247184Y-103901745D01*
X161309366Y-103908500D01*
X162305634Y-103908500D01*
X162367816Y-103901745D01*
X162398271Y-103890328D01*
X162469077Y-103885145D01*
X162486724Y-103890326D01*
X162517184Y-103901745D01*
X162579366Y-103908500D01*
X163575634Y-103908500D01*
X163637816Y-103901745D01*
X163774205Y-103850615D01*
X163890761Y-103763261D01*
X163978115Y-103646705D01*
X164029245Y-103510316D01*
X164036000Y-103448134D01*
X164036000Y-101898134D01*
X164854000Y-101898134D01*
X164860755Y-101960316D01*
X164911885Y-102096705D01*
X164999239Y-102213261D01*
X165115795Y-102300615D01*
X165124204Y-102303767D01*
X165132075Y-102308077D01*
X165131164Y-102309741D01*
X165178990Y-102345663D01*
X165203693Y-102412224D01*
X165204000Y-102421009D01*
X165204000Y-102491083D01*
X165202449Y-102510792D01*
X165200248Y-102524690D01*
X165200593Y-102531277D01*
X165200593Y-102531282D01*
X165203827Y-102592980D01*
X165204000Y-102599574D01*
X165204000Y-102620110D01*
X165204344Y-102623382D01*
X165204344Y-102623384D01*
X165206147Y-102640542D01*
X165206664Y-102647116D01*
X165209457Y-102700400D01*
X165210243Y-102715403D01*
X165211953Y-102721784D01*
X165211953Y-102721786D01*
X165213883Y-102728991D01*
X165217485Y-102748425D01*
X165218266Y-102755854D01*
X165218268Y-102755863D01*
X165218958Y-102762428D01*
X165240100Y-102827497D01*
X165241967Y-102833799D01*
X165259671Y-102899870D01*
X165266059Y-102912407D01*
X165273625Y-102930673D01*
X165277973Y-102944056D01*
X165304620Y-102990210D01*
X165321500Y-103053209D01*
X165321500Y-107090378D01*
X165301498Y-107158499D01*
X165258081Y-107198966D01*
X165254295Y-107200385D01*
X165137739Y-107287739D01*
X165050385Y-107404295D01*
X164999255Y-107540684D01*
X164992500Y-107602866D01*
X164992500Y-109197134D01*
X164999255Y-109259316D01*
X165050385Y-109395705D01*
X165137739Y-109512261D01*
X165254295Y-109599615D01*
X165262704Y-109602767D01*
X165270575Y-109607077D01*
X165269519Y-109609005D01*
X165316500Y-109644303D01*
X165341195Y-109710866D01*
X165341500Y-109719635D01*
X165341500Y-113977937D01*
X165321498Y-114046058D01*
X165304595Y-114067032D01*
X165283020Y-114088607D01*
X165156814Y-114268849D01*
X165154493Y-114273827D01*
X165154491Y-114273830D01*
X165066826Y-114461827D01*
X165063823Y-114468267D01*
X165006874Y-114680803D01*
X164987697Y-114900000D01*
X165006874Y-115119197D01*
X165031435Y-115210859D01*
X165049553Y-115278475D01*
X165063823Y-115331733D01*
X165066145Y-115336713D01*
X165066146Y-115336715D01*
X165112291Y-115435671D01*
X165156814Y-115531151D01*
X165283020Y-115711393D01*
X165438607Y-115866980D01*
X165443115Y-115870137D01*
X165443118Y-115870139D01*
X165467848Y-115887455D01*
X165618848Y-115993186D01*
X165623830Y-115995509D01*
X165623835Y-115995512D01*
X165812273Y-116083382D01*
X165818267Y-116086177D01*
X165823575Y-116087599D01*
X165823577Y-116087600D01*
X165869855Y-116100000D01*
X166030803Y-116143126D01*
X166250000Y-116162303D01*
X166469197Y-116143126D01*
X166630145Y-116100000D01*
X166676423Y-116087600D01*
X166676425Y-116087599D01*
X166681733Y-116086177D01*
X166687727Y-116083382D01*
X166876165Y-115995512D01*
X166876170Y-115995509D01*
X166881152Y-115993186D01*
X167032152Y-115887455D01*
X167056882Y-115870139D01*
X167056885Y-115870137D01*
X167061393Y-115866980D01*
X167216980Y-115711393D01*
X167343186Y-115531151D01*
X167387710Y-115435671D01*
X167433854Y-115336715D01*
X167433855Y-115336713D01*
X167436177Y-115331733D01*
X167450448Y-115278475D01*
X167468565Y-115210859D01*
X167493126Y-115119197D01*
X167512303Y-114900000D01*
X167493126Y-114680803D01*
X167436177Y-114468267D01*
X167433174Y-114461827D01*
X167345509Y-114273830D01*
X167345507Y-114273827D01*
X167343186Y-114268849D01*
X167216980Y-114088607D01*
X167195405Y-114067032D01*
X167161379Y-114004720D01*
X167158500Y-113977937D01*
X167158500Y-109719635D01*
X167178502Y-109651514D01*
X167229541Y-109607289D01*
X167229425Y-109607077D01*
X167230404Y-109606541D01*
X167232158Y-109605021D01*
X167236387Y-109603265D01*
X167237295Y-109602768D01*
X167245705Y-109599615D01*
X167362261Y-109512261D01*
X167449615Y-109395705D01*
X167500745Y-109259316D01*
X167507500Y-109197134D01*
X167507500Y-107602866D01*
X167500745Y-107540684D01*
X167449615Y-107404295D01*
X167362261Y-107287739D01*
X167313941Y-107251525D01*
X167252887Y-107205767D01*
X167252884Y-107205765D01*
X167245705Y-107200385D01*
X167220270Y-107190850D01*
X167163505Y-107148208D01*
X167138806Y-107081646D01*
X167138500Y-107072868D01*
X167138500Y-103724500D01*
X167158502Y-103656379D01*
X167212158Y-103609886D01*
X167264500Y-103598500D01*
X170859956Y-103598500D01*
X170926072Y-103617240D01*
X171020090Y-103675194D01*
X171027262Y-103679615D01*
X171107005Y-103706064D01*
X171188611Y-103733132D01*
X171188613Y-103733132D01*
X171195139Y-103735297D01*
X171201975Y-103735997D01*
X171201978Y-103735998D01*
X171245031Y-103740409D01*
X171299600Y-103746000D01*
X172300400Y-103746000D01*
X172303646Y-103745663D01*
X172303650Y-103745663D01*
X172399308Y-103735738D01*
X172399312Y-103735737D01*
X172406166Y-103735026D01*
X172412702Y-103732845D01*
X172412704Y-103732845D01*
X172544806Y-103688772D01*
X172573946Y-103679050D01*
X172724348Y-103585978D01*
X172849305Y-103460803D01*
X172854220Y-103452829D01*
X172938275Y-103316468D01*
X172938276Y-103316466D01*
X172942115Y-103310238D01*
X172976589Y-103206301D01*
X172995632Y-103148889D01*
X172995632Y-103148887D01*
X172997797Y-103142361D01*
X173008500Y-103037900D01*
X173008500Y-102412100D01*
X173008163Y-102408850D01*
X172998238Y-102313192D01*
X172998237Y-102313188D01*
X172997526Y-102306334D01*
X172941550Y-102138554D01*
X172848478Y-101988152D01*
X172761891Y-101901716D01*
X172727812Y-101839434D01*
X172732815Y-101768614D01*
X172761736Y-101723525D01*
X172839018Y-101646108D01*
X172849305Y-101635803D01*
X172867231Y-101606722D01*
X172938275Y-101491468D01*
X172938276Y-101491466D01*
X172942115Y-101485238D01*
X172973040Y-101392001D01*
X172995632Y-101323889D01*
X172995632Y-101323887D01*
X172997797Y-101317361D01*
X172998742Y-101308145D01*
X173003959Y-101257216D01*
X173008500Y-101212900D01*
X173008500Y-101028503D01*
X173028502Y-100960382D01*
X173045405Y-100939408D01*
X173184832Y-100799981D01*
X173199865Y-100787140D01*
X173205913Y-100782746D01*
X173205914Y-100782745D01*
X173211253Y-100778866D01*
X173257016Y-100728041D01*
X173261557Y-100723256D01*
X173276072Y-100708741D01*
X173288994Y-100692784D01*
X173293278Y-100687769D01*
X173334619Y-100641855D01*
X173334623Y-100641850D01*
X173339040Y-100636944D01*
X173342340Y-100631228D01*
X173342343Y-100631224D01*
X173346073Y-100624763D01*
X173357273Y-100608466D01*
X173361975Y-100602660D01*
X173361976Y-100602658D01*
X173366129Y-100597530D01*
X173369346Y-100591218D01*
X173397188Y-100536574D01*
X173400336Y-100530777D01*
X173431224Y-100477277D01*
X173434527Y-100471556D01*
X173438875Y-100458174D01*
X173446438Y-100439915D01*
X173452830Y-100427370D01*
X173470537Y-100361288D01*
X173472409Y-100354969D01*
X173491501Y-100296210D01*
X173491501Y-100296209D01*
X173493542Y-100289928D01*
X173495014Y-100275925D01*
X173498615Y-100256496D01*
X173502257Y-100242903D01*
X173502603Y-100236304D01*
X173505836Y-100174616D01*
X173506353Y-100168042D01*
X173508156Y-100150884D01*
X173508156Y-100150882D01*
X173508500Y-100147610D01*
X173508500Y-100127074D01*
X173508673Y-100120480D01*
X173511907Y-100058782D01*
X173511907Y-100058777D01*
X173512252Y-100052190D01*
X173510051Y-100038292D01*
X173508500Y-100018583D01*
X173508500Y-87681416D01*
X173510051Y-87661704D01*
X173511220Y-87654324D01*
X173512252Y-87647809D01*
X173510344Y-87611393D01*
X173508673Y-87579519D01*
X173508500Y-87572925D01*
X173508500Y-87484513D01*
X173507128Y-87478058D01*
X173507127Y-87478049D01*
X173495761Y-87424579D01*
X173495297Y-87421651D01*
X173494232Y-87416641D01*
X173493542Y-87410072D01*
X173491502Y-87403794D01*
X173490440Y-87398795D01*
X173489672Y-87395932D01*
X173468794Y-87297712D01*
X173441637Y-87236715D01*
X173393803Y-87129278D01*
X173393802Y-87129276D01*
X173391118Y-87123248D01*
X173367346Y-87090528D01*
X173282749Y-86974092D01*
X173278866Y-86968747D01*
X173273955Y-86964325D01*
X173141852Y-86845379D01*
X173141851Y-86845378D01*
X173136944Y-86840960D01*
X173018862Y-86772785D01*
X172977279Y-86748777D01*
X172977278Y-86748776D01*
X172971556Y-86745473D01*
X172789928Y-86686458D01*
X172783365Y-86685768D01*
X172783364Y-86685768D01*
X172761099Y-86683428D01*
X172743026Y-86681529D01*
X172735855Y-86680198D01*
X172735809Y-86680486D01*
X172729280Y-86679452D01*
X172722903Y-86677743D01*
X172716309Y-86677398D01*
X172716306Y-86677397D01*
X172694510Y-86676255D01*
X172687935Y-86675738D01*
X172654201Y-86672193D01*
X172647610Y-86671500D01*
X172607074Y-86671500D01*
X172600480Y-86671327D01*
X172538782Y-86668093D01*
X172538777Y-86668093D01*
X172532190Y-86667748D01*
X172518292Y-86669949D01*
X172498583Y-86671500D01*
X171365856Y-86671500D01*
X171297735Y-86651498D01*
X171272662Y-86630299D01*
X171233148Y-86586873D01*
X171233146Y-86586871D01*
X171229670Y-86583051D01*
X171166600Y-86533241D01*
X171058414Y-86447800D01*
X171058410Y-86447798D01*
X171054359Y-86444598D01*
X171035540Y-86434209D01*
X171002136Y-86415769D01*
X170858789Y-86336638D01*
X170853920Y-86334914D01*
X170853916Y-86334912D01*
X170653087Y-86263795D01*
X170653083Y-86263794D01*
X170648212Y-86262069D01*
X170643119Y-86261162D01*
X170643116Y-86261161D01*
X170433373Y-86223800D01*
X170433367Y-86223799D01*
X170428284Y-86222894D01*
X170354452Y-86221992D01*
X170210081Y-86220228D01*
X170210079Y-86220228D01*
X170204911Y-86220165D01*
X169984091Y-86253955D01*
X169771756Y-86323357D01*
X169573607Y-86426507D01*
X169569474Y-86429610D01*
X169569471Y-86429612D01*
X169545247Y-86447800D01*
X169394965Y-86560635D01*
X169363737Y-86593313D01*
X169249878Y-86712460D01*
X169240629Y-86722138D01*
X169237715Y-86726410D01*
X169237714Y-86726411D01*
X169183780Y-86805475D01*
X169114743Y-86906680D01*
X169112564Y-86911375D01*
X169030288Y-87088624D01*
X169020688Y-87109305D01*
X168960989Y-87324570D01*
X168937251Y-87546695D01*
X168937548Y-87551848D01*
X168937548Y-87551851D01*
X168944730Y-87676405D01*
X168950110Y-87769715D01*
X168951247Y-87774761D01*
X168951248Y-87774767D01*
X168958850Y-87808498D01*
X168999222Y-87987639D01*
X169083266Y-88194616D01*
X169199987Y-88385088D01*
X169346250Y-88553938D01*
X169518126Y-88696632D01*
X169562772Y-88722721D01*
X169591445Y-88739476D01*
X169640169Y-88791114D01*
X169653240Y-88860897D01*
X169626509Y-88926669D01*
X169586055Y-88960027D01*
X169579015Y-88963692D01*
X169573607Y-88966507D01*
X169569473Y-88969611D01*
X169505521Y-89017627D01*
X169439036Y-89042532D01*
X169369641Y-89027539D01*
X169340774Y-89005961D01*
X168449981Y-88115168D01*
X168437140Y-88100135D01*
X168432746Y-88094087D01*
X168432745Y-88094086D01*
X168428866Y-88088747D01*
X168378041Y-88042984D01*
X168373256Y-88038443D01*
X168358741Y-88023928D01*
X168351282Y-88017888D01*
X168342784Y-88011006D01*
X168337769Y-88006722D01*
X168291855Y-87965381D01*
X168291850Y-87965377D01*
X168286944Y-87960960D01*
X168281228Y-87957660D01*
X168281224Y-87957657D01*
X168274763Y-87953927D01*
X168258466Y-87942727D01*
X168252660Y-87938025D01*
X168252658Y-87938024D01*
X168247530Y-87933871D01*
X168186577Y-87902814D01*
X168180782Y-87899667D01*
X168127279Y-87868777D01*
X168127278Y-87868776D01*
X168121556Y-87865473D01*
X168115274Y-87863432D01*
X168115272Y-87863431D01*
X168108174Y-87861125D01*
X168089907Y-87853559D01*
X168077370Y-87847171D01*
X168011299Y-87829467D01*
X168004997Y-87827600D01*
X167939928Y-87806458D01*
X167933363Y-87805768D01*
X167933354Y-87805766D01*
X167925925Y-87804985D01*
X167906491Y-87801383D01*
X167899286Y-87799453D01*
X167899284Y-87799453D01*
X167892903Y-87797743D01*
X167886312Y-87797398D01*
X167886308Y-87797397D01*
X167824616Y-87794164D01*
X167818042Y-87793647D01*
X167800884Y-87791844D01*
X167800882Y-87791844D01*
X167797610Y-87791500D01*
X167777074Y-87791500D01*
X167770480Y-87791327D01*
X167708782Y-87788093D01*
X167708777Y-87788093D01*
X167702190Y-87787748D01*
X167688292Y-87789949D01*
X167668583Y-87791500D01*
X167497000Y-87791500D01*
X167428879Y-87771498D01*
X167382386Y-87717842D01*
X167371000Y-87665500D01*
X167371000Y-86931866D01*
X167364245Y-86869684D01*
X167352828Y-86839229D01*
X167347645Y-86768423D01*
X167352826Y-86750776D01*
X167364245Y-86720316D01*
X167371000Y-86658134D01*
X167371000Y-85661866D01*
X167364245Y-85599684D01*
X167352561Y-85568517D01*
X167347378Y-85497712D01*
X167352561Y-85480057D01*
X167360979Y-85457602D01*
X167364605Y-85442351D01*
X167370131Y-85391486D01*
X167370500Y-85384672D01*
X167370500Y-85358115D01*
X167366025Y-85342876D01*
X167364635Y-85341671D01*
X167356952Y-85340000D01*
X167258745Y-85340000D01*
X167190624Y-85319998D01*
X167183180Y-85314826D01*
X167116392Y-85264771D01*
X167116390Y-85264770D01*
X167109205Y-85259385D01*
X166972816Y-85208255D01*
X166910634Y-85201500D01*
X165314366Y-85201500D01*
X165252184Y-85208255D01*
X165115795Y-85259385D01*
X165108610Y-85264770D01*
X165108608Y-85264771D01*
X165041820Y-85314826D01*
X164975313Y-85339674D01*
X164966255Y-85340000D01*
X164872616Y-85340000D01*
X164857377Y-85344475D01*
X164856172Y-85345865D01*
X164854501Y-85353548D01*
X164854501Y-85384669D01*
X164854871Y-85391490D01*
X164860395Y-85442352D01*
X164864020Y-85457600D01*
X164872439Y-85480057D01*
X164877622Y-85550864D01*
X164872442Y-85568510D01*
X164860755Y-85599684D01*
X164854000Y-85661866D01*
X164854000Y-86658134D01*
X164860755Y-86720316D01*
X164872172Y-86750771D01*
X164877355Y-86821577D01*
X164872174Y-86839224D01*
X164860755Y-86869684D01*
X164854000Y-86931866D01*
X164854000Y-87928134D01*
X164860755Y-87990316D01*
X164872172Y-88020771D01*
X164877355Y-88091577D01*
X164872174Y-88109224D01*
X164860755Y-88139684D01*
X164854000Y-88201866D01*
X164854000Y-89198134D01*
X164860755Y-89260316D01*
X164872172Y-89290771D01*
X164877355Y-89361577D01*
X164872174Y-89379224D01*
X164860755Y-89409684D01*
X164854000Y-89471866D01*
X164854000Y-90468134D01*
X164860755Y-90530316D01*
X164872172Y-90560771D01*
X164877355Y-90631577D01*
X164872174Y-90649224D01*
X164860755Y-90679684D01*
X164854000Y-90741866D01*
X164854000Y-91738134D01*
X164860755Y-91800316D01*
X164872172Y-91830771D01*
X164877355Y-91901577D01*
X164872174Y-91919224D01*
X164860755Y-91949684D01*
X164854000Y-92011866D01*
X164854000Y-93008134D01*
X164860755Y-93070316D01*
X164872172Y-93100771D01*
X164877355Y-93171577D01*
X164872174Y-93189224D01*
X164860755Y-93219684D01*
X164854000Y-93281866D01*
X164854000Y-94278134D01*
X164860755Y-94340316D01*
X164872172Y-94370771D01*
X164877355Y-94441577D01*
X164872174Y-94459224D01*
X164860755Y-94489684D01*
X164854000Y-94551866D01*
X164854000Y-95548134D01*
X164860755Y-95610316D01*
X164872172Y-95640771D01*
X164877355Y-95711577D01*
X164872174Y-95729224D01*
X164860755Y-95759684D01*
X164854000Y-95821866D01*
X164854000Y-96818134D01*
X164860755Y-96880316D01*
X164872172Y-96910771D01*
X164877355Y-96981577D01*
X164872174Y-96999224D01*
X164860755Y-97029684D01*
X164854000Y-97091866D01*
X164854000Y-98088134D01*
X164860755Y-98150316D01*
X164872172Y-98180771D01*
X164877355Y-98251577D01*
X164872174Y-98269224D01*
X164860755Y-98299684D01*
X164854000Y-98361866D01*
X164854000Y-99358134D01*
X164860755Y-99420316D01*
X164872172Y-99450771D01*
X164877355Y-99521577D01*
X164872174Y-99539224D01*
X164860755Y-99569684D01*
X164854000Y-99631866D01*
X164854000Y-100628134D01*
X164860755Y-100690316D01*
X164872172Y-100720771D01*
X164877355Y-100791577D01*
X164872174Y-100809224D01*
X164860755Y-100839684D01*
X164854000Y-100901866D01*
X164854000Y-101898134D01*
X164036000Y-101898134D01*
X164036000Y-101851866D01*
X164029245Y-101789684D01*
X163978115Y-101653295D01*
X163890761Y-101536739D01*
X163774205Y-101449385D01*
X163637816Y-101398255D01*
X163575634Y-101391500D01*
X162579366Y-101391500D01*
X162517184Y-101398255D01*
X162486729Y-101409672D01*
X162415923Y-101414855D01*
X162398276Y-101409674D01*
X162367816Y-101398255D01*
X162305634Y-101391500D01*
X161309366Y-101391500D01*
X161247184Y-101398255D01*
X161216729Y-101409672D01*
X161145923Y-101414855D01*
X161128276Y-101409674D01*
X161097816Y-101398255D01*
X161035634Y-101391500D01*
X160039366Y-101391500D01*
X159977184Y-101398255D01*
X159946729Y-101409672D01*
X159875923Y-101414855D01*
X159858276Y-101409674D01*
X159827816Y-101398255D01*
X159765634Y-101391500D01*
X158769366Y-101391500D01*
X158707184Y-101398255D01*
X158676729Y-101409672D01*
X158605923Y-101414855D01*
X158588276Y-101409674D01*
X158557816Y-101398255D01*
X158495634Y-101391500D01*
X157499366Y-101391500D01*
X157437184Y-101398255D01*
X157406729Y-101409672D01*
X157335923Y-101414855D01*
X157318276Y-101409674D01*
X157287816Y-101398255D01*
X157225634Y-101391500D01*
X156229366Y-101391500D01*
X156167184Y-101398255D01*
X156136729Y-101409672D01*
X156065923Y-101414855D01*
X156048276Y-101409674D01*
X156017816Y-101398255D01*
X155955634Y-101391500D01*
X154959366Y-101391500D01*
X154897184Y-101398255D01*
X154866729Y-101409672D01*
X154795923Y-101414855D01*
X154778276Y-101409674D01*
X154747816Y-101398255D01*
X154685634Y-101391500D01*
X153689366Y-101391500D01*
X153627184Y-101398255D01*
X153596729Y-101409672D01*
X153525923Y-101414855D01*
X153508276Y-101409674D01*
X153477816Y-101398255D01*
X153415634Y-101391500D01*
X152419366Y-101391500D01*
X152357184Y-101398255D01*
X152326017Y-101409939D01*
X152255212Y-101415122D01*
X152237557Y-101409939D01*
X152215102Y-101401521D01*
X152199851Y-101397895D01*
X152148986Y-101392369D01*
X152142172Y-101392000D01*
X152115615Y-101392000D01*
X152100376Y-101396475D01*
X152099171Y-101397865D01*
X152097500Y-101405548D01*
X152097500Y-101503755D01*
X152077498Y-101571876D01*
X152072326Y-101579320D01*
X152022271Y-101646108D01*
X152022270Y-101646110D01*
X152016885Y-101653295D01*
X151965755Y-101789684D01*
X151959000Y-101851866D01*
X151959000Y-103448134D01*
X151959369Y-103451531D01*
X151964902Y-103502460D01*
X151965755Y-103510316D01*
X151968527Y-103517709D01*
X151968527Y-103517711D01*
X152000982Y-103604284D01*
X152009000Y-103648513D01*
X152009000Y-103697605D01*
X152007449Y-103717314D01*
X152005248Y-103731212D01*
X152005593Y-103737799D01*
X152005593Y-103737804D01*
X152008827Y-103799502D01*
X152009000Y-103806096D01*
X152009000Y-103826632D01*
X152009344Y-103829904D01*
X152009344Y-103829906D01*
X152011147Y-103847064D01*
X152011664Y-103853638D01*
X152014279Y-103903525D01*
X152015243Y-103921925D01*
X152016953Y-103928306D01*
X152016953Y-103928308D01*
X152018883Y-103935513D01*
X152022485Y-103954947D01*
X152023266Y-103962376D01*
X152023268Y-103962385D01*
X152023958Y-103968950D01*
X152045100Y-104034019D01*
X152046967Y-104040321D01*
X152064671Y-104106392D01*
X152071059Y-104118929D01*
X152078625Y-104137195D01*
X152082973Y-104150578D01*
X152109620Y-104196732D01*
X152126500Y-104259731D01*
X152126500Y-105408583D01*
X152124949Y-105428292D01*
X152122748Y-105442190D01*
X152123093Y-105448777D01*
X152123093Y-105448782D01*
X152126327Y-105510480D01*
X152126500Y-105517074D01*
X152126500Y-105537610D01*
X152126844Y-105540882D01*
X152126844Y-105540884D01*
X152128647Y-105558042D01*
X152129164Y-105564616D01*
X152131891Y-105616639D01*
X152132743Y-105632903D01*
X152134453Y-105639284D01*
X152134453Y-105639286D01*
X152136383Y-105646491D01*
X152139985Y-105665925D01*
X152140766Y-105673354D01*
X152140768Y-105673363D01*
X152141458Y-105679928D01*
X152162600Y-105744997D01*
X152164467Y-105751299D01*
X152182171Y-105817370D01*
X152188559Y-105829907D01*
X152196125Y-105848174D01*
X152198124Y-105854325D01*
X152200473Y-105861556D01*
X152203776Y-105867278D01*
X152203777Y-105867279D01*
X152234667Y-105920782D01*
X152237814Y-105926577D01*
X152268871Y-105987530D01*
X152273024Y-105992658D01*
X152273025Y-105992660D01*
X152277727Y-105998466D01*
X152288927Y-106014763D01*
X152292657Y-106021224D01*
X152292660Y-106021228D01*
X152295960Y-106026944D01*
X152300377Y-106031850D01*
X152300381Y-106031855D01*
X152341722Y-106077769D01*
X152346006Y-106082784D01*
X152358928Y-106098741D01*
X152373443Y-106113256D01*
X152377984Y-106118041D01*
X152423747Y-106168866D01*
X152429086Y-106172745D01*
X152429087Y-106172746D01*
X152435135Y-106177140D01*
X152450168Y-106189981D01*
X153895019Y-107634832D01*
X153907860Y-107649865D01*
X153916134Y-107661253D01*
X153937045Y-107680081D01*
X153966959Y-107707016D01*
X153971744Y-107711557D01*
X153986259Y-107726072D01*
X153988823Y-107728148D01*
X154002216Y-107738994D01*
X154007231Y-107743278D01*
X154053145Y-107784619D01*
X154053150Y-107784623D01*
X154058056Y-107789040D01*
X154063772Y-107792340D01*
X154063776Y-107792343D01*
X154070237Y-107796073D01*
X154086533Y-107807273D01*
X154097470Y-107816129D01*
X154158421Y-107847185D01*
X154164215Y-107850331D01*
X154223444Y-107884527D01*
X154229726Y-107886568D01*
X154229728Y-107886569D01*
X154236826Y-107888875D01*
X154255092Y-107896440D01*
X154267630Y-107902829D01*
X154274006Y-107904538D01*
X154274010Y-107904539D01*
X154333685Y-107920529D01*
X154340010Y-107922402D01*
X154405072Y-107943542D01*
X154411640Y-107944232D01*
X154411644Y-107944233D01*
X154419061Y-107945012D01*
X154438508Y-107948616D01*
X154452096Y-107952257D01*
X154458695Y-107952603D01*
X154458696Y-107952603D01*
X154520385Y-107955836D01*
X154526960Y-107956353D01*
X154541222Y-107957852D01*
X154547390Y-107958500D01*
X154567925Y-107958500D01*
X154574516Y-107958673D01*
X154583098Y-107959123D01*
X154587664Y-107959362D01*
X154654644Y-107982903D01*
X154698264Y-108038919D01*
X154704675Y-108109626D01*
X154681893Y-108160754D01*
X154655214Y-108196352D01*
X154646676Y-108211946D01*
X154601522Y-108332394D01*
X154597895Y-108347649D01*
X154592369Y-108398514D01*
X154592000Y-108405328D01*
X154592000Y-108431885D01*
X154596475Y-108447124D01*
X154597865Y-108448329D01*
X154605548Y-108450000D01*
X156174000Y-108450000D01*
X156242121Y-108470002D01*
X156288614Y-108523658D01*
X156300000Y-108576000D01*
X156300000Y-109939884D01*
X156304475Y-109955123D01*
X156305865Y-109956328D01*
X156313548Y-109957999D01*
X156544669Y-109957999D01*
X156551490Y-109957629D01*
X156602352Y-109952105D01*
X156617604Y-109948479D01*
X156738054Y-109903324D01*
X156753649Y-109894786D01*
X156855724Y-109818285D01*
X156874635Y-109799374D01*
X156876764Y-109801503D01*
X156921526Y-109768030D01*
X156992344Y-109763000D01*
X157054640Y-109797056D01*
X157088634Y-109859385D01*
X157091500Y-109886107D01*
X157091500Y-109971497D01*
X157071498Y-110039618D01*
X157054595Y-110060592D01*
X151904328Y-115210859D01*
X151842016Y-115244885D01*
X151771201Y-115239820D01*
X151714407Y-115197329D01*
X151655642Y-115118919D01*
X151650261Y-115111739D01*
X151533705Y-115024385D01*
X151397316Y-114973255D01*
X151335134Y-114966500D01*
X149588866Y-114966500D01*
X149528856Y-114973019D01*
X149458973Y-114960491D01*
X149406957Y-114912170D01*
X149389323Y-114843398D01*
X149411669Y-114776010D01*
X149426153Y-114758661D01*
X152084832Y-112099981D01*
X152099865Y-112087140D01*
X152105913Y-112082746D01*
X152105914Y-112082745D01*
X152111253Y-112078866D01*
X152157016Y-112028041D01*
X152161557Y-112023256D01*
X152176072Y-112008741D01*
X152188994Y-111992784D01*
X152193278Y-111987769D01*
X152234619Y-111941855D01*
X152234623Y-111941850D01*
X152239040Y-111936944D01*
X152242340Y-111931228D01*
X152242343Y-111931224D01*
X152246073Y-111924763D01*
X152257273Y-111908466D01*
X152261975Y-111902660D01*
X152261976Y-111902658D01*
X152266129Y-111897530D01*
X152297186Y-111836577D01*
X152300333Y-111830782D01*
X152331223Y-111777279D01*
X152331224Y-111777278D01*
X152334527Y-111771556D01*
X152338875Y-111758173D01*
X152346441Y-111739907D01*
X152349832Y-111733252D01*
X152352829Y-111727370D01*
X152354676Y-111720480D01*
X152370529Y-111661315D01*
X152372402Y-111654991D01*
X152381009Y-111628501D01*
X152393542Y-111589928D01*
X152395012Y-111575939D01*
X152398617Y-111556486D01*
X152399895Y-111551720D01*
X152402257Y-111542904D01*
X152402603Y-111536304D01*
X152405836Y-111474615D01*
X152406353Y-111468040D01*
X152408156Y-111450882D01*
X152408500Y-111447610D01*
X152408500Y-111427075D01*
X152408673Y-111420481D01*
X152411907Y-111358782D01*
X152411907Y-111358777D01*
X152412252Y-111352190D01*
X152410051Y-111338292D01*
X152408500Y-111318583D01*
X152408500Y-109842275D01*
X152428502Y-109774154D01*
X152458935Y-109741449D01*
X152556081Y-109668642D01*
X152563261Y-109663261D01*
X152650615Y-109546705D01*
X152670122Y-109494669D01*
X154592001Y-109494669D01*
X154592371Y-109501490D01*
X154597895Y-109552352D01*
X154601521Y-109567604D01*
X154646676Y-109688054D01*
X154655214Y-109703649D01*
X154731715Y-109805724D01*
X154744276Y-109818285D01*
X154846351Y-109894786D01*
X154861946Y-109903324D01*
X154982394Y-109948478D01*
X154997649Y-109952105D01*
X155048514Y-109957631D01*
X155055328Y-109958000D01*
X155281885Y-109958000D01*
X155297124Y-109953525D01*
X155298329Y-109952135D01*
X155300000Y-109944452D01*
X155300000Y-109468115D01*
X155295525Y-109452876D01*
X155294135Y-109451671D01*
X155286452Y-109450000D01*
X154610116Y-109450000D01*
X154594877Y-109454475D01*
X154593672Y-109455865D01*
X154592001Y-109463548D01*
X154592001Y-109494669D01*
X152670122Y-109494669D01*
X152701745Y-109410316D01*
X152708500Y-109348134D01*
X152708500Y-108251866D01*
X152701745Y-108189684D01*
X152650615Y-108053295D01*
X152563261Y-107936739D01*
X152446705Y-107849385D01*
X152310316Y-107798255D01*
X152248134Y-107791500D01*
X150751866Y-107791500D01*
X150689684Y-107798255D01*
X150682285Y-107801029D01*
X150682284Y-107801029D01*
X150678725Y-107802363D01*
X150675762Y-107802580D01*
X150674600Y-107802856D01*
X150674555Y-107802668D01*
X150607918Y-107807543D01*
X150545550Y-107773620D01*
X150511423Y-107711363D01*
X150508500Y-107684379D01*
X150508500Y-107301866D01*
X150501745Y-107239684D01*
X150450615Y-107103295D01*
X150363261Y-106986739D01*
X150258935Y-106908551D01*
X150216420Y-106851692D01*
X150208500Y-106807725D01*
X150208500Y-105881417D01*
X150210051Y-105861705D01*
X150211220Y-105854325D01*
X150212252Y-105847810D01*
X150210401Y-105812481D01*
X150208673Y-105779520D01*
X150208500Y-105772926D01*
X150208500Y-105752390D01*
X150206714Y-105735395D01*
X150206353Y-105731958D01*
X150205836Y-105725384D01*
X150202603Y-105663696D01*
X150202603Y-105663694D01*
X150202257Y-105657097D01*
X150198615Y-105643504D01*
X150195014Y-105624075D01*
X150194232Y-105616639D01*
X150193542Y-105610072D01*
X150172407Y-105545025D01*
X150170535Y-105538706D01*
X150170242Y-105537610D01*
X150164057Y-105514529D01*
X150154538Y-105479003D01*
X150154537Y-105479000D01*
X150152830Y-105472630D01*
X150146438Y-105460085D01*
X150138874Y-105441823D01*
X150138240Y-105439870D01*
X150134527Y-105428444D01*
X150122750Y-105408046D01*
X150100336Y-105369223D01*
X150097188Y-105363426D01*
X150069126Y-105308351D01*
X150069124Y-105308348D01*
X150066129Y-105302470D01*
X150057273Y-105291533D01*
X150046073Y-105275237D01*
X150042343Y-105268776D01*
X150042340Y-105268772D01*
X150039040Y-105263056D01*
X150034623Y-105258150D01*
X150034619Y-105258145D01*
X149993278Y-105212231D01*
X149988994Y-105207216D01*
X149978148Y-105193823D01*
X149976072Y-105191259D01*
X149961557Y-105176744D01*
X149957016Y-105171959D01*
X149915673Y-105126043D01*
X149911253Y-105121134D01*
X149899865Y-105112860D01*
X149884832Y-105100019D01*
X149557905Y-104773092D01*
X149523879Y-104710780D01*
X149521000Y-104683997D01*
X149521000Y-103444669D01*
X150689501Y-103444669D01*
X150689871Y-103451490D01*
X150695395Y-103502352D01*
X150699021Y-103517604D01*
X150744176Y-103638054D01*
X150752714Y-103653649D01*
X150829215Y-103755724D01*
X150841776Y-103768285D01*
X150943851Y-103844786D01*
X150959446Y-103853324D01*
X151079894Y-103898478D01*
X151095149Y-103902105D01*
X151146014Y-103907631D01*
X151152828Y-103908000D01*
X151179385Y-103908000D01*
X151194624Y-103903525D01*
X151195829Y-103902135D01*
X151197500Y-103894452D01*
X151197500Y-103118115D01*
X151193025Y-103102876D01*
X151191635Y-103101671D01*
X151183952Y-103100000D01*
X150707616Y-103100000D01*
X150692377Y-103104475D01*
X150691172Y-103105865D01*
X150689501Y-103113548D01*
X150689501Y-103444669D01*
X149521000Y-103444669D01*
X149521000Y-102421009D01*
X149541002Y-102352888D01*
X149594658Y-102306395D01*
X149600194Y-102304097D01*
X149600796Y-102303768D01*
X149609205Y-102300615D01*
X149725761Y-102213261D01*
X149749276Y-102181885D01*
X150689500Y-102181885D01*
X150693975Y-102197124D01*
X150695365Y-102198329D01*
X150703048Y-102200000D01*
X151179385Y-102200000D01*
X151194624Y-102195525D01*
X151195829Y-102194135D01*
X151197500Y-102186452D01*
X151197500Y-101410116D01*
X151193025Y-101394877D01*
X151191635Y-101393672D01*
X151183952Y-101392001D01*
X151152831Y-101392001D01*
X151146010Y-101392371D01*
X151095148Y-101397895D01*
X151079896Y-101401521D01*
X150959446Y-101446676D01*
X150943851Y-101455214D01*
X150841776Y-101531715D01*
X150829215Y-101544276D01*
X150752714Y-101646351D01*
X150744176Y-101661946D01*
X150699022Y-101782394D01*
X150695395Y-101797649D01*
X150689869Y-101848514D01*
X150689500Y-101855328D01*
X150689500Y-102181885D01*
X149749276Y-102181885D01*
X149813115Y-102096705D01*
X149864245Y-101960316D01*
X149871000Y-101898134D01*
X149871000Y-100901866D01*
X149864245Y-100839684D01*
X149852828Y-100809229D01*
X149847645Y-100738423D01*
X149852826Y-100720776D01*
X149864245Y-100690316D01*
X149871000Y-100628134D01*
X149871000Y-99631866D01*
X149864245Y-99569684D01*
X149852828Y-99539229D01*
X149847645Y-99468423D01*
X149852826Y-99450776D01*
X149864245Y-99420316D01*
X149871000Y-99358134D01*
X149871000Y-98361866D01*
X149864245Y-98299684D01*
X149852828Y-98269229D01*
X149847645Y-98198423D01*
X149852826Y-98180776D01*
X149864245Y-98150316D01*
X149871000Y-98088134D01*
X149871000Y-97091866D01*
X149864245Y-97029684D01*
X149852828Y-96999229D01*
X149847645Y-96928423D01*
X149852826Y-96910776D01*
X149864245Y-96880316D01*
X149871000Y-96818134D01*
X149871000Y-95821866D01*
X149864245Y-95759684D01*
X149852828Y-95729229D01*
X149847645Y-95658423D01*
X149852826Y-95640776D01*
X149864245Y-95610316D01*
X149871000Y-95548134D01*
X149871000Y-94551866D01*
X149865873Y-94504669D01*
X153504501Y-94504669D01*
X153504871Y-94511490D01*
X153510395Y-94562352D01*
X153514021Y-94577604D01*
X153559176Y-94698054D01*
X153567714Y-94713649D01*
X153644215Y-94815724D01*
X153656776Y-94828285D01*
X153758851Y-94904786D01*
X153774446Y-94913324D01*
X153894894Y-94958478D01*
X153910149Y-94962105D01*
X153961014Y-94967631D01*
X153967828Y-94968000D01*
X153994385Y-94968000D01*
X154009624Y-94963525D01*
X154010829Y-94962135D01*
X154012500Y-94954452D01*
X154012500Y-94949884D01*
X154912500Y-94949884D01*
X154916975Y-94965123D01*
X154918365Y-94966328D01*
X154926048Y-94967999D01*
X154957169Y-94967999D01*
X154963990Y-94967629D01*
X155014852Y-94962105D01*
X155030104Y-94958479D01*
X155118270Y-94925427D01*
X155189078Y-94920244D01*
X155206730Y-94925427D01*
X155294894Y-94958478D01*
X155310149Y-94962105D01*
X155361014Y-94967631D01*
X155367828Y-94968000D01*
X155394385Y-94968000D01*
X155409624Y-94963525D01*
X155410829Y-94962135D01*
X155412500Y-94954452D01*
X155412500Y-94949884D01*
X156312500Y-94949884D01*
X156316975Y-94965123D01*
X156318365Y-94966328D01*
X156326048Y-94967999D01*
X156357169Y-94967999D01*
X156363990Y-94967629D01*
X156414852Y-94962105D01*
X156430104Y-94958479D01*
X156518270Y-94925427D01*
X156589078Y-94920244D01*
X156606730Y-94925427D01*
X156694894Y-94958478D01*
X156710149Y-94962105D01*
X156761014Y-94967631D01*
X156767828Y-94968000D01*
X156794385Y-94968000D01*
X156809624Y-94963525D01*
X156810829Y-94962135D01*
X156812500Y-94954452D01*
X156812500Y-94949884D01*
X157712500Y-94949884D01*
X157716975Y-94965123D01*
X157718365Y-94966328D01*
X157726048Y-94967999D01*
X157757169Y-94967999D01*
X157763990Y-94967629D01*
X157814852Y-94962105D01*
X157830104Y-94958479D01*
X157950554Y-94913324D01*
X157966149Y-94904786D01*
X158068224Y-94828285D01*
X158080785Y-94815724D01*
X158157286Y-94713649D01*
X158165824Y-94698054D01*
X158210978Y-94577606D01*
X158214605Y-94562351D01*
X158220131Y-94511486D01*
X158220500Y-94504672D01*
X158220500Y-94478115D01*
X158216025Y-94462876D01*
X158214635Y-94461671D01*
X158206952Y-94460000D01*
X157730615Y-94460000D01*
X157715376Y-94464475D01*
X157714171Y-94465865D01*
X157712500Y-94473548D01*
X157712500Y-94949884D01*
X156812500Y-94949884D01*
X156812500Y-94478115D01*
X156808025Y-94462876D01*
X156806635Y-94461671D01*
X156798952Y-94460000D01*
X156330615Y-94460000D01*
X156315376Y-94464475D01*
X156314171Y-94465865D01*
X156312500Y-94473548D01*
X156312500Y-94949884D01*
X155412500Y-94949884D01*
X155412500Y-94478115D01*
X155408025Y-94462876D01*
X155406635Y-94461671D01*
X155398952Y-94460000D01*
X154930615Y-94460000D01*
X154915376Y-94464475D01*
X154914171Y-94465865D01*
X154912500Y-94473548D01*
X154912500Y-94949884D01*
X154012500Y-94949884D01*
X154012500Y-94478115D01*
X154008025Y-94462876D01*
X154006635Y-94461671D01*
X153998952Y-94460000D01*
X153522616Y-94460000D01*
X153507377Y-94464475D01*
X153506172Y-94465865D01*
X153504501Y-94473548D01*
X153504501Y-94504669D01*
X149865873Y-94504669D01*
X149864245Y-94489684D01*
X149852828Y-94459229D01*
X149847645Y-94388423D01*
X149852826Y-94370776D01*
X149864245Y-94340316D01*
X149871000Y-94278134D01*
X149871000Y-93541885D01*
X153504500Y-93541885D01*
X153508975Y-93557124D01*
X153510365Y-93558329D01*
X153518048Y-93560000D01*
X153994385Y-93560000D01*
X154009624Y-93555525D01*
X154010829Y-93554135D01*
X154012500Y-93546452D01*
X154012500Y-93541885D01*
X154912500Y-93541885D01*
X154916975Y-93557124D01*
X154918365Y-93558329D01*
X154926048Y-93560000D01*
X155394385Y-93560000D01*
X155409624Y-93555525D01*
X155410829Y-93554135D01*
X155412500Y-93546452D01*
X155412500Y-93541885D01*
X156312500Y-93541885D01*
X156316975Y-93557124D01*
X156318365Y-93558329D01*
X156326048Y-93560000D01*
X156794385Y-93560000D01*
X156809624Y-93555525D01*
X156810829Y-93554135D01*
X156812500Y-93546452D01*
X156812500Y-93541885D01*
X157712500Y-93541885D01*
X157716975Y-93557124D01*
X157718365Y-93558329D01*
X157726048Y-93560000D01*
X158202384Y-93560000D01*
X158217623Y-93555525D01*
X158218828Y-93554135D01*
X158220499Y-93546452D01*
X158220499Y-93515331D01*
X158220129Y-93508510D01*
X158214605Y-93457648D01*
X158210979Y-93442396D01*
X158177927Y-93354230D01*
X158172744Y-93283422D01*
X158177927Y-93265770D01*
X158210978Y-93177606D01*
X158214605Y-93162351D01*
X158220131Y-93111486D01*
X158220500Y-93104672D01*
X158220500Y-93078115D01*
X158216025Y-93062876D01*
X158214635Y-93061671D01*
X158206952Y-93060000D01*
X157730615Y-93060000D01*
X157715376Y-93064475D01*
X157714171Y-93065865D01*
X157712500Y-93073548D01*
X157712500Y-93541885D01*
X156812500Y-93541885D01*
X156812500Y-93078115D01*
X156808025Y-93062876D01*
X156806635Y-93061671D01*
X156798952Y-93060000D01*
X156330615Y-93060000D01*
X156315376Y-93064475D01*
X156314171Y-93065865D01*
X156312500Y-93073548D01*
X156312500Y-93541885D01*
X155412500Y-93541885D01*
X155412500Y-93078115D01*
X155408025Y-93062876D01*
X155406635Y-93061671D01*
X155398952Y-93060000D01*
X154930615Y-93060000D01*
X154915376Y-93064475D01*
X154914171Y-93065865D01*
X154912500Y-93073548D01*
X154912500Y-93541885D01*
X154012500Y-93541885D01*
X154012500Y-93078115D01*
X154008025Y-93062876D01*
X154006635Y-93061671D01*
X153998952Y-93060000D01*
X153522616Y-93060000D01*
X153507377Y-93064475D01*
X153506172Y-93065865D01*
X153504501Y-93073548D01*
X153504501Y-93104669D01*
X153504871Y-93111490D01*
X153510395Y-93162352D01*
X153514021Y-93177604D01*
X153547073Y-93265770D01*
X153552256Y-93336578D01*
X153547073Y-93354230D01*
X153514022Y-93442394D01*
X153510395Y-93457649D01*
X153504869Y-93508514D01*
X153504500Y-93515328D01*
X153504500Y-93541885D01*
X149871000Y-93541885D01*
X149871000Y-93281866D01*
X149864245Y-93219684D01*
X149852828Y-93189229D01*
X149847645Y-93118423D01*
X149852826Y-93100776D01*
X149864245Y-93070316D01*
X149871000Y-93008134D01*
X149871000Y-92141885D01*
X153504500Y-92141885D01*
X153508975Y-92157124D01*
X153510365Y-92158329D01*
X153518048Y-92160000D01*
X153994385Y-92160000D01*
X154009624Y-92155525D01*
X154010829Y-92154135D01*
X154012500Y-92146452D01*
X154012500Y-92141885D01*
X154912500Y-92141885D01*
X154916975Y-92157124D01*
X154918365Y-92158329D01*
X154926048Y-92160000D01*
X155394385Y-92160000D01*
X155409624Y-92155525D01*
X155410829Y-92154135D01*
X155412500Y-92146452D01*
X155412500Y-92141885D01*
X156312500Y-92141885D01*
X156316975Y-92157124D01*
X156318365Y-92158329D01*
X156326048Y-92160000D01*
X156794385Y-92160000D01*
X156809624Y-92155525D01*
X156810829Y-92154135D01*
X156812500Y-92146452D01*
X156812500Y-92141885D01*
X157712500Y-92141885D01*
X157716975Y-92157124D01*
X157718365Y-92158329D01*
X157726048Y-92160000D01*
X158202384Y-92160000D01*
X158217623Y-92155525D01*
X158218828Y-92154135D01*
X158220499Y-92146452D01*
X158220499Y-92115331D01*
X158220129Y-92108510D01*
X158214605Y-92057648D01*
X158210979Y-92042396D01*
X158177927Y-91954230D01*
X158172744Y-91883422D01*
X158177927Y-91865770D01*
X158210978Y-91777606D01*
X158214605Y-91762351D01*
X158220131Y-91711486D01*
X158220500Y-91704672D01*
X158220500Y-91678115D01*
X158216025Y-91662876D01*
X158214635Y-91661671D01*
X158206952Y-91660000D01*
X157730615Y-91660000D01*
X157715376Y-91664475D01*
X157714171Y-91665865D01*
X157712500Y-91673548D01*
X157712500Y-92141885D01*
X156812500Y-92141885D01*
X156812500Y-91678115D01*
X156808025Y-91662876D01*
X156806635Y-91661671D01*
X156798952Y-91660000D01*
X156330615Y-91660000D01*
X156315376Y-91664475D01*
X156314171Y-91665865D01*
X156312500Y-91673548D01*
X156312500Y-92141885D01*
X155412500Y-92141885D01*
X155412500Y-91678115D01*
X155408025Y-91662876D01*
X155406635Y-91661671D01*
X155398952Y-91660000D01*
X154930615Y-91660000D01*
X154915376Y-91664475D01*
X154914171Y-91665865D01*
X154912500Y-91673548D01*
X154912500Y-92141885D01*
X154012500Y-92141885D01*
X154012500Y-91678115D01*
X154008025Y-91662876D01*
X154006635Y-91661671D01*
X153998952Y-91660000D01*
X153522616Y-91660000D01*
X153507377Y-91664475D01*
X153506172Y-91665865D01*
X153504501Y-91673548D01*
X153504501Y-91704669D01*
X153504871Y-91711490D01*
X153510395Y-91762352D01*
X153514021Y-91777604D01*
X153547073Y-91865770D01*
X153552256Y-91936578D01*
X153547073Y-91954230D01*
X153514022Y-92042394D01*
X153510395Y-92057649D01*
X153504869Y-92108514D01*
X153504500Y-92115328D01*
X153504500Y-92141885D01*
X149871000Y-92141885D01*
X149871000Y-92011866D01*
X149864245Y-91949684D01*
X149852828Y-91919229D01*
X149847645Y-91848423D01*
X149852826Y-91830776D01*
X149864245Y-91800316D01*
X149871000Y-91738134D01*
X149871000Y-90741885D01*
X153504500Y-90741885D01*
X153508975Y-90757124D01*
X153510365Y-90758329D01*
X153518048Y-90760000D01*
X153994385Y-90760000D01*
X154009624Y-90755525D01*
X154010829Y-90754135D01*
X154012500Y-90746452D01*
X154012500Y-90741885D01*
X154912500Y-90741885D01*
X154916975Y-90757124D01*
X154918365Y-90758329D01*
X154926048Y-90760000D01*
X155394385Y-90760000D01*
X155409624Y-90755525D01*
X155410829Y-90754135D01*
X155412500Y-90746452D01*
X155412500Y-90741885D01*
X156312500Y-90741885D01*
X156316975Y-90757124D01*
X156318365Y-90758329D01*
X156326048Y-90760000D01*
X156794385Y-90760000D01*
X156809624Y-90755525D01*
X156810829Y-90754135D01*
X156812500Y-90746452D01*
X156812500Y-90741885D01*
X157712500Y-90741885D01*
X157716975Y-90757124D01*
X157718365Y-90758329D01*
X157726048Y-90760000D01*
X158202384Y-90760000D01*
X158217623Y-90755525D01*
X158218828Y-90754135D01*
X158220499Y-90746452D01*
X158220499Y-90715331D01*
X158220129Y-90708510D01*
X158214605Y-90657648D01*
X158210979Y-90642396D01*
X158165824Y-90521946D01*
X158157286Y-90506351D01*
X158080785Y-90404276D01*
X158068224Y-90391715D01*
X157966149Y-90315214D01*
X157950554Y-90306676D01*
X157830106Y-90261522D01*
X157814851Y-90257895D01*
X157763986Y-90252369D01*
X157757172Y-90252000D01*
X157730615Y-90252000D01*
X157715376Y-90256475D01*
X157714171Y-90257865D01*
X157712500Y-90265548D01*
X157712500Y-90741885D01*
X156812500Y-90741885D01*
X156812500Y-90270116D01*
X156808025Y-90254877D01*
X156806635Y-90253672D01*
X156798952Y-90252001D01*
X156767831Y-90252001D01*
X156761010Y-90252371D01*
X156710148Y-90257895D01*
X156694896Y-90261521D01*
X156606730Y-90294573D01*
X156535922Y-90299756D01*
X156518270Y-90294573D01*
X156430106Y-90261522D01*
X156414851Y-90257895D01*
X156363986Y-90252369D01*
X156357172Y-90252000D01*
X156330615Y-90252000D01*
X156315376Y-90256475D01*
X156314171Y-90257865D01*
X156312500Y-90265548D01*
X156312500Y-90741885D01*
X155412500Y-90741885D01*
X155412500Y-90270116D01*
X155408025Y-90254877D01*
X155406635Y-90253672D01*
X155398952Y-90252001D01*
X155367831Y-90252001D01*
X155361010Y-90252371D01*
X155310148Y-90257895D01*
X155294896Y-90261521D01*
X155206730Y-90294573D01*
X155135922Y-90299756D01*
X155118270Y-90294573D01*
X155030106Y-90261522D01*
X155014851Y-90257895D01*
X154963986Y-90252369D01*
X154957172Y-90252000D01*
X154930615Y-90252000D01*
X154915376Y-90256475D01*
X154914171Y-90257865D01*
X154912500Y-90265548D01*
X154912500Y-90741885D01*
X154012500Y-90741885D01*
X154012500Y-90270116D01*
X154008025Y-90254877D01*
X154006635Y-90253672D01*
X153998952Y-90252001D01*
X153967831Y-90252001D01*
X153961010Y-90252371D01*
X153910148Y-90257895D01*
X153894896Y-90261521D01*
X153774446Y-90306676D01*
X153758851Y-90315214D01*
X153656776Y-90391715D01*
X153644215Y-90404276D01*
X153567714Y-90506351D01*
X153559176Y-90521946D01*
X153514022Y-90642394D01*
X153510395Y-90657649D01*
X153504869Y-90708514D01*
X153504500Y-90715328D01*
X153504500Y-90741885D01*
X149871000Y-90741885D01*
X149871000Y-90741866D01*
X149864245Y-90679684D01*
X149852828Y-90649229D01*
X149847645Y-90578423D01*
X149852826Y-90560776D01*
X149864245Y-90530316D01*
X149871000Y-90468134D01*
X149871000Y-89471866D01*
X149864245Y-89409684D01*
X149852828Y-89379229D01*
X149847645Y-89308423D01*
X149852826Y-89290776D01*
X149864245Y-89260316D01*
X149871000Y-89198134D01*
X149871000Y-88201866D01*
X149864245Y-88139684D01*
X149852828Y-88109229D01*
X149847645Y-88038423D01*
X149852826Y-88020776D01*
X149864245Y-87990316D01*
X149871000Y-87928134D01*
X149871000Y-87194500D01*
X149891002Y-87126379D01*
X149944658Y-87079886D01*
X149997000Y-87068500D01*
X150565466Y-87068500D01*
X150623106Y-87083515D01*
X150623266Y-87083150D01*
X150625573Y-87084158D01*
X150626940Y-87084514D01*
X150634294Y-87088624D01*
X150822392Y-87149740D01*
X151018777Y-87173158D01*
X151024912Y-87172686D01*
X151024914Y-87172686D01*
X151209830Y-87158457D01*
X151209834Y-87158456D01*
X151215972Y-87157984D01*
X151406463Y-87104798D01*
X151411967Y-87102018D01*
X151411969Y-87102017D01*
X151577495Y-87018404D01*
X151577497Y-87018403D01*
X151582996Y-87015625D01*
X151738847Y-86893861D01*
X151847122Y-86768423D01*
X151864049Y-86748813D01*
X151864050Y-86748811D01*
X151868078Y-86744145D01*
X151965769Y-86572179D01*
X152028197Y-86384513D01*
X152052985Y-86188295D01*
X152053188Y-86173753D01*
X152053331Y-86163523D01*
X152053331Y-86163520D01*
X152053380Y-86160000D01*
X152034080Y-85963167D01*
X152030345Y-85950794D01*
X151988652Y-85812703D01*
X151976916Y-85773831D01*
X151884066Y-85599204D01*
X151776016Y-85466722D01*
X151762960Y-85450713D01*
X151762957Y-85450710D01*
X151759065Y-85445938D01*
X151728872Y-85420960D01*
X151611425Y-85323799D01*
X151611421Y-85323797D01*
X151606675Y-85319870D01*
X151432701Y-85225802D01*
X151243768Y-85167318D01*
X151237643Y-85166674D01*
X151237642Y-85166674D01*
X151053204Y-85147289D01*
X151053202Y-85147289D01*
X151047075Y-85146645D01*
X150964576Y-85154153D01*
X150856251Y-85164011D01*
X150856248Y-85164012D01*
X150850112Y-85164570D01*
X150844206Y-85166308D01*
X150844202Y-85166309D01*
X150692262Y-85211027D01*
X150660381Y-85220410D01*
X150644463Y-85228732D01*
X150628340Y-85237161D01*
X150569964Y-85251500D01*
X149611013Y-85251500D01*
X149566784Y-85243482D01*
X149480211Y-85211027D01*
X149480209Y-85211027D01*
X149472816Y-85208255D01*
X149464968Y-85207402D01*
X149464966Y-85207402D01*
X149414031Y-85201869D01*
X149410634Y-85201500D01*
X147814366Y-85201500D01*
X147810969Y-85201869D01*
X147760034Y-85207402D01*
X147760032Y-85207402D01*
X147752184Y-85208255D01*
X147744791Y-85211027D01*
X147744789Y-85211027D01*
X147658216Y-85243482D01*
X147613987Y-85251500D01*
X146721417Y-85251500D01*
X146701707Y-85249949D01*
X146694327Y-85248780D01*
X146694326Y-85248780D01*
X146687810Y-85247748D01*
X146681223Y-85248093D01*
X146681218Y-85248093D01*
X146619520Y-85251327D01*
X146612926Y-85251500D01*
X146592390Y-85251500D01*
X146589118Y-85251844D01*
X146589116Y-85251844D01*
X146571958Y-85253647D01*
X146565384Y-85254164D01*
X146503696Y-85257397D01*
X146503694Y-85257397D01*
X146497097Y-85257743D01*
X146483504Y-85261385D01*
X146464075Y-85264986D01*
X146450072Y-85266458D01*
X146385025Y-85287593D01*
X146378712Y-85289463D01*
X146358074Y-85294993D01*
X146319003Y-85305462D01*
X146319000Y-85305463D01*
X146312630Y-85307170D01*
X146300085Y-85313562D01*
X146281826Y-85321125D01*
X146268444Y-85325473D01*
X146262723Y-85328776D01*
X146209223Y-85359664D01*
X146203426Y-85362812D01*
X146148351Y-85390874D01*
X146148348Y-85390876D01*
X146142470Y-85393871D01*
X146137342Y-85398024D01*
X146137340Y-85398025D01*
X146131534Y-85402727D01*
X146115237Y-85413927D01*
X146108776Y-85417657D01*
X146108772Y-85417660D01*
X146103056Y-85420960D01*
X146098150Y-85425377D01*
X146098145Y-85425381D01*
X146052231Y-85466722D01*
X146047216Y-85471006D01*
X146038718Y-85477888D01*
X146031259Y-85483928D01*
X146016744Y-85498443D01*
X146011959Y-85502984D01*
X145961134Y-85548747D01*
X145957255Y-85554086D01*
X145957254Y-85554087D01*
X145952860Y-85560135D01*
X145940019Y-85575168D01*
X145935592Y-85579595D01*
X145873280Y-85613621D01*
X145846497Y-85616500D01*
X145499600Y-85616500D01*
X145496354Y-85616837D01*
X145496350Y-85616837D01*
X145400692Y-85626762D01*
X145400688Y-85626763D01*
X145393834Y-85627474D01*
X145387298Y-85629655D01*
X145387296Y-85629655D01*
X145318876Y-85652482D01*
X145226054Y-85683450D01*
X145075652Y-85776522D01*
X144950695Y-85901697D01*
X144946855Y-85907927D01*
X144946854Y-85907928D01*
X144870611Y-86031616D01*
X144817838Y-86079110D01*
X144763351Y-86091500D01*
X144709685Y-86091500D01*
X144641564Y-86071498D01*
X144595071Y-86017842D01*
X144584967Y-85947568D01*
X144614461Y-85882988D01*
X144620512Y-85876482D01*
X144668739Y-85828171D01*
X144677751Y-85816760D01*
X144762816Y-85678757D01*
X144768963Y-85665576D01*
X144785011Y-85617194D01*
X144785500Y-85603101D01*
X144779289Y-85600000D01*
X142409308Y-85600000D01*
X142409308Y-85599243D01*
X142393814Y-85600774D01*
X142385117Y-85600000D01*
X140027424Y-85600000D01*
X140013123Y-85604199D01*
X139942126Y-85604198D01*
X139931440Y-85600000D01*
X137577422Y-85600000D01*
X137531640Y-85613443D01*
X137460644Y-85613443D01*
X137439858Y-85605277D01*
X137429289Y-85600000D01*
X135077422Y-85600000D01*
X135063891Y-85603973D01*
X135062910Y-85610799D01*
X135081588Y-85666784D01*
X135087761Y-85679962D01*
X135173063Y-85817807D01*
X135182099Y-85829208D01*
X135296828Y-85943738D01*
X135305762Y-85950794D01*
X135346823Y-86008712D01*
X135350053Y-86079635D01*
X135314426Y-86141046D01*
X135306593Y-86147846D01*
X135300652Y-86151522D01*
X135175695Y-86276697D01*
X135171855Y-86282927D01*
X135171854Y-86282928D01*
X135138747Y-86336638D01*
X135082885Y-86427262D01*
X135080581Y-86434209D01*
X135029945Y-86586873D01*
X135027203Y-86595139D01*
X135026503Y-86601975D01*
X135026502Y-86601978D01*
X135022091Y-86645031D01*
X135016500Y-86699600D01*
X135016500Y-87196497D01*
X134996498Y-87264618D01*
X134979595Y-87285592D01*
X134410592Y-87854595D01*
X134348280Y-87888621D01*
X134321497Y-87891500D01*
X134041063Y-87891500D01*
X133972942Y-87871498D01*
X133926449Y-87817842D01*
X133916345Y-87747568D01*
X133945839Y-87682988D01*
X133951968Y-87676405D01*
X134016980Y-87611393D01*
X134143186Y-87431151D01*
X134153016Y-87410072D01*
X134233854Y-87236715D01*
X134233855Y-87236713D01*
X134236177Y-87231733D01*
X134245619Y-87196497D01*
X134263630Y-87129278D01*
X134293126Y-87019197D01*
X134312303Y-86800000D01*
X134293126Y-86580803D01*
X134236177Y-86368267D01*
X134233854Y-86363285D01*
X134145509Y-86173830D01*
X134145507Y-86173827D01*
X134143186Y-86168849D01*
X134016980Y-85988607D01*
X133861393Y-85833020D01*
X133856885Y-85829863D01*
X133856882Y-85829861D01*
X133685661Y-85709971D01*
X133685658Y-85709969D01*
X133681152Y-85706814D01*
X133676170Y-85704491D01*
X133676165Y-85704488D01*
X133486715Y-85616146D01*
X133486713Y-85616145D01*
X133481733Y-85613823D01*
X133476425Y-85612401D01*
X133476423Y-85612400D01*
X133401367Y-85592289D01*
X133269197Y-85556874D01*
X133050000Y-85537697D01*
X132830803Y-85556874D01*
X132698633Y-85592289D01*
X132623577Y-85612400D01*
X132623575Y-85612401D01*
X132618267Y-85613823D01*
X132613287Y-85616145D01*
X132613285Y-85616146D01*
X132423830Y-85704491D01*
X132423827Y-85704493D01*
X132418849Y-85706814D01*
X132238607Y-85833020D01*
X132217032Y-85854595D01*
X132154720Y-85888621D01*
X132127937Y-85891500D01*
X127869635Y-85891500D01*
X127801514Y-85871498D01*
X127757289Y-85820459D01*
X127757077Y-85820575D01*
X127756541Y-85819596D01*
X127755021Y-85817842D01*
X127753265Y-85813613D01*
X127752767Y-85812703D01*
X127749615Y-85804295D01*
X127662261Y-85687739D01*
X127545705Y-85600385D01*
X127409316Y-85549255D01*
X127347134Y-85542500D01*
X125752866Y-85542500D01*
X125690684Y-85549255D01*
X125554295Y-85600385D01*
X125437739Y-85687739D01*
X125350385Y-85804295D01*
X125299255Y-85940684D01*
X125292500Y-86002866D01*
X125292500Y-87597134D01*
X125299255Y-87659316D01*
X125322481Y-87721270D01*
X125327664Y-87792077D01*
X125293744Y-87854446D01*
X125231489Y-87888575D01*
X125204499Y-87891500D01*
X124978503Y-87891500D01*
X124910382Y-87871498D01*
X124889408Y-87854595D01*
X122315404Y-85280591D01*
X122281378Y-85218279D01*
X122278499Y-85191496D01*
X122278499Y-84752416D01*
X122275647Y-84716165D01*
X122273850Y-84709979D01*
X122256324Y-84649652D01*
X122256527Y-84578656D01*
X122295082Y-84519040D01*
X122359746Y-84489732D01*
X122377321Y-84488500D01*
X134937814Y-84488500D01*
X135005935Y-84508502D01*
X135052428Y-84562158D01*
X135057327Y-84586720D01*
X135062907Y-84596104D01*
X135070711Y-84600000D01*
X137422578Y-84600000D01*
X137468360Y-84586557D01*
X137539356Y-84586557D01*
X137560142Y-84594723D01*
X137570711Y-84600000D01*
X139922576Y-84600000D01*
X139936877Y-84595801D01*
X140007874Y-84595802D01*
X140018560Y-84600000D01*
X142390692Y-84600000D01*
X142390692Y-84600757D01*
X142406186Y-84599226D01*
X142414883Y-84600000D01*
X144772578Y-84600000D01*
X144786304Y-84595970D01*
X144815524Y-84531987D01*
X144875250Y-84493604D01*
X144910748Y-84488500D01*
X175895500Y-84488500D01*
X175963621Y-84508502D01*
X176010114Y-84562158D01*
X176021500Y-84614500D01*
X176021500Y-121525500D01*
X176001498Y-121593621D01*
X175947842Y-121640114D01*
X175895500Y-121651500D01*
X121934000Y-121651500D01*
X121865879Y-121631498D01*
X121819386Y-121577842D01*
X121808000Y-121525500D01*
X121808000Y-120918115D01*
X121803525Y-120902876D01*
X121802135Y-120901671D01*
X121794452Y-120900000D01*
X115610116Y-120900000D01*
X115594877Y-120904475D01*
X115593672Y-120905865D01*
X115592001Y-120913548D01*
X115592001Y-121525500D01*
X115571999Y-121593621D01*
X115518343Y-121640114D01*
X115466001Y-121651500D01*
X104774500Y-121651500D01*
X104706379Y-121631498D01*
X104659886Y-121577842D01*
X104648500Y-121525500D01*
X104648500Y-119881885D01*
X115592000Y-119881885D01*
X115596475Y-119897124D01*
X115597865Y-119898329D01*
X115605548Y-119900000D01*
X118181885Y-119900000D01*
X118197124Y-119895525D01*
X118198329Y-119894135D01*
X118200000Y-119886452D01*
X118200000Y-118710116D01*
X118195525Y-118694877D01*
X118194135Y-118693672D01*
X118186452Y-118692001D01*
X116968041Y-118692001D01*
X116899920Y-118671999D01*
X116853427Y-118618343D01*
X116843323Y-118548069D01*
X116867215Y-118490435D01*
X116894788Y-118453644D01*
X116903324Y-118438054D01*
X116948478Y-118317606D01*
X116952105Y-118302351D01*
X116957631Y-118251486D01*
X116958000Y-118244672D01*
X116958000Y-116118115D01*
X116953525Y-116102876D01*
X116952135Y-116101671D01*
X116944452Y-116100000D01*
X115768115Y-116100000D01*
X115752876Y-116104475D01*
X115751671Y-116105865D01*
X115750000Y-116113548D01*
X115750000Y-118689882D01*
X115759832Y-118723366D01*
X115759832Y-118794362D01*
X115735283Y-118835737D01*
X115737096Y-118837096D01*
X115655214Y-118946351D01*
X115646676Y-118961946D01*
X115601522Y-119082394D01*
X115597895Y-119097649D01*
X115592369Y-119148514D01*
X115592000Y-119155328D01*
X115592000Y-119881885D01*
X104648500Y-119881885D01*
X104648500Y-118244669D01*
X113542001Y-118244669D01*
X113542371Y-118251490D01*
X113547895Y-118302352D01*
X113551521Y-118317604D01*
X113596676Y-118438054D01*
X113605214Y-118453649D01*
X113681715Y-118555724D01*
X113694276Y-118568285D01*
X113796351Y-118644786D01*
X113811946Y-118653324D01*
X113932394Y-118698478D01*
X113947649Y-118702105D01*
X113998514Y-118707631D01*
X114005328Y-118708000D01*
X114731885Y-118708000D01*
X114747124Y-118703525D01*
X114748329Y-118702135D01*
X114750000Y-118694452D01*
X114750000Y-116118115D01*
X114745525Y-116102876D01*
X114744135Y-116101671D01*
X114736452Y-116100000D01*
X113560116Y-116100000D01*
X113544877Y-116104475D01*
X113543672Y-116105865D01*
X113542001Y-116113548D01*
X113542001Y-118244669D01*
X104648500Y-118244669D01*
X104648500Y-115081885D01*
X113542000Y-115081885D01*
X113546475Y-115097124D01*
X113547865Y-115098329D01*
X113555548Y-115100000D01*
X114731885Y-115100000D01*
X114747124Y-115095525D01*
X114748329Y-115094135D01*
X114750000Y-115086452D01*
X114750000Y-115081885D01*
X115750000Y-115081885D01*
X115754475Y-115097124D01*
X115755865Y-115098329D01*
X115763548Y-115100000D01*
X116939884Y-115100000D01*
X116955123Y-115095525D01*
X116956328Y-115094135D01*
X116957999Y-115086452D01*
X116957999Y-112955331D01*
X116957629Y-112948510D01*
X116952105Y-112897648D01*
X116948479Y-112882396D01*
X116903324Y-112761946D01*
X116894786Y-112746351D01*
X116818285Y-112644276D01*
X116805724Y-112631715D01*
X116703649Y-112555214D01*
X116688054Y-112546676D01*
X116567606Y-112501522D01*
X116552351Y-112497895D01*
X116501486Y-112492369D01*
X116494672Y-112492000D01*
X115768115Y-112492000D01*
X115752876Y-112496475D01*
X115751671Y-112497865D01*
X115750000Y-112505548D01*
X115750000Y-115081885D01*
X114750000Y-115081885D01*
X114750000Y-112510116D01*
X114745525Y-112494877D01*
X114744135Y-112493672D01*
X114736452Y-112492001D01*
X114005331Y-112492001D01*
X113998510Y-112492371D01*
X113947648Y-112497895D01*
X113932396Y-112501521D01*
X113811946Y-112546676D01*
X113796351Y-112555214D01*
X113694276Y-112631715D01*
X113681715Y-112644276D01*
X113605214Y-112746351D01*
X113596676Y-112761946D01*
X113551522Y-112882394D01*
X113547895Y-112897649D01*
X113542369Y-112948514D01*
X113542000Y-112955328D01*
X113542000Y-115081885D01*
X104648500Y-115081885D01*
X104648500Y-98158169D01*
X107178501Y-98158169D01*
X107178871Y-98164990D01*
X107184395Y-98215852D01*
X107188021Y-98231104D01*
X107233176Y-98351554D01*
X107241714Y-98367149D01*
X107318215Y-98469224D01*
X107330776Y-98481785D01*
X107432851Y-98558286D01*
X107448446Y-98566824D01*
X107568894Y-98611978D01*
X107584149Y-98615605D01*
X107635014Y-98621131D01*
X107641828Y-98621500D01*
X109168385Y-98621500D01*
X109183624Y-98617025D01*
X109184829Y-98615635D01*
X109186500Y-98607952D01*
X109186500Y-98603384D01*
X110186500Y-98603384D01*
X110190975Y-98618623D01*
X110192365Y-98619828D01*
X110200048Y-98621499D01*
X111731169Y-98621499D01*
X111737990Y-98621129D01*
X111788852Y-98615605D01*
X111804104Y-98611979D01*
X111924554Y-98566824D01*
X111940149Y-98558286D01*
X112042224Y-98481785D01*
X112054785Y-98469224D01*
X112131286Y-98367149D01*
X112139824Y-98351554D01*
X112184978Y-98231106D01*
X112188605Y-98215851D01*
X112194131Y-98164986D01*
X112194500Y-98158172D01*
X112194500Y-96631615D01*
X112190025Y-96616376D01*
X112188635Y-96615171D01*
X112180952Y-96613500D01*
X110204615Y-96613500D01*
X110189376Y-96617975D01*
X110188171Y-96619365D01*
X110186500Y-96627048D01*
X110186500Y-98603384D01*
X109186500Y-98603384D01*
X109186500Y-96631615D01*
X109182025Y-96616376D01*
X109180635Y-96615171D01*
X109172952Y-96613500D01*
X107196616Y-96613500D01*
X107181377Y-96617975D01*
X107180172Y-96619365D01*
X107178501Y-96627048D01*
X107178501Y-98158169D01*
X104648500Y-98158169D01*
X104648500Y-95595385D01*
X107178500Y-95595385D01*
X107182975Y-95610624D01*
X107184365Y-95611829D01*
X107192048Y-95613500D01*
X109168385Y-95613500D01*
X109183624Y-95609025D01*
X109184829Y-95607635D01*
X109186500Y-95599952D01*
X109186500Y-95595385D01*
X110186500Y-95595385D01*
X110190975Y-95610624D01*
X110192365Y-95611829D01*
X110200048Y-95613500D01*
X112176384Y-95613500D01*
X112191623Y-95609025D01*
X112192828Y-95607635D01*
X112194499Y-95599952D01*
X112194499Y-94068831D01*
X112194129Y-94062010D01*
X112188605Y-94011148D01*
X112184979Y-93995896D01*
X112139824Y-93875446D01*
X112131286Y-93859851D01*
X112054785Y-93757776D01*
X112042224Y-93745215D01*
X111940149Y-93668714D01*
X111924554Y-93660176D01*
X111804106Y-93615022D01*
X111788851Y-93611395D01*
X111737986Y-93605869D01*
X111731172Y-93605500D01*
X110204615Y-93605500D01*
X110189376Y-93609975D01*
X110188171Y-93611365D01*
X110186500Y-93619048D01*
X110186500Y-95595385D01*
X109186500Y-95595385D01*
X109186500Y-93623616D01*
X109182025Y-93608377D01*
X109180635Y-93607172D01*
X109172952Y-93605501D01*
X107641831Y-93605501D01*
X107635010Y-93605871D01*
X107584148Y-93611395D01*
X107568896Y-93615021D01*
X107448446Y-93660176D01*
X107432851Y-93668714D01*
X107330776Y-93745215D01*
X107318215Y-93757776D01*
X107241714Y-93859851D01*
X107233176Y-93875446D01*
X107188022Y-93995894D01*
X107184395Y-94011149D01*
X107178869Y-94062014D01*
X107178500Y-94068828D01*
X107178500Y-95595385D01*
X104648500Y-95595385D01*
X104648500Y-92394669D01*
X110742001Y-92394669D01*
X110742371Y-92401490D01*
X110747895Y-92452352D01*
X110751521Y-92467604D01*
X110796676Y-92588054D01*
X110805214Y-92603649D01*
X110881715Y-92705724D01*
X110894276Y-92718285D01*
X110996351Y-92794786D01*
X111011946Y-92803324D01*
X111132394Y-92848478D01*
X111147649Y-92852105D01*
X111198514Y-92857631D01*
X111205328Y-92858000D01*
X111531885Y-92858000D01*
X111547124Y-92853525D01*
X111548329Y-92852135D01*
X111550000Y-92844452D01*
X111550000Y-92839884D01*
X112550000Y-92839884D01*
X112554475Y-92855123D01*
X112555865Y-92856328D01*
X112563548Y-92857999D01*
X112894669Y-92857999D01*
X112901490Y-92857629D01*
X112952352Y-92852105D01*
X112967604Y-92848479D01*
X113088054Y-92803324D01*
X113103649Y-92794786D01*
X113205724Y-92718285D01*
X113218285Y-92705724D01*
X113276334Y-92628270D01*
X116887000Y-92628270D01*
X116887538Y-92636479D01*
X116901391Y-92741704D01*
X116905629Y-92757521D01*
X116959867Y-92888463D01*
X116968055Y-92902644D01*
X117054339Y-93015092D01*
X117065908Y-93026661D01*
X117178356Y-93112945D01*
X117192537Y-93121133D01*
X117323480Y-93175371D01*
X117339295Y-93179609D01*
X117377038Y-93184577D01*
X117391222Y-93182366D01*
X117395000Y-93169208D01*
X117395000Y-93168827D01*
X118325000Y-93168827D01*
X118329044Y-93182598D01*
X118342583Y-93184627D01*
X118380705Y-93179609D01*
X118396520Y-93175371D01*
X118527463Y-93121133D01*
X118541644Y-93112945D01*
X118654092Y-93026661D01*
X118665661Y-93015092D01*
X118751945Y-92902644D01*
X118760133Y-92888463D01*
X118814371Y-92757521D01*
X118818609Y-92741704D01*
X118832462Y-92636479D01*
X118833000Y-92628270D01*
X118833000Y-92514115D01*
X118828525Y-92498876D01*
X118827135Y-92497671D01*
X118819452Y-92496000D01*
X118343115Y-92496000D01*
X118327876Y-92500475D01*
X118326671Y-92501865D01*
X118325000Y-92509548D01*
X118325000Y-93168827D01*
X117395000Y-93168827D01*
X117395000Y-92514115D01*
X117390525Y-92498876D01*
X117389135Y-92497671D01*
X117381452Y-92496000D01*
X116905115Y-92496000D01*
X116889876Y-92500475D01*
X116888671Y-92501865D01*
X116887000Y-92509548D01*
X116887000Y-92628270D01*
X113276334Y-92628270D01*
X113294786Y-92603649D01*
X113303324Y-92588054D01*
X113348478Y-92467606D01*
X113352105Y-92452351D01*
X113357631Y-92401486D01*
X113358000Y-92394672D01*
X113358000Y-91547885D01*
X116887000Y-91547885D01*
X116891475Y-91563124D01*
X116892865Y-91564329D01*
X116900548Y-91566000D01*
X117376885Y-91566000D01*
X117392124Y-91561525D01*
X117393329Y-91560135D01*
X117395000Y-91552452D01*
X117395000Y-91547885D01*
X118325000Y-91547885D01*
X118329475Y-91563124D01*
X118330865Y-91564329D01*
X118338548Y-91566000D01*
X118814885Y-91566000D01*
X118830124Y-91561525D01*
X118831329Y-91560135D01*
X118833000Y-91552452D01*
X118833000Y-91433730D01*
X118832462Y-91425521D01*
X118818609Y-91320296D01*
X118814371Y-91304479D01*
X118760133Y-91173537D01*
X118751945Y-91159356D01*
X118665661Y-91046908D01*
X118654092Y-91035339D01*
X118541644Y-90949055D01*
X118527463Y-90940867D01*
X118396520Y-90886629D01*
X118380705Y-90882391D01*
X118342962Y-90877423D01*
X118328778Y-90879634D01*
X118325000Y-90892792D01*
X118325000Y-91547885D01*
X117395000Y-91547885D01*
X117395000Y-90893173D01*
X117390956Y-90879402D01*
X117377417Y-90877373D01*
X117339295Y-90882391D01*
X117323480Y-90886629D01*
X117192537Y-90940867D01*
X117178356Y-90949055D01*
X117065908Y-91035339D01*
X117054339Y-91046908D01*
X116968055Y-91159356D01*
X116959867Y-91173537D01*
X116905629Y-91304479D01*
X116901391Y-91320296D01*
X116887538Y-91425521D01*
X116887000Y-91433730D01*
X116887000Y-91547885D01*
X113358000Y-91547885D01*
X113358000Y-91468115D01*
X113353525Y-91452876D01*
X113352135Y-91451671D01*
X113344452Y-91450000D01*
X112568115Y-91450000D01*
X112552876Y-91454475D01*
X112551671Y-91455865D01*
X112550000Y-91463548D01*
X112550000Y-92839884D01*
X111550000Y-92839884D01*
X111550000Y-91468115D01*
X111545525Y-91452876D01*
X111544135Y-91451671D01*
X111536452Y-91450000D01*
X110760116Y-91450000D01*
X110744877Y-91454475D01*
X110743672Y-91455865D01*
X110742001Y-91463548D01*
X110742001Y-92394669D01*
X104648500Y-92394669D01*
X104648500Y-90431885D01*
X110742000Y-90431885D01*
X110746475Y-90447124D01*
X110747865Y-90448329D01*
X110755548Y-90450000D01*
X111531885Y-90450000D01*
X111547124Y-90445525D01*
X111548329Y-90444135D01*
X111550000Y-90436452D01*
X111550000Y-90431885D01*
X112550000Y-90431885D01*
X112554475Y-90447124D01*
X112555865Y-90448329D01*
X112563548Y-90450000D01*
X113339884Y-90450000D01*
X113355123Y-90445525D01*
X113356328Y-90444135D01*
X113357999Y-90436452D01*
X113357999Y-89505331D01*
X113357629Y-89498510D01*
X113352105Y-89447648D01*
X113348479Y-89432396D01*
X113303324Y-89311946D01*
X113294786Y-89296351D01*
X113218285Y-89194276D01*
X113205724Y-89181715D01*
X113103649Y-89105214D01*
X113088054Y-89096676D01*
X112967606Y-89051522D01*
X112952351Y-89047895D01*
X112901486Y-89042369D01*
X112894672Y-89042000D01*
X112568115Y-89042000D01*
X112552876Y-89046475D01*
X112551671Y-89047865D01*
X112550000Y-89055548D01*
X112550000Y-90431885D01*
X111550000Y-90431885D01*
X111550000Y-89060116D01*
X111545525Y-89044877D01*
X111544135Y-89043672D01*
X111536452Y-89042001D01*
X111205331Y-89042001D01*
X111198510Y-89042371D01*
X111147648Y-89047895D01*
X111132396Y-89051521D01*
X111011946Y-89096676D01*
X110996351Y-89105214D01*
X110894276Y-89181715D01*
X110881715Y-89194276D01*
X110805214Y-89296351D01*
X110796676Y-89311946D01*
X110751522Y-89432394D01*
X110747895Y-89447649D01*
X110742369Y-89498514D01*
X110742000Y-89505328D01*
X110742000Y-90431885D01*
X104648500Y-90431885D01*
X104648500Y-84614500D01*
X104668502Y-84546379D01*
X104722158Y-84499886D01*
X104774500Y-84488500D01*
X117922679Y-84488500D01*
X117990800Y-84508502D01*
G37*
G04 #@! TD.AperFunction*
G04 #@! TA.AperFunction,Conductor*
G36*
X167579512Y-92215571D02*
G01*
X167616833Y-92271857D01*
X167627600Y-92304997D01*
X167629467Y-92311299D01*
X167647171Y-92377370D01*
X167653559Y-92389907D01*
X167661125Y-92408173D01*
X167665473Y-92421556D01*
X167668776Y-92427278D01*
X167668777Y-92427279D01*
X167699667Y-92480782D01*
X167702814Y-92486577D01*
X167733871Y-92547530D01*
X167738024Y-92552658D01*
X167738025Y-92552660D01*
X167742727Y-92558466D01*
X167753927Y-92574763D01*
X167757657Y-92581224D01*
X167757660Y-92581228D01*
X167760960Y-92586944D01*
X167765377Y-92591850D01*
X167765381Y-92591855D01*
X167806722Y-92637769D01*
X167811006Y-92642784D01*
X167823928Y-92658741D01*
X167838443Y-92673256D01*
X167842984Y-92678041D01*
X167888747Y-92728866D01*
X167894086Y-92732745D01*
X167894087Y-92732746D01*
X167900135Y-92737140D01*
X167915168Y-92749981D01*
X168410019Y-93244832D01*
X168422860Y-93259865D01*
X168431134Y-93271253D01*
X168436043Y-93275673D01*
X168481959Y-93317016D01*
X168486744Y-93321557D01*
X168501259Y-93336072D01*
X168503823Y-93338148D01*
X168517216Y-93348994D01*
X168522231Y-93353278D01*
X168568145Y-93394619D01*
X168568150Y-93394623D01*
X168573056Y-93399040D01*
X168578772Y-93402340D01*
X168578776Y-93402343D01*
X168585237Y-93406073D01*
X168601533Y-93417273D01*
X168612470Y-93426129D01*
X168673421Y-93457185D01*
X168679215Y-93460331D01*
X168738444Y-93494527D01*
X168744726Y-93496568D01*
X168744728Y-93496569D01*
X168751826Y-93498875D01*
X168770092Y-93506440D01*
X168782630Y-93512829D01*
X168789006Y-93514538D01*
X168789010Y-93514539D01*
X168848685Y-93530529D01*
X168855010Y-93532402D01*
X168920072Y-93553542D01*
X168926640Y-93554232D01*
X168926644Y-93554233D01*
X168934061Y-93555012D01*
X168953508Y-93558616D01*
X168967096Y-93562257D01*
X168973695Y-93562603D01*
X168973696Y-93562603D01*
X169035385Y-93565836D01*
X169041960Y-93566353D01*
X169056222Y-93567852D01*
X169062390Y-93568500D01*
X169082925Y-93568500D01*
X169089519Y-93568673D01*
X169151217Y-93571907D01*
X169151222Y-93571907D01*
X169157809Y-93572252D01*
X169171707Y-93570051D01*
X169191416Y-93568500D01*
X169232011Y-93568500D01*
X169300132Y-93588502D01*
X169327248Y-93612002D01*
X169342864Y-93630030D01*
X169342869Y-93630035D01*
X169346250Y-93633938D01*
X169350225Y-93637238D01*
X169350231Y-93637244D01*
X169355425Y-93641556D01*
X169395059Y-93700460D01*
X169396555Y-93771441D01*
X169359439Y-93831962D01*
X169319168Y-93856480D01*
X169211946Y-93896676D01*
X169196351Y-93905214D01*
X169094276Y-93981715D01*
X169081715Y-93994276D01*
X169005214Y-94096351D01*
X168996676Y-94111946D01*
X168951522Y-94232394D01*
X168947895Y-94247649D01*
X168942369Y-94298514D01*
X168942000Y-94305328D01*
X168942000Y-94681885D01*
X168946475Y-94697124D01*
X168947865Y-94698329D01*
X168955548Y-94700000D01*
X170674000Y-94700000D01*
X170742121Y-94720002D01*
X170788614Y-94773658D01*
X170800000Y-94826000D01*
X170800000Y-96539884D01*
X170804475Y-96555123D01*
X170805865Y-96556328D01*
X170813548Y-96557999D01*
X171194669Y-96557999D01*
X171201490Y-96557629D01*
X171252352Y-96552105D01*
X171267604Y-96548479D01*
X171388054Y-96503324D01*
X171403649Y-96494786D01*
X171489935Y-96430118D01*
X171556442Y-96405270D01*
X171625824Y-96420323D01*
X171676054Y-96470497D01*
X171691500Y-96530944D01*
X171691500Y-99671497D01*
X171671498Y-99739618D01*
X171654595Y-99760592D01*
X171573092Y-99842095D01*
X171510780Y-99876121D01*
X171483997Y-99879000D01*
X171299600Y-99879000D01*
X171296354Y-99879337D01*
X171296350Y-99879337D01*
X171200692Y-99889262D01*
X171200688Y-99889263D01*
X171193834Y-99889974D01*
X171187298Y-99892155D01*
X171187296Y-99892155D01*
X171090620Y-99924409D01*
X171026054Y-99945950D01*
X170875652Y-100039022D01*
X170750695Y-100164197D01*
X170746855Y-100170427D01*
X170746854Y-100170428D01*
X170669321Y-100296210D01*
X170657885Y-100314762D01*
X170634943Y-100383931D01*
X170604610Y-100475383D01*
X170602203Y-100482639D01*
X170601503Y-100489475D01*
X170601502Y-100489478D01*
X170600050Y-100503650D01*
X170591500Y-100587100D01*
X170591500Y-101212900D01*
X170591837Y-101216146D01*
X170591837Y-101216150D01*
X170596958Y-101265500D01*
X170602474Y-101318666D01*
X170604655Y-101325202D01*
X170604655Y-101325204D01*
X170630071Y-101401383D01*
X170658450Y-101486446D01*
X170722036Y-101589199D01*
X170740873Y-101657648D01*
X170719712Y-101725418D01*
X170665271Y-101770989D01*
X170614891Y-101781500D01*
X167497000Y-101781500D01*
X167428879Y-101761498D01*
X167382386Y-101707842D01*
X167371000Y-101655500D01*
X167371000Y-100901866D01*
X167364245Y-100839684D01*
X167352828Y-100809229D01*
X167347645Y-100738423D01*
X167352826Y-100720776D01*
X167364245Y-100690316D01*
X167371000Y-100628134D01*
X167371000Y-99631866D01*
X167364245Y-99569684D01*
X167352828Y-99539229D01*
X167347645Y-99468423D01*
X167352826Y-99450776D01*
X167364245Y-99420316D01*
X167371000Y-99358134D01*
X167371000Y-98361866D01*
X167364245Y-98299684D01*
X167352828Y-98269229D01*
X167347645Y-98198423D01*
X167352826Y-98180776D01*
X167364245Y-98150316D01*
X167371000Y-98088134D01*
X167371000Y-97091866D01*
X167364245Y-97029684D01*
X167352828Y-96999229D01*
X167347645Y-96928423D01*
X167352826Y-96910776D01*
X167364245Y-96880316D01*
X167371000Y-96818134D01*
X167371000Y-96094669D01*
X168942001Y-96094669D01*
X168942371Y-96101490D01*
X168947895Y-96152352D01*
X168951521Y-96167604D01*
X168996676Y-96288054D01*
X169005214Y-96303649D01*
X169081715Y-96405724D01*
X169094276Y-96418285D01*
X169196351Y-96494786D01*
X169211946Y-96503324D01*
X169332394Y-96548478D01*
X169347649Y-96552105D01*
X169398514Y-96557631D01*
X169405328Y-96558000D01*
X169781885Y-96558000D01*
X169797124Y-96553525D01*
X169798329Y-96552135D01*
X169800000Y-96544452D01*
X169800000Y-95718115D01*
X169795525Y-95702876D01*
X169794135Y-95701671D01*
X169786452Y-95700000D01*
X168960116Y-95700000D01*
X168944877Y-95704475D01*
X168943672Y-95705865D01*
X168942001Y-95713548D01*
X168942001Y-96094669D01*
X167371000Y-96094669D01*
X167371000Y-95821866D01*
X167364245Y-95759684D01*
X167352828Y-95729229D01*
X167347645Y-95658423D01*
X167352826Y-95640776D01*
X167364245Y-95610316D01*
X167371000Y-95548134D01*
X167371000Y-94551866D01*
X167364245Y-94489684D01*
X167352828Y-94459229D01*
X167347645Y-94388423D01*
X167352826Y-94370776D01*
X167364245Y-94340316D01*
X167371000Y-94278134D01*
X167371000Y-93281866D01*
X167364245Y-93219684D01*
X167352828Y-93189229D01*
X167347645Y-93118423D01*
X167352826Y-93100776D01*
X167364245Y-93070316D01*
X167371000Y-93008134D01*
X167371000Y-92310795D01*
X167391002Y-92242674D01*
X167444658Y-92196181D01*
X167514932Y-92186077D01*
X167579512Y-92215571D01*
G37*
G04 #@! TD.AperFunction*
G04 #@! TA.AperFunction,Conductor*
G36*
X139115365Y-95273885D02*
G01*
X139182282Y-95298971D01*
X139182288Y-95298973D01*
X139189684Y-95301745D01*
X139251866Y-95308500D01*
X140748134Y-95308500D01*
X140810316Y-95301745D01*
X140817716Y-95298971D01*
X140821275Y-95297637D01*
X140824238Y-95297420D01*
X140825400Y-95297144D01*
X140825445Y-95297332D01*
X140892082Y-95292457D01*
X140954450Y-95326380D01*
X140988577Y-95388637D01*
X140991500Y-95415621D01*
X140991500Y-95798134D01*
X140998255Y-95860316D01*
X141049385Y-95996705D01*
X141136739Y-96113261D01*
X141253295Y-96200615D01*
X141389684Y-96251745D01*
X141451866Y-96258500D01*
X142948134Y-96258500D01*
X143010316Y-96251745D01*
X143146705Y-96200615D01*
X143169311Y-96183673D01*
X143235815Y-96158826D01*
X143244874Y-96158500D01*
X143471497Y-96158500D01*
X143539618Y-96178502D01*
X143560592Y-96195405D01*
X144270019Y-96904832D01*
X144282860Y-96919865D01*
X144291134Y-96931253D01*
X144296043Y-96935673D01*
X144341959Y-96977016D01*
X144346744Y-96981557D01*
X144361259Y-96996072D01*
X144363823Y-96998148D01*
X144377216Y-97008994D01*
X144382231Y-97013278D01*
X144428145Y-97054619D01*
X144428150Y-97054623D01*
X144433056Y-97059040D01*
X144438772Y-97062340D01*
X144438776Y-97062343D01*
X144445237Y-97066073D01*
X144461533Y-97077273D01*
X144472470Y-97086129D01*
X144478348Y-97089124D01*
X144478351Y-97089126D01*
X144533426Y-97117188D01*
X144539219Y-97120334D01*
X144559075Y-97131797D01*
X144608070Y-97183178D01*
X144621509Y-97252891D01*
X144595124Y-97318803D01*
X144585174Y-97330013D01*
X143522814Y-98392373D01*
X143460502Y-98426399D01*
X143389687Y-98421334D01*
X143332851Y-98378787D01*
X143308040Y-98312267D01*
X143307903Y-98296465D01*
X143308000Y-98294674D01*
X143308000Y-98268115D01*
X143303525Y-98252876D01*
X143302135Y-98251671D01*
X143294452Y-98250000D01*
X141726000Y-98250000D01*
X141657879Y-98229998D01*
X141611386Y-98176342D01*
X141600000Y-98124000D01*
X141600000Y-97231885D01*
X142600000Y-97231885D01*
X142604475Y-97247124D01*
X142605865Y-97248329D01*
X142613548Y-97250000D01*
X143289884Y-97250000D01*
X143305123Y-97245525D01*
X143306328Y-97244135D01*
X143307999Y-97236452D01*
X143307999Y-97205331D01*
X143307629Y-97198510D01*
X143302105Y-97147648D01*
X143298479Y-97132396D01*
X143253324Y-97011946D01*
X143244786Y-96996351D01*
X143168285Y-96894276D01*
X143155724Y-96881715D01*
X143053649Y-96805214D01*
X143038054Y-96796676D01*
X142917606Y-96751522D01*
X142902351Y-96747895D01*
X142851486Y-96742369D01*
X142844672Y-96742000D01*
X142618115Y-96742000D01*
X142602876Y-96746475D01*
X142601671Y-96747865D01*
X142600000Y-96755548D01*
X142600000Y-97231885D01*
X141600000Y-97231885D01*
X141600000Y-96760116D01*
X141595525Y-96744877D01*
X141594135Y-96743672D01*
X141586452Y-96742001D01*
X141355331Y-96742001D01*
X141348510Y-96742371D01*
X141297648Y-96747895D01*
X141282396Y-96751521D01*
X141161946Y-96796676D01*
X141146351Y-96805214D01*
X141044276Y-96881715D01*
X141031715Y-96894276D01*
X140955214Y-96996351D01*
X140946676Y-97011946D01*
X140901522Y-97132394D01*
X140897895Y-97147649D01*
X140892369Y-97198514D01*
X140892000Y-97205327D01*
X140892001Y-97584567D01*
X140871999Y-97652687D01*
X140818344Y-97699180D01*
X140748070Y-97709285D01*
X140721774Y-97702550D01*
X140717717Y-97701029D01*
X140717713Y-97701028D01*
X140710316Y-97698255D01*
X140648134Y-97691500D01*
X139151866Y-97691500D01*
X139089684Y-97698255D01*
X138953295Y-97749385D01*
X138836739Y-97836739D01*
X138749385Y-97953295D01*
X138698255Y-98089684D01*
X138691500Y-98151866D01*
X138691500Y-98571497D01*
X138671498Y-98639618D01*
X138654595Y-98660592D01*
X138415168Y-98900019D01*
X138400135Y-98912860D01*
X138388747Y-98921134D01*
X138384327Y-98926043D01*
X138342984Y-98971959D01*
X138338443Y-98976744D01*
X138323928Y-98991259D01*
X138321852Y-98993823D01*
X138311006Y-99007216D01*
X138306722Y-99012231D01*
X138265381Y-99058145D01*
X138265377Y-99058150D01*
X138260960Y-99063056D01*
X138257660Y-99068772D01*
X138257657Y-99068776D01*
X138253927Y-99075237D01*
X138242727Y-99091533D01*
X138233871Y-99102470D01*
X138205418Y-99158313D01*
X138202815Y-99163421D01*
X138199669Y-99169215D01*
X138165473Y-99228444D01*
X138163432Y-99234726D01*
X138163431Y-99234728D01*
X138161125Y-99241826D01*
X138153560Y-99260092D01*
X138147171Y-99272630D01*
X138145463Y-99279003D01*
X138145463Y-99279004D01*
X138129469Y-99338695D01*
X138127600Y-99345003D01*
X138106458Y-99410072D01*
X138105768Y-99416637D01*
X138105766Y-99416646D01*
X138104985Y-99424075D01*
X138101383Y-99443509D01*
X138099453Y-99450714D01*
X138097743Y-99457097D01*
X138097398Y-99463688D01*
X138097397Y-99463692D01*
X138094164Y-99525384D01*
X138093647Y-99531958D01*
X138092883Y-99539231D01*
X138091500Y-99552390D01*
X138091500Y-99572926D01*
X138091327Y-99579520D01*
X138088405Y-99635283D01*
X138087748Y-99647810D01*
X138088780Y-99654325D01*
X138089949Y-99661705D01*
X138091500Y-99681417D01*
X138091500Y-111618583D01*
X138089949Y-111638292D01*
X138087748Y-111652190D01*
X138088093Y-111658777D01*
X138088093Y-111658782D01*
X138091327Y-111720480D01*
X138091500Y-111727074D01*
X138091500Y-111747610D01*
X138091844Y-111750882D01*
X138091844Y-111750884D01*
X138093647Y-111768042D01*
X138094164Y-111774616D01*
X138097108Y-111830782D01*
X138097743Y-111842903D01*
X138099453Y-111849284D01*
X138099453Y-111849286D01*
X138101383Y-111856491D01*
X138104985Y-111875925D01*
X138105766Y-111883354D01*
X138105768Y-111883363D01*
X138106458Y-111889928D01*
X138127600Y-111954997D01*
X138129467Y-111961299D01*
X138147171Y-112027370D01*
X138153559Y-112039907D01*
X138161125Y-112058173D01*
X138165473Y-112071556D01*
X138168776Y-112077278D01*
X138168777Y-112077279D01*
X138199667Y-112130782D01*
X138202814Y-112136577D01*
X138233871Y-112197530D01*
X138238024Y-112202658D01*
X138238025Y-112202660D01*
X138242727Y-112208466D01*
X138253927Y-112224763D01*
X138257657Y-112231224D01*
X138257660Y-112231228D01*
X138260960Y-112236944D01*
X138265377Y-112241850D01*
X138265381Y-112241855D01*
X138306722Y-112287769D01*
X138311006Y-112292784D01*
X138323928Y-112308741D01*
X138338443Y-112323256D01*
X138342984Y-112328041D01*
X138388747Y-112378866D01*
X138394086Y-112382745D01*
X138394087Y-112382746D01*
X138400135Y-112387140D01*
X138415168Y-112399981D01*
X139356595Y-113341408D01*
X139390621Y-113403720D01*
X139393500Y-113430503D01*
X139393500Y-115270456D01*
X139373498Y-115338577D01*
X139356595Y-115359551D01*
X139276578Y-115439568D01*
X139273421Y-115444076D01*
X139273419Y-115444079D01*
X139199793Y-115549228D01*
X139142744Y-115630703D01*
X139140877Y-115634707D01*
X139089736Y-115683469D01*
X139020023Y-115696905D01*
X138954112Y-115670518D01*
X138923172Y-115634812D01*
X138921256Y-115630703D01*
X138864207Y-115549228D01*
X138790581Y-115444079D01*
X138790579Y-115444076D01*
X138787422Y-115439568D01*
X138707405Y-115359551D01*
X138673379Y-115297239D01*
X138670500Y-115270456D01*
X138670500Y-113943417D01*
X138672051Y-113923705D01*
X138673220Y-113916325D01*
X138674252Y-113909810D01*
X138670673Y-113841520D01*
X138670500Y-113834926D01*
X138670500Y-113814390D01*
X138670156Y-113811116D01*
X138668353Y-113793958D01*
X138667836Y-113787384D01*
X138664603Y-113725696D01*
X138664603Y-113725694D01*
X138664257Y-113719097D01*
X138660615Y-113705504D01*
X138657014Y-113686075D01*
X138656232Y-113678639D01*
X138655542Y-113672072D01*
X138634407Y-113607025D01*
X138632535Y-113600706D01*
X138616538Y-113541003D01*
X138616537Y-113541000D01*
X138614830Y-113534630D01*
X138608438Y-113522085D01*
X138600874Y-113503823D01*
X138598568Y-113496726D01*
X138596527Y-113490444D01*
X138562336Y-113431223D01*
X138559188Y-113425426D01*
X138531126Y-113370351D01*
X138531124Y-113370348D01*
X138528129Y-113364470D01*
X138519273Y-113353533D01*
X138508073Y-113337237D01*
X138504343Y-113330776D01*
X138504340Y-113330772D01*
X138501040Y-113325056D01*
X138496623Y-113320150D01*
X138496619Y-113320145D01*
X138455278Y-113274231D01*
X138450994Y-113269216D01*
X138440148Y-113255823D01*
X138438072Y-113253259D01*
X138423557Y-113238744D01*
X138419016Y-113233959D01*
X138377673Y-113188043D01*
X138373253Y-113183134D01*
X138361865Y-113174860D01*
X138346832Y-113162019D01*
X137345405Y-112160592D01*
X137311379Y-112098280D01*
X137308500Y-112071497D01*
X137308500Y-97028503D01*
X137328502Y-96960382D01*
X137345405Y-96939408D01*
X138982041Y-95302772D01*
X139044353Y-95268746D01*
X139115365Y-95273885D01*
G37*
G04 #@! TD.AperFunction*
G04 #@! TA.AperFunction,Conductor*
G36*
X147967012Y-105754785D02*
G01*
X147978131Y-105765693D01*
X148001247Y-105791366D01*
X148006586Y-105795245D01*
X148006587Y-105795246D01*
X148012635Y-105799640D01*
X148027668Y-105812481D01*
X148354595Y-106139408D01*
X148388621Y-106201720D01*
X148391500Y-106228503D01*
X148391500Y-106807725D01*
X148371498Y-106875846D01*
X148341065Y-106908551D01*
X148236739Y-106986739D01*
X148149385Y-107103295D01*
X148098255Y-107239684D01*
X148091500Y-107301866D01*
X148091500Y-108398134D01*
X148098255Y-108460316D01*
X148149385Y-108596705D01*
X148236739Y-108713261D01*
X148238248Y-108714392D01*
X148270565Y-108773574D01*
X148265500Y-108844389D01*
X148236539Y-108889452D01*
X148231715Y-108894276D01*
X148155214Y-108996351D01*
X148146676Y-109011946D01*
X148101522Y-109132394D01*
X148097895Y-109147649D01*
X148092369Y-109198514D01*
X148092000Y-109205328D01*
X148092000Y-109231885D01*
X148096475Y-109247124D01*
X148097865Y-109248329D01*
X148105548Y-109250000D01*
X149674000Y-109250000D01*
X149742121Y-109270002D01*
X149788614Y-109323658D01*
X149800000Y-109376000D01*
X149800000Y-110739884D01*
X149804475Y-110755123D01*
X149805865Y-110756328D01*
X149813548Y-110757999D01*
X150044669Y-110757999D01*
X150051490Y-110757629D01*
X150102352Y-110752105D01*
X150117604Y-110748479D01*
X150238054Y-110703324D01*
X150253649Y-110694786D01*
X150355724Y-110618285D01*
X150374635Y-110599374D01*
X150376764Y-110601503D01*
X150421526Y-110568030D01*
X150492344Y-110563000D01*
X150554640Y-110597056D01*
X150588634Y-110659385D01*
X150591500Y-110686107D01*
X150591500Y-110971497D01*
X150571498Y-111039618D01*
X150554595Y-111060592D01*
X147337168Y-114278019D01*
X147322135Y-114290860D01*
X147310747Y-114299134D01*
X147306327Y-114304043D01*
X147264984Y-114349959D01*
X147260443Y-114354744D01*
X147245928Y-114369259D01*
X147243852Y-114371823D01*
X147233006Y-114385216D01*
X147228722Y-114390231D01*
X147187381Y-114436145D01*
X147187377Y-114436150D01*
X147182960Y-114441056D01*
X147179660Y-114446772D01*
X147179657Y-114446776D01*
X147175927Y-114453237D01*
X147164727Y-114469533D01*
X147155871Y-114480470D01*
X147124815Y-114541421D01*
X147121669Y-114547215D01*
X147087473Y-114606444D01*
X147085432Y-114612726D01*
X147085431Y-114612728D01*
X147083125Y-114619826D01*
X147075560Y-114638092D01*
X147069171Y-114650630D01*
X147052344Y-114713431D01*
X147051469Y-114716695D01*
X147049600Y-114723003D01*
X147028458Y-114788072D01*
X147027768Y-114794637D01*
X147027766Y-114794646D01*
X147026985Y-114802075D01*
X147023383Y-114821509D01*
X147021453Y-114828714D01*
X147019743Y-114835097D01*
X147019398Y-114841688D01*
X147019397Y-114841692D01*
X147016164Y-114903384D01*
X147015647Y-114909958D01*
X147013844Y-114927116D01*
X147013500Y-114930390D01*
X147013500Y-114950926D01*
X147013327Y-114957520D01*
X147012058Y-114981742D01*
X147009748Y-115025810D01*
X147010780Y-115032325D01*
X147011949Y-115039705D01*
X147013500Y-115059417D01*
X147013500Y-115270456D01*
X146993498Y-115338577D01*
X146976595Y-115359551D01*
X146896578Y-115439568D01*
X146893421Y-115444076D01*
X146893419Y-115444079D01*
X146819793Y-115549228D01*
X146762744Y-115630703D01*
X146760877Y-115634707D01*
X146709736Y-115683469D01*
X146640023Y-115696905D01*
X146574112Y-115670518D01*
X146543172Y-115634812D01*
X146541256Y-115630703D01*
X146484207Y-115549228D01*
X146410581Y-115444079D01*
X146410579Y-115444076D01*
X146407422Y-115439568D01*
X146345405Y-115377551D01*
X146311379Y-115315239D01*
X146308500Y-115288456D01*
X146308500Y-110294669D01*
X148092001Y-110294669D01*
X148092371Y-110301490D01*
X148097895Y-110352352D01*
X148101521Y-110367604D01*
X148146676Y-110488054D01*
X148155214Y-110503649D01*
X148231715Y-110605724D01*
X148244276Y-110618285D01*
X148346351Y-110694786D01*
X148361946Y-110703324D01*
X148482394Y-110748478D01*
X148497649Y-110752105D01*
X148548514Y-110757631D01*
X148555328Y-110758000D01*
X148781885Y-110758000D01*
X148797124Y-110753525D01*
X148798329Y-110752135D01*
X148800000Y-110744452D01*
X148800000Y-110268115D01*
X148795525Y-110252876D01*
X148794135Y-110251671D01*
X148786452Y-110250000D01*
X148110116Y-110250000D01*
X148094877Y-110254475D01*
X148093672Y-110255865D01*
X148092001Y-110263548D01*
X148092001Y-110294669D01*
X146308500Y-110294669D01*
X146308500Y-108924493D01*
X146328502Y-108856372D01*
X146382158Y-108809879D01*
X146403763Y-108802457D01*
X146410316Y-108801745D01*
X146417711Y-108798973D01*
X146417714Y-108798972D01*
X146538297Y-108753767D01*
X146546705Y-108750615D01*
X146663261Y-108663261D01*
X146750615Y-108546705D01*
X146801745Y-108410316D01*
X146808500Y-108348134D01*
X146808500Y-106851866D01*
X146801745Y-106789684D01*
X146798971Y-106782284D01*
X146797637Y-106778725D01*
X146797420Y-106775762D01*
X146797144Y-106774600D01*
X146797332Y-106774555D01*
X146792457Y-106707918D01*
X146826380Y-106645550D01*
X146888637Y-106611423D01*
X146915621Y-106608500D01*
X147298134Y-106608500D01*
X147360316Y-106601745D01*
X147496705Y-106550615D01*
X147613261Y-106463261D01*
X147700615Y-106346705D01*
X147751745Y-106210316D01*
X147758500Y-106148134D01*
X147758500Y-105850009D01*
X147778502Y-105781888D01*
X147832158Y-105735395D01*
X147902432Y-105725291D01*
X147967012Y-105754785D01*
G37*
G04 #@! TD.AperFunction*
G04 #@! TA.AperFunction,Conductor*
G36*
X145763703Y-100325276D02*
G01*
X145820539Y-100367823D01*
X145845350Y-100434343D01*
X145845498Y-100449926D01*
X145844164Y-100475383D01*
X145843647Y-100481958D01*
X145842857Y-100489478D01*
X145841500Y-100502390D01*
X145841500Y-100522926D01*
X145841327Y-100529520D01*
X145838141Y-100590317D01*
X145837748Y-100597810D01*
X145839072Y-100606166D01*
X145839949Y-100611705D01*
X145841500Y-100631417D01*
X145841500Y-104181583D01*
X145821498Y-104249704D01*
X145767842Y-104296197D01*
X145697568Y-104306301D01*
X145639935Y-104282409D01*
X145603649Y-104255214D01*
X145588054Y-104246676D01*
X145467606Y-104201522D01*
X145452351Y-104197895D01*
X145401486Y-104192369D01*
X145394672Y-104192000D01*
X145368115Y-104192000D01*
X145352876Y-104196475D01*
X145351671Y-104197865D01*
X145350000Y-104205548D01*
X145350000Y-105774000D01*
X145329998Y-105842121D01*
X145276342Y-105888614D01*
X145224000Y-105900000D01*
X144476000Y-105900000D01*
X144407879Y-105879998D01*
X144361386Y-105826342D01*
X144350000Y-105774000D01*
X144350000Y-104210116D01*
X144345525Y-104194877D01*
X144344135Y-104193672D01*
X144336452Y-104192001D01*
X144305331Y-104192001D01*
X144298510Y-104192371D01*
X144247648Y-104197895D01*
X144232396Y-104201521D01*
X144111946Y-104246676D01*
X144096351Y-104255214D01*
X144060065Y-104282409D01*
X143993558Y-104307257D01*
X143924176Y-104292204D01*
X143873946Y-104242030D01*
X143858500Y-104181583D01*
X143858500Y-103551866D01*
X143851745Y-103489684D01*
X143800615Y-103353295D01*
X143783673Y-103330689D01*
X143758826Y-103264185D01*
X143758500Y-103255126D01*
X143758500Y-102278503D01*
X143778502Y-102210382D01*
X143795405Y-102189408D01*
X145630576Y-100354237D01*
X145692888Y-100320211D01*
X145763703Y-100325276D01*
G37*
G04 #@! TD.AperFunction*
G04 #@! TA.AperFunction,Conductor*
G36*
X140854450Y-99726380D02*
G01*
X140888577Y-99788637D01*
X140891500Y-99815621D01*
X140891500Y-100198134D01*
X140891869Y-100201531D01*
X140892185Y-100204440D01*
X140898255Y-100260316D01*
X140949385Y-100396705D01*
X141036739Y-100513261D01*
X141153295Y-100600615D01*
X141289684Y-100651745D01*
X141351866Y-100658500D01*
X142452497Y-100658500D01*
X142520618Y-100678502D01*
X142567111Y-100732158D01*
X142577215Y-100802432D01*
X142547721Y-100867012D01*
X142541592Y-100873595D01*
X142265168Y-101150019D01*
X142250135Y-101162860D01*
X142238747Y-101171134D01*
X142234327Y-101176043D01*
X142192984Y-101221959D01*
X142188443Y-101226744D01*
X142173928Y-101241259D01*
X142171852Y-101243823D01*
X142161006Y-101257216D01*
X142156722Y-101262231D01*
X142115381Y-101308145D01*
X142115377Y-101308150D01*
X142110960Y-101313056D01*
X142107660Y-101318772D01*
X142107657Y-101318776D01*
X142103927Y-101325237D01*
X142092727Y-101341533D01*
X142083871Y-101352470D01*
X142056714Y-101405768D01*
X142052815Y-101413421D01*
X142049667Y-101419218D01*
X142029141Y-101454771D01*
X142015473Y-101478444D01*
X142013432Y-101484726D01*
X142013431Y-101484728D01*
X142011125Y-101491826D01*
X142003560Y-101510092D01*
X141997171Y-101522630D01*
X141983976Y-101571876D01*
X141979469Y-101588695D01*
X141977600Y-101595003D01*
X141956458Y-101660072D01*
X141955768Y-101666637D01*
X141955766Y-101666646D01*
X141954985Y-101674075D01*
X141951383Y-101693509D01*
X141949608Y-101700135D01*
X141947743Y-101707097D01*
X141947398Y-101713688D01*
X141947397Y-101713692D01*
X141944164Y-101775384D01*
X141943647Y-101781958D01*
X141942835Y-101789684D01*
X141941500Y-101802390D01*
X141941500Y-101822926D01*
X141941327Y-101829520D01*
X141940332Y-101848514D01*
X141937748Y-101897810D01*
X141938780Y-101904325D01*
X141939949Y-101911705D01*
X141941500Y-101931417D01*
X141941500Y-103081583D01*
X141921498Y-103149704D01*
X141867842Y-103196197D01*
X141797568Y-103206301D01*
X141739935Y-103182409D01*
X141703649Y-103155214D01*
X141688054Y-103146676D01*
X141567606Y-103101522D01*
X141552351Y-103097895D01*
X141501486Y-103092369D01*
X141494672Y-103092000D01*
X141468115Y-103092000D01*
X141452876Y-103096475D01*
X141451671Y-103097865D01*
X141450000Y-103105548D01*
X141450000Y-104674000D01*
X141429998Y-104742121D01*
X141376342Y-104788614D01*
X141324000Y-104800000D01*
X140576000Y-104800000D01*
X140507879Y-104779998D01*
X140461386Y-104726342D01*
X140450000Y-104674000D01*
X140450000Y-103110116D01*
X140445525Y-103094877D01*
X140444135Y-103093672D01*
X140436452Y-103092001D01*
X140405331Y-103092001D01*
X140398510Y-103092371D01*
X140347648Y-103097895D01*
X140332396Y-103101521D01*
X140211946Y-103146676D01*
X140196351Y-103155214D01*
X140110065Y-103219882D01*
X140043558Y-103244730D01*
X139974176Y-103229677D01*
X139923946Y-103179503D01*
X139908500Y-103119056D01*
X139908500Y-100028503D01*
X139928502Y-99960382D01*
X139945405Y-99939408D01*
X140139408Y-99745405D01*
X140201720Y-99711379D01*
X140228503Y-99708500D01*
X140648134Y-99708500D01*
X140710316Y-99701745D01*
X140717716Y-99698971D01*
X140721275Y-99697637D01*
X140724238Y-99697420D01*
X140725400Y-99697144D01*
X140725445Y-99697332D01*
X140792082Y-99692457D01*
X140854450Y-99726380D01*
G37*
G04 #@! TD.AperFunction*
G04 #@! TA.AperFunction,Conductor*
G36*
X146442121Y-91720002D02*
G01*
X146488614Y-91773658D01*
X146500000Y-91826000D01*
X146500000Y-93189884D01*
X146504475Y-93205123D01*
X146505865Y-93206328D01*
X146513548Y-93207999D01*
X146522095Y-93207999D01*
X146528614Y-93207662D01*
X146624206Y-93197743D01*
X146637600Y-93194851D01*
X146791784Y-93143412D01*
X146804962Y-93137239D01*
X146942807Y-93051937D01*
X146954208Y-93042901D01*
X147068739Y-92928171D01*
X147077751Y-92916760D01*
X147120740Y-92847018D01*
X147173512Y-92799525D01*
X147243583Y-92788101D01*
X147308707Y-92816375D01*
X147348207Y-92875369D01*
X147354000Y-92913134D01*
X147354000Y-93008134D01*
X147360755Y-93070316D01*
X147372172Y-93100771D01*
X147377355Y-93171577D01*
X147372174Y-93189224D01*
X147360755Y-93219684D01*
X147354000Y-93281866D01*
X147354000Y-94015500D01*
X147333998Y-94083621D01*
X147280342Y-94130114D01*
X147228000Y-94141500D01*
X145728503Y-94141500D01*
X145660382Y-94121498D01*
X145639408Y-94104595D01*
X145295405Y-93760592D01*
X145261379Y-93698280D01*
X145258500Y-93671497D01*
X145258500Y-93325425D01*
X145278502Y-93257304D01*
X145332158Y-93210811D01*
X145397342Y-93200081D01*
X145471437Y-93207672D01*
X145477854Y-93208000D01*
X145481885Y-93208000D01*
X145497124Y-93203525D01*
X145498329Y-93202135D01*
X145500000Y-93194452D01*
X145500000Y-91826000D01*
X145520002Y-91757879D01*
X145573658Y-91711386D01*
X145626000Y-91700000D01*
X146374000Y-91700000D01*
X146442121Y-91720002D01*
G37*
G04 #@! TD.AperFunction*
G04 #@! TA.AperFunction,Conductor*
G36*
X142639618Y-91378502D02*
G01*
X142660592Y-91395405D01*
X143404595Y-92139408D01*
X143438621Y-92201720D01*
X143441500Y-92228503D01*
X143441500Y-92369056D01*
X143421498Y-92437177D01*
X143367842Y-92483670D01*
X143297568Y-92493774D01*
X143239935Y-92469882D01*
X143153649Y-92405214D01*
X143138054Y-92396676D01*
X143017606Y-92351522D01*
X143002351Y-92347895D01*
X142951486Y-92342369D01*
X142944672Y-92342000D01*
X142718115Y-92342000D01*
X142702876Y-92346475D01*
X142701671Y-92347865D01*
X142700000Y-92355548D01*
X142700000Y-93724000D01*
X142679998Y-93792121D01*
X142626342Y-93838614D01*
X142574000Y-93850000D01*
X141826000Y-93850000D01*
X141757879Y-93829998D01*
X141711386Y-93776342D01*
X141700000Y-93724000D01*
X141700000Y-92360116D01*
X141695525Y-92344877D01*
X141694135Y-92343672D01*
X141686452Y-92342001D01*
X141455331Y-92342001D01*
X141448510Y-92342371D01*
X141397648Y-92347895D01*
X141382396Y-92351521D01*
X141261946Y-92396676D01*
X141246351Y-92405214D01*
X141144276Y-92481715D01*
X141131715Y-92494276D01*
X141055214Y-92596351D01*
X141046676Y-92611946D01*
X141001522Y-92732394D01*
X140997895Y-92747649D01*
X140992369Y-92798514D01*
X140992000Y-92805327D01*
X140992001Y-93184567D01*
X140971999Y-93252687D01*
X140918344Y-93299180D01*
X140848070Y-93309285D01*
X140821774Y-93302550D01*
X140817717Y-93301029D01*
X140817713Y-93301028D01*
X140810316Y-93298255D01*
X140748134Y-93291500D01*
X139251866Y-93291500D01*
X139189684Y-93298255D01*
X139053295Y-93349385D01*
X139030689Y-93366327D01*
X138964185Y-93391174D01*
X138955126Y-93391500D01*
X138781416Y-93391500D01*
X138761707Y-93389949D01*
X138747809Y-93387748D01*
X138741222Y-93388093D01*
X138741217Y-93388093D01*
X138679519Y-93391327D01*
X138672925Y-93391500D01*
X138652390Y-93391500D01*
X138646222Y-93392148D01*
X138631960Y-93393647D01*
X138625385Y-93394164D01*
X138563696Y-93397397D01*
X138563695Y-93397397D01*
X138557096Y-93397743D01*
X138543508Y-93401384D01*
X138524061Y-93404988D01*
X138516644Y-93405767D01*
X138516640Y-93405768D01*
X138510072Y-93406458D01*
X138476787Y-93417273D01*
X138445009Y-93427598D01*
X138438685Y-93429471D01*
X138379010Y-93445461D01*
X138379006Y-93445462D01*
X138372630Y-93447171D01*
X138366748Y-93450168D01*
X138360093Y-93453559D01*
X138341827Y-93461125D01*
X138328444Y-93465473D01*
X138327971Y-93464018D01*
X138265388Y-93472412D01*
X138201089Y-93442309D01*
X138163273Y-93382222D01*
X138158500Y-93347870D01*
X138158500Y-92301866D01*
X138151745Y-92239684D01*
X138148971Y-92232284D01*
X138147637Y-92228725D01*
X138147420Y-92225762D01*
X138147144Y-92224600D01*
X138147332Y-92224555D01*
X138142457Y-92157918D01*
X138176380Y-92095550D01*
X138238637Y-92061423D01*
X138265621Y-92058500D01*
X138648134Y-92058500D01*
X138710316Y-92051745D01*
X138846705Y-92000615D01*
X138963261Y-91913261D01*
X139041449Y-91808935D01*
X139098308Y-91766420D01*
X139142275Y-91758500D01*
X139718583Y-91758500D01*
X139738292Y-91760051D01*
X139752190Y-91762252D01*
X139758777Y-91761907D01*
X139758782Y-91761907D01*
X139820480Y-91758673D01*
X139827074Y-91758500D01*
X139847610Y-91758500D01*
X139850882Y-91758156D01*
X139850884Y-91758156D01*
X139868042Y-91756353D01*
X139874616Y-91755836D01*
X139936308Y-91752603D01*
X139936312Y-91752602D01*
X139942903Y-91752257D01*
X139949284Y-91750547D01*
X139949286Y-91750547D01*
X139956491Y-91748617D01*
X139975925Y-91745015D01*
X139983354Y-91744234D01*
X139983363Y-91744232D01*
X139989928Y-91743542D01*
X140054997Y-91722400D01*
X140061299Y-91720533D01*
X140127370Y-91702829D01*
X140139908Y-91696440D01*
X140158174Y-91688875D01*
X140165272Y-91686569D01*
X140165274Y-91686568D01*
X140171556Y-91684527D01*
X140230785Y-91650331D01*
X140236579Y-91647185D01*
X140297530Y-91616129D01*
X140303148Y-91611580D01*
X140308466Y-91607273D01*
X140324763Y-91596073D01*
X140331224Y-91592343D01*
X140331228Y-91592340D01*
X140336944Y-91589040D01*
X140341850Y-91584623D01*
X140341855Y-91584619D01*
X140387769Y-91543278D01*
X140392784Y-91538994D01*
X140406177Y-91528148D01*
X140408741Y-91526072D01*
X140423256Y-91511557D01*
X140428041Y-91507016D01*
X140455610Y-91482193D01*
X140478866Y-91461253D01*
X140487140Y-91449865D01*
X140499981Y-91434832D01*
X140539408Y-91395405D01*
X140601720Y-91361379D01*
X140628503Y-91358500D01*
X142571497Y-91358500D01*
X142639618Y-91378502D01*
G37*
G04 #@! TD.AperFunction*
M02*
