  0
SECTION
  2
HEADER
  9
$ACADVER
  1
AC1015
  9
$ACADMAINTVER
 70
     6
  9
$DWGCODEPAGE
  3
ANSI_1252
  9
$INSBASE
 10
0.0
 20
0.0
 30
0.0
  9
$EXTMIN
 10
-68.5
 20
-66.0
 30
0.0
  9
$EXTMAX
 10
68.5
 20
66.0
 30
0.0
  9
$LIMMIN
 10
0.0
 20
0.0
  9
$LIMMAX
 10
420.0
 20
297.0
  9
$ORTHOMODE
 70
     0
  9
$REGENMODE
 70
     1
  9
$FILLMODE
 70
     1
  9
$QTEXTMODE
 70
     0
  9
$MIRRTEXT
 70
     1
  9
$LTSCALE
 40
1.0
  9
$ATTMODE
 70
     1
  9
$TEXTSIZE
 40
3.5
  9
$TRACEWID
 40
1.0
  9
$TEXTSTYLE
  7
Standard
  9
$CLAYER
  8
0
  9
$CELTYPE
  6
ByLayer
  9
$CECOLOR
 62
   256
  9
$CELTSCALE
 40
1.0
  9
$DISPSILH
 70
     0
  9
$DIMSCALE
 40
1.0
  9
$DIMASZ
 40
3.302
  9
$DIMEXO
 40
0.0
  9
$DIMDLI
 40
3.75
  9
$DIMRND
 40
0.0
  9
$DIMDLE
 40
0.0
  9
$DIMEXE
 40
1.0
  9
$DIMTP
 40
0.0
  9
$DIMTM
 40
0.0
  9
$DIMTXT
 40
3.5
  9
$DIMCEN
 40
2.5
  9
$DIMTSZ
 40
0.0
  9
$DIMTOL
 70
     0
  9
$DIMLIM
 70
     0
  9
$DIMTIH
 70
     1
  9
$DIMTOH
 70
     1
  9
$DIMSE1
 70
     0
  9
$DIMSE2
 70
     0
  9
$DIMTAD
 70
     1
  9
$DIMZIN
 70
     1
  9
$DIMBLK
  1

  9
$DIMASO
 70
     1
  9
$DIMSHO
 70
     1
  9
$DIMPOST
  1

  9
$DIMAPOST
  1

  9
$DIMALT
 70
     0
  9
$DIMALTD
 70
     3
  9
$DIMALTF
 40
0.0393700787
  9
$DIMLFAC
 40
1.0
  9
$DIMTOFL
 70
     1
  9
$DIMTVP
 40
0.0
  9
$DIMTIX
 70
     0
  9
$DIMSOXD
 70
     0
  9
$DIMSAH
 70
     0
  9
$DIMBLK1
  1

  9
$DIMBLK2
  1

  9
$DIMSTYLE
  2
ISO-25
  9
$DIMCLRD
 70
     0
  9
$DIMCLRE
 70
     0
  9
$DIMCLRT
 70
     0
  9
$DIMTFAC
 40
1.0
  9
$DIMGAP
 40
1.524
  9
$DIMJUST
 70
     0
  9
$DIMSD1
 70
     0
  9
$DIMSD2
 70
     0
  9
$DIMTOLJ
 70
     0
  9
$DIMTZIN
 70
     1
  9
$DIMALTZ
 70
     0
  9
$DIMALTTZ
 70
     0
  9
$DIMUPT
 70
     0
  9
$DIMDEC
 70
     2
  9
$DIMTDEC
 70
     2
  9
$DIMALTU
 70
     2
  9
$DIMALTTD
 70
     3
  9
$DIMTXSTY
  7
Standard
  9
$DIMAUNIT
 70
     0
  9
$DIMADEC
 70
     2
  9
$DIMALTRND
 40
0.0
  9
$DIMAZIN
 70
     0
  9
$DIMDSEP
 70
    44
  9
$DIMATFIT
 70
     3
  9
$DIMFRAC
 70
     0
  9
$DIMLDRBLK
  1

  9
$DIMLUNIT
 70
     2
  9
$DIMLWD
 70
    -2
  9
$DIMLWE
 70
    -2
  9
$DIMTMOVE
 70
     0
  9
$LUNITS
 70
     2
  9
$LUPREC
 70
     2
  9
$SKETCHINC
 40
1.0
  9
$FILLETRAD
 40
10.0
  9
$AUNITS
 70
     0
  9
$AUPREC
 70
     2
  9
$MENU
  1
.
  9
$ELEVATION
 40
0.0
  9
$PELEVATION
 40
0.0
  9
$THICKNESS
 40
0.0
  9
$LIMCHECK
 70
     0
  9
$CHAMFERA
 40
0.0
  9
$CHAMFERB
 40
0.0
  9
$CHAMFERC
 40
0.0
  9
$CHAMFERD
 40
0.0
  9
$SKPOLY
 70
     0
  9
$TDCREATE
 40
2459698.699716562
  9
$TDUCREATE
 40
2459698.616383229
  9
$TDUPDATE
 40
2459698.699742384
  9
$TDUUPDATE
 40
2459698.616409051
  9
$TDINDWG
 40
0.0000000116
  9
$TDUSRTIMER
 40
0.0000000116
  9
$USRTIMER
 70
     1
  9
$ANGBASE
 50
0.0
  9
$ANGDIR
 70
     0
  9
$PDMODE
 70
     0
  9
$PDSIZE
 40
-1.0
  9
$PLINEWID
 40
0.0
  9
$SPLFRAME
 70
     0
  9
$SPLINETYPE
 70
     6
  9
$SPLINESEGS
 70
     8
  9
$HANDSEED
  5
152
  9
$SURFTAB1
 70
     6
  9
$SURFTAB2
 70
     6
  9
$SURFTYPE
 70
     6
  9
$SURFU
 70
     6
  9
$SURFV
 70
     6
  9
$UCSBASE
  2

  9
$UCSNAME
  2

  9
$UCSORG
 10
0.0
 20
0.0
 30
0.0
  9
$UCSXDIR
 10
1.0
 20
0.0
 30
0.0
  9
$UCSYDIR
 10
0.0
 20
1.0
 30
0.0
  9
$UCSORTHOREF
  2

  9
$UCSORTHOVIEW
 70
     0
  9
$UCSORGTOP
 10
0.0
 20
0.0
 30
0.0
  9
$UCSORGBOTTOM
 10
0.0
 20
0.0
 30
0.0
  9
$UCSORGLEFT
 10
0.0
 20
0.0
 30
0.0
  9
$UCSORGRIGHT
 10
0.0
 20
0.0
 30
0.0
  9
$UCSORGFRONT
 10
0.0
 20
0.0
 30
0.0
  9
$UCSORGBACK
 10
0.0
 20
0.0
 30
0.0
  9
$PUCSBASE
  2

  9
$PUCSNAME
  2

  9
$PUCSORG
 10
0.0
 20
0.0
 30
0.0
  9
$PUCSXDIR
 10
1.0
 20
0.0
 30
0.0
  9
$PUCSYDIR
 10
0.0
 20
1.0
 30
0.0
  9
$PUCSORTHOREF
  2

  9
$PUCSORTHOVIEW
 70
     0
  9
$PUCSORGTOP
 10
0.0
 20
0.0
 30
0.0
  9
$PUCSORGBOTTOM
 10
0.0
 20
0.0
 30
0.0
  9
$PUCSORGLEFT
 10
0.0
 20
0.0
 30
0.0
  9
$PUCSORGRIGHT
 10
0.0
 20
0.0
 30
0.0
  9
$PUCSORGFRONT
 10
0.0
 20
0.0
 30
0.0
  9
$PUCSORGBACK
 10
0.0
 20
0.0
 30
0.0
  9
$USERI1
 70
     0
  9
$USERI2
 70
     0
  9
$USERI3
 70
     0
  9
$USERI4
 70
     0
  9
$USERI5
 70
     0
  9
$USERR1
 40
0.0
  9
$USERR2
 40
0.0
  9
$USERR3
 40
0.0
  9
$USERR4
 40
0.0
  9
$USERR5
 40
0.0
  9
$WORLDVIEW
 70
     1
  9
$SHADEDGE
 70
     3
  9
$SHADEDIF
 70
    70
  9
$TILEMODE
 70
     1
  9
$MAXACTVP
 70
    64
  9
$PINSBASE
 10
0.0
 20
0.0
 30
0.0
  9
$PLIMCHECK
 70
     0
  9
$PEXTMIN
 10
1.0000000000E+20
 20
1.0000000000E+20
 30
1.0000000000E+20
  9
$PEXTMAX
 10
-1.0000000000E+20
 20
-1.0000000000E+20
 30
-1.0000000000E+20
  9
$PLIMMIN
 10
0.0
 20
0.0
  9
$PLIMMAX
 10
420.0
 20
297.0
  9
$UNITMODE
 70
     0
  9
$VISRETAIN
 70
     1
  9
$PLINEGEN
 70
     0
  9
$PSLTSCALE
 70
     1
  9
$TREEDEPTH
 70
  3020
  9
$CMLSTYLE
  2
Standard
  9
$CMLJUST
 70
     0
  9
$CMLSCALE
 40
20.0
  9
$PROXYGRAPHICS
 70
     1
  9
$MEASUREMENT
 70
     1
  9
$CELWEIGHT
370
    -1
  9
$ENDCAPS
280
     0
  9
$JOINSTYLE
280
     0
  9
$LWDISPLAY
290
     1
  9
$INSUNITS
 70
     4
  9
$HYPERLINKBASE
  1

  9
$STYLESHEET
  1

  9
$XEDIT
290
     1
  9
$CEPSNTYPE
380
     0
  9
$PSTYLEMODE
290
     1
  9
$FINGERPRINTGUID
  2
{4608f53a-810e-441e-857c-e5a6b7b6ea52}
  9
$VERSIONGUID
  2
{FAEB1C32-E019-11D5-929B-00C0DF256EC4}
  9
$EXTNAMES
290
     1
  9
$PSVPSCALE
 40
0.0
  9
$OLESTARTUP
290
     0
  0
ENDSEC
  0
SECTION
  2
CLASSES
  0
CLASS
  1
ACDBDICTIONARYWDFLT
  2
AcDbDictionaryWithDefault
  3
ObjectDBX Classes
 90
        0
280
     0
281
     0
  0
CLASS
  1
VISUALSTYLE
  2
AcDbVisualStyle
  3
ObjectDBX Classes
 90
     4095
280
     0
281
     0
  0
CLASS
  1
MATERIAL
  2
AcDbMaterial
  3
ObjectDBX Classes
 90
     1153
280
     0
281
     0
  0
CLASS
  1
SCALE
  2
AcDbScale
  3
ObjectDBX Classes
 90
     1153
280
     0
281
     0
  0
CLASS
  1
TABLESTYLE
  2
AcDbTableStyle
  3
ObjectDBX Classes
 90
     4095
280
     0
281
     0
  0
CLASS
  1
MLEADERSTYLE
  2
AcDbMLeaderStyle
  3
ACDB_MLEADERSTYLE_CLASS
 90
     4095
280
     0
281
     0
  0
CLASS
  1
SUN
  2
AcDbSun
  3
SCENEOE
 90
     1153
280
     0
281
     0
  0
CLASS
  1
ACDBPLACEHOLDER
  2
AcDbPlaceHolder
  3
ObjectDBX Classes
 90
        0
280
     0
281
     0
  0
CLASS
  1
LAYOUT
  2
AcDbLayout
  3
ObjectDBX Classes
 90
        0
280
     0
281
     0
  0
ENDSEC
  0
SECTION
  2
TABLES
  0
TABLE
  2
VPORT
  5
8
330
0
100
AcDbSymbolTable
 70
     1
  0
VPORT
  5
29
330
8
100
AcDbSymbolTableRecord
100
AcDbViewportTableRecord
  2
*Active
 70
     0
 10
0.0
 20
0.0
 11
1.0
 21
1.0
 12
0.0
 22
0.0
 13
0.0
 23
0.0
 14
10.0
 24
10.0
 15
10.0
 25
10.0
 16
0.0
 26
0.0
 36
1.0
 17
0.0
 27
0.0
 37
0.0
 40
134.64
 41
1.0378787879
 42
50.0
 43
0.0
 44
0.0
 50
0.0
 51
0.0
 71
     0
 72
   100
 73
     1
 74
     3
 75
     0
 76
     0
 77
     0
 78
     0
281
     0
 65
     1
110
0.0
120
0.0
130
0.0
111
1.0
121
0.0
131
0.0
112
0.0
122
1.0
132
0.0
 79
     0
146
0.0
  0
ENDTAB
  0
TABLE
  2
LTYPE
  5
5
330
0
100
AcDbSymbolTable
 70
     6
  0
LTYPE
  5
14
330
5
100
AcDbSymbolTableRecord
100
AcDbLinetypeTableRecord
  2
ByBlock
 70
     0
  3

 72
    65
 73
     0
 40
0.0
  0
LTYPE
  5
15
330
5
100
AcDbSymbolTableRecord
100
AcDbLinetypeTableRecord
  2
ByLayer
 70
     0
  3

 72
    65
 73
     0
 40
0.0
  0
LTYPE
  5
16
330
5
100
AcDbSymbolTableRecord
100
AcDbLinetypeTableRecord
  2
Continuous
 70
     0
  3
Solid line
 72
    65
 73
     0
 40
0.0
  0
LTYPE
  5
6E
330
5
100
AcDbSymbolTableRecord
100
AcDbLinetypeTableRecord
  2
HIDDEN
 70
     0
  3
Hidden __ __ __ __ __ __ __ __ __ __ __ __ __ __
 72
    65
 73
     2
 40
1.905
 49
1.27
 74
     0
 49
-0.635
 74
     0
  0
LTYPE
  5
6F
330
5
100
AcDbSymbolTableRecord
100
AcDbLinetypeTableRecord
  2
PHANTOM
 70
     0
  3
Phantom ______  __  __  ______  __  __  ______
 72
    65
 73
     6
 40
12.7
 49
6.35
 74
     0
 49
-1.27
 74
     0
 49
1.27
 74
     0
 49
-1.27
 74
     0
 49
1.27
 74
     0
 49
-1.27
 74
     0
  0
LTYPE
  5
70
330
5
100
AcDbSymbolTableRecord
100
AcDbLinetypeTableRecord
  2
CENTER
 70
     0
  3
Center ____ _ ____ _ ____ _ ____ _ ____ _ ____
 72
    65
 73
     4
 40
10.16
 49
6.35
 74
     0
 49
-1.27
 74
     0
 49
1.27
 74
     0
 49
-1.27
 74
     0
  0
LTYPE
  5
71
330
5
100
AcDbSymbolTableRecord
100
AcDbLinetypeTableRecord
  2
CENTERX2
 70
     0
  3
Center (2x) ________  __  ________  __  _____
 72
    65
 73
     4
 40
20.32
 49
12.7
 74
     0
 49
-2.54
 74
     0
 49
2.54
 74
     0
 49
-2.54
 74
     0
  0
LTYPE
  5
72
330
5
100
AcDbSymbolTableRecord
100
AcDbLinetypeTableRecord
  2
DOT2
 70
     0
  3
Dot (.5x) ........................................
 72
    65
 73
     2
 40
0.635
 49
0.0
 74
     0
 49
-0.635
 74
     0
  0
ENDTAB
  0
TABLE
  2
LAYER
  5
2
330
0
100
AcDbSymbolTable
 70
     1
  0
LAYER
  5
10
330
2
100
AcDbSymbolTableRecord
100
AcDbLayerTableRecord
  2
0
 70
     0
 62
     7
  6
Continuous
370
    -3
390
F
  0
ENDTAB
  0
TABLE
  2
STYLE
  5
3
330
0
100
AcDbSymbolTable
 70
     2
  0
STYLE
  5
11
330
3
100
AcDbSymbolTableRecord
100
AcDbTextStyleTableRecord
  2
Standard
 70
     0
 40
0.0
 41
1.0
 50
0.0
 71
     0
 42
3.5
  3
txt
  4

  0
STYLE
  5
14E
330
3
100
AcDbSymbolTableRecord
100
AcDbTextStyleTableRecord
  2
SLDTEXTSTYLE0
 70
     0
 40
0.0
 41
0.7
 50
0.0
 71
     0
 42
3.5
  3
TXT
  4

  0
ENDTAB
  0
TABLE
  2
VIEW
  5
6
330
0
100
AcDbSymbolTable
 70
     0
  0
ENDTAB
  0
TABLE
  2
UCS
  5
7
330
0
100
AcDbSymbolTable
 70
     0
  0
ENDTAB
  0
TABLE
  2
APPID
  5
9
330
0
100
AcDbSymbolTable
 70
     1
  0
APPID
  5
12
330
9
100
AcDbSymbolTableRecord
100
AcDbRegAppTableRecord
  2
ACAD
 70
     0
  0
ENDTAB
  0
TABLE
  2
DIMSTYLE
  5
A
330
0
100
AcDbSymbolTable
 70
     1
100
AcDbDimStyleTable
  0
DIMSTYLE
105
27
330
A
100
AcDbSymbolTableRecord
100
AcDbDimStyleTableRecord
  2
ISO-25
 70
     0
 41
2.5
 42
0.625
 43
3.75
 44
1.25
 73
     0
 74
     0
 77
     1
 78
     8
140
2.5
141
2.5
143
0.0393700787
147
0.625
171
     3
172
     1
178
     0
271
     2
272
     2
274
     3
278
    44
283
     0
284
     8
340
11
  0
ENDTAB
  0
TABLE
  2
BLOCK_RECORD
  5
1
330
0
100
AcDbSymbolTable
 70
     1
  0
BLOCK_RECORD
  5
1F
330
1
100
AcDbSymbolTableRecord
100
AcDbBlockTableRecord
  2
*Model_Space
340
22
  0
BLOCK_RECORD
  5
1B
330
1
100
AcDbSymbolTableRecord
100
AcDbBlockTableRecord
  2
*Paper_Space
340
1E
  0
BLOCK_RECORD
  5
23
330
1
100
AcDbSymbolTableRecord
100
AcDbBlockTableRecord
  2
*Paper_Space0
340
26
  0
ENDTAB
  0
ENDSEC
  0
SECTION
  2
BLOCKS
  0
BLOCK
  5
20
330
1F
100
AcDbEntity
  8
0
100
AcDbBlockBegin
  2
*Model_Space
 70
     0
 10
0.0
 20
0.0
 30
0.0
  3
*Model_Space
  1

  0
ENDBLK
  5
21
330
1F
100
AcDbEntity
  8
0
100
AcDbBlockEnd
  0
BLOCK
  5
1C
330
1B
100
AcDbEntity
 67
     1
  8
0
100
AcDbBlockBegin
  2
*Paper_Space
 70
     0
 10
0.0
 20
0.0
 30
0.0
  3
*Paper_Space
  1

  0
ENDBLK
  5
1D
330
1B
100
AcDbEntity
 67
     1
  8
0
100
AcDbBlockEnd
  0
BLOCK
  5
24
330
23
100
AcDbEntity
  8
0
100
AcDbBlockBegin
  2
*Paper_Space0
 70
     0
 10
0.0
 20
0.0
 30
0.0
  3
*Paper_Space0
  1

  0
ENDBLK
  5
25
330
23
100
AcDbEntity
  8
0
100
AcDbBlockEnd
  0
ENDSEC
  0
SECTION
  2
ENTITIES
  0
LINE
  5
73
330
1F
100
AcDbEntity
  8
0
  6
Continuous
 62
     7
370
    25
100
AcDbLine
 10
16.953127232
 20
36.5909394251
 30
0.0
 11
16.6390246679
 21
36.5909394251
 31
0.0
  0
LINE
  5
74
330
1F
100
AcDbEntity
  8
0
  6
Continuous
 62
     7
370
    25
100
AcDbLine
 10
16.6390246679
 20
36.5909394251
 30
0.0
 11
16.6390246679
 21
39.1486317328
 31
0.0
  0
LINE
  5
75
330
1F
100
AcDbEntity
  8
0
  6
Continuous
 62
     7
370
    25
100
AcDbLine
 10
16.6390246679
 20
39.1486317328
 30
0.0
 11
16.953127232
 21
39.1486317328
 31
0.0
  0
LINE
  5
76
330
1F
100
AcDbEntity
  8
0
  6
Continuous
 62
     7
370
    25
100
AcDbLine
 10
16.953127232
 20
39.1486317328
 30
0.0
 11
16.953127232
 21
38.7721293289
 31
0.0
  0
SPLINE
  5
77
330
1F
100
AcDbEntity
  8
0
  6
Continuous
 62
     7
370
    25
100
AcDbSpline
210
0.0
220
0.0
230
1.0
 70
     8
 71
     3
 72
    15
 73
    11
 74
     0
 42
0.00000001
 43
0.00000001
 40
0.0
 40
0.0
 40
0.0
 40
0.0
 40
0.1600594124854964
 40
0.3061123827401289
 40
0.4383665141302077
 40
0.5605414552552149
 40
0.6753172249527
 40
0.7861136344281761
 40
0.8928417881050849
 40
1.0
 40
1.0
 40
1.0
 40
1.0
 10
16.9531272319533
 20
38.77212932893663
 30
0.0
 10
16.9763159907046
 20
38.80718515726252
 30
0.0
 10
17.02066431164317
 20
38.8742291565571
 30
0.0
 10
17.09437724099693
 20
38.96289845754897
 30
0.0
 10
17.16988057227532
 20
39.03631350416034
 30
0.0
 10
17.24753575957789
 20
39.09481702293026
 30
0.0
 10
17.32791385948802
 20
39.13863014175407
 30
0.0
 10
17.40925081120602
 20
39.17072317678564
 30
0.0
 10
17.49282628106348
 20
39.18970049202295
 30
0.0
 10
17.54898820529137
 20
39.19223415098025
 30
0.0
 10
17.57712562938919
 20
39.19350352765458
 30
0.0
  0
SPLINE
  5
78
330
1F
100
AcDbEntity
  8
0
  6
Continuous
 62
     7
370
    25
100
AcDbSpline
210
0.0
220
0.0
230
1.0
 70
     8
 71
     3
 72
    11
 73
     7
 74
     0
 42
0.00000001
 43
0.00000001
 40
0.0
 40
0.0
 40
0.0
 40
0.0
 40
0.2252775478670042
 40
0.463523195176476
 40
0.7203235553269154
 40
1.0
 40
1.0
 40
1.0
 40
1.0
 10
17.57712562938919
 20
39.19350352765458
 30
0.0
 10
17.59895195587588
 20
39.19231300105966
 30
0.0
 10
17.64386104108151
 20
39.18986341522013
 30
0.0
 10
17.71184363088577
 20
39.17265259057829
 30
0.0
 10
17.78188708279536
 20
39.14517456802527
 30
0.0
 10
17.82702947004591
 20
39.11933434536029
 30
0.0
 10
17.85056312938919
 20
39.10586330329561
 30
0.0
  0
LINE
  5
79
330
1F
100
AcDbEntity
  8
0
  6
Continuous
 62
     7
370
    25
100
AcDbLine
 10
17.8505631294
 20
39.1058633033
 30
0.0
 11
17.6780871679
 21
38.8338280469
 31
0.0
  0
SPLINE
  5
7A
330
1F
100
AcDbEntity
  8
0
  6
Continuous
 62
     7
370
    25
100
AcDbSpline
210
0.0
220
0.0
230
1.0
 70
     8
 71
     3
 72
    11
 73
     7
 74
     0
 42
0.00000001
 43
0.00000001
 40
0.0
 40
0.0
 40
0.0
 40
0.0
 40
0.2951388013693788
 40
0.56022994488823
 40
0.7949833567409033
 40
1.0
 40
1.0
 40
1.0
 40
1.0
 10
17.67808716785073
 20
38.83382804688535
 30
0.0
 10
17.66297814670687
 20
38.8405683130005
 30
0.0
 10
17.63429833218071
 20
38.85336262840971
 30
0.0
 10
17.59234376591197
 20
38.86850463854176
 30
0.0
 10
17.55366242918109
 20
38.87742055438988
 30
0.0
 10
17.52901887081822
 20
38.87877127184198
 30
0.0
 10
17.51753027682509
 20
38.87940096355202
 30
0.0
  0
SPLINE
  5
7B
330
1F
100
AcDbEntity
  8
0
  6
Continuous
 62
     7
370
    25
100
AcDbSpline
210
0.0
220
0.0
230
1.0
 70
     8
 71
     3
 72
    19
 73
    15
 74
     0
 42
0.00000001
 43
0.00000001
 40
0.0
 40
0.0
 40
0.0
 40
0.0
 40
0.0938065293523298
 40
0.191338128136334
 40
0.295190616625169
 40
0.4103123367232981
 40
0.4719302510512747
 40
0.5364251593464312
 40
0.6031187283036287
 40
0.674117672490595
 40
0.7493320232258813
 40
0.82828338417156
 40
0.9120398092627607
 40
0.9999999999999999
 40
0.9999999999999999
 40
0.9999999999999999
 40
0.9999999999999999
 10
17.51753027682509
 20
38.87940096355202
 30
0.0
 10
17.49232454331407
 20
38.87772092618345
 30
0.0
 10
17.44091215334933
 20
38.8742941369448
 30
0.0
 10
17.36542765393958
 20
38.84735532917779
 30
0.0
 10
17.29218044843824
 20
38.80383008906465
 30
0.0
 10
17.23400878610223
 20
38.75555897721377
 30
0.0
 10
17.18896653322741
 20
38.70901117974941
 30
0.0
 10
17.15682630769664
 20
38.66836277718242
 30
0.0
 10
17.12734356074296
 20
38.62278414565396
 30
0.0
 10
17.09917334034246
 20
38.57305446185063
 30
0.0
 10
17.07350704613332
 20
38.51832461581839
 30
0.0
 10
17.04955237692959
 20
38.4591414023965
 30
0.0
 10
17.02789351400721
 20
38.3954362736267
 30
0.0
 10
17.01554326978296
 20
38.35105375340643
 30
0.0
 10
17.00921697554304
 20
38.32831923278279
 30
0.0
  0
SPLINE
  5
7C
330
1F
100
AcDbEntity
  8
0
  6
Continuous
 62
     7
370
    25
100
AcDbSpline
210
0.0
220
0.0
230
1.0
 70
     8
 71
     3
 72
    15
 73
    11
 74
     0
 42
0.00000001
 43
0.00000001
 40
0.0
 40
0.0
 40
0.0
 40
0.0
 40
0.070854868501526
 40
0.1569381495573543
 40
0.2586003949600787
 40
0.3758909295892008
 40
0.5081661676989011
 40
0.6562378085782249
 40
0.8201767703979089
 40
0.9999999999999999
 40
0.9999999999999999
 40
0.9999999999999999
 40
0.9999999999999999
 10
17.00921697554304
 20
38.32831923278279
 30
0.0
 10
17.00448458217796
 20
38.30804205920397
 30
0.0
 10
16.994002690483
 20
38.26312966056415
 30
0.0
 10
16.98381115263938
 20
38.18778113584236
 30
0.0
 10
16.97374163466284
 20
38.09875747707837
 30
0.0
 10
16.9666450163121
 20
37.99581088419481
 30
0.0
 10
16.96006697418481
 20
37.87919844026666
 30
0.0
 10
16.95635689195767
 20
37.74874249464304
 30
0.0
 10
16.95325375140093
 20
37.60430914350101
 30
0.0
 10
16.95317068453002
 20
37.50333479026877
 30
0.0
 10
16.9531272319533
 20
37.4505147456033
 30
0.0
  0
LINE
  5
7D
330
1F
100
AcDbEntity
  8
0
  6
Continuous
 62
     7
370
    25
100
AcDbLine
 10
16.953127232
 20
37.4505147456
 30
0.0
 11
16.953127232
 21
36.5909394251
 31
0.0
  0
LINE
  5
7E
330
1F
100
AcDbEntity
  8
0
  6
Continuous
 62
     7
370
    25
100
AcDbLine
 10
20.453127232
 20
38.6753745212
 30
0.0
 11
20.453127232
 21
39.1486317328
 31
0.0
  0
LINE
  5
7F
330
1F
100
AcDbEntity
  8
0
  6
Continuous
 62
     7
370
    25
100
AcDbLine
 10
20.453127232
 20
39.1486317328
 30
0.0
 11
20.7672297961
 21
39.1486317328
 31
0.0
  0
LINE
  5
80
330
1F
100
AcDbEntity
  8
0
  6
Continuous
 62
     7
370
    25
100
AcDbLine
 10
20.7672297961
 20
39.1486317328
 30
0.0
 11
20.7672297961
 21
36.5909394251
 31
0.0
  0
LINE
  5
81
330
1F
100
AcDbEntity
  8
0
  6
Continuous
 62
     7
370
    25
100
AcDbLine
 10
20.7672297961
 20
36.5909394251
 30
0.0
 11
20.453127232
 21
36.5909394251
 31
0.0
  0
LINE
  5
82
330
1F
100
AcDbEntity
  8
0
  6
Continuous
 62
     7
370
    25
100
AcDbLine
 10
20.453127232
 20
36.5909394251
 30
0.0
 11
20.453127232
 21
37.0333472777
 31
0.0
  0
SPLINE
  5
83
330
1F
100
AcDbEntity
  8
0
  6
Continuous
 62
     7
370
    25
100
AcDbSpline
210
0.0
220
0.0
230
1.0
 70
     8
 71
     3
 72
    15
 73
    11
 74
     0
 42
0.00000001
 43
0.00000001
 40
0.0
 40
0.0
 40
0.0
 40
0.0
 40
0.1342983790141687
 40
0.2620849753822981
 40
0.3862699121344995
 40
0.5071645966227994
 40
0.6273002357255061
 40
0.7481449416029938
 40
0.8723701771613499
 40
1.0
 40
1.0
 40
1.0
 40
1.0
 10
20.4531272319533
 20
37.03334727765458
 30
0.0
 10
20.41770844132713
 20
36.99330768369674
 30
0.0
 10
20.34858822604629
 20
36.91516991260981
 30
0.0
 10
20.23314710807482
 20
36.81308774011906
 30
0.0
 10
20.11077893017233
 20
36.72870941857901
 30
0.0
 10
19.98207760904164
 20
36.66055950287861
 30
0.0
 10
19.84715936569701
 20
36.60936744654126
 30
0.0
 10
19.70632327842077
 20
36.57298128741546
 30
0.0
 10
19.55951189755522
 20
36.54958745224321
 30
0.0
 10
19.45925954276521
 20
36.54725143037417
 30
0.0
 10
19.40845575759432
 20
36.54606763021869
 30
0.0
  0
SPLINE
  5
84
330
1F
100
AcDbEntity
  8
0
  6
Continuous
 62
     7
370
    25
100
AcDbSpline
210
0.0
220
0.0
230
1.0
 70
     8
 71
     3
 72
    23
 73
    19
 74
     0
 42
0.00000001
 43
0.00000001
 40
0.0
 40
0.0
 40
0.0
 40
0.0
 40
0.0646199913407682
 40
0.1274334841444694
 40
0.1890041265579399
 40
0.2499300706860462
 40
0.310668453740672
 40
0.3723289611368251
 40
0.4349391099970082
 40
0.4995755441940344
 40
0.5641912077719234
 40
0.6267352169294784
 40
0.6881093335613994
 40
0.7492936065367491
 40
0.8103305278109452
 40
0.8719011702244144
 40
0.935045914684531
 40
1.0
 40
1.0
 40
1.0
 40
1.0
 10
19.40845575759432
 20
36.54606763021869
 30
0.0
 10
19.36328780376178
 20
36.54729400248783
 30
0.0
 10
19.27421459887379
 20
36.54971246290346
 30
0.0
 10
19.14318552173488
 20
36.56847476652175
 30
0.0
 10
19.01709327228221
 20
36.59860538816381
 30
0.0
 10
18.89581869962043
 20
36.6405062776556
 30
0.0
 10
18.78014655418633
 20
36.69608709929379
 30
0.0
 10
18.66908645751401
 20
36.76262834733519
 30
0.0
 10
18.56321376549489
 20
36.84186917741583
 30
0.0
 10
18.46414222653105
 20
36.93245720576874
 30
0.0
 10
18.37291022615513
 20
37.03085219295234
 30
0.0
 10
18.29284895353296
 20
37.13579773982747
 30
0.0
 10
18.22609587367821
 20
37.24684004372014
 30
0.0
 10
18.17027579297093
 20
37.36257319760885
 30
0.0
 10
18.12727944853021
 20
37.48388811714288
 30
0.0
 10
18.09730581427228
 20
37.61036528508267
 30
0.0
 10
18.07856536757162
 20
37.74185515862251
 30
0.0
 10
18.07614790688667
 20
37.83139468171812
 30
0.0
 10
18.07492210374817
 20
37.87679679688535
 30
0.0
  0
SPLINE
  5
85
330
1F
100
AcDbEntity
  8
0
  6
Continuous
 62
     7
370
    25
100
AcDbSpline
210
0.0
220
0.0
230
1.0
 70
     8
 71
     3
 72
    23
 73
    19
 74
     0
 42
0.00000001
 43
0.00000001
 40
0.0
 40
0.0
 40
0.0
 40
0.0
 40
0.0637745323056296
 40
0.1260788099895049
 40
0.1869040927472056
 40
0.2475739349176201
 40
0.3080033561644447
 40
0.3691318984609768
 40
0.4320332277442049
 40
0.4967907944370908
 40
0.5616108232295658
 40
0.624913865748462
 40
0.6867263492419238
 40
0.7480788332577697
 40
0.8095822911398951
 40
0.8716307425688274
 40
0.9348858208285531
 40
1.0
 40
1.0
 40
1.0
 40
1.0
 10
18.07492210374817
 20
37.87679679688535
 30
0.0
 10
18.07617507513305
 20
37.92126050045479
 30
0.0
 10
18.07865213196822
 20
38.00916284377412
 30
0.0
 10
18.09710535180848
 20
38.13844154175997
 30
0.0
 10
18.12813636046766
 20
38.26295980249321
 30
0.0
 10
18.17168420813355
 20
38.38231674571698
 30
0.0
 10
18.22752616309667
 20
38.49665679586556
 30
0.0
 10
18.29545425011752
 20
38.6060608208805
 30
0.0
 10
18.37547337481636
 20
38.71083021834254
 30
0.0
 10
18.46772578183274
 20
38.8085014451613
 30
0.0
 10
18.56766055199538
 20
38.89872205943069
 30
0.0
 10
18.67456928291075
 20
38.97713110487316
 30
0.0
 10
18.78579256423158
 20
39.04484795368918
 30
0.0
 10
18.90305557475397
 20
39.09850142999553
 30
0.0
 10
19.02462267956797
 20
39.14191053454
 30
0.0
 10
19.15157612531519
 20
39.1719435026405
 30
0.0
 10
19.28338770399077
 20
39.1896408238805
 30
0.0
 10
19.37287819605538
 20
39.19220358803159
 30
0.0
 10
19.41827146272253
 20
39.19350352765458
 30
0.0
  0
SPLINE
  5
86
330
1F
100
AcDbEntity
  8
0
  6
Continuous
 62
     7
370
    25
100
AcDbSpline
210
0.0
220
0.0
230
1.0
 70
     8
 71
     3
 72
    15
 73
    11
 74
     0
 42
0.00000001
 43
0.00000001
 40
0.0
 40
0.0
 40
0.0
 40
0.0
 40
0.1298621417207352
 40
0.2546535308972889
 40
0.3760145541937124
 40
0.4952552518176068
 40
0.6147977192994574
 40
0.7381055541683316
 40
0.8651963000723548
 40
1.0
 40
1.0
 40
1.0
 40
1.0
 10
19.41827146272253
 20
39.19350352765458
 30
0.0
 10
19.47047132178547
 20
39.19206577611272
 30
0.0
 10
19.57283278176589
 20
39.18924641319573
 30
0.0
 10
19.7225607910327
 20
39.16578368587675
 30
0.0
 10
19.86420526893627
 20
39.12614521872191
 30
0.0
 10
19.99885962096635
 20
39.07222772069841
 30
0.0
 10
20.12604030706117
 20
39.00057899161649
 30
0.0
 10
20.24454329137712
 20
38.91019903059286
 30
0.0
 10
20.35560877468493
 20
38.80165784362272
 30
0.0
 10
20.41998906634415
 20
38.7182873991535
 30
0.0
 10
20.4531272319533
 20
38.67537452124432
 30
0.0
  0
LINE
  5
87
330
1F
100
AcDbEntity
  8
0
  6
Continuous
 62
     7
370
    25
100
AcDbLine
 10
25.1197938986
 20
35.6486317328
 30
0.0
 11
24.8056913345
 21
35.6486317328
 31
0.0
  0
LINE
  5
88
330
1F
100
AcDbEntity
  8
0
  6
Continuous
 62
     7
370
    25
100
AcDbLine
 10
24.8056913345
 20
35.6486317328
 30
0.0
 11
24.8056913345
 21
39.1486317328
 31
0.0
  0
LINE
  5
89
330
1F
100
AcDbEntity
  8
0
  6
Continuous
 62
     7
370
    25
100
AcDbLine
 10
24.8056913345
 20
39.1486317328
 30
0.0
 11
25.1197938986
 21
39.1486317328
 31
0.0
  0
LINE
  5
8A
330
1F
100
AcDbEntity
  8
0
  6
Continuous
 62
     7
370
    25
100
AcDbLine
 10
25.1197938986
 20
39.1486317328
 30
0.0
 11
25.1197938986
 21
38.6753745212
 31
0.0
  0
SPLINE
  5
8B
330
1F
100
AcDbEntity
  8
0
  6
Continuous
 62
     7
370
    25
100
AcDbSpline
210
0.0
220
0.0
230
1.0
 70
     8
 71
     3
 72
    15
 73
    11
 74
     0
 42
0.00000001
 43
0.00000001
 40
0.0
 40
0.0
 40
0.0
 40
0.0
 40
0.1353597999413076
 40
0.2630446827611714
 40
0.3860610822643585
 40
0.5057706525454597
 40
0.6251780311387026
 40
0.7461477220466162
 40
0.8705380668997066
 40
1.0
 40
1.0
 40
1.0
 40
1.0
 10
25.11979389861996
 20
38.67537452124432
 30
0.0
 10
25.15315138267159
 20
38.71831225506293
 30
0.0
 10
25.21797497737161
 20
38.80175314796983
 30
0.0
 10
25.32969988223687
 20
38.90974327655682
 30
0.0
 10
25.44762669115271
 20
39.00081858020301
 30
0.0
 10
25.57479010365486
 20
39.07220111318782
 30
0.0
 10
25.70921379366956
 20
39.1260219251005
 30
0.0
 10
25.85034611111784
 20
39.16580137498611
 30
0.0
 10
25.99938487599851
 20
39.18924284958913
 30
0.0
 10
26.10128132867835
 20
39.19206451077817
 30
0.0
 10
26.15324742426099
 20
39.19350352765458
 30
0.0
  0
SPLINE
  5
8C
330
1F
100
AcDbEntity
  8
0
  6
Continuous
 62
     7
370
    25
100
AcDbSpline
210
0.0
220
0.0
230
1.0
 70
     8
 71
     3
 72
    23
 73
    19
 74
     0
 42
0.00000001
 43
0.00000001
 40
0.0
 40
0.0
 40
0.0
 40
0.0
 40
0.0650810177750297
 40
0.1286360505630815
 40
0.1906529019116444
 40
0.252125037268111
 40
0.3134462756463783
 40
0.3752272792333952
 40
0.4384980827328628
 40
0.5032850999340378
 40
0.5680096868463687
 40
0.6308789816949775
 40
0.6921535040082786
 40
0.7525521497156007
 40
0.8131910939047715
 40
0.8739853995183329
 40
0.9362579468344595
 40
1.0
 40
1.0
 40
1.0
 40
1.0
 10
26.15324742426099
 20
39.19350352765458
 30
0.0
 10
26.19863902745813
 20
39.19219034876287
 30
0.0
 10
26.28835791575503
 20
39.18959478169757
 30
0.0
 10
26.42042114468456
 20
39.17202172713034
 30
0.0
 10
26.54759652820959
 20
39.1419040346974
 30
0.0
 10
26.66916458218603
 20
39.09850311933263
 30
0.0
 10
26.78642764737221
 20
39.04484764939761
 30
0.0
 10
26.8976497472078
 20
38.97713061382041
 30
0.0
 10
27.00456330283611
 20
38.8987244230286
 30
0.0
 10
27.10447949193949
 20
38.80849227220781
 30
0.0
 10
27.19680085946535
 20
38.71086400579003
 30
0.0
 10
27.2766470405834
 20
38.60584170165633
 30
0.0
 10
27.34551894489804
 20
38.49687911525728
 30
0.0
 10
27.40118924136044
 20
38.38228702303202
 30
0.0
 10
27.44479758877568
 20
38.26296779319516
 30
0.0
 10
27.47581226641405
 20
38.13843935228574
 30
0.0
 10
27.49426990990015
 20
38.009163411843
 30
0.0
 10
27.49674636155765
 20
37.92126069127749
 30
0.0
 10
27.49799902682509
 20
37.87679679688535
 30
0.0
  0
SPLINE
  5
8D
330
1F
100
AcDbEntity
  8
0
  6
Continuous
 62
     7
370
    25
100
AcDbSpline
210
0.0
220
0.0
230
1.0
 70
     8
 71
     3
 72
    23
 73
    19
 74
     0
 42
0.00000001
 43
0.00000001
 40
0.0
 40
0.0
 40
0.0
 40
0.0
 40
0.0649212959378685
 40
0.1280341643911175
 40
0.1895737254178903
 40
0.2505798347323848
 40
0.3117332213636332
 40
0.3732500799286349
 40
0.4357625163356402
 40
0.5003455613741152
 40
0.5649493665465414
 40
0.6275279092682865
 40
0.6891572899131303
 40
0.7498650117126995
 40
0.8107601999033175
 40
0.8722997609300915
 40
0.935412629383339
 40
1.0
 40
1.0
 40
1.0
 40
1.0
 10
27.49799902682509
 20
37.87679679688535
 30
0.0
 10
27.49677354126534
 20
37.83139448833216
 30
0.0
 10
27.49435670689152
 20
37.74185458385154
 30
0.0
 10
27.47561170095013
 20
37.61036748660928
 30
0.0
 10
27.44565482681973
 20
37.48388011278126
 30
0.0
 10
27.40259664369422
 20
37.36260284920802
 30
0.0
 10
27.34695515534223
 20
37.24661919791537
 30
0.0
 10
27.27925059497912
 20
37.13601280186545
 30
0.0
 10
27.19936412787018
 20
37.03081909871541
 30
0.0
 10
27.10806300015837
 20
36.93246619861496
 30
0.0
 10
27.00901006410153
 20
36.84186688572036
 30
0.0
 10
26.90313257460421
 20
36.76262881610618
 30
0.0
 10
26.79207364906164
 20
36.69608744081323
 30
0.0
 10
26.6764014819255
 20
36.64050448124521
 30
0.0
 10
26.5551258434218
 20
36.59861229717608
 30
0.0
 10
26.42881256572024
 20
36.56839449655185
 30
0.0
 10
26.29753041922299
 20
36.54976000081709
 30
0.0
 10
26.20822926723067
 20
36.54730785837837
 30
0.0
 10
26.16306312938919
 20
36.54606763021869
 30
0.0
  0
SPLINE
  5
8E
330
1F
100
AcDbEntity
  8
0
  6
Continuous
 62
     7
370
    25
100
AcDbSpline
210
0.0
220
0.0
230
1.0
 70
     8
 71
     3
 72
    15
 73
    11
 74
     0
 42
0.00000001
 43
0.00000001
 40
0.0
 40
0.0
 40
0.0
 40
0.0
 40
0.1268408077972016
 40
0.2505477821575817
 40
0.371230203565263
 40
0.4921157704266528
 40
0.6134009879986375
 40
0.7379973201236228
 40
0.8661319098407466
 40
1.0
 40
1.0
 40
1.0
 40
1.0
 10
26.16306312938919
 20
36.54606763021869
 30
0.0
 10
26.11223555743928
 20
36.54736243793236
 30
0.0
 10
26.01183620138292
 20
36.5499200627742
 30
0.0
 10
25.86503853097041
 20
36.57583947282934
 30
0.0
 10
25.72376167905998
 20
36.61457640848926
 30
0.0
 10
25.58957085432838
 20
36.67127540212486
 30
0.0
 10
25.46140304180524
 20
36.74353091798443
 30
0.0
 10
25.3399832360431
 20
36.83164112395991
 30
0.0
 10
25.22466648313953
 20
36.93542174869734
 30
0.0
 10
25.15525772586448
 20
37.01415356485943
 30
0.0
 10
25.11979389861996
 20
37.05438093150074
 30
0.0
  0
LINE
  5
8F
330
1F
100
AcDbEntity
  8
0
  6
Continuous
 62
     7
370
    25
100
AcDbLine
 10
25.1197938986
 20
37.0543809315
 30
0.0
 11
25.1197938986
 21
35.6486317328
 31
0.0
  0
LINE
  5
90
330
1F
100
AcDbEntity
  8
0
  6
Continuous
 62
     7
370
    25
100
AcDbLine
 10
31.5813323602
 20
36.5909394251
 30
0.0
 11
31.2672297961
 21
36.5909394251
 31
0.0
  0
LINE
  5
91
330
1F
100
AcDbEntity
  8
0
  6
Continuous
 62
     7
370
    25
100
AcDbLine
 10
31.2672297961
 20
36.5909394251
 30
0.0
 11
31.2672297961
 21
39.1486317328
 31
0.0
  0
LINE
  5
92
330
1F
100
AcDbEntity
  8
0
  6
Continuous
 62
     7
370
    25
100
AcDbLine
 10
31.2672297961
 20
39.1486317328
 30
0.0
 11
31.5813323602
 21
39.1486317328
 31
0.0
  0
LINE
  5
93
330
1F
100
AcDbEntity
  8
0
  6
Continuous
 62
     7
370
    25
100
AcDbLine
 10
31.5813323602
 20
39.1486317328
 30
0.0
 11
31.5813323602
 21
38.6872935918
 31
0.0
  0
SPLINE
  5
94
330
1F
100
AcDbEntity
  8
0
  6
Continuous
 62
     7
370
    25
100
AcDbSpline
210
0.0
220
0.0
230
1.0
 70
     8
 71
     3
 72
    15
 73
    11
 74
     0
 42
0.00000001
 43
0.00000001
 40
0.0
 40
0.0
 40
0.0
 40
0.0
 40
0.1409759662687718
 40
0.2735687809631741
 40
0.3989883138042514
 40
0.5199297813924371
 40
0.6381100215247478
 40
0.7565889007405934
 40
0.8768597544106072
 40
1.0
 40
1.0
 40
1.0
 40
1.0
 10
31.58133236015842
 20
38.68729359175715
 30
0.0
 10
31.61486999529054
 20
38.72913631459478
 30
0.0
 10
31.6799509463371
 20
38.81033357808467
 30
0.0
 10
31.78833527961251
 20
38.91705415264476
 30
0.0
 10
31.90287917993513
 20
39.00499937768954
 30
0.0
 10
32.02288118342228
 20
39.07510317163386
 30
0.0
 10
32.14850419352221
 20
39.12794979778252
 30
0.0
 10
32.27898246348531
 20
39.16611572886818
 30
0.0
 10
32.41509716957312
 20
39.18900055740782
 30
0.0
 10
32.50766160644665
 20
39.19199078770734
 30
0.0
 10
32.55448941144048
 20
39.19350352765459
 30
0.0
  0
SPLINE
  5
95
330
1F
100
AcDbEntity
  8
0
  6
Continuous
 62
     7
370
    25
100
AcDbSpline
210
0.0
220
0.0
230
1.0
 70
     8
 71
     3
 72
    23
 73
    19
 74
     0
 42
0.00000001
 43
0.00000001
 40
0.0
 40
0.0
 40
0.0
 40
0.0
 40
0.0772404236164784
 40
0.1511781404663834
 40
0.2234879838004021
 40
0.2955426441988727
 40
0.3669762546197931
 40
0.43713052548639
 40
0.5070436156432686
 40
0.5785597335236778
 40
0.6166135446965537
 40
0.6587562369775296
 40
0.7044912261144062
 40
0.7548031149051514
 40
0.8093316253185662
 40
0.8682744554728229
 40
0.9320728834092955
 40
1.0
 40
1.0
 40
1.0
 40
1.0
 10
32.55448941144047
 20
39.19350352765458
 30
0.0
 10
32.60182004555702
 20
39.19175833221338
 30
0.0
 10
32.69445751332083
 20
39.1883425637699
 30
0.0
 10
32.82933557470289
 20
39.16132587265886
 30
0.0
 10
32.95530896838968
 20
39.11518061753421
 30
0.0
 10
33.07192852417776
 20
39.05196854713116
 30
0.0
 10
33.1770557375404
 20
38.97336207372736
 30
0.0
 10
33.26938058901658
 20
38.88178429196821
 30
0.0
 10
33.34574383639414
 20
38.77644820873259
 30
0.0
 10
33.39694119939386
 20
38.67872505249598
 30
0.0
 10
33.43066684708486
 20
38.59203625822322
 30
0.0
 10
33.45189918459867
 20
38.51778950812434
 30
0.0
 10
33.46993016605806
 20
38.43507135695528
 30
0.0
 10
33.48556191407574
 20
38.34413176790088
 30
0.0
 10
33.49613902594318
 20
38.24433357764852
 30
0.0
 10
33.50448131747446
 20
38.13608588559558
 30
0.0
 10
33.51046001176276
 20
38.01942375510002
 30
0.0
 10
33.51069721874951
 20
37.93873712769015
 30
0.0
 10
33.5108195396456
 20
37.89712932893664
 30
0.0
  0
LINE
  5
96
330
1F
100
AcDbEntity
  8
0
  6
Continuous
 62
     7
370
    25
100
AcDbLine
 10
33.5108195396
 20
37.8971293289
 30
0.0
 11
33.5108195396
 21
36.5909394251
 31
0.0
  0
LINE
  5
97
330
1F
100
AcDbEntity
  8
0
  6
Continuous
 62
     7
370
    25
100
AcDbLine
 10
33.5108195396
 20
36.5909394251
 30
0.0
 11
33.1967169755
 21
36.5909394251
 31
0.0
  0
LINE
  5
98
330
1F
100
AcDbEntity
  8
0
  6
Continuous
 62
     7
370
    25
100
AcDbLine
 10
33.1967169755
 20
36.5909394251
 30
0.0
 11
33.1967169755
 21
37.7940644251
 31
0.0
  0
SPLINE
  5
99
330
1F
100
AcDbEntity
  8
0
  6
Continuous
 62
     7
370
    25
100
AcDbSpline
210
0.0
220
0.0
230
1.0
 70
     8
 71
     3
 72
    15
 73
    11
 74
     0
 42
0.00000001
 43
0.00000001
 40
0.0
 40
0.0
 40
0.0
 40
0.0
 40
0.1788500194111656
 40
0.3421096489423037
 40
0.4898256633683877
 40
0.6232544282245671
 40
0.7400796760857957
 40
0.8414826730699819
 40
0.9289076721840724
 40
1.0
 40
1.0
 40
1.0
 40
1.0
 10
33.19671697554303
 20
37.79406442509048
 30
0.0
 10
33.19652376752408
 20
37.82888687001924
 30
0.0
 10
33.1961541934656
 20
37.89549628079322
 30
0.0
 10
33.19498854678107
 20
37.99086530398354
 30
0.0
 10
33.1921787401781
 20
38.07735188238633
 30
0.0
 10
33.18823042726207
 20
38.15474924979175
 30
0.0
 10
33.18245139673279
 20
38.22298308635509
 30
0.0
 10
33.17642876538283
 20
38.28219236309361
 30
0.0
 10
33.16906378858586
 20
38.3323019055264
 30
0.0
 10
33.1625008754487
 20
38.36246698790955
 30
0.0
 10
33.15955752041483
 20
38.37599551483407
 30
0.0
  0
SPLINE
  5
9A
330
1F
100
AcDbEntity
  8
0
  6
Continuous
 62
     7
370
    25
100
AcDbSpline
210
0.0
220
0.0
230
1.0
 70
     8
 71
     3
 72
    15
 73
    11
 74
     0
 42
0.00000001
 43
0.00000001
 40
0.0
 40
0.0
 40
0.0
 40
0.0
 40
0.1355195283706031
 40
0.2608331631936798
 40
0.3784760291245068
 40
0.4931776464746777
 40
0.6092809649289385
 40
0.7299810378566504
 40
0.859261308930063
 40
1.0
 40
1.0
 40
1.0
 40
1.0
 10
33.15955752041483
 20
38.37599551483407
 30
0.0
 10
33.14893198890851
 20
38.41570669978172
 30
0.0
 10
33.12848112823382
 20
38.49213844440632
 30
0.0
 10
33.07794714510865
 20
38.59581279702771
 30
0.0
 10
33.01413296432131
 20
38.68401098485704
 30
0.0
 10
32.93623511495613
 20
38.75618770648143
 30
0.0
 10
32.84500603931577
 20
38.81235854318645
 30
0.0
 10
32.74069889654791
 20
38.85133249791348
 30
0.0
 10
32.62432025587561
 20
38.87570876711241
 30
0.0
 10
32.54246587320212
 20
38.87813589912774
 30
0.0
 10
32.49980191144047
 20
38.87940096355202
 30
0.0
  0
SPLINE
  5
9B
330
1F
100
AcDbEntity
  8
0
  6
Continuous
 62
     7
370
    25
100
AcDbSpline
210
0.0
220
0.0
230
1.0
 70
     8
 71
     3
 72
    23
 73
    19
 74
     0
 42
0.00000001
 43
0.00000001
 40
0.0
 40
0.0
 40
0.0
 40
0.0
 40
0.0639861098164652
 40
0.1266268580894741
 40
0.1889843719814894
 40
0.250230193960395
 40
0.312351162962324
 40
0.3745736184579384
 40
0.4381475308782025
 40
0.5029204126073705
 40
0.5679740951402728
 40
0.630771333749189
 40
0.6929346089254558
 40
0.7543975343123289
 40
0.815218352017293
 40
0.8761169254810913
 40
0.9380146047939513
 40
1.0
 40
1.0
 40
1.0
 40
1.0
 10
32.49980191144047
 20
38.87940096355202
 30
0.0
 10
32.4745342278356
 20
38.87892495888848
 30
0.0
 10
32.42453013483384
 20
38.8779829579581
 30
0.0
 10
32.3503801629277
 20
38.86853165993509
 30
0.0
 10
32.27845598974974
 20
38.85307320433674
 30
0.0
 10
32.20803578075495
 20
38.83220456683758
 30
0.0
 10
32.14052798701992
 20
38.8035422976149
 30
0.0
 10
32.07376369583974
 20
38.77101292738999
 30
0.0
 10
32.0102569317099
 20
38.73046471540466
 30
0.0
 10
31.94865353458142
 20
38.6852740939649
 30
0.0
 10
31.89134072692825
 20
38.63519488676729
 30
0.0
 10
31.8380123885176
 20
38.58235037661441
 30
0.0
 10
31.79047436826649
 20
38.52607477281833
 30
0.0
 10
31.74740569298281
 20
38.46727482528925
 30
0.0
 10
31.71022742960523
 20
38.40514298729217
 30
0.0
 10
31.67777434154292
 20
38.34027868081336
 30
0.0
 10
31.6502386467512
 20
38.2725965319895
 30
0.0
 10
31.63655595428134
 20
38.22562147075874
 30
0.0
 10
31.62970976400457
 20
38.20211730970587
 30
0.0
  0
SPLINE
  5
9C
330
1F
100
AcDbEntity
  8
0
  6
Continuous
 62
     7
370
    25
100
AcDbSpline
210
0.0
220
0.0
230
1.0
 70
     8
 71
     3
 72
    15
 73
    11
 74
     0
 42
0.00000001
 43
0.00000001
 40
0.0
 40
0.0
 40
0.0
 40
0.0
 40
0.076995454717054
 40
0.1676150771831721
 40
0.2710523936342329
 40
0.3894595025720771
 40
0.5208428024655805
 40
0.6663987586080738
 40
0.8260936125153178
 40
1.0
 40
1.0
 40
1.0
 40
1.0
 10
31.62970976400457
 20
38.20211730970587
 30
0.0
 10
31.62577011542889
 20
38.18486210665198
 30
0.0
 10
31.61719370656793
 20
38.14729843224655
 30
0.0
 10
31.60793052670907
 20
38.08565401286196
 30
0.0
 10
31.59952295130739
 20
38.0143440378698
 30
0.0
 10
31.59248599268882
 20
37.93345172081396
 30
0.0
 10
31.58818057621824
 20
37.84269384569642
 30
0.0
 10
31.58348617944458
 20
37.74245800789242
 30
0.0
 10
31.58177711837821
 20
37.63234451953635
 30
0.0
 10
31.58148476436066
 20
37.55568282681158
 30
0.0
 10
31.58133236015842
 20
37.51571907252638
 30
0.0
  0
LINE
  5
9D
330
1F
100
AcDbEntity
  8
0
  6
Continuous
 62
     7
370
    25
100
AcDbLine
 10
31.5813323602
 20
37.5157190725
 30
0.0
 11
31.5813323602
 21
36.5909394251
 31
0.0
  0
LINE
  5
9E
330
1F
100
AcDbEntity
  8
0
  6
Continuous
 62
     7
370
    25
100
AcDbLine
 10
25.8377426166
 20
29.7576060918
 30
0.0
 11
25.5236400525
 21
29.7576060918
 31
0.0
  0
LINE
  5
9F
330
1F
100
AcDbEntity
  8
0
  6
Continuous
 62
     7
370
    25
100
AcDbLine
 10
25.5236400525
 20
29.7576060918
 30
0.0
 11
25.5236400525
 21
32.3152983994
 31
0.0
  0
LINE
  5
A0
330
1F
100
AcDbEntity
  8
0
  6
Continuous
 62
     7
370
    25
100
AcDbLine
 10
25.5236400525
 20
32.3152983994
 30
0.0
 11
25.8377426166
 21
32.3152983994
 31
0.0
  0
LINE
  5
A1
330
1F
100
AcDbEntity
  8
0
  6
Continuous
 62
     7
370
    25
100
AcDbLine
 10
25.8377426166
 20
32.3152983994
 30
0.0
 11
25.8377426166
 21
31.8707871815
 31
0.0
  0
SPLINE
  5
A2
330
1F
100
AcDbEntity
  8
0
  6
Continuous
 62
     7
370
    25
100
AcDbSpline
210
0.0
220
0.0
230
1.0
 70
     8
 71
     3
 72
    11
 73
     7
 74
     0
 42
0.00000001
 43
0.00000001
 40
0.0
 40
0.0
 40
0.0
 40
0.0
 40
0.2835948081386906
 40
0.5433948405759608
 40
0.7806456291745587
 40
1.0
 40
1.0
 40
1.0
 40
1.0
 10
25.83774261656868
 20
31.87078718150073
 30
0.0
 10
25.86602656648288
 20
31.90967478323059
 30
0.0
 10
25.92022132609558
 20
31.98418715629222
 30
0.0
 10
26.00908697858792
 20
32.08237744052818
 30
0.0
 10
26.09786309106709
 20
32.16570559518232
 30
0.0
 10
26.16179647283528
 20
32.2094484667866
 30
0.0
 10
26.19251024477381
 20
32.23046266226997
 30
0.0
  0
SPLINE
  5
A3
330
1F
100
AcDbEntity
  8
0
  6
Continuous
 62
     7
370
    25
100
AcDbSpline
210
0.0
220
0.0
230
1.0
 70
     8
 71
     3
 72
    11
 73
     7
 74
     0
 42
0.00000001
 43
0.00000001
 40
0.0
 40
0.0
 40
0.0
 40
0.0
 40
0.2537340756906586
 40
0.5030351201318531
 40
0.7500135973308784
 40
1.0
 40
1.0
 40
1.0
 40
1.0
 10
26.19251024477381
 20
32.23046266226997
 30
0.0
 10
26.23437490695905
 20
32.25046802751527
 30
0.0
 10
26.31737280668659
 20
32.29012924086257
 30
0.0
 10
26.4487920316084
 20
32.330362799826
 30
0.0
 10
26.58326670114485
 20
32.3550879011347
 30
0.0
 10
26.67407491504821
 20
32.35846927456822
 30
0.0
 10
26.7197538345174
 20
32.36017019432126
 30
0.0
  0
SPLINE
  5
A4
330
1F
100
AcDbEntity
  8
0
  6
Continuous
 62
     7
370
    25
100
AcDbSpline
210
0.0
220
0.0
230
1.0
 70
     8
 71
     3
 72
    19
 73
    15
 74
     0
 42
0.00000001
 43
0.00000001
 40
0.0
 40
0.0
 40
0.0
 40
0.0
 40
0.0841520188443169
 40
0.1665323202984593
 40
0.2488363311465317
 40
0.3312461454872604
 40
0.4129571090216179
 40
0.49049427766957
 40
0.5661557919819249
 40
0.639987334686466
 40
0.7167654882718493
 40
0.8021439047101007
 40
0.895833200710195
 40
1.0
 40
1.0
 40
1.0
 40
1.0
 10
26.7197538345174
 20
32.36017019432125
 30
0.0
 10
26.75064683108494
 20
32.35912490354078
 30
0.0
 10
26.81178241012412
 20
32.35705632929327
 30
0.0
 10
26.90236650022425
 20
32.34359629411647
 30
0.0
 10
26.99022511205728
 20
32.32033012109694
 30
0.0
 10
27.07483914138664
 20
32.28792279712953
 30
0.0
 10
27.15455982066551
 20
32.24867611021546
 30
0.0
 10
27.22764901841584
 20
32.2026264022987
 30
0.0
 10
27.29327322659858
 20
32.15092932689318
 30
0.0
 10
27.35139927790673
 20
32.0912503939081
 30
0.0
 10
27.40366830330267
 20
32.02191379538755
 30
0.0
 10
27.45174714993265
 20
31.94104954648391
 30
0.0
 10
27.49617236231005
 20
31.84684188542825
 30
0.0
 10
27.52079367114213
 20
31.77847534445025
 30
0.0
 10
27.53375623836356
 20
31.74248189303921
 30
0.0
  0
SPLINE
  5
A5
330
1F
100
AcDbEntity
  8
0
  6
Continuous
 62
     7
370
    25
100
AcDbSpline
210
0.0
220
0.0
230
1.0
 70
     8
 71
     3
 72
    19
 73
    15
 74
     0
 42
0.00000001
 43
0.00000001
 40
0.0
 40
0.0
 40
0.0
 40
0.0
 40
0.0717660641583404
 40
0.1412255357663695
 40
0.2091158524974585
 40
0.2748396534685245
 40
0.3394829303752153
 40
0.4024762667354008
 40
0.4649418891713261
 40
0.5268326406463814
 40
0.6474148160608185
 40
0.7655615117859471
 40
0.8816150870393283
 40
1.0
 40
1.0
 40
1.0
 40
1.0
 10
27.53375623836355
 20
31.7424818930392
 30
0.0
 10
27.54746748971927
 20
31.76720631231435
 30
0.0
 10
27.57444930684201
 20
31.81586049726366
 30
0.0
 10
27.61975494391472
 20
31.88471875950857
 30
0.0
 10
27.667222740393
 20
31.94912555135389
 30
0.0
 10
27.71725723345361
 20
32.00913197572401
 30
0.0
 10
27.76968182029419
 20
32.06444170613802
 30
0.0
 10
27.82474322059437
 20
32.11523760779237
 30
0.0
 10
27.8821280020179
 20
32.16173782147698
 30
0.0
 10
27.96192024193062
 20
32.21606098099069
 30
0.0
 10
28.06573284931741
 20
32.27376216235316
 30
0.0
 10
28.19662096401528
 20
32.32379060636186
 30
0.0
 10
28.3327711356044
 20
32.35470673472086
 30
0.0
 10
28.42518883391186
 20
32.35833700755671
 30
0.0
 10
28.47185719990201
 20
32.36017019432125
 30
0.0
  0
SPLINE
  5
A6
330
1F
100
AcDbEntity
  8
0
  6
Continuous
 62
     7
370
    25
100
AcDbSpline
210
0.0
220
0.0
230
1.0
 70
     8
 71
     3
 72
    23
 73
    19
 74
     0
 42
0.00000001
 43
0.00000001
 40
0.0
 40
0.0
 40
0.0
 40
0.0
 40
0.0756043304957436
 40
0.1479650154827353
 40
0.2187969985236982
 40
0.2894704453213776
 40
0.3597242180874998
 40
0.4297077387530429
 40
0.5004965198485857
 40
0.5744290198679496
 40
0.6139472962286677
 40
0.6571552698261088
 40
0.7039727697209371
 40
0.7549389848167981
 40
0.8097066112894852
 40
0.86883295369855
 40
0.9323854739325996
 40
1.0
 40
1.0
 40
1.0
 40
1.0
 10
28.47185719990201
 20
32.36017019432125
 30
0.0
 10
28.51473866272057
 20
32.35855297346354
 30
0.0
 10
28.59866184897545
 20
32.35538791522309
 30
0.0
 10
28.72083911468828
 20
32.33053444188769
 30
0.0
 10
28.83478092001264
 20
32.28785679476996
 30
0.0
 10
28.94025799614212
 20
32.2296231581996
 30
0.0
 10
29.03541780955124
 20
32.15644397489531
 30
0.0
 10
29.11813411873516
 20
32.06937513727742
 30
0.0
 10
29.18790448207116
 20
31.96903251426605
 30
0.0
 10
29.23348312176807
 20
31.87464052557208
 30
0.0
 10
29.26439838599799
 20
31.79130519272359
 30
0.0
 10
29.2834596203239
 20
31.7202989014155
 30
0.0
 10
29.30029931541045
 20
31.6421473484954
 30
0.0
 10
29.31428056067348
 20
31.55675708699221
 30
0.0
 10
29.32449911276916
 20
31.46382647868943
 30
0.0
 10
29.33206982825702
 20
31.3635076028065
 30
0.0
 10
29.33719390181535
 20
31.25572249118461
 30
0.0
 10
29.33755597407687
 20
31.18135699095723
 30
0.0
 10
29.33774261656868
 20
31.14302275842381
 30
0.0
  0
LINE
  5
A7
330
1F
100
AcDbEntity
  8
0
  6
Continuous
 62
     7
370
    25
100
AcDbLine
 10
29.3377426166
 20
31.1430227584
 30
0.0
 11
29.3377426166
 21
29.7576060918
 31
0.0
  0
LINE
  5
A8
330
1F
100
AcDbEntity
  8
0
  6
Continuous
 62
     7
370
    25
100
AcDbLine
 10
29.3377426166
 20
29.7576060918
 30
0.0
 11
29.0236400525
 21
29.7576060918
 31
0.0
  0
LINE
  5
A9
330
1F
100
AcDbEntity
  8
0
  6
Continuous
 62
     7
370
    25
100
AcDbLine
 10
29.0236400525
 20
29.7576060918
 30
0.0
 11
29.0236400525
 21
31.144425002
 31
0.0
  0
SPLINE
  5
AA
330
1F
100
AcDbEntity
  8
0
  6
Continuous
 62
     7
370
    25
100
AcDbSpline
210
0.0
220
0.0
230
1.0
 70
     8
 71
     3
 72
    23
 73
    19
 74
     0
 42
0.00000001
 43
0.00000001
 40
0.0
 40
0.0
 40
0.0
 40
0.0
 40
0.0783429851937024
 40
0.1505633028794219
 40
0.2161510566599754
 40
0.2756797924514234
 40
0.3287070503654602
 40
0.3759044348322086
 40
0.4173018977400324
 40
0.4526927480535833
 40
0.5172652917530122
 40
0.5812165680623064
 40
0.6453218939727997
 40
0.712024493379764
 40
0.7801300447160422
 40
0.850218226211666
 40
0.9226485217347361
 40
1.0
 40
1.0
 40
1.0
 40
1.0
 10
29.02364005246611
 20
31.14442500201356
 30
0.0
 10
29.02356216949009
 20
31.17714557595099
 30
0.0
 10
29.02341249025486
 20
31.24002954280456
 30
0.0
 10
29.02071885869068
 20
31.33028199401223
 30
0.0
 10
29.01564354463499
 20
31.41255035125522
 30
0.0
 10
29.00970890586792
 20
31.48672243939872
 30
0.0
 10
29.00146509648738
 20
31.55297122789535
 30
0.0
 10
28.99081916475266
 20
31.61116364646346
 30
0.0
 10
28.97954148485396
 20
31.66175745782414
 30
0.0
 10
28.96080549374512
 20
31.71784350542227
 30
0.0
 10
28.93085760212928
 20
31.77971371590557
 30
0.0
 10
28.88524012209623
 20
31.84643729170076
 30
0.0
 10
28.82777001583148
 20
31.90451809188397
 30
0.0
 10
28.76140985926835
 20
31.95493640870214
 30
0.0
 10
28.68586141457469
 20
31.99593004979998
 30
0.0
 10
28.60259669140989
 20
32.02520605950256
 30
0.0
 10
28.51213263981545
 20
32.04332893791491
 30
0.0
 10
28.44950985140474
 20
32.04513495349129
 30
0.0
 10
28.41716969990201
 20
32.04606763021869
 30
0.0
  0
SPLINE
  5
AB
330
1F
100
AcDbEntity
  8
0
  6
Continuous
 62
     7
370
    25
100
AcDbSpline
210
0.0
220
0.0
230
1.0
 70
     8
 71
     3
 72
    23
 73
    19
 74
     0
 42
0.00000001
 43
0.00000001
 40
0.0
 40
0.0
 40
0.0
 40
0.0
 40
0.0681582441559974
 40
0.1347066022023567
 40
0.2018649976035975
 40
0.2707882662774609
 40
0.3400242943604916
 40
0.4080827390537192
 40
0.4768131952581435
 40
0.5473460643070962
 40
0.5856397954238935
 40
0.6288649531777656
 40
0.6771532033637901
 40
0.7308028113651052
 40
0.7898066155325013
 40
0.854325008742014
 40
0.9243651340575423
 40
0.9999999999999999
 40
0.9999999999999999
 40
0.9999999999999999
 40
0.9999999999999999
 10
28.41716969990201
 20
32.04606763021869
 30
0.0
 10
28.37749974552869
 20
32.04465147283213
 30
0.0
 10
28.29909683434274
 20
32.04185260745513
 30
0.0
 10
28.18465134813464
 20
32.01327873449194
 30
0.0
 10
28.07468033152769
 20
31.97019848383238
 30
0.0
 10
27.97246519860273
 20
31.9077660267089
 30
0.0
 10
27.878437407986
 20
31.83295766285686
 30
0.0
 10
27.79753783020037
 20
31.74400806709755
 30
0.0
 10
27.73070564453862
 20
31.64337814016236
 30
0.0
 10
27.68545166859781
 20
31.55023143784674
 30
0.0
 10
27.65686236735296
 20
31.46656199396554
 30
0.0
 10
27.63798545160809
 20
31.39346462196756
 30
0.0
 10
27.62330206013824
 20
31.31038305413439
 30
0.0
 10
27.60953153092699
 20
31.21787556327021
 30
0.0
 10
27.60054380296032
 20
31.1153053829182
 30
0.0
 10
27.59237543063597
 20
31.00314698191838
 30
0.0
 10
27.58855456782201
 20
30.8810630224824
 30
0.0
 10
27.58802010906257
 20
30.79643633386861
 30
0.0
 10
27.58774261656868
 20
30.75249791868022
 30
0.0
  0
LINE
  5
AC
330
1F
100
AcDbEntity
  8
0
  6
Continuous
 62
     7
370
    25
100
AcDbLine
 10
27.5877426166
 20
30.7524979187
 30
0.0
 11
27.5877426166
 21
29.7576060918
 31
0.0
  0
LINE
  5
AD
330
1F
100
AcDbEntity
  8
0
  6
Continuous
 62
     7
370
    25
100
AcDbLine
 10
27.5877426166
 20
29.7576060918
 30
0.0
 11
27.2736400525
 21
29.7576060918
 31
0.0
  0
LINE
  5
AE
330
1F
100
AcDbEntity
  8
0
  6
Continuous
 62
     7
370
    25
100
AcDbLine
 10
27.2736400525
 20
29.7576060918
 30
0.0
 11
27.2736400525
 21
31.0581870212
 31
0.0
  0
SPLINE
  5
AF
330
1F
100
AcDbEntity
  8
0
  6
Continuous
 62
     7
370
    25
100
AcDbSpline
210
0.0
220
0.0
230
1.0
 70
     8
 71
     3
 72
    23
 73
    19
 74
     0
 42
0.00000001
 43
0.00000001
 40
0.0
 40
0.0
 40
0.0
 40
0.0
 40
0.0825297038220651
 40
0.1587788549175695
 40
0.2277380621151789
 40
0.2899456527966779
 40
0.3454988386981384
 40
0.3938963373401207
 40
0.4363737851900881
 40
0.4721222744615237
 40
0.536383615504825
 40
0.5990779017254941
 40
0.6619482340244595
 40
0.7263105423531557
 40
0.7917711030502106
 40
0.8586473037978589
 40
0.9273053338076848
 40
1.0
 40
1.0
 40
1.0
 40
1.0
 10
27.27364005246612
 20
31.05818702124433
 30
0.0
 10
27.27356062148987
 20
31.0948803400096
 30
0.0
 10
27.27340780427536
 20
31.16547459719047
 30
0.0
 10
27.27073148695904
 20
31.26670827250123
 30
0.0
 10
27.26564486526293
 20
31.35878935259424
 30
0.0
 10
27.25976431689676
 20
31.44161081642766
 30
0.0
 10
27.25130413837862
 20
31.5150221451883
 30
0.0
 10
27.24169437626881
 20
31.57941690319078
 30
0.0
 10
27.23034576574211
 20
31.63463365427403
 30
0.0
 10
27.21155588112106
 20
31.69519703913711
 30
0.0
 10
27.18284141283163
 20
31.76191796212118
 30
0.0
 10
27.13665315084376
 20
31.8330589833036
 30
0.0
 10
27.07904557046272
 20
31.89532708082625
 30
0.0
 10
27.01147469459817
 20
31.94848582926173
 30
0.0
 10
26.93546901240797
 20
31.99242731056022
 30
0.0
 10
26.85148561159907
 20
32.02408706234669
 30
0.0
 10
26.7602806987626
 20
32.04251135196908
 30
0.0
 10
26.69740299285361
 20
32.04485984864478
 30
0.0
 10
26.6650663345174
 20
32.04606763021869
 30
0.0
  0
SPLINE
  5
B0
330
1F
100
AcDbEntity
  8
0
  6
Continuous
 62
     7
370
    25
100
AcDbSpline
210
0.0
220
0.0
230
1.0
 70
     8
 71
     3
 72
    23
 73
    19
 74
     0
 42
0.00000001
 43
0.00000001
 40
0.0
 40
0.0
 40
0.0
 40
0.0
 40
0.0686770684130354
 40
0.136870958509095
 40
0.2061143571453003
 40
0.2775381819697257
 40
0.3497719775548974
 40
0.4212508361555689
 40
0.4929107569233698
 40
0.5670265889927382
 40
0.6066141532413349
 40
0.6497039535189884
 40
0.6973031504846845
 40
0.7490856597091365
 40
0.8048806474593092
 40
0.8654850057023352
 40
0.9302371271531363
 40
1.0
 40
1.0
 40
1.0
 40
1.0
 10
26.6650663345174
 20
32.04606763021869
 30
0.0
 10
26.62705012306446
 20
32.04453717020167
 30
0.0
 10
26.55128516365829
 20
32.04148701773696
 30
0.0
 10
26.4399831940032
 20
32.01403274388829
 30
0.0
 10
26.33249751038549
 20
31.97102866912971
 30
0.0
 10
26.23054281159213
 20
31.91136885004362
 30
0.0
 10
26.1368686632859
 20
31.83746977144681
 30
0.0
 10
26.05486039599154
 20
31.75055487567491
 30
0.0
 10
25.98591787046739
 20
31.65170584216279
 30
0.0
 10
25.94018605556533
 20
31.55954132564726
 30
0.0
 10
25.91068758144375
 20
31.47796805075009
 30
0.0
 10
25.8910922467664
 20
31.40861710307609
 30
0.0
 10
25.8742526209542
 20
31.33161685479392
 30
0.0
 10
25.86173859925007
 20
31.24672974370961
 30
0.0
 10
25.84965818364239
 20
31.15450864957409
 30
0.0
 10
25.84382787456502
 20
31.05449415986446
 30
0.0
 10
25.83815631241069
 20
30.94677207216246
 30
0.0
 10
25.83788389771101
 20
30.87239952692066
 30
0.0
 10
25.83774261656868
 20
30.83382804688535
 30
0.0
  0
LINE
  5
B1
330
1F
100
AcDbEntity
  8
0
  6
Continuous
 62
     7
370
    25
100
AcDbLine
 10
25.8377426166
 20
30.8338280469
 30
0.0
 11
25.8377426166
 21
29.7576060918
 31
0.0
  0
LINE
  5
B2
330
1F
100
AcDbEntity
  8
0
  6
Continuous
 62
     7
370
    25
100
AcDbLine
 10
32.344152873
 20
31.8420411879
 30
0.0
 11
32.344152873
 21
32.3152983994
 31
0.0
  0
LINE
  5
B3
330
1F
100
AcDbEntity
  8
0
  6
Continuous
 62
     7
370
    25
100
AcDbLine
 10
32.344152873
 20
32.3152983994
 30
0.0
 11
32.6582554371
 21
32.3152983994
 31
0.0
  0
LINE
  5
B4
330
1F
100
AcDbEntity
  8
0
  6
Continuous
 62
     7
370
    25
100
AcDbLine
 10
32.6582554371
 20
32.3152983994
 30
0.0
 11
32.6582554371
 21
29.7576060918
 31
0.0
  0
LINE
  5
B5
330
1F
100
AcDbEntity
  8
0
  6
Continuous
 62
     7
370
    25
100
AcDbLine
 10
32.6582554371
 20
29.7576060918
 30
0.0
 11
32.344152873
 21
29.7576060918
 31
0.0
  0
LINE
  5
B6
330
1F
100
AcDbEntity
  8
0
  6
Continuous
 62
     7
370
    25
100
AcDbLine
 10
32.344152873
 20
29.7576060918
 30
0.0
 11
32.344152873
 21
30.2000139443
 31
0.0
  0
SPLINE
  5
B7
330
1F
100
AcDbEntity
  8
0
  6
Continuous
 62
     7
370
    25
100
AcDbSpline
210
0.0
220
0.0
230
1.0
 70
     8
 71
     3
 72
    15
 73
    11
 74
     0
 42
0.00000001
 43
0.00000001
 40
0.0
 40
0.0
 40
0.0
 40
0.0
 40
0.1342983790141744
 40
0.2620849753823031
 40
0.3862699121345046
 40
0.5071645966228017
 40
0.6273002357255079
 40
0.7481449416029945
 40
0.8723701771613559
 40
1.0
 40
1.0
 40
1.0
 40
1.0
 10
32.34415287297894
 20
30.20001394432125
 30
0.0
 10
32.30873408235278
 20
30.15997435036342
 30
0.0
 10
32.23961386707193
 20
30.08183657927648
 30
0.0
 10
32.12417274910046
 20
29.97975440678572
 30
0.0
 10
32.00180457119797
 20
29.89537608524568
 30
0.0
 10
31.87310325006727
 20
29.82722616954528
 30
0.0
 10
31.73818500672265
 20
29.77603411320792
 30
0.0
 10
31.5973489194464
 20
29.73964795408213
 30
0.0
 10
31.45053753858087
 20
29.71625411890987
 30
0.0
 10
31.35028518379086
 20
29.71391809704084
 30
0.0
 10
31.29948139861996
 20
29.71273429688535
 30
0.0
  0
SPLINE
  5
B8
330
1F
100
AcDbEntity
  8
0
  6
Continuous
 62
     7
370
    25
100
AcDbSpline
210
0.0
220
0.0
230
1.0
 70
     8
 71
     3
 72
    23
 73
    19
 74
     0
 42
0.00000001
 43
0.00000001
 40
0.0
 40
0.0
 40
0.0
 40
0.0
 40
0.0646199913407684
 40
0.1274334841444696
 40
0.1890041265579405
 40
0.249930070686047
 40
0.3106684537406715
 40
0.3723289611368247
 40
0.4349391099970089
 40
0.499575544194034
 40
0.5641912077719244
 40
0.626735216929478
 40
0.6881093335614018
 40
0.7492936065367517
 40
0.8103305278109453
 40
0.8719011702244159
 40
0.9350459146845327
 40
1.0
 40
1.0
 40
1.0
 40
1.0
 10
31.29948139861996
 20
29.71273429688535
 30
0.0
 10
31.25431344478743
 20
29.71396066915451
 30
0.0
 10
31.16524023989943
 20
29.71637912957014
 30
0.0
 10
31.03421116276052
 20
29.73514143318841
 30
0.0
 10
30.90811891330785
 20
29.76527205483049
 30
0.0
 10
30.78684434064606
 20
29.80717294432225
 30
0.0
 10
30.67117219521197
 20
29.86275376596046
 30
0.0
 10
30.56011209853965
 20
29.92929501400186
 30
0.0
 10
30.45423940652054
 20
30.00853584408251
 30
0.0
 10
30.35516786755669
 20
30.0991238724354
 30
0.0
 10
30.26393586718078
 20
30.19751885961901
 30
0.0
 10
30.18387459455859
 20
30.30246440649413
 30
0.0
 10
30.11712151470386
 20
30.41350671038682
 30
0.0
 10
30.06130143399658
 20
30.52923986427552
 30
0.0
 10
30.01830508955585
 20
30.65055478380955
 30
0.0
 10
29.98833145529792
 20
30.77703195174933
 30
0.0
 10
29.96959100859727
 20
30.90852182528918
 30
0.0
 10
29.96717354791231
 20
30.99806134838478
 30
0.0
 10
29.9659477447738
 20
31.04346346355202
 30
0.0
  0
SPLINE
  5
B9
330
1F
100
AcDbEntity
  8
0
  6
Continuous
 62
     7
370
    25
100
AcDbSpline
210
0.0
220
0.0
230
1.0
 70
     8
 71
     3
 72
    23
 73
    19
 74
     0
 42
0.00000001
 43
0.00000001
 40
0.0
 40
0.0
 40
0.0
 40
0.0
 40
0.0637745323056329
 40
0.1260788099895082
 40
0.1869040927472084
 40
0.2475739349176204
 40
0.308003356164448
 40
0.3691318984609799
 40
0.4320332277442054
 40
0.4967907944370937
 40
0.5616108232295663
 40
0.6249138657484643
 40
0.6867263492419261
 40
0.7480788332577719
 40
0.8095822911398973
 40
0.8716307425688289
 40
0.9348858208285551
 40
1.0
 40
1.0
 40
1.0
 40
1.0
 10
29.9659477447738
 20
31.04346346355202
 30
0.0
 10
29.96720071615868
 20
31.08792716712145
 30
0.0
 10
29.96967777299386
 20
31.17582951044079
 30
0.0
 10
29.98813099283413
 20
31.30510820842664
 30
0.0
 10
30.01916200149331
 20
31.42962646915989
 30
0.0
 10
30.06270984915918
 20
31.54898341238363
 30
0.0
 10
30.11855180412231
 20
31.66332346253224
 30
0.0
 10
30.18647989114318
 20
31.77272748754718
 30
0.0
 10
30.266499015842
 20
31.8774968850092
 30
0.0
 10
30.35875142285838
 20
31.97516811182798
 30
0.0
 10
30.45868619302103
 20
32.06538872609735
 30
0.0
 10
30.56559492393639
 20
32.14379777153982
 30
0.0
 10
30.67681820525722
 20
32.21151462035585
 30
0.0
 10
30.79408121577961
 20
32.26516809666219
 30
0.0
 10
30.9156483205936
 20
32.30857720120665
 30
0.0
 10
31.04260176634083
 20
32.33861016930716
 30
0.0
 10
31.1744133450164
 20
32.35630749054719
 30
0.0
 10
31.26390383708102
 20
32.35887025469826
 30
0.0
 10
31.30929710374816
 20
32.36017019432125
 30
0.0
  0
SPLINE
  5
BA
330
1F
100
AcDbEntity
  8
0
  6
Continuous
 62
     7
370
    25
100
AcDbSpline
210
0.0
220
0.0
230
1.0
 70
     8
 71
     3
 72
    15
 73
    11
 74
     0
 42
0.00000001
 43
0.00000001
 40
0.0
 40
0.0
 40
0.0
 40
0.0
 40
0.129862141720743
 40
0.2546535308972906
 40
0.3760145541937153
 40
0.4952552518176097
 40
0.6147977192994573
 40
0.738105554168331
 40
0.8651963000723579
 40
1.0
 40
1.0
 40
1.0
 40
1.0
 10
31.30929710374816
 20
32.36017019432125
 30
0.0
 10
31.3614969628111
 20
32.35873244277939
 30
0.0
 10
31.46385842279154
 20
32.35591307986241
 30
0.0
 10
31.61358643205837
 20
32.33245035254343
 30
0.0
 10
31.75523090996192
 20
32.29281188538859
 30
0.0
 10
31.88988526199199
 20
32.23889438736506
 30
0.0
 10
32.01706594808682
 20
32.16724565828316
 30
0.0
 10
32.13556893240276
 20
32.07686569725951
 30
0.0
 10
32.24663441571057
 20
31.96832451028938
 30
0.0
 10
32.31101470736981
 20
31.88495406582017
 30
0.0
 10
32.34415287297894
 20
31.84204118791099
 30
0.0
  0
CIRCLE
  5
BB
330
1F
100
AcDbEntity
  8
0
  6
Continuous
 62
     7
370
    25
100
AcDbCircle
 10
32.5
 20
-46.0
 30
0.0
 40
2.5
  0
CIRCLE
  5
BC
330
1F
100
AcDbEntity
  8
0
  6
Continuous
 62
     7
370
    25
100
AcDbCircle
 10
32.5
 20
-31.0
 30
0.0
 40
2.5
  0
CIRCLE
  5
BD
330
1F
100
AcDbEntity
  8
0
  6
Continuous
 62
     7
370
    25
100
AcDbCircle
 10
32.5
 20
-16.0
 30
0.0
 40
2.500000000000004
  0
CIRCLE
  5
BE
330
1F
100
AcDbEntity
  8
0
  6
Continuous
 62
     7
370
    25
100
AcDbCircle
 10
32.5
 20
-1.0
 30
0.0
 40
2.500000000000002
  0
LINE
  5
BF
330
1F
100
AcDbEntity
  8
0
  6
Continuous
 62
     7
370
    25
100
AcDbLine
 10
2.5
 20
-48.5
 30
0.0
 11
2.5
 21
48.5
 31
0.0
  0
LINE
  5
C0
330
1F
100
AcDbEntity
  8
0
  6
Continuous
 62
     7
370
    25
100
AcDbLine
 10
-37.5
 20
-48.5
 30
0.0
 11
2.5
 21
-48.5
 31
0.0
  0
LINE
  5
C1
330
1F
100
AcDbEntity
  8
0
  6
Continuous
 62
     7
370
    25
100
AcDbLine
 10
-37.5
 20
-48.5
 30
0.0
 11
-37.5
 21
48.5
 31
0.0
  0
LINE
  5
C2
330
1F
100
AcDbEntity
  8
0
  6
Continuous
 62
     7
370
    25
100
AcDbLine
 10
-37.5
 20
48.5
 30
0.0
 11
2.5
 21
48.5
 31
0.0
  0
LINE
  5
C3
330
1F
100
AcDbEntity
  8
0
  6
Continuous
 62
     7
370
    25
100
AcDbLine
 10
-62.5
 20
-60.0
 30
0.0
 11
-54.0
 21
-60.0
 31
0.0
  0
LINE
  5
C4
330
1F
100
AcDbEntity
  8
0
  6
Continuous
 62
     7
370
    25
100
AcDbLine
 10
-54.0
 20
-66.0
 30
0.0
 11
-54.0
 21
-60.0
 31
0.0
  0
LINE
  5
C5
330
1F
100
AcDbEntity
  8
0
  6
Continuous
 62
     7
370
    25
100
AcDbLine
 10
-54.0
 20
-66.0
 30
0.0
 11
-42.0
 21
-66.0
 31
0.0
  0
LINE
  5
C6
330
1F
100
AcDbEntity
  8
0
  6
Continuous
 62
     7
370
    25
100
AcDbLine
 10
-42.0
 20
-66.0
 30
0.0
 11
-42.0
 21
-60.0
 31
0.0
  0
LINE
  5
C7
330
1F
100
AcDbEntity
  8
0
  6
Continuous
 62
     7
370
    25
100
AcDbLine
 10
-42.0
 20
-60.0
 30
0.0
 11
-30.0
 21
-60.0
 31
0.0
  0
LINE
  5
C8
330
1F
100
AcDbEntity
  8
0
  6
Continuous
 62
     7
370
    25
100
AcDbLine
 10
-30.0
 20
-66.0
 30
0.0
 11
-30.0
 21
-60.0
 31
0.0
  0
LINE
  5
C9
330
1F
100
AcDbEntity
  8
0
  6
Continuous
 62
     7
370
    25
100
AcDbLine
 10
-30.0
 20
-66.0
 30
0.0
 11
-18.0
 21
-66.0
 31
0.0
  0
LINE
  5
CA
330
1F
100
AcDbEntity
  8
0
  6
Continuous
 62
     7
370
    25
100
AcDbLine
 10
-18.0
 20
-66.0
 30
0.0
 11
-18.0
 21
-60.0
 31
0.0
  0
LINE
  5
CB
330
1F
100
AcDbEntity
  8
0
  6
Continuous
 62
     7
370
    25
100
AcDbLine
 10
-18.0
 20
-60.0
 30
0.0
 11
-6.0
 21
-60.0
 31
0.0
  0
LINE
  5
CC
330
1F
100
AcDbEntity
  8
0
  6
Continuous
 62
     7
370
    25
100
AcDbLine
 10
-6.0
 20
-66.0
 30
0.0
 11
-6.0
 21
-60.0
 31
0.0
  0
LINE
  5
CD
330
1F
100
AcDbEntity
  8
0
  6
Continuous
 62
     7
370
    25
100
AcDbLine
 10
-6.0
 20
-66.0
 30
0.0
 11
6.0
 21
-66.0
 31
0.0
  0
LINE
  5
CE
330
1F
100
AcDbEntity
  8
0
  6
Continuous
 62
     7
370
    25
100
AcDbLine
 10
6.0
 20
-66.0
 30
0.0
 11
6.0
 21
-60.0
 31
0.0
  0
LINE
  5
CF
330
1F
100
AcDbEntity
  8
0
  6
Continuous
 62
     7
370
    25
100
AcDbLine
 10
6.0
 20
-60.0
 30
0.0
 11
18.0
 21
-60.0
 31
0.0
  0
LINE
  5
D0
330
1F
100
AcDbEntity
  8
0
  6
Continuous
 62
     7
370
    25
100
AcDbLine
 10
18.0
 20
-66.0
 30
0.0
 11
18.0
 21
-60.0
 31
0.0
  0
LINE
  5
D1
330
1F
100
AcDbEntity
  8
0
  6
Continuous
 62
     7
370
    25
100
AcDbLine
 10
18.0
 20
-66.0
 30
0.0
 11
30.0
 21
-66.0
 31
0.0
  0
LINE
  5
D2
330
1F
100
AcDbEntity
  8
0
  6
Continuous
 62
     7
370
    25
100
AcDbLine
 10
30.0
 20
-66.0
 30
0.0
 11
30.0
 21
-60.0
 31
0.0
  0
LINE
  5
D3
330
1F
100
AcDbEntity
  8
0
  6
Continuous
 62
     7
370
    25
100
AcDbLine
 10
30.0
 20
-60.0
 30
0.0
 11
42.0
 21
-60.0
 31
0.0
  0
LINE
  5
D4
330
1F
100
AcDbEntity
  8
0
  6
Continuous
 62
     7
370
    25
100
AcDbLine
 10
42.0
 20
-66.0
 30
0.0
 11
42.0
 21
-60.0
 31
0.0
  0
LINE
  5
D5
330
1F
100
AcDbEntity
  8
0
  6
Continuous
 62
     7
370
    25
100
AcDbLine
 10
42.0
 20
-66.0
 30
0.0
 11
54.0
 21
-66.0
 31
0.0
  0
LINE
  5
D6
330
1F
100
AcDbEntity
  8
0
  6
Continuous
 62
     7
370
    25
100
AcDbLine
 10
54.0
 20
-66.0
 30
0.0
 11
54.0
 21
-60.0
 31
0.0
  0
LINE
  5
D7
330
1F
100
AcDbEntity
  8
0
  6
Continuous
 62
     7
370
    25
100
AcDbLine
 10
54.0
 20
-60.0
 30
0.0
 11
62.5
 21
-60.0
 31
0.0
  0
LINE
  5
D8
330
1F
100
AcDbEntity
  8
0
  6
Continuous
 62
     7
370
    25
100
AcDbLine
 10
62.5
 20
-60.0
 30
0.0
 11
62.5
 21
-54.0
 31
0.0
  0
LINE
  5
D9
330
1F
100
AcDbEntity
  8
0
  6
Continuous
 62
     7
370
    25
100
AcDbLine
 10
68.5
 20
-54.0
 30
0.0
 11
62.5
 21
-54.0
 31
0.0
  0
LINE
  5
DA
330
1F
100
AcDbEntity
  8
0
  6
Continuous
 62
     7
370
    25
100
AcDbLine
 10
68.5
 20
-42.0
 30
0.0
 11
68.5
 21
-54.0
 31
0.0
  0
LINE
  5
DB
330
1F
100
AcDbEntity
  8
0
  6
Continuous
 62
     7
370
    25
100
AcDbLine
 10
62.5
 20
-42.0
 30
0.0
 11
68.5
 21
-42.0
 31
0.0
  0
LINE
  5
DC
330
1F
100
AcDbEntity
  8
0
  6
Continuous
 62
     7
370
    25
100
AcDbLine
 10
62.5
 20
-42.0
 30
0.0
 11
62.5
 21
-30.0
 31
0.0
  0
LINE
  5
DD
330
1F
100
AcDbEntity
  8
0
  6
Continuous
 62
     7
370
    25
100
AcDbLine
 10
68.5
 20
-30.0
 30
0.0
 11
62.5
 21
-30.0
 31
0.0
  0
LINE
  5
DE
330
1F
100
AcDbEntity
  8
0
  6
Continuous
 62
     7
370
    25
100
AcDbLine
 10
68.5
 20
-18.0
 30
0.0
 11
68.5
 21
-30.0
 31
0.0
  0
LINE
  5
DF
330
1F
100
AcDbEntity
  8
0
  6
Continuous
 62
     7
370
    25
100
AcDbLine
 10
62.5
 20
-18.0
 30
0.0
 11
68.5
 21
-18.0
 31
0.0
  0
LINE
  5
E0
330
1F
100
AcDbEntity
  8
0
  6
Continuous
 62
     7
370
    25
100
AcDbLine
 10
62.5
 20
-18.0
 30
0.0
 11
62.5
 21
-6.0
 31
0.0
  0
LINE
  5
E1
330
1F
100
AcDbEntity
  8
0
  6
Continuous
 62
     7
370
    25
100
AcDbLine
 10
68.5
 20
-6.0
 30
0.0
 11
62.5
 21
-6.0
 31
0.0
  0
LINE
  5
E2
330
1F
100
AcDbEntity
  8
0
  6
Continuous
 62
     7
370
    25
100
AcDbLine
 10
68.5
 20
6.0
 30
0.0
 11
68.5
 21
-6.0
 31
0.0
  0
LINE
  5
E3
330
1F
100
AcDbEntity
  8
0
  6
Continuous
 62
     7
370
    25
100
AcDbLine
 10
62.5
 20
6.0
 30
0.0
 11
68.5
 21
6.0
 31
0.0
  0
LINE
  5
E4
330
1F
100
AcDbEntity
  8
0
  6
Continuous
 62
     7
370
    25
100
AcDbLine
 10
62.5
 20
6.0
 30
0.0
 11
62.5
 21
18.0
 31
0.0
  0
LINE
  5
E5
330
1F
100
AcDbEntity
  8
0
  6
Continuous
 62
     7
370
    25
100
AcDbLine
 10
68.5
 20
18.0
 30
0.0
 11
62.5
 21
18.0
 31
0.0
  0
LINE
  5
E6
330
1F
100
AcDbEntity
  8
0
  6
Continuous
 62
     7
370
    25
100
AcDbLine
 10
68.5
 20
30.0
 30
0.0
 11
68.5
 21
18.0
 31
0.0
  0
LINE
  5
E7
330
1F
100
AcDbEntity
  8
0
  6
Continuous
 62
     7
370
    25
100
AcDbLine
 10
62.5
 20
30.0
 30
0.0
 11
68.5
 21
30.0
 31
0.0
  0
LINE
  5
E8
330
1F
100
AcDbEntity
  8
0
  6
Continuous
 62
     7
370
    25
100
AcDbLine
 10
62.5
 20
30.0
 30
0.0
 11
62.5
 21
42.0
 31
0.0
  0
LINE
  5
E9
330
1F
100
AcDbEntity
  8
0
  6
Continuous
 62
     7
370
    25
100
AcDbLine
 10
68.5
 20
42.0
 30
0.0
 11
62.5
 21
42.0
 31
0.0
  0
LINE
  5
EA
330
1F
100
AcDbEntity
  8
0
  6
Continuous
 62
     7
370
    25
100
AcDbLine
 10
68.5
 20
54.0
 30
0.0
 11
68.5
 21
42.0
 31
0.0
  0
LINE
  5
EB
330
1F
100
AcDbEntity
  8
0
  6
Continuous
 62
     7
370
    25
100
AcDbLine
 10
62.5
 20
54.0
 30
0.0
 11
68.5
 21
54.0
 31
0.0
  0
LINE
  5
EC
330
1F
100
AcDbEntity
  8
0
  6
Continuous
 62
     7
370
    25
100
AcDbLine
 10
62.5
 20
54.0
 30
0.0
 11
62.5
 21
60.0
 31
0.0
  0
LINE
  5
ED
330
1F
100
AcDbEntity
  8
0
  6
Continuous
 62
     7
370
    25
100
AcDbLine
 10
54.0
 20
60.0
 30
0.0
 11
62.5
 21
60.0
 31
0.0
  0
LINE
  5
EE
330
1F
100
AcDbEntity
  8
0
  6
Continuous
 62
     7
370
    25
100
AcDbLine
 10
54.0
 20
66.0
 30
0.0
 11
54.0
 21
60.0
 31
0.0
  0
LINE
  5
EF
330
1F
100
AcDbEntity
  8
0
  6
Continuous
 62
     7
370
    25
100
AcDbLine
 10
42.0
 20
66.0
 30
0.0
 11
54.0
 21
66.0
 31
0.0
  0
LINE
  5
F0
330
1F
100
AcDbEntity
  8
0
  6
Continuous
 62
     7
370
    25
100
AcDbLine
 10
42.0
 20
66.0
 30
0.0
 11
42.0
 21
60.0
 31
0.0
  0
LINE
  5
F1
330
1F
100
AcDbEntity
  8
0
  6
Continuous
 62
     7
370
    25
100
AcDbLine
 10
30.0
 20
60.0
 30
0.0
 11
42.0
 21
60.0
 31
0.0
  0
LINE
  5
F2
330
1F
100
AcDbEntity
  8
0
  6
Continuous
 62
     7
370
    25
100
AcDbLine
 10
30.0
 20
66.0
 30
0.0
 11
30.0
 21
60.0
 31
0.0
  0
LINE
  5
F3
330
1F
100
AcDbEntity
  8
0
  6
Continuous
 62
     7
370
    25
100
AcDbLine
 10
18.0
 20
66.0
 30
0.0
 11
30.0
 21
66.0
 31
0.0
  0
LINE
  5
F4
330
1F
100
AcDbEntity
  8
0
  6
Continuous
 62
     7
370
    25
100
AcDbLine
 10
18.0
 20
66.0
 30
0.0
 11
18.0
 21
60.0
 31
0.0
  0
LINE
  5
F5
330
1F
100
AcDbEntity
  8
0
  6
Continuous
 62
     7
370
    25
100
AcDbLine
 10
6.0
 20
60.0
 30
0.0
 11
18.0
 21
60.0
 31
0.0
  0
LINE
  5
F6
330
1F
100
AcDbEntity
  8
0
  6
Continuous
 62
     7
370
    25
100
AcDbLine
 10
6.0
 20
66.0
 30
0.0
 11
6.0
 21
60.0
 31
0.0
  0
LINE
  5
F7
330
1F
100
AcDbEntity
  8
0
  6
Continuous
 62
     7
370
    25
100
AcDbLine
 10
-6.0
 20
66.0
 30
0.0
 11
6.0
 21
66.0
 31
0.0
  0
LINE
  5
F8
330
1F
100
AcDbEntity
  8
0
  6
Continuous
 62
     7
370
    25
100
AcDbLine
 10
-6.0
 20
66.0
 30
0.0
 11
-6.0
 21
60.0
 31
0.0
  0
LINE
  5
F9
330
1F
100
AcDbEntity
  8
0
  6
Continuous
 62
     7
370
    25
100
AcDbLine
 10
-18.0
 20
60.0
 30
0.0
 11
-6.0
 21
60.0
 31
0.0
  0
LINE
  5
FA
330
1F
100
AcDbEntity
  8
0
  6
Continuous
 62
     7
370
    25
100
AcDbLine
 10
-18.0
 20
66.0
 30
0.0
 11
-18.0
 21
60.0
 31
0.0
  0
LINE
  5
FB
330
1F
100
AcDbEntity
  8
0
  6
Continuous
 62
     7
370
    25
100
AcDbLine
 10
-30.0
 20
66.0
 30
0.0
 11
-18.0
 21
66.0
 31
0.0
  0
LINE
  5
FC
330
1F
100
AcDbEntity
  8
0
  6
Continuous
 62
     7
370
    25
100
AcDbLine
 10
-30.0
 20
66.0
 30
0.0
 11
-30.0
 21
60.0
 31
0.0
  0
LINE
  5
FD
330
1F
100
AcDbEntity
  8
0
  6
Continuous
 62
     7
370
    25
100
AcDbLine
 10
-42.0
 20
60.0
 30
0.0
 11
-30.0
 21
60.0
 31
0.0
  0
LINE
  5
FE
330
1F
100
AcDbEntity
  8
0
  6
Continuous
 62
     7
370
    25
100
AcDbLine
 10
-42.0
 20
66.0
 30
0.0
 11
-42.0
 21
60.0
 31
0.0
  0
LINE
  5
FF
330
1F
100
AcDbEntity
  8
0
  6
Continuous
 62
     7
370
    25
100
AcDbLine
 10
-54.0
 20
66.0
 30
0.0
 11
-42.0
 21
66.0
 31
0.0
  0
LINE
  5
100
330
1F
100
AcDbEntity
  8
0
  6
Continuous
 62
     7
370
    25
100
AcDbLine
 10
-54.0
 20
66.0
 30
0.0
 11
-54.0
 21
60.0
 31
0.0
  0
LINE
  5
101
330
1F
100
AcDbEntity
  8
0
  6
Continuous
 62
     7
370
    25
100
AcDbLine
 10
-62.5
 20
60.0
 30
0.0
 11
-54.0
 21
60.0
 31
0.0
  0
LINE
  5
102
330
1F
100
AcDbEntity
  8
0
  6
Continuous
 62
     7
370
    25
100
AcDbLine
 10
-62.5
 20
54.0
 30
0.0
 11
-62.5
 21
60.0
 31
0.0
  0
LINE
  5
103
330
1F
100
AcDbEntity
  8
0
  6
Continuous
 62
     7
370
    25
100
AcDbLine
 10
-62.5
 20
54.0
 30
0.0
 11
-68.5
 21
54.0
 31
0.0
  0
LINE
  5
104
330
1F
100
AcDbEntity
  8
0
  6
Continuous
 62
     7
370
    25
100
AcDbLine
 10
-68.5
 20
54.0
 30
0.0
 11
-68.5
 21
42.0
 31
0.0
  0
LINE
  5
105
330
1F
100
AcDbEntity
  8
0
  6
Continuous
 62
     7
370
    25
100
AcDbLine
 10
-68.5
 20
42.0
 30
0.0
 11
-62.5
 21
42.0
 31
0.0
  0
LINE
  5
106
330
1F
100
AcDbEntity
  8
0
  6
Continuous
 62
     7
370
    25
100
AcDbLine
 10
-62.5
 20
30.0
 30
0.0
 11
-62.5
 21
42.0
 31
0.0
  0
LINE
  5
107
330
1F
100
AcDbEntity
  8
0
  6
Continuous
 62
     7
370
    25
100
AcDbLine
 10
-62.5
 20
30.0
 30
0.0
 11
-68.5
 21
30.0
 31
0.0
  0
LINE
  5
108
330
1F
100
AcDbEntity
  8
0
  6
Continuous
 62
     7
370
    25
100
AcDbLine
 10
-68.5
 20
30.0
 30
0.0
 11
-68.5
 21
18.0
 31
0.0
  0
LINE
  5
109
330
1F
100
AcDbEntity
  8
0
  6
Continuous
 62
     7
370
    25
100
AcDbLine
 10
-68.5
 20
18.0
 30
0.0
 11
-62.5
 21
18.0
 31
0.0
  0
LINE
  5
10A
330
1F
100
AcDbEntity
  8
0
  6
Continuous
 62
     7
370
    25
100
AcDbLine
 10
-62.5
 20
6.0
 30
0.0
 11
-62.5
 21
18.0
 31
0.0
  0
LINE
  5
10B
330
1F
100
AcDbEntity
  8
0
  6
Continuous
 62
     7
370
    25
100
AcDbLine
 10
-62.5
 20
6.0
 30
0.0
 11
-68.5
 21
6.0
 31
0.0
  0
LINE
  5
10C
330
1F
100
AcDbEntity
  8
0
  6
Continuous
 62
     7
370
    25
100
AcDbLine
 10
-68.5
 20
6.0
 30
0.0
 11
-68.5
 21
-6.0
 31
0.0
  0
LINE
  5
10D
330
1F
100
AcDbEntity
  8
0
  6
Continuous
 62
     7
370
    25
100
AcDbLine
 10
-68.5
 20
-6.0
 30
0.0
 11
-62.5
 21
-6.0
 31
0.0
  0
LINE
  5
10E
330
1F
100
AcDbEntity
  8
0
  6
Continuous
 62
     7
370
    25
100
AcDbLine
 10
-62.5
 20
-18.0
 30
0.0
 11
-62.5
 21
-6.0
 31
0.0
  0
LINE
  5
10F
330
1F
100
AcDbEntity
  8
0
  6
Continuous
 62
     7
370
    25
100
AcDbLine
 10
-62.5
 20
-18.0
 30
0.0
 11
-68.5
 21
-18.0
 31
0.0
  0
LINE
  5
110
330
1F
100
AcDbEntity
  8
0
  6
Continuous
 62
     7
370
    25
100
AcDbLine
 10
-68.5
 20
-18.0
 30
0.0
 11
-68.5
 21
-30.0
 31
0.0
  0
LINE
  5
111
330
1F
100
AcDbEntity
  8
0
  6
Continuous
 62
     7
370
    25
100
AcDbLine
 10
-68.5
 20
-30.0
 30
0.0
 11
-62.5
 21
-30.0
 31
0.0
  0
LINE
  5
112
330
1F
100
AcDbEntity
  8
0
  6
Continuous
 62
     7
370
    25
100
AcDbLine
 10
-62.5
 20
-42.0
 30
0.0
 11
-62.5
 21
-30.0
 31
0.0
  0
LINE
  5
113
330
1F
100
AcDbEntity
  8
0
  6
Continuous
 62
     7
370
    25
100
AcDbLine
 10
-62.5
 20
-42.0
 30
0.0
 11
-68.5
 21
-42.0
 31
0.0
  0
LINE
  5
114
330
1F
100
AcDbEntity
  8
0
  6
Continuous
 62
     7
370
    25
100
AcDbLine
 10
-68.5
 20
-42.0
 30
0.0
 11
-68.5
 21
-54.0
 31
0.0
  0
LINE
  5
115
330
1F
100
AcDbEntity
  8
0
  6
Continuous
 62
     7
370
    25
100
AcDbLine
 10
-68.5
 20
-54.0
 30
0.0
 11
-62.5
 21
-54.0
 31
0.0
  0
LINE
  5
116
330
1F
100
AcDbEntity
  8
0
  6
Continuous
 62
     7
370
    25
100
AcDbLine
 10
-62.5
 20
-60.0
 30
0.0
 11
-62.5
 21
-54.0
 31
0.0
  0
SPLINE
  5
117
330
1F
100
AcDbEntity
  8
0
  6
Continuous
 62
     7
370
    25
100
AcDbSpline
210
0.0
220
0.0
230
1.0
 70
     8
 71
     3
 72
    23
 73
    19
 74
     0
 42
0.00000001
 43
0.00000001
 40
0.0
 40
0.0
 40
0.0
 40
0.0
 40
0.0683846151037665
 40
0.134475587543448
 40
0.1983910577839537
 40
0.2607534774484851
 40
0.321829222807645
 40
0.3830372384795233
 40
0.4446531231064248
 40
0.507398011204003
 40
0.5698252379730241
 40
0.6307776406313127
 40
0.6909286865237174
 40
0.7509451326917331
 40
0.8110494767293276
 40
0.8723308525469944
 40
0.9350040935894061
 40
1.0
 40
1.0
 40
1.0
 40
1.0
 10
28.3505631293892
 20
37.80247788662894
 30
0.0
 10
28.35210273581835
 20
37.76877742238183
 30
0.0
 10
28.35513030976654
 20
37.70250681863212
 30
0.0
 10
28.36924545293299
 20
37.60553603554967
 30
0.0
 10
28.39149422670721
 20
37.51316269338601
 30
0.0
 10
28.42276328934571
 20
37.42607965141256
 30
0.0
 10
28.4606301346006
 20
37.34314952389726
 30
0.0
 10
28.50701585138654
 20
37.26498748692865
 30
0.0
 10
28.56235540533903
 20
37.19194955687875
 30
0.0
 10
28.62408110472341
 20
37.12338241928561
 30
0.0
 10
28.69278820005901
 20
37.0623216581179
 30
0.0
 10
28.76507094728022
 20
37.00766988188365
 30
0.0
 10
28.84196451226939
 20
36.96186428515426
 30
0.0
 10
28.92286259576336
 20
36.92468439540084
 30
0.0
 10
29.00763438090753
 20
36.89557807934172
 30
0.0
 10
29.09630657602327
 20
36.87571025865879
 30
0.0
 10
29.18870469237801
 20
36.86240315178394
 30
0.0
 10
29.25169042641079
 20
36.8609234865834
 30
0.0
 10
29.28375623836355
 20
36.86017019432125
 30
0.0
  0
SPLINE
  5
118
330
1F
100
AcDbEntity
  8
0
  6
Continuous
 62
     7
370
    25
100
AcDbSpline
210
0.0
220
0.0
230
1.0
 70
     8
 71
     3
 72
    19
 73
    15
 74
     0
 42
0.00000001
 43
0.00000001
 40
0.0
 40
0.0
 40
0.0
 40
0.0
 40
0.082592263331436
 40
0.1638788940984964
 40
0.2456587396295034
 40
0.327725695354123
 40
0.40860996091032
 40
0.4857490859539302
 40
0.5591690561972776
 40
0.6302684758575462
 40
0.705306028432072
 40
0.7920649660966095
 40
0.8897964374100921
 40
1.0
 40
1.0
 40
1.0
 40
1.0
 10
29.28375623836355
 20
36.86017019432125
 30
0.0
 10
29.31510738596757
 20
36.86077825098115
 30
0.0
 10
29.37731407689512
 20
36.86198475203772
 30
0.0
 10
29.46995493423821
 20
36.87371666294871
 30
0.0
 10
29.56109446163773
 20
36.8926869385698
 30
0.0
 10
29.65035544490496
 20
36.91857692865347
 30
0.0
 10
29.73592629082163
 20
36.95015378076019
 30
0.0
 10
29.81517184088288
 20
36.98825663840928
 30
0.0
 10
29.888052056509
 20
37.0304063851522
 30
0.0
 10
29.95616902309531
 20
37.07861606020062
 30
0.0
 10
30.02224001644734
 20
37.13762424720365
 30
0.0
 10
30.08778250286208
 20
37.21125996819222
 30
0.0
 10
30.15805915622535
 20
37.29834749597582
 30
0.0
 10
30.20204874896911
 20
37.36389316195373
 30
0.0
 10
30.22536280887637
 20
37.3986317327828
 30
0.0
  0
LINE
  5
119
330
1F
100
AcDbEntity
  8
0
  6
Continuous
 62
     7
370
    25
100
AcDbLine
 10
30.2253628089
 20
37.3986317328
 30
0.0
 11
30.5044092832
 21
37.2520972777
 31
0.0
  0
SPLINE
  5
11A
330
1F
100
AcDbEntity
  8
0
  6
Continuous
 62
     7
370
    25
100
AcDbSpline
210
0.0
220
0.0
230
1.0
 70
     8
 71
     3
 72
    19
 73
    15
 74
     0
 42
0.00000001
 43
0.00000001
 40
0.0
 40
0.0
 40
0.0
 40
0.0
 40
0.0933698567361948
 40
0.1816607660710052
 40
0.2658742270426193
 40
0.3463547840343095
 40
0.4245998617178955
 40
0.5019031838373766
 40
0.5799920909873495
 40
0.6584434305294307
 40
0.7386722364878336
 40
0.8218941484362425
 40
0.9088007920466165
 40
1.0
 40
1.0
 40
1.0
 40
1.0
 10
30.50440928323534
 20
37.25209727765458
 30
0.0
 10
30.48217268799537
 20
37.21265394637926
 30
0.0
 10
30.43890907951069
 20
37.13591284356155
 30
0.0
 10
30.36450833161992
 20
37.03048098308948
 30
0.0
 10
30.28651625904174
 20
36.93563326725072
 30
0.0
 10
30.20141229103817
 20
36.85390361296683
 30
0.0
 10
30.11174261208415
 20
36.78265222799262
 30
0.0
 10
30.01700995729846
 20
36.72031440327368
 30
0.0
 10
29.91672113956313
 20
36.66719588292786
 30
0.0
 10
29.81087141478487
 20
36.6224433550551
 30
0.0
 10
29.69857186364338
 20
36.58803386094718
 30
0.0
 10
29.57955034723331
 20
36.56372964002615
 30
0.0
 10
29.45357885185455
 20
36.54870637137574
 30
0.0
 10
29.36723267198678
 20
36.54696123059868
 30
0.0
 10
29.32301905887637
 20
36.54606763021869
 30
0.0
  0
SPLINE
  5
11B
330
1F
100
AcDbEntity
  8
0
  6
Continuous
 62
     7
370
    25
100
AcDbSpline
210
0.0
220
0.0
230
1.0
 70
     8
 71
     3
 72
    23
 73
    19
 74
     0
 42
0.00000001
 43
0.00000001
 40
0.0
 40
0.0
 40
0.0
 40
0.0
 40
0.0715786576891423
 40
0.1396292246928484
 40
0.2047966973966663
 40
0.2681349633966818
 40
0.3298137469867314
 40
0.3913013977745594
 40
0.4534335150970529
 40
0.5165516903197682
 40
0.5796312707049237
 40
0.6411189214927544
 40
0.7012940466987736
 40
0.7608103356761332
 40
0.8199317217781434
 40
0.8789195754993813
 40
0.9389828222504482
 40
1.0
 40
1.0
 40
1.0
 40
1.0
 10
29.32301905887637
 20
36.54606763021869
 30
0.0
 10
29.27387708134093
 20
36.54721480554826
 30
0.0
 10
29.17801531968362
 20
36.54945261227761
 30
0.0
 10
29.03847557257074
 20
36.56874507671206
 30
0.0
 10
28.90709615417325
 20
36.60021743540577
 30
0.0
 10
28.78388445081961
 20
36.64418297689701
 30
0.0
 10
28.66914219824208
 20
36.70161030098732
 30
0.0
 10
28.56264134343015
 20
36.77156978279105
 30
0.0
 10
28.46382181756119
 20
36.85370203747959
 30
0.0
 10
28.37579760837604
 20
36.94871848096655
 30
0.0
 10
28.2965537256656
 20
37.05040043826197
 30
0.0
 10
28.2266279056899
 20
37.15635632274792
 30
0.0
 10
28.16817047464048
 20
37.26631954722185
 30
0.0
 10
28.12061786444474
 20
37.37959007126538
 30
0.0
 10
28.08221299947494
 20
37.49545396480854
 30
0.0
 10
28.05544629570581
 20
37.61496543237774
 30
0.0
 10
28.04001654772375
 20
37.73780101661792
 30
0.0
 10
28.0376521021864
 20
37.82089835233568
 30
0.0
 10
28.03646056528663
 20
37.86277436098791
 30
0.0
  0
SPLINE
  5
11C
330
1F
100
AcDbEntity
  8
0
  6
Continuous
 62
     7
370
    25
100
AcDbSpline
210
0.0
220
0.0
230
1.0
 70
     8
 71
     3
 72
    15
 73
    11
 74
     0
 42
0.00000001
 43
0.00000001
 40
0.0
 40
0.0
 40
0.0
 40
0.0
 40
0.1280448079611192
 40
0.253767900024489
 40
0.3774284265813018
 40
0.5005508414825356
 40
0.6232958832424758
 40
0.7465783319335104
 40
0.8723475406047173
 40
0.9999999999999999
 40
0.9999999999999999
 40
0.9999999999999999
 40
0.9999999999999999
 10
28.03646056528663
 20
37.86277436098791
 30
0.0
 10
28.03751970661722
 20
37.9020691914055
 30
0.0
 10
28.03961878486627
 20
37.97994635609236
 30
0.0
 10
28.05284957225996
 20
38.09521190062265
 30
0.0
 10
28.07629786532797
 20
38.20724035315119
 30
0.0
 10
28.10847418927711
 20
38.31612480112008
 30
0.0
 10
28.15002543546036
 20
38.42168293510417
 30
0.0
 10
28.20085765467656
 20
38.52397899872732
 30
0.0
 10
28.26105003246535
 20
38.62290413858777
 30
0.0
 10
28.30752270622182
 20
38.6853072722956
 30
0.0
 10
28.33093171913278
 20
38.71674070714176
 30
0.0
  0
SPLINE
  5
11D
330
1F
100
AcDbEntity
  8
0
  6
Continuous
 62
     7
370
    25
100
AcDbSpline
210
0.0
220
0.0
230
1.0
 70
     8
 71
     3
 72
    15
 73
    11
 74
     0
 42
0.00000001
 43
0.00000001
 40
0.0
 40
0.0
 40
0.0
 40
0.0
 40
0.1288352544875562
 40
0.2535893349864745
 40
0.37464325731417
 40
0.4953400422377934
 40
0.6163247746357907
 40
0.7397593354405138
 40
0.8668423203805438
 40
1.0
 40
1.0
 40
1.0
 40
1.0
 10
28.33093171913278
 20
38.71674070714176
 30
0.0
 10
28.36263940190861
 20
38.75460957722981
 30
0.0
 10
28.42505034851688
 20
38.82914772768028
 30
0.0
 10
28.53060670387074
 20
38.92708605346192
 30
0.0
 10
28.64490690021312
 20
39.00912982863898
 30
0.0
 10
28.76651852631329
 20
39.0771369647772
 30
0.0
 10
28.89685500037388
 20
39.12881061176998
 30
0.0
 10
29.03416429141146
 20
39.16731819400224
 30
0.0
 10
29.18000987763808
 20
39.18889620503553
 30
0.0
 10
29.27971509847627
 20
39.19194403865751
 30
0.0
 10
29.33073139861996
 20
39.19350352765458
 30
0.0
  0
SPLINE
  5
11E
330
1F
100
AcDbEntity
  8
0
  6
Continuous
 62
     7
370
    25
100
AcDbSpline
210
0.0
220
0.0
230
1.0
 70
     8
 71
     3
 72
    15
 73
    11
 74
     0
 42
0.00000001
 43
0.00000001
 40
0.0
 40
0.0
 40
0.0
 40
0.0
 40
0.1320402344259832
 40
0.2590328407793689
 40
0.3818798239250144
 40
0.5022584437149862
 40
0.6227521895274802
 40
0.7447426318590036
 40
0.8701089273418183
 40
1.0
 40
1.0
 40
1.0
 40
1.0
 10
29.33073139861996
 20
39.19350352765458
 30
0.0
 10
29.38317900392365
 20
39.19214947876209
 30
0.0
 10
29.48606924986231
 20
39.18949314349651
 30
0.0
 10
29.63610137089911
 20
39.16486681008746
 30
0.0
 10
29.7780620874397
 20
39.12581425552408
 30
0.0
 10
29.91189459174851
 20
39.07066046502351
 30
0.0
 10
30.03761245250136
 20
38.99950091323316
 30
0.0
 10
30.15439850207603
 20
38.9113590717522
 30
0.0
 10
30.26425001462479
 20
38.80894098452713
 30
0.0
 10
30.328158593477
 20
38.73017777509984
 30
0.0
 10
30.36067931528663
 20
38.69009807893664
 30
0.0
  0
SPLINE
  5
11F
330
1F
100
AcDbEntity
  8
0
  6
Continuous
 62
     7
370
    25
100
AcDbSpline
210
0.0
220
0.0
230
1.0
 70
     8
 71
     3
 72
    15
 73
    11
 74
     0
 42
0.00000001
 43
0.00000001
 40
0.0
 40
0.0
 40
0.0
 40
0.0
 40
0.1185218400132592
 40
0.2362547631617438
 40
0.3561744339909315
 40
0.4772496548985539
 40
0.6015398708216977
 40
0.7296183821680364
 40
0.8621582661414366
 40
1.0
 40
1.0
 40
1.0
 40
1.0
 10
30.36067931528663
 20
38.69009807893664
 30
0.0
 10
30.38280625359912
 20
38.65989449755035
 30
0.0
 10
30.42691284669561
 20
38.59968837886154
 30
0.0
 10
30.48215994673074
 20
38.50151722176086
 30
0.0
 10
30.53011734171441
 20
38.3988066274107
 30
0.0
 10
30.56845030272919
 20
38.28989633032371
 30
0.0
 10
30.59948980392573
 20
38.17607675015078
 30
0.0
 10
30.62194662266591
 20
38.05653420543646
 30
0.0
 10
30.63511624124776
 20
37.93130429407559
 30
0.0
 10
30.63770493859619
 20
37.8459777385989
 30
0.0
 10
30.63902466785073
 20
37.80247788662894
 30
0.0
  0
LINE
  5
120
330
1F
100
AcDbEntity
  8
0
  6
Continuous
 62
     7
370
    25
100
AcDbLine
 10
30.6390246679
 20
37.8024778866
 30
0.0
 11
28.3505631294
 21
37.8024778866
 31
0.0
  0
LINE
  5
121
330
1F
100
AcDbEntity
  8
0
  6
Continuous
 62
     7
370
    25
100
AcDbLine
 10
21.7992810781
 20
35.6486317328
 30
0.0
 11
21.485178514
 21
35.6486317328
 31
0.0
  0
LINE
  5
122
330
1F
100
AcDbEntity
  8
0
  6
Continuous
 62
     7
370
    25
100
AcDbLine
 10
21.485178514
 20
35.6486317328
 30
0.0
 11
21.485178514
 21
39.1486317328
 31
0.0
  0
LINE
  5
123
330
1F
100
AcDbEntity
  8
0
  6
Continuous
 62
     7
370
    25
100
AcDbLine
 10
21.485178514
 20
39.1486317328
 30
0.0
 11
21.7992810781
 21
39.1486317328
 31
0.0
  0
LINE
  5
124
330
1F
100
AcDbEntity
  8
0
  6
Continuous
 62
     7
370
    25
100
AcDbLine
 10
21.7992810781
 20
39.1486317328
 30
0.0
 11
21.7992810781
 21
38.6753745212
 31
0.0
  0
SPLINE
  5
125
330
1F
100
AcDbEntity
  8
0
  6
Continuous
 62
     7
370
    25
100
AcDbSpline
210
0.0
220
0.0
230
1.0
 70
     8
 71
     3
 72
    15
 73
    11
 74
     0
 42
0.00000001
 43
0.00000001
 40
0.0
 40
0.0
 40
0.0
 40
0.0
 40
0.1353597999413073
 40
0.2630446827611707
 40
0.3860610822643574
 40
0.5057706525454608
 40
0.6251780311387007
 40
0.746147722046614
 40
0.8705380668997069
 40
1.0
 40
1.0
 40
1.0
 40
1.0
 10
21.79928107810714
 20
38.67537452124432
 30
0.0
 10
21.83263856215876
 20
38.71831225506293
 30
0.0
 10
21.89746215685878
 20
38.80175314796982
 30
0.0
 10
22.00918706172404
 20
38.90974327655682
 30
0.0
 10
22.1271138706399
 20
39.00081858020303
 30
0.0
 10
22.25427728314202
 20
39.0722011131878
 30
0.0
 10
22.38870097315674
 20
39.12602192510051
 30
0.0
 10
22.52983329060503
 20
39.16580137498612
 30
0.0
 10
22.67887205548569
 20
39.18924284958912
 30
0.0
 10
22.78076850816553
 20
39.19206451077817
 30
0.0
 10
22.83273460374816
 20
39.19350352765458
 30
0.0
  0
SPLINE
  5
126
330
1F
100
AcDbEntity
  8
0
  6
Continuous
 62
     7
370
    25
100
AcDbSpline
210
0.0
220
0.0
230
1.0
 70
     8
 71
     3
 72
    23
 73
    19
 74
     0
 42
0.00000001
 43
0.00000001
 40
0.0
 40
0.0
 40
0.0
 40
0.0
 40
0.0650810177750281
 40
0.1286360505630799
 40
0.1906529019116446
 40
0.2521250372681113
 40
0.3134462756463786
 40
0.3752272792333941
 40
0.4384980827328618
 40
0.5032850999340381
 40
0.568009686846369
 40
0.6308789816949768
 40
0.692153504008278
 40
0.7525521497156001
 40
0.8131910939047711
 40
0.8739853995183325
 40
0.9362579468344594
 40
1.0
 40
1.0
 40
1.0
 40
1.0
 10
22.83273460374816
 20
39.19350352765458
 30
0.0
 10
22.8781262069453
 20
39.19219034876286
 30
0.0
 10
22.96784509524221
 20
39.18959478169756
 30
0.0
 10
23.09990832417172
 20
39.17202172713034
 30
0.0
 10
23.22708370769678
 20
39.1419040346974
 30
0.0
 10
23.3486517616732
 20
39.09850311933261
 30
0.0
 10
23.4659148268594
 20
39.04484764939764
 30
0.0
 10
23.57713692669499
 20
38.97713061382041
 30
0.0
 10
23.6840504823233
 20
38.8987244230286
 30
0.0
 10
23.78396667142667
 20
38.80849227220781
 30
0.0
 10
23.87628803895254
 20
38.71086400579003
 30
0.0
 10
23.95613422007057
 20
38.60584170165631
 30
0.0
 10
24.02500612438523
 20
38.49687911525729
 30
0.0
 10
24.08067642084761
 20
38.38228702303201
 30
0.0
 10
24.12428476826286
 20
38.26296779319515
 30
0.0
 10
24.15529944590124
 20
38.13843935228576
 30
0.0
 10
24.17375708938732
 20
38.00916341184298
 30
0.0
 10
24.17623354104483
 20
37.92126069127747
 30
0.0
 10
24.17748620631227
 20
37.87679679688535
 30
0.0
  0
SPLINE
  5
127
330
1F
100
AcDbEntity
  8
0
  6
Continuous
 62
     7
370
    25
100
AcDbSpline
210
0.0
220
0.0
230
1.0
 70
     8
 71
     3
 72
    23
 73
    19
 74
     0
 42
0.00000001
 43
0.00000001
 40
0.0
 40
0.0
 40
0.0
 40
0.0
 40
0.0649212959378685
 40
0.1280341643911177
 40
0.1895737254178904
 40
0.2505798347323843
 40
0.3117332213636335
 40
0.3732500799286351
 40
0.4357625163356394
 40
0.5003455613741145
 40
0.5649493665465417
 40
0.6275279092682854
 40
0.6891572899131305
 40
0.7498650117126997
 40
0.810760199903316
 40
0.87229976093009
 40
0.9354126293833375
 40
1.0
 40
1.0
 40
1.0
 40
1.0
 10
24.17748620631227
 20
37.87679679688535
 30
0.0
 10
24.17626072075252
 20
37.83139448833217
 30
0.0
 10
24.1738438863787
 20
37.74185458385155
 30
0.0
 10
24.1550988804373
 20
37.61036748660928
 30
0.0
 10
24.12514200630691
 20
37.48388011278126
 30
0.0
 10
24.0820838231814
 20
37.36260284920801
 30
0.0
 10
24.02644233482942
 20
37.24661919791538
 30
0.0
 10
23.95873777446628
 20
37.13601280186544
 30
0.0
 10
23.87885130735737
 20
37.03081909871542
 30
0.0
 10
23.78755017964555
 20
36.93246619861495
 30
0.0
 10
23.68849724358872
 20
36.84186688572036
 30
0.0
 10
23.58261975409139
 20
36.76262881610617
 30
0.0
 10
23.47156082854881
 20
36.69608744081322
 30
0.0
 10
23.35588866141267
 20
36.64050448124521
 30
0.0
 10
23.23461302290898
 20
36.5986122971761
 30
0.0
 10
23.10829974520742
 20
36.56839449655185
 30
0.0
 10
22.97701759871018
 20
36.54976000081709
 30
0.0
 10
22.88771644671786
 20
36.54730785837836
 30
0.0
 10
22.84255030887637
 20
36.54606763021869
 30
0.0
  0
SPLINE
  5
128
330
1F
100
AcDbEntity
  8
0
  6
Continuous
 62
     7
370
    25
100
AcDbSpline
210
0.0
220
0.0
230
1.0
 70
     8
 71
     3
 72
    15
 73
    11
 74
     0
 42
0.00000001
 43
0.00000001
 40
0.0
 40
0.0
 40
0.0
 40
0.0
 40
0.1268408077972017
 40
0.2505477821575817
 40
0.371230203565263
 40
0.4921157704266529
 40
0.6134009879986351
 40
0.7379973201236228
 40
0.8661319098407446
 40
1.0
 40
1.0
 40
1.0
 40
1.0
 10
22.84255030887637
 20
36.54606763021869
 30
0.0
 10
22.79172273692646
 20
36.54736243793236
 30
0.0
 10
22.6913233808701
 20
36.5499200627742
 30
0.0
 10
22.54452571045758
 20
36.57583947282932
 30
0.0
 10
22.40324885854717
 20
36.61457640848926
 30
0.0
 10
22.26905803381555
 20
36.67127540212486
 30
0.0
 10
22.14089022129241
 20
36.74353091798443
 30
0.0
 10
22.01947041553028
 20
36.8316411239599
 30
0.0
 10
21.90415366262671
 20
36.93542174869734
 30
0.0
 10
21.83474490535167
 20
37.01415356485943
 30
0.0
 10
21.79928107810714
 20
37.05438093150074
 30
0.0
  0
LINE
  5
129
330
1F
100
AcDbEntity
  8
0
  6
Continuous
 62
     7
370
    25
100
AcDbLine
 10
21.7992810781
 20
37.0543809315
 30
0.0
 11
21.7992810781
 21
35.6486317328
 31
0.0
  0
LINE
  5
12A
330
1F
100
AcDbEntity
  8
0
  6
Continuous
 62
     7
370
    25
100
AcDbLine
 10
35.6646656935
 20
31.8420411879
 30
0.0
 11
35.6646656935
 21
32.3152983994
 31
0.0
  0
LINE
  5
12B
330
1F
100
AcDbEntity
  8
0
  6
Continuous
 62
     7
370
    25
100
AcDbLine
 10
35.6646656935
 20
32.3152983994
 30
0.0
 11
35.9787682576
 21
32.3152983994
 31
0.0
  0
LINE
  5
12C
330
1F
100
AcDbEntity
  8
0
  6
Continuous
 62
     7
370
    25
100
AcDbLine
 10
35.9787682576
 20
32.3152983994
 30
0.0
 11
35.9787682576
 21
29.7576060918
 31
0.0
  0
LINE
  5
12D
330
1F
100
AcDbEntity
  8
0
  6
Continuous
 62
     7
370
    25
100
AcDbLine
 10
35.9787682576
 20
29.7576060918
 30
0.0
 11
35.6646656935
 21
29.7576060918
 31
0.0
  0
LINE
  5
12E
330
1F
100
AcDbEntity
  8
0
  6
Continuous
 62
     7
370
    25
100
AcDbLine
 10
35.6646656935
 20
29.7576060918
 30
0.0
 11
35.6646656935
 21
30.2000139443
 31
0.0
  0
SPLINE
  5
12F
330
1F
100
AcDbEntity
  8
0
  6
Continuous
 62
     7
370
    25
100
AcDbSpline
210
0.0
220
0.0
230
1.0
 70
     8
 71
     3
 72
    15
 73
    11
 74
     0
 42
0.00000001
 43
0.00000001
 40
0.0
 40
0.0
 40
0.0
 40
0.0
 40
0.134298379014171
 40
0.2620849753823002
 40
0.3862699121345023
 40
0.507164596622805
 40
0.6273002357255062
 40
0.7481449416029934
 40
0.8723701771613553
 40
1.0
 40
1.0
 40
1.0
 40
1.0
 10
35.66466569349176
 20
30.20001394432125
 30
0.0
 10
35.62924690286559
 20
30.15997435036341
 30
0.0
 10
35.56012668758476
 20
30.08183657927648
 30
0.0
 10
35.44468556961328
 20
29.97975440678572
 30
0.0
 10
35.3223173917108
 20
29.89537608524567
 30
0.0
 10
35.19361607058008
 20
29.82722616954528
 30
0.0
 10
35.05869782723548
 20
29.77603411320792
 30
0.0
 10
34.91786173995922
 20
29.73964795408212
 30
0.0
 10
34.77105035909369
 20
29.71625411890987
 30
0.0
 10
34.67079800430368
 20
29.71391809704085
 30
0.0
 10
34.61999421913278
 20
29.71273429688535
 30
0.0
  0
SPLINE
  5
130
330
1F
100
AcDbEntity
  8
0
  6
Continuous
 62
     7
370
    25
100
AcDbSpline
210
0.0
220
0.0
230
1.0
 70
     8
 71
     3
 72
    23
 73
    19
 74
     0
 42
0.00000001
 43
0.00000001
 40
0.0
 40
0.0
 40
0.0
 40
0.0
 40
0.0646199913407684
 40
0.1274334841444711
 40
0.1890041265579403
 40
0.2499300706860468
 40
0.3106684537406713
 40
0.3723289611368244
 40
0.4349391099970073
 40
0.4995755441940348
 40
0.5641912077719252
 40
0.6267352169294776
 40
0.6881093335614015
 40
0.749293606536752
 40
0.8103305278109456
 40
0.871901170224416
 40
0.9350459146845327
 40
1.0
 40
1.0
 40
1.0
 40
1.0
 10
34.61999421913278
 20
29.71273429688535
 30
0.0
 10
34.57482626530025
 20
29.7139606691545
 30
0.0
 10
34.48575306041226
 20
29.71637912957015
 30
0.0
 10
34.35472398327332
 20
29.7351414331884
 30
0.0
 10
34.22863173382068
 20
29.76527205483049
 30
0.0
 10
34.10735716115889
 20
29.80717294432226
 30
0.0
 10
33.99168501572478
 20
29.86275376596043
 30
0.0
 10
33.88062491905247
 20
29.92929501400186
 30
0.0
 10
33.77475222703336
 20
30.00853584408251
 30
0.0
 10
33.67568068806951
 20
30.0991238724354
 30
0.0
 10
33.58444868769359
 20
30.197518859619
 30
0.0
 10
33.50438741507143
 20
30.30246440649414
 30
0.0
 10
33.43763433521667
 20
30.41350671038681
 30
0.0
 10
33.38181425450941
 20
30.52923986427554
 30
0.0
 10
33.33881791006866
 20
30.65055478380954
 30
0.0
 10
33.30884427581076
 20
30.77703195174934
 30
0.0
 10
33.29010382911008
 20
30.90852182528918
 30
0.0
 10
33.28768636842512
 20
30.99806134838478
 30
0.0
 10
33.28646056528662
 20
31.04346346355202
 30
0.0
  0
SPLINE
  5
131
330
1F
100
AcDbEntity
  8
0
  6
Continuous
 62
     7
370
    25
100
AcDbSpline
210
0.0
220
0.0
230
1.0
 70
     8
 71
     3
 72
    23
 73
    19
 74
     0
 42
0.00000001
 43
0.00000001
 40
0.0
 40
0.0
 40
0.0
 40
0.0
 40
0.0637745323056328
 40
0.126078809989508
 40
0.1869040927472082
 40
0.2475739349176201
 40
0.3080033561644483
 40
0.3691318984609803
 40
0.4320332277442047
 40
0.496790794437093
 40
0.5616108232295668
 40
0.6249138657484635
 40
0.6867263492419265
 40
0.7480788332577724
 40
0.8095822911398993
 40
0.8716307425688291
 40
0.9348858208285534
 40
1.0
 40
1.0
 40
1.0
 40
1.0
 10
33.28646056528662
 20
31.04346346355202
 30
0.0
 10
33.28771353667151
 20
31.08792716712144
 30
0.0
 10
33.29019059350667
 20
31.17582951044078
 30
0.0
 10
33.30864381334694
 20
31.30510820842663
 30
0.0
 10
33.33967482200612
 20
31.42962646915988
 30
0.0
 10
33.383222669672
 20
31.54898341238364
 30
0.0
 10
33.43906462463514
 20
31.66332346253224
 30
0.0
 10
33.50699271165598
 20
31.77272748754716
 30
0.0
 10
33.58701183635482
 20
31.87749688500921
 30
0.0
 10
33.6792642433712
 20
31.97516811182798
 30
0.0
 10
33.77919901353386
 20
32.06538872609735
 30
0.0
 10
33.88610774444921
 20
32.14379777153982
 30
0.0
 10
33.99733102577005
 20
32.21151462035585
 30
0.0
 10
34.11459403629242
 20
32.26516809666219
 30
0.0
 10
34.23616114110642
 20
32.30857720120665
 30
0.0
 10
34.36311458685366
 20
32.33861016930717
 30
0.0
 10
34.49492616552921
 20
32.35630749054718
 30
0.0
 10
34.58441665759385
 20
32.35887025469827
 30
0.0
 10
34.62980992426098
 20
32.36017019432125
 30
0.0
  0
SPLINE
  5
132
330
1F
100
AcDbEntity
  8
0
  6
Continuous
 62
     7
370
    25
100
AcDbSpline
210
0.0
220
0.0
230
1.0
 70
     8
 71
     3
 72
    15
 73
    11
 74
     0
 42
0.00000001
 43
0.00000001
 40
0.0
 40
0.0
 40
0.0
 40
0.0
 40
0.1298621417207378
 40
0.2546535308972916
 40
0.3760145541937168
 40
0.4952552518176118
 40
0.6147977192994598
 40
0.7381055541683342
 40
0.8651963000723575
 40
1.0
 40
1.0
 40
1.0
 40
1.0
 10
34.62980992426098
 20
32.36017019432125
 30
0.0
 10
34.68200978332393
 20
32.35873244277939
 30
0.0
 10
34.78437124330436
 20
32.3559130798624
 30
0.0
 10
34.93409925257117
 20
32.33245035254343
 30
0.0
 10
35.07574373047475
 20
32.29281188538859
 30
0.0
 10
35.2103980825048
 20
32.23889438736506
 30
0.0
 10
35.33757876859963
 20
32.16724565828316
 30
0.0
 10
35.45608175291558
 20
32.07686569725951
 30
0.0
 10
35.56714723622338
 20
31.96832451028938
 30
0.0
 10
35.63152752788262
 20
31.88495406582016
 30
0.0
 10
35.66466569349176
 20
31.84204118791099
 30
0.0
  0
LINE
  5
133
330
1F
100
AcDbEntity
  8
0
  6
Continuous
 62
     7
370
    25
100
AcDbLine
 10
36.9210759499
 20
29.7576060918
 30
0.0
 11
36.6069733858
 21
29.7576060918
 31
0.0
  0
LINE
  5
134
330
1F
100
AcDbEntity
  8
0
  6
Continuous
 62
     7
370
    25
100
AcDbLine
 10
36.6069733858
 20
29.7576060918
 30
0.0
 11
36.6069733858
 21
32.3152983994
 31
0.0
  0
LINE
  5
135
330
1F
100
AcDbEntity
  8
0
  6
Continuous
 62
     7
370
    25
100
AcDbLine
 10
36.6069733858
 20
32.3152983994
 30
0.0
 11
36.9210759499
 21
32.3152983994
 31
0.0
  0
LINE
  5
136
330
1F
100
AcDbEntity
  8
0
  6
Continuous
 62
     7
370
    25
100
AcDbLine
 10
36.9210759499
 20
32.3152983994
 30
0.0
 11
36.9210759499
 21
31.9387959956
 31
0.0
  0
SPLINE
  5
137
330
1F
100
AcDbEntity
  8
0
  6
Continuous
 62
     7
370
    25
100
AcDbSpline
210
0.0
220
0.0
230
1.0
 70
     8
 71
     3
 72
    15
 73
    11
 74
     0
 42
0.00000001
 43
0.00000001
 40
0.0
 40
0.0
 40
0.0
 40
0.0
 40
0.1600594124854858
 40
0.3061123827401255
 40
0.4383665141302086
 40
0.5605414552552171
 40
0.6753172249527073
 40
0.7861136344281854
 40
0.892841788105093
 40
0.9999999999999999
 40
0.9999999999999999
 40
0.9999999999999999
 40
0.9999999999999999
 10
36.92107594990202
 20
31.9387959956033
 30
0.0
 10
36.94426470865331
 20
31.97385182392919
 30
0.0
 10
36.98861302959189
 20
32.04089582322376
 30
0.0
 10
37.06232595894566
 20
32.12956512421562
 30
0.0
 10
37.13782929022404
 20
32.20298017082703
 30
0.0
 10
37.21548447752659
 20
32.26148368959691
 30
0.0
 10
37.29586257743675
 20
32.30529680842076
 30
0.0
 10
37.37719952915475
 20
32.33738984345229
 30
0.0
 10
37.46077499901219
 20
32.35636715868961
 30
0.0
 10
37.51693692324007
 20
32.35890081764691
 30
0.0
 10
37.54507434733792
 20
32.36017019432126
 30
0.0
  0
SPLINE
  5
138
330
1F
100
AcDbEntity
  8
0
  6
Continuous
 62
     7
370
    25
100
AcDbSpline
210
0.0
220
0.0
230
1.0
 70
     8
 71
     3
 72
    11
 73
     7
 74
     0
 42
0.00000001
 43
0.00000001
 40
0.0
 40
0.0
 40
0.0
 40
0.0
 40
0.2252775478670339
 40
0.463523195176484
 40
0.7203235553269413
 40
1.0
 40
1.0
 40
1.0
 40
1.0
 10
37.54507434733791
 20
32.36017019432125
 30
0.0
 10
37.5669006738246
 20
32.35897966772633
 30
0.0
 10
37.61180975903024
 20
32.35653008188681
 30
0.0
 10
37.67979234883448
 20
32.33931925724493
 30
0.0
 10
37.74983580074409
 20
32.31184123469195
 30
0.0
 10
37.79497818799464
 20
32.28600101202696
 30
0.0
 10
37.81851184733791
 20
32.27252996996227
 30
0.0
  0
LINE
  5
139
330
1F
100
AcDbEntity
  8
0
  6
Continuous
 62
     7
370
    25
100
AcDbLine
 10
37.8185118473
 20
32.27252997
 30
0.0
 11
37.6460358858
 21
32.0004947136
 31
0.0
  0
SPLINE
  5
13A
330
1F
100
AcDbEntity
  8
0
  6
Continuous
 62
     7
370
    25
100
AcDbSpline
210
0.0
220
0.0
230
1.0
 70
     8
 71
     3
 72
    11
 73
     7
 74
     0
 42
0.00000001
 43
0.00000001
 40
0.0
 40
0.0
 40
0.0
 40
0.0
 40
0.2951388013693819
 40
0.5602299448882417
 40
0.7949833567408772
 40
1.0
 40
1.0
 40
1.0
 40
1.0
 10
37.64603588579945
 20
32.00049471355202
 30
0.0
 10
37.63092686465558
 20
32.00723497966716
 30
0.0
 10
37.60224705012944
 20
32.02002929507638
 30
0.0
 10
37.5602924838607
 20
32.03517130520843
 30
0.0
 10
37.5216111471298
 20
32.04408722105653
 30
0.0
 10
37.49696758876694
 20
32.04543793850865
 30
0.0
 10
37.48547899477381
 20
32.04606763021869
 30
0.0
  0
SPLINE
  5
13B
330
1F
100
AcDbEntity
  8
0
  6
Continuous
 62
     7
370
    25
100
AcDbSpline
210
0.0
220
0.0
230
1.0
 70
     8
 71
     3
 72
    19
 73
    15
 74
     0
 42
0.00000001
 43
0.00000001
 40
0.0
 40
0.0
 40
0.0
 40
0.0
 40
0.0938065293523313
 40
0.191338128136336
 40
0.2951906166251752
 40
0.4103123367232928
 40
0.4719302510512788
 40
0.5364251593464316
 40
0.6031187283036294
 40
0.6741176724906016
 40
0.7493320232258883
 40
0.8282833841715673
 40
0.9120398092627603
 40
1.0
 40
1.0
 40
1.0
 40
1.0
 10
37.48547899477381
 20
32.04606763021869
 30
0.0
 10
37.46027326126279
 20
32.04438759285011
 30
0.0
 10
37.40886087129805
 20
32.04096080361145
 30
0.0
 10
37.33337637188829
 20
32.01402199584446
 30
0.0
 10
37.26012916638696
 20
31.97049675573132
 30
0.0
 10
37.20195750405094
 20
31.92222564388044
 30
0.0
 10
37.15691525117614
 20
31.87567784641606
 30
0.0
 10
37.12477502564536
 20
31.83502944384908
 30
0.0
 10
37.09529227869167
 20
31.78945081232063
 30
0.0
 10
37.06712205829119
 20
31.7397211285173
 30
0.0
 10
37.04145576408204
 20
31.68499128248505
 30
0.0
 10
37.0175010948783
 20
31.62580806906314
 30
0.0
 10
36.99584223195593
 20
31.56210294029337
 30
0.0
 10
36.9834919877317
 20
31.51772042007311
 30
0.0
 10
36.97716569349176
 20
31.49498589944946
 30
0.0
  0
SPLINE
  5
13C
330
1F
100
AcDbEntity
  8
0
  6
Continuous
 62
     7
370
    25
100
AcDbSpline
210
0.0
220
0.0
230
1.0
 70
     8
 71
     3
 72
    15
 73
    11
 74
     0
 42
0.00000001
 43
0.00000001
 40
0.0
 40
0.0
 40
0.0
 40
0.0
 40
0.0708548685015329
 40
0.1569381495573539
 40
0.2586003949600866
 40
0.3758909295892049
 40
0.5081661676989051
 40
0.6562378085782249
 40
0.8201767703979129
 40
1.0
 40
1.0
 40
1.0
 40
1.0
 10
36.97716569349176
 20
31.49498589944946
 30
0.0
 10
36.97243330012668
 20
31.47470872587063
 30
0.0
 10
36.96195140843173
 20
31.4297963272308
 30
0.0
 10
36.9517598705881
 20
31.35444780250903
 30
0.0
 10
36.94169035261154
 20
31.26542414374503
 30
0.0
 10
36.93459373426082
 20
31.16247755086147
 30
0.0
 10
36.92801569213353
 20
31.04586510693332
 30
0.0
 10
36.92430560990639
 20
30.91540916130971
 30
0.0
 10
36.92120246934964
 20
30.77097581016767
 30
0.0
 10
36.92111940247874
 20
30.67000145693544
 30
0.0
 10
36.92107594990202
 20
30.61718141226997
 30
0.0
  0
LINE
  5
13D
330
1F
100
AcDbEntity
  8
0
  6
Continuous
 62
     7
370
    25
100
AcDbLine
 10
36.9210759499
 20
30.6171814123
 30
0.0
 11
36.9210759499
 21
29.7576060918
 31
0.0
  0
LINE
  5
13E
330
1F
100
AcDbEntity
  8
0
  6
Continuous
 62
     7
370
    25
100
AcDbLine
 10
38.3121015909
 20
30.6550419892
 30
0.0
 11
38.3121015909
 21
33.3473496815
 31
0.0
  0
LINE
  5
13F
330
1F
100
AcDbEntity
  8
0
  6
Continuous
 62
     7
370
    25
100
AcDbLine
 10
38.3121015909
 20
33.3473496815
 30
0.0
 11
38.626204155
 21
33.3473496815
 31
0.0
  0
LINE
  5
140
330
1F
100
AcDbEntity
  8
0
  6
Continuous
 62
     7
370
    25
100
AcDbLine
 10
38.626204155
 20
33.3473496815
 30
0.0
 11
38.626204155
 21
30.6550419892
 31
0.0
  0
LINE
  5
141
330
1F
100
AcDbEntity
  8
0
  6
Continuous
 62
     7
370
    25
100
AcDbLine
 10
38.626204155
 20
30.6550419892
 30
0.0
 11
38.3121015909
 21
30.6550419892
 31
0.0
  0
SPLINE
  5
142
330
1F
100
AcDbEntity
  8
0
  6
Continuous
 62
     7
370
    25
100
AcDbSpline
210
0.0
220
0.0
230
1.0
 70
     8
 71
     3
 72
    15
 73
    11
 74
     0
 42
0.00000001
 43
0.00000001
 40
0.0
 40
0.0
 40
0.0
 40
0.0
 40
0.116669987058541
 40
0.2308454686084783
 40
0.3484518269217086
 40
0.4737460388292963
 40
0.6046591885517195
 40
0.7321124015585071
 40
0.8638503242886849
 40
1.0
 40
1.0
 40
1.0
 40
1.0
 10
38.46915287297893
 20
29.71273429688535
 30
0.0
 10
38.45265105825052
 20
29.71381873217036
 30
0.0
 10
38.42000025190426
 20
29.71596441657346
 30
0.0
 10
38.37323803684492
 20
29.73312390452361
 30
0.0
 10
38.33041638217932
 20
29.76032100677888
 30
0.0
 10
38.29278114717814
 20
29.79782775949591
 30
0.0
 10
38.26183542512581
 20
29.84262890176527
 30
0.0
 10
38.23899569298506
 20
29.89295282145484
 30
0.0
 10
38.22430594299153
 20
29.94724823739195
 30
0.0
 10
38.22301440509121
 20
29.9851420346598
 30
0.0
 10
38.22235800118406
 20
30.00440096355202
 30
0.0
  0
SPLINE
  5
143
330
1F
100
AcDbEntity
  8
0
  6
Continuous
 62
     7
370
    25
100
AcDbSpline
210
0.0
220
0.0
230
1.0
 70
     8
 71
     3
 72
    15
 73
    11
 74
     0
 42
0.00000001
 43
0.00000001
 40
0.0
 40
0.0
 40
0.0
 40
0.0
 40
0.139257473963566
 40
0.2708107590263434
 40
0.3980853396130613
 40
0.5274588431622743
 40
0.6525774486040532
 40
0.7700189753849542
 40
0.8834935320999425
 40
1.0
 40
1.0
 40
1.0
 40
1.0
 10
38.22235800118406
 20
30.00440096355202
 30
0.0
 10
38.22297545047465
 20
30.0241334333146
 30
0.0
 10
38.22417618969735
 20
30.06250670666054
 30
0.0
 10
38.23902951525977
 20
30.11722909884687
 30
0.0
 10
38.26163064298741
 20
30.16748264994786
 30
0.0
 10
38.29301843908038
 20
30.21175684322687
 30
0.0
 10
38.33041391209859
 20
30.24913141601651
 30
0.0
 10
38.37309733892471
 20
30.27656998673838
 30
0.0
 10
38.42014905651852
 20
30.29263222810457
 30
0.0
 10
38.45267533282883
 20
30.29491247577652
 30
0.0
 10
38.46915287297893
 20
30.29606763021869
 30
0.0
  0
SPLINE
  5
144
330
1F
100
AcDbEntity
  8
0
  6
Continuous
 62
     7
370
    25
100
AcDbSpline
210
0.0
220
0.0
230
1.0
 70
     8
 71
     3
 72
    15
 73
    11
 74
     0
 42
0.00000001
 43
0.00000001
 40
0.0
 40
0.0
 40
0.0
 40
0.0
 40
0.116506467900056
 40
0.2299810246150428
 40
0.3474225513959423
 40
0.4725411568377312
 40
0.6019146603869521
 40
0.7291892409736547
 40
0.8607425260364346
 40
1.0
 40
1.0
 40
1.0
 40
1.0
 10
38.46915287297894
 20
30.29606763021869
 30
0.0
 10
38.48563041312903
 20
30.29491247577653
 30
0.0
 10
38.51815668943935
 20
30.29263222810458
 30
0.0
 10
38.56520840703316
 20
30.27656998673837
 30
0.0
 10
38.60789183385927
 20
30.24913141601651
 30
0.0
 10
38.64528730687748
 20
30.21175684322688
 30
0.0
 10
38.67667510297048
 20
30.16748264994786
 30
0.0
 10
38.69927623069808
 20
30.11722909884688
 30
0.0
 10
38.71412955626052
 20
30.06250670666052
 30
0.0
 10
38.71533029548323
 20
30.0241334333146
 30
0.0
 10
38.71594774477381
 20
30.00440096355202
 30
0.0
  0
SPLINE
  5
145
330
1F
100
AcDbEntity
  8
0
  6
Continuous
 62
     7
370
    25
100
AcDbSpline
210
0.0
220
0.0
230
1.0
 70
     8
 71
     3
 72
    15
 73
    11
 74
     0
 42
0.00000001
 43
0.00000001
 40
0.0
 40
0.0
 40
0.0
 40
0.0
 40
0.1361496757113146
 40
0.267887598441495
 40
0.3953408114482672
 40
0.5262539611706981
 40
0.651548173078296
 40
0.7691545313915248
 40
0.8833300129414605
 40
1.0
 40
1.0
 40
1.0
 40
1.0
 10
38.71594774477381
 20
30.00440096355202
 30
0.0
 10
38.71529134086666
 20
29.98514203465981
 30
0.0
 10
38.71399980296635
 20
29.94724823739196
 30
0.0
 10
38.69931005297278
 20
29.89295282145483
 30
0.0
 10
38.67647032083209
 20
29.84262890176526
 30
0.0
 10
38.64552459877972
 20
29.79782775949593
 30
0.0
 10
38.60788936377854
 20
29.76032100677888
 30
0.0
 10
38.56506770911293
 20
29.73312390452361
 30
0.0
 10
38.51830549405361
 20
29.71596441657346
 30
0.0
 10
38.48565468770735
 20
29.71381873217036
 30
0.0
 10
38.46915287297893
 20
29.71273429688535
 30
0.0
  0
LINE
  5
146
330
1F
100
AcDbEntity
  8
0
  6
Continuous
 62
     7
370
    25
100
AcDbLine
 10
15.203127232
 20
36.5909394251
 30
0.0
 11
15.203127232
 21
39.7319650661
 31
0.0
  0
LINE
  5
147
330
1F
100
AcDbEntity
  8
0
  6
Continuous
 62
     7
370
    25
100
AcDbLine
 10
15.203127232
 20
39.7319650661
 30
0.0
 11
14.4403067191
 21
39.7319650661
 31
0.0
  0
LINE
  5
148
330
1F
100
AcDbEntity
  8
0
  6
Continuous
 62
     7
370
    25
100
AcDbLine
 10
14.4403067191
 20
39.7319650661
 30
0.0
 11
14.4403067191
 21
40.0909394251
 31
0.0
  0
LINE
  5
149
330
1F
100
AcDbEntity
  8
0
  6
Continuous
 62
     7
370
    25
100
AcDbLine
 10
14.4403067191
 20
40.0909394251
 30
0.0
 11
16.2800503089
 21
40.0909394251
 31
0.0
  0
LINE
  5
14A
330
1F
100
AcDbEntity
  8
0
  6
Continuous
 62
     7
370
    25
100
AcDbLine
 10
16.2800503089
 20
40.0909394251
 30
0.0
 11
16.2800503089
 21
39.7319650661
 31
0.0
  0
LINE
  5
14B
330
1F
100
AcDbEntity
  8
0
  6
Continuous
 62
     7
370
    25
100
AcDbLine
 10
16.2800503089
 20
39.7319650661
 30
0.0
 11
15.5172297961
 21
39.7319650661
 31
0.0
  0
LINE
  5
14C
330
1F
100
AcDbEntity
  8
0
  6
Continuous
 62
     7
370
    25
100
AcDbLine
 10
15.5172297961
 20
39.7319650661
 30
0.0
 11
15.5172297961
 21
36.5909394251
 31
0.0
  0
LINE
  5
14D
330
1F
100
AcDbEntity
  8
0
  6
Continuous
 62
     7
370
    25
100
AcDbLine
 10
15.5172297961
 20
36.5909394251
 30
0.0
 11
15.203127232
 21
36.5909394251
 31
0.0
  0
MTEXT
  5
14F
330
1F
100
AcDbEntity
  8
0
  6
Continuous
 62
     7
100
AcDbMText
 10
-68.5
 20
-67.0195663917
 30
0.0
 40
4.83362
 41
0.0
 71
     1
 72
     1
  1
SOLIDWORKS Educational Product.
  7
SLDTEXTSTYLE0
 73
     1
 44
1.0
  0
MTEXT
  5
150
330
1F
100
AcDbEntity
  8
0
  6
Continuous
 62
     7
100
AcDbMText
 10
-68.5
 20
-74.2699963917
 30
0.0
 40
4.83362
 41
0.0
 71
     1
 72
     1
  1
For Instructional Use Only.
  7
SLDTEXTSTYLE0
 73
     1
 44
1.0
  0
ENDSEC
  0
SECTION
  2
OBJECTS
  0
DICTIONARY
  5
C
330
0
100
AcDbDictionary
281
     1
  3
ACAD_GROUP
350
D
  3
ACAD_LAYOUT
350
1A
  3
ACAD_MLINESTYLE
350
17
  3
ACAD_PLOTSETTINGS
350
19
  3
ACAD_PLOTSTYLENAME
350
E
  3
ACAD_SCALELIST
350
47
  3
DWGPROPS
350
151
  0
DICTIONARY
  5
D
102
{ACAD_REACTORS
330
C
102
}
330
C
100
AcDbDictionary
281
     1
  0
DICTIONARY
  5
1A
102
{ACAD_REACTORS
330
C
102
}
330
C
100
AcDbDictionary
281
     1
  3
Layout1
350
1E
  3
Layout2
350
26
  3
Model
350
22
  0
DICTIONARY
  5
17
102
{ACAD_REACTORS
330
C
102
}
330
C
100
AcDbDictionary
281
     1
  3
Standard
350
18
  0
DICTIONARY
  5
19
102
{ACAD_REACTORS
330
C
102
}
330
C
100
AcDbDictionary
281
     1
  0
ACDBDICTIONARYWDFLT
  5
E
102
{ACAD_REACTORS
330
C
102
}
330
C
100
AcDbDictionary
281
     1
  3
Normal
350
F
100
AcDbDictionaryWithDefault
340
F
  0
DICTIONARY
  5
47
102
{ACAD_REACTORS
330
C
102
}
330
C
100
AcDbDictionary
281
     1
  3
A0
350
48
  3
A1
350
49
  3
A2
350
4A
  3
A3
350
4B
  3
A4
350
4C
  3
A5
350
4D
  3
A6
350
4E
  3
A7
350
4F
  3
A8
350
50
  3
A9
350
51
  3
B0
350
52
  3
B1
350
53
  3
B2
350
54
  3
B3
350
55
  3
B4
350
56
  3
B5
350
57
  3
B6
350
58
  3
B7
350
59
  3
B8
350
5A
  3
B9
350
5B
  3
C0
350
5C
  3
C1
350
5D
  3
C2
350
5E
  3
C3
350
5F
  3
C4
350
60
  3
C5
350
61
  3
C6
350
62
  3
C7
350
63
  3
C8
350
64
  3
C9
350
65
  3
D0
350
66
  3
D1
350
67
  3
D2
350
68
  0
XRECORD
  5
151
102
{ACAD_REACTORS
330
C
102
}
330
C
100
AcDbXrecord
280
     1
  1
DWGPROPS COOKIE
  2

  3

  4

  6

  7

  8
vd_sa
  9

300
=
301
=
302
=
303
=
304
=
305
=
306
=
307
=
308
=
309
=
 40
0.0
 41
2459698.616383229
 42
2459698.616409051
  1

 90
        0
  0
LAYOUT
  5
1E
102
{ACAD_REACTORS
330
1A
102
}
330
1A
100
AcDbPlotSettings
  1

  2
none_device
  4

  6

 40
0.0
 41
0.0
 42
0.0
 43
0.0
 44
0.0
 45
0.0
 46
0.0
 47
0.0
 48
0.0
 49
0.0
140
0.0
141
0.0
142
1.0
143
1.0
 70
   688
 72
     1
 73
     0
 74
     5
  7

 75
    16
147
1.0
148
0.0
149
0.0
100
AcDbLayout
  1
Layout1
 70
     1
 71
     1
 10
0.0
 20
0.0
 11
420.0
 21
297.0
 12
0.0
 22
0.0
 32
0.0
 14
1.0000000000E+20
 24
1.0000000000E+20
 34
1.0000000000E+20
 15
-1.0000000000E+20
 25
-1.0000000000E+20
 35
-1.0000000000E+20
146
0.0
 13
0.0
 23
0.0
 33
0.0
 16
1.0
 26
0.0
 36
0.0
 17
0.0
 27
1.0
 37
0.0
 76
     0
330
1B
  0
LAYOUT
  5
26
102
{ACAD_REACTORS
330
1A
102
}
330
1A
100
AcDbPlotSettings
  1

  2
none_device
  4

  6

 40
0.0
 41
0.0
 42
0.0
 43
0.0
 44
0.0
 45
0.0
 46
0.0
 47
0.0
 48
0.0
 49
0.0
140
0.0
141
0.0
142
1.0
143
1.0
 70
   688
 72
     1
 73
     0
 74
     5
  7

 75
    16
147
1.0
148
0.0
149
0.0
100
AcDbLayout
  1
Layout2
 70
     1
 71
     2
 10
0.0
 20
0.0
 11
0.0
 21
0.0
 12
0.0
 22
0.0
 32
0.0
 14
0.0
 24
0.0
 34
0.0
 15
0.0
 25
0.0
 35
0.0
146
0.0
 13
0.0
 23
0.0
 33
0.0
 16
1.0
 26
0.0
 36
0.0
 17
0.0
 27
1.0
 37
0.0
 76
     0
330
23
  0
LAYOUT
  5
22
102
{ACAD_REACTORS
330
1A
102
}
330
1A
100
AcDbPlotSettings
  1

  2
none_device
  4
ANSI_A_(11.00_x_8.50_Inches)
  6

 40
6.35
 41
19.05
 42
6.35000508
 43
19.05000254
 44
279.4
 45
215.9
 46
133.34999746
 47
88.89999873
 48
0.0
 49
0.0
140
0.0
141
0.0
142
0.06375
143
1.0
 70
  1696
 72
     0
 73
     0
 74
     0
  7

 75
     0
147
0.0179189148
148
-1300.4909072572
149
0.0
100
AcDbLayout
  1
Model
 70
     1
 71
     0
 10
0.0
 20
0.0
 11
420.0
 21
297.0
 12
0.0
 22
0.0
 32
0.0
 14
-68.5
 24
-66.0
 34
0.0
 15
68.5
 25
66.0
 35
0.0
146
0.0
 13
0.0
 23
0.0
 33
0.0
 16
1.0
 26
0.0
 36
0.0
 17
0.0
 27
1.0
 37
0.0
 76
     0
330
1F
331
29
  0
MLINESTYLE
  5
18
102
{ACAD_REACTORS
330
17
102
}
330
17
100
AcDbMlineStyle
  2
Standard
 70
     0
  3

 62
   256
 51
90.0
 52
90.0
 71
     2
 49
0.5
 62
   256
  6
BYLAYER
 49
-0.5
 62
   256
  6
BYLAYER
  0
ACDBPLACEHOLDER
  5
F
102
{ACAD_REACTORS
330
E
102
}
330
E
  0
SCALE
  5
48
102
{ACAD_REACTORS
330
47
102
}
330
47
100
AcDbScale
 70
     0
300
1:1
140
1.0
141
1.0
290
     1
  0
SCALE
  5
49
102
{ACAD_REACTORS
330
47
102
}
330
47
100
AcDbScale
 70
     0
300
1:2
140
1.0
141
2.0
290
     0
  0
SCALE
  5
4A
102
{ACAD_REACTORS
330
47
102
}
330
47
100
AcDbScale
 70
     0
300
1:4
140
1.0
141
4.0
290
     0
  0
SCALE
  5
4B
102
{ACAD_REACTORS
330
47
102
}
330
47
100
AcDbScale
 70
     0
300
1:5
140
1.0
141
5.0
290
     0
  0
SCALE
  5
4C
102
{ACAD_REACTORS
330
47
102
}
330
47
100
AcDbScale
 70
     0
300
1:8
140
1.0
141
8.0
290
     0
  0
SCALE
  5
4D
102
{ACAD_REACTORS
330
47
102
}
330
47
100
AcDbScale
 70
     0
300
1:10
140
1.0
141
10.0
290
     0
  0
SCALE
  5
4E
102
{ACAD_REACTORS
330
47
102
}
330
47
100
AcDbScale
 70
     0
300
1:16
140
1.0
141
16.0
290
     0
  0
SCALE
  5
4F
102
{ACAD_REACTORS
330
47
102
}
330
47
100
AcDbScale
 70
     0
300
1:20
140
1.0
141
20.0
290
     0
  0
SCALE
  5
50
102
{ACAD_REACTORS
330
47
102
}
330
47
100
AcDbScale
 70
     0
300
1:30
140
1.0
141
30.0
290
     0
  0
SCALE
  5
51
102
{ACAD_REACTORS
330
47
102
}
330
47
100
AcDbScale
 70
     0
300
1:40
140
1.0
141
40.0
290
     0
  0
SCALE
  5
52
102
{ACAD_REACTORS
330
47
102
}
330
47
100
AcDbScale
 70
     0
300
1:50
140
1.0
141
50.0
290
     0
  0
SCALE
  5
53
102
{ACAD_REACTORS
330
47
102
}
330
47
100
AcDbScale
 70
     0
300
1:100
140
1.0
141
100.0
290
     0
  0
SCALE
  5
54
102
{ACAD_REACTORS
330
47
102
}
330
47
100
AcDbScale
 70
     0
300
2:1
140
2.0
141
1.0
290
     0
  0
SCALE
  5
55
102
{ACAD_REACTORS
330
47
102
}
330
47
100
AcDbScale
 70
     0
300
4:1
140
4.0
141
1.0
290
     0
  0
SCALE
  5
56
102
{ACAD_REACTORS
330
47
102
}
330
47
100
AcDbScale
 70
     0
300
8:1
140
8.0
141
1.0
290
     0
  0
SCALE
  5
57
102
{ACAD_REACTORS
330
47
102
}
330
47
100
AcDbScale
 70
     0
300
10:1
140
10.0
141
1.0
290
     0
  0
SCALE
  5
58
102
{ACAD_REACTORS
330
47
102
}
330
47
100
AcDbScale
 70
     0
300
100:1
140
100.0
141
1.0
290
     0
  0
SCALE
  5
59
102
{ACAD_REACTORS
330
47
102
}
330
47
100
AcDbScale
 70
     0
300
1/128" = 1'-0"
140
0.0078125
141
12.0
290
     0
  0
SCALE
  5
5A
102
{ACAD_REACTORS
330
47
102
}
330
47
100
AcDbScale
 70
     0
300
1/64" = 1'-0"
140
0.015625
141
12.0
290
     0
  0
SCALE
  5
5B
102
{ACAD_REACTORS
330
47
102
}
330
47
100
AcDbScale
 70
     0
300
1/32" = 1'-0"
140
0.03125
141
12.0
290
     0
  0
SCALE
  5
5C
102
{ACAD_REACTORS
330
47
102
}
330
47
100
AcDbScale
 70
     0
300
1/16" = 1'-0"
140
0.0625
141
12.0
290
     0
  0
SCALE
  5
5D
102
{ACAD_REACTORS
330
47
102
}
330
47
100
AcDbScale
 70
     0
300
3/32" = 1'-0"
140
0.09375
141
12.0
290
     0
  0
SCALE
  5
5E
102
{ACAD_REACTORS
330
47
102
}
330
47
100
AcDbScale
 70
     0
300
1/8" = 1'-0"
140
0.125
141
12.0
290
     0
  0
SCALE
  5
5F
102
{ACAD_REACTORS
330
47
102
}
330
47
100
AcDbScale
 70
     0
300
3/16" = 1'-0"
140
0.1875
141
12.0
290
     0
  0
SCALE
  5
60
102
{ACAD_REACTORS
330
47
102
}
330
47
100
AcDbScale
 70
     0
300
1/4" = 1'-0"
140
0.25
141
12.0
290
     0
  0
SCALE
  5
61
102
{ACAD_REACTORS
330
47
102
}
330
47
100
AcDbScale
 70
     0
300
3/8" = 1'-0"
140
0.375
141
12.0
290
     0
  0
SCALE
  5
62
102
{ACAD_REACTORS
330
47
102
}
330
47
100
AcDbScale
 70
     0
300
1/2" = 1'-0"
140
0.5
141
12.0
290
     0
  0
SCALE
  5
63
102
{ACAD_REACTORS
330
47
102
}
330
47
100
AcDbScale
 70
     0
300
3/4" = 1'-0"
140
0.75
141
12.0
290
     0
  0
SCALE
  5
64
102
{ACAD_REACTORS
330
47
102
}
330
47
100
AcDbScale
 70
     0
300
1" = 1'-0"
140
1.0
141
12.0
290
     0
  0
SCALE
  5
65
102
{ACAD_REACTORS
330
47
102
}
330
47
100
AcDbScale
 70
     0
300
1-1/2" = 1'-0"
140
1.5
141
12.0
290
     0
  0
SCALE
  5
66
102
{ACAD_REACTORS
330
47
102
}
330
47
100
AcDbScale
 70
     0
300
3" = 1'-0"
140
3.0
141
12.0
290
     0
  0
SCALE
  5
67
102
{ACAD_REACTORS
330
47
102
}
330
47
100
AcDbScale
 70
     0
300
6" = 1'-0"
140
6.0
141
12.0
290
     0
  0
SCALE
  5
68
102
{ACAD_REACTORS
330
47
102
}
330
47
100
AcDbScale
 70
     0
300
1'-0" = 1'-0"
140
12.0
141
12.0
290
     0
  0
ENDSEC
  0
EOF
