G04 #@! TF.GenerationSoftware,KiCad,Pcbnew,(6.0.4)*
G04 #@! TF.CreationDate,2022-04-15T12:37:11+02:00*
G04 #@! TF.ProjectId,standaard,7374616e-6461-4617-9264-2e6b69636164,rev?*
G04 #@! TF.SameCoordinates,Original*
G04 #@! TF.FileFunction,Soldermask,Bot*
G04 #@! TF.FilePolarity,Negative*
%FSLAX46Y46*%
G04 Gerber Fmt 4.6, Leading zero omitted, Abs format (unit mm)*
G04 Created by KiCad (PCBNEW (6.0.4)) date 2022-04-15 12:37:11*
%MOMM*%
%LPD*%
G01*
G04 APERTURE LIST*
G04 Aperture macros list*
%AMRoundRect*
0 Rectangle with rounded corners*
0 $1 Rounding radius*
0 $2 $3 $4 $5 $6 $7 $8 $9 X,Y pos of 4 corners*
0 Add a 4 corners polygon primitive as box body*
4,1,4,$2,$3,$4,$5,$6,$7,$8,$9,$2,$3,0*
0 Add four circle primitives for the rounded corners*
1,1,$1+$1,$2,$3*
1,1,$1+$1,$4,$5*
1,1,$1+$1,$6,$7*
1,1,$1+$1,$8,$9*
0 Add four rect primitives between the rounded corners*
20,1,$1+$1,$2,$3,$4,$5,0*
20,1,$1+$1,$4,$5,$6,$7,0*
20,1,$1+$1,$6,$7,$8,$9,0*
20,1,$1+$1,$8,$9,$2,$3,0*%
G04 Aperture macros list end*
%ADD10O,1.700000X1.700000*%
%ADD11R,1.700000X1.700000*%
%ADD12R,2.800000X2.800000*%
%ADD13O,2.800000X2.800000*%
%ADD14RoundRect,0.250000X-0.350000X-0.450000X0.350000X-0.450000X0.350000X0.450000X-0.350000X0.450000X0*%
%ADD15RoundRect,0.042000X-0.573000X-0.258000X0.573000X-0.258000X0.573000X0.258000X-0.573000X0.258000X0*%
%ADD16RoundRect,0.250000X0.450000X-0.350000X0.450000X0.350000X-0.450000X0.350000X-0.450000X-0.350000X0*%
%ADD17RoundRect,0.250000X0.337500X0.475000X-0.337500X0.475000X-0.337500X-0.475000X0.337500X-0.475000X0*%
%ADD18RoundRect,0.250000X0.350000X0.450000X-0.350000X0.450000X-0.350000X-0.450000X0.350000X-0.450000X0*%
%ADD19R,1.498000X1.498000*%
%ADD20C,1.498000*%
G04 APERTURE END LIST*
D10*
X180869000Y-64380800D03*
D11*
X183409000Y-64380800D03*
X155209000Y-39805800D03*
D10*
X155209000Y-37265800D03*
D12*
X139809000Y-32980800D03*
D13*
X139809000Y-65980800D03*
D11*
X168759000Y-55005800D03*
D10*
X171299000Y-55005800D03*
X173839000Y-55005800D03*
X176379000Y-55005800D03*
X178919000Y-55005800D03*
X181459000Y-55005800D03*
X183999000Y-55005800D03*
D14*
X187309000Y-54330800D03*
X189309000Y-54330800D03*
X177209000Y-34130800D03*
X179209000Y-34130800D03*
D15*
X179849000Y-43130800D03*
X179849000Y-41230800D03*
X181969000Y-42180800D03*
D14*
X192959000Y-60980800D03*
X194959000Y-60980800D03*
X177009000Y-38830800D03*
X179009000Y-38830800D03*
X177159000Y-36530800D03*
X179159000Y-36530800D03*
D10*
X195499000Y-58380800D03*
X192959000Y-58380800D03*
X190419000Y-58380800D03*
D11*
X187879000Y-58380800D03*
D16*
X177509000Y-43180800D03*
X177509000Y-41180800D03*
D17*
X163996500Y-46230800D03*
X161921500Y-46230800D03*
D18*
X171809000Y-34530800D03*
X169809000Y-34530800D03*
D11*
X192109000Y-40480800D03*
D10*
X192109000Y-37940800D03*
X192109000Y-35400800D03*
X192109000Y-32860800D03*
D19*
X191759000Y-53595800D03*
D20*
X191759000Y-47095800D03*
X196259000Y-53595800D03*
X196259000Y-47095800D03*
D19*
X160909000Y-55430800D03*
D20*
X160909000Y-48930800D03*
X165409000Y-55430800D03*
X165409000Y-48930800D03*
M02*
