M48
INCH,TZ
T1C0.0315
T2C0.0390
T3C0.0394
T4C0.0394
T5C0.0551
%
G90
G05
T1
X57248Y-20406
X57425Y-16174
X60004Y-18162
X61795Y-22355
X62149Y-11941
X64216Y-15347
X65043Y-13693
X65476Y-23575
X66952Y-19855
X67130Y-17788
X67232Y-12418
X67858Y-16843
X71527Y-12918
X71559Y-14461
X74624Y-13116
X77051Y-13122
T2
X63350Y-19264
X63350Y-21823
X65122Y-19264
X65122Y-21823
X75496Y-18542
X75496Y-21101
X77267Y-18542
X77267Y-21101
T3
X72700Y-19245
T4
X61106Y-14672
X61106Y-15672
X66441Y-21656
X67441Y-21656
X68441Y-21656
X69441Y-21656
X70441Y-21656
X71208Y-25347
X71441Y-21656
X72208Y-25347
X72441Y-21656
X73968Y-22985
X74968Y-22985
X75633Y-12937
X75633Y-13937
X75633Y-14937
X75633Y-15937
X75968Y-22985
X76968Y-22985
T5
X55043Y-12985
X55043Y-25977
T0
M30
