G04 #@! TF.GenerationSoftware,KiCad,Pcbnew,(6.0.4)*
G04 #@! TF.CreationDate,2022-04-15T12:37:11+02:00*
G04 #@! TF.ProjectId,standaard,7374616e-6461-4617-9264-2e6b69636164,rev?*
G04 #@! TF.SameCoordinates,Original*
G04 #@! TF.FileFunction,Copper,L2,Bot*
G04 #@! TF.FilePolarity,Positive*
%FSLAX46Y46*%
G04 Gerber Fmt 4.6, Leading zero omitted, Abs format (unit mm)*
G04 Created by KiCad (PCBNEW (6.0.4)) date 2022-04-15 12:37:11*
%MOMM*%
%LPD*%
G01*
G04 APERTURE LIST*
G04 Aperture macros list*
%AMRoundRect*
0 Rectangle with rounded corners*
0 $1 Rounding radius*
0 $2 $3 $4 $5 $6 $7 $8 $9 X,Y pos of 4 corners*
0 Add a 4 corners polygon primitive as box body*
4,1,4,$2,$3,$4,$5,$6,$7,$8,$9,$2,$3,0*
0 Add four circle primitives for the rounded corners*
1,1,$1+$1,$2,$3*
1,1,$1+$1,$4,$5*
1,1,$1+$1,$6,$7*
1,1,$1+$1,$8,$9*
0 Add four rect primitives between the rounded corners*
20,1,$1+$1,$2,$3,$4,$5,0*
20,1,$1+$1,$4,$5,$6,$7,0*
20,1,$1+$1,$6,$7,$8,$9,0*
20,1,$1+$1,$8,$9,$2,$3,0*%
G04 Aperture macros list end*
G04 #@! TA.AperFunction,ComponentPad*
%ADD10O,1.700000X1.700000*%
G04 #@! TD*
G04 #@! TA.AperFunction,ComponentPad*
%ADD11R,1.700000X1.700000*%
G04 #@! TD*
G04 #@! TA.AperFunction,ComponentPad*
%ADD12R,2.800000X2.800000*%
G04 #@! TD*
G04 #@! TA.AperFunction,ComponentPad*
%ADD13O,2.800000X2.800000*%
G04 #@! TD*
G04 #@! TA.AperFunction,SMDPad,CuDef*
%ADD14RoundRect,0.250000X-0.350000X-0.450000X0.350000X-0.450000X0.350000X0.450000X-0.350000X0.450000X0*%
G04 #@! TD*
G04 #@! TA.AperFunction,SMDPad,CuDef*
%ADD15RoundRect,0.042000X-0.573000X-0.258000X0.573000X-0.258000X0.573000X0.258000X-0.573000X0.258000X0*%
G04 #@! TD*
G04 #@! TA.AperFunction,SMDPad,CuDef*
%ADD16RoundRect,0.250000X0.450000X-0.350000X0.450000X0.350000X-0.450000X0.350000X-0.450000X-0.350000X0*%
G04 #@! TD*
G04 #@! TA.AperFunction,SMDPad,CuDef*
%ADD17RoundRect,0.250000X0.337500X0.475000X-0.337500X0.475000X-0.337500X-0.475000X0.337500X-0.475000X0*%
G04 #@! TD*
G04 #@! TA.AperFunction,SMDPad,CuDef*
%ADD18RoundRect,0.250000X0.350000X0.450000X-0.350000X0.450000X-0.350000X-0.450000X0.350000X-0.450000X0*%
G04 #@! TD*
G04 #@! TA.AperFunction,ComponentPad*
%ADD19R,1.498000X1.498000*%
G04 #@! TD*
G04 #@! TA.AperFunction,ComponentPad*
%ADD20C,1.498000*%
G04 #@! TD*
G04 #@! TA.AperFunction,ViaPad*
%ADD21C,1.000000*%
G04 #@! TD*
G04 #@! TA.AperFunction,ViaPad*
%ADD22C,2.000000*%
G04 #@! TD*
G04 #@! TA.AperFunction,Conductor*
%ADD23C,0.700000*%
G04 #@! TD*
G04 APERTURE END LIST*
D10*
X180869000Y-64380800D03*
D11*
X183409000Y-64380800D03*
X155209000Y-39805800D03*
D10*
X155209000Y-37265800D03*
D12*
X139809000Y-32980800D03*
D13*
X139809000Y-65980800D03*
D11*
X168759000Y-55005800D03*
D10*
X171299000Y-55005800D03*
X173839000Y-55005800D03*
X176379000Y-55005800D03*
X178919000Y-55005800D03*
X181459000Y-55005800D03*
X183999000Y-55005800D03*
D14*
X187309000Y-54330800D03*
X189309000Y-54330800D03*
X177209000Y-34130800D03*
X179209000Y-34130800D03*
D15*
X179849000Y-43130800D03*
X179849000Y-41230800D03*
X181969000Y-42180800D03*
D14*
X192959000Y-60980800D03*
X194959000Y-60980800D03*
X177009000Y-38830800D03*
X179009000Y-38830800D03*
X177159000Y-36530800D03*
X179159000Y-36530800D03*
D10*
X195499000Y-58380800D03*
X192959000Y-58380800D03*
X190419000Y-58380800D03*
D11*
X187879000Y-58380800D03*
D16*
X177509000Y-43180800D03*
X177509000Y-41180800D03*
D17*
X163996500Y-46230800D03*
X161921500Y-46230800D03*
D18*
X171809000Y-34530800D03*
X169809000Y-34530800D03*
D11*
X192109000Y-40480800D03*
D10*
X192109000Y-37940800D03*
X192109000Y-35400800D03*
X192109000Y-32860800D03*
D19*
X191759000Y-53595800D03*
D20*
X191759000Y-47095800D03*
X196259000Y-53595800D03*
X196259000Y-47095800D03*
D19*
X160909000Y-55430800D03*
D20*
X160909000Y-48930800D03*
X165409000Y-55430800D03*
X165409000Y-48930800D03*
D21*
X157859000Y-30330800D03*
X195709000Y-33330800D03*
X172359000Y-42780800D03*
X145409000Y-51830800D03*
X145859000Y-41080800D03*
X152409000Y-46130800D03*
X170059000Y-50430800D03*
X166309000Y-59880800D03*
X165209000Y-34780800D03*
X163109000Y-38980800D03*
X189544000Y-33315800D03*
X170769000Y-31540800D03*
X181679000Y-32810800D03*
D22*
X184659000Y-48881300D03*
D21*
X170509000Y-45180800D03*
X156959000Y-56780800D03*
X181759000Y-36730800D03*
D23*
X156039000Y-39000800D02*
X155309000Y-39730800D01*
X163089000Y-39000800D02*
X156039000Y-39000800D01*
X163109000Y-38980800D02*
X163089000Y-39000800D01*
X166609000Y-59880800D02*
X166309000Y-59880800D01*
X167109000Y-59380800D02*
X166609000Y-59880800D01*
X167109000Y-57930800D02*
X167109000Y-59380800D01*
X171809000Y-34744334D02*
X167109000Y-39444334D01*
X167109000Y-39444334D02*
X167109000Y-57930800D01*
X171809000Y-34530800D02*
X171809000Y-34744334D01*
X165409000Y-47730800D02*
X163909000Y-46230800D01*
X165409000Y-48930800D02*
X165409000Y-47730800D01*
X161921500Y-44368300D02*
X165209000Y-41080800D01*
X165209000Y-41080800D02*
X165209000Y-34780800D01*
X161921500Y-46230800D02*
X161921500Y-44368300D01*
X162059000Y-46480800D02*
X161959000Y-46380800D01*
X162059000Y-47780800D02*
X162059000Y-46480800D01*
X160909000Y-48930800D02*
X162059000Y-47780800D01*
X171809000Y-32580800D02*
X170769000Y-31540800D01*
X171809000Y-34530800D02*
X171809000Y-32580800D01*
X169559000Y-34780800D02*
X169959000Y-34380800D01*
X165209000Y-34780800D02*
X169559000Y-34780800D01*
X160909000Y-55380800D02*
X160759000Y-55530800D01*
X160909000Y-48930800D02*
X160909000Y-55380800D01*
X190009000Y-60980800D02*
X187709000Y-58680800D01*
X192959000Y-60980800D02*
X190009000Y-60980800D01*
X192959000Y-57330800D02*
X192959000Y-58380800D01*
X192359000Y-56730800D02*
X192959000Y-57330800D01*
X189309000Y-54330800D02*
X191709000Y-56730800D01*
X191709000Y-56730800D02*
X192359000Y-56730800D01*
X189259000Y-52380800D02*
X189259000Y-54280800D01*
X187809000Y-50930800D02*
X189259000Y-52380800D01*
X187309000Y-57680800D02*
X187859000Y-58230800D01*
X187309000Y-54330800D02*
X187309000Y-57680800D01*
X195499000Y-60390800D02*
X194909000Y-60980800D01*
X195499000Y-58380800D02*
X195499000Y-60390800D01*
X184234317Y-50930800D02*
X187809000Y-50930800D01*
X181969000Y-48665483D02*
X184234317Y-50930800D01*
X181969000Y-42180800D02*
X181969000Y-48665483D01*
X189544000Y-42761584D02*
X189544000Y-33315800D01*
X193257511Y-54579311D02*
X193257511Y-46475095D01*
X193257511Y-46475095D02*
X189544000Y-42761584D01*
X195499000Y-58380800D02*
X195499000Y-56820800D01*
X195499000Y-56820800D02*
X193257511Y-54579311D01*
X190089489Y-31061289D02*
X191859000Y-32830800D01*
X179178511Y-31061289D02*
X190089489Y-31061289D01*
X179209000Y-34130800D02*
X179209000Y-36580800D01*
X180359000Y-34130800D02*
X181679000Y-32810800D01*
X179209000Y-34130800D02*
X180359000Y-34130800D01*
X179178511Y-31061289D02*
X177209000Y-33030800D01*
X177209000Y-33030800D02*
X177209000Y-33980800D01*
X174719000Y-31540800D02*
X177209000Y-34030800D01*
X170769000Y-31540800D02*
X174719000Y-31540800D01*
X177159000Y-34130800D02*
X177209000Y-34080800D01*
X177159000Y-36530800D02*
X177159000Y-34130800D01*
X175509000Y-40180800D02*
X176909000Y-38780800D01*
X176409000Y-43180800D02*
X175509000Y-42280800D01*
X175509000Y-42280800D02*
X175509000Y-40180800D01*
X177509000Y-43180800D02*
X176409000Y-43180800D01*
X177159000Y-38630800D02*
X177059000Y-38730800D01*
X177159000Y-36530800D02*
X177159000Y-38630800D01*
X179509000Y-43180800D02*
X179659000Y-43180800D01*
X177509000Y-43180800D02*
X179509000Y-43180800D01*
X179759000Y-41180800D02*
X179859000Y-41080800D01*
X177509000Y-41180800D02*
X179759000Y-41180800D01*
X179849000Y-41230800D02*
X179849000Y-39620800D01*
X179849000Y-39620800D02*
X179109000Y-38880800D01*
X179659000Y-38830800D02*
X181759000Y-36730800D01*
X179009000Y-38830800D02*
X179659000Y-38830800D01*
X179159000Y-34530800D02*
X179209000Y-34480800D01*
X191709000Y-47930800D02*
X191709000Y-47080800D01*
X190758500Y-48881300D02*
X191709000Y-47930800D01*
X184659000Y-48881300D02*
X190758500Y-48881300D01*
X172559000Y-45180800D02*
X170509000Y-45180800D01*
X173889000Y-46510800D02*
X172559000Y-45180800D01*
X173889000Y-54055800D02*
X173889000Y-46510800D01*
G04 #@! TA.AperFunction,Conductor*
G36*
X200474621Y-29662302D02*
G01*
X200521114Y-29715958D01*
X200532500Y-29768300D01*
X200532500Y-68866700D01*
X200512498Y-68934821D01*
X200458842Y-68981314D01*
X200406500Y-68992700D01*
X128830500Y-68992700D01*
X128762379Y-68972698D01*
X128715886Y-68919042D01*
X128704500Y-68866700D01*
X128704500Y-65920699D01*
X137896569Y-65920699D01*
X137907180Y-66190763D01*
X137955737Y-66456637D01*
X138041272Y-66713017D01*
X138162078Y-66954787D01*
X138164607Y-66958446D01*
X138268563Y-67108858D01*
X138315744Y-67177124D01*
X138499205Y-67375590D01*
X138708799Y-67546227D01*
X138940346Y-67685630D01*
X138944441Y-67687364D01*
X138944443Y-67687365D01*
X139185124Y-67789280D01*
X139185131Y-67789282D01*
X139189225Y-67791016D01*
X139285358Y-67816505D01*
X139446172Y-67859145D01*
X139446177Y-67859146D01*
X139450469Y-67860284D01*
X139454878Y-67860806D01*
X139454884Y-67860807D01*
X139604210Y-67878480D01*
X139718868Y-67892051D01*
X139989064Y-67885683D01*
X139993459Y-67884951D01*
X139993464Y-67884951D01*
X140251267Y-67842041D01*
X140251271Y-67842040D01*
X140255669Y-67841308D01*
X140423959Y-67788085D01*
X140509114Y-67761154D01*
X140509116Y-67761153D01*
X140513360Y-67759811D01*
X140517371Y-67757885D01*
X140517376Y-67757883D01*
X140752979Y-67644748D01*
X140752980Y-67644747D01*
X140756998Y-67642818D01*
X140905768Y-67543413D01*
X140978013Y-67495141D01*
X140978017Y-67495138D01*
X140981721Y-67492663D01*
X140985038Y-67489692D01*
X140985042Y-67489689D01*
X141179729Y-67315312D01*
X141183045Y-67312342D01*
X141356953Y-67105454D01*
X141499975Y-66876125D01*
X141609258Y-66628933D01*
X141682620Y-66368808D01*
X141705946Y-66195143D01*
X141718172Y-66104124D01*
X141718173Y-66104116D01*
X141718599Y-66100942D01*
X141722375Y-65980800D01*
X141703287Y-65711203D01*
X141646402Y-65446985D01*
X141635831Y-65418329D01*
X141554397Y-65197596D01*
X141552856Y-65193419D01*
X141523510Y-65139031D01*
X141426629Y-64959478D01*
X141426629Y-64959477D01*
X141424516Y-64955562D01*
X141263942Y-64738162D01*
X141074338Y-64545556D01*
X140945710Y-64447390D01*
X140863028Y-64384289D01*
X140863024Y-64384287D01*
X140859487Y-64381587D01*
X140798611Y-64347495D01*
X179506251Y-64347495D01*
X179506548Y-64352648D01*
X179506548Y-64352651D01*
X179508372Y-64384289D01*
X179519110Y-64570515D01*
X179520247Y-64575561D01*
X179520248Y-64575567D01*
X179534606Y-64639275D01*
X179568222Y-64788439D01*
X179652266Y-64995416D01*
X179768987Y-65185888D01*
X179915250Y-65354738D01*
X180087126Y-65497432D01*
X180280000Y-65610138D01*
X180488692Y-65689830D01*
X180493760Y-65690861D01*
X180493763Y-65690862D01*
X180593743Y-65711203D01*
X180707597Y-65734367D01*
X180712772Y-65734557D01*
X180712774Y-65734557D01*
X180925673Y-65742364D01*
X180925677Y-65742364D01*
X180930837Y-65742553D01*
X180935957Y-65741897D01*
X180935959Y-65741897D01*
X181147288Y-65714825D01*
X181147289Y-65714825D01*
X181152416Y-65714168D01*
X181176815Y-65706848D01*
X181361429Y-65651461D01*
X181361434Y-65651459D01*
X181366384Y-65649974D01*
X181566994Y-65551696D01*
X181748860Y-65421973D01*
X181777079Y-65393853D01*
X181857479Y-65313733D01*
X181919851Y-65279817D01*
X181990658Y-65285005D01*
X182047419Y-65327651D01*
X182064401Y-65358754D01*
X182105676Y-65468854D01*
X182114214Y-65484449D01*
X182190715Y-65586524D01*
X182203276Y-65599085D01*
X182305351Y-65675586D01*
X182320946Y-65684124D01*
X182441394Y-65729278D01*
X182456649Y-65732905D01*
X182507514Y-65738431D01*
X182514328Y-65738800D01*
X183136885Y-65738800D01*
X183152124Y-65734325D01*
X183153329Y-65732935D01*
X183155000Y-65725252D01*
X183155000Y-65720684D01*
X183663000Y-65720684D01*
X183667475Y-65735923D01*
X183668865Y-65737128D01*
X183676548Y-65738799D01*
X184303669Y-65738799D01*
X184310490Y-65738429D01*
X184361352Y-65732905D01*
X184376604Y-65729279D01*
X184497054Y-65684124D01*
X184512649Y-65675586D01*
X184614724Y-65599085D01*
X184627285Y-65586524D01*
X184703786Y-65484449D01*
X184712324Y-65468854D01*
X184757478Y-65348406D01*
X184761105Y-65333151D01*
X184766631Y-65282286D01*
X184767000Y-65275472D01*
X184767000Y-64652915D01*
X184762525Y-64637676D01*
X184761135Y-64636471D01*
X184753452Y-64634800D01*
X183681115Y-64634800D01*
X183665876Y-64639275D01*
X183664671Y-64640665D01*
X183663000Y-64648348D01*
X183663000Y-65720684D01*
X183155000Y-65720684D01*
X183155000Y-64108685D01*
X183663000Y-64108685D01*
X183667475Y-64123924D01*
X183668865Y-64125129D01*
X183676548Y-64126800D01*
X184748884Y-64126800D01*
X184764123Y-64122325D01*
X184765328Y-64120935D01*
X184766999Y-64113252D01*
X184766999Y-63486131D01*
X184766629Y-63479310D01*
X184761105Y-63428448D01*
X184757479Y-63413196D01*
X184712324Y-63292746D01*
X184703786Y-63277151D01*
X184627285Y-63175076D01*
X184614724Y-63162515D01*
X184512649Y-63086014D01*
X184497054Y-63077476D01*
X184376606Y-63032322D01*
X184361351Y-63028695D01*
X184310486Y-63023169D01*
X184303672Y-63022800D01*
X183681115Y-63022800D01*
X183665876Y-63027275D01*
X183664671Y-63028665D01*
X183663000Y-63036348D01*
X183663000Y-64108685D01*
X183155000Y-64108685D01*
X183155000Y-63040916D01*
X183150525Y-63025677D01*
X183149135Y-63024472D01*
X183141452Y-63022801D01*
X182514331Y-63022801D01*
X182507510Y-63023171D01*
X182456648Y-63028695D01*
X182441396Y-63032321D01*
X182320946Y-63077476D01*
X182305351Y-63086014D01*
X182203276Y-63162515D01*
X182190715Y-63175076D01*
X182114214Y-63277151D01*
X182105676Y-63292746D01*
X182064297Y-63403122D01*
X182021655Y-63459887D01*
X181955093Y-63484586D01*
X181885744Y-63469378D01*
X181853121Y-63443691D01*
X181802151Y-63387676D01*
X181802148Y-63387673D01*
X181798670Y-63383851D01*
X181794619Y-63380652D01*
X181794615Y-63380648D01*
X181627414Y-63248600D01*
X181627410Y-63248598D01*
X181623359Y-63245398D01*
X181427789Y-63137438D01*
X181422920Y-63135714D01*
X181422916Y-63135712D01*
X181222087Y-63064595D01*
X181222083Y-63064594D01*
X181217212Y-63062869D01*
X181212119Y-63061962D01*
X181212116Y-63061961D01*
X181002373Y-63024600D01*
X181002367Y-63024599D01*
X180997284Y-63023694D01*
X180923452Y-63022792D01*
X180779081Y-63021028D01*
X180779079Y-63021028D01*
X180773911Y-63020965D01*
X180553091Y-63054755D01*
X180340756Y-63124157D01*
X180142607Y-63227307D01*
X180138474Y-63230410D01*
X180138471Y-63230412D01*
X180055450Y-63292746D01*
X179963965Y-63361435D01*
X179809629Y-63522938D01*
X179683743Y-63707480D01*
X179589688Y-63910105D01*
X179529989Y-64125370D01*
X179506251Y-64347495D01*
X140798611Y-64347495D01*
X140623675Y-64249527D01*
X140371609Y-64152010D01*
X140367284Y-64151007D01*
X140367279Y-64151006D01*
X140255637Y-64125129D01*
X140108318Y-64090982D01*
X139839054Y-64067661D01*
X139834619Y-64067905D01*
X139834615Y-64067905D01*
X139573634Y-64082268D01*
X139573627Y-64082269D01*
X139569191Y-64082513D01*
X139437622Y-64108683D01*
X139308484Y-64134370D01*
X139308479Y-64134371D01*
X139304112Y-64135240D01*
X139299909Y-64136716D01*
X139053315Y-64223313D01*
X139053312Y-64223314D01*
X139049107Y-64224791D01*
X139045154Y-64226844D01*
X139045148Y-64226847D01*
X139001488Y-64249527D01*
X138809264Y-64349380D01*
X138805649Y-64351963D01*
X138805643Y-64351967D01*
X138592990Y-64503931D01*
X138592986Y-64503934D01*
X138589369Y-64506519D01*
X138586149Y-64509591D01*
X138435907Y-64652915D01*
X138393808Y-64693075D01*
X138226485Y-64905324D01*
X138224253Y-64909166D01*
X138224250Y-64909171D01*
X138092974Y-65135177D01*
X138092971Y-65135184D01*
X138090736Y-65139031D01*
X138089062Y-65143164D01*
X138001740Y-65358754D01*
X137989272Y-65389535D01*
X137988201Y-65393848D01*
X137988199Y-65393853D01*
X137925189Y-65647514D01*
X137924116Y-65651835D01*
X137923662Y-65656263D01*
X137923662Y-65656265D01*
X137914841Y-65742364D01*
X137896569Y-65920699D01*
X128704500Y-65920699D01*
X128704500Y-37232495D01*
X153846251Y-37232495D01*
X153846548Y-37237648D01*
X153846548Y-37237651D01*
X153852011Y-37332390D01*
X153859110Y-37455515D01*
X153908222Y-37673439D01*
X153992266Y-37880416D01*
X154008860Y-37907495D01*
X154097310Y-38051832D01*
X154108987Y-38070888D01*
X154255250Y-38239738D01*
X154259230Y-38243042D01*
X154263981Y-38246987D01*
X154303616Y-38305890D01*
X154305113Y-38376871D01*
X154267997Y-38437393D01*
X154227724Y-38461912D01*
X154112295Y-38505185D01*
X153995739Y-38592539D01*
X153908385Y-38709095D01*
X153857255Y-38845484D01*
X153850500Y-38907666D01*
X153850500Y-40703934D01*
X153857255Y-40766116D01*
X153908385Y-40902505D01*
X153995739Y-41019061D01*
X154112295Y-41106415D01*
X154248684Y-41157545D01*
X154310866Y-41164300D01*
X156107134Y-41164300D01*
X156169316Y-41157545D01*
X156305705Y-41106415D01*
X156422261Y-41019061D01*
X156509615Y-40902505D01*
X156560745Y-40766116D01*
X156567500Y-40703934D01*
X156567500Y-39985300D01*
X156587502Y-39917179D01*
X156641158Y-39870686D01*
X156693500Y-39859300D01*
X162580788Y-39859300D01*
X162642258Y-39875312D01*
X162703294Y-39909424D01*
X162891392Y-39970540D01*
X163087777Y-39993958D01*
X163093912Y-39993486D01*
X163093914Y-39993486D01*
X163278830Y-39979257D01*
X163278834Y-39979256D01*
X163284972Y-39978784D01*
X163475463Y-39925598D01*
X163480967Y-39922818D01*
X163480969Y-39922817D01*
X163646495Y-39839204D01*
X163646497Y-39839203D01*
X163651996Y-39836425D01*
X163807847Y-39714661D01*
X163912914Y-39592939D01*
X163933049Y-39569613D01*
X163933050Y-39569611D01*
X163937078Y-39564945D01*
X164034769Y-39392979D01*
X164097197Y-39205313D01*
X164099494Y-39187130D01*
X164127875Y-39122054D01*
X164186935Y-39082652D01*
X164257921Y-39081435D01*
X164318296Y-39118790D01*
X164348892Y-39182856D01*
X164350500Y-39202922D01*
X164350500Y-40673008D01*
X164330498Y-40741129D01*
X164313595Y-40762103D01*
X162827055Y-42248642D01*
X161343717Y-43731980D01*
X161335951Y-43739122D01*
X161296133Y-43772771D01*
X161291986Y-43778195D01*
X161291985Y-43778196D01*
X161246826Y-43837262D01*
X161244932Y-43839679D01*
X161193990Y-43903038D01*
X161190953Y-43909157D01*
X161189165Y-43911952D01*
X161188912Y-43912313D01*
X161188710Y-43912680D01*
X161186979Y-43915538D01*
X161182840Y-43920952D01*
X161151475Y-43988214D01*
X161148515Y-43994562D01*
X161147181Y-43997333D01*
X161111053Y-44070114D01*
X161109402Y-44076735D01*
X161108251Y-44079863D01*
X161108087Y-44080256D01*
X161107968Y-44080661D01*
X161106891Y-44083825D01*
X161104010Y-44090004D01*
X161094370Y-44133132D01*
X161086285Y-44169302D01*
X161085576Y-44172298D01*
X161073097Y-44222350D01*
X161065928Y-44251101D01*
X161065737Y-44257922D01*
X161065285Y-44261225D01*
X161065126Y-44262109D01*
X161064448Y-44266992D01*
X161063320Y-44272040D01*
X161063000Y-44277763D01*
X161063000Y-44354144D01*
X161062951Y-44357663D01*
X161060719Y-44437557D01*
X161061998Y-44444261D01*
X161062545Y-44451062D01*
X161062025Y-44451104D01*
X161063000Y-44461425D01*
X161063000Y-45151928D01*
X161042998Y-45220049D01*
X161026174Y-45240945D01*
X160993568Y-45273608D01*
X160984695Y-45282497D01*
X160980855Y-45288727D01*
X160980854Y-45288728D01*
X160934620Y-45363734D01*
X160891885Y-45433062D01*
X160889581Y-45440009D01*
X160853788Y-45547923D01*
X160836203Y-45600939D01*
X160825500Y-45705400D01*
X160825500Y-46756200D01*
X160825837Y-46759446D01*
X160825837Y-46759450D01*
X160835618Y-46853714D01*
X160836474Y-46861966D01*
X160838655Y-46868502D01*
X160838655Y-46868504D01*
X160846430Y-46891809D01*
X160892450Y-47029746D01*
X160985522Y-47180148D01*
X161110697Y-47305105D01*
X161116926Y-47308945D01*
X161117400Y-47309319D01*
X161158462Y-47367236D01*
X161161693Y-47438159D01*
X161128402Y-47497295D01*
X160993626Y-47632071D01*
X160931314Y-47666097D01*
X160909000Y-47668496D01*
X160909000Y-47668497D01*
X160689803Y-47687674D01*
X160562757Y-47721716D01*
X160482577Y-47743200D01*
X160482575Y-47743201D01*
X160477267Y-47744623D01*
X160472287Y-47746945D01*
X160472285Y-47746946D01*
X160282830Y-47835291D01*
X160282827Y-47835293D01*
X160277849Y-47837614D01*
X160097607Y-47963820D01*
X159942020Y-48119407D01*
X159815814Y-48299649D01*
X159813493Y-48304627D01*
X159813491Y-48304630D01*
X159727422Y-48489204D01*
X159722823Y-48499067D01*
X159665874Y-48711603D01*
X159646697Y-48930800D01*
X159665874Y-49149997D01*
X159678188Y-49195952D01*
X159716353Y-49338385D01*
X159722823Y-49362533D01*
X159725145Y-49367513D01*
X159725146Y-49367515D01*
X159785583Y-49497120D01*
X159815814Y-49561951D01*
X159942020Y-49742193D01*
X160013595Y-49813768D01*
X160047621Y-49876080D01*
X160050500Y-49902863D01*
X160050500Y-54092421D01*
X160030498Y-54160542D01*
X159976842Y-54207035D01*
X159968730Y-54210403D01*
X159933240Y-54223708D01*
X159913295Y-54231185D01*
X159796739Y-54318539D01*
X159709385Y-54435095D01*
X159658255Y-54571484D01*
X159651500Y-54633666D01*
X159651500Y-56227934D01*
X159658255Y-56290116D01*
X159709385Y-56426505D01*
X159796739Y-56543061D01*
X159913295Y-56630415D01*
X160049684Y-56681545D01*
X160111866Y-56688300D01*
X161706134Y-56688300D01*
X161768316Y-56681545D01*
X161904705Y-56630415D01*
X162021261Y-56543061D01*
X162108615Y-56426505D01*
X162159745Y-56290116D01*
X162166500Y-56227934D01*
X162166500Y-55436275D01*
X164147677Y-55436275D01*
X164165889Y-55644430D01*
X164167792Y-55655225D01*
X164221871Y-55857052D01*
X164225617Y-55867344D01*
X164313923Y-56056716D01*
X164319401Y-56066206D01*
X164348128Y-56107232D01*
X164358604Y-56115606D01*
X164372049Y-56108540D01*
X165036979Y-55443611D01*
X165044592Y-55429668D01*
X165044461Y-55427834D01*
X165040210Y-55421220D01*
X164371326Y-54752337D01*
X164359556Y-54745910D01*
X164347541Y-54755206D01*
X164319401Y-54795394D01*
X164313923Y-54804884D01*
X164225617Y-54994256D01*
X164221871Y-55004548D01*
X164167792Y-55206375D01*
X164165889Y-55217170D01*
X164147677Y-55425325D01*
X164147677Y-55436275D01*
X162166500Y-55436275D01*
X162166500Y-54633666D01*
X162159745Y-54571484D01*
X162108615Y-54435095D01*
X162021261Y-54318539D01*
X161904705Y-54231185D01*
X161884760Y-54223708D01*
X161849270Y-54210403D01*
X161792505Y-54167761D01*
X161767806Y-54101199D01*
X161767500Y-54092421D01*
X161767500Y-49902863D01*
X161787502Y-49834742D01*
X161804405Y-49813768D01*
X161875980Y-49742193D01*
X162002186Y-49561951D01*
X162032418Y-49497120D01*
X162092854Y-49367515D01*
X162092855Y-49367513D01*
X162095177Y-49362533D01*
X162101648Y-49338385D01*
X162139812Y-49195952D01*
X162152126Y-49149997D01*
X162170824Y-48936275D01*
X164147677Y-48936275D01*
X164165889Y-49144430D01*
X164167792Y-49155225D01*
X164221871Y-49357052D01*
X164225617Y-49367344D01*
X164313923Y-49556716D01*
X164319401Y-49566206D01*
X164348128Y-49607232D01*
X164358604Y-49615606D01*
X164372049Y-49608540D01*
X165036979Y-48943611D01*
X165044592Y-48929668D01*
X165044461Y-48927834D01*
X165040210Y-48921220D01*
X164371326Y-48252337D01*
X164359556Y-48245910D01*
X164347541Y-48255206D01*
X164319401Y-48295394D01*
X164313923Y-48304884D01*
X164225617Y-48494256D01*
X164221871Y-48504548D01*
X164167792Y-48706375D01*
X164165889Y-48717170D01*
X164147677Y-48925325D01*
X164147677Y-48936275D01*
X162170824Y-48936275D01*
X162171303Y-48930800D01*
X162172115Y-48930871D01*
X162190826Y-48867148D01*
X162207729Y-48846173D01*
X162407222Y-48646681D01*
X162636789Y-48417114D01*
X162644556Y-48409972D01*
X162679153Y-48380736D01*
X162679157Y-48380732D01*
X162684367Y-48376329D01*
X162733679Y-48311831D01*
X162735573Y-48309415D01*
X162782232Y-48251383D01*
X162782233Y-48251382D01*
X162786510Y-48246062D01*
X162789547Y-48239943D01*
X162791335Y-48237148D01*
X162791588Y-48236787D01*
X162791790Y-48236420D01*
X162793521Y-48233562D01*
X162797660Y-48228148D01*
X162831986Y-48154536D01*
X162833320Y-48151764D01*
X162851316Y-48115512D01*
X162869447Y-48078986D01*
X162871098Y-48072365D01*
X162872249Y-48069237D01*
X162872413Y-48068843D01*
X162872532Y-48068439D01*
X162873609Y-48065276D01*
X162876490Y-48059096D01*
X162894206Y-47979842D01*
X162894913Y-47976848D01*
X162897191Y-47967715D01*
X162914573Y-47897998D01*
X162914763Y-47891177D01*
X162915216Y-47887874D01*
X162915375Y-47886992D01*
X162916054Y-47882099D01*
X162917180Y-47877060D01*
X162917500Y-47871337D01*
X162917500Y-47794971D01*
X162917549Y-47791453D01*
X162919591Y-47718363D01*
X162919591Y-47718358D01*
X162919781Y-47711543D01*
X162918503Y-47704842D01*
X162917955Y-47698038D01*
X162918475Y-47697996D01*
X162917500Y-47687675D01*
X162917500Y-47340485D01*
X162937502Y-47272364D01*
X162991158Y-47225871D01*
X163061432Y-47215767D01*
X163126012Y-47245261D01*
X163132518Y-47251312D01*
X163180829Y-47299539D01*
X163192240Y-47308551D01*
X163330243Y-47393616D01*
X163343424Y-47399763D01*
X163497710Y-47450938D01*
X163511086Y-47453805D01*
X163605438Y-47463472D01*
X163611854Y-47463800D01*
X163724385Y-47463800D01*
X163739624Y-47459325D01*
X163740829Y-47457935D01*
X163742500Y-47450252D01*
X163742500Y-47445684D01*
X164250500Y-47445684D01*
X164254975Y-47460923D01*
X164256365Y-47462128D01*
X164264048Y-47463799D01*
X164381095Y-47463799D01*
X164387614Y-47463462D01*
X164483206Y-47453543D01*
X164496600Y-47450651D01*
X164650784Y-47399212D01*
X164663962Y-47393039D01*
X164801807Y-47307737D01*
X164813208Y-47298701D01*
X164927739Y-47183971D01*
X164936751Y-47172560D01*
X165021816Y-47034557D01*
X165027963Y-47021376D01*
X165079138Y-46867090D01*
X165082005Y-46853714D01*
X165091672Y-46759362D01*
X165092000Y-46752946D01*
X165092000Y-46502915D01*
X165087525Y-46487676D01*
X165086135Y-46486471D01*
X165078452Y-46484800D01*
X164268615Y-46484800D01*
X164253376Y-46489275D01*
X164252171Y-46490665D01*
X164250500Y-46498348D01*
X164250500Y-47445684D01*
X163742500Y-47445684D01*
X163742500Y-45958685D01*
X164250500Y-45958685D01*
X164254975Y-45973924D01*
X164256365Y-45975129D01*
X164264048Y-45976800D01*
X165073884Y-45976800D01*
X165089123Y-45972325D01*
X165090328Y-45970935D01*
X165091999Y-45963252D01*
X165091999Y-45708705D01*
X165091662Y-45702186D01*
X165081743Y-45606594D01*
X165078851Y-45593200D01*
X165027412Y-45439016D01*
X165021239Y-45425838D01*
X164935937Y-45287993D01*
X164926901Y-45276592D01*
X164812171Y-45162061D01*
X164800760Y-45153049D01*
X164662757Y-45067984D01*
X164649576Y-45061837D01*
X164495290Y-45010662D01*
X164481914Y-45007795D01*
X164387562Y-44998128D01*
X164381145Y-44997800D01*
X164268615Y-44997800D01*
X164253376Y-45002275D01*
X164252171Y-45003665D01*
X164250500Y-45011348D01*
X164250500Y-45958685D01*
X163742500Y-45958685D01*
X163742500Y-45015916D01*
X163738025Y-45000677D01*
X163736635Y-44999472D01*
X163728952Y-44997801D01*
X163611905Y-44997801D01*
X163605386Y-44998138D01*
X163509794Y-45008057D01*
X163496400Y-45010949D01*
X163342216Y-45062388D01*
X163329038Y-45068561D01*
X163191193Y-45153863D01*
X163179792Y-45162899D01*
X163065262Y-45277628D01*
X163058206Y-45286562D01*
X163000288Y-45327623D01*
X162929365Y-45330853D01*
X162867954Y-45295226D01*
X162861154Y-45287393D01*
X162857478Y-45281452D01*
X162816982Y-45241027D01*
X162782903Y-45178745D01*
X162780000Y-45151854D01*
X162780000Y-44776092D01*
X162800002Y-44707971D01*
X162816905Y-44686997D01*
X165786776Y-41717126D01*
X165794543Y-41709983D01*
X165829154Y-41680734D01*
X165834367Y-41676329D01*
X165883717Y-41611783D01*
X165885601Y-41609381D01*
X165932228Y-41551389D01*
X165932232Y-41551383D01*
X165936510Y-41546062D01*
X165939547Y-41539943D01*
X165941335Y-41537148D01*
X165941588Y-41536787D01*
X165941790Y-41536420D01*
X165943521Y-41533562D01*
X165947660Y-41528148D01*
X165981986Y-41454536D01*
X165983320Y-41451765D01*
X166011640Y-41394714D01*
X166059845Y-41342590D01*
X166128577Y-41324803D01*
X166196015Y-41346999D01*
X166240747Y-41402131D01*
X166250500Y-41450737D01*
X166250500Y-47743466D01*
X166230498Y-47811587D01*
X166176842Y-47858080D01*
X166106568Y-47868184D01*
X166052230Y-47846680D01*
X166044408Y-47841203D01*
X166034914Y-47835721D01*
X165845544Y-47747417D01*
X165835252Y-47743671D01*
X165633425Y-47689592D01*
X165622630Y-47687689D01*
X165414475Y-47669477D01*
X165403525Y-47669477D01*
X165195370Y-47687689D01*
X165184575Y-47689592D01*
X164982748Y-47743671D01*
X164972456Y-47747417D01*
X164783084Y-47835723D01*
X164773594Y-47841201D01*
X164732568Y-47869928D01*
X164724194Y-47880404D01*
X164731262Y-47893850D01*
X165679116Y-48841705D01*
X165713141Y-48904017D01*
X165708076Y-48974833D01*
X165679115Y-49019895D01*
X165409000Y-49290010D01*
X164730541Y-49968470D01*
X164724111Y-49980244D01*
X164733407Y-49992259D01*
X164773594Y-50020399D01*
X164783084Y-50025877D01*
X164972456Y-50114183D01*
X164982748Y-50117929D01*
X165184575Y-50172008D01*
X165195370Y-50173911D01*
X165403525Y-50192123D01*
X165414475Y-50192123D01*
X165622630Y-50173911D01*
X165633425Y-50172008D01*
X165835252Y-50117929D01*
X165845544Y-50114183D01*
X166034914Y-50025879D01*
X166044408Y-50020397D01*
X166052230Y-50014920D01*
X166119504Y-49992233D01*
X166188365Y-50009519D01*
X166236948Y-50061289D01*
X166250500Y-50118134D01*
X166250500Y-54243466D01*
X166230498Y-54311587D01*
X166176842Y-54358080D01*
X166106568Y-54368184D01*
X166052230Y-54346680D01*
X166044408Y-54341203D01*
X166034914Y-54335721D01*
X165845544Y-54247417D01*
X165835252Y-54243671D01*
X165633425Y-54189592D01*
X165622630Y-54187689D01*
X165414475Y-54169477D01*
X165403525Y-54169477D01*
X165195370Y-54187689D01*
X165184575Y-54189592D01*
X164982748Y-54243671D01*
X164972456Y-54247417D01*
X164783084Y-54335723D01*
X164773594Y-54341201D01*
X164732568Y-54369928D01*
X164724194Y-54380404D01*
X164731262Y-54393850D01*
X165679116Y-55341705D01*
X165713141Y-55404017D01*
X165708076Y-55474833D01*
X165679115Y-55519895D01*
X165409000Y-55790010D01*
X164730541Y-56468470D01*
X164724111Y-56480244D01*
X164733407Y-56492259D01*
X164773594Y-56520399D01*
X164783084Y-56525877D01*
X164972456Y-56614183D01*
X164982748Y-56617929D01*
X165184575Y-56672008D01*
X165195370Y-56673911D01*
X165403525Y-56692123D01*
X165414475Y-56692123D01*
X165622630Y-56673911D01*
X165633425Y-56672008D01*
X165835252Y-56617929D01*
X165845544Y-56614183D01*
X166034914Y-56525879D01*
X166044408Y-56520397D01*
X166052230Y-56514920D01*
X166119504Y-56492233D01*
X166188365Y-56509519D01*
X166236948Y-56561289D01*
X166250500Y-56618134D01*
X166250500Y-58758359D01*
X166230498Y-58826480D01*
X166176842Y-58872973D01*
X166135923Y-58883840D01*
X166133989Y-58884016D01*
X166119112Y-58885370D01*
X165929381Y-58941210D01*
X165923923Y-58944063D01*
X165923919Y-58944065D01*
X165833147Y-58991520D01*
X165754110Y-59032840D01*
X165599975Y-59156768D01*
X165472846Y-59308274D01*
X165469879Y-59313672D01*
X165469875Y-59313677D01*
X165412343Y-59418329D01*
X165377567Y-59481587D01*
X165375706Y-59487454D01*
X165375705Y-59487456D01*
X165341888Y-59594061D01*
X165317765Y-59670106D01*
X165295719Y-59866651D01*
X165296235Y-59872795D01*
X165311657Y-60056452D01*
X165312268Y-60063734D01*
X165366783Y-60253850D01*
X165457187Y-60429756D01*
X165580035Y-60584753D01*
X165584728Y-60588747D01*
X165584729Y-60588748D01*
X165693068Y-60680951D01*
X165730650Y-60712936D01*
X165903294Y-60809424D01*
X166091392Y-60870540D01*
X166287777Y-60893958D01*
X166293912Y-60893486D01*
X166293914Y-60893486D01*
X166478830Y-60879257D01*
X166478834Y-60879256D01*
X166484972Y-60878784D01*
X166675463Y-60825598D01*
X166680967Y-60822818D01*
X166680969Y-60822817D01*
X166846493Y-60739205D01*
X166846495Y-60739204D01*
X166851996Y-60736425D01*
X166906029Y-60694210D01*
X166943414Y-60674081D01*
X166964750Y-60666901D01*
X166964755Y-60666899D01*
X166971223Y-60664722D01*
X166977076Y-60661205D01*
X166980084Y-60659815D01*
X166980489Y-60659648D01*
X166980865Y-60659443D01*
X166983852Y-60657973D01*
X166990268Y-60655638D01*
X167058920Y-60612070D01*
X167061389Y-60610545D01*
X167131109Y-60568653D01*
X167136066Y-60563966D01*
X167138723Y-60561949D01*
X167139469Y-60561431D01*
X167143400Y-60558457D01*
X167147759Y-60555691D01*
X167152032Y-60551870D01*
X167206031Y-60497872D01*
X167208552Y-60495420D01*
X167261682Y-60445177D01*
X167261683Y-60445176D01*
X167266636Y-60440492D01*
X167270470Y-60434851D01*
X167274893Y-60429653D01*
X167275292Y-60429993D01*
X167281900Y-60422002D01*
X167686788Y-60017115D01*
X167694555Y-60009973D01*
X167729152Y-59980736D01*
X167734367Y-59976329D01*
X167783679Y-59911831D01*
X167785573Y-59909415D01*
X167790614Y-59903146D01*
X167836510Y-59846062D01*
X167839547Y-59839943D01*
X167841335Y-59837148D01*
X167841588Y-59836787D01*
X167841790Y-59836420D01*
X167843521Y-59833562D01*
X167847660Y-59828148D01*
X167881986Y-59754536D01*
X167883320Y-59751764D01*
X167916414Y-59685096D01*
X167919447Y-59678986D01*
X167921098Y-59672365D01*
X167922249Y-59669237D01*
X167922413Y-59668844D01*
X167922532Y-59668439D01*
X167923609Y-59665275D01*
X167926490Y-59659096D01*
X167944215Y-59579798D01*
X167944924Y-59576802D01*
X167962921Y-59504621D01*
X167962921Y-59504620D01*
X167964572Y-59497999D01*
X167964763Y-59491178D01*
X167965215Y-59487875D01*
X167965374Y-59486991D01*
X167966052Y-59482108D01*
X167967180Y-59477060D01*
X167967500Y-59471337D01*
X167967500Y-59394956D01*
X167967549Y-59391437D01*
X167968748Y-59348515D01*
X167969781Y-59311543D01*
X167968502Y-59304839D01*
X167967955Y-59298038D01*
X167968475Y-59297996D01*
X167967500Y-59287675D01*
X167967500Y-56490300D01*
X167987502Y-56422179D01*
X168041158Y-56375686D01*
X168093500Y-56364300D01*
X169657134Y-56364300D01*
X169719316Y-56357545D01*
X169855705Y-56306415D01*
X169972261Y-56219061D01*
X170059615Y-56102505D01*
X170081799Y-56043329D01*
X170103598Y-55985182D01*
X170146240Y-55928418D01*
X170212802Y-55903718D01*
X170282150Y-55918926D01*
X170316817Y-55946914D01*
X170345250Y-55979738D01*
X170517126Y-56122432D01*
X170710000Y-56235138D01*
X170918692Y-56314830D01*
X170923760Y-56315861D01*
X170923763Y-56315862D01*
X171018862Y-56335210D01*
X171137597Y-56359367D01*
X171142772Y-56359557D01*
X171142774Y-56359557D01*
X171355673Y-56367364D01*
X171355677Y-56367364D01*
X171360837Y-56367553D01*
X171365957Y-56366897D01*
X171365959Y-56366897D01*
X171577288Y-56339825D01*
X171577289Y-56339825D01*
X171582416Y-56339168D01*
X171587366Y-56337683D01*
X171791429Y-56276461D01*
X171791434Y-56276459D01*
X171796384Y-56274974D01*
X171996994Y-56176696D01*
X172178860Y-56046973D01*
X172227427Y-55998576D01*
X172308735Y-55917551D01*
X172337096Y-55889289D01*
X172346014Y-55876879D01*
X172467453Y-55707877D01*
X172468776Y-55708828D01*
X172515645Y-55665657D01*
X172585580Y-55653425D01*
X172651026Y-55680944D01*
X172678875Y-55712794D01*
X172738987Y-55810888D01*
X172885250Y-55979738D01*
X173057126Y-56122432D01*
X173250000Y-56235138D01*
X173458692Y-56314830D01*
X173463760Y-56315861D01*
X173463763Y-56315862D01*
X173558862Y-56335210D01*
X173677597Y-56359367D01*
X173682772Y-56359557D01*
X173682774Y-56359557D01*
X173895673Y-56367364D01*
X173895677Y-56367364D01*
X173900837Y-56367553D01*
X173905957Y-56366897D01*
X173905959Y-56366897D01*
X174117288Y-56339825D01*
X174117289Y-56339825D01*
X174122416Y-56339168D01*
X174127366Y-56337683D01*
X174331429Y-56276461D01*
X174331434Y-56276459D01*
X174336384Y-56274974D01*
X174536994Y-56176696D01*
X174718860Y-56046973D01*
X174767427Y-55998576D01*
X174848735Y-55917551D01*
X174877096Y-55889289D01*
X174886014Y-55876879D01*
X175007453Y-55707877D01*
X175008776Y-55708828D01*
X175055645Y-55665657D01*
X175125580Y-55653425D01*
X175191026Y-55680944D01*
X175218875Y-55712794D01*
X175278987Y-55810888D01*
X175425250Y-55979738D01*
X175597126Y-56122432D01*
X175790000Y-56235138D01*
X175998692Y-56314830D01*
X176003760Y-56315861D01*
X176003763Y-56315862D01*
X176098862Y-56335210D01*
X176217597Y-56359367D01*
X176222772Y-56359557D01*
X176222774Y-56359557D01*
X176435673Y-56367364D01*
X176435677Y-56367364D01*
X176440837Y-56367553D01*
X176445957Y-56366897D01*
X176445959Y-56366897D01*
X176657288Y-56339825D01*
X176657289Y-56339825D01*
X176662416Y-56339168D01*
X176667366Y-56337683D01*
X176871429Y-56276461D01*
X176871434Y-56276459D01*
X176876384Y-56274974D01*
X177076994Y-56176696D01*
X177258860Y-56046973D01*
X177307427Y-55998576D01*
X177388735Y-55917551D01*
X177417096Y-55889289D01*
X177426014Y-55876879D01*
X177547453Y-55707877D01*
X177548776Y-55708828D01*
X177595645Y-55665657D01*
X177665580Y-55653425D01*
X177731026Y-55680944D01*
X177758875Y-55712794D01*
X177818987Y-55810888D01*
X177965250Y-55979738D01*
X178137126Y-56122432D01*
X178330000Y-56235138D01*
X178538692Y-56314830D01*
X178543760Y-56315861D01*
X178543763Y-56315862D01*
X178638862Y-56335210D01*
X178757597Y-56359367D01*
X178762772Y-56359557D01*
X178762774Y-56359557D01*
X178975673Y-56367364D01*
X178975677Y-56367364D01*
X178980837Y-56367553D01*
X178985957Y-56366897D01*
X178985959Y-56366897D01*
X179197288Y-56339825D01*
X179197289Y-56339825D01*
X179202416Y-56339168D01*
X179207366Y-56337683D01*
X179411429Y-56276461D01*
X179411434Y-56276459D01*
X179416384Y-56274974D01*
X179616994Y-56176696D01*
X179798860Y-56046973D01*
X179847427Y-55998576D01*
X179928735Y-55917551D01*
X179957096Y-55889289D01*
X179966014Y-55876879D01*
X180087453Y-55707877D01*
X180088640Y-55708730D01*
X180135960Y-55665162D01*
X180205897Y-55652945D01*
X180271338Y-55680478D01*
X180299166Y-55712311D01*
X180356694Y-55806188D01*
X180362777Y-55814499D01*
X180502213Y-55975467D01*
X180509580Y-55982683D01*
X180673434Y-56118716D01*
X180681881Y-56124631D01*
X180865756Y-56232079D01*
X180875042Y-56236529D01*
X181074001Y-56312503D01*
X181083899Y-56315379D01*
X181187250Y-56336406D01*
X181201299Y-56335210D01*
X181205000Y-56324865D01*
X181205000Y-56324317D01*
X181713000Y-56324317D01*
X181717064Y-56338159D01*
X181730478Y-56340193D01*
X181737184Y-56339334D01*
X181747262Y-56337192D01*
X181951255Y-56275991D01*
X181960842Y-56272233D01*
X182152095Y-56178539D01*
X182160945Y-56173264D01*
X182334328Y-56049592D01*
X182342200Y-56042939D01*
X182493052Y-55892612D01*
X182499730Y-55884765D01*
X182627022Y-55707619D01*
X182628279Y-55708522D01*
X182675373Y-55665162D01*
X182745311Y-55652945D01*
X182810751Y-55680478D01*
X182838579Y-55712311D01*
X182898987Y-55810888D01*
X183045250Y-55979738D01*
X183217126Y-56122432D01*
X183410000Y-56235138D01*
X183618692Y-56314830D01*
X183623760Y-56315861D01*
X183623763Y-56315862D01*
X183718862Y-56335210D01*
X183837597Y-56359367D01*
X183842772Y-56359557D01*
X183842774Y-56359557D01*
X184055673Y-56367364D01*
X184055677Y-56367364D01*
X184060837Y-56367553D01*
X184065957Y-56366897D01*
X184065959Y-56366897D01*
X184277288Y-56339825D01*
X184277289Y-56339825D01*
X184282416Y-56339168D01*
X184287366Y-56337683D01*
X184491429Y-56276461D01*
X184491434Y-56276459D01*
X184496384Y-56274974D01*
X184696994Y-56176696D01*
X184878860Y-56046973D01*
X184927427Y-55998576D01*
X185008735Y-55917551D01*
X185037096Y-55889289D01*
X185046014Y-55876879D01*
X185164435Y-55712077D01*
X185167453Y-55707877D01*
X185180995Y-55680478D01*
X185264136Y-55512253D01*
X185264137Y-55512251D01*
X185266430Y-55507611D01*
X185305169Y-55380105D01*
X185329865Y-55298823D01*
X185329865Y-55298821D01*
X185331370Y-55293869D01*
X185360529Y-55072390D01*
X185361521Y-55031787D01*
X185362074Y-55009165D01*
X185362074Y-55009161D01*
X185362156Y-55005800D01*
X185343852Y-54783161D01*
X185289431Y-54566502D01*
X185200354Y-54361640D01*
X185126460Y-54247417D01*
X185081822Y-54178417D01*
X185081820Y-54178414D01*
X185079014Y-54174077D01*
X184928670Y-54008851D01*
X184924619Y-54005652D01*
X184924615Y-54005648D01*
X184757414Y-53873600D01*
X184757410Y-53873598D01*
X184753359Y-53870398D01*
X184717028Y-53850342D01*
X184642915Y-53809430D01*
X184557789Y-53762438D01*
X184552920Y-53760714D01*
X184552916Y-53760712D01*
X184352087Y-53689595D01*
X184352083Y-53689594D01*
X184347212Y-53687869D01*
X184342119Y-53686962D01*
X184342116Y-53686961D01*
X184132373Y-53649600D01*
X184132367Y-53649599D01*
X184127284Y-53648694D01*
X184053452Y-53647792D01*
X183909081Y-53646028D01*
X183909079Y-53646028D01*
X183903911Y-53645965D01*
X183683091Y-53679755D01*
X183470756Y-53749157D01*
X183272607Y-53852307D01*
X183268474Y-53855410D01*
X183268471Y-53855412D01*
X183098107Y-53983325D01*
X183093965Y-53986435D01*
X183090393Y-53990173D01*
X182982729Y-54102837D01*
X182939629Y-54147938D01*
X182936720Y-54152203D01*
X182936714Y-54152211D01*
X182905274Y-54198301D01*
X182832204Y-54305418D01*
X182831898Y-54305866D01*
X182776987Y-54350869D01*
X182706462Y-54359040D01*
X182642715Y-54327786D01*
X182622018Y-54303302D01*
X182541426Y-54178726D01*
X182535136Y-54170557D01*
X182391806Y-54013040D01*
X182384273Y-54006015D01*
X182217139Y-53874022D01*
X182208552Y-53868317D01*
X182022117Y-53765399D01*
X182012705Y-53761169D01*
X181811959Y-53690080D01*
X181801988Y-53687446D01*
X181730837Y-53674772D01*
X181717540Y-53676232D01*
X181713000Y-53690789D01*
X181713000Y-56324317D01*
X181205000Y-56324317D01*
X181205000Y-53688902D01*
X181201082Y-53675558D01*
X181186806Y-53673571D01*
X181148324Y-53679460D01*
X181138288Y-53681851D01*
X180935868Y-53748012D01*
X180926359Y-53752009D01*
X180737463Y-53850342D01*
X180728738Y-53855836D01*
X180558433Y-53983705D01*
X180550726Y-53990548D01*
X180403590Y-54144517D01*
X180397109Y-54152522D01*
X180292498Y-54305874D01*
X180237587Y-54350876D01*
X180167062Y-54359047D01*
X180103315Y-54327793D01*
X180082618Y-54303309D01*
X180001822Y-54178417D01*
X180001820Y-54178414D01*
X179999014Y-54174077D01*
X179848670Y-54008851D01*
X179844619Y-54005652D01*
X179844615Y-54005648D01*
X179677414Y-53873600D01*
X179677410Y-53873598D01*
X179673359Y-53870398D01*
X179637028Y-53850342D01*
X179562915Y-53809430D01*
X179477789Y-53762438D01*
X179472920Y-53760714D01*
X179472916Y-53760712D01*
X179272087Y-53689595D01*
X179272083Y-53689594D01*
X179267212Y-53687869D01*
X179262119Y-53686962D01*
X179262116Y-53686961D01*
X179052373Y-53649600D01*
X179052367Y-53649599D01*
X179047284Y-53648694D01*
X178973452Y-53647792D01*
X178829081Y-53646028D01*
X178829079Y-53646028D01*
X178823911Y-53645965D01*
X178603091Y-53679755D01*
X178390756Y-53749157D01*
X178192607Y-53852307D01*
X178188474Y-53855410D01*
X178188471Y-53855412D01*
X178018107Y-53983325D01*
X178013965Y-53986435D01*
X178010393Y-53990173D01*
X177902729Y-54102837D01*
X177859629Y-54147938D01*
X177752201Y-54305421D01*
X177697293Y-54350421D01*
X177626768Y-54358592D01*
X177563021Y-54327338D01*
X177542324Y-54302854D01*
X177461822Y-54178417D01*
X177461820Y-54178414D01*
X177459014Y-54174077D01*
X177308670Y-54008851D01*
X177304619Y-54005652D01*
X177304615Y-54005648D01*
X177137414Y-53873600D01*
X177137410Y-53873598D01*
X177133359Y-53870398D01*
X177097028Y-53850342D01*
X177022915Y-53809430D01*
X176937789Y-53762438D01*
X176932920Y-53760714D01*
X176932916Y-53760712D01*
X176732087Y-53689595D01*
X176732083Y-53689594D01*
X176727212Y-53687869D01*
X176722119Y-53686962D01*
X176722116Y-53686961D01*
X176512373Y-53649600D01*
X176512367Y-53649599D01*
X176507284Y-53648694D01*
X176433452Y-53647792D01*
X176289081Y-53646028D01*
X176289079Y-53646028D01*
X176283911Y-53645965D01*
X176063091Y-53679755D01*
X175850756Y-53749157D01*
X175652607Y-53852307D01*
X175648474Y-53855410D01*
X175648471Y-53855412D01*
X175478107Y-53983325D01*
X175473965Y-53986435D01*
X175470393Y-53990173D01*
X175362729Y-54102837D01*
X175319629Y-54147938D01*
X175212201Y-54305421D01*
X175157293Y-54350421D01*
X175086768Y-54358592D01*
X175023021Y-54327338D01*
X175002324Y-54302854D01*
X174921822Y-54178417D01*
X174921820Y-54178414D01*
X174919014Y-54174077D01*
X174915532Y-54170250D01*
X174780307Y-54021639D01*
X174749255Y-53957793D01*
X174747500Y-53936839D01*
X174747500Y-46552190D01*
X174747942Y-46541647D01*
X174751733Y-46496499D01*
X174752304Y-46489701D01*
X174749626Y-46469630D01*
X174741563Y-46409198D01*
X174741193Y-46406143D01*
X174733153Y-46332142D01*
X174732417Y-46325363D01*
X174730242Y-46318899D01*
X174729522Y-46315624D01*
X174729452Y-46315228D01*
X174729329Y-46314804D01*
X174728538Y-46311584D01*
X174727634Y-46304811D01*
X174699851Y-46228477D01*
X174698844Y-46225602D01*
X174688194Y-46193958D01*
X174672922Y-46148577D01*
X174669404Y-46142723D01*
X174668015Y-46139716D01*
X174667848Y-46139311D01*
X174667643Y-46138935D01*
X174666173Y-46135948D01*
X174663838Y-46129532D01*
X174620270Y-46060880D01*
X174618745Y-46058411D01*
X174576853Y-45988691D01*
X174572166Y-45983734D01*
X174570149Y-45981077D01*
X174569631Y-45980331D01*
X174566656Y-45976398D01*
X174563891Y-45972041D01*
X174560070Y-45967768D01*
X174506091Y-45913789D01*
X174503637Y-45911267D01*
X174478564Y-45884753D01*
X174448692Y-45853164D01*
X174443044Y-45849326D01*
X174437852Y-45844907D01*
X174438192Y-45844507D01*
X174430200Y-45837898D01*
X173195320Y-44603017D01*
X173188177Y-44595250D01*
X173158935Y-44560647D01*
X173154529Y-44555433D01*
X173090031Y-44506121D01*
X173087615Y-44504227D01*
X173029583Y-44457568D01*
X173029582Y-44457567D01*
X173024262Y-44453290D01*
X173018143Y-44450253D01*
X173015348Y-44448465D01*
X173014987Y-44448212D01*
X173014620Y-44448010D01*
X173011762Y-44446279D01*
X173006348Y-44442140D01*
X172932736Y-44407814D01*
X172929964Y-44406480D01*
X172863296Y-44373386D01*
X172857186Y-44370353D01*
X172850565Y-44368702D01*
X172847437Y-44367551D01*
X172847044Y-44367387D01*
X172846639Y-44367268D01*
X172843475Y-44366191D01*
X172837296Y-44363310D01*
X172758000Y-44345585D01*
X172755002Y-44344876D01*
X172682821Y-44326879D01*
X172682820Y-44326879D01*
X172676199Y-44325228D01*
X172669378Y-44325037D01*
X172666075Y-44324585D01*
X172665191Y-44324426D01*
X172660308Y-44323748D01*
X172655260Y-44322620D01*
X172649537Y-44322300D01*
X172573156Y-44322300D01*
X172569637Y-44322251D01*
X172489743Y-44320019D01*
X172483039Y-44321298D01*
X172476238Y-44321845D01*
X172476196Y-44321325D01*
X172465875Y-44322300D01*
X171073585Y-44322300D01*
X171013656Y-44307136D01*
X170962618Y-44279540D01*
X170901701Y-44246602D01*
X170712768Y-44188118D01*
X170706643Y-44187474D01*
X170706642Y-44187474D01*
X170522204Y-44168089D01*
X170522202Y-44168089D01*
X170516075Y-44167445D01*
X170433576Y-44174953D01*
X170325251Y-44184811D01*
X170325248Y-44184812D01*
X170319112Y-44185370D01*
X170313206Y-44187108D01*
X170313202Y-44187109D01*
X170208076Y-44218049D01*
X170129381Y-44241210D01*
X170123923Y-44244063D01*
X170123919Y-44244065D01*
X170057023Y-44279038D01*
X169954110Y-44332840D01*
X169799975Y-44456768D01*
X169672846Y-44608274D01*
X169669879Y-44613672D01*
X169669875Y-44613677D01*
X169629568Y-44686997D01*
X169577567Y-44781587D01*
X169517765Y-44970106D01*
X169495719Y-45166651D01*
X169496235Y-45172795D01*
X169509236Y-45327623D01*
X169512268Y-45363734D01*
X169566783Y-45553850D01*
X169657187Y-45729756D01*
X169780035Y-45884753D01*
X169784728Y-45888747D01*
X169784729Y-45888748D01*
X169918522Y-46002614D01*
X169930650Y-46012936D01*
X170103294Y-46109424D01*
X170291392Y-46170540D01*
X170487777Y-46193958D01*
X170493912Y-46193486D01*
X170493914Y-46193486D01*
X170678830Y-46179257D01*
X170678834Y-46179256D01*
X170684972Y-46178784D01*
X170875463Y-46125598D01*
X171019511Y-46052834D01*
X171076322Y-46039300D01*
X172151208Y-46039300D01*
X172219329Y-46059302D01*
X172240303Y-46076205D01*
X172993595Y-46829497D01*
X173027621Y-46891809D01*
X173030500Y-46918592D01*
X173030500Y-53850995D01*
X173010498Y-53919116D01*
X172980153Y-53951755D01*
X172938106Y-53983325D01*
X172938100Y-53983331D01*
X172933965Y-53986435D01*
X172930393Y-53990173D01*
X172930391Y-53990175D01*
X172822729Y-54102837D01*
X172779629Y-54147938D01*
X172672201Y-54305421D01*
X172617293Y-54350421D01*
X172546768Y-54358592D01*
X172483021Y-54327338D01*
X172462324Y-54302854D01*
X172381822Y-54178417D01*
X172381820Y-54178414D01*
X172379014Y-54174077D01*
X172228670Y-54008851D01*
X172224619Y-54005652D01*
X172224615Y-54005648D01*
X172057414Y-53873600D01*
X172057410Y-53873598D01*
X172053359Y-53870398D01*
X172017028Y-53850342D01*
X171942915Y-53809430D01*
X171857789Y-53762438D01*
X171852920Y-53760714D01*
X171852916Y-53760712D01*
X171652087Y-53689595D01*
X171652083Y-53689594D01*
X171647212Y-53687869D01*
X171642119Y-53686962D01*
X171642116Y-53686961D01*
X171432373Y-53649600D01*
X171432367Y-53649599D01*
X171427284Y-53648694D01*
X171353452Y-53647792D01*
X171209081Y-53646028D01*
X171209079Y-53646028D01*
X171203911Y-53645965D01*
X170983091Y-53679755D01*
X170770756Y-53749157D01*
X170572607Y-53852307D01*
X170568474Y-53855410D01*
X170568471Y-53855412D01*
X170398107Y-53983325D01*
X170393965Y-53986435D01*
X170337537Y-54045484D01*
X170313283Y-54070864D01*
X170251759Y-54106294D01*
X170180846Y-54102837D01*
X170123060Y-54061591D01*
X170104207Y-54028043D01*
X170062767Y-53917503D01*
X170059615Y-53909095D01*
X169972261Y-53792539D01*
X169855705Y-53705185D01*
X169719316Y-53654055D01*
X169657134Y-53647300D01*
X168093500Y-53647300D01*
X168025379Y-53627298D01*
X167978886Y-53573642D01*
X167967500Y-53521300D01*
X167967500Y-39852126D01*
X167987502Y-39784005D01*
X168004405Y-39763031D01*
X171991232Y-35776205D01*
X172053544Y-35742179D01*
X172080327Y-35739300D01*
X172209400Y-35739300D01*
X172212646Y-35738963D01*
X172212650Y-35738963D01*
X172308308Y-35729038D01*
X172308312Y-35729037D01*
X172315166Y-35728326D01*
X172321702Y-35726145D01*
X172321704Y-35726145D01*
X172453806Y-35682072D01*
X172482946Y-35672350D01*
X172633348Y-35579278D01*
X172758305Y-35454103D01*
X172782828Y-35414320D01*
X172847275Y-35309768D01*
X172847276Y-35309766D01*
X172851115Y-35303538D01*
X172892330Y-35179278D01*
X172904632Y-35142189D01*
X172904632Y-35142187D01*
X172906797Y-35135661D01*
X172917500Y-35031200D01*
X172917500Y-34030400D01*
X172912275Y-33980042D01*
X172907238Y-33931492D01*
X172907237Y-33931488D01*
X172906526Y-33924634D01*
X172891530Y-33879684D01*
X172852868Y-33763802D01*
X172850550Y-33756854D01*
X172757478Y-33606452D01*
X172720025Y-33569064D01*
X172704482Y-33553548D01*
X172670403Y-33491265D01*
X172667500Y-33464375D01*
X172667500Y-32622190D01*
X172667942Y-32611647D01*
X172671733Y-32566499D01*
X172672304Y-32559701D01*
X172669937Y-32541964D01*
X172680753Y-32471799D01*
X172727787Y-32418617D01*
X172794830Y-32399300D01*
X174311208Y-32399300D01*
X174379329Y-32419302D01*
X174400303Y-32436205D01*
X176063595Y-34099498D01*
X176097621Y-34161810D01*
X176100500Y-34188593D01*
X176100500Y-34631200D01*
X176100837Y-34634446D01*
X176100837Y-34634450D01*
X176110490Y-34727480D01*
X176111474Y-34736966D01*
X176113655Y-34743502D01*
X176113655Y-34743504D01*
X176136490Y-34811949D01*
X176167450Y-34904746D01*
X176260522Y-35055148D01*
X176265704Y-35060321D01*
X176270249Y-35066055D01*
X176268576Y-35067381D01*
X176297598Y-35120425D01*
X176300500Y-35147311D01*
X176300500Y-35464407D01*
X176280498Y-35532528D01*
X176263673Y-35553425D01*
X176222950Y-35594219D01*
X176209695Y-35607497D01*
X176205855Y-35613727D01*
X176205854Y-35613728D01*
X176128056Y-35739940D01*
X176116885Y-35758062D01*
X176100176Y-35808439D01*
X176068941Y-35902611D01*
X176061203Y-35925939D01*
X176060503Y-35932775D01*
X176060502Y-35932778D01*
X176059787Y-35939755D01*
X176050500Y-36030400D01*
X176050500Y-37031200D01*
X176050837Y-37034446D01*
X176050837Y-37034450D01*
X176059031Y-37113417D01*
X176061474Y-37136966D01*
X176063655Y-37143502D01*
X176063655Y-37143504D01*
X176093345Y-37232495D01*
X176117450Y-37304746D01*
X176210522Y-37455148D01*
X176215704Y-37460321D01*
X176263518Y-37508052D01*
X176297597Y-37570335D01*
X176300500Y-37597225D01*
X176300500Y-37640431D01*
X176280498Y-37708552D01*
X176240807Y-37747572D01*
X176184652Y-37782322D01*
X176059695Y-37907497D01*
X176055855Y-37913727D01*
X176055854Y-37913728D01*
X175996075Y-38010708D01*
X175966885Y-38058062D01*
X175911203Y-38225939D01*
X175910503Y-38232775D01*
X175910502Y-38232778D01*
X175906091Y-38275831D01*
X175900500Y-38330400D01*
X175900500Y-38523007D01*
X175880498Y-38591128D01*
X175863595Y-38612102D01*
X174931217Y-39544480D01*
X174923451Y-39551622D01*
X174883633Y-39585271D01*
X174879486Y-39590695D01*
X174879485Y-39590696D01*
X174834326Y-39649762D01*
X174832432Y-39652179D01*
X174781490Y-39715538D01*
X174778453Y-39721657D01*
X174776665Y-39724452D01*
X174776412Y-39724813D01*
X174776210Y-39725180D01*
X174774479Y-39728038D01*
X174770340Y-39733452D01*
X174760223Y-39755148D01*
X174736015Y-39807062D01*
X174734681Y-39809833D01*
X174698553Y-39882614D01*
X174696902Y-39889235D01*
X174695751Y-39892363D01*
X174695587Y-39892756D01*
X174695468Y-39893161D01*
X174694391Y-39896325D01*
X174691510Y-39902504D01*
X174685977Y-39927257D01*
X174673785Y-39981802D01*
X174673076Y-39984798D01*
X174660970Y-40033354D01*
X174653428Y-40063601D01*
X174653237Y-40070422D01*
X174652785Y-40073725D01*
X174652626Y-40074609D01*
X174651948Y-40079492D01*
X174650820Y-40084540D01*
X174650500Y-40090263D01*
X174650500Y-40166644D01*
X174650451Y-40170163D01*
X174648219Y-40250057D01*
X174649498Y-40256761D01*
X174650045Y-40263562D01*
X174649525Y-40263604D01*
X174650500Y-40273925D01*
X174650500Y-42239410D01*
X174650058Y-42249952D01*
X174645696Y-42301899D01*
X174646598Y-42308659D01*
X174646598Y-42308661D01*
X174656437Y-42382402D01*
X174656807Y-42385457D01*
X174665583Y-42466237D01*
X174667758Y-42472701D01*
X174668478Y-42475976D01*
X174668548Y-42476372D01*
X174668671Y-42476796D01*
X174669462Y-42480016D01*
X174670366Y-42486789D01*
X174698139Y-42563094D01*
X174699156Y-42565998D01*
X174705407Y-42584573D01*
X174725078Y-42643023D01*
X174728596Y-42648877D01*
X174729985Y-42651884D01*
X174730152Y-42652289D01*
X174730357Y-42652665D01*
X174731827Y-42655652D01*
X174734162Y-42662068D01*
X174777730Y-42730720D01*
X174779255Y-42733189D01*
X174821147Y-42802909D01*
X174825834Y-42807866D01*
X174827851Y-42810523D01*
X174828369Y-42811269D01*
X174831344Y-42815202D01*
X174834109Y-42819559D01*
X174837930Y-42823832D01*
X174891908Y-42877810D01*
X174894362Y-42880332D01*
X174949308Y-42938436D01*
X174954950Y-42942271D01*
X174960148Y-42946694D01*
X174959811Y-42947090D01*
X174967802Y-42953704D01*
X175772674Y-43758576D01*
X175779816Y-43766342D01*
X175813471Y-43806167D01*
X175818890Y-43810310D01*
X175818892Y-43810312D01*
X175878008Y-43855510D01*
X175880429Y-43857409D01*
X175937182Y-43903038D01*
X175943738Y-43908309D01*
X175949850Y-43911343D01*
X175952644Y-43913130D01*
X175953004Y-43913382D01*
X175953373Y-43913585D01*
X175956234Y-43915317D01*
X175961652Y-43919460D01*
X175980901Y-43928436D01*
X176035277Y-43953792D01*
X176038048Y-43955126D01*
X176110814Y-43991247D01*
X176117435Y-43992898D01*
X176120563Y-43994049D01*
X176120956Y-43994213D01*
X176121361Y-43994332D01*
X176124525Y-43995409D01*
X176130704Y-43998290D01*
X176204498Y-44014785D01*
X176210002Y-44016015D01*
X176212998Y-44016724D01*
X176243051Y-44024217D01*
X176291801Y-44036372D01*
X176298622Y-44036563D01*
X176301925Y-44037015D01*
X176302809Y-44037174D01*
X176307692Y-44037852D01*
X176312740Y-44038980D01*
X176318463Y-44039300D01*
X176394844Y-44039300D01*
X176398363Y-44039349D01*
X176447501Y-44040722D01*
X176515037Y-44062619D01*
X176533000Y-44077500D01*
X176536167Y-44080661D01*
X176585697Y-44130105D01*
X176591927Y-44133945D01*
X176591928Y-44133946D01*
X176729090Y-44218494D01*
X176736262Y-44222915D01*
X176786174Y-44239470D01*
X176897611Y-44276432D01*
X176897613Y-44276432D01*
X176904139Y-44278597D01*
X176910975Y-44279297D01*
X176910978Y-44279298D01*
X176954031Y-44283709D01*
X177008600Y-44289300D01*
X178009400Y-44289300D01*
X178012646Y-44288963D01*
X178012650Y-44288963D01*
X178108308Y-44279038D01*
X178108312Y-44279037D01*
X178115166Y-44278326D01*
X178121702Y-44276145D01*
X178121704Y-44276145D01*
X178253806Y-44232072D01*
X178282946Y-44222350D01*
X178433348Y-44129278D01*
X178465911Y-44096658D01*
X178486252Y-44076282D01*
X178548535Y-44042203D01*
X178575425Y-44039300D01*
X179705596Y-44039300D01*
X179844437Y-44024217D01*
X180021223Y-43964722D01*
X180033578Y-43957298D01*
X180098475Y-43939300D01*
X180464772Y-43939300D01*
X180554547Y-43928436D01*
X180562075Y-43925456D01*
X180562077Y-43925455D01*
X180632135Y-43897717D01*
X180694783Y-43872913D01*
X180814922Y-43781722D01*
X180884137Y-43690535D01*
X180941255Y-43648368D01*
X181012103Y-43643776D01*
X181074187Y-43678215D01*
X181107796Y-43740753D01*
X181110500Y-43766715D01*
X181110500Y-48624093D01*
X181110058Y-48634635D01*
X181105696Y-48686582D01*
X181106598Y-48693342D01*
X181106598Y-48693344D01*
X181116437Y-48767085D01*
X181116807Y-48770140D01*
X181125583Y-48850920D01*
X181127758Y-48857384D01*
X181128478Y-48860659D01*
X181128548Y-48861055D01*
X181128671Y-48861479D01*
X181129462Y-48864699D01*
X181130366Y-48871472D01*
X181158139Y-48947777D01*
X181159156Y-48950681D01*
X181185078Y-49027706D01*
X181188596Y-49033560D01*
X181189985Y-49036567D01*
X181190152Y-49036972D01*
X181190357Y-49037348D01*
X181191827Y-49040335D01*
X181194162Y-49046751D01*
X181237730Y-49115403D01*
X181239255Y-49117872D01*
X181281147Y-49187592D01*
X181285834Y-49192549D01*
X181287851Y-49195206D01*
X181288369Y-49195952D01*
X181291344Y-49199885D01*
X181294109Y-49204242D01*
X181297930Y-49208515D01*
X181351908Y-49262493D01*
X181354362Y-49265015D01*
X181409308Y-49323119D01*
X181414956Y-49326957D01*
X181420148Y-49331376D01*
X181419808Y-49331776D01*
X181427800Y-49338385D01*
X183597997Y-51508583D01*
X183605139Y-51516349D01*
X183638788Y-51556167D01*
X183644212Y-51560314D01*
X183644213Y-51560315D01*
X183703279Y-51605474D01*
X183705696Y-51607368D01*
X183769055Y-51658310D01*
X183775174Y-51661347D01*
X183777969Y-51663135D01*
X183778330Y-51663388D01*
X183778697Y-51663590D01*
X183781555Y-51665321D01*
X183786969Y-51669460D01*
X183860579Y-51703785D01*
X183863350Y-51705119D01*
X183936131Y-51741247D01*
X183942752Y-51742898D01*
X183945880Y-51744049D01*
X183946273Y-51744213D01*
X183946678Y-51744332D01*
X183949842Y-51745409D01*
X183956021Y-51748290D01*
X184029815Y-51764785D01*
X184035319Y-51766015D01*
X184038317Y-51766724D01*
X184117118Y-51786372D01*
X184123939Y-51786563D01*
X184127242Y-51787015D01*
X184128126Y-51787174D01*
X184133009Y-51787852D01*
X184138057Y-51788980D01*
X184143780Y-51789300D01*
X184220161Y-51789300D01*
X184223680Y-51789349D01*
X184303574Y-51791581D01*
X184310278Y-51790302D01*
X184317079Y-51789755D01*
X184317121Y-51790275D01*
X184327442Y-51789300D01*
X187401207Y-51789300D01*
X187469328Y-51809302D01*
X187490303Y-51826205D01*
X188363596Y-52699499D01*
X188397621Y-52761811D01*
X188400500Y-52788594D01*
X188400500Y-53245408D01*
X188380498Y-53313529D01*
X188326842Y-53360022D01*
X188256568Y-53370126D01*
X188191988Y-53340632D01*
X188185483Y-53334581D01*
X188137488Y-53286670D01*
X188137483Y-53286666D01*
X188132303Y-53281495D01*
X188117500Y-53272370D01*
X187987968Y-53192525D01*
X187987966Y-53192524D01*
X187981738Y-53188685D01*
X187821254Y-53135455D01*
X187820389Y-53135168D01*
X187820387Y-53135168D01*
X187813861Y-53133003D01*
X187807025Y-53132303D01*
X187807022Y-53132302D01*
X187763969Y-53127891D01*
X187709400Y-53122300D01*
X186908600Y-53122300D01*
X186905354Y-53122637D01*
X186905350Y-53122637D01*
X186809692Y-53132562D01*
X186809688Y-53132563D01*
X186802834Y-53133274D01*
X186796298Y-53135455D01*
X186796296Y-53135455D01*
X186694108Y-53169548D01*
X186635054Y-53189250D01*
X186484652Y-53282322D01*
X186359695Y-53407497D01*
X186355855Y-53413727D01*
X186355854Y-53413728D01*
X186289546Y-53521300D01*
X186266885Y-53558062D01*
X186253384Y-53598766D01*
X186223488Y-53688902D01*
X186211203Y-53725939D01*
X186200500Y-53830400D01*
X186200500Y-54831200D01*
X186200837Y-54834446D01*
X186200837Y-54834450D01*
X186210436Y-54926958D01*
X186211474Y-54936966D01*
X186213655Y-54943502D01*
X186213655Y-54943504D01*
X186256655Y-55072390D01*
X186267450Y-55104746D01*
X186360522Y-55255148D01*
X186365704Y-55260321D01*
X186413518Y-55308052D01*
X186447597Y-55370335D01*
X186450500Y-55397225D01*
X186450500Y-57639410D01*
X186450058Y-57649952D01*
X186445696Y-57701899D01*
X186446598Y-57708659D01*
X186446598Y-57708661D01*
X186456437Y-57782402D01*
X186456807Y-57785457D01*
X186465583Y-57866237D01*
X186467758Y-57872701D01*
X186468478Y-57875976D01*
X186468548Y-57876372D01*
X186468671Y-57876796D01*
X186469462Y-57880016D01*
X186470366Y-57886789D01*
X186498139Y-57963094D01*
X186499155Y-57965998D01*
X186513918Y-58009864D01*
X186520500Y-58050054D01*
X186520500Y-59278934D01*
X186527255Y-59341116D01*
X186578385Y-59477505D01*
X186665739Y-59594061D01*
X186782295Y-59681415D01*
X186918684Y-59732545D01*
X186980866Y-59739300D01*
X187501208Y-59739300D01*
X187569329Y-59759302D01*
X187590303Y-59776205D01*
X189372674Y-61558576D01*
X189379816Y-61566342D01*
X189413471Y-61606167D01*
X189478017Y-61655517D01*
X189480419Y-61657401D01*
X189538411Y-61704028D01*
X189538417Y-61704032D01*
X189543738Y-61708310D01*
X189549857Y-61711347D01*
X189552652Y-61713135D01*
X189553013Y-61713388D01*
X189553380Y-61713590D01*
X189556238Y-61715321D01*
X189561652Y-61719460D01*
X189634732Y-61753538D01*
X189635262Y-61753785D01*
X189638033Y-61755119D01*
X189710814Y-61791247D01*
X189717435Y-61792898D01*
X189720563Y-61794049D01*
X189720956Y-61794213D01*
X189721361Y-61794332D01*
X189724525Y-61795409D01*
X189730704Y-61798290D01*
X189804498Y-61814785D01*
X189810002Y-61816015D01*
X189813000Y-61816724D01*
X189891801Y-61836372D01*
X189898622Y-61836563D01*
X189901925Y-61837015D01*
X189902809Y-61837174D01*
X189907692Y-61837852D01*
X189912740Y-61838980D01*
X189918463Y-61839300D01*
X189994844Y-61839300D01*
X189998363Y-61839349D01*
X190078257Y-61841581D01*
X190084961Y-61840302D01*
X190091762Y-61839755D01*
X190091804Y-61840275D01*
X190102125Y-61839300D01*
X191899572Y-61839300D01*
X191967693Y-61859302D01*
X192001495Y-61893688D01*
X192002125Y-61893188D01*
X192006668Y-61898920D01*
X192010522Y-61905148D01*
X192135697Y-62030105D01*
X192141927Y-62033945D01*
X192141928Y-62033946D01*
X192279090Y-62118494D01*
X192286262Y-62122915D01*
X192366005Y-62149364D01*
X192447611Y-62176432D01*
X192447613Y-62176432D01*
X192454139Y-62178597D01*
X192460975Y-62179297D01*
X192460978Y-62179298D01*
X192504031Y-62183709D01*
X192558600Y-62189300D01*
X193359400Y-62189300D01*
X193362646Y-62188963D01*
X193362650Y-62188963D01*
X193458308Y-62179038D01*
X193458312Y-62179037D01*
X193465166Y-62178326D01*
X193471702Y-62176145D01*
X193471704Y-62176145D01*
X193603806Y-62132072D01*
X193632946Y-62122350D01*
X193783348Y-62029278D01*
X193869784Y-61942691D01*
X193932066Y-61908612D01*
X194002886Y-61913615D01*
X194047976Y-61942536D01*
X194135697Y-62030105D01*
X194141927Y-62033945D01*
X194141928Y-62033946D01*
X194279090Y-62118494D01*
X194286262Y-62122915D01*
X194366005Y-62149364D01*
X194447611Y-62176432D01*
X194447613Y-62176432D01*
X194454139Y-62178597D01*
X194460975Y-62179297D01*
X194460978Y-62179298D01*
X194504031Y-62183709D01*
X194558600Y-62189300D01*
X195359400Y-62189300D01*
X195362646Y-62188963D01*
X195362650Y-62188963D01*
X195458308Y-62179038D01*
X195458312Y-62179037D01*
X195465166Y-62178326D01*
X195471702Y-62176145D01*
X195471704Y-62176145D01*
X195603806Y-62132072D01*
X195632946Y-62122350D01*
X195783348Y-62029278D01*
X195908305Y-61904103D01*
X195958991Y-61821875D01*
X195997275Y-61759768D01*
X195997276Y-61759766D01*
X196001115Y-61753538D01*
X196056797Y-61585661D01*
X196058777Y-61566343D01*
X196067172Y-61484398D01*
X196067500Y-61481200D01*
X196067500Y-61092873D01*
X196087502Y-61024752D01*
X196112170Y-60996636D01*
X196124367Y-60986329D01*
X196173679Y-60921831D01*
X196175573Y-60919415D01*
X196222232Y-60861383D01*
X196222233Y-60861382D01*
X196226510Y-60856062D01*
X196229547Y-60849943D01*
X196231335Y-60847148D01*
X196231588Y-60846787D01*
X196231790Y-60846420D01*
X196233521Y-60843562D01*
X196237660Y-60838148D01*
X196271986Y-60764536D01*
X196273320Y-60761764D01*
X196306414Y-60695096D01*
X196309447Y-60688986D01*
X196311098Y-60682365D01*
X196312249Y-60679237D01*
X196312413Y-60678844D01*
X196312532Y-60678439D01*
X196313609Y-60675275D01*
X196316490Y-60669096D01*
X196334215Y-60589798D01*
X196334924Y-60586802D01*
X196352921Y-60514621D01*
X196352921Y-60514620D01*
X196354572Y-60507999D01*
X196354763Y-60501178D01*
X196355215Y-60497875D01*
X196355374Y-60496991D01*
X196356052Y-60492108D01*
X196357180Y-60487060D01*
X196357500Y-60481337D01*
X196357500Y-60404956D01*
X196357549Y-60401437D01*
X196359590Y-60328363D01*
X196359781Y-60321543D01*
X196358502Y-60314839D01*
X196357955Y-60308038D01*
X196358475Y-60307996D01*
X196357500Y-60297675D01*
X196357500Y-59495579D01*
X196377502Y-59427458D01*
X196394560Y-59406328D01*
X196487535Y-59313677D01*
X196537096Y-59264289D01*
X196667453Y-59082877D01*
X196680995Y-59055478D01*
X196764136Y-58887253D01*
X196764137Y-58887251D01*
X196766430Y-58882611D01*
X196831370Y-58668869D01*
X196860529Y-58447390D01*
X196862156Y-58380800D01*
X196843852Y-58158161D01*
X196789431Y-57941502D01*
X196700354Y-57736640D01*
X196606511Y-57591581D01*
X196581822Y-57553417D01*
X196581820Y-57553414D01*
X196579014Y-57549077D01*
X196428670Y-57383851D01*
X196405407Y-57365479D01*
X196364345Y-57307564D01*
X196357500Y-57266598D01*
X196357500Y-56862190D01*
X196357942Y-56851647D01*
X196362304Y-56799701D01*
X196360545Y-56786518D01*
X196351563Y-56719198D01*
X196351193Y-56716143D01*
X196346605Y-56673911D01*
X196342417Y-56635363D01*
X196340242Y-56628899D01*
X196339522Y-56625624D01*
X196339452Y-56625228D01*
X196339329Y-56624804D01*
X196338538Y-56621584D01*
X196337634Y-56614811D01*
X196309851Y-56538477D01*
X196308844Y-56535602D01*
X196293598Y-56490300D01*
X196282922Y-56458577D01*
X196279404Y-56452723D01*
X196278015Y-56449716D01*
X196277848Y-56449311D01*
X196277643Y-56448935D01*
X196276173Y-56445948D01*
X196273838Y-56439532D01*
X196230270Y-56370880D01*
X196228745Y-56368411D01*
X196186853Y-56298691D01*
X196182166Y-56293734D01*
X196180149Y-56291077D01*
X196179631Y-56290331D01*
X196176656Y-56286398D01*
X196173891Y-56282041D01*
X196170070Y-56277768D01*
X196116092Y-56223790D01*
X196113638Y-56221268D01*
X196104761Y-56211881D01*
X196058692Y-56163164D01*
X196053044Y-56159326D01*
X196047852Y-56154907D01*
X196048192Y-56154507D01*
X196040200Y-56147898D01*
X194537547Y-54645244D01*
X195574110Y-54645244D01*
X195583406Y-54657259D01*
X195623594Y-54685399D01*
X195633084Y-54690877D01*
X195822456Y-54779183D01*
X195832748Y-54782929D01*
X196034575Y-54837008D01*
X196045370Y-54838911D01*
X196253525Y-54857123D01*
X196264475Y-54857123D01*
X196472630Y-54838911D01*
X196483425Y-54837008D01*
X196685252Y-54782929D01*
X196695544Y-54779183D01*
X196884916Y-54690877D01*
X196894406Y-54685399D01*
X196935432Y-54656672D01*
X196943806Y-54646196D01*
X196936740Y-54632751D01*
X196271811Y-53967821D01*
X196257868Y-53960208D01*
X196256034Y-53960339D01*
X196249420Y-53964590D01*
X195580537Y-54633474D01*
X195574110Y-54645244D01*
X194537547Y-54645244D01*
X194152916Y-54260613D01*
X194118890Y-54198301D01*
X194116011Y-54171518D01*
X194116011Y-53601275D01*
X194997677Y-53601275D01*
X195015889Y-53809430D01*
X195017792Y-53820225D01*
X195071871Y-54022052D01*
X195075617Y-54032344D01*
X195163923Y-54221716D01*
X195169401Y-54231206D01*
X195198128Y-54272232D01*
X195208604Y-54280606D01*
X195222049Y-54273540D01*
X195886979Y-53608611D01*
X195893356Y-53596932D01*
X196623408Y-53596932D01*
X196623539Y-53598766D01*
X196627790Y-53605380D01*
X197296674Y-54274263D01*
X197308444Y-54280690D01*
X197320459Y-54271394D01*
X197348599Y-54231206D01*
X197354077Y-54221716D01*
X197442383Y-54032344D01*
X197446129Y-54022052D01*
X197500208Y-53820225D01*
X197502111Y-53809430D01*
X197520323Y-53601275D01*
X197520323Y-53590325D01*
X197502111Y-53382170D01*
X197500208Y-53371375D01*
X197446129Y-53169548D01*
X197442383Y-53159256D01*
X197354077Y-52969884D01*
X197348599Y-52960394D01*
X197319872Y-52919368D01*
X197309396Y-52910994D01*
X197295951Y-52918060D01*
X196631021Y-53582989D01*
X196623408Y-53596932D01*
X195893356Y-53596932D01*
X195894592Y-53594668D01*
X195894461Y-53592834D01*
X195890210Y-53586220D01*
X195221326Y-52917337D01*
X195209556Y-52910910D01*
X195197541Y-52920206D01*
X195169401Y-52960394D01*
X195163923Y-52969884D01*
X195075617Y-53159256D01*
X195071871Y-53169548D01*
X195017792Y-53371375D01*
X195015889Y-53382170D01*
X194997677Y-53590325D01*
X194997677Y-53601275D01*
X194116011Y-53601275D01*
X194116011Y-52545404D01*
X195574194Y-52545404D01*
X195581260Y-52558849D01*
X196246189Y-53223779D01*
X196260132Y-53231392D01*
X196261966Y-53231261D01*
X196268580Y-53227010D01*
X196937463Y-52558126D01*
X196943890Y-52546356D01*
X196934594Y-52534341D01*
X196894406Y-52506201D01*
X196884916Y-52500723D01*
X196695544Y-52412417D01*
X196685252Y-52408671D01*
X196483425Y-52354592D01*
X196472630Y-52352689D01*
X196264475Y-52334477D01*
X196253525Y-52334477D01*
X196045370Y-52352689D01*
X196034575Y-52354592D01*
X195832748Y-52408671D01*
X195822456Y-52412417D01*
X195633084Y-52500723D01*
X195623594Y-52506201D01*
X195582568Y-52534928D01*
X195574194Y-52545404D01*
X194116011Y-52545404D01*
X194116011Y-48145244D01*
X195574110Y-48145244D01*
X195583406Y-48157259D01*
X195623594Y-48185399D01*
X195633084Y-48190877D01*
X195822456Y-48279183D01*
X195832748Y-48282929D01*
X196034575Y-48337008D01*
X196045370Y-48338911D01*
X196253525Y-48357123D01*
X196264475Y-48357123D01*
X196472630Y-48338911D01*
X196483425Y-48337008D01*
X196685252Y-48282929D01*
X196695544Y-48279183D01*
X196884916Y-48190877D01*
X196894406Y-48185399D01*
X196935432Y-48156672D01*
X196943806Y-48146196D01*
X196936740Y-48132751D01*
X196271811Y-47467821D01*
X196257868Y-47460208D01*
X196256034Y-47460339D01*
X196249420Y-47464590D01*
X195580537Y-48133474D01*
X195574110Y-48145244D01*
X194116011Y-48145244D01*
X194116011Y-47101275D01*
X194997677Y-47101275D01*
X195015889Y-47309430D01*
X195017792Y-47320225D01*
X195071871Y-47522052D01*
X195075617Y-47532344D01*
X195163923Y-47721716D01*
X195169401Y-47731206D01*
X195198128Y-47772232D01*
X195208604Y-47780606D01*
X195222049Y-47773540D01*
X195886979Y-47108611D01*
X195893356Y-47096932D01*
X196623408Y-47096932D01*
X196623539Y-47098766D01*
X196627790Y-47105380D01*
X197296674Y-47774263D01*
X197308444Y-47780690D01*
X197320459Y-47771394D01*
X197348599Y-47731206D01*
X197354077Y-47721716D01*
X197442383Y-47532344D01*
X197446129Y-47522052D01*
X197500208Y-47320225D01*
X197502111Y-47309430D01*
X197520323Y-47101275D01*
X197520323Y-47090325D01*
X197502111Y-46882170D01*
X197500208Y-46871375D01*
X197446129Y-46669548D01*
X197442383Y-46659256D01*
X197354077Y-46469884D01*
X197348599Y-46460394D01*
X197319872Y-46419368D01*
X197309396Y-46410994D01*
X197295951Y-46418060D01*
X196631021Y-47082989D01*
X196623408Y-47096932D01*
X195893356Y-47096932D01*
X195894592Y-47094668D01*
X195894461Y-47092834D01*
X195890210Y-47086220D01*
X195221326Y-46417337D01*
X195209556Y-46410910D01*
X195197541Y-46420206D01*
X195169401Y-46460394D01*
X195163923Y-46469884D01*
X195075617Y-46659256D01*
X195071871Y-46669548D01*
X195017792Y-46871375D01*
X195015889Y-46882170D01*
X194997677Y-47090325D01*
X194997677Y-47101275D01*
X194116011Y-47101275D01*
X194116011Y-46516486D01*
X194116453Y-46505943D01*
X194119502Y-46469630D01*
X194120815Y-46453997D01*
X194116021Y-46418060D01*
X194110074Y-46373490D01*
X194109704Y-46370436D01*
X194102574Y-46304811D01*
X194100928Y-46289658D01*
X194098750Y-46283187D01*
X194098038Y-46279947D01*
X194097961Y-46279512D01*
X194097845Y-46279112D01*
X194097048Y-46275869D01*
X194096146Y-46269107D01*
X194068350Y-46192739D01*
X194067352Y-46189889D01*
X194060841Y-46170540D01*
X194041433Y-46112872D01*
X194037920Y-46107025D01*
X194036518Y-46103991D01*
X194036358Y-46103603D01*
X194036147Y-46103216D01*
X194034683Y-46100242D01*
X194032349Y-46093828D01*
X194001618Y-46045404D01*
X195574194Y-46045404D01*
X195581260Y-46058849D01*
X196246189Y-46723779D01*
X196260132Y-46731392D01*
X196261966Y-46731261D01*
X196268580Y-46727010D01*
X196937463Y-46058126D01*
X196943890Y-46046356D01*
X196934594Y-46034341D01*
X196894406Y-46006201D01*
X196884916Y-46000723D01*
X196695544Y-45912417D01*
X196685252Y-45908671D01*
X196483425Y-45854592D01*
X196472630Y-45852689D01*
X196264475Y-45834477D01*
X196253525Y-45834477D01*
X196045370Y-45852689D01*
X196034575Y-45854592D01*
X195832748Y-45908671D01*
X195822456Y-45912417D01*
X195633084Y-46000723D01*
X195623594Y-46006201D01*
X195582568Y-46034928D01*
X195574194Y-46045404D01*
X194001618Y-46045404D01*
X193988787Y-46025185D01*
X193987262Y-46022716D01*
X193945364Y-45952986D01*
X193940674Y-45948027D01*
X193938659Y-45945372D01*
X193938151Y-45944641D01*
X193935173Y-45940703D01*
X193932402Y-45936336D01*
X193928582Y-45932063D01*
X193874586Y-45878067D01*
X193872132Y-45875545D01*
X193821892Y-45822418D01*
X193817203Y-45817459D01*
X193811555Y-45813621D01*
X193806363Y-45809202D01*
X193806703Y-45808802D01*
X193798714Y-45802195D01*
X190439405Y-42442886D01*
X190405379Y-42380574D01*
X190402500Y-42353791D01*
X190402500Y-41375469D01*
X190751001Y-41375469D01*
X190751371Y-41382290D01*
X190756895Y-41433152D01*
X190760521Y-41448404D01*
X190805676Y-41568854D01*
X190814214Y-41584449D01*
X190890715Y-41686524D01*
X190903276Y-41699085D01*
X191005351Y-41775586D01*
X191020946Y-41784124D01*
X191141394Y-41829278D01*
X191156649Y-41832905D01*
X191207514Y-41838431D01*
X191214328Y-41838800D01*
X191836885Y-41838800D01*
X191852124Y-41834325D01*
X191853329Y-41832935D01*
X191855000Y-41825252D01*
X191855000Y-41820684D01*
X192363000Y-41820684D01*
X192367475Y-41835923D01*
X192368865Y-41837128D01*
X192376548Y-41838799D01*
X193003669Y-41838799D01*
X193010490Y-41838429D01*
X193061352Y-41832905D01*
X193076604Y-41829279D01*
X193197054Y-41784124D01*
X193212649Y-41775586D01*
X193314724Y-41699085D01*
X193327285Y-41686524D01*
X193403786Y-41584449D01*
X193412324Y-41568854D01*
X193457478Y-41448406D01*
X193461105Y-41433151D01*
X193466631Y-41382286D01*
X193467000Y-41375472D01*
X193467000Y-40752915D01*
X193462525Y-40737676D01*
X193461135Y-40736471D01*
X193453452Y-40734800D01*
X192381115Y-40734800D01*
X192365876Y-40739275D01*
X192364671Y-40740665D01*
X192363000Y-40748348D01*
X192363000Y-41820684D01*
X191855000Y-41820684D01*
X191855000Y-40752915D01*
X191850525Y-40737676D01*
X191849135Y-40736471D01*
X191841452Y-40734800D01*
X190769116Y-40734800D01*
X190753877Y-40739275D01*
X190752672Y-40740665D01*
X190751001Y-40748348D01*
X190751001Y-41375469D01*
X190402500Y-41375469D01*
X190402500Y-33879684D01*
X190418944Y-33817447D01*
X190448732Y-33765010D01*
X190469769Y-33727979D01*
X190532197Y-33540313D01*
X190556985Y-33344095D01*
X190557380Y-33315800D01*
X190554156Y-33282923D01*
X190567415Y-33213176D01*
X190616277Y-33161669D01*
X190685229Y-33144755D01*
X190752380Y-33167804D01*
X190796410Y-33223499D01*
X190802472Y-33242925D01*
X190808222Y-33268439D01*
X190892266Y-33475416D01*
X191008987Y-33665888D01*
X191155250Y-33834738D01*
X191327126Y-33977432D01*
X191397595Y-34018611D01*
X191400445Y-34020276D01*
X191449169Y-34071914D01*
X191462240Y-34141697D01*
X191435509Y-34207469D01*
X191395055Y-34240827D01*
X191382607Y-34247307D01*
X191378474Y-34250410D01*
X191378471Y-34250412D01*
X191354247Y-34268600D01*
X191203965Y-34381435D01*
X191049629Y-34542938D01*
X190923743Y-34727480D01*
X190888952Y-34802432D01*
X190836829Y-34914722D01*
X190829688Y-34930105D01*
X190769989Y-35145370D01*
X190746251Y-35367495D01*
X190746548Y-35372648D01*
X190746548Y-35372651D01*
X190757728Y-35566544D01*
X190759110Y-35590515D01*
X190760247Y-35595561D01*
X190760248Y-35595567D01*
X190777680Y-35672915D01*
X190808222Y-35808439D01*
X190862196Y-35941362D01*
X190889725Y-36009157D01*
X190892266Y-36015416D01*
X190901448Y-36030400D01*
X190990332Y-36175445D01*
X191008987Y-36205888D01*
X191155250Y-36374738D01*
X191327126Y-36517432D01*
X191365920Y-36540101D01*
X191400445Y-36560276D01*
X191449169Y-36611914D01*
X191462240Y-36681697D01*
X191435509Y-36747469D01*
X191395055Y-36780827D01*
X191382607Y-36787307D01*
X191378474Y-36790410D01*
X191378471Y-36790412D01*
X191208100Y-36918330D01*
X191203965Y-36921435D01*
X191049629Y-37082938D01*
X190923743Y-37267480D01*
X190909670Y-37297798D01*
X190832701Y-37463615D01*
X190829688Y-37470105D01*
X190769989Y-37685370D01*
X190746251Y-37907495D01*
X190746548Y-37912648D01*
X190746548Y-37912651D01*
X190752011Y-38007390D01*
X190759110Y-38130515D01*
X190760247Y-38135561D01*
X190760248Y-38135567D01*
X190762284Y-38144599D01*
X190808222Y-38348439D01*
X190892266Y-38555416D01*
X190927003Y-38612102D01*
X190991593Y-38717503D01*
X191008987Y-38745888D01*
X191155250Y-38914738D01*
X191159225Y-38918038D01*
X191159231Y-38918044D01*
X191164425Y-38922356D01*
X191204059Y-38981260D01*
X191205555Y-39052241D01*
X191168439Y-39112762D01*
X191128168Y-39137280D01*
X191020946Y-39177476D01*
X191005351Y-39186014D01*
X190903276Y-39262515D01*
X190890715Y-39275076D01*
X190814214Y-39377151D01*
X190805676Y-39392746D01*
X190760522Y-39513194D01*
X190756895Y-39528449D01*
X190751369Y-39579314D01*
X190751000Y-39586128D01*
X190751000Y-40208685D01*
X190755475Y-40223924D01*
X190756865Y-40225129D01*
X190764548Y-40226800D01*
X193448884Y-40226800D01*
X193464123Y-40222325D01*
X193465328Y-40220935D01*
X193466999Y-40213252D01*
X193466999Y-39586131D01*
X193466629Y-39579310D01*
X193461105Y-39528448D01*
X193457479Y-39513196D01*
X193412324Y-39392746D01*
X193403786Y-39377151D01*
X193327285Y-39275076D01*
X193314724Y-39262515D01*
X193212649Y-39186014D01*
X193197054Y-39177476D01*
X193086813Y-39136148D01*
X193030049Y-39093506D01*
X193005349Y-39026945D01*
X193020557Y-38957596D01*
X193042104Y-38928915D01*
X193143430Y-38827944D01*
X193143440Y-38827932D01*
X193147096Y-38824289D01*
X193173836Y-38787077D01*
X193274435Y-38647077D01*
X193277453Y-38642877D01*
X193302332Y-38592539D01*
X193374136Y-38447253D01*
X193374137Y-38447251D01*
X193376430Y-38442611D01*
X193428414Y-38271513D01*
X193439865Y-38233823D01*
X193439865Y-38233821D01*
X193441370Y-38228869D01*
X193470529Y-38007390D01*
X193470611Y-38004040D01*
X193472074Y-37944165D01*
X193472074Y-37944161D01*
X193472156Y-37940800D01*
X193453852Y-37718161D01*
X193399431Y-37501502D01*
X193310354Y-37296640D01*
X193189014Y-37109077D01*
X193038670Y-36943851D01*
X193034619Y-36940652D01*
X193034615Y-36940648D01*
X192867414Y-36808600D01*
X192867410Y-36808598D01*
X192863359Y-36805398D01*
X192822053Y-36782596D01*
X192772084Y-36732164D01*
X192757312Y-36662721D01*
X192782428Y-36596316D01*
X192809780Y-36569709D01*
X192873866Y-36523997D01*
X192988860Y-36441973D01*
X193147096Y-36284289D01*
X193206594Y-36201489D01*
X193274435Y-36107077D01*
X193277453Y-36102877D01*
X193314880Y-36027150D01*
X193374136Y-35907253D01*
X193374137Y-35907251D01*
X193376430Y-35902611D01*
X193418604Y-35763802D01*
X193439865Y-35693823D01*
X193439865Y-35693821D01*
X193441370Y-35688869D01*
X193470529Y-35467390D01*
X193472156Y-35400800D01*
X193453852Y-35178161D01*
X193399431Y-34961502D01*
X193310354Y-34756640D01*
X193226813Y-34627505D01*
X193191822Y-34573417D01*
X193191820Y-34573414D01*
X193189014Y-34569077D01*
X193038670Y-34403851D01*
X193034619Y-34400652D01*
X193034615Y-34400648D01*
X192867414Y-34268600D01*
X192867410Y-34268598D01*
X192863359Y-34265398D01*
X192822053Y-34242596D01*
X192772084Y-34192164D01*
X192757312Y-34122721D01*
X192782428Y-34056316D01*
X192809780Y-34029709D01*
X192853603Y-33998450D01*
X192988860Y-33901973D01*
X193147096Y-33744289D01*
X193182992Y-33694335D01*
X193274435Y-33567077D01*
X193277453Y-33562877D01*
X193282125Y-33553425D01*
X193374136Y-33367253D01*
X193374137Y-33367251D01*
X193376430Y-33362611D01*
X193441370Y-33148869D01*
X193470529Y-32927390D01*
X193470611Y-32924040D01*
X193472074Y-32864165D01*
X193472074Y-32864161D01*
X193472156Y-32860800D01*
X193453852Y-32638161D01*
X193399431Y-32421502D01*
X193310354Y-32216640D01*
X193226336Y-32086768D01*
X193191822Y-32033417D01*
X193191820Y-32033414D01*
X193189014Y-32029077D01*
X193038670Y-31863851D01*
X193034619Y-31860652D01*
X193034615Y-31860648D01*
X192867414Y-31728600D01*
X192867410Y-31728598D01*
X192863359Y-31725398D01*
X192667789Y-31617438D01*
X192662920Y-31615714D01*
X192662916Y-31615712D01*
X192462087Y-31544595D01*
X192462083Y-31544594D01*
X192457212Y-31542869D01*
X192452119Y-31541962D01*
X192452116Y-31541961D01*
X192242373Y-31504600D01*
X192242367Y-31504599D01*
X192237284Y-31503694D01*
X192163452Y-31502792D01*
X192019081Y-31501028D01*
X192019079Y-31501028D01*
X192013911Y-31500965D01*
X191842235Y-31527235D01*
X191771873Y-31517767D01*
X191734082Y-31491780D01*
X190725809Y-30483506D01*
X190718666Y-30475739D01*
X190689424Y-30441136D01*
X190685018Y-30435922D01*
X190620520Y-30386610D01*
X190618104Y-30384716D01*
X190560072Y-30338057D01*
X190560071Y-30338056D01*
X190554751Y-30333779D01*
X190548632Y-30330742D01*
X190545837Y-30328954D01*
X190545476Y-30328701D01*
X190545109Y-30328499D01*
X190542251Y-30326768D01*
X190536837Y-30322629D01*
X190463225Y-30288303D01*
X190460453Y-30286969D01*
X190459410Y-30286451D01*
X190387675Y-30250842D01*
X190381054Y-30249191D01*
X190377926Y-30248040D01*
X190377533Y-30247876D01*
X190377128Y-30247757D01*
X190373964Y-30246680D01*
X190367785Y-30243799D01*
X190288489Y-30226074D01*
X190285491Y-30225365D01*
X190213310Y-30207368D01*
X190213309Y-30207368D01*
X190206688Y-30205717D01*
X190199867Y-30205526D01*
X190196564Y-30205074D01*
X190195680Y-30204915D01*
X190190797Y-30204237D01*
X190185749Y-30203109D01*
X190180026Y-30202789D01*
X190103645Y-30202789D01*
X190100126Y-30202740D01*
X190020232Y-30200508D01*
X190013528Y-30201787D01*
X190006727Y-30202334D01*
X190006685Y-30201814D01*
X189996364Y-30202789D01*
X179219901Y-30202789D01*
X179209358Y-30202347D01*
X179209203Y-30202334D01*
X179157412Y-30197985D01*
X179150652Y-30198887D01*
X179150650Y-30198887D01*
X179076909Y-30208726D01*
X179073854Y-30209096D01*
X179041622Y-30212598D01*
X178993074Y-30217872D01*
X178986610Y-30220047D01*
X178983335Y-30220767D01*
X178982939Y-30220837D01*
X178982515Y-30220960D01*
X178979295Y-30221751D01*
X178972522Y-30222655D01*
X178896188Y-30250438D01*
X178893313Y-30251445D01*
X178886093Y-30253875D01*
X178816288Y-30277367D01*
X178810434Y-30280885D01*
X178807427Y-30282274D01*
X178807022Y-30282441D01*
X178806646Y-30282646D01*
X178803659Y-30284116D01*
X178797243Y-30286451D01*
X178728591Y-30330019D01*
X178726122Y-30331544D01*
X178656402Y-30373436D01*
X178651445Y-30378123D01*
X178648788Y-30380140D01*
X178648042Y-30380658D01*
X178644109Y-30383633D01*
X178639752Y-30386398D01*
X178635479Y-30390219D01*
X178581501Y-30444197D01*
X178578979Y-30446651D01*
X178520875Y-30501597D01*
X178517037Y-30507245D01*
X178512618Y-30512437D01*
X178512218Y-30512097D01*
X178505609Y-30520089D01*
X176798095Y-32227602D01*
X176735783Y-32261628D01*
X176664967Y-32256563D01*
X176619905Y-32227602D01*
X175355320Y-30963017D01*
X175348177Y-30955250D01*
X175318935Y-30920647D01*
X175314529Y-30915433D01*
X175250031Y-30866121D01*
X175247615Y-30864227D01*
X175189583Y-30817568D01*
X175189582Y-30817567D01*
X175184262Y-30813290D01*
X175178143Y-30810253D01*
X175175348Y-30808465D01*
X175174987Y-30808212D01*
X175174620Y-30808010D01*
X175171762Y-30806279D01*
X175166348Y-30802140D01*
X175092736Y-30767814D01*
X175089964Y-30766480D01*
X175023296Y-30733386D01*
X175017186Y-30730353D01*
X175010565Y-30728702D01*
X175007437Y-30727551D01*
X175007044Y-30727387D01*
X175006639Y-30727268D01*
X175003475Y-30726191D01*
X174997296Y-30723310D01*
X174918000Y-30705585D01*
X174915002Y-30704876D01*
X174842821Y-30686879D01*
X174842820Y-30686879D01*
X174836199Y-30685228D01*
X174829378Y-30685037D01*
X174826075Y-30684585D01*
X174825191Y-30684426D01*
X174820308Y-30683748D01*
X174815260Y-30682620D01*
X174809537Y-30682300D01*
X174733156Y-30682300D01*
X174729637Y-30682251D01*
X174649743Y-30680019D01*
X174643039Y-30681298D01*
X174636238Y-30681845D01*
X174636196Y-30681325D01*
X174625875Y-30682300D01*
X171333585Y-30682300D01*
X171273656Y-30667136D01*
X171260528Y-30660038D01*
X171161701Y-30606602D01*
X170972768Y-30548118D01*
X170966643Y-30547474D01*
X170966642Y-30547474D01*
X170782204Y-30528089D01*
X170782202Y-30528089D01*
X170776075Y-30527445D01*
X170693576Y-30534953D01*
X170585251Y-30544811D01*
X170585248Y-30544812D01*
X170579112Y-30545370D01*
X170573206Y-30547108D01*
X170573202Y-30547109D01*
X170468076Y-30578049D01*
X170389381Y-30601210D01*
X170383923Y-30604063D01*
X170383919Y-30604065D01*
X170293147Y-30651520D01*
X170214110Y-30692840D01*
X170059975Y-30816768D01*
X169932846Y-30968274D01*
X169929879Y-30973672D01*
X169929875Y-30973677D01*
X169875455Y-31072669D01*
X169837567Y-31141587D01*
X169835706Y-31147454D01*
X169835705Y-31147456D01*
X169811196Y-31224719D01*
X169777765Y-31330106D01*
X169755719Y-31526651D01*
X169772268Y-31723734D01*
X169773967Y-31729658D01*
X169811528Y-31860648D01*
X169826783Y-31913850D01*
X169917187Y-32089756D01*
X170040035Y-32244753D01*
X170190650Y-32372936D01*
X170363294Y-32469424D01*
X170369154Y-32471328D01*
X170512619Y-32517942D01*
X170562778Y-32548680D01*
X170913595Y-32899497D01*
X170947621Y-32961809D01*
X170950500Y-32988592D01*
X170950500Y-33464407D01*
X170930498Y-33532528D01*
X170913673Y-33553425D01*
X170898216Y-33568909D01*
X170835934Y-33602988D01*
X170765114Y-33597985D01*
X170720025Y-33569064D01*
X170637483Y-33486666D01*
X170632303Y-33481495D01*
X170614675Y-33470629D01*
X170487968Y-33392525D01*
X170487966Y-33392524D01*
X170481738Y-33388685D01*
X170321254Y-33335455D01*
X170320389Y-33335168D01*
X170320387Y-33335168D01*
X170313861Y-33333003D01*
X170307025Y-33332303D01*
X170307022Y-33332302D01*
X170263969Y-33327891D01*
X170209400Y-33322300D01*
X169408600Y-33322300D01*
X169405354Y-33322637D01*
X169405350Y-33322637D01*
X169309692Y-33332562D01*
X169309688Y-33332563D01*
X169302834Y-33333274D01*
X169296298Y-33335455D01*
X169296296Y-33335455D01*
X169200987Y-33367253D01*
X169135054Y-33389250D01*
X168984652Y-33482322D01*
X168859695Y-33607497D01*
X168855855Y-33613727D01*
X168855854Y-33613728D01*
X168782123Y-33733342D01*
X168766885Y-33758062D01*
X168747751Y-33815749D01*
X168741045Y-33835967D01*
X168700614Y-33894327D01*
X168635050Y-33921564D01*
X168621452Y-33922300D01*
X165773585Y-33922300D01*
X165713656Y-33907136D01*
X165689966Y-33894327D01*
X165601701Y-33846602D01*
X165412768Y-33788118D01*
X165406643Y-33787474D01*
X165406642Y-33787474D01*
X165222204Y-33768089D01*
X165222202Y-33768089D01*
X165216075Y-33767445D01*
X165133576Y-33774953D01*
X165025251Y-33784811D01*
X165025248Y-33784812D01*
X165019112Y-33785370D01*
X165013206Y-33787108D01*
X165013202Y-33787109D01*
X164910122Y-33817447D01*
X164829381Y-33841210D01*
X164823923Y-33844063D01*
X164823919Y-33844065D01*
X164755787Y-33879684D01*
X164654110Y-33932840D01*
X164499975Y-34056768D01*
X164372846Y-34208274D01*
X164369879Y-34213672D01*
X164369875Y-34213677D01*
X164291095Y-34356980D01*
X164277567Y-34381587D01*
X164275706Y-34387454D01*
X164275705Y-34387456D01*
X164261470Y-34432331D01*
X164217765Y-34570106D01*
X164195719Y-34766651D01*
X164196235Y-34772795D01*
X164210415Y-34941661D01*
X164212268Y-34963734D01*
X164223152Y-35001692D01*
X164262923Y-35140388D01*
X164266783Y-35153850D01*
X164284892Y-35189085D01*
X164336566Y-35289632D01*
X164350500Y-35347227D01*
X164350500Y-38751579D01*
X164330498Y-38819700D01*
X164276842Y-38866193D01*
X164206568Y-38876297D01*
X164141988Y-38846803D01*
X164103604Y-38787077D01*
X164103239Y-38785589D01*
X164103080Y-38783967D01*
X164093302Y-38751579D01*
X164047697Y-38600531D01*
X164045916Y-38594631D01*
X163953066Y-38420004D01*
X163859997Y-38305890D01*
X163831960Y-38271513D01*
X163831957Y-38271510D01*
X163828065Y-38266738D01*
X163823316Y-38262809D01*
X163680425Y-38144599D01*
X163680421Y-38144597D01*
X163675675Y-38140670D01*
X163501701Y-38046602D01*
X163312768Y-37988118D01*
X163306643Y-37987474D01*
X163306642Y-37987474D01*
X163122204Y-37968089D01*
X163122202Y-37968089D01*
X163116075Y-37967445D01*
X163033576Y-37974953D01*
X162925251Y-37984811D01*
X162925248Y-37984812D01*
X162919112Y-37985370D01*
X162913206Y-37987108D01*
X162913202Y-37987109D01*
X162808076Y-38018049D01*
X162729381Y-38041210D01*
X162723917Y-38044067D01*
X162723911Y-38044069D01*
X162563441Y-38127961D01*
X162505065Y-38142300D01*
X156494069Y-38142300D01*
X156425948Y-38122298D01*
X156379455Y-38068642D01*
X156369351Y-37998368D01*
X156381112Y-37960473D01*
X156409832Y-37902362D01*
X156476430Y-37767611D01*
X156541370Y-37553869D01*
X156570529Y-37332390D01*
X156571086Y-37309584D01*
X156572074Y-37269165D01*
X156572074Y-37269161D01*
X156572156Y-37265800D01*
X156553852Y-37043161D01*
X156499431Y-36826502D01*
X156410354Y-36621640D01*
X156333135Y-36502277D01*
X156291822Y-36438417D01*
X156291820Y-36438414D01*
X156289014Y-36434077D01*
X156138670Y-36268851D01*
X156134619Y-36265652D01*
X156134615Y-36265648D01*
X155967414Y-36133600D01*
X155967410Y-36133598D01*
X155963359Y-36130398D01*
X155767789Y-36022438D01*
X155762920Y-36020714D01*
X155762916Y-36020712D01*
X155562087Y-35949595D01*
X155562083Y-35949594D01*
X155557212Y-35947869D01*
X155552119Y-35946962D01*
X155552116Y-35946961D01*
X155342373Y-35909600D01*
X155342367Y-35909599D01*
X155337284Y-35908694D01*
X155263452Y-35907792D01*
X155119081Y-35906028D01*
X155119079Y-35906028D01*
X155113911Y-35905965D01*
X154893091Y-35939755D01*
X154680756Y-36009157D01*
X154482607Y-36112307D01*
X154478474Y-36115410D01*
X154478471Y-36115412D01*
X154308100Y-36243330D01*
X154303965Y-36246435D01*
X154149629Y-36407938D01*
X154023743Y-36592480D01*
X154008003Y-36626390D01*
X153933308Y-36787307D01*
X153929688Y-36795105D01*
X153869989Y-37010370D01*
X153846251Y-37232495D01*
X128704500Y-37232495D01*
X128704500Y-34428934D01*
X137900500Y-34428934D01*
X137907255Y-34491116D01*
X137958385Y-34627505D01*
X138045739Y-34744061D01*
X138162295Y-34831415D01*
X138298684Y-34882545D01*
X138360866Y-34889300D01*
X141257134Y-34889300D01*
X141319316Y-34882545D01*
X141455705Y-34831415D01*
X141572261Y-34744061D01*
X141659615Y-34627505D01*
X141710745Y-34491116D01*
X141717500Y-34428934D01*
X141717500Y-31532666D01*
X141710745Y-31470484D01*
X141659615Y-31334095D01*
X141572261Y-31217539D01*
X141455705Y-31130185D01*
X141319316Y-31079055D01*
X141257134Y-31072300D01*
X138360866Y-31072300D01*
X138298684Y-31079055D01*
X138162295Y-31130185D01*
X138045739Y-31217539D01*
X137958385Y-31334095D01*
X137907255Y-31470484D01*
X137900500Y-31532666D01*
X137900500Y-34428934D01*
X128704500Y-34428934D01*
X128704500Y-29768300D01*
X128724502Y-29700179D01*
X128778158Y-29653686D01*
X128830500Y-29642300D01*
X200406500Y-29642300D01*
X200474621Y-29662302D01*
G37*
G04 #@! TD.AperFunction*
G04 #@! TA.AperFunction,Conductor*
G36*
X188352886Y-55263615D02*
G01*
X188397975Y-55292536D01*
X188434575Y-55329072D01*
X188485697Y-55380105D01*
X188491927Y-55383945D01*
X188491928Y-55383946D01*
X188566103Y-55429668D01*
X188636262Y-55472915D01*
X188698264Y-55493480D01*
X188797611Y-55526432D01*
X188797613Y-55526432D01*
X188804139Y-55528597D01*
X188810975Y-55529297D01*
X188810978Y-55529298D01*
X188854031Y-55533709D01*
X188908600Y-55539300D01*
X189251208Y-55539300D01*
X189319329Y-55559302D01*
X189340303Y-55576205D01*
X190656423Y-56892326D01*
X190690449Y-56954638D01*
X190687613Y-57018938D01*
X190673000Y-57065789D01*
X190673000Y-59699317D01*
X190677064Y-59713159D01*
X190690478Y-59715193D01*
X190697184Y-59714334D01*
X190707262Y-59712192D01*
X190911255Y-59650991D01*
X190920842Y-59647233D01*
X191112095Y-59553539D01*
X191120945Y-59548264D01*
X191294328Y-59424592D01*
X191302200Y-59417939D01*
X191453052Y-59267612D01*
X191459730Y-59259765D01*
X191587022Y-59082619D01*
X191588279Y-59083522D01*
X191635373Y-59040162D01*
X191705311Y-59027945D01*
X191770751Y-59055478D01*
X191798579Y-59087311D01*
X191858987Y-59185888D01*
X192005250Y-59354738D01*
X192142996Y-59469097D01*
X192165615Y-59487875D01*
X192177126Y-59497432D01*
X192189429Y-59504621D01*
X192348610Y-59597639D01*
X192397334Y-59649278D01*
X192410405Y-59719061D01*
X192383674Y-59784832D01*
X192324916Y-59825951D01*
X192285054Y-59839250D01*
X192134652Y-59932322D01*
X192009695Y-60057497D01*
X192005854Y-60063728D01*
X192001317Y-60069473D01*
X191999987Y-60068423D01*
X191953893Y-60109908D01*
X191899403Y-60122300D01*
X190416792Y-60122300D01*
X190348671Y-60102298D01*
X190327697Y-60085395D01*
X190145448Y-59903146D01*
X190111422Y-59840834D01*
X190116487Y-59770019D01*
X190157681Y-59714210D01*
X190160700Y-59711886D01*
X190165000Y-59699865D01*
X190165000Y-57063902D01*
X190161082Y-57050558D01*
X190146806Y-57048571D01*
X190108324Y-57054460D01*
X190098288Y-57056851D01*
X189895868Y-57123012D01*
X189886359Y-57127009D01*
X189697463Y-57225342D01*
X189688738Y-57230836D01*
X189518433Y-57358705D01*
X189510726Y-57365548D01*
X189433478Y-57446384D01*
X189371954Y-57481814D01*
X189301042Y-57478357D01*
X189243255Y-57437111D01*
X189224402Y-57403563D01*
X189182767Y-57292503D01*
X189179615Y-57284095D01*
X189092261Y-57167539D01*
X188975705Y-57080185D01*
X188839316Y-57029055D01*
X188777134Y-57022300D01*
X188293500Y-57022300D01*
X188225379Y-57002298D01*
X188178886Y-56948642D01*
X188167500Y-56896300D01*
X188167500Y-55397193D01*
X188187502Y-55329072D01*
X188204327Y-55308175D01*
X188219784Y-55292691D01*
X188282066Y-55258612D01*
X188352886Y-55263615D01*
G37*
G04 #@! TD.AperFunction*
M02*
