G04 #@! TF.GenerationSoftware,KiCad,Pcbnew,(6.0.4)*
G04 #@! TF.CreationDate,2022-04-15T12:37:11+02:00*
G04 #@! TF.ProjectId,standaard,7374616e-6461-4617-9264-2e6b69636164,rev?*
G04 #@! TF.SameCoordinates,Original*
G04 #@! TF.FileFunction,Legend,Bot*
G04 #@! TF.FilePolarity,Positive*
%FSLAX46Y46*%
G04 Gerber Fmt 4.6, Leading zero omitted, Abs format (unit mm)*
G04 Created by KiCad (PCBNEW (6.0.4)) date 2022-04-15 12:37:11*
%MOMM*%
%LPD*%
G01*
G04 APERTURE LIST*
%ADD10C,0.150000*%
%ADD11C,0.120000*%
%ADD12C,0.127000*%
%ADD13C,0.200000*%
G04 APERTURE END LIST*
D10*
X188951857Y-56433180D02*
X189285190Y-55956990D01*
X189523285Y-56433180D02*
X189523285Y-55433180D01*
X189142333Y-55433180D01*
X189047095Y-55480800D01*
X188999476Y-55528419D01*
X188951857Y-55623657D01*
X188951857Y-55766514D01*
X188999476Y-55861752D01*
X189047095Y-55909371D01*
X189142333Y-55956990D01*
X189523285Y-55956990D01*
X187999476Y-56433180D02*
X188570904Y-56433180D01*
X188285190Y-56433180D02*
X188285190Y-55433180D01*
X188380428Y-55576038D01*
X188475666Y-55671276D01*
X188570904Y-55718895D01*
X187618523Y-55528419D02*
X187570904Y-55480800D01*
X187475666Y-55433180D01*
X187237571Y-55433180D01*
X187142333Y-55480800D01*
X187094714Y-55528419D01*
X187047095Y-55623657D01*
X187047095Y-55718895D01*
X187094714Y-55861752D01*
X187666142Y-56433180D01*
X187047095Y-56433180D01*
X175325666Y-34633180D02*
X175659000Y-34156990D01*
X175897095Y-34633180D02*
X175897095Y-33633180D01*
X175516142Y-33633180D01*
X175420904Y-33680800D01*
X175373285Y-33728419D01*
X175325666Y-33823657D01*
X175325666Y-33966514D01*
X175373285Y-34061752D01*
X175420904Y-34109371D01*
X175516142Y-34156990D01*
X175897095Y-34156990D01*
X174849476Y-34633180D02*
X174659000Y-34633180D01*
X174563761Y-34585561D01*
X174516142Y-34537942D01*
X174420904Y-34395085D01*
X174373285Y-34204609D01*
X174373285Y-33823657D01*
X174420904Y-33728419D01*
X174468523Y-33680800D01*
X174563761Y-33633180D01*
X174754238Y-33633180D01*
X174849476Y-33680800D01*
X174897095Y-33728419D01*
X174944714Y-33823657D01*
X174944714Y-34061752D01*
X174897095Y-34156990D01*
X174849476Y-34204609D01*
X174754238Y-34252228D01*
X174563761Y-34252228D01*
X174468523Y-34204609D01*
X174420904Y-34156990D01*
X174373285Y-34061752D01*
X181204238Y-45296619D02*
X181299476Y-45249000D01*
X181394714Y-45153761D01*
X181537571Y-45010904D01*
X181632809Y-44963285D01*
X181728047Y-44963285D01*
X181680428Y-45201380D02*
X181775666Y-45153761D01*
X181870904Y-45058523D01*
X181918523Y-44868047D01*
X181918523Y-44534714D01*
X181870904Y-44344238D01*
X181775666Y-44249000D01*
X181680428Y-44201380D01*
X181489952Y-44201380D01*
X181394714Y-44249000D01*
X181299476Y-44344238D01*
X181251857Y-44534714D01*
X181251857Y-44868047D01*
X181299476Y-45058523D01*
X181394714Y-45153761D01*
X181489952Y-45201380D01*
X181680428Y-45201380D01*
X180299476Y-45201380D02*
X180870904Y-45201380D01*
X180585190Y-45201380D02*
X180585190Y-44201380D01*
X180680428Y-44344238D01*
X180775666Y-44439476D01*
X180870904Y-44487095D01*
X194601857Y-63083180D02*
X194935190Y-62606990D01*
X195173285Y-63083180D02*
X195173285Y-62083180D01*
X194792333Y-62083180D01*
X194697095Y-62130800D01*
X194649476Y-62178419D01*
X194601857Y-62273657D01*
X194601857Y-62416514D01*
X194649476Y-62511752D01*
X194697095Y-62559371D01*
X194792333Y-62606990D01*
X195173285Y-62606990D01*
X193649476Y-63083180D02*
X194220904Y-63083180D01*
X193935190Y-63083180D02*
X193935190Y-62083180D01*
X194030428Y-62226038D01*
X194125666Y-62321276D01*
X194220904Y-62368895D01*
X193316142Y-62083180D02*
X192697095Y-62083180D01*
X193030428Y-62464133D01*
X192887571Y-62464133D01*
X192792333Y-62511752D01*
X192744714Y-62559371D01*
X192697095Y-62654609D01*
X192697095Y-62892704D01*
X192744714Y-62987942D01*
X192792333Y-63035561D01*
X192887571Y-63083180D01*
X193173285Y-63083180D01*
X193268523Y-63035561D01*
X193316142Y-62987942D01*
X175301857Y-39233180D02*
X175635190Y-38756990D01*
X175873285Y-39233180D02*
X175873285Y-38233180D01*
X175492333Y-38233180D01*
X175397095Y-38280800D01*
X175349476Y-38328419D01*
X175301857Y-38423657D01*
X175301857Y-38566514D01*
X175349476Y-38661752D01*
X175397095Y-38709371D01*
X175492333Y-38756990D01*
X175873285Y-38756990D01*
X174349476Y-39233180D02*
X174920904Y-39233180D01*
X174635190Y-39233180D02*
X174635190Y-38233180D01*
X174730428Y-38376038D01*
X174825666Y-38471276D01*
X174920904Y-38518895D01*
X173730428Y-38233180D02*
X173635190Y-38233180D01*
X173539952Y-38280800D01*
X173492333Y-38328419D01*
X173444714Y-38423657D01*
X173397095Y-38614133D01*
X173397095Y-38852228D01*
X173444714Y-39042704D01*
X173492333Y-39137942D01*
X173539952Y-39185561D01*
X173635190Y-39233180D01*
X173730428Y-39233180D01*
X173825666Y-39185561D01*
X173873285Y-39137942D01*
X173920904Y-39042704D01*
X173968523Y-38852228D01*
X173968523Y-38614133D01*
X173920904Y-38423657D01*
X173873285Y-38328419D01*
X173825666Y-38280800D01*
X173730428Y-38233180D01*
X175401857Y-36983180D02*
X175735190Y-36506990D01*
X175973285Y-36983180D02*
X175973285Y-35983180D01*
X175592333Y-35983180D01*
X175497095Y-36030800D01*
X175449476Y-36078419D01*
X175401857Y-36173657D01*
X175401857Y-36316514D01*
X175449476Y-36411752D01*
X175497095Y-36459371D01*
X175592333Y-36506990D01*
X175973285Y-36506990D01*
X174449476Y-36983180D02*
X175020904Y-36983180D01*
X174735190Y-36983180D02*
X174735190Y-35983180D01*
X174830428Y-36126038D01*
X174925666Y-36221276D01*
X175020904Y-36268895D01*
X173497095Y-36983180D02*
X174068523Y-36983180D01*
X173782809Y-36983180D02*
X173782809Y-35983180D01*
X173878047Y-36126038D01*
X173973285Y-36221276D01*
X174068523Y-36268895D01*
X176011380Y-41914133D02*
X175535190Y-41580800D01*
X176011380Y-41342704D02*
X175011380Y-41342704D01*
X175011380Y-41723657D01*
X175059000Y-41818895D01*
X175106619Y-41866514D01*
X175201857Y-41914133D01*
X175344714Y-41914133D01*
X175439952Y-41866514D01*
X175487571Y-41818895D01*
X175535190Y-41723657D01*
X175535190Y-41342704D01*
X175439952Y-42485561D02*
X175392333Y-42390323D01*
X175344714Y-42342704D01*
X175249476Y-42295085D01*
X175201857Y-42295085D01*
X175106619Y-42342704D01*
X175059000Y-42390323D01*
X175011380Y-42485561D01*
X175011380Y-42676038D01*
X175059000Y-42771276D01*
X175106619Y-42818895D01*
X175201857Y-42866514D01*
X175249476Y-42866514D01*
X175344714Y-42818895D01*
X175392333Y-42771276D01*
X175439952Y-42676038D01*
X175439952Y-42485561D01*
X175487571Y-42390323D01*
X175535190Y-42342704D01*
X175630428Y-42295085D01*
X175820904Y-42295085D01*
X175916142Y-42342704D01*
X175963761Y-42390323D01*
X176011380Y-42485561D01*
X176011380Y-42676038D01*
X175963761Y-42771276D01*
X175916142Y-42818895D01*
X175820904Y-42866514D01*
X175630428Y-42866514D01*
X175535190Y-42818895D01*
X175487571Y-42771276D01*
X175439952Y-42676038D01*
X163125666Y-44907942D02*
X163173285Y-44955561D01*
X163316142Y-45003180D01*
X163411380Y-45003180D01*
X163554238Y-44955561D01*
X163649476Y-44860323D01*
X163697095Y-44765085D01*
X163744714Y-44574609D01*
X163744714Y-44431752D01*
X163697095Y-44241276D01*
X163649476Y-44146038D01*
X163554238Y-44050800D01*
X163411380Y-44003180D01*
X163316142Y-44003180D01*
X163173285Y-44050800D01*
X163125666Y-44098419D01*
X162173285Y-45003180D02*
X162744714Y-45003180D01*
X162459000Y-45003180D02*
X162459000Y-44003180D01*
X162554238Y-44146038D01*
X162649476Y-44241276D01*
X162744714Y-44288895D01*
X170975666Y-33333180D02*
X171309000Y-32856990D01*
X171547095Y-33333180D02*
X171547095Y-32333180D01*
X171166142Y-32333180D01*
X171070904Y-32380800D01*
X171023285Y-32428419D01*
X170975666Y-32523657D01*
X170975666Y-32666514D01*
X171023285Y-32761752D01*
X171070904Y-32809371D01*
X171166142Y-32856990D01*
X171547095Y-32856990D01*
X170023285Y-33333180D02*
X170594714Y-33333180D01*
X170309000Y-33333180D02*
X170309000Y-32333180D01*
X170404238Y-32476038D01*
X170499476Y-32571276D01*
X170594714Y-32618895D01*
D11*
X188081936Y-55065800D02*
X188536064Y-55065800D01*
X188081936Y-53595800D02*
X188536064Y-53595800D01*
X177981936Y-34865800D02*
X178436064Y-34865800D01*
X177981936Y-33395800D02*
X178436064Y-33395800D01*
D12*
X181559000Y-42800800D02*
X181559000Y-43640800D01*
X180259000Y-42510800D02*
X180259000Y-41850800D01*
X181559000Y-41560800D02*
X181559000Y-40720800D01*
X181559000Y-43640800D02*
X180784000Y-43640800D01*
X181559000Y-40720800D02*
X180784000Y-40720800D01*
D13*
X178509000Y-43380800D02*
G75*
G03*
X178509000Y-43380800I-100000J0D01*
G01*
D11*
X193731936Y-61715800D02*
X194186064Y-61715800D01*
X193731936Y-60245800D02*
X194186064Y-60245800D01*
X177781936Y-39565800D02*
X178236064Y-39565800D01*
X177781936Y-38095800D02*
X178236064Y-38095800D01*
X177931936Y-37265800D02*
X178386064Y-37265800D01*
X177931936Y-35795800D02*
X178386064Y-35795800D01*
X178244000Y-42407864D02*
X178244000Y-41953736D01*
X176774000Y-42407864D02*
X176774000Y-41953736D01*
X163220252Y-45495800D02*
X162697748Y-45495800D01*
X163220252Y-46965800D02*
X162697748Y-46965800D01*
X171036064Y-33795800D02*
X170581936Y-33795800D01*
X171036064Y-35265800D02*
X170581936Y-35265800D01*
M02*
