<?xml version="1.0" encoding="UTF-8" standalone="no"?>
<svg
   viewBox="0 0 793.7007874015749 1122.5196850393702"
   width="793.7007874015749"
   height="1122.5196850393702"
   version="1.1"
   id="svg43"
   sodipodi:docname="buffer.svg"
   inkscape:version="1.1.2 (b8e25be833, 2022-02-05)"
   xmlns:inkscape="http://www.inkscape.org/namespaces/inkscape"
   xmlns:sodipodi="http://sodipodi.sourceforge.net/DTD/sodipodi-0.dtd"
   xmlns="http://www.w3.org/2000/svg"
   xmlns:svg="http://www.w3.org/2000/svg">
  <sodipodi:namedview
     id="namedview45"
     pagecolor="#ffffff"
     bordercolor="#666666"
     borderopacity="1.0"
     inkscape:pageshadow="2"
     inkscape:pageopacity="0.0"
     inkscape:pagecheckerboard="0"
     showgrid="false"
     inkscape:zoom="0.69397449"
     inkscape:cx="345.11355"
     inkscape:cy="601.60713"
     inkscape:window-width="1920"
     inkscape:window-height="1001"
     inkscape:window-x="-9"
     inkscape:window-y="-9"
     inkscape:window-maximized="1"
     inkscape:current-layer="g39" />
  <desc
     id="desc9">output.dxf - scale = 1.0, origin = (0.0, 0.0), method = manual</desc>
  <defs
     id="defs21">
    <marker
       id="DistanceX"
       orient="auto"
       refX="0.0"
       refY="0.0"
       style="overflow:visible">
      <path
         d="M 3,-3 L -3,3 M 0,-5 L  0,5"
         style="stroke:#000000; stroke-width:0.5"
         id="path11" />
    </marker>
    <pattern
       id="Hatch"
       patternUnits="userSpaceOnUse"
       width="8"
       height="8"
       x="0"
       y="0">
      <path
         d="M8 4 l-4,4"
         stroke="#000000"
         stroke-width="0.25"
         linecap="square"
         id="path14" />
      <path
         d="M6 2 l-4,4"
         stroke="#000000"
         stroke-width="0.25"
         linecap="square"
         id="path16" />
      <path
         d="M4 0 l-4,4"
         stroke="#000000"
         stroke-width="0.25"
         linecap="square"
         id="path18" />
    </pattern>
  </defs>
  <g
     inkscape:groupmode="layer"
     inkscape:label="OpenJsCad"
     id="g39">
    <path
       d="m 45.858903,755.88043 v 41.2312 h 42.179528 v -22.6772 h 40.970079 v 22.6772 h 42.17953 v -22.6772 h 40.97008 v 22.6772 h 41.5748 v -41.836 h -22.67716 v -40.6265 h 22.67716 v -41.8359 h -22.67716 v -40.62647 h 22.67716 v -41.83594 h -22.67716 v -40.62648 h 22.67716 V 507.8884 h -22.67716 v -40.62648 h 22.67716 V 425.42598 H 231.05576 V 384.7995 h 22.67716 v -41.23121 h -42.17953 v 22.67716 h -40.97008 v -22.67716 h -42.17953 v 22.67716 H 87.433711 V 343.56829 H 45.858903 v 41.83593 h 22.677168 v 40.62649 H 45.858903 v 41.83593 h 22.677168 v 40.62649 H 45.858903 v 41.83593 h 22.677168 v 40.62649 H 45.858903 v 41.83593 h 22.677168 v 40.62645 H 45.858903 v 41.836 h 22.677168 v 40.6265 z"
       style="fill:none;stroke:#000000"
       id="path23" />
    <path
       d="m 79.001332,127.4739 v 63.59685 H 101.6785 v 40.31496 h 18.29291 v 22.67716 h 42.17953 v -22.67716 h 40.97008 v 22.67716 h 42.17953 v -22.67716 h 18.89764 v -39.71024 h 22.67716 V 128.07862 H 264.19819 V 87.763661 h -18.29292 v -22.67717 h -42.17953 v 22.67717 h -40.97008 v -22.67717 h -42.17952 v 22.67717 H 101.6785 V 127.4739 Z"
       style="fill:none;stroke:#000000"
       id="path25" />
    <path
       d="M 371.64706,311.86684 H 331.3321 v 40.62648 h -22.67716 v 41.83594 h 22.67716 v 40.62648 h -22.67716 v 41.83594 h 22.67716 v 40.62648 h -22.67716 v 41.83594 h 22.67716 v 40.62648 h -22.67716 v 41.8359 h 22.67716 v 40.6265 h -22.67716 v 41.836 h 22.67716 v 41.2312 h 40.91969 v -22.6772 h 62.3874 v 22.6772 h 40.31496 v -40.6265 h 22.67717 v -41.836 h -22.67717 v -40.6264 h 22.67717 v -41.83597 h -22.67717 v -40.62649 h 22.67717 V 518.02289 H 474.95415 V 477.3964 h 22.67717 v -41.83593 h -22.67717 v -40.62649 h 22.67717 V 353.09805 H 474.95415 V 311.86684 H 434.03447 V 334.544 h -62.38741 z"
       style="fill:none;stroke:#000000"
       id="path27" />
    <path
       d="M 621.30936,350.77317 H 580.9944 v 40.62648 h -22.67717 v 41.83594 h 22.67717 v 40.62648 h -22.67717 v 41.83594 h 22.67717 v 40.62648 h -22.67717 v 41.83594 h 22.67717 v 40.62648 h -22.67717 v 41.8359 h 22.67717 v 40.6265 h -22.67717 v 41.836 h 22.67717 v 41.2312 h 40.91969 v -22.6772 h 62.3874 v 22.6772 h 40.31496 v -40.6265 h 22.67716 v -41.836 h -22.67716 v -40.6264 h 22.67716 v -41.83597 h -22.67716 v -40.62649 h 22.67716 v -41.83593 h -22.67716 v -40.62649 h 22.67716 V 474.4668 h -22.67716 v -40.62649 h 22.67716 v -41.83593 h -22.67716 v -41.23121 h -40.91969 v 22.67716 h -62.3874 z"
       style="fill:none;stroke:#000000"
       id="path29" />
    <path
       d="m 618.49621,889.8362 v -41.5748 h -41.8359 v 22.6772 h -40.6265 v -22.6772 h -41.836 v 22.6772 h -40.6265 v -22.6772 h -41.8359 v 22.6772 h -40.6265 v -22.6772 h -41.8359 v 22.6772 h -40.6265 v -22.6772 h -41.83595 v 22.6772 h -40.62654 v -22.6772 h -41.2312 v 42.1795 h 22.6772 v 40.9701 h -22.6772 v 42.1795 h 22.6772 v 40.9701 h -22.6772 v 41.5748 h 41.836 v -22.6772 h 40.62654 v 22.6772 h 41.83585 v -22.6772 h 40.6265 v 22.6772 h 41.836 v -22.6772 h 40.6264 v 22.6772 h 41.836 v -22.6772 h 40.6265 v 22.6772 h 41.8359 v -22.6772 h 40.6265 v 22.6772 h 41.2312 v -42.1795 h -22.6772 v -40.9701 h 22.6772 v -42.1795 h -22.6772 v -40.9701 z"
       style="fill:none;stroke:#000000"
       id="path31" />
    <path
       d="m 495.60327,193.9527 v 40.31496 h 18.29292 v 22.67716 h 42.17953 v -22.67716 h 40.97007 v 22.67716 h 42.17953 v -22.67716 h 18.89764 v -39.71024 h 22.67716 V 130.96057 H 658.12296 V 90.645611 h -18.29291 v -22.67717 h -42.17953 v 22.67717 h -40.97008 v -22.67717 h -42.17953 v 22.67717 h -18.89764 v 39.710239 h -22.67716 v 63.59685 z"
       style="fill:none;stroke:#000000"
       id="path33" />
    <path
       d="m 126.24543,140.67704 h 113.38583 v 37.79528 H 126.24543 Z"
       style="fill:none;stroke:#000000"
       id="path35" />
    <path
       d="m 410.62211,895.50546 v 113.38584 h -37.7952 V 895.50546 Z"
       style="fill:none;stroke:#000000"
       id="path37" />
  </g>
  <g
     inkscape:groupmode="layer"
     inkscape:label="0"
     id="g41" />
</svg>
