999
DXF generated by OpenJsCad
  0
SECTION
  2
HEADER
  0
ENDSEC
  0
SECTION
  2
TABLES
  0
TABLE
  2
LTYPE
  70
1
  0
LTYPE
  2
CONTINUOUS
  3
Solid Line
  72
65
  73
0
  40
0.0
  0
ENDTAB
  0
TABLE
  2
LAYER
  70
1
  0
LAYER
  2
OpenJsCad
  62
7
  6
continuous
  0
ENDTAB
  0
TABLE
  2
STYLE
  70
0
  0
ENDTAB
  0
TABLE
  2
VIEW
  70
0
  0
ENDTAB
  0
ENDSEC
  0
SECTION
  2
BLOCKS
  0
ENDSEC
  0
SECTION
  2
ENTITIES
  0
LWPOLYLINE
  8
OpenJsCad
  90
61
  70
1
 10
-95
 20
-84.0909090909091
 30
0.0
 10
-95
 20
-95
 30
0.0
 10
-83.84
 20
-95
 30
0.0
 10
-83.84
 20
-89
 30
0.0
 10
-73
 20
-89
 30
0.0
 10
-73
 20
-95
 30
0.0
 10
-61.84
 20
-95
 30
0.0
 10
-61.84
 20
-89
 30
0.0
 10
-51
 20
-89
 30
0.0
 10
-51
 20
-95
 30
0.0
 10
-40
 20
-95
 30
0.0
 10
-40
 20
-83.9309090909091
 30
0.0
 10
-46
 20
-83.9309090909091
 30
0.0
 10
-46
 20
-73.18181818181819
 30
0.0
 10
-40
 20
-73.18181818181819
 30
0.0
 10
-40
 20
-62.11272727272728
 30
0.0
 10
-46
 20
-62.11272727272728
 30
0.0
 10
-46
 20
-51.36363636363637
 30
0.0
 10
-40
 20
-51.36363636363637
 30
0.0
 10
-40
 20
-40.29454545454546
 30
0.0
 10
-46
 20
-40.29454545454546
 30
0.0
 10
-46
 20
-29.54545454545455
 30
0.0
 10
-40
 20
-29.54545454545455
 30
0.0
 10
-40
 20
-18.47636363636364
 30
0.0
 10
-46
 20
-18.47636363636364
 30
0.0
 10
-46
 20
-7.72727272727273
 30
0.0
 10
-40
 20
-7.72727272727273
 30
0.0
 10
-40
 20
3.34181818181818
 30
0.0
 10
-46
 20
3.34181818181818
 30
0.0
 10
-46
 20
14.09090909090909
 30
0.0
 10
-40
 20
14.09090909090909
 30
0.0
 10
-40
 20
25
 30
0.0
 10
-51.16
 20
25
 30
0.0
 10
-51.16
 20
19
 30
0.0
 10
-62
 20
19
 30
0.0
 10
-62
 20
25
 30
0.0
 10
-73.16
 20
25
 30
0.0
 10
-73.16
 20
19
 30
0.0
 10
-84
 20
19
 30
0.0
 10
-84
 20
25
 30
0.0
 10
-95
 20
25
 30
0.0
 10
-95
 20
13.930909090909097
 30
0.0
 10
-89
 20
13.930909090909097
 30
0.0
 10
-89
 20
3.181818181818187
 30
0.0
 10
-95
 20
3.181818181818187
 30
0.0
 10
-95
 20
-7.88727272727273
 30
0.0
 10
-89
 20
-7.88727272727273
 30
0.0
 10
-89
 20
-18.63636363636364
 30
0.0
 10
-95
 20
-18.63636363636364
 30
0.0
 10
-95
 20
-29.705454545454558
 30
0.0
 10
-89
 20
-29.705454545454558
 30
0.0
 10
-89
 20
-40.45454545454545
 30
0.0
 10
-95
 20
-40.45454545454545
 30
0.0
 10
-95
 20
-51.52363636363636
 30
0.0
 10
-89
 20
-51.52363636363636
 30
0.0
 10
-89
 20
-62.27272727272727
 30
0.0
 10
-95
 20
-62.27272727272727
 30
0.0
 10
-95
 20
-73.34181818181818
 30
0.0
 10
-89
 20
-73.34181818181818
 30
0.0
 10
-89
 20
-84.0909090909091
 30
0.0
 10
-95
 20
-84.0909090909091
 30
0.0
  0
LWPOLYLINE
  8
OpenJsCad
  90
29
  70
1
 10
-95
 20
63.49333333333333
 30
0.0
 10
-95
 20
46.66666666666667
 30
0.0
 10
-89
 20
46.66666666666667
 30
0.0
 10
-89
 20
36
 30
0.0
 10
-84.16
 20
36
 30
0.0
 10
-84.16
 20
30
 30
0.0
 10
-73
 20
30
 30
0.0
 10
-73
 20
36
 30
0.0
 10
-62.16
 20
36
 30
0.0
 10
-62.16
 20
30
 30
0.0
 10
-51
 20
30
 30
0.0
 10
-51
 20
36
 30
0.0
 10
-46
 20
36
 30
0.0
 10
-46
 20
46.50666666666667
 30
0.0
 10
-40
 20
46.50666666666667
 30
0.0
 10
-40
 20
63.33333333333333
 30
0.0
 10
-46
 20
63.33333333333333
 30
0.0
 10
-46
 20
74
 30
0.0
 10
-50.84
 20
74
 30
0.0
 10
-50.84
 20
80
 30
0.0
 10
-62
 20
80
 30
0.0
 10
-62
 20
74
 30
0.0
 10
-72.84
 20
74
 30
0.0
 10
-72.84
 20
80
 30
0.0
 10
-84
 20
80
 30
0.0
 10
-84
 20
74
 30
0.0
 10
-89
 20
74
 30
0.0
 10
-89
 20
63.49333333333333
 30
0.0
 10
-95
 20
63.49333333333333
 30
0.0
  0
LWPOLYLINE
  8
OpenJsCad
  90
53
  70
1
 10
-18.333333333333332
 20
25
 30
0.0
 10
-29
 20
25
 30
0.0
 10
-29
 20
14.250909090909092
 30
0.0
 10
-35
 20
14.250909090909092
 30
0.0
 10
-35
 20
3.1818181818181817
 30
0.0
 10
-29
 20
3.1818181818181817
 30
0.0
 10
-29
 20
-7.567272727272728
 30
0.0
 10
-35
 20
-7.567272727272728
 30
0.0
 10
-35
 20
-18.63636363636364
 30
0.0
 10
-29
 20
-18.63636363636364
 30
0.0
 10
-29
 20
-29.38545454545455
 30
0.0
 10
-35
 20
-29.38545454545455
 30
0.0
 10
-35
 20
-40.45454545454545
 30
0.0
 10
-29
 20
-40.45454545454545
 30
0.0
 10
-29
 20
-51.20363636363636
 30
0.0
 10
-35
 20
-51.20363636363636
 30
0.0
 10
-35
 20
-62.27272727272727
 30
0.0
 10
-29
 20
-62.27272727272727
 30
0.0
 10
-29
 20
-73.02181818181819
 30
0.0
 10
-35
 20
-73.02181818181819
 30
0.0
 10
-35
 20
-84.0909090909091
 30
0.0
 10
-29
 20
-84.0909090909091
 30
0.0
 10
-29
 20
-95
 30
0.0
 10
-18.173333333333332
 20
-95
 30
0.0
 10
-18.173333333333332
 20
-89
 30
0.0
 10
-1.6666666666666679
 20
-89
 30
0.0
 10
-1.6666666666666679
 20
-95
 30
0.0
 10
9
 20
-95
 30
0.0
 10
9
 20
-84.25090909090909
 30
0.0
 10
15
 20
-84.25090909090909
 30
0.0
 10
15
 20
-73.18181818181819
 30
0.0
 10
9
 20
-73.18181818181819
 30
0.0
 10
9
 20
-62.43272727272728
 30
0.0
 10
15
 20
-62.43272727272728
 30
0.0
 10
15
 20
-51.36363636363637
 30
0.0
 10
9
 20
-51.36363636363637
 30
0.0
 10
9
 20
-40.61454545454546
 30
0.0
 10
15
 20
-40.61454545454546
 30
0.0
 10
15
 20
-29.54545454545455
 30
0.0
 10
9
 20
-29.54545454545455
 30
0.0
 10
9
 20
-18.79636363636364
 30
0.0
 10
15
 20
-18.79636363636364
 30
0.0
 10
15
 20
-7.72727272727273
 30
0.0
 10
9
 20
-7.72727272727273
 30
0.0
 10
9
 20
3.0218181818181797
 30
0.0
 10
15
 20
3.0218181818181797
 30
0.0
 10
15
 20
14.09090909090909
 30
0.0
 10
9
 20
14.09090909090909
 30
0.0
 10
9
 20
25
 30
0.0
 10
-1.826666666666668
 20
25
 30
0.0
 10
-1.826666666666668
 20
19
 30
0.0
 10
-18.333333333333332
 20
19
 30
0.0
 10
-18.333333333333332
 20
25
 30
0.0
  0
LWPOLYLINE
  8
OpenJsCad
  90
53
  70
1
 10
36.66666666666667
 20
25
 30
0.0
 10
26.000000000000043
 20
25
 30
0.0
 10
26.000000000000036
 20
14.250909090909092
 30
0.0
 10
20.000000000000004
 20
14.250909090909092
 30
0.0
 10
20.000000000000004
 20
3.1818181818181817
 30
0.0
 10
26.000000000000032
 20
3.1818181818181817
 30
0.0
 10
26.000000000000025
 20
-7.567272727272728
 30
0.0
 10
20.000000000000004
 20
-7.567272727272728
 30
0.0
 10
20.000000000000004
 20
-18.63636363636364
 30
0.0
 10
26.000000000000018
 20
-18.63636363636364
 30
0.0
 10
26.00000000000001
 20
-29.38545454545455
 30
0.0
 10
20.000000000000004
 20
-29.38545454545455
 30
0.0
 10
20.000000000000004
 20
-40.45454545454545
 30
0.0
 10
26.000000000000004
 20
-40.45454545454545
 30
0.0
 10
25.999999999999996
 20
-51.20363636363636
 30
0.0
 10
20.000000000000004
 20
-51.20363636363636
 30
0.0
 10
20.000000000000004
 20
-62.27272727272727
 30
0.0
 10
25.999999999999993
 20
-62.27272727272727
 30
0.0
 10
25.999999999999986
 20
-73.02181818181819
 30
0.0
 10
20.000000000000004
 20
-73.02181818181819
 30
0.0
 10
20.000000000000004
 20
-84.0909090909091
 30
0.0
 10
25.99999999999998
 20
-84.0909090909091
 30
0.0
 10
25.99999999999997
 20
-95
 30
0.0
 10
36.82666666666667
 20
-95
 30
0.0
 10
36.82666666666667
 20
-89
 30
0.0
 10
53.33333333333333
 20
-89
 30
0.0
 10
53.33333333333333
 20
-95
 30
0.0
 10
64
 20
-95
 30
0.0
 10
64
 20
-84.25090909090909
 30
0.0
 10
70
 20
-84.25090909090909
 30
0.0
 10
70
 20
-73.18181818181819
 30
0.0
 10
64
 20
-73.18181818181819
 30
0.0
 10
64
 20
-62.43272727272728
 30
0.0
 10
70
 20
-62.43272727272728
 30
0.0
 10
70
 20
-51.36363636363637
 30
0.0
 10
64
 20
-51.36363636363637
 30
0.0
 10
64
 20
-40.61454545454546
 30
0.0
 10
70
 20
-40.61454545454546
 30
0.0
 10
70
 20
-29.54545454545455
 30
0.0
 10
64
 20
-29.54545454545455
 30
0.0
 10
64
 20
-18.79636363636364
 30
0.0
 10
70
 20
-18.79636363636364
 30
0.0
 10
70
 20
-7.72727272727273
 30
0.0
 10
64
 20
-7.72727272727273
 30
0.0
 10
64
 20
3.0218181818181797
 30
0.0
 10
70
 20
3.0218181818181797
 30
0.0
 10
70
 20
14.09090909090909
 30
0.0
 10
64
 20
14.09090909090909
 30
0.0
 10
64
 20
25
 30
0.0
 10
53.17333333333333
 20
25
 30
0.0
 10
53.17333333333333
 20
19
 30
0.0
 10
36.66666666666667
 20
19
 30
0.0
 10
36.66666666666667
 20
25
 30
0.0
  0
LWPOLYLINE
  8
OpenJsCad
  90
61
  70
1
 10
86
 20
25
 30
0.0
 10
75
 20
25
 30
0.0
 10
75
 20
13.930909090909097
 30
0.0
 10
81
 20
13.930909090909097
 30
0.0
 10
81
 20
3.181818181818187
 30
0.0
 10
75
 20
3.181818181818187
 30
0.0
 10
75
 20
-7.88727272727273
 30
0.0
 10
81
 20
-7.88727272727273
 30
0.0
 10
81
 20
-18.63636363636364
 30
0.0
 10
75
 20
-18.63636363636364
 30
0.0
 10
75
 20
-29.705454545454558
 30
0.0
 10
81
 20
-29.705454545454558
 30
0.0
 10
81
 20
-40.45454545454545
 30
0.0
 10
75
 20
-40.45454545454545
 30
0.0
 10
75
 20
-51.52363636363636
 30
0.0
 10
81
 20
-51.52363636363636
 30
0.0
 10
81
 20
-62.27272727272727
 30
0.0
 10
75
 20
-62.27272727272727
 30
0.0
 10
75
 20
-73.34181818181818
 30
0.0
 10
81
 20
-73.34181818181818
 30
0.0
 10
81
 20
-84.0909090909091
 30
0.0
 10
75
 20
-84.0909090909091
 30
0.0
 10
75
 20
-95
 30
0.0
 10
86.16
 20
-95
 30
0.0
 10
86.16
 20
-89
 30
0.0
 10
97
 20
-89
 30
0.0
 10
97
 20
-95
 30
0.0
 10
108.16
 20
-95
 30
0.0
 10
108.16
 20
-89
 30
0.0
 10
119
 20
-89
 30
0.0
 10
119
 20
-95
 30
0.0
 10
130
 20
-95
 30
0.0
 10
130
 20
-83.9309090909091
 30
0.0
 10
124
 20
-83.9309090909091
 30
0.0
 10
124
 20
-73.18181818181819
 30
0.0
 10
130
 20
-73.18181818181819
 30
0.0
 10
130
 20
-62.11272727272728
 30
0.0
 10
124
 20
-62.11272727272728
 30
0.0
 10
124
 20
-51.36363636363637
 30
0.0
 10
130
 20
-51.36363636363637
 30
0.0
 10
130
 20
-40.29454545454546
 30
0.0
 10
124
 20
-40.29454545454546
 30
0.0
 10
124
 20
-29.54545454545455
 30
0.0
 10
130
 20
-29.54545454545455
 30
0.0
 10
130
 20
-18.47636363636364
 30
0.0
 10
124
 20
-18.47636363636364
 30
0.0
 10
124
 20
-7.72727272727273
 30
0.0
 10
130
 20
-7.72727272727273
 30
0.0
 10
130
 20
3.34181818181818
 30
0.0
 10
124
 20
3.34181818181818
 30
0.0
 10
124
 20
14.09090909090909
 30
0.0
 10
130
 20
14.09090909090909
 30
0.0
 10
130
 20
25
 30
0.0
 10
118.84
 20
25
 30
0.0
 10
118.84
 20
19
 30
0.0
 10
108
 20
19
 30
0.0
 10
108
 20
25
 30
0.0
 10
96.84
 20
25
 30
0.0
 10
96.84
 20
19
 30
0.0
 10
86
 20
19
 30
0.0
 10
86
 20
25
 30
0.0
  0
LWPOLYLINE
  8
OpenJsCad
  90
29
  70
1
 10
-29
 20
46.66666666666667
 30
0.0
 10
-29
 20
36
 30
0.0
 10
-24.159999999999997
 20
36
 30
0.0
 10
-24.16
 20
30
 30
0.0
 10
-13
 20
30
 30
0.0
 10
-13
 20
36
 30
0.0
 10
-2.16
 20
36
 30
0.0
 10
-2.16
 20
30
 30
0.0
 10
9
 20
30
 30
0.0
 10
9
 20
36
 30
0.0
 10
14
 20
36
 30
0.0
 10
14
 20
46.50666666666667
 30
0.0
 10
20
 20
46.50666666666667
 30
0.0
 10
20
 20
63.33333333333333
 30
0.0
 10
14
 20
63.33333333333333
 30
0.0
 10
14
 20
74
 30
0.0
 10
9.159999999999997
 20
74
 30
0.0
 10
9.16
 20
80
 30
0.0
 10
-2
 20
80
 30
0.0
 10
-2
 20
74
 30
0.0
 10
-12.84
 20
74
 30
0.0
 10
-12.84
 20
80
 30
0.0
 10
-24
 20
80
 30
0.0
 10
-24
 20
74
 30
0.0
 10
-29
 20
74
 30
0.0
 10
-29
 20
63.49333333333333
 30
0.0
 10
-35
 20
63.49333333333333
 30
0.0
 10
-35
 20
46.66666666666667
 30
0.0
 10
-29
 20
46.66666666666667
 30
0.0
  0
LWPOLYLINE
  8
OpenJsCad
  90
5
  70
1
 10
-82.5
 20
60
 30
0.0
 10
-52.5
 20
60
 30
0.0
 10
-52.5
 20
50
 30
0.0
 10
-82.5
 20
50
 30
0.0
 10
-82.5
 20
60
 30
0.0
  0
LWPOLYLINE
  8
OpenJsCad
  90
5
  70
1
 10
87.5
 20
-30
 30
0.0
 10
117.5
 20
-30
 30
0.0
 10
117.5
 20
-40
 30
0.0
 10
87.5
 20
-40
 30
0.0
 10
87.5
 20
-30
 30
0.0
  0
ENDSEC
  0
EOF
